<svg
   width="500"
   height="500"
   viewBox="0 0 500 500"
   preserveAspectRatio="xMinYMin meet"
   version="1.1"
   xmlns="http://www.w3.org/2000/svg"
   xmlns:svg="http://www.w3.org/2000/svg">

  <circle cx="250" cy="250" r="250" style="fill:#101010" />
  <path d="M 419.95270237378355 135.36545478849695 A 205 205 0 0 0  59.92730981380859 326.79435165026194"
    style="stroke:green;stroke-width:32;fill:none" />
  <path d="M 336.6367436568434 64.20690365748678 A 205 205 0 0 0  278.5304856968134 46.99504590797807"
    style="stroke:yellow;stroke-width:32;fill:none" />
  <path d="M 417.9261690792433 132.41683054803553 A 205 205 0 0 0  411.54220448937804 123.78939755824005" class="red arc"
    style="stroke:red;stroke-width:32;fill:none" />
  <path style="stroke:none;fill:white" d="
m 207.82096,206.40644
h 3.05789
v 4.90641
h 3.3414
v -4.90641
h 3.07139
v 14.02107
h -3.07139
v -5.67155
h -3.3414
v 5.67155
h -3.05789
z

m 17.94232,0
h 3.05114
v 8.35908
q 0,1.24335 -0.27674,2.35279 -0.27003,1.09988 -0.85729,1.93196 -0.58053,0.82252 -1.22181,1.15727 -0.89104,0.46864 -2.13985,0.46864 -0.72227,0 -1.57957,-0.14343 -0.85054,-0.14342 -1.42432,-0.56428 -0.57378,-0.43037 -1.05304,-1.21465 -0.47252,-0.78427 -0.64803,-1.61635 -0.28351,-1.33898 -0.28351,-2.37191
v -8.35909
h 3.05115
v 8.55994
q 0,1.14769 0.44551,1.79806 0.45228,0.64079 1.24881,0.64079 0.78979,0 1.23531,-0.63123 0.45227,-0.6408 0.45227,-1.80762
z

m 5.09649,0
h 2.85539
l 3.72616,7.75654
v -7.75654
h 2.88238
v 14.02107
h -2.88238
l -3.70592,-7.69916
v 7.69916
h -2.87563
z

m 11.53627,0
h 4.54296
q 1.34332,0 2.16686,0.51646 0.83028,0.51647 1.37031,1.48244 0.54002,0.96599 0.78304,2.24759 0.24301,1.28159 0.24301,2.71622 0,2.24758 -0.36451,3.49093 -0.35777,1.23378 -0.99905,2.07542 -0.64128,0.83208 -1.37707,1.10945 -1.00579,0.38257 -1.82259,0.38257
h -4.54296
z

m 3.05791,3.1753
v 7.6609
h 0.74927
q 0.95855,0 1.36357,-0.2965 0.40502,-0.30604 0.63453,-1.05206 0.2295,-0.75556 0.2295,-2.43886 0,-2.22845 -0.51302,-3.05097 -0.51301,-0.82252 -1.70106,-0.82252
z

m 7.69535,10.84577
v -14.02107
h 5.09648
q 1.41757,0 2.16685,0.34432 0.74928,0.3443 1.20831,1.2816 0.45902,0.92773 0.45902,2.26671 0,1.16683 -0.35101,2.01804 -0.35101,0.84165 -0.9653,1.36768 -0.39151,0.33473 -1.0733,0.55471 0.54678,0.25826 0.79654,0.51648 0.16875,0.17214 0.48602,0.73644 0.32403,0.56429 0.43202,0.87033
l 1.47832,4.06478
h -3.45617
l -1.63356,-4.28475
q -0.31053,-0.83208 -0.55354,-1.08075 -0.33078,-0.32521 -0.74928,-0.32521
h -0.27003
v 5.69068
z

m 3.07139,-8.33996
H 257.51
q 0.20924,0 0.81004,-0.1913 0.30376,-0.086 0.49276,-0.43995 0.19577,-0.3539 0.19577,-0.81295 0,-0.67906 -0.30376,-1.0425 -0.30377,-0.36342 -1.1408,-0.36342
h -1.34332
z

m 7.63459,-5.68111
h 8.19489
v 2.99358
h -5.13024
v 2.22845
h 4.75897
v 2.85968
h -4.75897
v 2.76406
h 5.27874
v 3.1753
h -8.34339
z

m 9.29518,0
h 9.29518
v 3.46222
H 279.327
v 10.55885
h -3.0579
v -10.55885
h -3.11864
z

m 10.14572,9.38245 2.90939,-0.25826
q 0.0945,1.00424 0.38476,1.53027 0.47253,0.85121 1.35007,0.85121 0.65478,0 1.00579,-0.43037 0.35777,-0.43995 0.35777,-1.01381 0,-0.54516 -0.3375,-0.97554 -0.3375,-0.43038 -1.56608,-0.81296 -2.01159,-0.6408 -2.86888,-1.70242 -0.86404,-1.06163 -0.86404,-2.70666 0,-1.08075 0.43877,-2.03717 0.44552,-0.96598 1.32981,-1.51114 0.89105,-0.55473 2.43687,-0.55473 1.89684,0 2.88913,1.00424 0.99904,0.99468 1.18806,3.17531
l -2.88239,0.2391
q -0.11475,-0.94686 -0.48602,-1.37725 -0.36452,-0.43037 -1.01255,-0.43037 -0.53327,0 -0.80328,0.3252 -0.27003,0.31562 -0.27003,0.77471 0,0.33473 0.22274,0.60254 0.216,0.27733 1.02605,0.51647 2.00484,0.61211 2.86889,1.24334 0.87079,0.62168 1.2623,1.5494 0.39827,0.92772 0.39827,2.07542 0,1.34854 -0.52652,2.48669 -0.52652,1.13813 -1.47157,1.73111 -0.94504,0.58342 -2.38286,0.58342 -2.52461,0 -3.49667,-1.37725 -0.97204,-1.37724 -1.1003,-3.50048
z

m -58.76406,-15.1473
V 177.2419
h 8.0807
q 2.24762,0 3.43565,0.57461 1.18802,0.57462 1.91582,2.13886 0.7278,1.54827 0.7278,3.7829 0,1.94732 -0.55655,3.36789 -0.55656,1.40462 -1.53052,2.28251 -0.62077,0.55866 -1.70177,0.92577 0.86694,0.43095 1.26295,0.86193 0.26755,0.28726 0.77061,1.22904 0.51374,0.94174 0.68499,1.45251
l 2.34393,6.78367
h -5.47989
l -2.59011,-7.15079
q -0.49233,-1.38865 -0.87763,-1.80366 -0.52446,-0.5427 -1.18803,-0.5427
h -0.42812
v 9.49715
z

m 4.86983,-13.9185
h 2.04426
q 0.33178,0 1.28435,-0.31927 0.48163,-0.14365 0.78131,-0.73422 0.31037,-0.59059 0.31037,-1.35675 0,-1.13327 -0.48163,-1.7398 -0.48164,-0.60655 -1.80879,-0.60655
h -2.12987
z

m 12.0943,-9.48119
h 8.0593
q 2.63293,0 3.93868,1.8675 1.31646,1.86751 1.31646,5.31522 0,3.54347 -1.4342,5.53867 -1.42348,1.99521 -4.35608,1.99521
h -2.65433
v 8.68309
h -4.86983
z

m 4.86983,9.976
h 1.18803
q 1.40208,0 1.96934,-0.71827 0.56724,-0.73424 0.56724,-1.86751 0,-1.10136 -0.49232,-1.86751 -0.49233,-0.76615 -1.8516,-0.76615
h -1.38069
z

m 10.92769,-9.976
h 6.37894
l 2.46167,14.23774 2.45097,-14.23774
h 6.35754
v 23.39969
h -3.96009
v -17.84506
l -3.07174,17.84506
h -3.58547
l -3.06104,-17.84506
v 17.84506
h -3.97078
z

m -147.60431,202.97335 4.78691,-0.62126
q 0.82441,3.96042 2.79236,5.7206 1.99453,1.73431 4.84009,1.73431 3.37742,0 5.69109,-2.27787 2.34026,-2.2779 2.34026,-5.64294 0,-3.20976 -2.15411,-5.28053 -2.1541,-2.09667 -5.47834,-2.09667 -1.35628,0 -3.37742,0.51768
l 0.53188,-4.08986
q 0.47869,0.0518 0.77122,0.0518 3.0583,0 5.50494,-1.5531 2.44663,-1.5531 2.44663,-4.78873 0,-2.5626 -1.78179,-4.24513 -1.78178,-1.68253 -4.60074,-1.68253 -2.79235,0 -4.65393,1.7084 -1.86158,1.70842 -2.39345,5.12524
l -4.78691,-0.82831
q 0.8776,-4.6852 3.98909,-7.24781 3.11149,-2.58851 7.73882,-2.58851 3.19127,0 5.87726,1.34603 2.68598,1.32013 4.09546,3.62389 1.43606,2.30377 1.43606,4.89228 0,2.45907 -1.35629,4.47809 -1.35628,2.01906 -4.01568,3.20978 3.45722,0.77653 5.37197,3.23562 1.91477,2.43319 1.91477,6.10881 0,4.96997 -3.72315,8.43854 -3.72314,3.44269 -9.41424,3.44269 -5.13262,0 -8.53664,-2.97675 -3.37743,-2.97678 -3.85612,-7.71374
z

m 229.84343,10.8296 3.96451,-0.62126
q 0.68272,3.96043 2.31257,5.7206 1.65188,1.73431 4.00851,1.73431 2.79715,0 4.71334,-2.2779 1.93819,-2.27788 1.93819,-5.64294 0,-3.20973 -1.78406,-5.28053 -1.78398,-2.09668 -4.53709,-2.09668 -1.12324,0 -2.79711,0.51769
l 0.44044,-4.08982
q 0.39644,0.0517 0.63872,0.0517 2.53291,0 4.55916,-1.55311 2.0263,-1.55308 2.0263,-4.78871 0,-2.56262 -1.47569,-4.24514 -1.47563,-1.68253 -3.81027,-1.68253 -2.31263,0 -3.85434,1.70842 -1.54178,1.70841 -1.98226,5.12523
l -3.96447,-0.82832
q 0.72681,-4.68519 3.30376,-7.24781 2.57687,-2.58851 6.40921,-2.58851 2.64297,0 4.86748,1.34603 2.22449,1.32013 3.39182,3.62389 1.18934,2.30377 1.18934,4.89227 0,2.45906 -1.12324,4.47811 -1.1233,2.01903 -3.32576,3.20972 2.86326,0.77658 4.449,3.23564 1.58581,2.43318 1.58581,6.10888 0,4.9699 -3.08353,8.4385 -3.08344,3.44268 -7.79675,3.44268 -4.25083,0 -7.06997,-2.97674 -2.79717,-2.97678 -3.19362,-7.71374
z

m 25.06428,0.0775 4.16268,-0.41416
q 0.46251,3.57214 2.13643,5.38409 1.69596,1.78606 4.07462,1.78606 2.86321,0 4.84544,-2.53672 1.98225,-2.53675 1.98225,-6.73011 0,-3.98629 -1.91622,-6.29007 -1.89412,-2.30377 -4.97758,-2.30377 -1.91615,0 -3.4579,1.03541 -1.54169,1.00952 -2.42272,2.64029
l -3.72221,-0.56947 3.12756,-19.49142
h 16.05616
v 4.45222
h -12.88461
l -1.73995,10.19867
q 2.90729,-2.3814 6.10087,-2.3814 4.22876,0 7.13608,3.44269 2.90728,3.44273 2.90728,8.85269 0,5.15113 -2.55487,8.90445 -3.10553,4.60755 -8.47958,4.60755 -4.40499,0 -7.20217,-2.89917 -2.77512,-2.89912 -3.17156,-7.68783
z

m 23.07106,-111.99051 3.75096,-0.62124
q 0.646,3.96042 2.1881,5.72061 1.56293,1.73431 3.79271,1.73431 2.64652,0 4.45951,-2.27789 1.83381,-2.27789 1.83381,-5.64295 0,-3.20975 -1.68791,-5.28056 -1.68798,-2.0967 -4.29282,-2.0967 -1.06281,0 -2.64659,0.51771
l 0.41681,-4.08984
q 0.37508,0.0518 0.60432,0.0518 2.39645,0 4.31364,-1.55311 1.91716,-1.5531 1.91716,-4.78874 0,-2.56262 -1.39618,-4.24515 -1.39617,-1.68253 -3.60509,-1.68253 -2.18814,0 -3.64684,1.70842 -1.45874,1.70841 -1.87551,5.12524
l -3.751,-0.82832
q 0.6877,-4.68519 3.12582,-7.24782 2.43816,-2.58851 6.06415,-2.58851 2.50066,0 4.60541,1.34602 2.10473,1.32014 3.20921,3.62391 1.12529,2.30377 1.12529,4.89228 0,2.45909 -1.06281,4.47812 -1.0628,2.01904 -3.14667,3.20976 2.70904,0.77655 4.20948,3.23563 1.50037,2.43321 1.50037,6.10888 0,4.96993 -2.91743,8.43854 -2.91744,3.44271 -7.37698,3.44271 -4.02191,0 -6.68933,-2.97678 -2.64651,-2.97678 -3.02159,-7.71376
z

m 23.7147,-8.69739
q 0,-6.73012 1.10447,-10.81996 1.1253,-4.11572 3.31336,-6.34184 2.20893,-2.22612 5.54314,-2.22612 2.45902,0 4.31372,1.24248 1.85463,1.2166 3.0633,3.54626 1.20867,2.30378 1.89634,5.64295 0.68765,3.31329 0.68765,8.95623 0,6.67836 -1.10444,10.79409 -1.10444,4.08985 -3.31336,6.34185 -2.18815,2.22611 -5.54321,2.22611 -4.41781,0 -6.93935,-3.93453 -3.02162,-4.73697 -3.02162,-15.42752
z

m 3.85515,0
q 0,9.34452 1.7505,12.45073 1.77132,3.08034 4.35532,3.08034 2.58407,0 4.33454,-3.10622 1.77132,-3.10621 1.77132,-12.42485 0,-9.37039 -1.77132,-12.45071 -1.75047,-3.08032 -4.37617,-3.08032 -2.58404,0 -4.12615,2.71793 -1.93804,3.4686 -1.93804,12.8131
z

M 354.16313,167.9439
v 4.4781
H 331.6676
q -0.0465,-1.68252 0.48753,-3.23562 0.85896,-2.56262 2.73938,-5.04758 1.90364,-2.48495 5.47877,-5.74647 5.54845,-5.07345 7.49853,-8.02435 1.95007,-2.97677 1.95007,-5.61704 0,-2.7697 -1.78756,-4.65931 -1.76435,-1.91548 -4.61985,-1.91548 -3.01794,0 -4.82876,2.01903 -1.81077,2.01903 -1.83399,5.59116
l -4.29482,-0.49182
q 0.44111,-5.35819 3.31979,-8.15377 2.87867,-2.82146 7.73064,-2.82146 4.89844,0 7.75387,3.02854 2.8555,3.02855 2.8555,7.50665 0,2.27788 -0.83574,4.47811 -0.83578,2.20021 -2.78585,4.63341 -1.92687,2.43319 -6.43059,6.67833 -3.76085,3.52036 -4.82879,4.78872 -1.0679,1.24249 -1.76434,2.51085
z

m 4.48051,-5.46174 4.38769,-0.41416
q 0.4875,3.57213 2.25188,5.38407 1.78756,1.78607 4.29478,1.78607 3.01798,0 5.10738,-2.53672 2.08934,-2.53673 2.08934,-6.73011 0,-3.98628 -2.01969,-6.29005 -1.99654,-2.30377 -5.24664,-2.30377 -2.01972,0 -3.64481,1.0354 -1.62504,1.00952 -2.55365,2.64027
l -3.92337,-0.56947 3.29658,-19.4914
h 16.92382
v 4.45237
h -13.58087
l -1.83399,10.19869
q 3.06437,-2.38143 6.43059,-2.38143 4.45733,0 7.52173,3.44271 3.06441,3.4427 3.06441,8.85267 0,5.15112 -2.69295,8.90444 -3.27335,4.60753 -8.93788,4.60753 -4.64302,0 -7.59135,-2.89911 -2.92511,-2.89912 -3.343,-7.68786
z

M 146.17601,145.94787
v -37.94729
h 4.34747
v 37.94729
z

m 10.37566,-9.9398 4.23541,-0.41417
q 0.47061,3.57212 2.17374,5.38406 1.72554,1.78606 4.14578,1.78606 2.91325,0 4.93012,-2.53672 2.01686,-2.53671 2.01686,-6.73007 0,-3.98628 -1.94963,-6.29004 -1.92723,-2.30376 -5.06457,-2.30376 -1.94965,0 -3.51833,1.03539 -1.56867,1.00952 -2.46505,2.64026
l -3.78723,-0.56945 3.18218,-19.49136
h 16.33661
v 4.45221
h -13.10963
l -1.77036,10.19866
q 2.95806,-2.38141 6.20746,-2.38141 4.30266,0 7.26072,3.4427 2.95808,3.44269 2.95808,8.85264 0,5.1511 -2.59952,8.90441 -3.15976,4.60752 -8.62771,4.60752 -4.48192,0 -7.32795,-2.89911 -2.82361,-2.89911 -3.22698,-7.68782
z

m 113.35077,-17.40226
v 4.4781
h -22.47078
q -0.0464,-1.68252 0.48699,-3.23562 0.85802,-2.56261 2.73638,-5.04756 1.90155,-2.48496 5.47275,-5.74646 5.54234,-5.07345 7.49027,-8.02433 1.94794,-2.976766 1.94794,-5.617031 0,-2.769688 -1.78562,-4.659294 -1.76241,-1.915478 -4.61474,-1.915478 -3.01465,0 -4.82344,2.019024 -1.8088,2.019025 -1.83199,5.591144
l -4.29009,-0.491812
q 0.4406,-5.358181 3.31612,-8.153755 2.87553,-2.821458 7.72216,-2.821458 4.89302,0 7.74535,3.028534 2.85232,3.028543 2.85232,7.506634 0,2.277878 -0.83482,4.478093 -0.83482,2.200229 -2.78275,4.633409 -1.92475,2.43318 -6.42355,6.67831 -3.75672,3.52035 -4.82345,4.78871 -1.06672,1.24248 -1.76241,2.51084
z

m 4.47561,-14.23672
q 0,-6.730079 1.22905,-10.819898 1.25225,-4.115706 3.68717,-6.341807 2.45809,-2.226105 6.16844,-2.226105 2.73638,0 4.80027,1.242476 2.06387,1.216587 3.40887,3.546237 1.345,2.303755 2.11026,5.642916 0.76526,3.313273 0.76526,8.956181 0,6.67832 -1.22905,10.79403 -1.22905,4.08981 -3.68716,6.3418 -2.43491,2.22611 -6.16845,2.22611 -4.91621,0 -7.72215,-3.93452 -3.36251,-4.73694 -3.36251,-15.42742
z

m 4.29008,0
q 0,9.34446 1.94794,12.45067 1.97112,3.0803 4.84664,3.0803 2.87552,0 4.82345,-3.10619 1.97112,-3.10619 1.97112,-12.42478 0,-9.370341 -1.97112,-12.450646 -1.94793,-3.080307 -4.86982,-3.080307 -2.87553,0 -4.59156,2.717916 -2.15665,3.46858 -2.15665,12.813037
z

m -184.649097,216.95859 5.02624,-0.41416
q 0.558477,3.57212 2.579607,5.38408 2.04774,1.78606 4.91988,1.78606 3.4572,0 5.85065,-2.53673 2.39346,-2.53672 2.39346,-6.7301 0,-3.98629 -2.31367,-6.29006 -2.28708,-2.30376 -6.01023,-2.30376 -2.31366,0 -4.17524,1.03539 -1.86158,1.00952 -2.925326,2.64027
l -4.494365,-0.56947 3.776328,-19.49142
h 19.386943
v 4.45223
h -15.55742
l -2.10092,10.19869
q 3.51039,-2.38141 7.3665,-2.38141 5.10604,0 8.61643,3.4427 3.5104,3.44271 3.5104,8.85268 0,5.15112 -3.08489,8.90445 -3.74975,4.60753 -10.23865,4.60753 -5.31878,0 -8.696205,-2.89912 -3.35084,-2.89913 -3.829522,-7.68785
z

m -0.791211,-104.3806
v -37.94744
h 5.159209
v 37.94744
z

M 105.5408,198.23222
q 0,-6.73011 1.40947,-10.81994 1.43607,-4.11572 4.22843,-6.34183 2.81896,-2.22611 7.07398,-2.22611 3.13808,0 5.50494,1.24248 2.36685,1.21659 3.9093,3.54624 1.54245,2.30377 2.42004,5.64294 0.8776,3.31329 0.8776,8.95622 0,6.67833 -1.40948,10.79405 -1.40947,4.08983 -4.22843,6.34183 -2.79235,2.22611 -7.07397,2.22611 -5.6379,0 -8.85578,-3.93452 -3.8561,-4.73696 -3.8561,-15.42747
z

m 4.91987,0
q 0,9.34449 2.23389,12.45069 2.26048,3.08031 5.55812,3.08031 3.29764,0 5.53153,-3.10619 2.26048,-3.10621 2.26048,-12.42481 0,-9.37038 -2.26048,-12.4507 -2.23389,-3.08032 -5.58472,-3.08032 -3.29764,0 -5.26559,2.71793 -2.47323,3.46859 -2.47323,12.81309
z

m 330.43103,158.60588 -2.92965,5.07438 -25.37189,-14.64843 2.92968,-5.07438
z

m 13.01061,-27.60892 -2.19493,5.43272 -27.16361,-10.9748 2.19496,-5.43273
z

m 9.04234,-29.15115 -1.4175,5.68534 -28.42667,-7.08755 1.41751,-5.68534
z

m 4.89678,-30.12565 -0.61247,5.82729 -29.1364,-3.06235 0.61244,-5.82728
z

m -2.93955,-60.82271 1.01749,5.77038 -28.85182,5.08737 -1.01752,-5.77036
z

m -7.78065,-29.51385 1.81066,5.5726 -27.86294,9.05327 -1.81067,-5.5726
z

m -11.81069,-28.14258 2.5686,5.26638 -26.33186,12.84296 -2.56861,-5.26638
z

m -15.61355,-26.22583 3.27653,4.85766 -24.2882,16.38265 -3.27652,-4.85764
z

m -41.34841,-44.703022 4.48857,3.766332 -18.83169,22.44277 -4.48852,-3.76634
z

m -24.93037,-17.607529 4.96905,3.105 -15.52497,24.845184 -4.96905,-3.105
z

m -27.26973,-13.570929 5.35279,2.383217 -11.9161,26.764091 -5.3528,-2.38322
z

m -28.68611,-10.449509 5.6324,1.615061 -8.07531,28.161997 -5.63239,-1.615062
z

M 79.409063,386.98526 75.80167,382.368
l 23.086269,-18.03695 3.607391,4.61726
z

m -17.404805,-25.07219 -2.929678,-5.07439 25.371875,-14.64844 2.929688,5.07439
z

m -23.565059,-56.14925 -1.41751,-5.68535 28.42667,-7.08754 1.41751,5.68534
z

m -5.701865,-29.9839 -0.612471,-5.82728 29.136416,-3.06236 0.612471,5.8273
z

m -1.473594,-30.48556 0.204512,-5.85582 29.279072,1.02247 -0.204511,5.85582
z

m 2.783555,-30.39395 1.017471,-5.77037 28.851836,5.08738 -1.017471,5.77037
z

m 18.040019,-58.1604 2.568594,-5.26639 26.331895,12.84296 -2.568594,5.26639
z

m 14.905196,-26.6343 3.276533,-4.85764 24.288203,16.38265 -3.276533,4.85765
z

m 18.466943,-24.30085 3.920684,-4.35435 21.771783,19.60345 -3.92069,4.35436
z

m 21.669347,-21.493701 4.48854,-3.766336 18.83166,22.442767 -4.48854,3.76634
z

m 51.20406,-32.957338 5.35281,-2.383221 11.91611,26.76408 -5.35282,2.383221
z

m 28.53811,-10.822113 5.63239,-1.615062 8.0753,28.161993 -5.63239,1.615061
z

m 29.76643,-6.745115 5.80235,-0.815468 4.07733,29.011766 -5.80234,0.815465
z

m 30.41563,-2.536591
h 5.85936
v 29.29689
h -5.85936
z

M 48.624326,335.56752
l -2.926621,-7.24363 36.218154,-14.63307 2.926612,7.24363
z

m -7.892588,-149.44977 2.4142,-7.43013 37.150625,12.07103 -2.414209,7.43013
z

m 90.018282,-119.558191 6.62537,-4.139993 20.69996,33.126904 -6.62537,4.139995
z

m 294.01535,315.038551 -4.80985,6.15634 -30.78167,-24.04925 4.80985,-6.15635
z

m 43.6985,-143.13595 0.27239,7.80775 -39.03872,1.36329 -0.27239,-7.80776
z

m -58.53241,-137.73785 5.22756,5.80581 -29.02903,26.13794 -5.22759,-5.80581
z

M 276.5583,32.835185
l 7.73646,1.087289 -5.43644,38.682343 -7.73646,-1.087286
z
"
/>

</svg>
