<svg
   width="500"
   height="500"
   viewBox="0 0 500 500"
   preserveAspectRatio="xMinYMin meet"
   version="1.1"
   xmlns="http://www.w3.org/2000/svg"
   xmlns:svg="http://www.w3.org/2000/svg">

  <circle style="fill:#101010"
       cx="250"
       cy="250"
       r="250" />
    <rect style="fill:#ac0303;"
       y="-267.58853"
       x="346.258"
       height="39.062515"
       width="7.8125043"
       id="rect5037"
       transform="rotate(52.940006)"
       />
    <path style="fill:#45c60e;"
       d="m 250.00006,31.250141 c -120.75002,0 -218.750001,97.999979 -218.750001,218.749989 0,19.40475 2.757911,38.11289 7.507324,56.03028 l 22.521971,-6.40871 c -4.169042,-15.87156 -6.591795,-32.44754 -6.591795,-49.62157 0,-107.81251 87.499981,-195.312489 195.312501,-195.312489 62.22819,0 117.54561,29.264628 153.32029,74.645999 L 421.9971,115.17348 C 381.93821,64.162484 319.84251,31.250141 250.00006,31.250141 Z"
       />
    <path style="fill:#ffffff;"
       id="text9861"
       transform="scale(0.84011425,1.1903143)"
       d="m 260.17017,274.24334 h -4.14604 l -0.57048,1.94447 h -3.72019 l 4.42727,-11.77926 H 260.13 l 4.42726,11.77926 h -3.80857 z m -0.76332,-2.54708 -1.30166,-4.23442 -1.29363,4.23442 z m 6.32351,-7.28771 h 6.81365 q 1.70341,0 2.61136,0.84367 0.91599,0.84367 0.91599,2.08909 0,1.04455 -0.65083,1.7918 -0.43389,0.49817 -1.26953,0.78743 1.26953,0.30532 1.86411,1.05258 0.60263,0.73921 0.60263,1.86411 0,0.91598 -0.42586,1.64716 -0.42585,0.73118 -1.16507,1.15704 -0.45799,0.26515 -1.38201,0.38568 -1.22935,0.1607 -1.6311,0.1607 h -6.28334 z m 3.67198,4.6201 h 1.58289 q 0.8517,0 1.18114,-0.28925 0.33747,-0.2973 0.33747,-0.85171 0,-0.51424 -0.33747,-0.8035 -0.32944,-0.28925 -1.15704,-0.28925 h -1.60699 z m 0,4.62814 h 1.85608 q 0.94009,0 1.32577,-0.32943 0.38567,-0.33747 0.38567,-0.89992 0,-0.52227 -0.38567,-0.83563 -0.37765,-0.3214 -1.33381,-0.3214 h -1.84804 z m 8.48492,-1.36594 3.46307,-0.21695 q 0.11249,0.84368 0.45799,1.2856 0.56245,0.71511 1.60699,0.71511 0.7794,0 1.19721,-0.36157 0.42586,-0.36961 0.42586,-0.85171 0,-0.45799 -0.40175,-0.81956 -0.40175,-0.36158 -1.86411,-0.68298 -2.39442,-0.53834 -3.41486,-1.43022 -1.02848,-0.89188 -1.02848,-2.27389 0,-0.90795 0.52228,-1.71145 0.5303,-0.81153 1.58288,-1.26952 1.06062,-0.46603 2.90062,-0.46603 2.25783,0 3.43897,0.84367 1.18917,0.83563 1.41415,2.66761 l -3.43093,0.20087 q -0.13659,-0.79546 -0.57851,-1.15703 -0.43389,-0.36158 -1.20525,-0.36158 -0.63476,0 -0.95616,0.27319 -0.3214,0.26515 -0.3214,0.65083 0,0.28123 0.26516,0.50621 0.25711,0.23301 1.22131,0.43388 2.38638,0.51424 3.41486,1.04455 1.03651,0.52227 1.50254,1.30166 0.47406,0.77939 0.47406,1.74359 0,1.13293 -0.62673,2.08909 -0.62673,0.95616 -1.75162,1.45433 -1.12489,0.49013 -2.83634,0.49013 -3.00508,0 -4.16211,-1.15704 -1.15704,-1.15703 -1.3097,-2.94079 z m 12.06048,-1.98464 q 0,-2.88455 1.60699,-4.49154 1.60699,-1.60699 4.47547,-1.60699 2.9408,0 4.53172,1.58289 1.59092,1.57485 1.59092,4.41922 0,2.06499 -0.69904,3.39076 -0.69101,1.31773 -2.00874,2.05695 -1.3097,0.73118 -3.27023,0.73118 -1.99267,0 -3.30237,-0.63476 -1.30166,-0.63476 -2.11319,-2.00874 -0.81153,-1.37398 -0.81153,-3.43897 z m 3.63983,0.0161 q 0,1.78376 0.65887,2.56316 0.6669,0.77939 1.80787,0.77939 1.1731,0 1.8159,-0.76332 0.6428,-0.76333 0.6428,-2.73993 0,-1.66323 -0.67494,-2.42655 -0.6669,-0.77136 -1.8159,-0.77136 -1.10079,0 -1.76769,0.77939 -0.66691,0.77939 -0.66691,2.57922 z m 10.5258,-5.91373 h 3.63984 v 8.87863 h 5.68072 v 2.90063 h -9.32056 z m 18.21526,0 h 3.6318 v 7.02256 q 0,1.04454 -0.32943,1.9766 -0.3214,0.92402 -1.02044,1.62306 -0.69101,0.69101 -1.45433,0.97223 -1.06061,0.39371 -2.54708,0.39371 -0.85974,0 -1.88018,-0.12052 -1.01241,-0.12052 -1.69538,-0.47406 -0.68297,-0.36158 -1.25345,-1.02044 -0.56245,-0.65887 -0.77136,-1.35791 -0.33747,-1.1249 -0.33747,-1.99267 v -7.02256 h 3.63181 v 7.19129 q 0,0.9642 0.5303,1.51057 0.53835,0.53835 1.48647,0.53835 0.94009,0 1.4704,-0.53031 0.53834,-0.53834 0.53834,-1.51861 z m 5.21469,0 h 11.06414 v 2.90866 h -3.71215 v 8.8706 h -3.63983 v -8.8706 h -3.71216 z m 12.70327,0 h 9.75445 v 2.51494 h -6.10657 v 1.87215 h 5.66464 v 2.40245 h -5.66464 v 2.32211 h 6.28334 v 2.66761 h -9.93122 z m -135.69722,-14.6755 h 3.64787 v 11.77925 h -3.64787 z m 6.28334,0 h 3.39879 l 4.43529,6.51635 v -6.51635 h 3.43093 v 11.77925 h -3.43093 l -4.41119,-6.46814 v 6.46814 h -3.42289 z m 21.52566,6.96631 3.18988,0.96419 q -0.3214,1.34184 -1.01241,2.24176 -0.691,0.89991 -1.71948,1.35791 -1.02044,0.45799 -2.60333,0.45799 -1.92035,0 -3.14167,-0.55441 -1.21328,-0.56245 -2.09712,-1.96857 -0.88385,-1.40612 -0.88385,-3.59966 0,-2.92473 1.55075,-4.49155 1.55878,-1.57485 4.40316,-1.57485 2.22568,0 3.49521,0.89992 1.27756,0.89991 1.89625,2.76402 l -3.21399,0.71512 q -0.16873,-0.53835 -0.35354,-0.78743 -0.30532,-0.41782 -0.74725,-0.6428 -0.44192,-0.22498 -0.9883,-0.22498 -1.23738,0 -1.89625,0.99634 -0.49817,0.73922 -0.49817,2.3221 0,1.96053 0.59459,2.69171 0.59459,0.72315 1.67127,0.72315 1.04455,0 1.57486,-0.58655 0.53834,-0.58655 0.77939,-1.70341 z m 4.97364,-6.96631 h 3.63984 v 4.12193 h 3.9773 v -4.12193 h 3.65591 v 11.77925 h -3.65591 v -4.76473 h -3.9773 v 4.76473 h -3.63984 z m 13.68354,0 h 9.75444 v 2.51494 h -6.10657 v 1.87214 h 5.66465 v 2.40246 h -5.66465 v 2.3221 h 6.28334 v 2.66761 h -9.93121 z m 11.25698,7.88229 3.46307,-0.21694 q 0.11249,0.84367 0.45799,1.28559 0.56245,0.71511 1.60699,0.71511 0.77939,0 1.19721,-0.36157 0.42585,-0.36961 0.42585,-0.8517 0,-0.458 -0.40174,-0.81957 -0.40175,-0.36157 -1.86412,-0.68297 -2.39441,-0.53835 -3.41485,-1.43023 -1.02848,-0.89188 -1.02848,-2.27389 0,-0.90795 0.52227,-1.71145 0.53031,-0.81153 1.58289,-1.26952 1.06062,-0.46603 2.90062,-0.46603 2.25783,0 3.43896,0.84367 1.18918,0.83564 1.41416,2.66761 l -3.43093,0.20087 q -0.13659,-0.79546 -0.57852,-1.15703 -0.43389,-0.36157 -1.20524,-0.36157 -0.63476,0 -0.95616,0.27318 -0.3214,0.26516 -0.3214,0.65084 0,0.28122 0.26515,0.5062 0.25712,0.23301 1.22132,0.43389 2.38638,0.51423 3.41486,1.04454 1.03651,0.52227 1.50253,1.30167 0.47407,0.77939 0.47407,1.74358 0,1.13293 -0.62673,2.08909 -0.62673,0.95616 -1.75162,1.45433 -1.1249,0.49013 -2.83634,0.49013 -3.00508,0 -4.16211,-1.15703 -1.15704,-1.15704 -1.3097,-2.9408 z m 17.54835,-1.98463 q 0,-2.88455 1.60699,-4.49155 1.607,-1.60699 4.47548,-1.60699 2.94079,0 4.53172,1.58289 1.59092,1.57485 1.59092,4.41923 0,2.06498 -0.69904,3.39075 -0.69101,1.31774 -2.00874,2.05695 -1.3097,0.73118 -3.27023,0.73118 -1.99267,0 -3.30237,-0.63476 -1.30167,-0.63476 -2.1132,-2.00874 -0.81153,-1.37398 -0.81153,-3.43896 z m 3.63984,0.0161 q 0,1.78376 0.65887,2.56315 0.6669,0.77939 1.80786,0.77939 1.17311,0 1.8159,-0.76332 0.6428,-0.76332 0.6428,-2.73992 0,-1.66324 -0.67494,-2.42656 -0.6669,-0.77136 -1.8159,-0.77136 -1.10079,0 -1.76769,0.77939 -0.6669,0.7794 -0.6669,2.57923 z m 10.54187,-5.91373 h 8.99915 v 2.53101 h -5.34325 v 2.05695 h 4.56386 v 2.37835 h -4.56386 v 4.81294 h -3.6559 z m 16.40739,0 h 4.78884 l 1.84804,7.16718 1.84,-7.16718 h 4.77277 v 11.77925 h -2.97293 v -8.98309 l -2.30604,8.98309 h -2.69171 l -2.298,-8.98309 v 8.98309 h -2.98097 z m 15.56372,0 h 9.75444 v 2.51494 h -6.10657 v 1.87214 h 5.66465 v 2.40246 h -5.66465 v 2.3221 h 6.28334 v 2.66761 h -9.93121 z m 11.93996,11.77925 v -11.77925 h 6.06639 q 1.68734,0 2.57922,0.28925 0.89189,0.28926 1.43826,1.07669 0.54638,0.77939 0.54638,1.90429 0,0.98026 -0.41782,1.69537 -0.41782,0.70708 -1.149,1.149 -0.46603,0.28123 -1.27756,0.46603 0.65084,0.21694 0.94813,0.43389 0.20087,0.14463 0.57852,0.61869 0.38567,0.47406 0.51423,0.73118 l 1.75966,3.41486 h -4.1139 l -1.94446,-3.59966 q -0.36961,-0.69905 -0.65887,-0.90795 -0.39371,-0.27319 -0.89188,-0.27319 h -0.3214 v 4.7808 z m 3.6559,-7.00649 h 1.53468 q 0.24908,0 0.9642,-0.1607 0.36157,-0.0723 0.58655,-0.3696 0.23301,-0.2973 0.23301,-0.68298 0,-0.57048 -0.36157,-0.87581 -0.36157,-0.30533 -1.35791,-0.30533 h -1.59896 z m 16.6404,2.19355 3.18988,0.96419 q -0.32139,1.34184 -1.0124,2.24176 -0.69101,0.89991 -1.71948,1.35791 -1.02044,0.45799 -2.60333,0.45799 -1.92036,0 -3.14167,-0.55441 -1.21328,-0.56245 -2.09713,-1.96857 -0.88384,-1.40612 -0.88384,-3.59966 0,-2.92473 1.55075,-4.49155 1.55878,-1.57485 4.40316,-1.57485 2.22568,0 3.4952,0.89992 1.27756,0.89991 1.89625,2.76402 l -3.21398,0.71512 q -0.16873,-0.53835 -0.35354,-0.78743 -0.30533,-0.41782 -0.74725,-0.6428 -0.44192,-0.22498 -0.9883,-0.22498 -1.23738,0 -1.89625,0.99634 -0.49817,0.73922 -0.49817,2.3221 0,1.96053 0.59459,2.69171 0.59459,0.72315 1.67127,0.72315 1.04455,0 1.57485,-0.58655 0.53835,-0.58655 0.77939,-1.70341 z m 12.62293,-6.96631 h 3.63181 v 7.02255 q 0,1.04455 -0.32944,1.9766 -0.3214,0.92402 -1.02044,1.62306 -0.691,0.69101 -1.45433,0.97223 -1.06061,0.39372 -2.54708,0.39372 -0.85974,0 -1.88018,-0.12053 -1.0124,-0.12052 -1.69538,-0.47406 -0.68297,-0.36157 -1.25345,-1.02044 -0.56245,-0.65887 -0.77136,-1.35791 -0.33747,-1.12489 -0.33747,-1.99267 v -7.02255 h 3.63181 v 7.19129 q 0,0.96419 0.5303,1.51057 0.53835,0.53834 1.48647,0.53834 0.94009,0 1.4704,-0.53031 0.53834,-0.53834 0.53834,-1.5186 z m 6.0905,11.77925 v -11.77925 h 6.0664 q 1.68734,0 2.57922,0.28925 0.89188,0.28926 1.43826,1.07669 0.54637,0.77939 0.54637,1.90429 0,0.98026 -0.41781,1.69537 -0.41782,0.70708 -1.149,1.149 -0.46603,0.28123 -1.27756,0.46603 0.65083,0.21694 0.94812,0.43389 0.20088,0.14463 0.57852,0.61869 0.38568,0.47406 0.51424,0.73118 l 1.75966,3.41486 h -4.1139 l -1.94447,-3.59966 q -0.3696,-0.69905 -0.65886,-0.90795 -0.39372,-0.27319 -0.89188,-0.27319 h -0.3214 v 4.7808 z m 3.65591,-7.00649 h 1.53468 q 0.24908,0 0.96419,-0.1607 0.36157,-0.0723 0.58655,-0.3696 0.23302,-0.2973 0.23302,-0.68298 0,-0.57048 -0.36158,-0.87581 -0.36157,-0.30533 -1.3579,-0.30533 h -1.59896 z m 7.19933,-4.77276 h 4.04158 l 2.37835,3.9773 2.37835,-3.9773 h 4.01748 l -4.57993,6.84578 v 4.93347 h -3.64787 v -4.93347 z M 218.92819,158.00854 h 9.59311 q 3.134,0 4.68826,1.56892 1.567,1.56892 1.567,4.46539 0,2.97692 -1.70714,4.65311 -1.6944,1.67619 -5.18511,1.67619 h -3.15949 v 7.29479 h -5.79663 z m 5.79663,8.38098 h 1.41412 q 1.66892,0 2.34414,-0.60344 0.67521,-0.61684 0.67521,-1.56892 0,-0.92526 -0.58603,-1.56892 -0.58604,-0.64365 -2.204,-0.64365 h -1.64344 z m 13.14752,11.27742 v -19.6584 h 9.61859 q 2.67536,0 4.08949,0.48275 1.41411,0.48274 2.28043,1.79688 0.86631,1.30072 0.86631,3.17806 0,1.63597 -0.66247,2.82942 -0.66247,1.18004 -1.8218,1.91756 -0.73891,0.46934 -2.02563,0.77776 1.03192,0.36206 1.50329,0.72411 0.3185,0.24138 0.91727,1.03254 0.61151,0.79117 0.81535,1.22027 l 2.79003,5.69905 h -6.5228 l -3.08304,-6.00747 q -0.58604,-1.16664 -1.04467,-1.51528 -0.62425,-0.45593 -1.41413,-0.45593 h -0.50959 v 7.97868 z m 5.79663,-11.69312 h 2.43331 q 0.39494,0 1.52878,-0.26819 0.5733,-0.12069 0.93001,-0.61684 0.36945,-0.49616 0.36945,-1.13982 0,-0.95208 -0.57328,-1.46163 -0.5733,-0.50957 -2.15304,-0.50957 h -2.53523 z m 14.40877,-7.96528 h 15.46616 v 4.19719 h -9.68228 v 3.12443 h 8.98159 v 4.00946 h -8.98159 v 3.87536 h 9.96256 v 4.45196 h -15.74644 z m 17.84852,13.15477 5.49087,-0.36206 q 0.17836,1.40801 0.72617,2.14554 0.89179,1.19345 2.54798,1.19345 1.23576,0 1.89823,-0.60343 0.67521,-0.61684 0.67521,-1.42142 0,-0.76434 -0.63699,-1.36777 -0.63699,-0.60343 -2.95565,-1.13981 -3.79647,-0.89844 -5.41443,-2.38691 -1.63069,-1.48845 -1.63069,-3.79489 0,-1.51529 0.82808,-2.85624 0.84083,-1.35437 2.50975,-2.11871 1.68166,-0.77776 4.59908,-0.77776 3.5799,0 5.45266,1.40801 1.8855,1.39459 2.24221,4.45197 l -5.43992,0.33524 q -0.21657,-1.32755 -0.91727,-1.93098 -0.68795,-0.60343 -1.91097,-0.60343 -1.00645,0 -1.51604,0.45593 -0.50959,0.44251 -0.50959,1.08617 0,0.46934 0.42041,0.84481 0.40767,0.38887 1.93645,0.72411 3.78375,0.85822 5.41444,1.74324 1.64344,0.87162 2.38235,2.17235 0.75165,1.30073 0.75165,2.90987 0,1.89075 -0.9937,3.48648 -0.99372,1.59574 -2.77729,2.42714 -1.78358,0.81797 -4.49717,0.81797 -4.7647,0 -6.59924,-1.93097 -1.83453,-1.93097 -2.07659,-4.9079 z m 18.84223,0 5.49088,-0.36206 q 0.17835,1.40801 0.72616,2.14554 0.89179,1.19345 2.54797,1.19345 1.23577,0 1.89825,-0.60343 0.67521,-0.61684 0.67521,-1.42142 0,-0.76434 -0.63699,-1.36777 -0.637,-0.60343 -2.95565,-1.13981 -3.79647,-0.89844 -5.41443,-2.38691 -1.63071,-1.48845 -1.63071,-3.79489 0,-1.51529 0.82809,-2.85624 0.84084,-1.35437 2.50975,-2.11871 1.68167,-0.77776 4.59909,-0.77776 3.5799,0 5.45266,1.40801 1.88549,1.39459 2.24221,4.45197 l -5.43992,0.33524 q -0.21657,-1.32755 -0.91727,-1.93098 -0.68795,-0.60343 -1.91098,-0.60343 -1.00644,0 -1.51604,0.45593 -0.50959,0.44251 -0.50959,1.08617 0,0.46934 0.42041,0.84481 0.40768,0.38887 1.93646,0.72411 3.78373,0.85822 5.41444,1.74324 1.64343,0.87162 2.38234,2.17235 0.75166,1.30073 0.75166,2.90987 0,1.89075 -0.99371,3.48648 -0.99371,1.59574 -2.77728,2.42714 -1.78358,0.81797 -4.49717,0.81797 -4.7647,0 -6.59924,-1.93097 -1.83454,-1.93097 -2.0766,-4.9079 z m 32.00249,-13.15477 h 5.75841 v 11.71995 q 0,1.74324 -0.52234,3.29875 -0.50959,1.5421 -1.61796,2.70873 -1.09562,1.15322 -2.30591,1.62255 -1.68166,0.65707 -4.03853,0.65707 -1.36317,0 -2.98113,-0.20113 -1.60521,-0.20115 -2.6881,-0.79117 -1.08289,-0.60343 -1.98742,-1.70302 -0.89179,-1.09958 -1.22302,-2.26621 -0.53507,-1.87734 -0.53507,-3.32557 v -11.71995 h 5.7584 v 12.00155 q 0,1.60915 0.84084,2.521 0.85357,0.89844 2.35686,0.89844 1.49057,0 2.3314,-0.88503 0.85357,-0.89844 0.85357,-2.53441 z m 9.6568,19.6584 v -19.6584 h 9.61859 q 2.67537,0 4.08949,0.48275 1.41412,0.48274 2.28043,1.79688 0.86631,1.30072 0.86631,3.17806 0,1.63597 -0.66247,2.82942 -0.66248,1.18004 -1.8218,1.91756 -0.73891,0.46934 -2.02564,0.77776 1.03193,0.36206 1.50331,0.72411 0.31849,0.24138 0.91727,1.03254 0.61151,0.79117 0.81535,1.22027 l 2.79003,5.69905 h -6.5228 l -3.08305,-6.00747 q -0.58603,-1.16664 -1.04467,-1.51528 -0.62425,-0.45593 -1.41412,-0.45593 h -0.50959 v 7.97868 z m 5.79664,-11.69312 h 2.43331 q 0.39493,0 1.52878,-0.26819 0.57329,-0.12069 0.93001,-0.61684 0.36945,-0.49616 0.36945,-1.13982 0,-0.95208 -0.57329,-1.46163 -0.5733,-0.50957 -2.15304,-0.50957 h -2.53522 z m 14.40877,-7.96528 h 15.46617 v 4.19719 h -9.68229 v 3.12443 h 8.98159 v 4.00946 h -8.98159 v 3.87536 h 9.96256 v 4.45196 H 356.63319 Z M 222.74051,136.26631 h 7.59294 l 2.93017,11.96132 2.91742,-11.96132 h 7.56746 v 19.6584 h -4.71374 v -14.99188 l -3.65634,14.99188 h -4.26784 l -3.64359,-14.99188 v 14.99188 h -4.72648 z m 36.18115,16.41329 h -6.57376 l -0.90453,3.24511 h -5.89855 l 7.01966,-19.6584 h 6.29348 l 7.01965,19.6584 h -6.03868 z m -1.21029,-4.25083 -2.06384,-7.06683 -2.05112,7.06683 z m 10.05175,-12.16246 h 5.38895 l 7.0324,10.87514 v -10.87514 h 5.43991 v 19.6584 h -5.43991 l -6.99418,-10.79469 v 10.79469 h -5.42717 z m 21.92527,0 h 5.78389 v 19.6584 h -5.78389 z m 9.94982,0 h 14.26862 v 4.22401 h -8.47199 v 3.43284 h 7.23623 v 3.96923 h -7.23623 v 8.03232 h -5.79663 z m 16.65098,9.84261 q 0,-4.81404 2.54796,-7.49594 2.54797,-2.68191 7.0961,-2.68191 4.66278,0 7.18527,2.64168 2.52249,2.62827 2.52249,7.37526 0,3.44625 -1.10836,5.65883 -1.09564,2.19916 -3.18496,3.43284 -2.0766,1.22027 -5.18512,1.22027 -3.15948,0 -5.23608,-1.05935 -2.06386,-1.05936 -3.35058,-3.35239 -1.28672,-2.29303 -1.28672,-5.73929 z m 5.77115,0.0268 q 0,2.97692 1.04466,4.27765 1.05741,1.30073 2.86647,1.30073 1.86001,0 2.8792,-1.27391 1.01919,-1.27391 1.01919,-4.57266 0,-2.77577 -1.07015,-4.04968 -1.0574,-1.28732 -2.8792,-1.28732 -1.74536,0 -2.80277,1.30073 -1.0574,1.30073 -1.0574,4.30446 z m 16.68919,-9.86942 h 5.77115 v 14.81755 h 9.00707 v 4.84085 h -14.77822 z m 17.47906,0 h 8.57392 q 2.53523,0 4.08949,0.72411 1.567,0.72411 2.5862,2.07849 1.01918,1.35436 1.47781,3.15123 0.45864,1.79689 0.45864,3.80832 0,3.15124 -0.68795,4.89449 -0.67522,1.72983 -1.8855,2.90987 -1.21028,1.16663 -2.59893,1.5555 -1.89823,0.53639 -3.43976,0.53639 h -8.57392 z m 5.77116,4.45197 v 10.74104 h 1.41412 q 1.80905,0 2.57345,-0.41569 0.76439,-0.4291 1.19755,-1.47505 0.43315,-1.05936 0.43315,-3.41944 0,-3.12442 -0.96823,-4.27764 -0.96823,-1.15322 -3.21044,-1.15322 z m 114.85568,59.75055 v -5.08406 h -11.36599 v -2.38994 l 11.95574,-13.76028 h 2.62705 v 13.76028 h 3.53846 v 2.38994 h -3.53846 v 5.08406 z m 0,-7.474 v -9.57426 l -8.20281,9.57426 z m 10.04354,1.91194 3.37762,-0.23175 q 0.3753,1.99887 1.7335,3.01278 1.37607,0.99943 3.30614,0.99943 2.32323,0 3.93164,-1.41948 1.60839,-1.41948 1.60839,-3.76597 0,-2.23062 -1.55479,-3.51973 -1.5369,-1.28912 -4.03885,-1.28912 -1.55479,0 -2.80575,0.57937 -1.25098,0.5649 -1.96582,1.47742 l -3.02021,-0.31865 2.53769,-10.90683 h 13.028 v 2.49134 h -10.45457 l -1.41181,5.70688 q 2.35897,-1.33257 4.95028,-1.33257 3.43124,0 5.79021,1.92644 2.35899,1.92644 2.35899,4.95369 0,2.88242 -2.07304,4.98267 -2.51982,2.57825 -6.88036,2.57825 -3.57421,0 -5.84383,-1.62227 -2.25175,-1.62226 -2.57343,-4.3019 z m -121.99408,-97.338902 3.21678,-0.347624 q 0.55401,2.216125 1.87647,3.201076 1.34033,0.97046 3.25253,0.97046 2.26963,0 3.8244,-1.27464 1.57266,-1.274631 1.57266,-3.157616 0,-1.796082 -1.44756,-2.954839 -1.44755,-1.173243 -3.68143,-1.173243 -0.91143,0 -2.26963,0.289692 l 0.35742,-2.288552 q 0.32168,0.02899 0.51826,0.02899 2.05518,0 3.69931,-0.869066 1.64414,-0.86907 1.64414,-2.679631 0,-1.433966 -1.19736,-2.375459 -1.19737,-0.941492 -3.09169,-0.941492 -1.87647,0 -3.12744,0.955977 -1.25098,0.955977 -1.6084,2.867931 l -3.21678,-0.463505 q 0.58974,-2.621694 2.68066,-4.055659 2.09091,-1.44845 5.20047,-1.44845 2.14453,0 3.9495,0.753194 1.80498,0.73871 2.75215,2.02783 0.96504,1.289121 0.96504,2.73757 0,1.376027 -0.91143,2.505819 -0.91142,1.129787 -2.69853,1.796073 2.32323,0.434538 3.60996,1.810568 1.28671,1.361544 1.28671,3.418338 0,2.781022 -2.50195,4.721951 -2.50195,1.92644 -6.32636,1.92644 -3.44911,0 -5.7366,-1.66572 -2.26962,-1.66572 -2.5913,-4.316385 z m 20.33726,0.04348 3.37762,-0.23175 q 0.3753,1.998861 1.7335,3.012768 1.37606,0.99944 3.30615,0.99944 2.32322,0 3.93163,-1.419488 1.60839,-1.419477 1.60839,-3.765971 0,-2.23061 -1.55479,-3.519727 -1.5369,-1.289127 -4.03885,-1.289127 -1.55479,0 -2.80576,0.579383 -1.25098,0.564898 -1.96581,1.47742 l -3.02021,-0.318663 2.53769,-10.906823 h 13.028 v 2.491334 h -10.45457 l -1.41181,5.706895 q 2.35897,-1.332577 4.95028,-1.332577 3.43124,0 5.79022,1.926436 2.35897,1.926442 2.35897,4.953699 0,2.882421 -2.07303,4.982669 -2.51982,2.57824 -6.88035,2.57824 -3.57422,0 -5.84384,-1.62226 -2.25175,-1.62227 -2.57343,-4.301898 z m -182.11877,3.599678 v 2.50582 h -17.31705 q -0.0358,-0.94149 0.3753,-1.81057 0.66122,-1.43396 2.10878,-2.824468 1.46542,-1.390515 4.21757,-3.215559 4.27118,-2.838964 5.77235,-4.4902 1.50117,-1.665715 1.50117,-3.143134 0,-1.549841 -1.37607,-2.60721 -1.35821,-1.071852 -3.55634,-1.071852 -2.32324,0 -3.71718,1.12979 -1.39394,1.129791 -1.41181,3.128652 l -3.30615,-0.275206 q 0.33955,-2.99829 2.55556,-4.562616 2.21601,-1.578811 5.95106,-1.578811 3.77079,0 5.96893,1.694686 2.19815,1.694687 2.19815,4.200505 0,1.274636 -0.64336,2.505822 -0.64337,1.231175 -2.14453,2.59272 -1.48329,1.361544 -4.95028,3.737 -2.89511,1.969899 -3.71718,2.679633 -0.82207,0.695258 -1.35821,1.404998 z m 3.44911,-3.056225 3.37764,-0.231759 q 0.37529,1.998861 1.73348,3.012784 1.37608,0.99942 3.30615,0.99942 2.32324,0 3.93164,-1.41947 1.60839,-1.419482 1.60839,-3.765976 0,-2.23061 -1.55479,-3.519737 -1.5369,-1.289117 -4.03885,-1.289117 -1.55478,0 -2.80575,0.579383 -1.25098,0.564898 -1.96582,1.47742 l -3.02021,-0.318663 2.53769,-10.906827 h 13.028 v 2.491334 h -10.45457 l -1.41181,5.706889 q 2.35897,-1.33257 4.95028,-1.33257 3.43124,0 5.79022,1.926439 2.35898,1.926433 2.35898,4.953699 0,2.882412 -2.07304,4.982666 -2.51982,2.57824 -6.88036,2.57824 -3.57421,0 -5.84383,-1.62227 -2.25175,-1.62225 -2.57344,-4.301885 z M 98.006801,202.64276 v -21.23428 h 3.466979 v 21.23428 z m 8.274299,-5.56205 3.37763,-0.23175 q 0.37529,1.99886 1.73348,3.01277 1.37608,0.99943 3.30615,0.99943 2.32324,0 3.93164,-1.41947 1.60839,-1.41949 1.60839,-3.76597 0,-2.23062 -1.55479,-3.51974 -1.5369,-1.28912 -4.03885,-1.28912 -1.55478,0 -2.80575,0.57938 -1.25098,0.56489 -1.96582,1.47742 l -3.02021,-0.31866 2.53769,-10.90683 h 13.028 v 2.49134 h -10.45457 l -1.41181,5.70689 q 2.35898,-1.33258 4.95027,-1.33258 3.43126,0 5.79023,1.92645 2.35898,1.92643 2.35898,4.95369 0,2.88242 -2.07304,4.98267 -2.51982,2.57824 -6.88036,2.57824 -3.57421,0 -5.84383,-1.62226 -2.25175,-1.62227 -2.57343,-4.3019 z m 318.7559,58.99541 5.98284,-0.34794 q 0.66476,3.00101 3.07056,4.52327 2.43745,1.5005 5.85623,1.5005 4.11519,0 6.96416,-2.13115 2.84898,-2.13116 2.84898,-5.65409 0,-3.34896 -2.75401,-5.28439 -2.72236,-1.93544 -7.1541,-1.93544 -2.75401,0 -4.96987,0.86986 -2.21588,0.84811 -3.48208,2.21814 l -5.34975,-0.47842 4.49505,-16.3751 h 23.07671 v 3.74039 h -18.51835 l -2.50077,8.56812 q 4.1785,-2.00068 8.76852,-2.00068 6.07781,0 10.25631,2.89228 4.17849,2.89228 4.17849,7.4373 0,4.32755 -3.672,7.48079 -4.4634,3.87087 -12.18729,3.87087 -6.33106,0 -10.35127,-2.43561 -3.98857,-2.4356 -4.55836,-6.4587 z m 36.05536,-7.37206 q 0,-5.65408 1.67773,-9.09002 1.70938,-3.4577 5.03318,-5.3279 3.35547,-1.87019 8.42031,-1.87019 3.73532,0 6.55264,1.04383 2.81732,1.02209 4.65333,2.97926 1.836,1.93545 2.88063,4.74074 1.04463,2.78355 1.04463,7.52428 0,5.6106 -1.67774,9.06828 -1.67773,3.43595 -5.03318,5.3279 -3.32381,1.87019 -8.42031,1.87019 -6.71092,0 -10.54121,-3.30547 -4.59001,-3.9796 -4.59001,-12.9609 z m 5.85622,0 q 0,7.85048 2.65904,10.46007 2.69071,2.58782 6.61596,2.58782 3.92525,0 6.5843,-2.60957 2.69069,-2.60959 2.69069,-10.43832 0,-7.87222 -2.69069,-10.46006 -2.65905,-2.58782 -6.64761,-2.58782 -3.92526,0 -6.26775,2.28337 -2.94394,2.91403 -2.94394,10.76451 z m -51.37133,-95.16165 v -7.63302 H 395.4445 v -3.58817 l 21.17738,-20.65916 h 4.65332 v 20.65916 h 6.26775 v 3.58817 h -6.26775 v 7.63302 z m 0,-11.22119 v -14.37443 l -14.52976,14.37443 z m 17.79027,-4.50152 q 0,-5.65409 1.67774,-9.09003 1.70938,-3.45769 5.03318,-5.32789 3.35546,-1.8702 8.42031,-1.8702 3.73532,0 6.55264,1.04383 2.81731,1.02209 4.65332,2.97927 1.83601,1.93544 2.88064,4.74073 1.04461,2.78355 1.04461,7.52429 0,5.61059 -1.67772,9.06828 -1.67773,3.43595 -5.03319,5.32789 -3.3238,1.8702 -8.4203,1.8702 -6.71093,0 -10.54121,-3.30547 -4.59002,-3.97961 -4.59002,-12.9609 z m 5.85623,0 q 0,7.85048 2.65904,10.46006 2.69071,2.58783 6.61596,2.58783 3.92525,0 6.58429,-2.60958 2.6907,-2.60958 2.6907,-10.43831 0,-7.87223 -2.6907,-10.46006 -2.65904,-2.58783 -6.64761,-2.58783 -3.92525,0 -6.26774,2.28338 -2.94394,2.91402 -2.94394,10.76451 z m -177.42251,-50.309628 5.69794,-0.521913 q 0.98132,3.32721 3.32381,4.805971 2.37414,1.457012 5.76125,1.457012 4.02023,0 6.77423,-1.913687 2.78567,-1.913687 2.78567,-4.740733 0,-2.696561 -2.56408,-4.436283 -2.56407,-1.761466 -6.52098,-1.761466 -1.61443,0 -4.02023,0.43493 l 0.63311,-3.435944 q 0.5698,0.04349 0.91801,0.04349 3.64036,0 6.55264,-1.304788 2.91228,-1.30479 2.91228,-4.023101 0,-2.152901 -2.1209,-3.566422 -2.1209,-1.413522 -5.47637,-1.413522 -3.32379,0 -5.53967,1.435268 -2.21586,1.435268 -2.84898,4.305804 l -5.69794,-0.695888 q 1.04462,-3.936113 4.74829,-6.089015 3.70367,-2.174648 9.21168,-2.174648 3.79864,0 6.99583,1.130816 3.19717,1.109071 4.87491,3.044508 1.70937,1.935438 1.70937,4.110086 0,2.065916 -1.61441,3.762141 -1.61442,1.696226 -4.77995,2.696565 4.11519,0.652394 6.39436,2.71831 2.27918,2.044172 2.27918,5.13217 0,4.175322 -4.43174,7.089354 -4.43172,2.892284 -11.20596,2.892284 -6.10947,0 -10.16134,-2.500847 -4.02022,-2.500847 -4.59001,-6.480454 z m 36.0237,-7.306817 q 0,-5.654085 1.67773,-9.09003 1.70939,-3.457691 5.03318,-5.327889 3.35547,-1.870197 8.42031,-1.870197 3.73532,0 6.55264,1.043831 2.81732,1.022085 4.65333,2.979268 1.83601,1.935437 2.88063,4.740734 1.04463,2.783549 1.04463,7.524283 0,5.610593 -1.67774,9.068288 -1.67773,3.435937 -5.03318,5.327883 -3.32381,1.870198 -8.42031,1.870198 -6.71092,0 -10.54121,-3.305461 -4.59001,-3.979607 -4.59001,-12.960908 z m 5.85623,0 q 0,7.850479 2.65904,10.460062 2.6907,2.587825 6.61595,2.587825 3.92525,0 6.5843,-2.609574 2.69069,-2.609583 2.69069,-10.438313 0,-7.872227 -2.69069,-10.460058 -2.65905,-2.587832 -6.64761,-2.587832 -3.92526,0 -6.26774,2.283381 -2.94394,2.914029 -2.94394,10.764509 z M 156.94276,150.32345 v 3.76211 h -30.67369 q -0.0633,-1.41351 0.66476,-2.71829 1.17124,-2.15287 3.73529,-4.24052 2.59571,-2.08764 7.47057,-4.82767 7.56555,-4.26227 10.22456,-6.74135 2.65903,-2.50082 2.65903,-4.71894 0,-2.32685 -2.43744,-3.91433 -2.40578,-1.60923 -6.29935,-1.60923 -4.11514,0 -6.58422,1.69621 -2.4691,1.69621 -2.50075,4.6972 l -5.85617,-0.41318 q 0.60144,-4.50148 4.52665,-6.85008 3.92523,-2.37034 10.54112,-2.37034 6.6792,0 10.57277,2.54431 3.89355,2.54432 3.89355,6.30642 0,1.91367 -1.13958,3.76211 -1.13958,1.84844 -3.79859,3.89258 -2.62737,2.04415 -8.76843,5.61055 -5.12811,2.95748 -6.58424,4.02305 -1.45613,1.04383 -2.40578,2.10939 z m 6.10941,-11.96045 q 0,-5.65403 1.67771,-9.08995 1.70938,-3.45766 5.03315,-5.32784 3.35543,-1.87017 8.42022,-1.87017 3.73529,0 6.55258,1.04382 2.8173,1.02207 4.65328,2.97923 1.836,1.93542 2.88061,4.7407 1.04462,2.78352 1.04462,7.52421 0,5.61054 -1.67772,9.0682 -1.67771,3.43591 -5.03315,5.32784 -3.32377,1.87018 -8.42022,1.87018 -6.71086,0 -10.54111,-3.30544 -4.58997,-3.97956 -4.58997,-12.96078 z m 5.85617,0 q 0,7.8504 2.65901,10.45996 2.69069,2.58781 6.6159,2.58781 3.92522,0 6.58424,-2.60956 2.69067,-2.60955 2.69067,-10.43821 0,-7.87215 -2.69067,-10.45996 -2.65902,-2.58781 -6.64754,-2.58781 -3.92523,0 -6.26769,2.28336 -2.94392,2.914 -2.94392,10.76441 z m -59.34933,129.32423 v -31.88005 h 6.14106 v 31.88005 z m 14.65626,-15.72257 q 0,-5.65403 1.67771,-9.08995 1.70937,-3.45766 5.03314,-5.32783 3.35543,-1.87018 8.42023,-1.87018 3.73529,0 6.55258,1.04382 2.8173,1.02207 4.65328,2.97923 1.83599,1.93542 2.8806,4.7407 1.04462,2.78352 1.04462,7.52421 0,5.61054 -1.67771,9.0682 -1.67771,3.43592 -5.03314,5.32784 -3.32378,1.87018 -8.42023,1.87018 -6.71086,0 -10.54111,-3.30544 -4.58997,-3.97956 -4.58997,-12.96078 z m 5.85617,0 q 0,7.85041 2.65902,10.45996 2.69067,2.58781 6.61589,2.58781 3.92522,0 6.58423,-2.60956 2.69068,-2.60955 2.69068,-10.43821 0,-7.87215 -2.69068,-10.45996 -2.65901,-2.58781 -6.64754,-2.58781 -3.92522,0 -6.26769,2.28337 -2.94391,2.914 -2.94391,10.7644 z m 423.88248,-9.78758 -0.8542,3.22585 -34.27892,-4.52165 0.85419,-3.22584 z m 3.11085,-16.832 -0.42885,3.26771 -34.72389,-2.27009 0.42885,-3.26771 z m 0.89374,-16.96396 1.5e-4,3.28169 -34.87245,8.4e-4 -1.6e-4,-3.28169 z m -485.141188,14.70365 0.429166,3.26769 -34.72359,2.27176 -0.429166,-3.26769 z m 474.564488,-64.93194 1.27256,3.15638 -33.54097,6.73626 -1.27256,-3.15639 z m -7.84673,-16.04574 1.67976,3.06006 -32.51729,8.89173 -1.67977,-3.06006 z m -9.91324,-15.46757 2.07263,2.93761 -31.21612,10.97135 -2.07263,-2.93761 z m -11.89065,-14.7551 2.44782,2.79011 -29.64872,12.95737 -2.44782,-2.79011 z m -29.29768,-26.878954 3.13253,2.425169 -25.77068,16.581825 -3.13253,-2.42517 z m -17.15768,-11.894981 3.4362,2.210831 -23.49307,18.189315 -3.4362,-2.210831 z m -18.63876,-10.726863 3.71057,1.977638 -21.01506,19.641644 -3.71057,-1.977638 z m -19.96336,-9.467811 3.95326,1.72756 -18.35768,20.926371 -3.95327,-1.727561 z m -43.20498,-14.845774 4.3357,1.18546 -12.59712,22.950728 -4.3357,-1.18546 z m -22.87204,-5.250749 4.47218,0.89806 -9.54309,23.673145 -4.47218,-0.898059 z m -23.45918,-3.738581 4.5705,0.602996 -6.40764,24.19365 -4.5705,-0.602995 z m -23.85044,-2.194955 4.62983,0.30279 -3.21755,24.507688 -4.62983,-0.30279 z m 200.38987,155.514478 -0.8542,-3.22584 34.27897,-4.52165 0.8542,3.22584 z m -477.620351,63.00172 -0.8542,-3.22584 34.278977,-4.52166 0.8542,3.22584 z m -3.534187,-16.78943 -0.42885,-3.26772 34.723924,-2.27009 0.428849,3.26772 z m -1.325237,-16.95006 1.59e-4,-3.28169 34.872489,8.4e-4 -1.59e-4,3.2817 z m 0.896516,-16.96353 0.429165,-3.26768 34.72359,2.27176 -0.429165,3.26768 z m 475.746469,60.46853 1.27257,-3.15639 33.54096,6.73625 -1.27257,3.15639 z m -467.337478,-93.85844 1.272566,-3.1564 33.540966,6.73626 -1.272567,3.15639 z m 7.440457,-16.14224 1.679766,-3.06006 32.517305,8.89174 -1.679766,3.06006 z m 9.517385,-15.58988 2.07263,-2.93761 31.216124,10.97135 -2.072631,2.93761 z m 11.515818,-14.90253 2.447817,-2.79011 29.648721,12.95737 -2.44782,2.79011 z m 28.615628,-27.244165 3.13252,-2.425166 25.77068,16.581821 -3.13252,2.42517 z m 16.85471,-12.109398 3.4362,-2.21083 23.49307,18.189316 -3.4362,2.210829 z m 18.36673,-10.96012 3.71057,-1.977635 21.01505,19.641644 -3.71056,1.977635 z m 19.71937,-9.717584 3.95327,-1.72756 18.35768,20.92637 -3.95326,1.727561 z m 42.81901,-15.387696 4.3357,-1.18546 12.59712,22.950733 -4.3357,1.18546 z m 22.73484,-5.53807 4.47217,-0.898057 9.54308,23.673145 -4.47216,0.898057 z m 23.36236,-4.03342 4.5705,-0.602995 6.40764,24.19365 -4.5705,0.602996 z m 23.7894,-2.495474 4.62982,-0.30279 3.21756,24.507689 -4.62982,0.302789 z m 285.39344,164.243187 0.42917,3.26769 -34.72358,2.27176 -0.42916,-3.26769 z M 292.92873,26.25371 h 9.29933 v 32.816962 h -9.29933 z m 256.36682,230.90414 -2.54452,6.31292 -44.72225,-8.97952 2.54453,-6.31292 z m 3.37314,-84.12965 1.70903,6.45159 -45.70464,6.0311 -1.70903,-6.45159 z m -504.261657,90.44258 -2.544524,-6.31292 44.72225,-8.97952 2.544523,6.31292 z m -7.629435,-83.99108 1.709032,-6.4516 45.704649,6.0311 -1.709031,6.4516 z m 46.213641,-77.58435 5.604253,-5.23762 37.104568,19.77718 -5.60425,5.23762 z m 90.365681,-54.913259 8.32447,-2.925494 20.7249,29.376693 -8.32446,2.925495 z m 232.11933,-2.92556 8.32446,2.925495 -20.7249,29.376691 -8.32446,-2.925494 z"
       />
</svg>
