<svg
   width="500"
   height="500"
   viewBox="0 0 500 500"
   preserveAspectRatio="xMinYMin meet"
   version="1.1"
   xmlns="http://www.w3.org/2000/svg"
   xmlns:svg="http://www.w3.org/2000/svg">

  <path style="fill:#ffffff;stroke:#808080;stroke-width:1"
    d="m 239.4651,32.663451 v 46.757526 l -6.92701,8.658792 V 123.0036 l 6.92701,11.39037 v 115.60537 h 21.06976 V 133.68278 l 6.92705,-10.67918 V 88.079769 l -6.92705,-8.658792 V 32.663451 L 249.29018,9.8740011 Z" />
  <path style="fill:black;stroke:#808080;stroke-width:1"
    d="
M 241.8 91.68
L 241.8 121.11
L 258.12 121.11
L 258.12 116.11
L 246.48 116.11
L 246.48 91.68
L 241.8 91.68
z

M 250 227.25
A 22.75 22.75 0 0 0 227.25 250
A 22.75 22.75 0 0 0 239.32 269.78
L 239.32 335.86
A 22.75 22.75 0 0 0 227.25 355.64
A 22.75 22.75 0 0 0 250 378.39
A 22.75 22.75 0 0 0 272.75 355.64
A 22.75 22.75 0 0 0 260.39 335.71
L 260.39 269.92
A 22.75 22.75 0 0 0 272.75 250
A 22.75 22.75 0 0 0 250 227.25
z
    " />
</svg>
