<svg
   width="500"
   height="500"
   viewBox="0 0 500 500"
   preserveAspectRatio="xMinYMin meet"
   version="1.1"
   xmlns="http://www.w3.org/2000/svg"
   xmlns:svg="http://www.w3.org/2000/svg">

  <path style="fill:#ffffff;stroke:#808080;stroke-width:1"
    d="m 239.4651,32.663451 v 97.555819 l -6.92701,8.65879 v 34.92383 l 6.92701,11.39037 v 64.80708 h 21.06976 v -65.51826 l 6.92705,-10.67919 v -34.92383 l -6.92705,-8.65879 V 32.663451 L 249.29018,9.8740011 Z" />
  <path style="fill:black;stroke:#808080;stroke-width:1"
    d="
M 240.55 141.66
L 240.55 171.33
L 245.23 171.33
L 245.23 158.94
L 246.18 158.94
C 247.25 158.94 248.04 159.06 248.53 159.29
C 249.03 159.5 249.5 159.91 249.94 160.52
C 250.38 161.11 251.2 162.56 252.41 164.87
L 255.79 171.33
L 261.38 171.33
L 258.55 165.54
C 257.44 163.23 256.55 161.63 255.88 160.72
C 255.23 159.82 254.4 158.99 253.38 158.23
C 255.42 157.85 256.95 156.94 257.97 155.5
C 258.99 154.04 259.5 152.2 259.5 149.97
C 259.5 148.22 259.17 146.66 258.49 145.3
C 257.82 143.94 256.92 142.99 255.79 142.47
C 254.67 141.93 252.88 141.66 250.4 141.66
L 240.55 141.66
z

M 245.23 146.68
L 248.88 146.68
C 250.78 146.68 251.92 146.71 252.29 146.78
C 253.05 146.94 253.64 147.33 254.05 147.95
C 254.47 148.56 254.68 149.36 254.68 150.36
C 254.68 151.25 254.52 151.99 254.21 152.59
C 253.89 153.18 253.45 153.6 252.89 153.84
C 252.34 154.08 250.94 154.21 248.69 154.21
L 245.23 154.21
L 245.23 146.68
z

M 250 227.25
A 22.75 22.75 0 0 0 227.25 250
A 22.75 22.75 0 0 0 239.32 269.99
L 239.32 335.65
A 22.75 22.75 0 0 0 227.25 355.64
A 22.75 22.75 0 0 0 250 378.39
A 22.75 22.75 0 0 0 272.75 355.64
A 22.75 22.75 0 0 0 260.39 335.41
L 260.39 270.11
A 22.75 22.75 0 0 0 272.75 250
A 22.75 22.75 0 0 0 250 227.25
z
    " />
</svg>
