<svg
   width="500"
   height="500"
   viewBox="0 0 500 500"
   preserveAspectRatio="xMinYMin meet"
   version="1.1"
   xmlns="http://www.w3.org/2000/svg"
   xmlns:svg="http://www.w3.org/2000/svg">

  <circle cx="250" cy="250" r="247.5" style="fill:black;stroke:#c0c0c0;stroke-width:5px;" />
  <path style="fill:white;stroke:none" d="
m 57.282159,143.3731
q 0.911971,-0.22565 1.886428,-0.10822 0.974452,0.11744 2.272618,0.86694 1.465673,0.8462 2.45675,2.06312 0.997725,1.20541 1.333405,2.71936 0.321054,1.47482 0.0379,3.06129 -0.29047,1.56691 -1.367282,3.43201 -1.229694,2.12989 -2.518547,3.42739 -1.282204,1.28599 -2.336422,1.95143
l -4.564523,-2.63532 0.259234,-0.44901
q 1.297497,-0.57104 2.618923,-1.63483 1.328069,-1.0753 1.986123,-2.21508 0.385524,-0.66775 0.711887,-1.52315 0.312411,-0.86348 0.178137,-1.66247 -0.103032,-0.62746 -0.445355,-1.16281 -0.356282,-0.54342 -1.291521,-1.08338 -0.907321,-0.52384 -1.595286,-0.46052 -0.701929,0.0553 -1.237013,0.49851 -0.549044,0.43519 -1.021643,1.22152 -0.486563,0.77827 -0.878735,1.45753
l -0.545054,0.94406 -3.713036,-2.14372 0.564997,-0.97861
q 0.518463,-0.898 0.847489,-1.62907 0.329027,-0.73107 0.35694,-1.35968 0.02725,-0.65969 -0.259237,-1.16281 -0.300451,-0.51117 -1.151937,-1.00277 -0.628145,-0.36266 -1.15791,-0.31547 -0.543728,0.0392 -0.99971,0.31315 -0.510492,0.30394 -0.946534,0.86577 -0.436044,0.56183 -0.688629,0.99932 -0.624819,1.08222 -0.895345,2.61458 -0.284489,1.52432 -0.117644,3.20176
l -0.245937,0.42597 -4.508688,-2.60309
q 0.08441,-1.21001 0.602877,-3.07511 0.504499,-1.87314 1.468311,-3.54252 0.937226,-1.62332 1.990775,-2.64221 1.039594,-1.02695 2.070546,-1.49092 1.229029,-0.54916 2.472026,-0.44554 1.242991,0.10363 2.555117,0.86118 1.73089,0.99933 2.587035,2.67561 0.842183,1.66823 0.381553,3.33645
l 0.195423,0.11283
q 0.436706,-0.53074 1.108721,-1.01774 0.67201,-0.48699 1.542769,-0.70573
z

m 9.925932,-18.70733
q 2.624252,1.51511 4.478117,3.10735 1.839901,1.58419 2.687401,3.17874 0.862126,1.63369 0.789017,3.37214 -0.08707,1.73039 -1.217059,3.68759 -1.110046,1.92265 -2.592329,2.87822 -1.482283,0.95557 -3.335472,1.00622 -1.859837,0.0622 -4.103211,-0.72648 -2.257334,-0.79671 -4.881586,-2.31182 -2.708004,-1.56347 -4.478111,-3.10736 -1.770112,-1.54389 -2.660152,-3.1937 -0.876085,-1.64175 -0.775722,-3.39517 0.100365,-1.75342 1.190468,-3.64153 1.136633,-1.96871 2.619584,-2.89319 1.468987,-0.93254 3.356742,-0.97859 1.853193,-0.0507 4.08261,0.72993 2.215452,0.77254 4.839703,2.28765
z

m -2.572378,4.45549
q -3.768872,-2.17596 -5.712468,-2.48451 -1.957549,-0.31661 -2.775128,1.09948 -0.817578,1.41608 0.435392,2.95306 1.239012,1.52893 5.035802,3.721 3.699078,2.13567 5.691193,2.45688 1.992115,0.32122 2.796398,-1.07184 0.804287,-1.39306 -0.469953,-2.95768 -1.27424,-1.56461 -5.001236,-3.71639
z

m 369.962307,223.22263 6.60711,-11.44384 3.62927,2.09537 -2.08715,3.61506 10.98556,6.34251 2.08716,-3.61506 3.39198,1.95837
q -0.47858,0.82893 -0.8056,1.65326 -0.31308,0.83238 -0.31241,1.50819 0.003,0.80015 0.38885,1.42185 0.38553,0.62169 1.19647,1.1513
l -2.20015,3.81077 -17.21118,-9.93688 -2.04063,3.53447
z

m -10.30282,17.84501 7.77032,-13.45859 3.43386,1.98254
q 0.46331,2.32446 1.09412,4.74563 0.62416,2.43269 1.1885,4.00191 0.8289,2.33598 1.70431,3.62427 0.87542,1.2883 2.06192,1.97333 1.42379,0.82203 2.63023,0.50542 1.21375,-0.29702 2.03133,-1.71311 0.61152,-1.05919 0.75908,-2.53975 0.14091,-1.46905 -0.10437,-2.94616
l 0.2127,-0.36841 4.62035,2.66756
q -0.0392,1.06724 -0.52377,2.90586 -0.4912,1.85013 -1.41513,3.45043 -1.86116,3.22361 -4.4854,3.96503 -2.6103,0.74948 -5.61143,-0.98322 -1.96819,-1.13633 -3.26901,-2.97726 -1.30749,-1.82941 -2.22811,-4.58677 -0.56766,-1.72463 -0.94721,-3.35602 -0.3656,-1.62333 -0.4972,-2.29798
l -4.44683,7.70214
z

m -354.440706,-10.66879 7.770316,13.45859 -3.433859,1.98254
q -2.244691,-0.76099 -4.656902,-1.42528 -2.418847,-0.6758 -4.059997,-0.97168 -2.437463,-0.45014 -3.990881,-0.33616 -1.553399,0.11399 -2.739897,0.79902 -1.423802,0.82202 -1.752834,2.02513 -0.349638,1.19964 0.467945,2.61573 0.611518,1.05919 1.819946,1.92726 1.201786,0.85656 2.603629,1.38269
l 0.21271,0.36842 -4.620357,2.66757
q -0.904651,-0.56761 -2.254664,-1.90654 -1.356659,-1.35046 -2.280585,-2.95076 -1.861162,-3.22362 -1.191124,-5.86698 0.656075,-2.63532 3.657205,-4.36804 1.968188,-1.13632 4.212893,-1.34241 2.238063,-0.21761 5.086308,0.36378 1.777412,0.37071 3.380004,0.85771 1.588637,0.49505 2.238722,0.71839
l -4.446837,-7.70213
z

m -14.605464,-14.2403 1.349342,2.33713 4.843701,-2.79651 2.439437,4.22523 -4.843691,2.79651 4.792469,8.30081 -3.93637,2.27267 -16.69334,-1.06142 -2.598971,-4.50155 12.199971,-7.04366 -1.349332,-2.33713
z

m -0.008,8.75444 -7.50983,4.3358 10.387965,0.64929
z

M 443.78967,150.85098
q -1.60526,0.92679 -3.29427,1.25723 -1.68901,0.33043 -3.15734,0.0115 -1.57135,-0.33618 -2.82698,-1.25375 -1.24897,-0.90606 -2.19948,-2.5524 -0.8907,-1.54274 -1.126,-3.11081 -0.21469,-1.5646 0.30711,-3.07855 0.59558,-1.74076 2.17492,-3.38941 1.57933,-1.64867 4.21755,-3.17184 2.73591,-1.57958 5.15677,-2.28649 2.42085,-0.7069 4.73202,-0.4755 2.21479,0.22565 4.11716,1.522 1.90902,1.30786 3.34477,3.79465 0.48523,0.84044 0.92393,1.92265 0.4387,1.08222 0.54172,1.42185
l -4.08992,2.36132 -0.25258,-0.43749
q 0.002,-0.41562 -0.20672,-1.2929 -0.1881,-0.87383 -0.73316,-1.8179 -1.27622,-2.21047 -3.29958,-2.6848 -2.02334,-0.47432 -4.51466,0.62632 1.15393,0.51578 2.10977,1.26873 0.97644,0.75639 1.63449,1.89616 0.57828,1.00162 0.79098,2.01477 0.21935,1.02465 0.0306,2.11608 -0.25791,1.423 -1.29352,2.78844 -1.03561,1.36542 -3.08755,2.55012
z

m -6.1651,-3.42508
q 0.68065,0.0829 1.4424,-0.0806 0.78236,-0.16003 1.89907,-0.80476 1.01898,-0.58832 1.5215,-1.20081 0.51648,-0.62055 0.66138,-1.27218 0.15156,-0.64012 -0.0346,-1.28484 -0.17215,-0.65279 -0.5178,-1.25146 -0.29246,-0.50657 -0.75111,-0.9786 -0.45864,-0.47202 -0.9339,-0.81166 -0.1396,0.0806 -0.46726,0.25447 -0.32769,0.17388 -0.81625,0.45594 -1.71692,0.99128 -2.6741,1.91231 -0.93658,0.9245 -1.25032,1.735 -0.24658,0.57221 -0.2034,1.13058 0.0572,0.55032 0.34962,1.05688 0.21935,0.37993 0.69462,0.71956 0.47527,0.33963 1.08014,0.42022
z

m -291.52164,285.54497 13.4586,7.77032 -1.98254,3.43387
q -2.32447,0.4633 -4.74564,1.09411 -2.43269,0.62416 -4.0019,1.1885 -2.33598,0.8289 -3.62428,1.70432 -1.2883,0.87541 -1.97333,2.06191 -0.82203,1.42379 -0.50543,2.63022 0.29703,1.21375 1.71312,2.03133 1.05919,0.61153 2.53976,0.75909 1.46904,0.14091 2.94615,-0.10438
l 0.36842,0.21271 -2.66756,4.62036
q -1.06725,-0.0392 -2.90587,-0.52378 -1.85012,-0.4912 -3.45042,-1.41513 -3.22362,-1.86116 -3.96504,-4.48541 -0.74948,-2.61028 0.98323,-5.61142 1.13634,-1.96818 2.97725,-3.26902 1.82942,-1.30747 4.58676,-2.2281 1.72465,-0.56766 3.35602,-0.94721 1.62333,-0.3656 2.29799,-0.4972
l -7.70214,-4.44684
z

m -15.68059,-9.0532 11.44384,6.6071 -2.09537,3.62929 -3.61505,-2.08715 -6.34252,10.98556 3.61505,2.08715 -1.95836,3.39198
q -0.82893,-0.47858 -1.65325,-0.8056 -0.83239,-0.31308 -1.5082,-0.31241 -0.80014,0.003 -1.42185,0.38885 -0.62169,0.38554 -1.1513,1.19647
l -3.81077,-2.20014 9.93688,-17.21118 -3.53447,-2.04063
z

M 366.14917,62.049415
q 0.22565,0.91198 0.10821,1.886427 -0.11744,0.974457 -0.86694,2.272617 -0.8462,1.465678 -2.06312,2.456757 -1.20541,0.997724 -2.71936,1.333404 -1.47482,0.32105 -3.06129,0.0379 -1.56691,-0.290466 -3.43201,-1.367281 -2.12989,-1.229694 -3.42739,-2.518552 -1.28598,-1.282207 -1.95143,-2.336421
l 2.63533,-4.564522 0.449,0.259234
q 0.57104,1.297496 1.63483,2.61892 1.0753,1.328068 2.21508,1.986125 0.66775,0.385522 1.52317,0.711896 0.86346,0.312403 1.66245,0.178129 0.62746,-0.103036 1.16281,-0.445356 0.54342,-0.356276 1.08338,-1.291518 0.52384,-0.907322 0.46052,-1.595287 -0.0553,-0.701934 -0.49851,-1.237018 -0.43519,-0.549043 -1.22151,-1.021644 -0.77826,-0.486577 -1.45752,-0.878749
l -0.94407,-0.545055 2.14373,-3.713042 0.9786,0.564997
q 0.89801,0.518464 1.62909,0.847484 0.73107,0.329015 1.35967,0.356948 0.65969,0.02724 1.16281,-0.259243 0.51116,-0.300453 1.00277,-1.151943 0.36266,-0.628139 0.31547,-1.157899 -0.0392,-0.543732 -0.31315,-0.999715 -0.30394,-0.510497 -0.86577,-0.94654 -0.56185,-0.436015 -0.99933,-0.688599 -1.08222,-0.62482 -2.61459,-0.895344 -1.52432,-0.28449 -3.20175,-0.117639
l -0.42598,-0.245938 2.60309,-4.50869
q 1.21002,0.08441 3.0751,0.602877 1.87315,0.504501 3.54253,1.468315 1.62332,0.937227 2.64221,1.990772 1.02696,1.039601 1.49092,2.070548 0.54916,1.229032 0.44554,2.472027 -0.10362,1.242995 -0.86117,2.555117 -0.99933,1.73089 -2.67562,2.587035 -1.66823,0.842185 -3.33645,0.381556
l -0.11282,0.195419
q 0.53073,0.436708 1.01773,1.108723 0.487,0.672009 0.70574,1.542763
z

m -229.38641,-0.57239
q 0.9026,0.260568 1.68779,0.849499 0.78519,0.588931 1.53468,1.887098 0.84621,1.465666 1.09604,3.015099 0.26135,1.542769 -0.20491,3.021731 -0.45936,1.437752 -1.49783,2.670104 -1.03501,1.211755 -2.9001,2.288563 -2.12988,1.22969 -3.89481,1.70893 -1.75343,0.472604 -2.99912,0.521783
l -2.63533,-4.564523 0.449,-0.259232
q 1.40918,0.15422 3.08546,-0.106334 1.68781,-0.267212 2.82758,-0.925255 0.66775,-0.385534 1.3781,-0.963158 0.70228,-0.591579 0.98549,-1.350664 0.22451,-0.594909 0.19572,-1.229698 -0.0368,-0.648752 -0.5768,-1.583993 -0.52384,-0.907323 -1.1513,-1.196471 -0.63549,-0.303144 -1.32053,-0.186785 -0.69308,0.102362 -1.49553,0.547046 -0.81052,0.430724 -1.48978,0.822894
l -0.94405,0.545052 -2.14373,-3.71304 0.9786,-0.564989
q 0.898,-0.518462 1.54849,-0.987082 0.65048,-0.468612 0.98895,-0.99904 0.35345,-0.557688 0.3569,-1.136639 -0.005,-0.592921 -0.49621,-1.444405 -0.36266,-0.628147 -0.84505,-0.852149 -0.49046,-0.237966 -1.02235,-0.228662 -0.59407,0.008 -1.25261,0.276513 -0.65854,0.268531 -1.09603,0.52112 -1.08221,0.624811 -2.08269,1.816625 -1.00852,1.177845 -1.70275,2.713975
l -0.42597,0.245932 -2.60309,-4.508685
q 0.6781,-1.005689 2.05965,-2.36168 1.37349,-1.369946 3.04286,-2.333755 1.62331,-0.937221 3.04517,-1.292836 1.41378,-0.369574 2.5386,-0.255905 1.33895,0.138927 2.3636,0.850171 1.02466,0.71123 1.78222,2.023353 0.99933,1.730895 0.90262,3.610674 -0.10475,1.865817 -1.33779,3.080224
l 0.11283,0.195427
q 0.64358,-0.241292 1.46905,-0.327032 0.82547,-0.08574 1.68895,0.160196
z

m 16.76279,-9.678002
q 0.90262,0.260563 1.6878,0.849494 0.78519,0.588929 1.53468,1.887095 0.84621,1.465675 1.09604,3.015102 0.26136,1.542769 -0.20491,3.021731 -0.45937,1.437749 -1.49782,2.670104 -1.03501,1.211747 -2.90011,2.288563 -2.12989,1.229695 -3.89482,1.708935 -1.75341,0.4726 -2.99912,0.521784
l -2.63533,-4.564523 0.44901,-0.259238
q 1.40918,0.154221 3.08547,-0.106342 1.68779,-0.267199 2.82757,-0.925255 0.66775,-0.385521 1.37809,-0.963144 0.7023,-0.591585 0.98551,-1.35067 0.2245,-0.594909 0.19572,-1.229706 -0.0368,-0.648744 -0.57681,-1.583985 -0.52384,-0.907322 -1.1513,-1.196465 -0.6355,-0.303142 -1.32054,-0.186786 -0.69308,0.102362 -1.49552,0.547039 -0.81052,0.430726 -1.48978,0.822896
l -0.94405,0.545049 -2.14373,-3.71303 0.9786,-0.564999
q 0.89801,-0.518466 1.54849,-0.987079 0.65048,-0.468612 0.98896,-0.99904 0.35345,-0.557688 0.35689,-1.136641 -0.005,-0.592914 -0.49621,-1.444398 -0.36266,-0.628146 -0.84505,-0.852154 -0.49046,-0.237965 -1.02235,-0.228664 -0.59407,0.008 -1.25261,0.276515 -0.65854,0.268538 -1.09603,0.52112 -1.08221,0.624817 -2.08268,1.816625 -1.00853,1.177851 -1.70276,2.713973
l -0.42597,0.24594 -2.6031,-4.508685
q 0.67811,-1.005697 2.05966,-2.361686 1.37348,-1.369941 3.04286,-2.333757 1.62332,-0.937227 3.04517,-1.292837 1.41378,-0.369564 2.5386,-0.255902 1.33895,0.138933 2.36361,0.850163 1.02465,0.711244 1.7822,2.023367 0.99934,1.730887 0.90264,3.610668 -0.10476,1.865816 -1.33779,3.080225
l 0.11283,0.195418
q 0.64356,-0.241278 1.46904,-0.327019 0.82548,-0.08575 1.68895,0.160197
z

m 204.7283,379.765267 11.44383,-6.6071 2.09537,3.62928 -3.61506,2.08716 6.34251,10.98555 3.61506,-2.08715 1.95837,3.39199
q -0.82894,0.47859 -1.52432,1.02896 -0.68731,0.56432 -1.02464,1.14993 -0.39721,0.69459 -0.37417,1.42579 0.023,0.73116 0.46053,1.59528
l -3.81078,2.20014 -9.93687,-17.21117 -3.53447,2.04062
z

m -13.41481,17.12535
q -0.93487,-1.61923 -1.2342,-3.30756 -0.30281,-1.66775 0.0806,-3.21051 0.4467,-1.67239 1.53006,-2.98651 1.07991,-1.29352 2.84138,-2.3105 2.06885,-1.17589 3.72213,-1.60924 1.63369,-0.44068 2.8057,-0.48454
l 2.65145,4.59243 -0.48355,0.27917
q -1.48286,-0.1489 -2.98185,0.0465 -1.49898,0.19542 -2.69633,0.88671 -0.7253,0.41876 -1.45292,1.0994 -0.73106,0.70127 -0.91987,1.51752 -0.14161,0.65873 -0.0794,1.21841 0.0507,0.56632 0.59061,1.50155 0.41907,0.72586 0.99358,1.08281 0.57105,0.37752 1.18238,0.45267 0.88765,0.1017 1.84322,-0.26388 0.96362,-0.35162 1.67743,-0.76374 1.03617,-0.59823 1.86279,-1.37327 0.82317,-0.75443 1.41609,-1.37592
l 0.50656,-0.29247 6.76965,11.72537 -12.19217,7.03916 -2.29685,-3.97825 8.03601,-4.6396 -1.95836,-3.39199
q -0.34077,0.234 -0.87384,0.56033 -0.53648,0.347 -0.95095,0.58628 -1.41608,0.81758 -2.71475,1.12068 -1.30211,0.3237 -2.4465,0.20273 -1.49093,-0.16287 -2.81147,-1.09412 -1.31247,-0.91729 -2.41656,-2.82964
z

m -103.08307,18.63607
q 0,-3.546 2.48598,-5.77032 2.47267,-2.20819 6.72674,-2.20819 2.45939,0 4.29396,0.51578 1.82126,0.5319 3.41654,1.33781
v 5.7542
h -0.55834
q -1.58198,-1.53123 -3.5362,-2.35326 -1.9675,-0.82202 -3.77549,-0.82202 -0.46528,0 -1.22304,0.0967 -0.75776,0.0967 -1.23633,0.32238 -0.58494,0.29012 -0.95718,0.72531 -0.38552,0.43519 -0.38552,1.28945 1e-5,0.7898 0.55834,1.35394 0.54506,0.58025 1.60855,0.88654 1.1167,0.32236 2.36634,0.59637 1.23633,0.29013 2.32643,0.72532 2.49927,0.98321 3.60267,2.65951 1.09011,1.69241 1.0901,4.19074 10e-6,3.35258 -2.47267,5.46407 -2.48597,2.1276 -6.38111,2.1276 -1.95421,0 -3.85524,-0.46743 -1.91434,-0.45131 -3.3102,-1.14439
v -5.52855
l 0.54505,10e-6
q 1.19646,1.1605 2.93796,1.93418 1.72821,0.78979 3.5362,0.78979 0.63811,1e-5 1.27622,-0.11282 0.62482,-0.0967 1.20975,-0.38684 0.51847,-0.24178 0.89069,-0.74144 0.37224,-0.48354 0.37224,-1.11216 0,-0.95097 -0.59823,-1.46676 -0.59823,-0.49966 -2.25997,-0.91874 -1.09011,-0.274 -2.08715,-0.53189 -1.01035,-0.25789 -2.16692,-0.70921 -2.27327,-0.90261 -3.35009,-2.46608 -1.0901,-1.54735 -1.0901,-4.02956
z

m 17.46161,-427.543326 -4.91876,3e-6 -8.40179,-16.472813
v 16.47281
h -4.67947
V 15.782365
l 6.10193,4e-6 7.21862,13.748837
V 15.782365
l 4.67947,-1e-6
z

M 459.99999,257.15877 460,242.84116
h 24.00001
v 14.31761
h -4.64203
v -9.23932
l -4.14239,10e-6
v 8.57461
h -4.64205
v -8.57462
l -5.9315,10e-6
v 9.23931
z

m -444.000036,-21.64258 24.000021,5.33088 3e-6,5.64993 -15.634668,3.54949 15.634668,3.45643 -2e-6,5.64994 -24.000022,5.33088 -2e-6,-5.33088 16.521175,-3.04433 -16.521173,-3.64254 2e-6,-5.09159 16.521168,-3.46971 -16.521172,-3.19056
z

M 185.18546,66.075899
l -3.75877,1.36808 -9.57657,-26.311393 3.75877,-1.368081
z

m 142.96442,392.791511 -3.75877,1.36808 -9.57657,-26.31139 3.75877,-1.36808
z

M 218.10822,57.615188
l -3.93923,0.694595 -4.86215,-27.574621 3.93923,-0.694585
z

m 72.58494,411.649642 -3.93923,0.6946 -4.86215,-27.57462 3.93923,-0.69459
z

M 126.18851,99.335759
l -3.06418,2.571151 -17.99806,-21.449241 3.06418,-2.571149
z

m 268.68522,320.206571 -3.06418,2.57116 -17.99806,-21.44925 3.06418,-2.57115
z

m -292.96682,-296.418 -2.57115,3.06418 -21.449247,-17.99806 2.571149,-3.06418
z

m 320.20658,268.68522 -2.57115,3.06418 -21.44925,-17.99806 2.57115,-3.06417
z

M 67.443981,181.42669
l -1.368083,3.75876 -26.311397,-9.57656 1.368079,-3.75877
z

m 392.791519,142.96442 -1.36808,3.75877 -26.3114,-9.57657 1.36808,-3.75876
z

M 58.309788,214.16899
l -0.694593,3.93923 -27.574625,-4.86215 0.694593,-3.93923
z

m 411.649642,72.58494 -0.6946,3.93923 -27.57461,-4.86215 0.69459,-3.93923
z

m -412.344242,-4.86215 0.694595,3.93923 -27.574621,4.86215 -0.694585,-3.93923
z

m 411.649642,-72.58494 0.6946,3.93923 -27.57462,4.86215 -0.69459,-3.93923
z

m -403.188931,105.5077 1.36808,3.75877 -26.311393,9.57657 -1.368081,-3.75877
z

m 392.791511,-142.96442 1.36808,3.75877 -26.31139,9.57657 -1.36808,-3.75877
z

m -359.531651,201.96137 2.571151,3.06418 -21.449241,17.99806 -2.571149,-3.06418
z

m 320.206571,-268.68522 2.57116,3.06418 -21.44925,17.99806 -2.57115,-3.06418
z

m -296.418,292.96682 3.06418,2.57115 -17.99806,21.44925 -3.06418,-2.57115
z

m 268.68522,-320.206575 3.06418,2.571149 -17.99806,21.449246 -3.06417,-2.571151
z

m -210.38286,354.669505 3.75876,1.36808 -9.57656,26.3114 -3.75877,-1.36808
z

m 142.96442,-392.791519 3.75877,1.368079 -9.57657,26.311401 -3.75876,-1.368083
z

m -110.22212,401.925719 3.93923,0.69459 -4.86215,27.57462 -3.93923,-0.6946
z

m 72.58494,-411.64965 3.93923,0.694593 -4.86215,27.574625 -3.93923,-0.694593
z

m -132.52188,50.084475 -3.4641,1.999997 -7,-12.124349 3.4641,-2.000007
z

m 202,349.874265 -3.4641,2 -7,-12.12436 3.4641,-2
z

M 82.125042,150.76795
l -1.999993,3.4641 -12.124358,-7 2.000002,-3.4641
z

m 349.874268,202 -2,3.4641 -12.12435,-7 1.99999,-3.4641
z

M 55.000002,248
v 4
L 41,252.00001 40.999996,248
Z

M 459,248
v 4
h -14
v -4
z

m -378.874955,97.76795 1.999997,3.4641 -12.124349,7 -2.000007,-3.4641
z

m 349.874265,-202 2,3.4641 -12.12436,7 -2,-3.4641
z

m -279.23136,274.10701 3.4641,1.99999 -7,12.12436 -3.4641,-2
z

m 202,-349.87427 3.4641,2.000002 -7,12.124349 -3.4641,-1.999992
z

M 248,445
h 4
v 14
h -4
z

m -1e-5,-404 4.00001,-4e-6
v 14.000006
h -4
z

m -13.00297,14.567719 -3.98478,0.348631 -1.22018,-13.946735 3.98478,-0.348618
z

m 35.21092,402.462661 -3.98478,0.34862 -1.22018,-13.94672 3.98478,-0.34863
z

m -68.7458,-396.90355 -3.86371,1.03527 -3.62346,-13.522956 3.8637,-1.03528
z

m 104.56289,390.23403 -3.8637,1.03528 -3.62347,-13.52297 3.86371,-1.03527
z

M 169.40205,72.424743
l -3.62523,1.69048 -5.91665,-12.688313 3.62523,-1.690471
z

m 170.73778,366.148347 -3.62523,1.69047 -5.91665,-12.6883 3.62523,-1.69048
z

M 139.7909,89.118202
l -3.27661,2.294302 -8.03007,-11.468129 3.27661,-2.294309
z

m 231.72488,330.937428 -3.27661,2.2943 -8.03007,-11.46813 3.27661,-2.29431
z

m -257.98739,-309.35566 -2.82843,2.82842 -9.89949,-9.89949 2.82843,-2.82843
z

m 285.67114,285.67113 -2.82843,2.82843 -9.89949,-9.8995 2.82843,-2.82842
z

M 91.412506,136.51429
l -2.29431,3.27661 -11.468125,-8.03007 2.294306,-3.27661
z

m 330.937424,231.72488 -2.29431,3.27661 -11.46813,-8.03007 2.29431,-3.27661
z

M 74.115215,165.77682
l -1.690474,3.62523 -12.688303,-5.91665 1.690475,-3.62523
z

m 366.148345,170.73778 -1.69047,3.62523 -12.68831,-5.91665 1.69048,-3.62523
z

M 62.162098,197.59844
l -1.03527,3.8637 -13.522963,-3.62347 1.035279,-3.8637
z

m 390.234042,104.56289 -1.03528,3.8637 -13.52296,-3.62346 1.03527,-3.86371
z

m -396.479794,-71.14909 -0.34862,3.98477 -13.946725,-1.22017 0.34862,-3.98478
z

m 402.462654,35.21092 -0.34862,3.98478 -13.94672,-1.22018 0.34862,-3.98478
z

m -402.811281,-1.22018 0.348631,3.98478 -13.946735,1.22018 -0.348618,-3.98478
z

m 402.462661,-35.21092 0.34862,3.98478 -13.94672,1.22018 -0.34863,-3.98478
z

m -396.90355,68.7458 1.03527,3.86371 -13.522956,3.62346 -1.03528,-3.8637
z

m 390.23403,-104.56289 1.03528,3.8637 -13.52297,3.62347 -1.03527,-3.86371
z

m -378.936117,136.62298 1.69048,3.62523 -12.688313,5.91665 -1.690471,-3.62523
z

m 366.148347,-170.73778 1.69047,3.62523 -12.6883,5.91665 -1.69048,-3.62523
z

M 89.118202,360.2091
l 2.294302,3.27661 -11.468129,8.03007 -2.294309,-3.27661
z

m 330.937428,-231.72488 2.2943,3.27661 -11.46813,8.03007 -2.29431,-3.27661
z

m -309.35566,257.98739 2.82842,2.82843 -9.89949,9.89949 -2.82843,-2.82843
z

m 285.67113,-285.67114 2.82843,2.82843 -9.8995,9.89949 -2.82842,-2.82843
z

m -259.85681,307.78702 3.27661,2.29431 -8.03007,11.46813 -3.27661,-2.29431
z

m 231.72488,-330.937421 3.27661,2.294308 -8.03007,11.468128 -3.27661,-2.294307
z

m -202.46235,348.234711 3.62523,1.69048 -5.91665,12.6883 -3.62523,-1.69047
z

M 336.5146,59.736438
l 3.62523,1.690475 -5.91665,12.688302 -3.62523,-1.690474
z

M 197.59843,437.8379
l 3.86371,1.03527 -3.62347,13.52297 -3.8637,-1.03528
z

m 104.5629,-390.234035 3.8637,1.035279 -3.62347,13.522954 -3.8637,-1.03527
z

m -71.14909,396.479795 3.98478,0.34862 -1.22018,13.94672 -3.98478,-0.34862
z

m 35.21092,-402.462659 3.98478,0.34862 -1.22018,13.946725 -3.98477,-0.34862
z
" />
</svg>
