<svg
   width="500"
   height="500"
   viewBox="0 0 500 500"
   preserveAspectRatio="xMinYMin meet"
   version="1.1"
   xmlns="http://www.w3.org/2000/svg"
   xmlns:svg="http://www.w3.org/2000/svg">

  <path style="fill:white;" d="
M 235 138
L 235 142
L 265 142
L 265 138
L 235 138
z

M 235 160
L 235 164
L 265 164
L 265 160
L 235 160
z

M 235 182
L 235 186
L 265 186
L 265 182
L 235 182
z

M 235 204
L 235 208
L 265 208
L 265 204
L 235 204
z

M 296.24805 210.88281
C 294.42006 210.88281 292.98122 211.63334 291.93164 213.13477
C 290.88708 214.62894 290.36523 216.6723 290.36523 219.26172
C 290.36523 220.67611 290.50588 221.91173 290.78711 222.9707
C 291.06834 224.02243 291.46712 224.89995 291.98438 225.60352
C 292.4966 226.29983 293.11752 226.82176 293.8457 227.16992
C 294.57388 227.51807 295.37423 227.69336 296.24805 227.69336
C 296.926 227.69336 297.62645 227.54347 298.34961 227.24609
C 299.07779 226.94145 299.74865 226.58587 300.36133 226.17969
L 300.36133 219.22852
L 295.87891 219.22852
L 295.87891 221.12109
L 298.88477 221.12109
L 298.88477 225.0918
C 298.52318 225.30939 298.10125 225.48719 297.61914 225.625
C 297.14206 225.76281 296.66375 225.83203 296.18164 225.83203
C 294.86589 225.83203 293.82583 225.25232 293.0625 224.0918
C 292.29917 222.92402 291.91797 221.2915 291.91797 219.19531
C 291.91797 217.20792 292.28159 215.63318 293.00977 214.47266
C 293.74297 213.30488 294.73671 212.72266 295.99219 212.72266
C 296.54962 212.72266 297.04747 212.79886 297.48438 212.95117
C 297.92631 213.09624 298.3195 213.281 298.66602 213.50586
C 298.95226 213.69445 299.24472 213.93002 299.54102 214.21289
C 299.83731 214.49577 300.06307 214.72436 300.21875 214.89844
L 300.35352 214.89844
L 300.35352 212.3418
C 299.58516 211.81231 298.86714 211.4383 298.19922 211.2207
C 297.53632 210.99585 296.88583 210.88281 296.24805 210.88281
z

M 306.75 210.88281
C 305.52967 210.88281 304.52198 211.31906 303.72852 212.18945
C 302.93505 213.05259 302.53906 214.16121 302.53906 215.51758
C 302.53906 216.69986 302.77682 217.66056 303.25391 218.40039
C 303.73601 219.13297 304.47441 219.65239 305.46875 219.95703
C 305.9609 220.1021 306.42637 220.22211 306.86328 220.31641
C 307.30521 220.4107 307.7132 220.53072 308.08984 220.67578
C 308.58702 220.86437 308.95621 221.12785 309.19727 221.46875
C 309.44334 221.80966 309.56641 222.34053 309.56641 223.05859
C 309.56641 223.89272 309.30827 224.56007 308.79102 225.06055
C 308.27878 225.56102 307.56076 225.81055 306.63672 225.81055
C 305.98387 225.81055 305.28622 225.62577 304.54297 225.25586
C 303.79972 224.88594 303.14365 224.35954 302.57617 223.67773
L 302.4707 223.67773
L 302.4707 226.37695
C 303.13862 226.8049 303.79469 227.12615 304.4375 227.34375
C 305.08533 227.56135 305.81257 227.67188 306.62109 227.67188
C 307.37439 227.67188 308.01846 227.54042 308.55078 227.2793
C 309.08813 227.01818 309.55722 226.65561 309.95898 226.19141
C 310.32559 225.76346 310.60967 225.24153 310.81055 224.625
C 311.01644 224.00847 311.11914 223.38494 311.11914 222.75391
C 311.11914 221.59339 310.90817 220.69046 310.48633 220.04492
C 310.06448 219.39938 309.43716 218.91681 308.60352 218.59766
C 308.19172 218.44534 307.68829 218.29546 307.0957 218.15039
C 306.50311 218.00533 306.04602 217.88279 305.72461 217.78125
C 305.11696 217.57815 304.69223 217.28481 304.45117 216.90039
C 304.21012 216.51597 304.08984 215.9851 304.08984 215.31055
C 304.08984 214.5562 304.33235 213.93965 304.81445 213.46094
C 305.30158 212.98222 305.9437 212.74414 306.74219 212.74414
C 307.47037 212.74414 308.18002 212.91746 308.87305 213.26562
C 309.5711 213.60653 310.13368 214.03831 310.56055 214.56055
L 310.66602 214.56055
L 310.66602 212.01562
C 310.1588 211.69648 309.57779 211.42658 308.91992 211.20898
C 308.26205 210.99139 307.53844 210.88281 306.75 210.88281
z

M 235 226
L 235 230
L 265 230
L 265 226
L 235 226
z

M 138 235
L 138 265
L 142 265
L 142 235
L 138 235
z

M 160 235
L 160 265
L 164 265
L 164 235
L 160 235
z

M 182 235
L 182 265
L 186 265
L 186 235
L 182 235
z

M 204 235
L 204 265
L 208 265
L 208 235
L 204 235
z

M 226 235
L 226 265
L 230 265
L 230 235
L 226 235
z

M 270 235
L 270 265
L 274 265
L 274 235
L 270 235
z

M 292 235
L 292 265
L 296 265
L 296 235
L 292 235
z

M 314 235
L 314 265
L 318 265
L 318 235
L 314 235
z

M 336 235
L 336 265
L 340 265
L 340 235
L 336 235
z

M 358 235
L 358 265
L 362 265
L 362 235
L 358 235
z

M 250 243
A 7 7 0 0 0 243 250
A 7 7 0 0 0 250 257
A 7 7 0 0 0 257 250
A 7 7 0 0 0 250 243
z

M 235 270
L 235 274
L 265 274
L 265 270
L 235 270
z

M 235 292
L 235 296
L 265 296
L 265 292
L 235 292
z

M 235 314
L 235 318
L 265 318
L 265 314
L 235 314
z

M 235 336
L 235 340
L 265 340
L 265 336
L 235 336
z

M 235 358
L 235 362
L 265 362
L 265 358
L 235 358
z

M 186.50195 371.00781
L 186.50195 387.20703
L 187.89453 387.20703
L 187.89453 372.71484
L 193.21289 387.20703
L 195.05859 387.20703
L 195.05859 371.00781
L 193.66602 371.00781
L 193.66602 384.23633
L 188.81445 371.00781
L 186.50195 371.00781
z

M 200.81445 371.00781
L 196.73047 387.20703
L 198.24609 387.20703
L 199.3457 382.69141
L 204.19727 382.69141
L 205.29688 387.20703
L 206.88477 387.20703
L 202.80273 371.00781
L 200.81445 371.00781
z

M 206.82617 371.00781
L 210.9082 387.20703
L 212.89648 387.20703
L 216.98047 371.00781
L 215.45898 371.00781
L 211.93945 385.25977
L 208.42188 371.00781
L 206.82617 371.00781
z

M 201.77148 372.88867
L 203.73633 380.8418
L 199.79688 380.8418
L 201.77148 372.88867
z
" />
</svg>
