<svg
   width="500"
   height="500"
   viewBox="0 0 500 500"
   version="1.1"
   preserveAspectRatio="xMinYMin"
   xmlns="http://www.w3.org/2000/svg"
   xmlns:svg="http://www.w3.org/2000/svg">

  <circle style="fill:#000000;stroke:#c0c0c0;stroke-width:5px"
       cx="250"
       cy="250"
       r="247.5" />
  <path style="fill:#ffffff"
       d="m 57.28,143.37 q 0.91,-0.23 1.89,-0.11 0.97,0.12 2.27,0.87 1.47,0.85 2.46,2.06 1,1.21 1.33,2.72 0.32,1.47 0.04,3.06 -0.29,1.57 -1.37,3.43 -1.23,2.13 -2.52,3.43 -1.28,1.29 -2.34,1.95 l -4.56,-2.64 0.26,-0.45 q 1.3,-0.57 2.62,-1.63 1.33,-1.08 1.99,-2.22 0.39,-0.67 0.71,-1.52 0.31,-0.86 0.18,-1.66 -0.1,-0.63 -0.45,-1.16 -0.36,-0.54 -1.29,-1.08 -0.91,-0.52 -1.6,-0.46 -0.7,0.06 -1.24,0.5 -0.55,0.44 -1.02,1.22 -0.49,0.78 -0.88,1.46 l -0.55,0.94 -3.71,-2.14 0.56,-0.98 q 0.52,-0.9 0.85,-1.63 0.33,-0.73 0.36,-1.36 0.03,-0.66 -0.26,-1.16 -0.3,-0.51 -1.15,-1 -0.63,-0.36 -1.16,-0.32 -0.54,0.04 -1,0.31 -0.51,0.3 -0.95,0.87 -0.44,0.56 -0.69,1 -0.62,1.08 -0.9,2.61 -0.28,1.52 -0.12,3.2 l -0.25,0.43 -4.51,-2.6 q 0.08,-1.21 0.6,-3.08 0.5,-1.87 1.47,-3.54 0.94,-1.62 1.99,-2.64 1.04,-1.03 2.07,-1.49 1.23,-0.55 2.47,-0.45 1.24,0.1 2.56,0.86 1.73,1 2.59,2.68 0.84,1.67 0.38,3.34 l 0.2,0.11 q 0.44,-0.53 1.11,-1.02 0.67,-0.49 1.54,-0.71 z m 9.93,-18.71 q 2.62,1.52 4.48,3.11 1.84,1.58 2.69,3.18 0.86,1.63 0.79,3.37 -0.09,1.73 -1.22,3.69 -1.11,1.92 -2.59,2.88 -1.48,0.96 -3.34,1.01 -1.86,0.06 -4.1,-0.73 -2.26,-0.8 -4.88,-2.31 -2.71,-1.56 -4.48,-3.11 -1.77,-1.54 -2.66,-3.19 -0.88,-1.64 -0.78,-3.4 0.1,-1.75 1.19,-3.64 1.14,-1.97 2.62,-2.89 1.47,-0.93 3.36,-0.98 1.85,-0.05 4.08,0.73 2.22,0.77 4.84,2.29 z m -2.57,4.46 q -3.77,-2.18 -5.71,-2.48 -1.96,-0.32 -2.78,1.1 -0.82,1.42 0.44,2.95 1.24,1.53 5.04,3.72 3.7,2.14 5.69,2.46 1.99,0.32 2.8,-1.07 0.8,-1.39 -0.47,-2.96 -1.27,-1.56 -5,-3.72 z m 369.96,223.22 6.61,-11.44 3.63,2.1 -2.09,3.62 10.99,6.34 2.09,-3.62 3.39,1.96 q -0.48,0.83 -0.81,1.65 -0.31,0.83 -0.31,1.51 0,0.8 0.39,1.42 0.39,0.62 1.2,1.15 l -2.2,3.81 -17.21,-9.94 -2.04,3.53 z m -10.3,17.85 7.77,-13.46 3.43,1.98 q 0.46,2.32 1.09,4.75 0.62,2.43 1.19,4 0.83,2.34 1.7,3.62 0.88,1.29 2.06,1.97 1.42,0.82 2.63,0.51 1.21,-0.3 2.03,-1.71 0.61,-1.06 0.76,-2.54 0.14,-1.47 -0.1,-2.95 l 0.21,-0.37 4.62,2.67 q -0.04,1.07 -0.52,2.91 -0.49,1.85 -1.42,3.45 -1.86,3.22 -4.49,3.97 -2.61,0.75 -5.61,-0.98 -1.97,-1.14 -3.27,-2.98 -1.31,-1.83 -2.23,-4.59 -0.57,-1.72 -0.95,-3.36 -0.37,-1.62 -0.5,-2.3 l -4.45,7.7 z m -354.44,-10.67 7.77,13.46 -3.43,1.98 q -2.24,-0.76 -4.66,-1.43 -2.42,-0.68 -4.06,-0.97 -2.44,-0.45 -3.99,-0.34 -1.55,0.11 -2.74,0.8 -1.42,0.82 -1.75,2.03 -0.35,1.2 0.47,2.62 0.61,1.06 1.82,1.93 1.2,0.86 2.6,1.38 l 0.21,0.37 -4.62,2.67 q -0.9,-0.57 -2.25,-1.91 -1.36,-1.35 -2.28,-2.95 -1.86,-3.22 -1.19,-5.87 0.66,-2.64 3.66,-4.37 1.97,-1.14 4.21,-1.34 2.24,-0.22 5.09,0.36 1.78,0.37 3.38,0.86 1.59,0.5 2.24,0.72 l -4.45,-7.7 z m -14.61,-14.24 1.35,2.34 4.84,-2.8 2.44,4.23 -4.84,2.8 4.79,8.3 -3.94,2.27 -16.69,-1.06 -2.6,-4.5 12.2,-7.04 -1.35,-2.34 z m -0.01,8.75 -7.51,4.34 10.39,0.65 z M 443.79,150.85 q -1.61,0.93 -3.29,1.26 -1.69,0.33 -3.16,0.01 -1.57,-0.34 -2.83,-1.25 -1.25,-0.91 -2.2,-2.55 -0.89,-1.54 -1.13,-3.11 -0.21,-1.56 0.31,-3.08 0.6,-1.74 2.17,-3.39 1.58,-1.65 4.22,-3.17 2.74,-1.58 5.16,-2.29 2.42,-0.71 4.73,-0.48 2.21,0.23 4.12,1.52 1.91,1.31 3.34,3.79 0.49,0.84 0.92,1.92 0.44,1.08 0.54,1.42 l -4.09,2.36 -0.25,-0.44 q 0,-0.42 -0.21,-1.29 -0.19,-0.87 -0.73,-1.82 -1.28,-2.21 -3.3,-2.68 -2.02,-0.47 -4.51,0.63 1.15,0.52 2.11,1.27 0.98,0.76 1.63,1.9 0.58,1 0.79,2.01 0.22,1.02 0.03,2.12 -0.26,1.42 -1.29,2.79 -1.04,1.37 -3.09,2.55 z m -6.17,-3.43 q 0.68,0.08 1.44,-0.08 0.78,-0.16 1.9,-0.8 1.02,-0.59 1.52,-1.2 0.52,-0.62 0.66,-1.27 0.15,-0.64 -0.03,-1.28 -0.17,-0.65 -0.52,-1.25 -0.29,-0.51 -0.75,-0.98 -0.46,-0.47 -0.93,-0.81 -0.14,0.08 -0.47,0.25 -0.33,0.17 -0.82,0.46 -1.72,0.99 -2.67,1.91 -0.94,0.92 -1.25,1.74 -0.25,0.57 -0.2,1.13 0.06,0.55 0.35,1.06 0.22,0.38 0.69,0.72 0.48,0.34 1.08,0.42 z m -291.52,285.54 13.46,7.77 -1.98,3.43 q -2.32,0.46 -4.75,1.09 -2.43,0.62 -4,1.19 -2.34,0.83 -3.62,1.7 -1.29,0.88 -1.97,2.06 -0.82,1.42 -0.51,2.63 0.3,1.21 1.71,2.03 1.06,0.61 2.54,0.76 1.47,0.14 2.95,-0.1 l 0.37,0.21 -2.67,4.62 q -1.07,-0.04 -2.91,-0.52 -1.85,-0.49 -3.45,-1.42 -3.22,-1.86 -3.97,-4.49 -0.75,-2.61 0.98,-5.61 1.14,-1.97 2.98,-3.27 1.83,-1.31 4.59,-2.23 1.72,-0.57 3.36,-0.95 1.62,-0.37 2.3,-0.5 l -7.7,-4.45 z m -15.68,-9.05 11.44,6.61 -2.1,3.63 -3.62,-2.09 -6.34,10.99 3.62,2.09 -1.96,3.39 q -0.83,-0.48 -1.65,-0.81 -0.83,-0.31 -1.51,-0.31 -0.8,0 -1.42,0.39 -0.62,0.39 -1.15,1.2 l -3.81,-2.2 9.94,-17.21 -3.53,-2.04 z M 366.15,62.05 q 0.23,0.91 0.11,1.89 -0.12,0.97 -0.87,2.27 -0.85,1.47 -2.06,2.46 -1.21,1 -2.72,1.33 -1.47,0.32 -3.06,0.04 -1.57,-0.29 -3.43,-1.37 -2.13,-1.23 -3.43,-2.52 -1.29,-1.28 -1.95,-2.34 l 2.64,-4.56 0.45,0.26 q 0.57,1.3 1.63,2.62 1.08,1.33 2.22,1.99 0.67,0.39 1.52,0.71 0.86,0.31 1.66,0.18 0.63,-0.1 1.16,-0.45 0.54,-0.36 1.08,-1.29 0.52,-0.91 0.46,-1.6 -0.06,-0.7 -0.5,-1.24 -0.44,-0.55 -1.22,-1.02 -0.78,-0.49 -1.46,-0.88 l -0.94,-0.55 2.14,-3.71 0.98,0.56 q 0.9,0.52 1.63,0.85 0.73,0.33 1.36,0.36 0.66,0.03 1.16,-0.26 0.51,-0.3 1,-1.15 0.36,-0.63 0.32,-1.16 -0.04,-0.54 -0.31,-1 -0.3,-0.51 -0.87,-0.95 -0.56,-0.44 -1,-0.69 -1.08,-0.62 -2.61,-0.9 -1.52,-0.28 -3.2,-0.12 l -0.43,-0.25 2.6,-4.51 q 1.21,0.08 3.08,0.6 1.87,0.5 3.54,1.47 1.62,0.94 2.64,1.99 1.03,1.04 1.49,2.07 0.55,1.23 0.45,2.47 -0.1,1.24 -0.86,2.56 -1,1.73 -2.68,2.59 -1.67,0.84 -3.34,0.38 l -0.11,0.2 q 0.53,0.44 1.02,1.11 0.49,0.67 0.71,1.54 z M 136.76,61.48 q 0.9,0.26 1.69,0.85 0.79,0.59 1.53,1.89 0.85,1.47 1.1,3.02 0.26,1.54 -0.2,3.02 -0.46,1.44 -1.5,2.67 -1.04,1.21 -2.9,2.29 -2.13,1.23 -3.89,1.71 -1.75,0.47 -3,0.52 l -2.64,-4.56 0.45,-0.26 q 1.41,0.15 3.09,-0.11 1.69,-0.27 2.83,-0.93 0.67,-0.39 1.38,-0.96 0.7,-0.59 0.99,-1.35 0.22,-0.59 0.2,-1.23 -0.04,-0.65 -0.58,-1.58 -0.52,-0.91 -1.15,-1.2 -0.64,-0.3 -1.32,-0.19 -0.69,0.1 -1.5,0.55 -0.81,0.43 -1.49,0.82 l -0.94,0.55 -2.14,-3.71 0.98,-0.56 q 0.9,-0.52 1.55,-0.99 0.65,-0.47 0.99,-1 0.35,-0.56 0.36,-1.14 -0.01,-0.59 -0.5,-1.44 -0.36,-0.63 -0.85,-0.85 -0.49,-0.24 -1.02,-0.23 -0.59,0.01 -1.25,0.28 -0.66,0.27 -1.1,0.52 -1.08,0.62 -2.08,1.82 -1.01,1.18 -1.7,2.71 l -0.43,0.25 -2.6,-4.51 q 0.68,-1.01 2.06,-2.36 1.37,-1.37 3.04,-2.33 1.62,-0.94 3.05,-1.29 1.41,-0.37 2.54,-0.26 1.34,0.14 2.36,0.85 1.02,0.71 1.78,2.02 1,1.73 0.9,3.61 -0.1,1.87 -1.34,3.08 l 0.11,0.2 q 0.64,-0.24 1.47,-0.33 0.83,-0.09 1.69,0.16 z m 16.76,-9.68 q 0.9,0.26 1.69,0.85 0.79,0.59 1.53,1.89 0.85,1.47 1.1,3.02 0.26,1.54 -0.2,3.02 -0.46,1.44 -1.5,2.67 -1.04,1.21 -2.9,2.29 -2.13,1.23 -3.89,1.71 -1.75,0.47 -3,0.52 l -2.64,-4.56 0.45,-0.26 q 1.41,0.15 3.09,-0.11 1.69,-0.27 2.83,-0.93 0.67,-0.39 1.38,-0.96 0.7,-0.59 0.99,-1.35 0.22,-0.59 0.2,-1.23 -0.04,-0.65 -0.58,-1.58 -0.52,-0.91 -1.15,-1.2 -0.64,-0.3 -1.32,-0.19 -0.69,0.1 -1.5,0.55 -0.81,0.43 -1.49,0.82 l -0.94,0.55 -2.14,-3.71 0.98,-0.56 q 0.9,-0.52 1.55,-0.99 0.65,-0.47 0.99,-1 0.35,-0.56 0.36,-1.14 -0.01,-0.59 -0.5,-1.44 -0.36,-0.63 -0.85,-0.85 -0.49,-0.24 -1.02,-0.23 -0.59,0.01 -1.25,0.28 -0.66,0.27 -1.1,0.52 -1.08,0.62 -2.08,1.82 -1.01,1.18 -1.7,2.71 l -0.43,0.25 -2.6,-4.51 q 0.68,-1.01 2.06,-2.36 1.37,-1.37 3.04,-2.33 1.62,-0.94 3.05,-1.29 1.41,-0.37 2.54,-0.26 1.34,0.14 2.36,0.85 1.02,0.71 1.78,2.02 1,1.73 0.9,3.61 -0.1,1.87 -1.34,3.08 l 0.11,0.2 q 0.64,-0.24 1.47,-0.33 0.83,-0.09 1.69,0.16 z m 204.73,379.77 11.44,-6.61 2.1,3.63 -3.62,2.09 6.34,10.99 3.62,-2.09 1.96,3.39 q -0.83,0.48 -1.52,1.03 -0.69,0.56 -1.02,1.15 -0.4,0.69 -0.37,1.43 0.02,0.73 0.46,1.6 l -3.81,2.2 -9.94,-17.21 -3.53,2.04 z m -13.41,17.13 q -0.93,-1.62 -1.23,-3.31 -0.3,-1.67 0.08,-3.21 0.45,-1.67 1.53,-2.99 1.08,-1.29 2.84,-2.31 2.07,-1.18 3.72,-1.61 1.63,-0.44 2.81,-0.48 l 2.65,4.59 -0.48,0.28 q -1.48,-0.15 -2.98,0.05 -1.5,0.2 -2.7,0.89 -0.73,0.42 -1.45,1.1 -0.73,0.7 -0.92,1.52 -0.14,0.66 -0.08,1.22 0.05,0.57 0.59,1.5 0.42,0.73 0.99,1.08 0.57,0.38 1.18,0.45 0.89,0.1 1.84,-0.26 0.96,-0.35 1.68,-0.76 1.04,-0.6 1.86,-1.37 0.82,-0.75 1.42,-1.38 l 0.51,-0.29 6.77,11.73 -12.19,7.04 -2.3,-3.98 8.04,-4.64 -1.96,-3.39 q -0.34,0.23 -0.87,0.56 -0.54,0.35 -0.95,0.59 -1.42,0.82 -2.71,1.12 -1.3,0.32 -2.45,0.2 -1.49,-0.16 -2.81,-1.09 -1.31,-0.92 -2.42,-2.83 z m -103.08,18.64 q 0,-3.55 2.49,-5.77 2.47,-2.21 6.73,-2.21 2.46,0 4.29,0.52 1.82,0.53 3.42,1.34 v 5.75 h -0.56 q -1.58,-1.53 -3.54,-2.35 -1.97,-0.82 -3.78,-0.82 -0.47,0 -1.22,0.1 -0.76,0.1 -1.24,0.32 -0.58,0.29 -0.96,0.73 -0.39,0.44 -0.39,1.29 0,0.79 0.56,1.35 0.55,0.58 1.61,0.89 1.12,0.32 2.37,0.6 1.24,0.29 2.33,0.73 2.5,0.98 3.6,2.66 1.09,1.69 1.09,4.19 0,3.35 -2.47,5.46 -2.49,2.13 -6.38,2.13 -1.95,0 -3.86,-0.47 -1.91,-0.45 -3.31,-1.14 v -5.53 h 0.55 q 1.2,1.16 2.94,1.93 1.73,0.79 3.54,0.79 0.64,0 1.28,-0.11 0.62,-0.1 1.21,-0.39 0.52,-0.24 0.89,-0.74 0.37,-0.48 0.37,-1.11 0,-0.95 -0.6,-1.47 -0.6,-0.5 -2.26,-0.92 -1.09,-0.27 -2.09,-0.53 -1.01,-0.26 -2.17,-0.71 -2.27,-0.9 -3.35,-2.47 -1.09,-1.55 -1.09,-4.03 z M 259.22,39.8 H 254.3 L 245.9,23.33 V 39.8 h -4.68 V 15.78 h 6.1 l 7.22,13.75 V 15.78 h 4.68 z M 460,257.16 v -14.32 h 24 v 14.32 h -4.64 v -9.24 h -4.14 v 8.57 h -4.64 v -8.57 h -5.93 v 9.24 z m -444,-21.64 24,5.33 v 5.65 l -15.63,3.55 15.63,3.46 v 5.65 l -24,5.33 v -5.33 L 32.52,256.12 16,252.48 v -5.09 L 32.52,243.92 16,240.73 Z m 169.19,-169.44 -3.76,1.37 -9.58,-26.31 3.76,-1.37 z m 142.96,392.79 -3.76,1.37 -9.58,-26.31 3.76,-1.37 z M 218.11,57.62 l -3.94,0.69 -4.86,-27.57 3.94,-0.69 z m 72.58,411.65 -3.94,0.69 -4.86,-27.57 3.94,-0.69 z m -164.5,-369.93 -3.06,2.57 -18,-21.45 3.06,-2.57 z m 268.69,320.21 -3.06,2.57 -18,-21.45 3.06,-2.57 z m -292.97,-296.42 -2.57,3.06 -21.45,-18 2.57,-3.06 z m 320.21,268.69 -2.57,3.06 -21.45,-18 2.57,-3.06 z M 67.44,181.43 l -1.37,3.76 -26.31,-9.58 1.37,-3.76 z m 392.79,142.96 -1.37,3.76 -26.31,-9.58 1.37,-3.76 z M 58.31,214.17 l -0.69,3.94 -27.57,-4.86 0.69,-3.94 z m 411.65,72.58 -0.69,3.94 -27.57,-4.86 0.69,-3.94 z m -412.34,-4.86 0.69,3.94 -27.57,4.86 -0.69,-3.94 z m 411.65,-72.58 0.69,3.94 -27.57,4.86 -0.69,-3.94 z m -403.19,105.51 1.37,3.76 -26.31,9.58 -1.37,-3.76 z m 392.79,-142.96 1.37,3.76 -26.31,9.58 -1.37,-3.76 z m -359.53,201.96 2.57,3.06 -21.45,18 -2.57,-3.06 z m 320.21,-268.69 2.57,3.06 -21.45,18 -2.57,-3.06 z m -296.42,292.97 3.06,2.57 -18,21.45 -3.06,-2.57 z m 268.69,-320.21 3.06,2.57 -18,21.45 -3.06,-2.57 z m -210.38,354.67 3.76,1.37 -9.58,26.31 -3.76,-1.37 z M 324.4,39.77 l 3.76,1.37 -9.58,26.31 -3.76,-1.37 z m -110.22,401.93 3.94,0.69 -4.86,27.57 -3.94,-0.69 z m 72.58,-411.65 3.94,0.69 -4.86,27.57 -3.94,-0.69 z m -132.52,50.08 -3.46,2 -7,-12.12 3.46,-2 z m 202,349.87 -3.46,2 -7,-12.12 3.46,-2 z M 82.13,150.77 l -2,3.46 -12.12,-7 2,-3.46 z m 349.87,202 -2,3.46 -12.12,-7 2,-3.46 z M 55,248 v 4 H 41 v -4 z m 404,0 v 4 h -14 v -4 z m -378.87,97.77 2,3.46 -12.12,7 -2,-3.46 z m 349.87,-202 2,3.46 -12.12,7 -2,-3.46 z m -279.23,274.11 3.46,2 -7,12.12 -3.46,-2 z m 202,-349.87 3.46,2 -7,12.12 -3.46,-2 z M 248,445 h 4 v 14 h -4 z m 0,-404 h 4 v 14 h -4 z m -13,14.57 -3.98,0.35 -1.22,-13.95 3.98,-0.35 z m 35.21,402.46 -3.98,0.35 -1.22,-13.95 3.98,-0.35 z m -68.75,-396.9 -3.86,1.04 -3.62,-13.52 3.86,-1.04 z m 104.56,390.23 -3.86,1.04 -3.62,-13.52 3.86,-1.04 z M 169.4,72.42 l -3.63,1.69 -5.92,-12.69 3.63,-1.69 z m 170.74,366.15 -3.63,1.69 -5.92,-12.69 3.63,-1.69 z M 139.79,89.12 l -3.28,2.29 -8.03,-11.47 3.28,-2.29 z m 231.72,330.94 -3.28,2.29 -8.03,-11.47 3.28,-2.29 z M 113.52,110.7 l -2.83,2.83 -9.9,-9.9 2.83,-2.83 z m 285.67,285.67 -2.83,2.83 -9.9,-9.9 2.83,-2.83 z M 91.41,136.51 l -2.29,3.28 -11.47,-8.03 2.29,-3.28 z m 330.94,231.72 -2.29,3.28 -11.47,-8.03 2.29,-3.28 z M 74.12,165.78 l -1.69,3.63 -12.69,-5.92 1.69,-3.63 z m 366.15,170.74 -1.69,3.63 -12.69,-5.92 1.69,-3.63 z M 62.16,197.6 l -1.04,3.86 -13.52,-3.62 1.04,-3.86 z m 390.23,104.56 -1.04,3.86 -13.52,-3.62 1.04,-3.86 z m -396.48,-71.15 -0.35,3.98 -13.95,-1.22 0.35,-3.98 z m 402.46,35.21 -0.35,3.98 -13.95,-1.22 0.35,-3.98 z M 55.56,265 l 0.35,3.98 -13.95,1.22 -0.35,-3.98 z m 402.46,-35.21 0.35,3.98 -13.95,1.22 -0.35,-3.98 z m -396.9,68.75 1.04,3.86 -13.52,3.62 -1.04,-3.86 z m 390.23,-104.56 1.04,3.86 -13.52,3.62 -1.04,-3.86 z M 72.41,330.6 l 1.69,3.63 -12.69,5.92 -1.69,-3.63 z m 366.15,-170.74 1.69,3.63 -12.69,5.92 -1.69,-3.63 z m -349.44,200.35 2.29,3.28 -11.47,8.03 -2.29,-3.28 z m 330.94,-231.72 2.29,3.28 -11.47,8.03 -2.29,-3.28 z m -309.36,257.99 2.83,2.83 -9.9,9.9 -2.83,-2.83 z m 285.67,-285.67 2.83,2.83 -9.9,9.9 -2.83,-2.83 z m -259.86,307.79 3.28,2.29 -8.03,11.47 -3.28,-2.29 z m 231.72,-330.94 3.28,2.29 -8.03,11.47 -3.28,-2.29 z m -202.46,348.23 3.63,1.69 -5.92,12.69 -3.63,-1.69 z m 170.74,-366.15 3.63,1.69 -5.92,12.69 -3.63,-1.69 z m -138.91,378.1 3.86,1.04 -3.62,13.52 -3.86,-1.04 z m 104.56,-390.23 3.86,1.04 -3.62,13.52 -3.86,-1.04 z m -71.15,396.48 3.98,0.35 -1.22,13.95 -3.98,-0.35 z m 35.21,-402.46 3.98,0.35 -1.22,13.95 -3.98,-0.35 z"
/>
</svg>
