<svg
   width="500"
   height="500"
   viewBox="0 0 500 500"
   preserveAspectRatio="xMinYMin meet"
   version="1.1"
   xmlns="http://www.w3.org/2000/svg"
   xmlns:svg="http://www.w3.org/2000/svg">
  <circle style="fill:#101010;"
       cx="250"
       cy="250"
       r="250" />
  <path
       style="fill:#ffffff;"
       d="m 335,100.45 -3.95,0.31 q -0.53,-2.34 -1.5,-3.4 -1.61,-1.7 -3.97,-1.7 -1.9,0 -3.33,1.06 -1.87,1.37 -2.95,3.99 -1.08,2.62 -1.12,7.47 1.43,-2.18 3.51,-3.24 2.07,-1.06 4.34,-1.06 3.97,0 6.75,2.93 2.8,2.91 2.8,7.54 0,3.04 -1.32,5.67 -1.3,2.6 -3.59,3.99 -2.29,1.39 -5.2,1.39 -4.96,0 -8.09,-3.64 -3.13,-3.66 -3.13,-12.04 0,-9.37 3.46,-13.63 3.02,-3.7 8.14,-3.7 3.81,0 6.24,2.14 2.45,2.14 2.93,5.91 z m -16.21,13.93 q 0,2.05 0.86,3.92 0.88,1.87 2.45,2.87 1.57,0.97 3.29,0.97 2.51,0 4.32,-2.03 1.81,-2.03 1.81,-5.51 0,-3.35 -1.79,-5.27 -1.79,-1.94 -4.5,-1.94 -2.69,0 -4.56,1.94 -1.87,1.92 -1.87,5.05 z m -146.92,10.47 v -7.74 h -14.02 v -3.64 l 14.75,-20.95 h 3.24 v 20.95 h 4.37 v 3.64 h -4.37 v 7.74 z m 0,-11.38 V 98.91 l -10.12,14.57 z m 67.91,-12.73 4.17,-0.35 q 0.46,3.04 2.14,4.59 1.7,1.52 4.08,1.52 2.87,0 4.85,-2.16 1.98,-2.16 1.98,-5.73 0,-3.4 -1.92,-5.36 -1.9,-1.96 -4.98,-1.96 -1.92,0 -3.46,0.88 -1.54,0.86 -2.43,2.25 l -3.73,-0.49 3.13,-16.6 h 16.07 v 3.79 h -12.9 l -1.74,8.69 q 2.91,-2.03 6.11,-2.03 4.23,0 7.14,2.93 2.91,2.93 2.91,7.54 0,4.39 -2.56,7.58 -3.11,3.92 -8.49,3.92 -4.41,0 -7.21,-2.47 -2.78,-2.47 -3.17,-6.55 z m 152.45,296.03 v -32.32 h 14.33 q 4.32,0 6.57,0.88 2.25,0.86 3.59,3.06 1.34,2.2 1.34,4.87 0,3.44 -2.23,5.8 -2.23,2.36 -6.88,3 1.7,0.82 2.58,1.61 1.87,1.72 3.55,4.3 l 5.62,8.8 h -5.38 l -4.28,-6.72 q -1.87,-2.91 -3.09,-4.45 -1.21,-1.54 -2.18,-2.16 -0.95,-0.62 -1.94,-0.86 -0.73,-0.15 -2.38,-0.15 h -4.96 v 14.35 z m 4.28,-18.06 h 9.19 q 2.93,0 4.59,-0.6 1.65,-0.62 2.51,-1.94 0.86,-1.34 0.86,-2.91 0,-2.29 -1.68,-3.77 -1.65,-1.48 -5.25,-1.48 H 396.51 Z M 80.52,396.79 v -32.32 h 4.28 v 28.51 h 15.92 v 3.81 z m -0,-58.78 v -21.86 h 11.58 q 3.49,0 5.31,0.6 1.82,0.58 2.9,2.07 1.09,1.49 1.09,3.3 0,2.33 -1.8,3.92 -1.8,1.6 -5.56,2.03 1.37,0.55 2.08,1.09 1.51,1.16 2.87,2.91 l 4.54,5.95 h -4.35 l -3.46,-4.55 q -1.51,-1.97 -2.49,-3.01 -0.98,-1.04 -1.76,-1.46 -0.77,-0.42 -1.57,-0.58 -0.59,-0.1 -1.92,-0.1 h -4.01 v 9.71 z m 3.46,-12.21 h 7.43 q 2.37,0 3.7,-0.4 1.34,-0.42 2.03,-1.31 0.69,-0.91 0.69,-1.97 0,-1.55 -1.35,-2.55 -1.34,-1 -4.24,-1 h -8.26 z m 22.9,12.21 v -21.86 h 18.88 v 2.58 H 110.33 v 6.69 h 14.44 v 2.56 H 110.33 v 7.44 h 16.03 v 2.58 z m 24.26,0 v -21.86 h 8.99 q 3.05,0 4.65,0.31 2.24,0.43 3.83,1.57 2.07,1.46 3.08,3.74 1.03,2.27 1.03,5.19 0,2.49 -0.69,4.41 -0.69,1.92 -1.78,3.19 -1.09,1.25 -2.39,1.98 -1.28,0.72 -3.12,1.09 -1.82,0.37 -4.19,0.37 z m 3.46,-2.58 h 5.57 q 2.58,0 4.04,-0.4 1.48,-0.4 2.35,-1.13 1.23,-1.03 1.91,-2.76 0.69,-1.74 0.69,-4.22 0,-3.43 -1.35,-5.26 -1.34,-1.85 -3.26,-2.48 -1.39,-0.45 -4.47,-0.45 h -5.49 z m 39.34,-10.27 H 156.69 v -2.5 h 17.24 z m 0,6.63 H 156.69 v -2.5 h 17.24 z m 5.43,6.22 v -21.86 h 3.46 v 21.86 z m 9.51,0 v -21.86 h 3.54 l 13.71,17.16 v -17.16 h 3.31 v 21.86 h -3.54 l -13.71,-17.18 v 17.18 z m 25.33,-10.65 q 0,-5.44 3.49,-8.51 3.49,-3.09 9.01,-3.09 3.62,0 6.52,1.45 2.9,1.45 4.42,4.04 1.53,2.58 1.53,5.86 0,3.32 -1.6,5.95 -1.6,2.62 -4.54,3.98 -2.94,1.34 -6.34,1.34 -3.69,0 -6.59,-1.49 -2.9,-1.49 -4.4,-4.07 -1.5,-2.58 -1.5,-5.46 z m 3.56,0.04 q 0,3.95 2.53,6.23 2.55,2.27 6.38,2.27 3.9,0 6.41,-2.3 2.53,-2.3 2.53,-6.52 0,-2.67 -1.09,-4.65 -1.07,-2 -3.15,-3.09 -2.07,-1.1 -4.65,-1.1 -3.67,0 -6.32,2.12 -2.64,2.1 -2.64,7.04 z m 25.86,10.6 v -21.86 h 9.85 q 2.6,0 3.97,0.21 1.92,0.27 3.22,1.03 1.3,0.75 2.08,2.1 0.8,1.36 0.8,2.98 0,2.79 -2.12,4.73 -2.12,1.92 -7.66,1.92 h -6.7 v 8.89 z m 3.46,-11.47 h 6.75 q 3.35,0 4.76,-1.04 1.41,-1.04 1.41,-2.94 0,-1.37 -0.84,-2.34 -0.82,-0.98 -2.17,-1.3 -0.87,-0.19 -3.22,-0.19 h -6.68 z m 20.95,11.47 v -21.86 h 18.88 v 2.58 h -15.42 v 6.69 h 14.44 v 2.56 h -14.44 v 7.44 h 16.03 v 2.58 z m 24.31,0 v -21.86 h 11.58 q 3.49,0 5.31,0.6 1.82,0.58 2.9,2.07 1.09,1.49 1.09,3.3 0,2.33 -1.8,3.92 -1.8,1.6 -5.56,2.03 1.37,0.55 2.08,1.09 1.51,1.16 2.87,2.91 l 4.54,5.95 h -4.35 l -3.46,-4.55 q -1.51,-1.97 -2.49,-3.01 -0.98,-1.04 -1.76,-1.46 -0.77,-0.42 -1.57,-0.58 -0.59,-0.1 -1.92,-0.1 h -4.01 v 9.71 z m 3.46,-12.21 h 7.43 q 2.37,0 3.7,-0.4 1.34,-0.42 2.03,-1.31 0.69,-0.91 0.69,-1.97 0,-1.55 -1.35,-2.55 -1.34,-1 -4.24,-1 h -8.26 z m 19.97,12.21 10.03,-21.86 h 3.72 l 10.69,21.86 h -3.94 l -3.05,-6.62 h -10.92 l -2.87,6.62 z m 7.53,-8.98 h 8.85 l -2.73,-6.05 q -1.25,-2.76 -1.85,-4.53 -0.5,2.1 -1.41,4.17 z m 23.6,8.98 v -19.28 h -8.6 v -2.58 h 20.7 v 2.58 h -8.64 v 19.28 z m 16.23,0 v -21.86 h 3.46 v 21.86 z m 17.01,0 -10.12,-21.86 h 3.74 l 6.79,15.88 q 0.82,1.91 1.37,3.58 0.61,-1.79 1.41,-3.58 l 7.05,-15.88 h 3.53 l -10.22,21.86 z m 16.94,0 v -21.86 h 18.88 v 2.58 h -15.42 v 6.69 h 14.44 v 2.56 h -14.44 v 7.44 h 16.03 v 2.58 z m -241.37,-43.05 4.03,-0.35 q 0.29,2.43 1.32,3.99 1.06,1.54 3.26,2.51 2.2,0.95 4.96,0.95 2.45,0 4.32,-0.73 1.87,-0.73 2.78,-1.98 0.93,-1.28 0.93,-2.78 0,-1.52 -0.88,-2.65 -0.88,-1.15 -2.91,-1.92 -1.3,-0.51 -5.75,-1.57 -4.45,-1.08 -6.24,-2.03 -2.32,-1.21 -3.46,-3 -1.12,-1.81 -1.12,-4.03 0,-2.45 1.39,-4.56 1.39,-2.14 4.06,-3.24 2.67,-1.1 5.93,-1.1 3.59,0 6.33,1.17 2.76,1.15 4.23,3.4 1.48,2.25 1.59,5.09 l -4.1,0.31 q -0.33,-3.06 -2.25,-4.63 -1.9,-1.57 -5.62,-1.57 -3.88,0 -5.67,1.43 -1.76,1.41 -1.76,3.42 0,1.74 1.26,2.87 1.23,1.12 6.44,2.32 5.23,1.17 7.17,2.05 2.82,1.3 4.17,3.31 1.34,1.98 1.34,4.59 0,2.58 -1.48,4.87 -1.48,2.27 -4.26,3.55 -2.76,1.26 -6.22,1.26 -4.39,0 -7.36,-1.28 -2.95,-1.28 -4.65,-3.84 -1.68,-2.58 -1.76,-5.82 z m 30.27,-5.36 q 0,-8.05 4.32,-12.59 4.32,-4.56 11.16,-4.56 4.48,0 8.07,2.14 3.59,2.14 5.47,5.98 1.9,3.81 1.9,8.67 0,4.92 -1.98,8.8 -1.98,3.88 -5.62,5.89 -3.64,1.98 -7.85,1.98 -4.56,0 -8.16,-2.2 -3.59,-2.2 -5.45,-6.02 -1.85,-3.81 -1.85,-8.07 z m 4.41,0.07 q 0,5.84 3.13,9.22 3.15,3.35 7.89,3.35 4.83,0 7.94,-3.4 3.13,-3.4 3.13,-9.64 0,-3.95 -1.34,-6.88 -1.32,-2.95 -3.9,-4.56 -2.56,-1.63 -5.75,-1.63 -4.54,0 -7.83,3.13 -3.26,3.11 -3.26,10.41 z m 53.23,-16.65 h 4.28 v 18.68 q 0,4.87 -1.1,7.74 -1.1,2.87 -3.99,4.67 -2.87,1.79 -7.54,1.79 -4.54,0 -7.43,-1.57 -2.89,-1.57 -4.12,-4.52 -1.23,-2.98 -1.23,-8.11 V 273.02 h 4.28 v 18.65 q 0,4.21 0.77,6.22 0.79,1.98 2.69,3.06 1.92,1.08 4.67,1.08 4.72,0 6.72,-2.14 2.01,-2.14 2.01,-8.22 z m 11.47,32.32 V 273.02 h 14.33 q 4.32,0 6.57,0.88 2.25,0.86 3.59,3.06 1.34,2.2 1.34,4.87 0,3.44 -2.23,5.8 -2.23,2.36 -6.88,3 1.7,0.82 2.58,1.61 1.87,1.72 3.55,4.3 l 5.62,8.8 h -5.38 l -4.28,-6.72 q -1.87,-2.91 -3.09,-4.45 -1.21,-1.54 -2.18,-2.16 -0.95,-0.62 -1.94,-0.86 -0.73,-0.15 -2.38,-0.15 h -4.96 v 14.35 z m 4.28,-18.06 h 9.19 q 2.93,0 4.59,-0.6 1.65,-0.62 2.51,-1.94 0.86,-1.34 0.86,-2.91 0,-2.29 -1.68,-3.77 -1.65,-1.48 -5.25,-1.48 h -10.23 z m 51.33,6.72 4.28,1.08 q -1.34,5.27 -4.85,8.05 -3.48,2.76 -8.53,2.76 -5.23,0 -8.51,-2.12 -3.26,-2.14 -4.98,-6.17 -1.7,-4.03 -1.7,-8.67 0,-5.05 1.92,-8.8 1.94,-3.77 5.49,-5.71 3.57,-1.96 7.85,-1.96 4.85,0 8.16,2.47 3.31,2.47 4.61,6.95 l -4.21,0.99 q -1.12,-3.53 -3.26,-5.14 -2.14,-1.61 -5.38,-1.61 -3.73,0 -6.24,1.79 -2.49,1.79 -3.51,4.81 -1.01,3 -1.01,6.2 0,4.12 1.19,7.21 1.21,3.06 3.75,4.59 2.54,1.52 5.49,1.52 3.59,0 6.09,-2.07 2.49,-2.07 3.37,-6.15 z m 9.64,11.33 V 273.02 h 23.37 v 3.81 h -19.09 v 9.9 h 17.88 v 3.79 h -17.88 v 11 h 19.84 v 3.81 z M 55.29,218.89 v -21.86 h 3.46 v 21.86 z m 9.51,0 v -21.86 h 3.54 l 13.71,17.16 v -17.16 h 3.31 v 21.86 H 81.83 L 68.11,201.71 v 17.18 z m 45.01,-7.66 3.46,0.73 q -1.09,3.56 -3.92,5.44 -2.81,1.86 -6.89,1.86 -4.22,0 -6.87,-1.43 -2.64,-1.45 -4.03,-4.17 -1.37,-2.73 -1.37,-5.86 0,-3.41 1.55,-5.95 1.57,-2.55 4.43,-3.86 2.89,-1.33 6.34,-1.33 3.92,0 6.59,1.67 2.67,1.67 3.72,4.7 l -3.4,0.67 q -0.91,-2.39 -2.64,-3.47 -1.73,-1.09 -4.35,-1.09 -3.01,0 -5.04,1.21 -2.01,1.21 -2.83,3.25 -0.82,2.03 -0.82,4.19 0,2.79 0.96,4.88 0.98,2.07 3.03,3.1 2.05,1.03 4.43,1.03 2.9,0 4.92,-1.4 2.01,-1.4 2.73,-4.16 z m 7.82,7.66 v -21.86 h 3.46 v 8.98 h 13.57 v -8.98 h 3.46 v 21.86 h -3.46 v -10.3 h -13.57 v 10.3 z m 26.31,0 v -21.86 h 18.88 v 2.58 H 147.39 v 6.69 h 14.44 v 2.56 H 147.39 v 7.44 h 16.03 v 2.58 z m 23.08,-7.02 3.26,-0.24 q 0.23,1.64 1.07,2.7 0.85,1.04 2.64,1.7 1.78,0.64 4.01,0.64 1.98,0 3.49,-0.49 1.51,-0.49 2.24,-1.34 0.75,-0.86 0.75,-1.88 0,-1.03 -0.71,-1.79 -0.71,-0.78 -2.35,-1.3 -1.05,-0.34 -4.65,-1.06 -3.6,-0.73 -5.04,-1.37 -1.87,-0.82 -2.8,-2.03 -0.91,-1.22 -0.91,-2.73 0,-1.66 1.12,-3.09 1.12,-1.45 3.28,-2.19 2.16,-0.75 4.79,-0.75 2.9,0 5.11,0.79 2.23,0.78 3.42,2.3 1.19,1.52 1.28,3.44 l -3.31,0.21 q -0.27,-2.07 -1.82,-3.13 -1.53,-1.06 -4.54,-1.06 -3.13,0 -4.58,0.97 -1.42,0.95 -1.42,2.31 0,1.18 1.02,1.94 1,0.76 5.2,1.57 4.22,0.79 5.79,1.39 2.28,0.88 3.37,2.24 1.09,1.34 1.09,3.1 0,1.74 -1.19,3.3 -1.19,1.54 -3.44,2.4 -2.23,0.85 -5.02,0.85 -3.54,0 -5.95,-0.86 -2.39,-0.86 -3.76,-2.59 -1.35,-1.74 -1.42,-3.94 z m 34.59,-3.62 q 0,-5.44 3.49,-8.51 3.49,-3.09 9.01,-3.09 3.62,0 6.52,1.45 2.9,1.45 4.42,4.04 1.53,2.58 1.53,5.86 0,3.32 -1.6,5.95 -1.6,2.62 -4.54,3.98 -2.94,1.34 -6.34,1.34 -3.69,0 -6.59,-1.49 -2.9,-1.49 -4.4,-4.07 -1.5,-2.58 -1.5,-5.46 z m 3.56,0.04 q 0,3.95 2.53,6.23 2.55,2.27 6.38,2.27 3.9,0 6.41,-2.3 2.53,-2.3 2.53,-6.52 0,-2.67 -1.09,-4.65 -1.07,-2 -3.15,-3.09 -2.07,-1.1 -4.65,-1.1 -3.67,0 -6.32,2.12 -2.64,2.1 -2.64,7.04 z m 26.04,10.6 v -21.86 h 17.61 v 2.58 h -14.16 v 6.77 h 12.25 v 2.58 h -12.25 v 9.93 z m 32.13,0 v -21.86 h 5.2 l 6.18,15.48 q 0.85,2.16 1.25,3.24 0.45,-1.19 1.39,-3.5 l 6.25,-15.21 h 4.65 v 21.86 h -3.33 v -18.29 l -7.59,18.29 h -3.12 l -7.55,-18.61 v 18.61 z m 30.56,0 v -21.86 h 18.88 v 2.58 h -15.42 v 6.69 h 14.44 v 2.56 h -14.44 v 7.44 h 16.03 v 2.58 z m 24.31,0 v -21.86 h 11.58 q 3.49,0 5.31,0.6 1.82,0.58 2.9,2.07 1.09,1.49 1.09,3.3 0,2.33 -1.8,3.92 -1.8,1.6 -5.56,2.03 1.37,0.55 2.08,1.09 1.51,1.16 2.87,2.91 l 4.54,5.95 h -4.35 l -3.46,-4.55 q -1.51,-1.97 -2.49,-3.01 -0.98,-1.04 -1.76,-1.46 -0.77,-0.42 -1.57,-0.58 -0.59,-0.1 -1.92,-0.1 h -4.01 v 9.71 z m 3.46,-12.21 h 7.43 q 2.37,0 3.7,-0.4 1.34,-0.42 2.03,-1.31 0.69,-0.91 0.69,-1.97 0,-1.55 -1.35,-2.55 -1.34,-1 -4.24,-1 h -8.26 z m 41.46,4.55 3.46,0.73 q -1.09,3.56 -3.92,5.44 -2.81,1.86 -6.89,1.86 -4.22,0 -6.87,-1.43 -2.64,-1.45 -4.03,-4.17 -1.37,-2.73 -1.37,-5.86 0,-3.41 1.55,-5.95 1.57,-2.55 4.43,-3.86 2.89,-1.33 6.34,-1.33 3.92,0 6.59,1.67 2.67,1.67 3.72,4.7 l -3.4,0.67 q -0.91,-2.39 -2.64,-3.47 -1.73,-1.09 -4.35,-1.09 -3.01,0 -5.04,1.21 -2.01,1.21 -2.83,3.25 -0.82,2.03 -0.82,4.19 0,2.79 0.96,4.88 0.98,2.07 3.03,3.1 2.05,1.03 4.43,1.03 2.9,0 4.92,-1.4 2.01,-1.4 2.73,-4.16 z m 24.85,-14.19 h 3.46 v 12.63 q 0,3.3 -0.89,5.23 -0.89,1.94 -3.22,3.16 -2.32,1.21 -6.09,1.21 -3.67,0 -6,-1.06 -2.33,-1.06 -3.33,-3.06 -1,-2.01 -1,-5.49 v -12.63 h 3.46 v 12.61 q 0,2.85 0.62,4.2 0.64,1.34 2.17,2.07 1.55,0.73 3.78,0.73 3.81,0 5.43,-1.45 1.62,-1.45 1.62,-5.56 z m 9.26,21.86 v -21.86 h 11.58 q 3.49,0 5.31,0.6 1.82,0.58 2.9,2.07 1.09,1.49 1.09,3.3 0,2.33 -1.8,3.92 -1.8,1.6 -5.56,2.03 1.37,0.55 2.08,1.09 1.51,1.16 2.87,2.91 l 4.54,5.95 h -4.35 l -3.46,-4.55 q -1.51,-1.97 -2.49,-3.01 -0.98,-1.04 -1.76,-1.46 -0.77,-0.42 -1.57,-0.58 -0.59,-0.1 -1.92,-0.1 h -4.01 v 9.71 z m 3.46,-12.21 h 7.43 q 2.37,0 3.7,-0.4 1.34,-0.42 2.03,-1.31 0.69,-0.91 0.69,-1.97 0,-1.55 -1.35,-2.55 -1.34,-1 -4.24,-1 h -8.26 z m 29.53,12.21 v -9.26 l -10.06,-12.6 h 4.2 l 5.15,6.59 q 1.42,1.85 2.65,3.7 1.18,-1.71 2.85,-3.86 l 5.06,-6.43 h 4.03 l -10.42,12.6 v 9.26 z M 71.69,171.14 v -3.79 l 13.69,-0.02 v 11.99 q -3.15,2.51 -6.5,3.79 -3.35,1.26 -6.88,1.26 -4.76,0 -8.67,-2.03 -3.88,-2.05 -5.86,-5.91 -1.98,-3.86 -1.98,-8.62 0,-4.72 1.96,-8.8 1.98,-4.1 5.69,-6.09 3.7,-1.98 8.53,-1.98 3.51,0 6.33,1.15 2.84,1.12 4.45,3.15 1.61,2.03 2.45,5.29 l -3.86,1.06 q -0.73,-2.47 -1.81,-3.88 -1.08,-1.41 -3.09,-2.25 -2.01,-0.86 -4.45,-0.86 -2.93,0 -5.07,0.9 -2.14,0.88 -3.46,2.34 -1.3,1.46 -2.03,3.2 -1.23,3 -1.23,6.5 0,4.32 1.48,7.23 1.5,2.91 4.34,4.32 2.84,1.41 6.04,1.41 2.78,0 5.42,-1.06 2.65,-1.08 4.01,-2.29 v -6.02 z m 29.1,12.68 V 170.12 L 88.34,151.49 h 5.2 l 6.37,9.75 q 1.76,2.73 3.29,5.47 1.46,-2.54 3.53,-5.71 l 6.26,-9.5 h 4.98 l -12.9,18.63 v 13.69 z m 21.08,0 v -32.32 h 14.33 q 4.32,0 6.57,0.88 2.25,0.86 3.59,3.06 1.34,2.2 1.34,4.87 0,3.44 -2.23,5.8 -2.23,2.36 -6.88,3 1.7,0.82 2.58,1.61 1.87,1.72 3.55,4.3 l 5.62,8.8 h -5.38 l -4.28,-6.72 q -1.87,-2.91 -3.09,-4.45 -1.21,-1.54 -2.18,-2.16 -0.95,-0.62 -1.94,-0.86 -0.73,-0.15 -2.38,-0.15 h -4.96 v 14.35 z m 4.28,-18.06 h 9.19 q 2.93,0 4.59,-0.6 1.65,-0.62 2.51,-1.94 0.86,-1.34 0.86,-2.91 0,-2.29 -1.68,-3.77 -1.65,-1.48 -5.25,-1.48 h -10.23 z m 26.97,2.32 q 0,-8.05 4.32,-12.59 4.32,-4.56 11.16,-4.56 4.48,0 8.07,2.14 3.59,2.14 5.47,5.98 1.9,3.81 1.9,8.67 0,4.92 -1.98,8.8 -1.98,3.88 -5.62,5.89 -3.64,1.98 -7.85,1.98 -4.56,0 -8.16,-2.2 -3.59,-2.2 -5.45,-6.02 -1.85,-3.81 -1.85,-8.07 z m 4.41,0.07 q 0,5.84 3.13,9.22 3.15,3.35 7.89,3.35 4.83,0 7.94,-3.4 3.13,-3.4 3.13,-9.64 0,-3.95 -1.34,-6.88 -1.32,-2.95 -3.9,-4.56 -2.56,-1.63 -5.75,-1.63 -4.54,0 -7.83,3.13 -3.26,3.11 -3.26,10.41 z m 44.56,15.68 v -32.32 h 12.19 q 3.22,0 4.92,0.31 2.38,0.4 3.99,1.52 1.61,1.1 2.58,3.11 0.99,2.01 0.99,4.41 0,4.12 -2.62,6.99 -2.62,2.84 -9.48,2.84 h -8.29 v 13.14 z m 4.28,-16.96 h 8.36 q 4.15,0 5.89,-1.54 1.74,-1.54 1.74,-4.34 0,-2.03 -1.04,-3.46 -1.01,-1.46 -2.69,-1.92 -1.08,-0.29 -3.99,-0.29 h -8.27 z m 25.91,16.96 v -32.32 h 14.33 q 4.32,0 6.57,0.88 2.25,0.86 3.59,3.06 1.34,2.2 1.34,4.87 0,3.44 -2.23,5.8 -2.23,2.36 -6.88,3 1.7,0.82 2.58,1.61 1.87,1.72 3.55,4.3 l 5.62,8.8 h -5.38 l -4.28,-6.72 q -1.87,-2.91 -3.09,-4.45 -1.21,-1.54 -2.18,-2.16 -0.95,-0.62 -1.94,-0.86 -0.73,-0.15 -2.38,-0.15 h -4.96 v 14.35 z m 4.28,-18.06 h 9.19 q 2.93,0 4.59,-0.6 1.65,-0.62 2.51,-1.94 0.86,-1.34 0.86,-2.91 0,-2.29 -1.68,-3.77 -1.65,-1.48 -5.25,-1.48 h -10.23 z m 28.35,18.06 v -32.32 h 23.37 v 3.81 h -19.09 v 9.9 h 17.88 v 3.79 h -17.88 v 11 h 19.84 v 3.81 z m 28.57,-10.38 4.03,-0.35 q 0.29,2.43 1.32,3.99 1.06,1.54 3.26,2.51 2.2,0.95 4.96,0.95 2.45,0 4.32,-0.73 1.87,-0.73 2.78,-1.98 0.93,-1.28 0.93,-2.78 0,-1.52 -0.88,-2.65 -0.88,-1.15 -2.91,-1.92 -1.3,-0.51 -5.75,-1.57 -4.45,-1.08 -6.24,-2.03 -2.32,-1.21 -3.46,-3 -1.12,-1.81 -1.12,-4.03 0,-2.45 1.39,-4.56 1.39,-2.14 4.06,-3.24 2.67,-1.1 5.93,-1.1 3.59,0 6.33,1.17 2.76,1.15 4.23,3.4 1.48,2.25 1.59,5.09 l -4.1,0.31 q -0.33,-3.06 -2.25,-4.63 -1.9,-1.57 -5.62,-1.57 -3.88,0 -5.67,1.43 -1.76,1.41 -1.76,3.42 0,1.74 1.26,2.87 1.23,1.12 6.44,2.32 5.23,1.17 7.17,2.05 2.82,1.3 4.17,3.31 1.34,1.98 1.34,4.59 0,2.58 -1.48,4.87 -1.48,2.27 -4.26,3.55 -2.76,1.26 -6.22,1.26 -4.39,0 -7.36,-1.28 -2.95,-1.28 -4.65,-3.84 -1.68,-2.58 -1.76,-5.82 z m 30.12,0 4.03,-0.35 q 0.29,2.43 1.32,3.99 1.06,1.54 3.26,2.51 2.2,0.95 4.96,0.95 2.45,0 4.32,-0.73 1.87,-0.73 2.78,-1.98 0.93,-1.28 0.93,-2.78 0,-1.52 -0.88,-2.65 -0.88,-1.15 -2.91,-1.92 -1.3,-0.51 -5.75,-1.57 -4.45,-1.08 -6.24,-2.03 -2.32,-1.21 -3.46,-3 -1.12,-1.81 -1.12,-4.03 0,-2.45 1.39,-4.56 1.39,-2.14 4.06,-3.24 2.67,-1.1 5.93,-1.1 3.59,0 6.33,1.17 2.76,1.15 4.23,3.4 1.48,2.25 1.59,5.09 l -4.1,0.31 q -0.33,-3.06 -2.25,-4.63 -1.9,-1.57 -5.62,-1.57 -3.88,0 -5.67,1.43 -1.76,1.41 -1.76,3.42 0,1.74 1.26,2.87 1.23,1.12 6.44,2.32 5.23,1.17 7.17,2.05 2.82,1.3 4.17,3.31 1.34,1.98 1.34,4.59 0,2.58 -1.48,4.87 -1.48,2.27 -4.26,3.55 -2.76,1.26 -6.22,1.26 -4.39,0 -7.36,-1.28 -2.95,-1.28 -4.65,-3.84 -1.68,-2.58 -1.76,-5.82 z m 52.78,-21.94 h 4.28 v 18.68 q 0,4.87 -1.1,7.74 -1.1,2.87 -3.99,4.67 -2.87,1.79 -7.54,1.79 -4.54,0 -7.43,-1.57 -2.89,-1.57 -4.12,-4.52 -1.23,-2.98 -1.23,-8.11 v -18.68 h 4.28 v 18.65 q 0,4.21 0.77,6.22 0.79,1.98 2.69,3.06 1.92,1.08 4.67,1.08 4.72,0 6.72,-2.14 2.01,-2.14 2.01,-8.22 z m 11.47,32.32 v -32.32 h 14.33 q 4.32,0 6.57,0.88 2.25,0.86 3.59,3.06 1.34,2.2 1.34,4.87 0,3.44 -2.23,5.8 -2.23,2.36 -6.88,3 1.7,0.82 2.58,1.61 1.87,1.72 3.55,4.3 l 5.62,8.8 h -5.38 l -4.28,-6.72 q -1.87,-2.91 -3.09,-4.45 -1.21,-1.54 -2.18,-2.16 -0.95,-0.62 -1.94,-0.86 -0.73,-0.15 -2.38,-0.15 h -4.96 v 14.35 z m 4.28,-18.06 h 9.19 q 2.93,0 4.59,-0.6 1.65,-0.62 2.51,-1.94 0.86,-1.34 0.86,-2.91 0,-2.29 -1.68,-3.77 -1.65,-1.48 -5.25,-1.48 h -10.23 z m 28.35,18.06 v -32.32 h 23.37 v 3.81 H 424.75 v 9.9 h 17.88 v 3.79 H 424.75 v 11 h 19.84 v 3.81 z M 0,253.88 V 246.07 H 500.05 v 7.81 z M 94.72,54.03 l 6.2,-4.76 28.54,37.18 -6.2,4.76 z m 56.02,-33.51 7.22,-2.99 17.94,43.3 -7.22,2.99 z m 248.4,28.76 6.2,4.76 -28.54,37.18 -6.2,-4.76 z m -57.04,-31.75 7.22,2.99 -17.94,43.3 -7.22,-2.99 z M 278.79,1.63 l 7.75,1.02 -6.12,46.47 -7.75,-1.02 z m -65.27,1.02 7.75,-1.02 6.12,46.47 -7.75,1.02 z m 210.54,67.81 5.52,5.52 -44.2,44.19 -5.52,-5.52 z m -52.4,-38.92 6.77,3.91 -31.25,54.12 -6.77,-3.91 z m -60.69,-24.03 7.55,2.02 -16.18,60.36 -7.55,-2.02 z M 70.47,75.98 l 5.52,-5.52 44.2,44.19 -5.52,5.52 z m 51.16,-40.53 6.77,-3.91 31.25,54.12 -6.77,3.91 z m 59.91,-25.91 7.55,-2.02 16.18,60.36 -7.55,2.02 z M 246.12,0 h 7.81 V 62.49 h -7.81 z"
       />
</svg>
