<svg
   width="500"
   height="500"
   viewBox="0 0 500 500"
   version="1.1"
   xmlns="http://www.w3.org/2000/svg"
   xmlns:svg="http://www.w3.org/2000/svg">
  <path style="fill:#0e0e0e;stroke-width:1;"
         d="m 305,250 a 55,55 0 0 1 -55,55 55,55 0 0 1 -55,-55 55,55 0 0 1 55,-55 55,55 0 0 1 55,55 z M 166.2406,365.28492 A 142.5,142.5 0 0 1 114.47445,205.96507 142.5,142.5 0 0 1 250,107.5 142.5,142.5 0 0 1 385.52555,205.96508 142.5,142.5 0 0 1 333.7594,365.28492 L 250,250 Z" />
  <path style="fill:#ffffff;"
         d="m 135.71,265.63 q -0.33,0 -0.55,0 -0.22,0 -0.38,0.01 -0.15,0.01 -0.27,0.02 -0.13,0.01 -0.27,0.02 0.06,-0.52 0.11,-0.87 0.07,-0.35 0.18,-0.68 0.46,-1.3 1.56,-2.37 0.15,-0.14 0.3,-0.27 0.16,-0.13 0.37,-0.29 0.21,-0.17 0.49,-0.39 0.3,-0.22 0.73,-0.52 0.39,-0.29 0.65,-0.51 0.27,-0.23 0.42,-0.43 0.16,-0.21 0.23,-0.4 0.07,-0.21 0.07,-0.43 0,-0.62 -0.42,-0.97 -0.42,-0.36 -1.15,-0.36 -1.02,0 -1.45,0.71 -0.15,0.22 -0.23,0.46 -0.07,0.23 -0.13,0.65 l -1.63,-0.21 q 0.11,-0.69 0.29,-1.11 0.18,-0.43 0.5,-0.82 0.88,-1.08 2.61,-1.08 0.75,0 1.35,0.19 0.59,0.18 1.02,0.53 0.42,0.34 0.64,0.83 0.23,0.5 0.23,1.11 0,0.6 -0.19,1.06 -0.19,0.45 -0.62,0.87 -0.13,0.12 -0.23,0.22 -0.1,0.1 -0.3,0.24 -0.18,0.14 -0.51,0.39 -0.32,0.24 -0.88,0.64 -0.38,0.28 -0.76,0.63 -0.38,0.34 -0.59,0.58 -0.26,0.29 -0.4,0.52 -0.13,0.22 -0.25,0.57 h 3.19 q 0.55,0 0.96,-0.02 0.42,-0.02 0.71,-0.07 v 1.59 q -0.4,-0.04 -0.79,-0.06 -0.39,-0.01 -0.94,-0.01 z m 10.09,0.19 q -1.47,0 -2.4,-0.98 -0.52,-0.56 -0.75,-1.22 -0.44,-1.28 -0.44,-2.78 0,-0.48 0.05,-0.95 0.06,-0.48 0.15,-0.92 0.09,-0.45 0.22,-0.82 0.13,-0.37 0.29,-0.65 0.47,-0.82 1.21,-1.24 0.74,-0.43 1.7,-0.43 1.48,0 2.41,0.98 0.52,0.56 0.75,1.22 0.23,0.64 0.33,1.35 0.11,0.7 0.11,1.45 0,1.12 -0.23,2.05 -0.22,0.93 -0.62,1.52 -0.97,1.43 -2.77,1.43 z m 0.01,-1.4 q 0.38,0 0.7,-0.13 0.32,-0.13 0.54,-0.37 0.39,-0.42 0.59,-1.23 0.21,-0.81 0.21,-1.87 0,-1.06 -0.21,-1.85 -0.21,-0.8 -0.59,-1.24 -0.21,-0.24 -0.54,-0.37 -0.32,-0.13 -0.71,-0.13 -0.8,0 -1.28,0.62 -0.75,0.94 -0.75,2.94 0,0.95 0.15,1.7 0.16,0.75 0.43,1.17 0.52,0.79 1.46,0.79 z m 8.11,1.4 q -1.47,0 -2.4,-0.98 -0.52,-0.56 -0.75,-1.22 -0.45,-1.28 -0.45,-2.78 0,-0.48 0.05,-0.95 0.06,-0.48 0.15,-0.92 0.09,-0.45 0.22,-0.82 0.13,-0.37 0.29,-0.65 0.47,-0.82 1.21,-1.24 0.74,-0.43 1.7,-0.43 1.48,0 2.41,0.98 0.52,0.56 0.75,1.22 0.23,0.64 0.33,1.35 0.11,0.7 0.11,1.45 0,1.12 -0.23,2.05 -0.22,0.93 -0.62,1.52 -0.97,1.43 -2.77,1.43 z m 0.01,-1.4 q 0.38,0 0.7,-0.13 0.32,-0.13 0.54,-0.37 0.39,-0.42 0.59,-1.23 0.21,-0.81 0.21,-1.87 0,-1.06 -0.21,-1.85 -0.21,-0.8 -0.59,-1.24 -0.21,-0.24 -0.54,-0.37 -0.32,-0.13 -0.71,-0.13 -0.8,0 -1.28,0.62 -0.75,0.94 -0.75,2.94 0,0.95 0.15,1.7 0.16,0.75 0.43,1.17 0.52,0.79 1.46,0.79 z m 8.11,1.4 q -1.47,0 -2.4,-0.98 -0.52,-0.56 -0.75,-1.22 -0.45,-1.28 -0.45,-2.78 0,-0.48 0.05,-0.95 0.06,-0.48 0.15,-0.92 0.09,-0.45 0.22,-0.82 0.13,-0.37 0.29,-0.65 0.47,-0.82 1.21,-1.24 0.74,-0.43 1.7,-0.43 1.48,0 2.41,0.98 0.52,0.56 0.75,1.22 0.23,0.64 0.33,1.35 0.11,0.7 0.11,1.45 0,1.12 -0.23,2.05 -0.22,0.93 -0.62,1.52 -0.97,1.43 -2.77,1.43 z m 0.01,-1.4 q 0.38,0 0.7,-0.13 0.32,-0.13 0.54,-0.37 0.39,-0.42 0.59,-1.23 0.21,-0.81 0.21,-1.87 0,-1.06 -0.21,-1.85 -0.21,-0.8 -0.59,-1.24 -0.21,-0.24 -0.54,-0.37 -0.32,-0.13 -0.71,-0.13 -0.8,0 -1.28,0.62 -0.75,0.94 -0.75,2.94 0,0.95 0.15,1.7 0.16,0.75 0.43,1.17 0.52,0.79 1.46,0.79 z m 8.11,1.4 q -1.47,0 -2.4,-0.98 -0.52,-0.56 -0.75,-1.22 -0.45,-1.28 -0.45,-2.78 0,-0.48 0.05,-0.95 0.06,-0.48 0.15,-0.92 0.09,-0.45 0.22,-0.82 0.13,-0.37 0.29,-0.65 0.47,-0.82 1.21,-1.24 0.74,-0.43 1.7,-0.43 1.48,0 2.41,0.98 0.52,0.56 0.75,1.22 0.23,0.64 0.33,1.35 0.11,0.7 0.11,1.45 0,1.12 -0.23,2.05 -0.22,0.93 -0.62,1.52 -0.97,1.43 -2.77,1.43 z m 0.01,-1.4 q 0.38,0 0.7,-0.13 0.32,-0.13 0.54,-0.37 0.39,-0.42 0.59,-1.23 0.21,-0.81 0.21,-1.87 0,-1.06 -0.21,-1.85 -0.21,-0.8 -0.59,-1.24 -0.21,-0.24 -0.54,-0.37 -0.32,-0.13 -0.71,-0.13 -0.8,0 -1.28,0.62 -0.75,0.94 -0.75,2.94 0,0.95 0.15,1.7 0.16,0.75 0.43,1.17 0.52,0.79 1.46,0.79 z m 10.28,-0.53 q 0,0.64 0.01,1.03 0.02,0.37 0.08,0.71 h -1.7 q 0.06,-0.31 0.07,-0.71 0.02,-0.4 0.02,-1 v -6.37 q 0,-0.25 -0.01,-0.45 0,-0.19 -0.01,-0.37 -0.01,-0.18 -0.03,-0.36 -0.01,-0.18 -0.03,-0.39 0.17,0.01 0.32,0.02 0.16,0 0.32,0.01 0.16,0 0.35,0 0.19,0 0.46,0 h 3.19 q 0.27,0 0.48,0 0.22,-0.01 0.39,-0.01 0.18,-0.01 0.34,-0.02 0.17,-0.02 0.35,-0.05 v 1.63 q -0.31,-0.05 -0.66,-0.06 -0.35,-0.02 -0.9,-0.02 h -3.04 v 2.56 h 2.44 q 0.54,0 0.88,-0.01 0.34,-0.02 0.67,-0.07 v 1.61 q -0.32,-0.05 -0.67,-0.06 -0.35,-0.02 -0.88,-0.02 h -2.44 z m 12.22,1.82 q -0.31,-0.05 -0.63,-0.07 -0.32,-0.01 -0.84,-0.01 h -3.56 q -0.26,0 -0.46,0 -0.19,0 -0.35,0 -0.16,0.01 -0.32,0.01 -0.15,0.01 -0.32,0.02 0.05,-0.36 0.07,-0.71 0.02,-0.35 0.02,-0.88 v -6.53 q 0,-0.47 -0.02,-0.8 -0.01,-0.34 -0.07,-0.76 0.17,0.01 0.32,0.02 0.15,0 0.31,0.01 0.17,0 0.37,0 0.19,0 0.46,0 h 3.45 q 0.43,0 0.75,-0.01 0.32,-0.02 0.72,-0.07 v 1.59 q -0.16,-0.02 -0.32,-0.04 -0.16,-0.02 -0.33,-0.02 -0.17,-0.01 -0.38,-0.01 -0.19,-0.01 -0.45,-0.01 h -3.29 v 2.49 h 2.77 q 0.45,0 0.78,-0.01 0.33,-0.02 0.71,-0.07 v 1.58 q -0.17,-0.02 -0.33,-0.04 -0.15,-0.02 -0.32,-0.02 -0.17,-0.01 -0.38,-0.01 -0.19,-0.01 -0.46,-0.01 h -2.78 v 2.85 h 3.42 q 0.48,0 0.79,-0.01 0.31,-0.02 0.67,-0.07 z m 7.82,0 q -0.31,-0.05 -0.63,-0.07 -0.32,-0.01 -0.84,-0.01 h -3.56 q -0.26,0 -0.46,0 -0.19,0 -0.35,0 -0.16,0.01 -0.32,0.01 -0.15,0.01 -0.32,0.02 0.05,-0.36 0.07,-0.71 0.02,-0.35 0.02,-0.88 v -6.53 q 0,-0.47 -0.02,-0.8 -0.01,-0.34 -0.07,-0.76 0.17,0.01 0.32,0.02 0.15,0 0.31,0.01 0.17,0 0.37,0 0.19,0 0.46,0 h 3.45 q 0.43,0 0.75,-0.01 0.32,-0.02 0.72,-0.07 v 1.59 q -0.16,-0.02 -0.32,-0.04 -0.16,-0.02 -0.33,-0.02 -0.17,-0.01 -0.38,-0.01 -0.19,-0.01 -0.45,-0.01 h -3.29 v 2.49 h 2.77 q 0.44,0 0.78,-0.01 0.33,-0.02 0.71,-0.07 v 1.58 q -0.17,-0.02 -0.33,-0.04 -0.15,-0.02 -0.32,-0.02 -0.17,-0.01 -0.38,-0.01 -0.19,-0.01 -0.46,-0.01 h -2.78 v 2.85 h 3.42 q 0.48,0 0.79,-0.01 0.31,-0.02 0.67,-0.07 z m 5.34,-1.65 q 0,0.5 0.01,0.85 0.02,0.35 0.08,0.72 h -1.72 q 0.06,-0.39 0.07,-0.72 0.02,-0.35 0.02,-0.85 v -6.59 h -1.54 q -0.51,0 -0.89,0.02 -0.38,0.01 -0.67,0.06 v -1.62 q 0.31,0.05 0.68,0.07 0.38,0.01 0.87,0.01 h 4.52 q 0.31,0 0.55,0 0.24,-0.01 0.43,-0.01 0.19,-0.01 0.37,-0.02 0.17,-0.02 0.33,-0.05 v 1.62 q -0.32,-0.05 -0.7,-0.06 -0.37,-0.02 -0.98,-0.02 h -1.43 z m -38.48,-15.1 q 0,0.5 0.01,0.85 0.02,0.35 0.08,0.72 h -1.72 q 0.06,-0.39 0.07,-0.72 0.02,-0.35 0.02,-0.85 v -6.59 h -1.54 q -0.51,0 -0.89,0.02 -0.38,0.01 -0.67,0.06 v -1.62 q 0.31,0.05 0.68,0.07 0.38,0.01 0.87,0.01 h 4.52 q 0.31,0 0.55,0 0.24,-0.01 0.43,-0.01 0.19,-0.01 0.37,-0.02 0.17,-0.02 0.33,-0.05 v 1.62 q -0.32,-0.05 -0.7,-0.06 -0.37,-0.02 -0.98,-0.02 h -1.43 z m 8.03,-8.24 q 1.86,0 3,1.21 0.63,0.66 0.95,1.63 0.33,0.95 0.33,2.14 0,1.15 -0.31,2.08 -0.3,0.93 -0.86,1.59 -0.56,0.65 -1.35,1.01 -0.79,0.35 -1.76,0.35 -0.97,0 -1.76,-0.35 -0.79,-0.36 -1.35,-1.01 -0.55,-0.66 -0.86,-1.59 -0.3,-0.93 -0.3,-2.08 0,-1.17 0.33,-2.14 0.33,-0.98 0.97,-1.63 0.59,-0.62 1.31,-0.91 0.72,-0.3 1.63,-0.3 z m 0.03,8.58 q 0.62,0 1.11,-0.24 0.49,-0.25 0.83,-0.72 0.34,-0.47 0.52,-1.14 0.18,-0.66 0.18,-1.5 0,-0.92 -0.24,-1.63 -0.23,-0.72 -0.66,-1.18 -0.72,-0.74 -1.76,-0.74 -0.62,0 -1.12,0.25 -0.49,0.24 -0.84,0.71 -0.34,0.46 -0.54,1.12 -0.18,0.65 -0.18,1.47 0,0.91 0.24,1.64 0.24,0.74 0.68,1.21 0.72,0.74 1.77,0.74 z M 140.2,232.5 q -0.16,0.65 -0.33,1.06 -0.17,0.4 -0.43,0.75 -0.49,0.64 -1.29,0.98 -0.79,0.34 -1.83,0.34 -1.87,0 -2.93,-1.16 -0.6,-0.66 -0.92,-1.64 -0.32,-0.98 -0.32,-2.15 0,-1.21 0.34,-2.21 0.34,-1 0.99,-1.69 0.51,-0.56 1.26,-0.85 0.74,-0.3 1.6,-0.3 0.67,0 1.19,0.14 0.52,0.13 1,0.43 0.78,0.51 1.21,1.32 0.1,0.19 0.17,0.39 0.08,0.19 0.18,0.54 l -1.59,0.39 q -0.13,-0.4 -0.23,-0.62 -0.09,-0.22 -0.26,-0.42 -0.58,-0.75 -1.67,-0.75 -0.6,0 -1.1,0.24 -0.48,0.24 -0.82,0.71 -0.33,0.46 -0.51,1.12 -0.17,0.65 -0.17,1.49 0,0.83 0.18,1.5 0.18,0.66 0.51,1.14 0.34,0.46 0.82,0.71 0.48,0.24 1.08,0.24 0.6,0 1.08,-0.23 0.49,-0.24 0.76,-0.66 0.15,-0.23 0.23,-0.46 0.08,-0.23 0.15,-0.65 z m 7.7,2.94 q -0.06,-0.3 -0.15,-0.65 -0.08,-0.35 -0.17,-0.62 l -0.46,-1.32 h -3.65 l -0.46,1.32 q -0.08,0.22 -0.14,0.37 -0.05,0.16 -0.08,0.29 -0.03,0.13 -0.07,0.28 -0.02,0.13 -0.06,0.33 h -1.87 q 0.13,-0.24 0.29,-0.62 0.16,-0.39 0.32,-0.81 l 2.51,-6.97 q 0.16,-0.46 0.24,-0.71 0.08,-0.27 0.13,-0.51 h 1.99 q 0.02,0.11 0.05,0.22 0.02,0.1 0.07,0.23 0.05,0.13 0.1,0.31 0.07,0.18 0.17,0.46 l 2.53,6.97 q 0.22,0.58 0.33,0.89 0.13,0.3 0.25,0.53 z m -2.41,-7.55 q -0.03,-0.1 -0.08,-0.23 -0.03,-0.14 -0.13,-0.45 -0.07,0.22 -0.11,0.34 -0.03,0.11 -0.06,0.18 -0.01,0.06 -0.02,0.1 -0.01,0.02 -0.02,0.06 l -1.19,3.58 h 2.83 z m 11.66,7.63 q -0.31,-0.05 -0.66,-0.07 -0.35,-0.01 -0.96,-0.01 h -3.38 q -0.48,0 -0.81,0 -0.33,0.01 -0.64,0.04 0.06,-0.34 0.07,-0.7 0.02,-0.36 0.02,-0.89 v -6.27 q 0,-0.31 -0.01,-0.56 0,-0.24 -0.01,-0.45 -0.01,-0.22 -0.03,-0.4 -0.01,-0.19 -0.03,-0.39 h 1.72 q -0.02,0.18 -0.05,0.36 -0.01,0.18 -0.02,0.39 -0.01,0.19 -0.02,0.45 0,0.25 0,0.58 v 6.38 h 3.19 q 0.29,0 0.5,0 0.23,-0.01 0.41,-0.01 0.19,-0.01 0.35,-0.02 0.17,-0.02 0.35,-0.05 z m 2.62,-9.7 q -0.02,0.17 -0.05,0.34 -0.01,0.16 -0.02,0.34 -0.01,0.18 -0.02,0.4 0,0.22 0,0.48 v 6.5 q 0,0.53 0.01,0.88 0.02,0.34 0.08,0.68 h -1.73 q 0.05,-0.34 0.07,-0.68 0.02,-0.35 0.02,-0.88 v -6.5 q 0,-0.28 -0.01,-0.48 0,-0.22 -0.01,-0.39 -0.01,-0.18 -0.03,-0.34 -0.01,-0.17 -0.03,-0.35 z m 3.07,9.61 q -0.25,0 -0.45,0 -0.19,0 -0.37,0 -0.16,0.01 -0.32,0.01 -0.16,0.01 -0.33,0.02 0.03,-0.19 0.05,-0.36 0.02,-0.17 0.03,-0.35 0.01,-0.19 0.01,-0.41 0.01,-0.22 0.01,-0.51 v -6.56 q 0,-0.42 -0.02,-0.76 -0.02,-0.35 -0.07,-0.72 0.18,0.01 0.32,0.02 0.14,0 0.29,0 0.16,0 0.34,0 0.19,0 0.49,0 h 2.69 q 1.33,0 2.04,0.62 0.72,0.6 0.72,1.74 0,1.07 -0.64,1.7 -0.19,0.19 -0.39,0.3 -0.18,0.1 -0.51,0.21 0.43,0.1 0.67,0.22 0.25,0.11 0.48,0.34 0.71,0.69 0.71,1.85 0,1.28 -0.76,1.97 -0.76,0.68 -2.19,0.68 z m 2.52,-5.68 q 0.65,0 1.02,-0.35 0.37,-0.35 0.37,-0.97 0,-0.6 -0.3,-0.89 -0.39,-0.37 -1.1,-0.37 h -2.36 v 2.58 z m -2.37,4.31 h 2.45 q 0.76,0 1.18,-0.39 0.41,-0.39 0.41,-1.12 0,-0.7 -0.37,-1.05 -0.45,-0.41 -1.24,-0.41 h -2.43 z m 12.79,1.36 q -0.02,-0.22 -0.17,-0.69 -0.14,-0.47 -0.42,-1.24 -0.23,-0.63 -0.43,-1.03 -0.21,-0.41 -0.42,-0.65 -0.21,-0.24 -0.46,-0.34 -0.25,-0.1 -0.58,-0.1 h -1.7 v 2.46 q 0,0.54 0.01,0.89 0.02,0.34 0.08,0.69 h -1.7 q 0.02,-0.19 0.03,-0.35 0.02,-0.17 0.03,-0.35 0.01,-0.18 0.01,-0.39 0.01,-0.21 0.01,-0.48 v -6.51 q 0,-0.24 -0.01,-0.43 0,-0.19 -0.01,-0.37 -0.01,-0.18 -0.03,-0.36 -0.01,-0.18 -0.03,-0.4 0.35,0.02 0.67,0.04 0.32,0 0.79,0 h 2.74 q 1.31,0 2.02,0.65 0.71,0.65 0.71,1.86 0,1.17 -0.58,1.8 -0.24,0.27 -0.51,0.41 -0.26,0.14 -0.75,0.29 0.27,0.1 0.47,0.24 0.19,0.14 0.41,0.5 0.22,0.35 0.49,0.98 0.27,0.63 0.7,1.69 0.03,0.08 0.09,0.24 0.07,0.14 0.15,0.31 0.08,0.17 0.16,0.35 0.08,0.17 0.14,0.29 z M 173.89,230 q 0.32,0 0.6,-0.11 0.29,-0.12 0.48,-0.33 0.37,-0.39 0.37,-1.06 0,-1.32 -1.4,-1.32 h -2.34 v 2.81 z m 11.33,5.42 q -0.06,-0.3 -0.15,-0.65 -0.08,-0.35 -0.17,-0.62 l -0.46,-1.32 h -3.65 l -0.46,1.32 q -0.08,0.22 -0.14,0.37 -0.05,0.16 -0.08,0.29 -0.03,0.13 -0.07,0.28 -0.02,0.13 -0.06,0.33 h -1.87 q 0.13,-0.24 0.29,-0.62 0.16,-0.39 0.32,-0.81 l 2.51,-6.97 q 0.16,-0.46 0.24,-0.71 0.08,-0.27 0.13,-0.51 h 1.99 q 0.02,0.11 0.05,0.22 0.02,0.1 0.07,0.23 0.05,0.13 0.1,0.31 0.07,0.18 0.17,0.46 l 2.53,6.97 q 0.22,0.58 0.33,0.89 0.13,0.3 0.25,0.53 z m -2.41,-7.55 q -0.03,-0.1 -0.08,-0.23 -0.03,-0.14 -0.13,-0.45 -0.07,0.22 -0.11,0.34 -0.03,0.11 -0.06,0.18 -0.01,0.06 -0.02,0.1 -0.01,0.02 -0.02,0.06 l -1.19,3.58 h 2.83 z m 7.96,5.98 q 0,0.5 0.01,0.85 0.02,0.35 0.08,0.72 h -1.72 q 0.06,-0.39 0.07,-0.72 0.02,-0.35 0.02,-0.85 v -6.59 h -1.54 q -0.51,0 -0.89,0.02 -0.38,0.01 -0.67,0.06 v -1.62 q 0.31,0.05 0.68,0.07 0.38,0.01 0.87,0.01 h 4.52 q 0.31,0 0.55,0 0.24,-0.01 0.43,-0.01 0.19,-0.01 0.37,-0.02 0.17,-0.02 0.33,-0.05 v 1.62 q -0.32,-0.05 -0.7,-0.06 -0.37,-0.02 -0.98,-0.02 h -1.43 z m 10.57,1.65 q -0.31,-0.05 -0.63,-0.07 -0.32,-0.01 -0.84,-0.01 h -3.56 q -0.26,0 -0.46,0 -0.19,0 -0.35,0 -0.16,0.01 -0.32,0.01 -0.15,0.01 -0.32,0.02 0.05,-0.36 0.07,-0.71 0.02,-0.35 0.02,-0.88 v -6.53 q 0,-0.47 -0.02,-0.8 -0.01,-0.34 -0.07,-0.76 0.17,0.01 0.32,0.02 0.15,0 0.31,0.01 0.17,0 0.37,0 0.19,0 0.46,0 h 3.45 q 0.43,0 0.75,-0.01 0.32,-0.02 0.72,-0.07 v 1.59 q -0.16,-0.02 -0.32,-0.04 -0.16,-0.02 -0.33,-0.02 -0.17,-0.01 -0.38,-0.01 -0.19,-0.01 -0.45,-0.01 h -3.29 v 2.49 h 2.77 q 0.45,0 0.78,-0.01 0.33,-0.02 0.71,-0.07 v 1.58 q -0.17,-0.02 -0.33,-0.04 -0.15,-0.02 -0.32,-0.02 -0.17,-0.01 -0.38,-0.01 -0.19,-0.01 -0.46,-0.01 h -2.78 v 2.85 h 3.42 q 0.48,0 0.79,-0.01 0.31,-0.02 0.67,-0.07 z m 1.43,-8.17 q 0,-0.51 -0.02,-0.83 -0.01,-0.34 -0.07,-0.74 0.17,0.01 0.32,0.02 0.15,0 0.31,0.01 0.16,0 0.35,0 0.19,0 0.47,0 h 2.07 q 1.07,0 1.8,0.25 0.73,0.24 1.28,0.81 0.63,0.63 0.95,1.56 0.32,0.92 0.32,2.1 0,2.49 -1.35,3.84 -0.55,0.54 -1.27,0.8 -0.71,0.25 -1.72,0.25 h -2.08 q -0.26,0 -0.46,0 -0.19,0 -0.35,0 -0.16,0.01 -0.32,0.01 -0.15,0.01 -0.32,0.02 0.02,-0.18 0.03,-0.35 0.02,-0.18 0.03,-0.36 0.01,-0.18 0.01,-0.39 0.01,-0.22 0.01,-0.5 z m 3.33,6.66 q 0.71,0 1.18,-0.18 0.48,-0.18 0.84,-0.59 0.41,-0.46 0.62,-1.14 0.22,-0.69 0.22,-1.55 0,-1.72 -0.79,-2.58 -0.35,-0.39 -0.83,-0.56 -0.47,-0.17 -1.22,-0.17 h -1.83 v 6.76 z M 317.3,216.2 q -0.22,-1.28 -0.52,-2.52 -0.3,-1.24 -0.63,-2.33 l -1.93,-6.14 h -12.96 l -1.93,6.14 q -0.41,1.38 -0.71,2.52 -0.26,1.09 -0.45,2.33 h -3.87 q 0.26,-0.57 0.48,-1.05 0.22,-0.52 0.41,-1.09 0.22,-0.57 0.48,-1.33 0.26,-0.81 0.63,-2 l 8.33,-26.26 q 0.52,-1.67 0.78,-2.62 0.26,-1 0.41,-1.81 h 3.75 q 0.04,0.33 0.11,0.67 0.07,0.33 0.22,0.81 0.15,0.48 0.37,1.19 0.22,0.67 0.56,1.76 l 8.33,26.26 q 0.71,2.14 1.12,3.33 0.45,1.19 0.85,2.14 z m -8.77,-29.97 q -0.04,-0.14 -0.07,-0.24 -0.04,-0.14 -0.11,-0.43 -0.07,-0.29 -0.22,-0.81 -0.15,-0.57 -0.41,-1.57 -0.15,0.52 -0.26,0.95 -0.07,0.38 -0.15,0.62 -0.19,0.57 -0.26,0.95 -0.07,0.38 -0.15,0.52 l -4.76,15.7 h 11.19 z m 20.03,29.97 q -1.3,0 -2.19,0.05 -0.89,0 -1.86,0.1 0.19,-1.38 0.22,-2.62 0.07,-1.28 0.07,-3.04 v -25.02 q 0,-1.86 -0.07,-3.09 -0.04,-1.28 -0.22,-2.52 H 328 q -0.07,0.67 -0.15,1.28 -0.04,0.57 -0.07,1.24 -0.04,0.62 -0.07,1.38 0,0.71 0,1.71 v 27.16 h 11.71 q 1.38,0 2.3,-0.05 0.93,-0.1 2.01,-0.29 v 4.04 q -0.89,-0.19 -1.82,-0.24 -0.93,-0.1 -2.49,-0.1 z m 25.24,-5.38 q 0,1.76 0.04,2.95 0.07,1.14 0.26,2.43 h -3.49 q 0.19,-1.09 0.22,-2.38 0.07,-1.33 0.07,-3 v -27.45 h -5.8 q -1.41,0 -2.38,0.1 -0.97,0.05 -1.9,0.24 v -4 q 0.97,0.19 1.86,0.29 0.89,0.05 2.38,0.05 h 14.5 q 0.82,0 1.41,0 0.63,-0.05 1.12,-0.05 0.52,-0.05 0.97,-0.1 0.45,-0.1 0.89,-0.19 v 4 q -0.93,-0.19 -1.9,-0.24 -0.93,-0.1 -2.49,-0.1 h -5.76 z" />
  <path style="fill:#ffffff;stroke:#dcdcdc;stroke-width:1;"
         d="M 227.03,6.08 248,47.14 v 81.36 l -5,7.04 v 105.15 h 14 V 135.54 l -5,-7.04 V 47.14 L 272.97,6.08 Z"
         id="rect155" />
</svg>
