<svg
   width="500"
   height="500"
   viewBox="0 0 500 500"
   version="1.1"
   xmlns="http://www.w3.org/2000/svg"
   xmlns:svg="http://www.w3.org/2000/svg">
  <defs>
    <pattern
       href="#stripes-grid"
       preserveAspectRatio="xMidYMid"
       id="stripes"
       patternTransform="matrix(3.959798,-3.959798,3.959798,3.959798,-3.2519531e-7,-2.8515625e-7)"
       x="0"
       y="0"
       width="4.2" />
    <pattern
       patternUnits="userSpaceOnUse"
       width="3"
       height="10"
       patternTransform="scale(2)"
       preserveAspectRatio="xMidYMid"
       id="stripes-grid"
       style="fill:#ffffff"
       x="0"
       y="0">
      <rect
         style="stroke:none"
         x="0"
         y="0"
         width="2"
         height="10"
         id="rect134-4" />
    </pattern>
  </defs>
  <path
       style="fill:#000000"
       d="M 250,0 A 250,250 0 0 0 0,250 250,250 0 0 0 250,500 250,250 0 0 0 500,250 250,250 0 0 0 250,0 Z m 206.67188,190.73828 a 215,215 0 0 1 0,118.52344 l -72.1543,-20.68945 A 140,140 0 0 0 390,250 140,140 0 0 0 384.54102,211.42188 Z" />
  <path
       style="fill:#ffffff"
       d="m 135.37,114.96 c 0.37,0.99 0.7,1.74 0.99,2.25 0.33,0.51 0.74,1.03 1.24,1.54 1.73,1.85 4.33,2.78 7.8,2.78 2.23,0 4.15,-0.43 5.76,-1.3 1.65,-0.87 3.05,-2.25 4.21,-4.14 0.58,-0.95 1.09,-2.09 1.55,-3.43 0.5,-1.38 0.87,-2.76 1.11,-4.14 0.12,-0.75 0.23,-1.72 0.31,-2.9 0.08,-1.18 0.17,-2.53 0.25,-4.02 -0.45,0.79 -0.85,1.4 -1.18,1.83 -0.29,0.43 -0.72,0.93 -1.3,1.48 -1.57,1.42 -3.26,2.47 -5.07,3.14 -1.77,0.67 -3.84,1.01 -6.19,1.01 -2.31,0 -4.41,-0.34 -6.31,-1.01 -1.9,-0.67 -3.51,-1.64 -4.83,-2.9 -1.32,-1.26 -2.35,-2.82 -3.09,-4.68 -0.74,-1.85 -1.11,-3.85 -1.11,-5.98 0,-2.37 0.39,-4.5 1.18,-6.39 0.83,-1.93 1.96,-3.57 3.4,-4.91 1.44,-1.38 3.2,-2.43 5.26,-3.14 2.06,-0.75 4.37,-1.12 6.93,-1.12 3.51,0 6.58,0.89 9.22,2.66 2.64,1.78 4.56,4.2 5.76,7.28 0.62,1.62 1.07,3.43 1.36,5.44 0.29,2.01 0.43,4.3 0.43,6.87 0,4.14 -0.43,7.83 -1.3,11.07 -0.87,3.2 -2.15,5.8 -3.84,7.81 -1.57,1.89 -3.4,3.29 -5.51,4.2 -2.06,0.87 -4.52,1.3 -7.36,1.3 -4.29,0 -7.76,-1.07 -10.4,-3.2 -0.87,-0.67 -1.61,-1.42 -2.23,-2.25 -0.62,-0.83 -1.32,-2.03 -2.1,-3.61 z m 10.03,-9.88 c 1.73,0 3.32,-0.28 4.77,-0.83 1.49,-0.55 2.76,-1.3 3.84,-2.25 1.07,-0.99 1.9,-2.15 2.48,-3.49 0.62,-1.34 0.93,-2.8 0.93,-4.38 0,-1.58 -0.29,-3.06 -0.87,-4.44 -0.58,-1.38 -1.38,-2.56 -2.41,-3.55 -1.03,-0.99 -2.27,-1.76 -3.71,-2.31 -1.4,-0.59 -2.93,-0.89 -4.58,-0.89 -2.06,0 -3.96,0.45 -5.69,1.36 -1.73,0.87 -3.12,2.09 -4.15,3.67 -0.5,0.79 -0.89,1.74 -1.18,2.84 -0.29,1.1 -0.43,2.23 -0.43,3.37 0,3.35 0.99,6.02 2.97,7.99 1.98,1.93 4.66,2.9 8.05,2.9 z m -65.14,88.36 c 1.19,0.18 2.21,0.46 3.06,0.82 0.85,0.33 1.75,0.84 2.67,1.54 2.79,2.05 4.18,4.93 4.18,8.63 0,3.77 -1.34,6.69 -4.01,8.74 -2.64,2.02 -6.43,3.02 -11.37,3.02 -5.13,0 -9.05,-1.01 -11.76,-3.02 -2.71,-2.02 -4.07,-4.93 -4.07,-8.74 0,-3.96 1.65,-7 4.96,-9.12 0.85,-0.55 1.63,-0.95 2.34,-1.21 0.74,-0.26 1.63,-0.48 2.67,-0.66 -2.45,-0.44 -4.42,-1.56 -5.91,-3.35 -1.45,-1.8 -2.17,-3.98 -2.17,-6.54 0,-1.65 0.32,-3.15 0.95,-4.51 0.63,-1.36 1.54,-2.49 2.73,-3.41 1.19,-0.95 2.62,-1.69 4.29,-2.2 1.71,-0.51 3.62,-0.77 5.74,-0.77 4.27,0 7.63,0.97 10.09,2.91 2.45,1.91 3.68,4.56 3.68,7.97 0,2.57 -0.72,4.75 -2.17,6.54 -1.45,1.76 -3.42,2.88 -5.91,3.35 z m -5.68,-17.09 c -2.86,0 -5.15,0.68 -6.85,2.03 -1.67,1.36 -2.51,3.19 -2.51,5.5 0,2.46 0.84,4.38 2.51,5.77 1.67,1.39 3.98,2.09 6.91,2.09 2.93,0 5.22,-0.7 6.85,-2.09 1.67,-1.39 2.51,-3.32 2.51,-5.77 0,-2.31 -0.85,-4.14 -2.56,-5.5 -1.67,-1.36 -3.96,-2.03 -6.85,-2.03 z m 0,19.18 c -3.46,0 -6.17,0.77 -8.14,2.31 -1.93,1.54 -2.9,3.65 -2.9,6.32 0,2.64 0.95,4.69 2.84,6.16 1.93,1.43 4.64,2.14 8.14,2.14 1.97,0 3.72,-0.24 5.24,-0.71 1.52,-0.48 2.77,-1.19 3.73,-2.14 1.41,-1.28 2.12,-3.1 2.12,-5.44 0,-2.71 -0.98,-4.82 -2.95,-6.32 -1.93,-1.54 -4.63,-2.31 -8.08,-2.31 z m 5.61,91.7 c -0.25,0.2 -0.5,0.45 -0.75,0.77 -0.25,0.28 -0.54,0.63 -0.86,1.06 -0.29,0.43 -0.63,0.97 -1.02,1.6 -0.36,0.63 -0.81,1.38 -1.34,2.25 -1.22,2.05 -2.29,3.94 -3.22,5.68 -0.9,1.69 -1.7,3.35 -2.42,4.97 -0.72,1.58 -1.36,3.15 -1.93,4.73 -0.54,1.58 -1.07,3.27 -1.61,5.08 -0.36,1.22 -0.66,2.36 -0.91,3.43 -0.25,1.02 -0.48,2.11 -0.7,3.25 -0.21,1.1 -0.43,2.31 -0.64,3.61 -0.18,1.3 -0.38,2.8 -0.59,4.49 h -5.1 c 0.43,-2.68 0.84,-5.06 1.24,-7.15 0.43,-2.09 0.9,-4.02 1.4,-5.79 0.5,-1.81 1.06,-3.57 1.67,-5.26 0.64,-1.69 1.38,-3.49 2.2,-5.38 0.64,-1.46 1.29,-2.84 1.93,-4.14 0.64,-1.3 1.34,-2.62 2.1,-3.96 0.75,-1.34 1.58,-2.74 2.47,-4.2 0.93,-1.46 1.99,-3.07 3.17,-4.85 H 57.77 c -1.25,0 -2.33,0.04 -3.22,0.12 -0.86,0.04 -1.81,0.14 -2.85,0.3 v -5.02 c 1.04,0.16 1.99,0.28 2.85,0.35 0.9,0.04 1.99,0.06 3.28,0.06 h 16.12 2.04 c 0.57,0 1.09,-0.02 1.56,-0.06 0.47,-0.04 0.9,-0.06 1.29,-0.06 0.43,-0.04 0.88,-0.1 1.34,-0.18 z m 70.16,95.83 c -0.41,-0.93 -0.76,-1.65 -1.05,-2.15 -0.29,-0.5 -0.66,-1.01 -1.11,-1.51 -1.85,-1.94 -4.29,-2.91 -7.32,-2.91 -4.88,0 -8.43,2.4 -10.64,7.2 -0.41,0.89 -0.76,1.74 -1.05,2.56 -0.25,0.81 -0.47,1.7 -0.68,2.67 -0.21,0.93 -0.37,1.98 -0.49,3.14 -0.12,1.16 -0.25,2.54 -0.37,4.13 0.57,-0.89 1.05,-1.59 1.42,-2.09 0.41,-0.54 0.96,-1.08 1.66,-1.63 1.44,-1.24 2.99,-2.13 4.68,-2.67 1.68,-0.58 3.59,-0.87 5.72,-0.87 2.38,0 4.51,0.35 6.4,1.05 1.93,0.66 3.55,1.63 4.86,2.91 1.35,1.24 2.38,2.75 3.08,4.53 0.74,1.78 1.11,3.8 1.11,6.04 0,2.25 -0.39,4.3 -1.17,6.16 -0.74,1.82 -1.83,3.39 -3.26,4.71 -1.39,1.28 -3.1,2.29 -5.11,3.02 -1.97,0.7 -4.16,1.05 -6.58,1.05 -2.22,0 -4.31,-0.31 -6.28,-0.93 -1.93,-0.66 -3.55,-1.57 -4.86,-2.73 -2.01,-1.74 -3.55,-4.18 -4.61,-7.32 -1.07,-3.14 -1.6,-6.78 -1.6,-10.92 0,-3.64 0.41,-6.99 1.23,-10.05 0.82,-3.1 1.97,-5.6 3.45,-7.5 3.28,-4.22 7.61,-6.33 12.98,-6.33 1.85,0 3.57,0.21 5.17,0.64 1.6,0.43 2.99,1.03 4.18,1.8 1.07,0.74 1.97,1.57 2.71,2.5 0.74,0.93 1.56,2.27 2.46,4.01 z m 1.35,20.51 c 0,-3.45 -0.98,-6.1 -2.95,-7.96 -1.93,-1.86 -4.7,-2.79 -8.31,-2.79 -1.56,0 -3.1,0.31 -4.61,0.93 -1.52,0.58 -2.81,1.38 -3.88,2.38 -2.05,1.94 -3.08,4.4 -3.08,7.38 0,1.59 0.29,3.04 0.86,4.36 0.62,1.32 1.44,2.48 2.46,3.49 1.03,0.97 2.24,1.72 3.63,2.27 1.44,0.54 2.99,0.81 4.68,0.81 2.01,0 3.88,-0.41 5.6,-1.22 1.72,-0.85 3.06,-2.01 4,-3.49 0.49,-0.77 0.88,-1.7 1.17,-2.79 0.29,-1.12 0.43,-2.25 0.43,-3.37 z m 90.22,24 c -0.04,0.26 -0.07,0.47 -0.11,0.62 0,0.15 -0.02,0.3 -0.05,0.45 0,0.15 -0.04,0.34 -0.11,0.57 -0.04,0.23 -0.09,0.53 -0.16,0.9 2.55,-2.6 5.66,-3.9 9.31,-3.9 1.95,0 3.72,0.34 5.32,1.02 1.63,0.64 3.05,1.58 4.26,2.83 2.38,2.41 3.56,5.73 3.56,9.95 0,2.26 -0.34,4.31 -1.01,6.16 -0.67,1.85 -1.63,3.43 -2.87,4.75 -1.24,1.28 -2.75,2.28 -4.52,3 -1.77,0.68 -3.76,1.02 -5.96,1.02 -4.18,0 -7.57,-1.28 -10.16,-3.84 -0.32,-0.34 -0.62,-0.68 -0.9,-1.02 -0.28,-0.38 -0.55,-0.75 -0.8,-1.13 -0.25,-0.41 -0.51,-0.87 -0.8,-1.36 -0.25,-0.53 -0.53,-1.13 -0.85,-1.81 l 4.36,-1.36 c 0.28,0.79 0.53,1.41 0.74,1.87 0.25,0.45 0.57,0.92 0.96,1.41 1.88,2.22 4.4,3.33 7.55,3.33 1.49,0 2.84,-0.24 4.04,-0.73 1.24,-0.53 2.29,-1.26 3.14,-2.2 0.89,-0.94 1.56,-2.07 2.02,-3.39 0.5,-1.36 0.74,-2.85 0.74,-4.47 0,-3.13 -0.85,-5.61 -2.55,-7.46 -1.67,-1.88 -3.92,-2.83 -6.76,-2.83 -2.73,0 -5.05,0.79 -6.97,2.37 -0.64,0.53 -1.13,1.04 -1.49,1.53 -0.35,0.49 -0.67,1.11 -0.96,1.87 l -3.99,-0.4 c 0.21,-1.09 0.37,-2.03 0.48,-2.83 0.11,-0.79 0.21,-1.79 0.32,-3 l 1.17,-12.77 c 0.07,-0.83 0.11,-1.47 0.11,-1.92 0.04,-0.45 0.05,-0.94 0.05,-1.47 v -0.96 c 0,-0.26 -0.04,-0.75 -0.11,-1.47 0.43,0.08 0.8,0.13 1.12,0.17 0.35,0 0.73,0.02 1.12,0.06 0.43,0.04 0.9,0.06 1.44,0.06 h 1.97 10.96 1.86 c 0.57,-0.04 1.08,-0.08 1.54,-0.11 0.46,-0.04 0.9,-0.08 1.33,-0.11 0.46,-0.08 0.96,-0.15 1.49,-0.23 v 4.8 c -1.03,-0.19 -2.02,-0.3 -2.98,-0.34 -0.92,-0.08 -2,-0.11 -3.24,-0.11 h -12.5 z m 96.29,-24.85 c 0.71,-0.69 1.43,-1.42 2.14,-2.18 0.76,-0.77 1.49,-1.51 2.2,-2.24 l 16.9,-18.16 c 1.11,-1.19 2.03,-2.2 2.74,-3.05 0.76,-0.88 1.51,-1.82 2.27,-2.82 h 5.01 c -0.09,0.84 -0.16,1.61 -0.2,2.3 -0.04,0.69 -0.09,1.4 -0.13,2.13 -0.04,0.73 -0.07,1.51 -0.07,2.36 v 2.93 18.85 h 2.54 c 1.43,0 2.63,-0.02 3.61,-0.06 1.02,-0.08 2.14,-0.19 3.34,-0.34 v 4.77 c -1.25,-0.15 -2.38,-0.25 -3.41,-0.29 -0.98,-0.08 -2.18,-0.11 -3.61,-0.11 h -2.47 v 4.94 1.84 c 0.04,0.54 0.09,1.03 0.13,1.49 0.04,0.46 0.09,0.92 0.13,1.38 0.09,0.46 0.18,0.96 0.27,1.49 h -6.08 c 0.22,-1 0.36,-1.95 0.4,-2.87 0.09,-0.92 0.13,-2.03 0.13,-3.33 v -4.94 h -17.9 c -1.87,0 -3.38,0.02 -4.54,0.06 -1.16,0.04 -2.29,0.1 -3.41,0.17 z m 25.92,-14.43 v -2.07 c 0,-0.65 0.02,-1.26 0.07,-1.84 0.04,-0.61 0.09,-1.23 0.13,-1.84 0.04,-0.65 0.11,-1.34 0.2,-2.07 -0.71,0.88 -1.49,1.8 -2.34,2.76 -0.8,0.92 -1.69,1.92 -2.67,2.99 l -15.36,16.67 h 19.97 z m 45.72,-47.52 c 0.49,1.68 1,2.95 1.52,3.81 0.53,0.86 1.26,1.64 2.2,2.33 2.07,1.55 4.7,2.33 7.87,2.33 3.58,0 6.38,-0.88 8.42,-2.65 2.07,-1.81 3.11,-4.26 3.11,-7.37 0,-3.23 -1.06,-5.69 -3.17,-7.37 -2.11,-1.68 -5.2,-2.52 -9.27,-2.52 -0.85,0 -1.69,0.04 -2.5,0.13 -0.77,0.04 -1.57,0.11 -2.38,0.19 v -5.1 c 1.38,0.26 2.89,0.39 4.51,0.39 4.07,0 7.03,-0.99 8.9,-2.97 0.77,-0.78 1.36,-1.72 1.77,-2.84 0.45,-1.12 0.67,-2.26 0.67,-3.42 0,-2.8 -0.87,-4.95 -2.62,-6.46 -1.71,-1.55 -4.11,-2.33 -7.2,-2.33 -3.74,0 -6.44,1.14 -8.11,3.42 -0.45,0.6 -0.81,1.23 -1.1,1.87 -0.24,0.6 -0.53,1.51 -0.85,2.71 l -5.06,-1.16 c 0.24,-0.82 0.49,-1.53 0.73,-2.13 0.24,-0.65 0.49,-1.21 0.73,-1.68 0.24,-0.52 0.51,-0.97 0.79,-1.36 0.33,-0.43 0.67,-0.86 1.04,-1.29 2.72,-3.14 6.77,-4.72 12.14,-4.72 2.2,0 4.19,0.3 5.98,0.9 1.79,0.6 3.31,1.46 4.57,2.58 1.26,1.08 2.22,2.39 2.87,3.94 0.69,1.55 1.04,3.3 1.04,5.23 0,1.98 -0.39,3.81 -1.16,5.49 -0.73,1.64 -1.77,2.95 -3.11,3.94 -0.81,0.6 -1.63,1.08 -2.44,1.42 -0.77,0.3 -1.87,0.6 -3.29,0.9 1.79,0.22 3.21,0.52 4.27,0.9 1.1,0.39 2.17,1.01 3.23,1.87 1.34,1.12 2.36,2.52 3.05,4.2 0.69,1.64 1.04,3.49 1.04,5.56 0,2.2 -0.39,4.18 -1.16,5.94 -0.77,1.72 -1.87,3.21 -3.29,4.46 -1.42,1.21 -3.15,2.13 -5.18,2.78 -2.03,0.65 -4.33,0.97 -6.89,0.97 -6.14,0 -10.69,-1.77 -13.66,-5.3 -0.65,-0.78 -1.2,-1.59 -1.65,-2.46 -0.41,-0.9 -0.89,-2.18 -1.46,-3.81 z m 0.82,-145.58 h -2.53 c -0.63,0 -1.2,0.02 -1.71,0.06 -0.46,0.04 -0.91,0.08 -1.33,0.12 -0.42,0.04 -0.89,0.08 -1.39,0.12 0.17,-1.17 0.32,-2.12 0.44,-2.86 0.13,-0.74 0.25,-1.36 0.38,-1.87 0.13,-0.54 0.25,-1.03 0.38,-1.46 0.17,-0.47 0.38,-0.97 0.63,-1.52 0.8,-1.87 1.85,-3.6 3.16,-5.19 1.35,-1.63 3.03,-3.25 5.06,-4.84 0.55,-0.43 1.01,-0.78 1.39,-1.05 0.42,-0.31 0.93,-0.66 1.52,-1.05 0.63,-0.43 1.45,-0.95 2.47,-1.57 1.01,-0.66 2.44,-1.57 4.3,-2.74 1.56,-0.97 2.87,-1.87 3.92,-2.68 1.1,-0.86 1.96,-1.67 2.59,-2.45 0.67,-0.78 1.14,-1.56 1.39,-2.33 0.3,-0.82 0.44,-1.67 0.44,-2.57 0,-2.22 -0.95,-3.98 -2.84,-5.31 -1.85,-1.32 -4.4,-1.98 -7.65,-1.98 -4.21,0 -7.27,1.26 -9.17,3.79 -0.59,0.78 -1.05,1.59 -1.39,2.45 -0.34,0.82 -0.61,1.96 -0.82,3.44 l -5.31,-0.82 c 0.25,-1.05 0.48,-1.96 0.7,-2.74 0.25,-0.82 0.53,-1.56 0.82,-2.22 0.34,-0.66 0.7,-1.26 1.07,-1.81 0.42,-0.54 0.89,-1.09 1.39,-1.63 2.87,-2.99 7.1,-4.49 12.71,-4.49 2.4,0 4.55,0.27 6.45,0.82 1.94,0.51 3.58,1.26 4.93,2.27 1.39,0.97 2.44,2.16 3.16,3.56 0.76,1.4 1.14,2.95 1.14,4.67 0,2.99 -1.24,5.75 -3.73,8.28 -0.46,0.51 -0.95,0.97 -1.45,1.4 -0.51,0.43 -1.16,0.91 -1.96,1.46 -0.76,0.54 -1.73,1.19 -2.91,1.92 -1.14,0.74 -2.61,1.65 -4.43,2.74 -1.26,0.78 -2.36,1.48 -3.29,2.1 -0.89,0.58 -1.69,1.17 -2.4,1.75 -0.67,0.54 -1.29,1.09 -1.83,1.63 -0.55,0.51 -1.07,1.07 -1.58,1.69 -0.97,1.21 -1.73,2.29 -2.28,3.27 -0.51,0.93 -0.95,2.1 -1.33,3.5 h 20.17 c 1.6,0 2.97,-0.02 4.11,-0.06 1.18,-0.08 2.38,-0.19 3.6,-0.35 v 4.9 c -1.26,-0.12 -2.49,-0.19 -3.67,-0.23 -1.14,-0.08 -2.51,-0.12 -4.11,-0.12 z M 365.91,81.8 c -0.32,1.88 -0.48,3.98 -0.48,6.31 v 30.21 c 0,1.24 0.04,2.37 0.11,3.38 0.07,0.98 0.2,1.95 0.37,2.93 h -5.05 c 0.07,-0.53 0.12,-1.01 0.16,-1.47 0.07,-0.45 0.12,-0.92 0.16,-1.41 0.04,-0.49 0.05,-1 0.05,-1.52 0.04,-0.56 0.05,-1.2 0.05,-1.92 v -30.2 c 0,-1.39 -0.04,-2.54 -0.11,-3.44 -0.07,-0.9 -0.18,-1.86 -0.32,-2.87 z m -115.94,8.37 c -4.05,0 -7.35,-1.3 -9.92,-3.9 -0.72,-0.73 -1.37,-1.52 -1.95,-2.36 -0.54,-0.84 -0.98,-1.74 -1.3,-2.69 -1.37,-3.88 -2.06,-8.11 -2.06,-12.68 0,-1.46 0.07,-2.91 0.22,-4.34 0.14,-1.43 0.34,-2.8 0.6,-4.12 0.29,-1.32 0.63,-2.53 1.03,-3.62 0.4,-1.1 0.83,-2.05 1.3,-2.85 2.64,-4.5 6.68,-6.75 12.14,-6.75 2.02,0 3.87,0.33 5.53,0.99 1.7,0.66 3.16,1.63 4.39,2.91 1.52,1.54 2.6,3.22 3.25,5.05 1.37,3.84 2.06,8.09 2.06,12.73 0,3.33 -0.34,6.39 -1.03,9.17 -0.65,2.78 -1.57,5.01 -2.76,6.7 -2.71,3.84 -6.54,5.76 -11.49,5.76 z m 0,-39.52 c -2.78,0 -5.04,0.93 -6.78,2.8 -1.19,1.32 -2.01,2.65 -2.44,4.01 -1.12,3.29 -1.68,6.99 -1.68,11.09 0,1.28 0.05,2.56 0.16,3.84 0.14,1.28 0.33,2.51 0.54,3.68 0.25,1.13 0.52,2.18 0.81,3.13 0.33,0.95 0.67,1.76 1.03,2.42 1.88,3.18 4.68,4.78 8.4,4.78 1.37,0 2.62,-0.22 3.74,-0.66 1.12,-0.44 2.1,-1.08 2.93,-1.92 1.23,-1.28 2.08,-2.71 2.55,-4.28 1.12,-3.37 1.68,-7.06 1.68,-11.09 0,-1.21 -0.07,-2.42 -0.22,-3.62 -0.11,-1.24 -0.27,-2.43 -0.49,-3.57 -0.22,-1.17 -0.47,-2.23 -0.76,-3.18 -0.29,-0.95 -0.61,-1.76 -0.98,-2.42 -1.81,-3.33 -4.64,-5 -8.51,-5 z m -61.6,-32.61 3.87,-0.99 5.97,23.25 -3.87,0.99 z m 113.4,441.67 3.87,-0.99 5.97,23.25 -3.87,0.99 z M 159.79,27.59 l 3.72,-1.47 8.83,22.31 -3.72,1.47 z m 167.86,423.98 3.72,-1.47 8.83,22.31 -3.72,1.47 z M 132.63,40.65 l 3.51,-1.93 11.56,21.03 -3.51,1.93 z m 219.68,399.6 3.51,-1.93 11.56,21.03 -3.51,1.93 z M 84.25,76.42 l 2.92,-2.74 16.43,17.5 -2.92,2.74 z m 312.15,332.41 2.92,-2.74 16.43,17.5 -2.92,2.74 z M 63.8,98.56 l 2.55,-3.08 18.49,15.3 -2.55,3.08 z m 351.36,290.66 2.55,-3.08 18.49,15.3 -2.55,3.08 z M 46.29,123.09 l 2.14,-3.38 20.26,12.86 -2.14,3.38 z m 385.01,244.34 2.14,-3.38 20.26,12.86 -2.14,3.38 z M 31.99,149.62 l 1.7,-3.62 21.72,10.22 -1.7,3.62 z m 412.6,194.16 1.7,-3.62 21.72,10.22 -1.7,3.62 z M 13.88,207 l 0.75,-3.93 23.57,4.5 -0.75,3.93 z m 447.92,85.45 0.75,-3.93 23.57,4.5 -0.75,3.93 z m -451.45,-55.51 0.25,-3.99 23.95,1.51 -0.25,3.99 z m 455.1,28.63 0.25,-3.99 23.95,1.51 -0.25,3.99 z m -454.85,1.51 -0.25,-3.99 23.95,-1.51 0.25,3.99 z m 455.1,-28.63 -0.25,-3.99 23.95,-1.51 0.25,3.99 z m -451.07,58.5 -0.75,-3.93 23.57,-4.5 0.75,3.93 z m 447.92,-85.45 -0.75,-3.93 23.57,-4.5 0.75,3.93 z m -428.86,142.51 -1.7,-3.62 21.72,-10.22 1.7,3.62 z m 412.6,-194.17 -1.7,-3.62 21.72,-10.22 1.7,3.62 z m -397.86,220.45 -2.14,-3.38 20.26,-12.86 2.14,3.38 z m 385.01,-244.34 -2.14,-3.38 20.26,-12.86 2.14,3.38 z m -367.09,268.57 -2.55,-3.08 18.49,-15.3 2.55,3.08 z m 351.36,-290.66 -2.55,-3.08 18.49,-15.3 2.55,3.08 z m -330.54,312.46 -2.92,-2.74 16.43,-17.5 2.92,2.74 z m 312.15,-332.41 -2.92,-2.74 16.43,-17.5 2.92,2.74 z m -263.19,367.37 -3.51,-1.93 11.56,-21.03 3.51,1.93 z m 219.68,-399.6 -3.51,-1.93 11.56,-21.03 3.51,1.93 z m -192.3,412.2 -3.72,-1.47 8.84,-22.31 3.72,1.47 z M 331.37,49.9 l -3.72,-1.47 8.84,-22.31 3.72,1.47 z m -139.12,433.05 -3.87,-0.99 5.97,-23.25 3.87,0.99 z m 113.4,-441.67 -3.87,-0.99 5.97,-23.25 3.87,0.99 z m -83.75,447.07 -3.97,-0.5 3.01,-23.81 3.97,0.5 z m 57.15,-452.4 -3.97,-0.5 3.01,-23.81 3.97,0.5 z m 3.01,451.9 -3.97,0.5 -3.01,-23.81 3.97,-0.5 z m -57.15,-452.4 -3.97,0.5 -3.01,-23.81 3.97,-0.5 z m 243.12,216.87 -2.97,-3 2.97,-3 h 21.93 v 6 z m -215.07,237 h -6 v -28 h 6 z m 0,-452 h -6 v -28 h 6 z m 140.5,404.4 -4.85,3.53 -16.46,-22.65 4.85,-3.53 z M 127.77,76.05 l -4.85,3.53 -16.46,-22.65 4.85,-3.53 z m 351.36,244.59 -1.85,5.71 -26.63,-8.65 1.85,-5.71 z M 49.26,180.96 l -1.85,5.71 -26.63,-8.65 1.85,-5.71 z m 428.02,-8.65 1.85,5.71 -26.63,8.65 -1.85,-5.71 z M 47.4,311.99 l 1.85,5.71 -26.63,8.65 -1.85,-5.71 z M 388.59,53.4 l 4.85,3.53 -16.46,22.65 -4.85,-3.53 z m -265.68,365.68 4.85,3.53 -16.46,22.65 -4.85,-3.53 z" /><path
       style="fill:url(#stripes);stroke-width:1;"
       d="m 217.8,294.32 -49.89,68.67 a 140,140 0 0 0 6.4,4.79 140,140 0 0 0 17.53,9.57 140,140 0 0 0 38.23,11.23 140,140 0 0 0 19.93,1.42 140,140 0 0 0 19.92,-1.43 140,140 0 0 0 62.16,-25.59 L 282.2,294.32 A 55,55 0 0 1 250,305 55,55 0 0 1 217.8,294.32 Z" />
</svg>
