<svg
   width="500"
   height="500"
   viewBox="0 0 500 500"
   version="1.1"
   xmlns:xlink="http://www.w3.org/1999/xlink"
   xmlns="http://www.w3.org/2000/svg"
   xmlns:svg="http://www.w3.org/2000/svg">

  <circle
       style="fill:#141414;"
       cx="250"
       cy="250"
       r="217.5" />
  <path
       style="fill:#ffffff"
       d="m 400.91,201.5 q 0.1,1.03 0.43,2.26 l 2.84,10.59 q 0.17,0.65 0.35,1.18 0.17,0.5 0.4,0.99 l -1.69,0.45 q -0.04,-0.29 -0.08,-0.53 -0.03,-0.25 -0.08,-0.51 -0.05,-0.26 -0.13,-0.54 -0.06,-0.3 -0.16,-0.68 l -2.84,-10.59 q -0.2,-0.73 -0.36,-1.2 -0.16,-0.46 -0.38,-0.98 z m 11.32,13.39 q -1.99,0.53 -3.63,-0.53 -0.46,-0.3 -0.87,-0.68 -0.39,-0.38 -0.69,-0.85 -1.24,-1.91 -1.9,-4.38 -0.21,-0.79 -0.35,-1.58 -0.14,-0.79 -0.2,-1.53 -0.05,-0.75 -0.01,-1.4 0.04,-0.65 0.15,-1.14 0.65,-2.78 3.34,-3.5 1,-0.27 1.91,-0.13 0.93,0.13 1.72,0.66 0.97,0.63 1.56,1.53 1.23,1.89 1.91,4.4 0.48,1.8 0.55,3.39 0.08,1.59 -0.26,2.65 -0.78,2.43 -3.22,3.09 z m -3.81,-14.23 q -1.37,0.37 -1.96,1.6 -0.4,0.87 -0.41,1.66 -0.08,1.93 0.52,4.14 0.19,0.69 0.42,1.37 0.26,0.67 0.53,1.28 0.29,0.58 0.57,1.06 0.3,0.47 0.57,0.78 1.39,1.47 3.22,0.98 0.68,-0.18 1.17,-0.57 0.49,-0.39 0.78,-0.95 0.42,-0.85 0.42,-1.77 0.06,-1.97 -0.52,-4.14 -0.17,-0.65 -0.42,-1.29 -0.23,-0.66 -0.5,-1.24 -0.28,-0.6 -0.56,-1.08 -0.28,-0.48 -0.55,-0.78 -1.37,-1.56 -3.28,-1.05 z m 8.63,-3.48 q 0.1,1.03 0.43,2.26 l 2.84,10.59 q 0.17,0.65 0.35,1.18 0.17,0.5 0.4,0.99 l -1.69,0.45 q -0.04,-0.29 -0.08,-0.53 -0.03,-0.25 -0.08,-0.51 -0.05,-0.26 -0.13,-0.54 -0.06,-0.3 -0.16,-0.68 l -2.84,-10.59 q -0.2,-0.73 -0.36,-1.2 -0.16,-0.46 -0.38,-0.98 z m 11.32,13.39 q -1.99,0.53 -3.63,-0.53 -0.46,-0.3 -0.87,-0.68 -0.39,-0.38 -0.69,-0.85 -1.24,-1.91 -1.9,-4.38 -0.21,-0.79 -0.35,-1.58 -0.14,-0.79 -0.2,-1.53 -0.05,-0.75 -0.01,-1.4 0.04,-0.65 0.15,-1.14 0.65,-2.78 3.34,-3.5 1,-0.27 1.91,-0.13 0.93,0.13 1.72,0.66 0.97,0.63 1.56,1.53 1.23,1.89 1.91,4.4 0.48,1.8 0.55,3.39 0.08,1.59 -0.26,2.65 -0.78,2.43 -3.22,3.09 z m -3.81,-14.23 q -1.37,0.37 -1.96,1.6 -0.4,0.87 -0.41,1.66 -0.08,1.93 0.52,4.14 0.19,0.69 0.42,1.37 0.26,0.67 0.53,1.28 0.29,0.58 0.57,1.06 0.3,0.47 0.57,0.78 1.39,1.47 3.22,0.98 0.68,-0.18 1.17,-0.57 0.49,-0.39 0.78,-0.95 0.42,-0.85 0.42,-1.77 0.06,-1.97 -0.52,-4.14 -0.17,-0.65 -0.42,-1.29 -0.23,-0.66 -0.5,-1.24 -0.28,-0.6 -0.56,-1.08 -0.28,-0.48 -0.55,-0.78 -1.37,-1.56 -3.28,-1.05 z M 99.22,285.88 q -0.29,-0.45 -0.49,-0.67 -0.21,-0.22 -0.49,-0.42 -1,-0.73 -2.49,-0.33 -0.96,0.26 -1.54,0.88 -0.6,0.63 -0.84,1.71 -0.12,0.54 -0.14,1.27 -0.03,0.75 0.05,1.47 0.05,0.39 0.17,0.99 0.12,0.6 0.29,1.36 0.09,-0.45 0.17,-0.7 0.07,-0.25 0.24,-0.59 0.49,-0.89 1.18,-1.44 0.68,-0.54 1.69,-0.81 1,-0.27 1.91,-0.15 0.91,0.12 1.65,0.6 0.74,0.48 1.31,1.32 0.57,0.84 0.86,1.91 0.32,1.19 0.23,2.23 -0.1,1.06 -0.54,1.9 -0.44,0.86 -1.23,1.45 -0.79,0.61 -1.89,0.91 -1.51,0.41 -2.89,-0.18 -1.38,-0.58 -2.31,-1.99 -0.48,-0.74 -0.88,-1.71 -0.39,-0.97 -0.74,-2.26 -0.56,-2.08 -0.62,-3.8 -0.06,-1.7 0.4,-2.9 0.42,-1.13 1.21,-1.83 0.77,-0.67 2,-1 1.85,-0.5 3.28,0.27 0.46,0.24 0.84,0.58 0.38,0.34 0.93,1.04 z m -2,4.07 q -0.75,0.2 -1.3,0.64 -0.57,0.45 -0.9,1.05 -0.33,0.62 -0.4,1.36 -0.09,0.74 0.12,1.53 0.21,0.79 0.65,1.42 0.43,0.62 1.01,1 0.58,0.37 1.27,0.48 0.68,0.13 1.4,-0.06 0.89,-0.24 1.52,-0.89 0.63,-0.64 0.86,-1.55 0.11,-0.45 0.08,-1.04 -0.02,-0.59 -0.18,-1.16 -0.45,-1.68 -1.57,-2.44 -1.11,-0.74 -2.57,-0.35 z m -8.61,5.21 q -0.02,-0.14 -0.02,-0.23 -0.02,-0.08 -0.02,-0.16 -0.02,-0.08 -0.02,-0.21 -0.01,-0.12 -0.03,-0.33 -0.92,1.71 -2.75,2.2 -0.98,0.26 -1.88,0.12 -0.91,-0.12 -1.69,-0.61 -1.53,-0.95 -2.13,-3.16 -0.32,-1.19 -0.24,-2.25 0.08,-1.06 0.52,-1.92 0.44,-0.84 1.23,-1.45 0.8,-0.59 1.9,-0.89 2.1,-0.56 3.76,0.43 0.21,0.13 0.4,0.27 0.2,0.16 0.37,0.32 0.18,0.18 0.39,0.4 0.2,0.24 0.45,0.56 l -1.33,0.87 q -0.25,-0.38 -0.42,-0.59 -0.19,-0.2 -0.45,-0.41 -1.26,-0.91 -2.84,-0.49 -0.75,0.2 -1.28,0.62 -0.55,0.44 -0.84,1.05 -0.31,0.61 -0.36,1.37 -0.06,0.78 0.17,1.63 0.44,1.64 1.55,2.38 1.1,0.76 2.53,0.38 1.37,-0.37 2.11,-1.46 0.25,-0.36 0.36,-0.67 0.11,-0.3 0.15,-0.74 l 1.37,-0.22 q 0.05,0.6 0.1,1.03 0.06,0.43 0.17,1.08 l 0.81,4.57 q 0.08,0.44 0.14,0.68 0.05,0.24 0.12,0.52 0.06,0.22 0.09,0.34 0.04,0.14 0.17,0.5 -0.22,0.02 -0.39,0.04 -0.18,0.05 -0.38,0.08 -0.22,0.04 -0.49,0.11 -0.27,0.07 -0.66,0.18 l -3.67,0.98 q -0.36,0.1 -0.62,0.17 -0.28,0.1 -0.51,0.18 -0.23,0.08 -0.43,0.16 -0.22,0.1 -0.48,0.21 l -0.45,-1.68 q 0.54,-0.04 1.03,-0.15 0.47,-0.08 1.1,-0.25 l 4.18,-1.12 z m -16.97,-5.73 q 1.99,-0.53 3.63,0.53 0.46,0.3 0.87,0.68 0.39,0.38 0.69,0.85 1.24,1.91 1.9,4.38 0.21,0.79 0.35,1.58 0.14,0.79 0.2,1.53 0.05,0.75 0.01,1.4 -0.04,0.65 -0.15,1.14 -0.65,2.78 -3.34,3.5 -1,0.27 -1.91,0.13 -0.93,-0.13 -1.72,-0.66 -0.97,-0.63 -1.56,-1.53 -1.23,-1.89 -1.91,-4.4 -0.48,-1.8 -0.55,-3.39 -0.08,-1.59 0.26,-2.65 0.78,-2.43 3.22,-3.09 z m 3.81,14.23 q 1.37,-0.37 1.96,-1.6 0.4,-0.87 0.41,-1.66 0.08,-1.93 -0.52,-4.14 -0.19,-0.69 -0.42,-1.37 -0.26,-0.67 -0.53,-1.28 -0.29,-0.58 -0.57,-1.06 -0.3,-0.47 -0.57,-0.78 -1.39,-1.47 -3.22,-0.98 -0.68,0.18 -1.17,0.57 -0.49,0.39 -0.78,0.95 -0.42,0.85 -0.42,1.77 -0.06,1.97 0.52,4.14 0.17,0.65 0.42,1.29 0.23,0.66 0.5,1.24 0.28,0.6 0.56,1.08 0.28,0.48 0.55,0.78 1.37,1.56 3.28,1.05 z M 376.7,167.86 q 0.37,0.97 1,2.07 l 5.48,9.5 q 0.34,0.58 0.65,1.04 0.3,0.44 0.64,0.86 l -1.52,0.88 q -0.11,-0.27 -0.22,-0.49 -0.09,-0.23 -0.21,-0.47 -0.12,-0.24 -0.26,-0.49 -0.14,-0.28 -0.33,-0.61 l -5.48,-9.5 q -0.38,-0.66 -0.66,-1.06 -0.28,-0.41 -0.62,-0.85 z m 14.4,10 q -1.79,1.03 -3.65,0.43 -0.52,-0.17 -1.01,-0.43 -0.47,-0.27 -0.88,-0.65 -1.69,-1.53 -2.97,-3.74 -0.41,-0.71 -0.74,-1.44 -0.34,-0.73 -0.59,-1.43 -0.24,-0.71 -0.37,-1.34 -0.13,-0.63 -0.15,-1.14 -0.09,-2.85 2.32,-4.24 0.89,-0.52 1.81,-0.62 0.93,-0.11 1.84,0.19 1.1,0.36 1.9,1.08 1.68,1.51 2.98,3.76 0.93,1.61 1.41,3.13 0.49,1.51 0.43,2.63 -0.12,2.55 -2.31,3.81 z m -7.37,-12.76 q -1.23,0.71 -1.47,2.06 -0.16,0.94 0.03,1.71 0.43,1.88 1.57,3.87 0.36,0.62 0.76,1.21 0.42,0.58 0.85,1.1 0.43,0.48 0.82,0.87 0.41,0.38 0.75,0.6 1.72,1.06 3.36,0.11 0.61,-0.35 0.98,-0.85 0.37,-0.5 0.5,-1.12 0.18,-0.93 -0.05,-1.82 -0.45,-1.92 -1.57,-3.87 -0.34,-0.58 -0.74,-1.13 -0.4,-0.57 -0.81,-1.07 -0.42,-0.51 -0.82,-0.9 -0.39,-0.39 -0.74,-0.61 -1.73,-1.15 -3.44,-0.17 z m 17.86,6.7 q -1.79,1.03 -3.65,0.43 -0.52,-0.17 -1.01,-0.43 -0.47,-0.27 -0.88,-0.65 -1.69,-1.53 -2.97,-3.74 -0.41,-0.71 -0.74,-1.44 -0.34,-0.73 -0.59,-1.43 -0.24,-0.71 -0.37,-1.34 -0.13,-0.63 -0.15,-1.14 -0.09,-2.85 2.32,-4.24 0.89,-0.52 1.81,-0.62 0.93,-0.11 1.84,0.19 1.1,0.36 1.9,1.08 1.68,1.51 2.98,3.76 0.93,1.61 1.41,3.13 0.49,1.51 0.43,2.63 -0.12,2.55 -2.31,3.81 z m -7.37,-12.76 q -1.23,0.71 -1.47,2.06 -0.16,0.94 0.03,1.71 0.43,1.88 1.57,3.87 0.36,0.62 0.76,1.21 0.42,0.58 0.85,1.1 0.43,0.48 0.82,0.87 0.41,0.38 0.75,0.6 1.72,1.06 3.36,0.11 0.61,-0.35 0.98,-0.85 0.37,-0.5 0.5,-1.12 0.18,-0.93 -0.05,-1.82 -0.45,-1.92 -1.57,-3.87 -0.34,-0.58 -0.74,-1.13 -0.4,-0.57 -0.81,-1.07 -0.42,-0.51 -0.82,-0.9 -0.39,-0.39 -0.74,-0.61 -1.73,-1.15 -3.44,-0.17 z m 10.47,-0.49 q 0.06,0.13 0.08,0.21 0.04,0.07 0.07,0.15 0.04,0.07 0.07,0.2 0.05,0.12 0.12,0.31 0.44,-1.89 2.09,-2.84 0.88,-0.51 1.78,-0.6 0.91,-0.12 1.79,0.15 1.72,0.52 2.87,2.5 0.61,1.06 0.81,2.11 0.2,1.04 0,1.99 -0.21,0.93 -0.81,1.72 -0.61,0.78 -1.6,1.35 -1.88,1.09 -3.75,0.56 -0.24,-0.08 -0.46,-0.16 -0.23,-0.1 -0.44,-0.22 -0.22,-0.13 -0.49,-0.29 -0.25,-0.18 -0.58,-0.42 l 1.06,-1.18 q 0.34,0.3 0.56,0.46 0.23,0.15 0.54,0.28 1.45,0.56 2.87,-0.26 0.67,-0.39 1.08,-0.93 0.42,-0.57 0.54,-1.23 0.14,-0.67 -0.01,-1.41 -0.14,-0.77 -0.58,-1.53 -0.85,-1.47 -2.12,-1.9 -1.26,-0.45 -2.54,0.28 -1.23,0.71 -1.66,1.95 -0.14,0.41 -0.17,0.74 -0.03,0.32 0.05,0.75 l -1.27,0.57 q -0.2,-0.57 -0.37,-0.97 -0.17,-0.4 -0.45,-0.99 l -1.96,-4.21 q -0.19,-0.41 -0.32,-0.62 -0.11,-0.22 -0.25,-0.47 -0.11,-0.19 -0.17,-0.3 -0.07,-0.12 -0.3,-0.44 0.21,-0.08 0.37,-0.14 0.16,-0.09 0.35,-0.18 0.2,-0.09 0.44,-0.23 0.24,-0.14 0.59,-0.34 l 3.29,-1.9 q 0.32,-0.18 0.56,-0.32 0.25,-0.17 0.44,-0.3 0.2,-0.14 0.38,-0.27 0.19,-0.16 0.41,-0.33 l 0.87,1.51 q -0.51,0.18 -0.96,0.41 -0.44,0.2 -0.99,0.53 l -3.76,2.14 z M 113.71,323.64 q -0.4,-0.36 -0.64,-0.53 -0.26,-0.16 -0.59,-0.28 -1.15,-0.45 -2.49,0.33 -0.86,0.5 -1.26,1.25 -0.41,0.76 -0.37,1.87 0.02,0.55 0.19,1.26 0.17,0.73 0.43,1.41 0.15,0.36 0.42,0.91 0.28,0.55 0.63,1.24 -0.03,-0.46 -0.01,-0.72 0,-0.26 0.08,-0.64 0.24,-0.99 0.77,-1.7 0.51,-0.7 1.42,-1.22 0.89,-0.52 1.8,-0.64 0.91,-0.12 1.75,0.15 0.84,0.27 1.61,0.94 0.77,0.67 1.32,1.62 0.61,1.06 0.8,2.09 0.18,1.05 -0.03,1.98 -0.2,0.94 -0.81,1.72 -0.6,0.8 -1.59,1.37 -1.36,0.78 -2.84,0.58 -1.48,-0.21 -2.74,-1.32 -0.66,-0.59 -1.29,-1.43 -0.63,-0.84 -1.3,-1.99 -1.07,-1.86 -1.58,-3.51 -0.49,-1.63 -0.36,-2.91 0.12,-1.2 0.69,-2.08 0.57,-0.85 1.67,-1.49 1.66,-0.96 3.23,-0.59 0.51,0.11 0.96,0.34 0.45,0.23 1.17,0.77 z m -0.88,4.45 q -0.67,0.39 -1.09,0.96 -0.43,0.58 -0.6,1.24 -0.16,0.68 -0.04,1.41 0.11,0.74 0.52,1.45 0.41,0.71 0.99,1.2 0.58,0.49 1.24,0.7 0.65,0.21 1.36,0.14 0.7,-0.05 1.33,-0.42 0.8,-0.46 1.23,-1.26 0.45,-0.78 0.44,-1.72 -0.01,-0.47 -0.19,-1.03 -0.17,-0.56 -0.47,-1.07 -0.87,-1.51 -2.15,-1.95 -1.27,-0.43 -2.58,0.33 z m -6.75,2.29 q -0.07,0.47 -0.12,0.97 -0.07,0.51 -0.13,1 l -0.81,7.93 q -0.08,0.78 -0.11,1.32 -0.04,0.56 -0.04,1.18 l -1.2,0.69 q -0.19,-0.41 -0.36,-0.74 -0.17,-0.33 -0.35,-0.67 -0.18,-0.35 -0.4,-0.74 -0.21,-0.37 -0.52,-0.9 l -3.36,-5.81 -0.61,0.35 q -0.51,0.29 -0.85,0.52 -0.35,0.25 -0.74,0.57 l -0.85,-1.47 q 0.49,-0.19 0.87,-0.38 0.37,-0.17 0.88,-0.46 l 0.59,-0.34 -0.88,-1.52 q -0.18,-0.32 -0.33,-0.57 -0.16,-0.24 -0.3,-0.44 -0.14,-0.2 -0.28,-0.41 -0.15,-0.19 -0.33,-0.42 l 1.45,-0.84 q 0.19,0.51 0.42,0.94 0.21,0.44 0.56,1.05 l 0.88,1.52 4.28,-2.47 q 0.67,-0.39 1.08,-0.64 0.4,-0.26 0.78,-0.52 z m -3.63,8.02 q 0.2,0.35 0.37,0.64 0.17,0.3 0.31,0.58 0.15,0.29 0.3,0.59 0.16,0.31 0.32,0.67 0.02,-0.56 0.07,-1.17 0.04,-0.59 0.11,-1.29 l 0.71,-7.26 -4.77,2.76 z m -7.14,3.04 q -0.06,-0.13 -0.08,-0.21 -0.04,-0.07 -0.07,-0.15 -0.04,-0.07 -0.07,-0.2 -0.05,-0.12 -0.12,-0.31 -0.44,1.89 -2.09,2.84 -0.88,0.51 -1.78,0.6 -0.91,0.12 -1.79,-0.15 -1.72,-0.52 -2.87,-2.5 -0.61,-1.06 -0.81,-2.11 -0.2,-1.04 0,-1.99 0.21,-0.93 0.81,-1.72 0.61,-0.78 1.6,-1.35 1.88,-1.09 3.75,-0.56 0.24,0.08 0.46,0.16 0.23,0.1 0.44,0.22 0.22,0.13 0.49,0.29 0.25,0.18 0.58,0.42 l -1.06,1.18 q -0.34,-0.3 -0.56,-0.46 -0.23,-0.15 -0.54,-0.28 -1.45,-0.56 -2.87,0.26 -0.67,0.39 -1.08,0.93 -0.42,0.57 -0.54,1.23 -0.14,0.67 0.01,1.41 0.14,0.77 0.58,1.53 0.85,1.47 2.12,1.9 1.26,0.45 2.54,-0.28 1.23,-0.71 1.66,-1.95 0.14,-0.41 0.17,-0.74 0.03,-0.32 -0.05,-0.75 l 1.27,-0.57 q 0.2,0.57 0.37,0.97 0.17,0.4 0.45,0.99 l 1.96,4.21 q 0.19,0.41 0.32,0.62 0.11,0.22 0.25,0.47 0.11,0.19 0.17,0.3 0.07,0.12 0.3,0.44 -0.21,0.08 -0.37,0.14 -0.16,0.09 -0.35,0.18 -0.2,0.09 -0.44,0.23 -0.24,0.14 -0.59,0.34 l -3.29,1.9 q -0.32,0.18 -0.56,0.32 -0.25,0.17 -0.44,0.3 -0.2,0.14 -0.38,0.27 -0.19,0.16 -0.41,0.33 l -0.87,-1.51 q 0.51,-0.18 0.96,-0.41 0.44,-0.2 0.99,-0.53 l 3.75,-2.17 z M 351.12,137.87 q 0.61,0.84 1.5,1.74 l 7.76,7.76 q 0.48,0.48 0.89,0.84 0.4,0.35 0.84,0.66 l -1.24,1.24 q -0.18,-0.23 -0.34,-0.42 -0.15,-0.2 -0.32,-0.4 -0.18,-0.2 -0.38,-0.4 -0.2,-0.23 -0.48,-0.5 l -7.76,-7.76 q -0.54,-0.54 -0.91,-0.86 -0.37,-0.32 -0.82,-0.66 z m 16.49,5.93 q -1.46,1.46 -3.41,1.36 -0.55,-0.03 -1.09,-0.15 -0.53,-0.14 -1.02,-0.4 -2.03,-1.04 -3.84,-2.85 -0.58,-0.58 -1.09,-1.2 -0.51,-0.62 -0.94,-1.23 -0.42,-0.63 -0.71,-1.2 -0.29,-0.58 -0.44,-1.07 -0.83,-2.73 1.14,-4.7 0.73,-0.73 1.59,-1.07 0.87,-0.35 1.82,-0.29 1.16,0.06 2.11,0.55 2.01,1.02 3.85,2.86 1.32,1.32 2.17,2.66 0.86,1.33 1.1,2.43 0.54,2.5 -1.24,4.28 z m -10.42,-10.42 q -1,1 -0.89,2.37 0.09,0.95 0.47,1.64 0.9,1.71 2.52,3.33 0.51,0.51 1.05,0.97 0.56,0.45 1.1,0.84 0.54,0.36 1.02,0.63 0.49,0.26 0.88,0.39 1.94,0.58 3.28,-0.76 0.5,-0.5 0.73,-1.07 0.23,-0.58 0.2,-1.21 -0.06,-0.95 -0.52,-1.74 -0.93,-1.74 -2.52,-3.33 -0.48,-0.48 -1.01,-0.9 -0.53,-0.45 -1.06,-0.82 -0.54,-0.38 -1.02,-0.66 -0.48,-0.27 -0.87,-0.4 -1.97,-0.66 -3.36,0.73 z m 18.98,1.85 q -1.46,1.46 -3.41,1.36 -0.55,-0.03 -1.09,-0.15 -0.53,-0.14 -1.02,-0.4 -2.03,-1.04 -3.84,-2.85 -0.58,-0.58 -1.09,-1.2 -0.51,-0.62 -0.94,-1.23 -0.42,-0.63 -0.71,-1.2 -0.29,-0.58 -0.44,-1.07 -0.83,-2.73 1.14,-4.7 0.73,-0.73 1.59,-1.07 0.87,-0.35 1.82,-0.29 1.16,0.06 2.11,0.55 2.01,1.02 3.85,2.86 1.32,1.32 2.17,2.66 0.86,1.33 1.1,2.43 0.54,2.5 -1.24,4.28 z m -10.42,-10.42 q -1,1 -0.89,2.37 0.09,0.95 0.47,1.64 0.9,1.71 2.52,3.33 0.51,0.51 1.05,0.97 0.56,0.45 1.1,0.84 0.54,0.36 1.02,0.63 0.49,0.26 0.88,0.39 1.94,0.58 3.28,-0.76 0.5,-0.5 0.73,-1.07 0.23,-0.58 0.2,-1.21 -0.06,-0.95 -0.52,-1.74 -0.93,-1.74 -2.52,-3.33 -0.48,-0.48 -1.01,-0.9 -0.53,-0.45 -1.06,-0.82 -0.54,-0.38 -1.02,-0.66 -0.48,-0.27 -0.87,-0.4 -1.97,-0.66 -3.36,0.73 z m 18.98,1.85 q -1.46,1.46 -3.41,1.36 -0.55,-0.03 -1.09,-0.15 -0.53,-0.14 -1.02,-0.4 -2.03,-1.04 -3.84,-2.85 -0.58,-0.58 -1.09,-1.2 -0.51,-0.62 -0.94,-1.23 -0.42,-0.63 -0.71,-1.2 -0.29,-0.58 -0.44,-1.07 -0.83,-2.73 1.14,-4.7 0.73,-0.73 1.59,-1.07 0.87,-0.35 1.82,-0.29 1.16,0.06 2.11,0.55 2.01,1.02 3.85,2.86 1.32,1.32 2.17,2.66 0.86,1.33 1.1,2.43 0.54,2.5 -1.24,4.28 z m -10.42,-10.42 q -1,1 -0.89,2.37 0.09,0.95 0.47,1.64 0.9,1.71 2.52,3.33 0.51,0.51 1.05,0.97 0.56,0.45 1.1,0.84 0.54,0.36 1.02,0.63 0.49,0.26 0.88,0.39 1.94,0.58 3.28,-0.76 0.5,-0.5 0.73,-1.07 0.23,-0.58 0.2,-1.21 -0.06,-0.95 -0.52,-1.74 -0.93,-1.74 -2.52,-3.33 -0.48,-0.48 -1.01,-0.9 -0.53,-0.45 -1.06,-0.82 -0.54,-0.38 -1.02,-0.66 -0.48,-0.27 -0.87,-0.4 -1.97,-0.66 -3.36,0.73 z m -236.9,240.17 q -0.48,-0.24 -0.76,-0.34 -0.29,-0.08 -0.64,-0.12 -1.23,-0.13 -2.32,0.96 -0.7,0.7 -0.89,1.53 -0.2,0.84 0.13,1.9 0.16,0.53 0.51,1.17 0.35,0.66 0.78,1.25 0.24,0.31 0.64,0.77 0.41,0.46 0.93,1.04 -0.15,-0.43 -0.2,-0.7 -0.07,-0.25 -0.09,-0.64 -0.03,-1.02 0.3,-1.84 0.31,-0.81 1.06,-1.55 0.73,-0.73 1.58,-1.08 0.85,-0.35 1.73,-0.31 0.88,0.05 1.79,0.49 0.91,0.45 1.7,1.23 0.87,0.87 1.31,1.81 0.45,0.97 0.48,1.92 0.05,0.96 -0.34,1.87 -0.38,0.93 -1.19,1.73 -1.11,1.11 -2.59,1.29 -1.49,0.18 -2.99,-0.57 -0.79,-0.4 -1.62,-1.04 -0.83,-0.65 -1.77,-1.59 -1.52,-1.52 -2.43,-2.98 -0.9,-1.45 -1.1,-2.72 -0.2,-1.19 0.13,-2.19 0.33,-0.97 1.23,-1.87 1.36,-1.36 2.97,-1.41 0.52,-0.03 1.02,0.08 0.5,0.11 1.33,0.44 z m 0.3,4.53 q -0.55,0.55 -0.8,1.21 -0.27,0.67 -0.26,1.36 0.02,0.7 0.33,1.38 0.3,0.69 0.88,1.27 0.58,0.58 1.27,0.9 0.69,0.32 1.38,0.36 0.69,0.04 1.35,-0.22 0.66,-0.23 1.18,-0.75 0.65,-0.65 0.87,-1.53 0.23,-0.87 -0.02,-1.77 -0.13,-0.45 -0.45,-0.94 -0.31,-0.5 -0.73,-0.92 -1.23,-1.23 -2.58,-1.33 -1.33,-0.08 -2.4,0.99 z m -5.92,3.96 q 0.05,0.47 0.13,0.97 0.07,0.51 0.13,0.99 l 1.27,7.87 q 0.12,0.77 0.23,1.3 0.11,0.55 0.27,1.15 l -0.98,0.98 q -0.29,-0.34 -0.54,-0.62 -0.25,-0.27 -0.51,-0.56 -0.26,-0.29 -0.58,-0.61 -0.3,-0.3 -0.74,-0.74 l -4.75,-4.75 -0.5,0.5 q -0.42,0.42 -0.69,0.72 -0.27,0.33 -0.56,0.74 l -1.2,-1.2 q 0.42,-0.31 0.74,-0.59 0.32,-0.26 0.73,-0.68 l 0.48,-0.48 -1.24,-1.24 q -0.26,-0.26 -0.46,-0.46 -0.22,-0.19 -0.4,-0.35 -0.19,-0.16 -0.37,-0.32 -0.2,-0.15 -0.43,-0.32 l 1.19,-1.19 q 0.31,0.44 0.65,0.8 0.32,0.37 0.81,0.87 l 1.24,1.24 3.49,-3.49 q 0.55,-0.55 0.87,-0.9 0.32,-0.35 0.62,-0.71 z m -1.43,8.69 q 0.29,0.29 0.52,0.52 0.25,0.25 0.45,0.48 0.22,0.24 0.44,0.49 0.23,0.26 0.48,0.56 -0.12,-0.54 -0.24,-1.15 -0.11,-0.58 -0.23,-1.27 l -1.2,-7.19 -3.9,3.9 z m -15.11,-0.25 q 1.46,-1.46 3.41,-1.36 0.55,0.03 1.09,0.15 0.53,0.14 1.02,0.4 2.03,1.04 3.84,2.85 0.58,0.58 1.09,1.2 0.51,0.62 0.94,1.23 0.42,0.63 0.71,1.2 0.29,0.58 0.44,1.07 0.83,2.73 -1.14,4.7 -0.73,0.73 -1.59,1.07 -0.87,0.35 -1.82,0.29 -1.16,-0.06 -2.11,-0.55 -2.01,-1.02 -3.85,-2.86 -1.32,-1.32 -2.17,-2.66 -0.86,-1.33 -1.1,-2.43 -0.54,-2.5 1.24,-4.28 z m 10.42,10.42 q 1,-1 0.89,-2.37 -0.09,-0.95 -0.47,-1.64 -0.9,-1.71 -2.52,-3.33 -0.51,-0.51 -1.05,-0.97 -0.56,-0.45 -1.1,-0.84 -0.54,-0.36 -1.02,-0.63 -0.49,-0.26 -0.88,-0.39 -1.94,-0.58 -3.28,0.76 -0.5,0.5 -0.73,1.07 -0.23,0.58 -0.2,1.21 0.06,0.95 0.52,1.74 0.93,1.74 2.52,3.33 0.48,0.48 1.01,0.9 0.53,0.45 1.06,0.82 0.54,0.38 1.02,0.66 0.48,0.27 0.87,0.4 1.97,0.66 3.36,-0.73 z M 331.25,118.02 q 0.53,0.11 0.82,0.13 0.3,0.01 0.65,-0.05 1.22,-0.19 1.99,-1.53 0.5,-0.86 0.47,-1.71 -0.02,-0.86 -0.61,-1.8 -0.3,-0.47 -0.8,-0.99 -0.51,-0.55 -1.07,-1 -0.31,-0.24 -0.82,-0.58 -0.51,-0.34 -1.17,-0.76 0.25,0.38 0.37,0.62 0.13,0.22 0.25,0.59 0.29,0.98 0.18,1.85 -0.1,0.86 -0.62,1.77 -0.52,0.89 -1.24,1.45 -0.73,0.56 -1.59,0.74 -0.86,0.18 -1.86,-0.01 -1,-0.19 -1.96,-0.75 -1.06,-0.61 -1.74,-1.41 -0.68,-0.82 -0.96,-1.73 -0.3,-0.92 -0.16,-1.9 0.12,-0.99 0.7,-1.98 0.78,-1.36 2.17,-1.92 1.39,-0.56 3.04,-0.23 0.86,0.18 1.83,0.59 0.97,0.41 2.12,1.08 1.86,1.07 3.12,2.25 1.24,1.16 1.77,2.34 0.5,1.1 0.44,2.15 -0.07,1.02 -0.71,2.12 -0.96,1.66 -2.51,2.13 -0.49,0.16 -1.01,0.19 -0.51,0.02 -1.39,-0.08 z m -1.47,-4.3 q 0.39,-0.67 0.46,-1.37 0.08,-0.72 -0.1,-1.38 -0.2,-0.67 -0.68,-1.24 -0.46,-0.59 -1.17,-1 -0.71,-0.41 -1.46,-0.54 -0.75,-0.13 -1.42,0.01 -0.67,0.14 -1.24,0.56 -0.58,0.39 -0.95,1.03 -0.46,0.8 -0.44,1.7 0,0.9 0.48,1.7 0.24,0.4 0.68,0.79 0.43,0.4 0.95,0.69 1.51,0.87 2.83,0.61 1.31,-0.27 2.07,-1.57 z m 7.52,-6.19 q 0.53,0.11 0.82,0.13 0.3,0.01 0.65,-0.05 1.22,-0.19 1.99,-1.53 0.5,-0.86 0.47,-1.71 -0.02,-0.86 -0.61,-1.8 -0.3,-0.47 -0.8,-0.99 -0.51,-0.55 -1.07,-1 -0.31,-0.24 -0.82,-0.58 -0.51,-0.34 -1.17,-0.76 0.25,0.38 0.37,0.62 0.13,0.22 0.25,0.59 0.29,0.98 0.18,1.85 -0.1,0.86 -0.62,1.77 -0.52,0.89 -1.24,1.45 -0.73,0.56 -1.59,0.74 -0.86,0.18 -1.86,-0.01 -1,-0.19 -1.96,-0.75 -1.06,-0.61 -1.74,-1.41 -0.68,-0.82 -0.96,-1.73 -0.3,-0.92 -0.16,-1.9 0.12,-0.99 0.7,-1.98 0.78,-1.36 2.17,-1.92 1.39,-0.56 3.04,-0.23 0.86,0.18 1.83,0.59 0.97,0.41 2.12,1.08 1.86,1.07 3.12,2.25 1.24,1.16 1.77,2.34 0.5,1.1 0.44,2.15 -0.07,1.02 -0.71,2.12 -0.96,1.66 -2.51,2.13 -0.49,0.16 -1.01,0.19 -0.51,0.02 -1.39,-0.08 z m -1.47,-4.3 q 0.39,-0.67 0.46,-1.37 0.08,-0.72 -0.1,-1.38 -0.2,-0.67 -0.68,-1.24 -0.46,-0.59 -1.17,-1 -0.71,-0.41 -1.46,-0.54 -0.75,-0.13 -1.42,0.01 -0.67,0.14 -1.24,0.56 -0.58,0.39 -0.95,1.03 -0.46,0.8 -0.44,1.7 0,0.9 0.48,1.7 0.24,0.4 0.68,0.79 0.43,0.4 0.95,0.69 1.51,0.87 2.83,0.61 1.31,-0.27 2.07,-1.57 z m 2.4,-9.77 q 0.11,0.09 0.18,0.14 0.07,0.04 0.13,0.1 0.07,0.04 0.16,0.13 0.1,0.08 0.26,0.21 -0.56,-1.86 0.39,-3.5 0.51,-0.88 1.24,-1.41 0.73,-0.56 1.62,-0.77 1.75,-0.41 3.74,0.73 1.06,0.61 1.76,1.42 0.69,0.8 0.99,1.72 0.28,0.91 0.16,1.9 -0.14,0.98 -0.71,1.97 -1.09,1.88 -2.97,2.35 -0.24,0.05 -0.48,0.09 -0.25,0.03 -0.49,0.03 -0.26,0 -0.56,-0.01 -0.31,-0.03 -0.71,-0.07 l 0.33,-1.55 q 0.45,0.09 0.71,0.11 0.28,0.01 0.61,-0.03 1.53,-0.24 2.35,-1.66 0.39,-0.67 0.47,-1.35 0.07,-0.7 -0.15,-1.34 -0.21,-0.65 -0.71,-1.22 -0.51,-0.59 -1.27,-1.03 -1.47,-0.85 -2.78,-0.58 -1.32,0.24 -2.06,1.52 -0.71,1.23 -0.46,2.52 0.08,0.43 0.22,0.72 0.14,0.29 0.42,0.63 l -0.82,1.13 q -0.46,-0.39 -0.8,-0.66 -0.34,-0.26 -0.88,-0.64 l -3.8,-2.66 q -0.37,-0.26 -0.58,-0.38 -0.2,-0.14 -0.45,-0.28 -0.19,-0.11 -0.3,-0.17 -0.12,-0.07 -0.48,-0.23 0.15,-0.17 0.25,-0.3 0.09,-0.16 0.21,-0.33 0.13,-0.18 0.27,-0.42 0.14,-0.24 0.34,-0.59 l 1.9,-3.29 q 0.18,-0.32 0.32,-0.56 0.13,-0.27 0.23,-0.48 0.1,-0.22 0.19,-0.42 0.08,-0.23 0.19,-0.49 l 1.51,0.87 q -0.36,0.41 -0.62,0.83 -0.28,0.39 -0.6,0.95 l -2.17,3.75 z m -43.92,8.02 q 0.54,-0.03 0.83,-0.08 0.3,-0.07 0.61,-0.22 1.13,-0.5 1.53,-1.99 0.26,-0.96 0.01,-1.77 -0.24,-0.83 -1.06,-1.58 -0.41,-0.38 -1.03,-0.75 -0.63,-0.4 -1.3,-0.69 -0.36,-0.15 -0.94,-0.35 -0.58,-0.19 -1.32,-0.43 0.34,0.3 0.52,0.5 0.18,0.18 0.39,0.51 0.53,0.87 0.66,1.74 0.13,0.86 -0.14,1.87 -0.27,1 -0.82,1.73 -0.56,0.73 -1.34,1.13 -0.79,0.4 -1.8,0.47 -1.01,0.07 -2.08,-0.21 -1.19,-0.32 -2.04,-0.91 -0.87,-0.62 -1.38,-1.42 -0.52,-0.81 -0.64,-1.79 -0.14,-0.99 0.16,-2.1 0.41,-1.51 1.6,-2.41 1.19,-0.9 2.87,-1 0.88,-0.05 1.92,0.1 1.04,0.15 2.33,0.49 2.08,0.56 3.6,1.36 1.5,0.8 2.31,1.8 0.77,0.93 0.98,1.96 0.2,1.01 -0.13,2.24 -0.5,1.85 -1.87,2.71 -0.44,0.28 -0.92,0.44 -0.49,0.16 -1.37,0.28 z m -2.53,-3.77 q 0.2,-0.75 0.09,-1.45 -0.1,-0.72 -0.46,-1.31 -0.37,-0.6 -0.98,-1.02 -0.6,-0.45 -1.39,-0.66 -0.79,-0.21 -1.55,-0.15 -0.76,0.06 -1.37,0.38 -0.61,0.31 -1.06,0.86 -0.46,0.53 -0.65,1.24 -0.24,0.89 0.02,1.76 0.23,0.86 0.91,1.52 0.34,0.32 0.86,0.59 0.52,0.27 1.09,0.43 1.68,0.45 2.9,-0.14 1.2,-0.6 1.59,-2.06 z m 5.66,-7.93 q 0.54,-0.03 0.83,-0.08 0.3,-0.07 0.61,-0.22 1.13,-0.5 1.53,-1.99 0.26,-0.96 0.01,-1.77 -0.24,-0.83 -1.06,-1.58 -0.41,-0.38 -1.03,-0.75 -0.63,-0.4 -1.3,-0.69 -0.36,-0.15 -0.94,-0.35 -0.58,-0.19 -1.32,-0.43 0.34,0.3 0.52,0.5 0.18,0.18 0.39,0.51 0.53,0.87 0.66,1.74 0.13,0.86 -0.14,1.87 -0.27,1 -0.82,1.73 -0.56,0.73 -1.34,1.13 -0.79,0.4 -1.8,0.47 -1.01,0.07 -2.08,-0.21 -1.19,-0.32 -2.04,-0.91 -0.87,-0.62 -1.38,-1.42 -0.52,-0.81 -0.64,-1.79 -0.14,-0.99 0.16,-2.1 0.41,-1.51 1.6,-2.41 1.19,-0.9 2.87,-1 0.88,-0.05 1.92,0.1 1.04,0.15 2.33,0.49 2.08,0.56 3.6,1.36 1.5,0.8 2.31,1.8 0.77,0.93 0.98,1.96 0.2,1.01 -0.13,2.24 -0.5,1.85 -1.87,2.71 -0.44,0.28 -0.92,0.44 -0.49,0.16 -1.37,0.28 z m -2.53,-3.77 q 0.2,-0.75 0.09,-1.45 -0.1,-0.72 -0.46,-1.31 -0.37,-0.6 -0.98,-1.02 -0.6,-0.45 -1.39,-0.66 -0.79,-0.21 -1.55,-0.15 -0.76,0.06 -1.37,0.38 -0.61,0.31 -1.06,0.86 -0.46,0.53 -0.65,1.24 -0.24,0.89 0.02,1.76 0.23,0.86 0.91,1.52 0.34,0.32 0.86,0.59 0.52,0.27 1.09,0.43 1.68,0.45 2.9,-0.14 1.2,-0.6 1.59,-2.06 z m 10.1,-10.19 q -0.53,1.99 -2.28,2.88 -0.49,0.25 -1.02,0.41 -0.53,0.15 -1.08,0.17 -2.28,0.12 -4.75,-0.55 -0.79,-0.21 -1.54,-0.49 -0.75,-0.28 -1.43,-0.59 -0.67,-0.33 -1.21,-0.69 -0.54,-0.35 -0.91,-0.7 -2.08,-1.95 -1.36,-4.64 0.27,-1 0.84,-1.72 0.58,-0.74 1.43,-1.16 1.03,-0.53 2.1,-0.58 2.26,-0.12 4.77,0.55 1.8,0.48 3.21,1.22 1.42,0.72 2.17,1.55 1.72,1.89 1.06,4.33 z m -14.23,-3.81 q -0.37,1.37 0.41,2.5 0.55,0.78 1.23,1.19 1.63,1.03 3.84,1.62 0.69,0.19 1.4,0.32 0.71,0.11 1.37,0.18 0.65,0.04 1.2,0.03 0.56,-0.02 0.96,-0.11 1.97,-0.47 2.46,-2.3 0.18,-0.68 0.09,-1.29 -0.09,-0.62 -0.43,-1.15 -0.53,-0.79 -1.32,-1.25 -1.67,-1.04 -3.84,-1.62 -0.65,-0.17 -1.32,-0.28 -0.69,-0.13 -1.33,-0.18 -0.66,-0.06 -1.21,-0.06 -0.55,0 -0.96,0.09 -2.04,0.41 -2.55,2.31 z m -72.29,325.66 q -0.95,-0.43 -2.17,-0.75 l -10.59,-2.84 q -0.65,-0.17 -1.2,-0.28 -0.52,-0.1 -1.06,-0.15 l 0.45,-1.69 q 0.27,0.11 0.5,0.19 0.23,0.1 0.48,0.19 0.25,0.09 0.53,0.16 0.29,0.1 0.67,0.2 l 10.59,2.84 q 0.73,0.2 1.22,0.29 0.48,0.09 1.04,0.16 z m -17.25,3.11 q 0.53,-1.99 2.28,-2.88 0.49,-0.25 1.02,-0.41 0.53,-0.15 1.08,-0.17 2.28,-0.12 4.75,0.55 0.79,0.21 1.54,0.49 0.75,0.28 1.43,0.59 0.67,0.33 1.21,0.69 0.54,0.35 0.91,0.7 2.08,1.95 1.36,4.64 -0.27,1 -0.84,1.72 -0.58,0.74 -1.43,1.16 -1.03,0.53 -2.1,0.58 -2.26,0.12 -4.77,-0.55 -1.8,-0.48 -3.21,-1.22 -1.42,-0.72 -2.17,-1.55 -1.72,-1.89 -1.06,-4.33 z m 14.23,3.81 q 0.37,-1.37 -0.41,-2.5 -0.55,-0.78 -1.23,-1.19 -1.63,-1.03 -3.84,-1.62 -0.69,-0.19 -1.4,-0.32 -0.71,-0.11 -1.37,-0.18 -0.65,-0.04 -1.2,-0.03 -0.56,0.02 -0.96,0.11 -1.97,0.47 -2.46,2.3 -0.18,0.68 -0.09,1.29 0.09,0.62 0.43,1.15 0.53,0.79 1.32,1.25 1.67,1.04 3.84,1.62 0.65,0.17 1.32,0.28 0.69,0.13 1.33,0.18 0.66,0.06 1.21,0.06 0.55,-0.01 0.96,-0.09 2.04,-0.41 2.55,-2.31 z m -7.05,7.75 q -0.13,-0.05 -0.21,-0.09 -0.08,-0.02 -0.15,-0.06 -0.08,-0.02 -0.19,-0.09 -0.11,-0.05 -0.3,-0.14 1.02,1.65 0.53,3.48 -0.26,0.98 -0.83,1.69 -0.56,0.73 -1.37,1.16 -1.58,0.85 -3.8,0.26 -1.19,-0.32 -2.06,-0.92 -0.88,-0.6 -1.4,-1.41 -0.51,-0.8 -0.64,-1.79 -0.12,-0.99 0.18,-2.09 0.56,-2.1 2.26,-3.04 0.22,-0.11 0.44,-0.21 0.24,-0.09 0.47,-0.16 0.25,-0.07 0.55,-0.14 0.31,-0.05 0.71,-0.12 l 0.08,1.59 q -0.45,0.03 -0.72,0.07 -0.27,0.06 -0.58,0.19 -1.42,0.63 -1.84,2.22 -0.2,0.75 -0.11,1.42 0.11,0.7 0.49,1.26 0.37,0.58 1,0.99 0.64,0.44 1.49,0.67 1.64,0.44 2.84,-0.16 1.21,-0.57 1.59,-2 0.37,-1.37 -0.21,-2.56 -0.19,-0.39 -0.4,-0.64 -0.21,-0.25 -0.57,-0.5 l 0.5,-1.3 q 0.54,0.26 0.95,0.43 0.4,0.16 1.02,0.39 l 4.36,1.59 q 0.43,0.15 0.66,0.22 0.23,0.08 0.51,0.16 0.22,0.06 0.34,0.09 0.14,0.04 0.52,0.1 -0.1,0.2 -0.16,0.36 -0.05,0.18 -0.12,0.37 -0.08,0.21 -0.15,0.48 -0.07,0.27 -0.18,0.66 l -0.98,3.67 q -0.1,0.36 -0.17,0.62 -0.06,0.29 -0.1,0.53 -0.04,0.24 -0.08,0.46 -0.02,0.24 -0.05,0.52 l -1.68,-0.45 q 0.24,-0.49 0.39,-0.97 0.16,-0.45 0.33,-1.08 l 1.12,-4.18 z m -13.45,11.84 q 0.53,-1.99 2.28,-2.88 0.49,-0.25 1.02,-0.41 0.53,-0.15 1.08,-0.17 2.28,-0.12 4.75,0.55 0.79,0.21 1.54,0.49 0.75,0.28 1.43,0.59 0.67,0.33 1.21,0.69 0.54,0.35 0.91,0.7 2.08,1.95 1.36,4.64 -0.27,1 -0.84,1.72 -0.58,0.74 -1.43,1.16 -1.03,0.53 -2.1,0.58 -2.26,0.12 -4.77,-0.55 -1.8,-0.48 -3.21,-1.22 -1.42,-0.72 -2.17,-1.55 -1.72,-1.89 -1.06,-4.33 z m 14.23,3.81 q 0.37,-1.37 -0.41,-2.5 -0.55,-0.78 -1.23,-1.19 -1.63,-1.03 -3.84,-1.62 -0.69,-0.19 -1.4,-0.32 -0.71,-0.11 -1.37,-0.18 -0.65,-0.04 -1.2,-0.03 -0.56,0.02 -0.96,0.11 -1.97,0.47 -2.46,2.3 -0.18,0.68 -0.09,1.29 0.09,0.62 0.43,1.15 0.53,0.79 1.32,1.25 1.67,1.04 3.84,1.62 0.65,0.17 1.32,0.28 0.69,0.13 1.33,0.18 0.66,0.06 1.21,0.06 0.55,-0.01 0.96,-0.09 2.04,-0.41 2.55,-2.31 z M 254.37,95.07 q 0.51,-0.17 0.78,-0.29 0.27,-0.15 0.53,-0.37 0.96,-0.77 0.96,-2.32 0,-1 -0.45,-1.71 -0.45,-0.74 -1.43,-1.25 -0.49,-0.26 -1.19,-0.46 -0.72,-0.22 -1.43,-0.33 -0.39,-0.06 -1,-0.09 -0.61,-0.04 -1.39,-0.07 0.41,0.2 0.63,0.35 0.23,0.13 0.51,0.39 0.74,0.7 1.08,1.51 0.35,0.79 0.35,1.84 0,1.03 -0.35,1.88 -0.35,0.85 -1,1.44 -0.65,0.59 -1.62,0.92 -0.96,0.33 -2.07,0.33 -1.23,0 -2.21,-0.35 -1,-0.37 -1.7,-1.01 -0.72,-0.65 -1.08,-1.57 -0.39,-0.92 -0.39,-2.06 0,-1.57 0.92,-2.75 0.92,-1.18 2.52,-1.71 0.84,-0.28 1.88,-0.41 1.04,-0.13 2.37,-0.13 2.15,0 3.83,0.39 1.66,0.39 2.7,1.14 0.98,0.7 1.45,1.64 0.45,0.92 0.45,2.19 0,1.92 -1.1,3.1 -0.35,0.39 -0.78,0.66 -0.43,0.28 -1.25,0.63 z m -3.42,-2.99 q 0,-0.77 -0.29,-1.42 -0.29,-0.66 -0.78,-1.14 -0.51,-0.48 -1.21,-0.74 -0.7,-0.28 -1.51,-0.28 -0.82,0 -1.53,0.26 -0.72,0.26 -1.23,0.72 -0.51,0.46 -0.8,1.11 -0.31,0.63 -0.31,1.36 0,0.92 0.47,1.7 0.45,0.77 1.27,1.24 0.41,0.22 0.98,0.35 0.57,0.13 1.17,0.13 1.74,0 2.76,-0.88 1,-0.88 1,-2.4 z m -1.33,-14.34 q 0.1,-0.59 0.31,-1.01 0.18,-0.42 0.57,-0.88 1.15,-1.38 3.21,-1.38 2.11,0 3.25,1.33 1.13,1.31 1.13,3.76 0,2.54 -1.13,3.89 -1.13,1.35 -3.25,1.35 -2.21,0 -3.4,-1.64 -0.31,-0.42 -0.45,-0.77 -0.14,-0.37 -0.25,-0.88 -0.25,1.22 -1.25,1.95 -1,0.72 -2.43,0.72 -0.92,0 -1.68,-0.31 -0.76,-0.31 -1.27,-0.9 -0.53,-0.59 -0.82,-1.42 -0.29,-0.85 -0.29,-1.9 0,-2.12 1.08,-3.34 1.06,-1.22 2.97,-1.22 1.43,0 2.43,0.72 0.98,0.72 1.25,1.95 z m -6.36,1.88 q 0,1.42 0.76,2.27 0.76,0.83 2.05,0.83 1.37,0 2.15,-0.83 0.78,-0.83 0.78,-2.29 0,-1.46 -0.78,-2.27 -0.78,-0.83 -2.15,-0.83 -1.29,0 -2.05,0.85 -0.76,0.83 -0.76,2.27 z m 7.14,0 q 0,1.71 0.86,2.69 0.86,0.96 2.35,0.96 1.47,0 2.29,-0.94 0.8,-0.96 0.8,-2.69 0,-0.98 -0.27,-1.73 -0.27,-0.76 -0.8,-1.24 -0.72,-0.7 -2.03,-0.7 -1.51,0 -2.35,0.98 -0.86,0.96 -0.86,2.67 z m -2.25,-9.31 q 0.14,0.02 0.23,0.04 0.08,0 0.16,0.02 0.08,0 0.2,0.04 0.12,0.02 0.33,0.06 -1.41,-1.33 -1.41,-3.23 0,-1.01 0.37,-1.84 0.35,-0.85 1.02,-1.47 1.31,-1.24 3.6,-1.24 1.23,0 2.23,0.35 1,0.35 1.72,1 0.7,0.65 1.08,1.57 0.37,0.92 0.37,2.06 0,2.18 -1.39,3.52 -0.18,0.17 -0.37,0.31 -0.2,0.15 -0.41,0.28 -0.23,0.13 -0.49,0.28 -0.29,0.13 -0.65,0.29 l -0.49,-1.51 q 0.43,-0.15 0.68,-0.26 0.25,-0.13 0.51,-0.33 1.21,-0.98 1.21,-2.62 0,-0.77 -0.27,-1.4 -0.29,-0.65 -0.8,-1.09 -0.51,-0.46 -1.23,-0.7 -0.74,-0.26 -1.62,-0.26 -1.7,0 -2.7,0.88 -1.02,0.87 -1.02,2.34 0,1.42 0.86,2.42 0.29,0.33 0.55,0.52 0.27,0.18 0.68,0.33 l -0.14,1.38 q -0.59,-0.11 -1.02,-0.17 -0.43,-0.06 -1.08,-0.11 l -4.62,-0.41 q -0.45,-0.04 -0.7,-0.04 -0.25,-0.02 -0.53,-0.02 -0.23,0 -0.35,0 -0.14,0 -0.53,0.04 0.04,-0.22 0.06,-0.39 0,-0.18 0.02,-0.39 0.02,-0.22 0.02,-0.5 0,-0.28 0,-0.68 v -3.8 q 0,-0.37 0,-0.65 -0.02,-0.29 -0.04,-0.53 -0.02,-0.24 -0.04,-0.46 -0.04,-0.24 -0.08,-0.52 h 1.74 q -0.1,0.53 -0.12,1.03 -0.04,0.48 -0.04,1.12 v 4.33 z m 9.64,330.41 q -1.02,-0.17 -2.29,-0.17 h -10.97 q -0.68,0 -1.23,0.04 -0.53,0.04 -1.06,0.13 v -1.75 q 0.29,0.04 0.53,0.06 0.25,0.04 0.51,0.06 0.27,0.02 0.55,0.02 0.31,0.02 0.7,0.02 h 10.97 q 0.76,0 1.25,-0.04 0.49,-0.04 1.04,-0.11 z m -15.86,7.47 q 0,-2.06 1.45,-3.37 0.41,-0.37 0.88,-0.66 0.47,-0.28 1,-0.44 2.17,-0.7 4.73,-0.7 0.82,0 1.62,0.07 0.8,0.07 1.53,0.2 0.74,0.15 1.35,0.35 0.61,0.2 1.06,0.44 2.52,1.35 2.52,4.13 0,1.03 -0.37,1.88 -0.37,0.87 -1.08,1.49 -0.86,0.77 -1.88,1.11 -2.15,0.7 -4.75,0.7 -1.86,0 -3.42,-0.35 -1.56,-0.33 -2.5,-0.94 -2.15,-1.38 -2.15,-3.91 z m 14.73,0 q 0,-1.42 -1.04,-2.3 -0.74,-0.61 -1.49,-0.83 -1.84,-0.57 -4.13,-0.57 -0.72,0 -1.43,0.06 -0.72,0.07 -1.37,0.18 -0.63,0.13 -1.17,0.28 -0.53,0.17 -0.9,0.35 -1.78,0.96 -1.78,2.86 0,0.7 0.25,1.27 0.25,0.57 0.72,1 0.72,0.63 1.6,0.87 1.88,0.57 4.13,0.57 0.68,0 1.35,-0.07 0.7,-0.06 1.33,-0.17 0.65,-0.11 1.19,-0.26 0.53,-0.15 0.9,-0.33 1.86,-0.92 1.86,-2.89 z m -9,6.64 q 0.37,0.29 0.78,0.59 0.41,0.31 0.8,0.61 l 6.47,4.66 q 0.63,0.46 1.08,0.76 0.47,0.31 1,0.63 v 1.38 q -0.45,-0.04 -0.82,-0.06 -0.37,-0.02 -0.76,-0.04 -0.39,-0.02 -0.84,-0.02 -0.43,0 -1.04,0 h -6.71 v 0.7 q 0,0.59 0.02,1 0.04,0.42 0.12,0.92 h -1.7 q 0.08,-0.52 0.1,-0.94 0.04,-0.41 0.04,-1 v -0.68 h -1.76 q -0.37,0 -0.65,0 -0.29,0.02 -0.53,0.04 -0.25,0.02 -0.49,0.04 -0.25,0.04 -0.53,0.07 v -1.68 q 0.53,0.09 1.02,0.11 0.49,0.04 1.19,0.04 h 1.76 v -4.94 q 0,-0.77 -0.02,-1.25 -0.02,-0.48 -0.06,-0.94 z m 5.14,7.15 q 0.41,0 0.74,0 0.35,0 0.65,0.02 0.33,0.02 0.65,0.04 0.35,0.02 0.74,0.06 -0.47,-0.29 -0.98,-0.65 -0.49,-0.33 -1.06,-0.74 l -5.93,-4.24 v 5.51 z m -0.94,7.71 q -0.14,-0.02 -0.23,-0.04 -0.08,0 -0.16,-0.02 -0.08,0 -0.2,-0.04 -0.12,-0.02 -0.33,-0.06 1.41,1.33 1.41,3.23 0,1.01 -0.37,1.84 -0.35,0.85 -1.02,1.47 -1.31,1.24 -3.6,1.24 -1.23,0 -2.23,-0.35 -1,-0.35 -1.72,-1 -0.7,-0.65 -1.08,-1.57 -0.37,-0.92 -0.37,-2.06 0,-2.18 1.39,-3.52 0.18,-0.17 0.37,-0.31 0.2,-0.15 0.41,-0.28 0.23,-0.13 0.49,-0.28 0.29,-0.13 0.65,-0.29 l 0.49,1.51 q -0.43,0.15 -0.68,0.26 -0.25,0.13 -0.51,0.33 -1.21,0.98 -1.21,2.62 0,0.77 0.27,1.4 0.29,0.65 0.8,1.09 0.51,0.46 1.23,0.7 0.74,0.26 1.62,0.26 1.7,0 2.7,-0.88 1.02,-0.87 1.02,-2.34 0,-1.42 -0.86,-2.42 -0.29,-0.33 -0.55,-0.52 -0.27,-0.18 -0.68,-0.33 l 0.14,-1.38 q 0.59,0.11 1.02,0.17 0.43,0.06 1.08,0.11 l 4.62,0.41 q 0.45,0.04 0.7,0.04 0.25,0.02 0.53,0.02 0.23,0 0.35,0 0.14,0 0.53,-0.04 -0.04,0.22 -0.06,0.39 0,0.18 -0.02,0.39 -0.02,0.22 -0.02,0.5 0,0.28 0,0.68 v 3.8 q 0,0.37 0,0.65 0.02,0.29 0.04,0.53 0.02,0.24 0.04,0.46 0.04,0.24 0.08,0.52 h -1.74 q 0.1,-0.53 0.12,-1.03 0.04,-0.48 0.04,-1.12 V 430.1 Z M 214.12,99.22 q 0.45,-0.29 0.67,-0.49 0.22,-0.21 0.42,-0.49 0.73,-1 0.33,-2.49 -0.26,-0.96 -0.88,-1.54 -0.63,-0.6 -1.71,-0.84 -0.54,-0.12 -1.27,-0.14 -0.75,-0.03 -1.47,0.05 -0.39,0.05 -0.99,0.17 -0.6,0.12 -1.36,0.29 0.45,0.09 0.7,0.17 0.25,0.07 0.59,0.24 0.89,0.49 1.44,1.18 0.54,0.68 0.81,1.69 0.27,1 0.15,1.91 -0.12,0.91 -0.6,1.65 -0.48,0.74 -1.32,1.31 -0.84,0.57 -1.91,0.86 -1.19,0.32 -2.23,0.23 -1.06,-0.1 -1.9,-0.54 -0.86,-0.44 -1.45,-1.23 -0.61,-0.79 -0.91,-1.89 -0.41,-1.51 0.18,-2.89 0.58,-1.38 1.99,-2.31 0.74,-0.48 1.71,-0.88 0.97,-0.39 2.26,-0.74 2.08,-0.56 3.8,-0.62 1.7,-0.06 2.9,0.4 1.13,0.42 1.83,1.21 0.67,0.77 1,2 0.5,1.85 -0.27,3.28 -0.24,0.46 -0.58,0.84 -0.34,0.38 -1.04,0.93 z m -4.07,-2 q -0.2,-0.75 -0.64,-1.3 -0.45,-0.57 -1.05,-0.9 -0.62,-0.33 -1.36,-0.4 -0.74,-0.09 -1.53,0.12 -0.79,0.21 -1.42,0.65 -0.62,0.43 -1,1.01 -0.37,0.58 -0.48,1.27 -0.13,0.68 0.06,1.4 0.24,0.89 0.89,1.52 0.64,0.63 1.55,0.86 0.45,0.11 1.04,0.08 0.59,-0.02 1.16,-0.18 1.68,-0.45 2.44,-1.57 0.74,-1.11 0.35,-2.57 z m -5,-13.51 q -0.05,-0.6 0.03,-1.06 0.07,-0.46 0.32,-1 0.75,-1.63 2.75,-2.17 2.04,-0.55 3.49,0.44 1.43,0.97 2.06,3.34 0.66,2.46 -0.08,4.05 -0.74,1.59 -2.79,2.14 -2.13,0.57 -3.71,-0.71 -0.41,-0.33 -0.64,-0.63 -0.23,-0.32 -0.47,-0.79 0.08,1.24 -0.7,2.21 -0.78,0.95 -2.17,1.32 -0.89,0.24 -1.7,0.13 -0.81,-0.11 -1.46,-0.54 -0.67,-0.43 -1.16,-1.16 -0.5,-0.74 -0.77,-1.76 -0.55,-2.05 0.18,-3.5 0.71,-1.45 2.55,-1.94 1.38,-0.37 2.54,0.06 1.13,0.44 1.71,1.56 z m -5.66,3.46 q 0.37,1.37 1.32,1.99 0.95,0.61 2.19,0.27 1.32,-0.35 1.86,-1.36 0.54,-1 0.16,-2.41 -0.38,-1.41 -1.34,-1.99 -0.97,-0.6 -2.29,-0.25 -1.25,0.33 -1.76,1.35 -0.52,1 -0.14,2.39 z m 6.9,-1.85 q 0.44,1.66 1.53,2.38 1.08,0.7 2.52,0.32 1.42,-0.38 1.97,-1.5 0.52,-1.13 0.07,-2.81 -0.25,-0.94 -0.71,-1.61 -0.45,-0.66 -1.09,-0.99 -0.87,-0.49 -2.14,-0.15 -1.46,0.39 -2.02,1.55 -0.58,1.15 -0.14,2.8 z m 4.28,-13.69 q 0.53,1.99 -0.53,3.63 -0.3,0.46 -0.68,0.87 -0.38,0.39 -0.85,0.69 -1.91,1.24 -4.38,1.9 -0.79,0.21 -1.58,0.35 -0.79,0.14 -1.53,0.2 -0.75,0.05 -1.4,0.01 -0.65,-0.04 -1.14,-0.15 -2.78,-0.65 -3.5,-3.34 -0.27,-1 -0.13,-1.91 0.13,-0.93 0.66,-1.72 0.63,-0.97 1.53,-1.56 1.89,-1.23 4.4,-1.91 1.8,-0.48 3.39,-0.55 1.59,-0.08 2.65,0.26 2.43,0.78 3.09,3.22 z m -14.23,3.81 q 0.37,1.37 1.6,1.96 0.87,0.4 1.66,0.41 1.93,0.08 4.14,-0.52 0.69,-0.19 1.37,-0.42 0.67,-0.26 1.28,-0.53 0.58,-0.29 1.06,-0.57 0.47,-0.3 0.78,-0.57 1.47,-1.39 0.98,-3.22 -0.18,-0.68 -0.57,-1.17 -0.39,-0.49 -0.95,-0.78 -0.85,-0.42 -1.77,-0.42 -1.97,-0.06 -4.14,0.52 -0.65,0.17 -1.29,0.42 -0.66,0.23 -1.24,0.5 -0.6,0.28 -1.08,0.56 -0.48,0.28 -0.78,0.55 -1.56,1.37 -1.05,3.28 z m 100.19,318.13 q -1.03,0.1 -2.26,0.43 l -10.59,2.84 q -0.65,0.17 -1.18,0.35 -0.5,0.17 -0.99,0.4 l -0.45,-1.69 q 0.29,-0.04 0.53,-0.08 0.25,-0.03 0.51,-0.08 0.26,-0.05 0.54,-0.13 0.3,-0.06 0.68,-0.16 l 10.59,-2.84 q 0.73,-0.2 1.2,-0.36 0.46,-0.16 0.98,-0.38 z m -13.39,11.32 q -0.53,-1.99 0.53,-3.63 0.3,-0.46 0.68,-0.87 0.38,-0.39 0.85,-0.69 1.91,-1.24 4.38,-1.9 0.79,-0.21 1.58,-0.35 0.79,-0.14 1.53,-0.2 0.75,-0.05 1.4,-0.01 0.65,0.04 1.14,0.15 2.78,0.65 3.5,3.34 0.27,1 0.13,1.91 -0.13,0.93 -0.66,1.72 -0.63,0.97 -1.53,1.56 -1.89,1.23 -4.4,1.91 -1.8,0.48 -3.39,0.55 -1.59,0.08 -2.65,-0.26 -2.43,-0.78 -3.09,-3.22 z m 14.23,-3.81 q -0.37,-1.37 -1.6,-1.96 -0.87,-0.4 -1.66,-0.41 -1.93,-0.08 -4.14,0.52 -0.69,0.19 -1.37,0.42 -0.67,0.26 -1.28,0.53 -0.58,0.29 -1.06,0.57 -0.47,0.3 -0.78,0.57 -1.47,1.39 -0.98,3.22 0.18,0.68 0.57,1.17 0.39,0.49 0.95,0.78 0.85,0.42 1.77,0.42 1.97,0.06 4.14,-0.52 0.65,-0.17 1.29,-0.42 0.66,-0.23 1.24,-0.5 0.6,-0.28 1.08,-0.56 0.48,-0.28 0.78,-0.55 1.56,-1.37 1.05,-3.28 z m -6.98,8.74 q 0.43,0.19 0.9,0.37 0.48,0.2 0.93,0.38 l 7.45,2.83 q 0.73,0.28 1.24,0.45 0.54,0.18 1.13,0.35 l 0.36,1.34 q -0.44,0.08 -0.8,0.16 -0.36,0.08 -0.74,0.16 -0.38,0.08 -0.82,0.2 -0.42,0.11 -1.01,0.27 l -6.48,1.74 0.18,0.68 q 0.15,0.57 0.28,0.96 0.15,0.4 0.36,0.86 l -1.64,0.44 q -0.05,-0.52 -0.14,-0.93 -0.07,-0.4 -0.22,-0.97 l -0.18,-0.66 -1.7,0.46 q -0.36,0.1 -0.63,0.17 -0.27,0.09 -0.5,0.17 -0.23,0.08 -0.46,0.16 -0.23,0.1 -0.49,0.21 L 286.98,418 q 0.54,-0.05 1.02,-0.16 0.48,-0.09 1.16,-0.27 l 1.7,-0.46 -1.28,-4.77 q -0.2,-0.75 -0.34,-1.21 -0.14,-0.46 -0.3,-0.89 z m 6.81,5.58 q 0.4,-0.11 0.71,-0.19 0.34,-0.09 0.64,-0.15 0.32,-0.07 0.64,-0.13 0.34,-0.07 0.73,-0.14 -0.53,-0.16 -1.12,-0.37 -0.56,-0.19 -1.22,-0.44 l -6.83,-2.56 1.43,5.32 z m -7.78,12.96 q -0.53,-1.99 0.53,-3.63 0.3,-0.46 0.68,-0.87 0.38,-0.39 0.85,-0.69 1.91,-1.24 4.38,-1.9 0.79,-0.21 1.58,-0.35 0.79,-0.14 1.53,-0.2 0.75,-0.05 1.4,-0.01 0.65,0.04 1.14,0.15 2.78,0.65 3.5,3.34 0.27,1 0.13,1.91 -0.13,0.93 -0.66,1.72 -0.63,0.97 -1.53,1.56 -1.89,1.23 -4.4,1.91 -1.8,0.48 -3.39,0.55 -1.59,0.08 -2.65,-0.26 -2.43,-0.78 -3.09,-3.22 z m 14.23,-3.81 q -0.37,-1.37 -1.6,-1.96 -0.87,-0.4 -1.66,-0.41 -1.93,-0.08 -4.14,0.52 -0.69,0.19 -1.37,0.42 -0.67,0.26 -1.28,0.53 -0.58,0.29 -1.06,0.57 -0.47,0.3 -0.78,0.57 -1.47,1.39 -0.98,3.22 0.18,0.68 0.57,1.17 0.39,0.49 0.95,0.78 0.85,0.42 1.77,0.42 1.97,0.06 4.14,-0.52 0.65,-0.17 1.29,-0.42 0.66,-0.23 1.24,-0.5 0.6,-0.28 1.08,-0.56 0.48,-0.28 0.78,-0.55 1.56,-1.37 1.05,-3.28 z M 176.32,113.65 q 0.36,-0.4 0.53,-0.64 0.16,-0.26 0.28,-0.59 0.45,-1.15 -0.33,-2.49 -0.5,-0.86 -1.25,-1.26 -0.76,-0.41 -1.87,-0.37 -0.55,0.02 -1.26,0.19 -0.73,0.17 -1.41,0.43 -0.36,0.15 -0.91,0.42 -0.55,0.28 -1.24,0.63 0.46,-0.03 0.72,-0.01 0.26,0 0.64,0.08 0.99,0.24 1.7,0.77 0.7,0.51 1.22,1.42 0.52,0.89 0.64,1.8 0.12,0.91 -0.15,1.75 -0.27,0.84 -0.94,1.61 -0.67,0.77 -1.62,1.32 -1.06,0.61 -2.09,0.8 -1.05,0.18 -1.98,-0.03 -0.94,-0.2 -1.72,-0.81 -0.8,-0.6 -1.37,-1.59 -0.78,-1.36 -0.58,-2.84 0.21,-1.48 1.32,-2.74 0.59,-0.66 1.43,-1.29 0.84,-0.63 1.99,-1.3 1.86,-1.07 3.51,-1.58 1.63,-0.49 2.91,-0.36 1.2,0.12 2.08,0.69 0.85,0.57 1.49,1.67 0.96,1.66 0.59,3.23 -0.11,0.51 -0.34,0.96 -0.23,0.45 -0.77,1.17 z m -4.45,-0.88 q -0.39,-0.67 -0.96,-1.09 -0.58,-0.43 -1.24,-0.6 -0.68,-0.16 -1.41,-0.04 -0.74,0.11 -1.45,0.52 -0.71,0.41 -1.2,0.99 -0.49,0.58 -0.7,1.24 -0.21,0.65 -0.14,1.36 0.05,0.7 0.42,1.33 0.46,0.8 1.26,1.23 0.78,0.45 1.72,0.44 0.47,-0.01 1.03,-0.19 0.56,-0.17 1.07,-0.47 1.51,-0.87 1.95,-2.15 0.43,-1.27 -0.33,-2.58 z m -15.03,-11.33 q 0.15,0.06 0.36,0.09 0.19,0.04 0.47,0.07 0.27,0.02 0.65,0.03 0.38,0 0.9,0.01 1.23,0.01 2.25,-0.02 0.99,-0.04 1.9,-0.14 0.89,-0.09 1.75,-0.24 0.85,-0.17 1.8,-0.4 0.64,-0.16 1.18,-0.32 0.53,-0.15 1.09,-0.36 0.55,-0.19 1.19,-0.43 0.63,-0.26 1.45,-0.6 l 0.88,1.52 q -1.32,0.5 -2.36,0.87 -1.05,0.35 -1.98,0.59 -0.94,0.25 -1.86,0.42 -0.93,0.15 -1.99,0.28 -0.82,0.09 -1.57,0.14 -0.75,0.05 -1.55,0.06 -0.8,0.01 -1.68,-0.01 -0.9,-0.04 -2,-0.1 l 3,5.19 q 0.32,0.56 0.59,0.94 0.24,0.37 0.58,0.8 l -1.51,0.87 q -0.2,-0.5 -0.38,-0.91 -0.21,-0.41 -0.54,-0.98 l -2.77,-4.79 q -0.2,-0.35 -0.35,-0.61 -0.15,-0.26 -0.29,-0.45 -0.14,-0.2 -0.24,-0.37 -0.13,-0.18 -0.28,-0.37 z m 1.71,-6.12 q 0.13,-0.06 0.21,-0.08 0.07,-0.04 0.15,-0.07 0.07,-0.04 0.2,-0.07 0.12,-0.05 0.31,-0.12 -1.89,-0.44 -2.84,-2.09 -0.51,-0.88 -0.6,-1.78 -0.12,-0.91 0.15,-1.79 0.52,-1.72 2.5,-2.87 1.06,-0.61 2.11,-0.81 1.04,-0.2 1.99,0 0.93,0.21 1.72,0.81 0.78,0.61 1.35,1.6 1.09,1.88 0.56,3.75 -0.08,0.24 -0.16,0.46 -0.1,0.23 -0.22,0.44 -0.13,0.22 -0.29,0.49 -0.18,0.25 -0.42,0.58 l -1.18,-1.06 q 0.3,-0.34 0.46,-0.56 0.15,-0.23 0.28,-0.54 0.56,-1.45 -0.26,-2.87 -0.39,-0.67 -0.93,-1.08 -0.57,-0.42 -1.23,-0.54 -0.67,-0.14 -1.41,0.01 -0.77,0.14 -1.53,0.58 -1.47,0.85 -1.9,2.12 -0.45,1.26 0.28,2.54 0.71,1.23 1.95,1.66 0.41,0.14 0.74,0.17 0.32,0.03 0.75,-0.05 l 0.57,1.27 q -0.57,0.2 -0.97,0.37 -0.4,0.17 -0.99,0.45 l -4.21,1.96 q -0.41,0.19 -0.62,0.32 -0.22,0.11 -0.47,0.25 -0.19,0.11 -0.3,0.17 -0.12,0.07 -0.44,0.3 -0.08,-0.21 -0.14,-0.37 -0.09,-0.16 -0.18,-0.35 -0.09,-0.2 -0.23,-0.44 -0.14,-0.24 -0.34,-0.59 l -1.9,-3.29 q -0.18,-0.32 -0.32,-0.56 -0.17,-0.25 -0.3,-0.44 -0.14,-0.2 -0.27,-0.38 -0.16,-0.19 -0.33,-0.41 l 1.51,-0.87 q 0.18,0.51 0.41,0.96 0.2,0.44 0.53,0.99 l 2.17,3.75 z M 332.14,376.7 q -0.97,0.37 -2.07,1 l -9.5,5.48 q -0.58,0.34 -1.04,0.65 -0.44,0.3 -0.86,0.64 l -0.88,-1.52 q 0.27,-0.11 0.49,-0.22 0.23,-0.09 0.47,-0.21 0.24,-0.12 0.49,-0.26 0.28,-0.14 0.61,-0.33 l 9.5,-5.48 q 0.66,-0.38 1.06,-0.66 0.41,-0.28 0.85,-0.62 z m -10,14.4 q -1.03,-1.79 -0.43,-3.65 0.17,-0.52 0.43,-1.01 0.27,-0.47 0.65,-0.88 1.53,-1.69 3.74,-2.97 0.71,-0.41 1.44,-0.74 0.73,-0.34 1.43,-0.59 0.71,-0.24 1.34,-0.37 0.63,-0.13 1.14,-0.15 2.85,-0.09 4.24,2.32 0.52,0.89 0.62,1.81 0.11,0.93 -0.19,1.84 -0.36,1.1 -1.08,1.9 -1.51,1.68 -3.76,2.98 -1.61,0.93 -3.13,1.41 -1.51,0.49 -2.63,0.43 -2.55,-0.12 -3.81,-2.31 z m 12.76,-7.37 q -0.71,-1.23 -2.06,-1.47 -0.94,-0.16 -1.71,0.03 -1.88,0.43 -3.87,1.57 -0.62,0.36 -1.21,0.76 -0.58,0.42 -1.1,0.85 -0.48,0.43 -0.87,0.82 -0.38,0.41 -0.6,0.75 -1.06,1.72 -0.11,3.36 0.35,0.61 0.85,0.98 0.5,0.37 1.12,0.5 0.93,0.18 1.82,-0.05 1.92,-0.45 3.87,-1.57 0.58,-0.34 1.13,-0.74 0.57,-0.4 1.07,-0.81 0.51,-0.42 0.9,-0.82 0.39,-0.39 0.61,-0.74 1.15,-1.73 0.17,-3.44 z m -4.99,12.63 q -0.58,0.59 -0.82,1 -0.23,0.41 -0.31,0.94 -0.17,1.18 0.55,2.43 0.81,1.4 2,1.78 1.21,0.38 2.49,-0.35 1.33,-0.77 1.54,-2 0.21,-1.23 -0.71,-2.83 -0.19,-0.34 -0.41,-0.63 -0.19,-0.29 -0.41,-0.59 l 1.4,-0.81 q 0.21,0.6 0.58,1.24 0.92,1.6 2.16,1.86 0.49,0.12 1.05,0.01 0.56,-0.09 1.04,-0.37 1.15,-0.67 1.38,-1.71 0.25,-1.04 -0.45,-2.25 -0.85,-1.47 -2.17,-1.58 -0.35,-0.03 -0.68,0.01 -0.3,0.05 -0.87,0.21 l -0.45,-1.51 q 0.39,-0.1 0.7,-0.15 0.32,-0.06 0.57,-0.07 0.27,-0.03 0.49,-0.01 0.25,0.03 0.51,0.07 1.91,0.32 3.13,2.43 0.5,0.86 0.66,1.71 0.16,0.85 -0.02,1.61 -0.16,0.75 -0.65,1.37 -0.48,0.64 -1.28,1.1 -0.82,0.47 -1.68,0.57 -0.84,0.1 -1.55,-0.19 -0.43,-0.18 -0.76,-0.41 -0.3,-0.23 -0.75,-0.72 0.32,0.75 0.4,1.26 0.09,0.52 -0.03,1.14 -0.16,0.79 -0.69,1.46 -0.52,0.66 -1.37,1.15 -0.9,0.52 -1.81,0.64 -0.88,0.11 -1.72,-0.16 -0.82,-0.27 -1.55,-0.92 -0.73,-0.64 -1.31,-1.65 -1.39,-2.41 -0.61,-4.42 0.17,-0.44 0.42,-0.82 0.28,-0.37 0.82,-0.99 z m 11.54,8.32 q -0.13,0.06 -0.21,0.08 -0.07,0.04 -0.15,0.07 -0.07,0.04 -0.2,0.07 -0.12,0.05 -0.31,0.12 1.89,0.44 2.84,2.09 0.51,0.88 0.6,1.78 0.12,0.91 -0.15,1.79 -0.52,1.72 -2.5,2.87 -1.06,0.61 -2.11,0.81 -1.04,0.2 -1.99,0 -0.93,-0.21 -1.72,-0.81 -0.78,-0.61 -1.35,-1.6 -1.09,-1.88 -0.56,-3.75 0.08,-0.24 0.16,-0.46 0.1,-0.23 0.22,-0.44 0.13,-0.22 0.29,-0.49 0.18,-0.26 0.42,-0.58 l 1.18,1.06 q -0.3,0.34 -0.46,0.56 -0.15,0.23 -0.28,0.54 -0.56,1.45 0.26,2.87 0.39,0.67 0.93,1.08 0.57,0.42 1.23,0.54 0.67,0.14 1.41,-0.01 0.77,-0.14 1.53,-0.58 1.47,-0.85 1.9,-2.12 0.45,-1.26 -0.28,-2.54 -0.71,-1.23 -1.95,-1.66 -0.41,-0.14 -0.74,-0.17 -0.32,-0.03 -0.75,0.05 l -0.57,-1.27 q 0.57,-0.2 0.97,-0.37 0.4,-0.17 0.99,-0.45 l 4.21,-1.96 q 0.41,-0.19 0.62,-0.32 0.22,-0.11 0.47,-0.25 0.19,-0.11 0.3,-0.17 0.12,-0.07 0.44,-0.3 0.08,0.21 0.14,0.37 0.09,0.16 0.18,0.35 0.09,0.2 0.23,0.44 0.14,0.24 0.34,0.59 l 1.9,3.29 q 0.18,0.32 0.32,0.56 0.17,0.25 0.3,0.44 0.14,0.2 0.27,0.38 0.16,0.19 0.33,0.41 l -1.51,0.87 q -0.18,-0.51 -0.41,-0.96 -0.2,-0.44 -0.53,-0.99 l -2.17,-3.75 z M 143.54,137.36 q 0.24,-0.48 0.34,-0.76 0.08,-0.29 0.12,-0.64 0.13,-1.23 -0.96,-2.32 -0.7,-0.7 -1.53,-0.89 -0.84,-0.2 -1.9,0.13 -0.53,0.16 -1.17,0.51 -0.66,0.35 -1.25,0.78 -0.31,0.24 -0.77,0.64 -0.46,0.41 -1.04,0.93 0.43,-0.15 0.7,-0.2 0.25,-0.07 0.64,-0.09 1.02,-0.03 1.84,0.3 0.81,0.31 1.55,1.06 0.73,0.73 1.08,1.58 0.35,0.85 0.31,1.73 -0.05,0.88 -0.49,1.79 -0.45,0.91 -1.23,1.7 -0.87,0.87 -1.81,1.31 -0.97,0.45 -1.92,0.48 -0.96,0.05 -1.87,-0.34 -0.93,-0.38 -1.73,-1.19 -1.11,-1.11 -1.29,-2.59 -0.18,-1.49 0.57,-2.99 0.4,-0.79 1.04,-1.62 0.65,-0.83 1.59,-1.77 1.52,-1.52 2.98,-2.43 1.45,-0.9 2.72,-1.1 1.19,-0.2 2.19,0.13 0.97,0.33 1.87,1.23 1.36,1.36 1.41,2.97 0.03,0.52 -0.08,1.02 -0.11,0.5 -0.44,1.33 z m -4.53,0.3 q -0.55,-0.55 -1.21,-0.8 -0.67,-0.27 -1.36,-0.26 -0.7,0.02 -1.38,0.33 -0.69,0.3 -1.27,0.88 -0.58,0.58 -0.9,1.27 -0.32,0.69 -0.36,1.38 -0.04,0.69 0.22,1.35 0.23,0.66 0.75,1.18 0.65,0.65 1.53,0.87 0.87,0.23 1.77,-0.02 0.45,-0.13 0.94,-0.45 0.5,-0.31 0.92,-0.73 1.23,-1.23 1.33,-2.58 0.08,-1.33 -0.99,-2.4 z m -17.45,-7.06 q 0.16,0.02 0.37,-0.01 0.19,-0.01 0.47,-0.05 0.26,-0.05 0.64,-0.14 0.36,-0.1 0.88,-0.22 1.2,-0.31 2.17,-0.61 0.95,-0.3 1.8,-0.63 0.84,-0.32 1.63,-0.69 0.77,-0.38 1.64,-0.85 0.58,-0.32 1.06,-0.62 0.47,-0.28 0.97,-0.63 0.48,-0.33 1.04,-0.73 0.54,-0.41 1.24,-0.96 l 1.24,1.24 q -1.14,0.83 -2.05,1.45 -0.92,0.61 -1.76,1.08 -0.85,0.48 -1.69,0.88 -0.86,0.39 -1.85,0.78 -0.77,0.3 -1.48,0.54 -0.71,0.24 -1.48,0.46 -0.77,0.22 -1.63,0.43 -0.87,0.2 -1.96,0.42 l 4.24,4.24 q 0.46,0.46 0.81,0.75 0.33,0.3 0.76,0.62 l -1.23,1.23 q -0.32,-0.44 -0.6,-0.78 -0.31,-0.34 -0.78,-0.81 l -3.91,-3.91 q -0.29,-0.29 -0.5,-0.5 -0.21,-0.21 -0.39,-0.36 -0.18,-0.15 -0.33,-0.3 -0.17,-0.14 -0.37,-0.28 z m 5.11,-15.35 q 1.46,1.46 1.36,3.41 -0.03,0.55 -0.15,1.09 -0.14,0.53 -0.4,1.02 -1.04,2.03 -2.85,3.84 -0.58,0.58 -1.2,1.09 -0.62,0.51 -1.23,0.94 -0.63,0.42 -1.2,0.71 -0.58,0.29 -1.07,0.44 -2.73,0.83 -4.7,-1.14 -0.73,-0.73 -1.07,-1.59 -0.35,-0.87 -0.29,-1.82 0.06,-1.16 0.55,-2.11 1.02,-2.01 2.86,-3.85 1.32,-1.32 2.66,-2.17 1.33,-0.86 2.43,-1.1 2.5,-0.54 4.28,1.24 z m -10.42,10.42 q 1,1 2.37,0.89 0.95,-0.09 1.64,-0.47 1.71,-0.9 3.33,-2.52 0.51,-0.51 0.97,-1.05 0.45,-0.56 0.84,-1.1 0.36,-0.54 0.63,-1.02 0.26,-0.49 0.39,-0.88 0.58,-1.94 -0.76,-3.28 -0.5,-0.5 -1.07,-0.73 -0.58,-0.23 -1.21,-0.2 -0.95,0.06 -1.74,0.52 -1.74,0.93 -3.33,2.52 -0.48,0.48 -0.9,1.01 -0.45,0.53 -0.82,1.06 -0.38,0.54 -0.66,1.02 -0.27,0.48 -0.4,0.87 -0.66,1.97 0.73,3.36 z m 245.88,225.45 q -0.84,0.61 -1.74,1.5 l -7.76,7.76 q -0.48,0.48 -0.84,0.89 -0.35,0.4 -0.66,0.84 l -1.24,-1.24 q 0.23,-0.18 0.42,-0.34 0.2,-0.15 0.4,-0.32 0.2,-0.18 0.4,-0.38 0.23,-0.2 0.5,-0.48 l 7.76,-7.76 q 0.54,-0.54 0.86,-0.91 0.32,-0.37 0.66,-0.82 z m -5.93,16.49 q -1.46,-1.46 -1.36,-3.41 0.03,-0.55 0.15,-1.09 0.14,-0.53 0.4,-1.02 1.04,-2.03 2.85,-3.84 0.58,-0.58 1.2,-1.09 0.62,-0.51 1.23,-0.94 0.63,-0.42 1.2,-0.71 0.58,-0.29 1.07,-0.44 2.73,-0.83 4.7,1.14 0.73,0.73 1.07,1.59 0.35,0.87 0.29,1.82 -0.06,1.16 -0.55,2.11 -1.02,2.01 -2.86,3.85 -1.32,1.32 -2.66,2.17 -1.33,0.86 -2.43,1.1 -2.5,0.54 -4.28,-1.24 z m 10.42,-10.42 q -1,-1 -2.37,-0.89 -0.95,0.09 -1.64,0.47 -1.71,0.9 -3.33,2.52 -0.51,0.51 -0.97,1.05 -0.45,0.56 -0.84,1.1 -0.36,0.54 -0.63,1.02 -0.26,0.49 -0.39,0.88 -0.58,1.94 0.76,3.28 0.5,0.5 1.07,0.73 0.58,0.23 1.21,0.2 0.95,-0.06 1.74,-0.52 1.74,-0.93 3.33,-2.52 0.48,-0.48 0.9,-1.01 0.45,-0.53 0.82,-1.06 0.38,-0.54 0.66,-1.02 0.27,-0.48 0.4,-0.87 0.66,-1.97 -0.73,-3.36 z m -1.55,13.49 q -0.41,0.72 -0.53,1.18 -0.12,0.46 -0.05,0.99 0.14,1.19 1.16,2.2 1.15,1.15 2.39,1.21 1.27,0.06 2.31,-0.98 1.09,-1.09 0.97,-2.33 -0.11,-1.24 -1.42,-2.55 -0.27,-0.27 -0.56,-0.51 -0.26,-0.23 -0.55,-0.46 l 1.14,-1.14 q 0.36,0.53 0.88,1.05 1.3,1.3 2.57,1.24 0.51,-0.01 1.01,-0.26 0.52,-0.23 0.91,-0.62 0.94,-0.94 0.89,-2.01 -0.03,-1.07 -1.02,-2.06 -1.2,-1.2 -2.5,-0.97 -0.35,0.06 -0.65,0.19 -0.28,0.12 -0.79,0.43 l -0.82,-1.34 q 0.35,-0.2 0.63,-0.32 0.3,-0.14 0.53,-0.22 0.25,-0.1 0.47,-0.13 0.25,-0.04 0.51,-0.07 1.93,-0.18 3.65,1.54 0.7,0.7 1.07,1.48 0.37,0.78 0.4,1.56 0.04,0.77 -0.27,1.5 -0.3,0.74 -0.95,1.39 -0.67,0.67 -1.48,0.98 -0.78,0.32 -1.55,0.22 -0.46,-0.06 -0.84,-0.2 -0.35,-0.15 -0.91,-0.5 0.5,0.65 0.71,1.12 0.22,0.48 0.27,1.11 0.05,0.81 -0.29,1.59 -0.33,0.77 -1.02,1.47 -0.74,0.74 -1.58,1.08 -0.83,0.33 -1.7,0.29 -0.86,-0.05 -1.73,-0.49 -0.87,-0.43 -1.69,-1.26 -1.97,-1.97 -1.73,-4.11 0.05,-0.47 0.2,-0.9 0.17,-0.43 0.54,-1.17 z m 8.26,14.05 q -1.46,-1.46 -1.36,-3.41 0.03,-0.55 0.15,-1.09 0.14,-0.53 0.4,-1.02 1.04,-2.03 2.85,-3.84 0.58,-0.58 1.2,-1.09 0.62,-0.51 1.23,-0.94 0.63,-0.42 1.2,-0.71 0.58,-0.29 1.07,-0.44 2.73,-0.83 4.7,1.14 0.73,0.73 1.07,1.59 0.35,0.87 0.29,1.82 -0.06,1.16 -0.55,2.11 -1.02,2.01 -2.86,3.85 -1.32,1.32 -2.66,2.17 -1.33,0.86 -2.43,1.1 -2.5,0.54 -4.28,-1.24 z m 10.42,-10.42 q -1,-1 -2.37,-0.89 -0.95,0.09 -1.64,0.47 -1.71,0.9 -3.33,2.52 -0.51,0.51 -0.97,1.05 -0.45,0.56 -0.84,1.1 -0.36,0.54 -0.63,1.02 -0.26,0.49 -0.39,0.88 -0.58,1.94 0.76,3.28 0.5,0.5 1.07,0.73 0.58,0.23 1.21,0.2 0.95,-0.06 1.74,-0.52 1.74,-0.93 3.33,-2.52 0.48,-0.48 0.9,-1.01 0.45,-0.53 0.82,-1.06 0.38,-0.54 0.66,-1.02 0.27,-0.48 0.4,-0.87 0.66,-1.97 -0.73,-3.36 z M 118.02,168.75 q 0.11,-0.53 0.13,-0.82 0.01,-0.3 -0.05,-0.65 -0.19,-1.22 -1.53,-1.99 -0.86,-0.5 -1.71,-0.47 -0.86,0.02 -1.8,0.61 -0.47,0.3 -0.99,0.8 -0.55,0.51 -1,1.07 -0.24,0.31 -0.58,0.82 -0.34,0.51 -0.76,1.17 0.38,-0.25 0.62,-0.37 0.22,-0.13 0.59,-0.25 0.98,-0.29 1.85,-0.18 0.86,0.1 1.77,0.62 0.89,0.52 1.45,1.24 0.56,0.73 0.74,1.59 0.18,0.86 -0.01,1.86 -0.19,1 -0.75,1.96 -0.61,1.06 -1.41,1.74 -0.82,0.68 -1.73,0.96 -0.92,0.3 -1.9,0.16 -0.99,-0.12 -1.98,-0.7 -1.36,-0.78 -1.92,-2.17 -0.56,-1.39 -0.23,-3.04 0.18,-0.86 0.59,-1.83 0.41,-0.97 1.08,-2.12 1.07,-1.86 2.25,-3.12 1.16,-1.24 2.34,-1.77 1.1,-0.5 2.15,-0.44 1.02,0.07 2.12,0.71 1.66,0.96 2.13,2.51 0.16,0.49 0.19,1.01 0.02,0.51 -0.08,1.39 z m -4.3,1.47 q -0.67,-0.39 -1.37,-0.46 -0.72,-0.08 -1.38,0.1 -0.67,0.2 -1.24,0.68 -0.59,0.46 -1,1.17 -0.41,0.71 -0.54,1.46 -0.13,0.75 0.01,1.42 0.14,0.67 0.56,1.24 0.39,0.58 1.03,0.95 0.8,0.46 1.7,0.44 0.9,0 1.7,-0.48 0.4,-0.24 0.79,-0.68 0.4,-0.43 0.69,-0.95 0.87,-1.51 0.61,-2.83 -0.27,-1.31 -1.57,-2.07 z m -16.24,-3.21 q -0.09,0.52 -0.11,0.81 -0.02,0.29 0.02,0.63 0.21,1.3 1.39,1.98 1.9,1.1 4.03,-0.6 0.39,-0.32 0.72,-0.62 0.31,-0.32 0.65,-0.71 0.33,-0.38 0.68,-0.88 0.35,-0.5 0.82,-1.2 -0.46,0.28 -0.74,0.43 -0.3,0.16 -0.72,0.25 -0.89,0.24 -1.68,0.11 -0.81,-0.11 -1.64,-0.59 -0.93,-0.53 -1.48,-1.28 -0.58,-0.73 -0.75,-1.61 -0.2,-0.87 0,-1.84 0.18,-0.98 0.78,-2.01 0.59,-1.03 1.39,-1.7 0.77,-0.67 1.67,-0.95 0.88,-0.27 1.86,-0.16 0.95,0.12 1.89,0.67 0.86,0.5 1.46,1.22 0.58,0.73 0.78,1.56 0.32,1.25 -0.09,2.92 -0.41,1.68 -1.51,3.57 -0.96,1.67 -2.09,2.88 -1.14,1.23 -2.21,1.77 -2.39,1.19 -4.48,-0.01 -0.72,-0.41 -1.23,-0.97 -0.51,-0.55 -0.77,-1.18 -0.22,-0.58 -0.26,-1.17 -0.04,-0.59 0.07,-1.59 z m 3.26,-6.46 q -0.91,1.58 -0.64,2.87 0.26,1.28 1.66,2.09 0.61,0.35 1.36,0.41 0.74,0.08 1.43,-0.15 1.31,-0.43 2.1,-1.79 0.42,-0.73 0.54,-1.46 0.11,-0.74 -0.02,-1.43 -0.14,-0.67 -0.54,-1.23 -0.42,-0.57 -1.07,-0.95 -0.78,-0.45 -1.67,-0.47 -0.9,0 -1.65,0.46 -0.4,0.24 -0.79,0.68 -0.41,0.45 -0.71,0.96 z m -7.28,1.21 q 0.09,-0.11 0.14,-0.18 0.04,-0.07 0.1,-0.13 0.04,-0.07 0.13,-0.16 0.08,-0.1 0.21,-0.26 -1.86,0.56 -3.5,-0.39 -0.88,-0.51 -1.41,-1.24 -0.56,-0.73 -0.77,-1.62 -0.41,-1.75 0.73,-3.74 0.61,-1.06 1.42,-1.76 0.8,-0.69 1.72,-0.99 0.91,-0.28 1.9,-0.16 0.98,0.14 1.97,0.71 1.88,1.09 2.35,2.97 0.05,0.24 0.09,0.48 0.03,0.25 0.03,0.49 0,0.26 -0.01,0.56 -0.03,0.31 -0.07,0.71 l -1.53,-0.31 q 0.09,-0.45 0.11,-0.71 0.01,-0.28 -0.03,-0.61 -0.24,-1.53 -1.66,-2.35 -0.67,-0.39 -1.35,-0.47 -0.7,-0.07 -1.34,0.15 -0.65,0.21 -1.22,0.71 -0.59,0.51 -1.03,1.27 -0.85,1.47 -0.58,2.78 0.24,1.32 1.52,2.06 1.23,0.71 2.52,0.46 0.43,-0.08 0.72,-0.22 0.29,-0.14 0.63,-0.42 l 1.13,0.82 q -0.39,0.46 -0.66,0.8 -0.26,0.34 -0.64,0.88 l -2.66,3.8 q -0.26,0.37 -0.38,0.58 -0.14,0.2 -0.28,0.45 -0.11,0.19 -0.17,0.3 -0.07,0.12 -0.23,0.48 -0.17,-0.15 -0.3,-0.25 -0.16,-0.09 -0.33,-0.21 -0.18,-0.13 -0.42,-0.27 -0.24,-0.14 -0.59,-0.34 l -3.29,-1.9 q -0.32,-0.18 -0.56,-0.32 -0.27,-0.13 -0.48,-0.23 -0.22,-0.1 -0.42,-0.2 -0.23,-0.08 -0.49,-0.19 l 0.87,-1.51 q 0.41,0.36 0.83,0.62 0.39,0.28 0.95,0.6 l 3.75,2.17 z m 291.03,156.9 q -0.66,0.8 -1.29,1.9 l -5.48,9.5 q -0.34,0.58 -0.58,1.08 -0.23,0.48 -0.42,0.99 l -1.52,-0.88 q 0.18,-0.23 0.31,-0.43 0.15,-0.19 0.3,-0.42 0.15,-0.22 0.29,-0.47 0.17,-0.26 0.36,-0.59 l 5.48,-9.5 q 0.38,-0.66 0.59,-1.1 0.21,-0.44 0.43,-0.96 z m -1.46,17.47 q -1.79,-1.03 -2.2,-2.95 -0.11,-0.54 -0.13,-1.09 0,-0.55 0.12,-1.09 0.48,-2.23 1.76,-4.44 0.41,-0.71 0.87,-1.36 0.46,-0.65 0.94,-1.23 0.5,-0.56 0.98,-0.99 0.48,-0.43 0.92,-0.7 2.42,-1.51 4.83,-0.11 0.89,0.52 1.44,1.26 0.57,0.75 0.75,1.69 0.24,1.13 0.02,2.18 -0.47,2.21 -1.77,4.46 -0.93,1.61 -2.01,2.78 -1.06,1.18 -2.06,1.69 -2.27,1.17 -4.46,-0.09 z m 7.37,-12.76 q -1.23,-0.71 -2.52,-0.25 -0.9,0.33 -1.47,0.88 -1.42,1.31 -2.56,3.29 -0.36,0.62 -0.67,1.27 -0.29,0.66 -0.53,1.28 -0.21,0.61 -0.34,1.15 -0.12,0.54 -0.15,0.95 -0.06,2.02 1.58,2.97 0.61,0.35 1.22,0.42 0.62,0.07 1.22,-0.12 0.9,-0.31 1.55,-0.95 1.44,-1.34 2.56,-3.29 0.34,-0.58 0.61,-1.21 0.3,-0.63 0.52,-1.23 0.23,-0.62 0.37,-1.16 0.14,-0.53 0.16,-0.95 0.13,-2.07 -1.58,-3.06 z m 0.74,17.08 q -0.38,-0.22 -0.64,-0.37 -0.24,-0.14 -0.44,-0.23 -0.19,-0.08 -0.36,-0.16 -0.17,-0.07 -0.37,-0.17 0.37,-0.49 0.61,-0.8 0.24,-0.31 0.42,-0.51 0.19,-0.22 0.35,-0.39 0.19,-0.18 0.43,-0.37 0.79,-0.68 1.71,-1.12 0.94,-0.45 2.13,-0.73 0.32,-0.07 0.54,-0.12 0.24,-0.05 0.57,-0.1 0.35,-0.06 0.9,-0.12 0.56,-0.08 1.57,-0.21 0.85,-0.1 1.46,-0.24 0.64,-0.15 1.08,-0.37 0.46,-0.21 0.76,-0.51 0.33,-0.31 0.56,-0.72 0.58,-1.01 0.21,-2.03 -0.35,-1.01 -1.58,-1.72 -1.6,-0.92 -2.98,-0.18 -0.43,0.23 -0.78,0.54 -0.34,0.3 -0.81,0.93 l -1.2,-1.02 q 0.37,-0.42 0.66,-0.73 0.31,-0.32 0.6,-0.55 0.3,-0.23 0.59,-0.39 0.3,-0.16 0.64,-0.29 1.87,-0.74 4,0.49 0.91,0.53 1.49,1.19 0.6,0.65 0.85,1.41 0.27,0.75 0.17,1.54 -0.08,0.8 -0.53,1.58 -0.79,1.36 -2.39,1.97 -0.31,0.13 -0.61,0.21 -0.3,0.08 -0.75,0.16 -0.43,0.08 -1.07,0.16 -0.63,0.09 -1.6,0.19 -0.68,0.08 -1.2,0.16 -0.49,0.07 -0.91,0.18 -0.4,0.1 -0.75,0.23 -0.34,0.11 -0.7,0.28 -0.68,0.34 -1.15,0.66 -0.44,0.31 -0.95,0.87 l 5.09,2.94 q 0.61,0.35 1.05,0.58 0.47,0.22 0.97,0.42 l -0.86,1.49 q -0.45,-0.33 -0.89,-0.61 -0.41,-0.28 -1.02,-0.63 z m 15.41,-2.21 q -0.09,0.11 -0.14,0.18 -0.04,0.07 -0.1,0.13 -0.04,0.07 -0.13,0.16 -0.08,0.1 -0.21,0.26 1.86,-0.56 3.5,0.39 0.88,0.51 1.41,1.24 0.56,0.73 0.77,1.62 0.41,1.75 -0.73,3.74 -0.61,1.06 -1.42,1.76 -0.8,0.69 -1.72,0.99 -0.91,0.28 -1.9,0.16 -0.98,-0.14 -1.97,-0.71 -1.88,-1.09 -2.35,-2.97 -0.05,-0.24 -0.09,-0.48 -0.03,-0.25 -0.03,-0.49 0,-0.26 0.01,-0.56 0.03,-0.31 0.07,-0.71 l 1.55,0.33 q -0.09,0.45 -0.11,0.71 -0.01,0.28 0.03,0.61 0.24,1.53 1.66,2.35 0.67,0.39 1.35,0.47 0.7,0.07 1.34,-0.15 0.65,-0.21 1.22,-0.71 0.59,-0.51 1.03,-1.27 0.85,-1.47 0.58,-2.78 -0.24,-1.32 -1.52,-2.06 -1.23,-0.71 -2.52,-0.46 -0.43,0.08 -0.72,0.22 -0.29,0.14 -0.62,0.42 l -1.13,-0.82 q 0.39,-0.46 0.66,-0.8 0.26,-0.34 0.64,-0.88 l 2.66,-3.8 q 0.26,-0.37 0.38,-0.58 0.14,-0.2 0.28,-0.45 0.11,-0.19 0.17,-0.3 0.07,-0.12 0.23,-0.48 0.17,0.15 0.3,0.25 0.16,0.09 0.33,0.21 0.18,0.13 0.42,0.27 0.24,0.14 0.59,0.34 l 3.29,1.9 q 0.32,0.18 0.56,0.32 0.27,0.13 0.48,0.23 0.22,0.1 0.42,0.2 0.23,0.08 0.49,0.19 l -0.87,1.51 q -0.41,-0.36 -0.83,-0.62 -0.39,-0.28 -0.95,-0.6 l -3.75,-2.17 z M 101.48,205.68 q -0.03,-0.54 -0.08,-0.83 -0.07,-0.3 -0.22,-0.61 -0.5,-1.13 -1.99,-1.53 -0.96,-0.26 -1.77,-0.01 -0.83,0.24 -1.58,1.06 -0.38,0.41 -0.75,1.03 -0.4,0.63 -0.69,1.3 -0.15,0.36 -0.35,0.94 -0.19,0.58 -0.43,1.32 0.3,-0.34 0.5,-0.52 0.18,-0.18 0.51,-0.39 0.87,-0.53 1.74,-0.66 0.86,-0.13 1.87,0.14 1,0.27 1.73,0.82 0.73,0.56 1.13,1.34 0.4,0.79 0.47,1.8 0.07,1.01 -0.21,2.08 -0.32,1.19 -0.91,2.04 -0.62,0.87 -1.42,1.38 -0.81,0.52 -1.79,0.64 -0.99,0.14 -2.1,-0.16 -1.51,-0.41 -2.41,-1.6 -0.9,-1.19 -1,-2.87 -0.05,-0.88 0.1,-1.92 0.15,-1.04 0.49,-2.33 0.56,-2.08 1.36,-3.6 0.8,-1.5 1.8,-2.31 0.93,-0.77 1.96,-0.98 1.01,-0.2 2.24,0.13 1.85,0.5 2.71,1.87 0.28,0.44 0.44,0.92 0.16,0.49 0.28,1.37 z m -3.77,2.53 q -0.75,-0.2 -1.45,-0.09 -0.72,0.1 -1.31,0.46 -0.6,0.37 -1.02,0.98 -0.45,0.6 -0.66,1.39 -0.21,0.79 -0.15,1.55 0.06,0.76 0.38,1.37 0.31,0.61 0.86,1.06 0.53,0.46 1.24,0.65 0.89,0.24 1.76,-0.02 0.86,-0.23 1.52,-0.91 0.32,-0.34 0.59,-0.86 0.27,-0.52 0.43,-1.09 0.45,-1.68 -0.14,-2.9 -0.6,-1.2 -2.06,-1.59 z m -16.52,1.1 q 0.05,0.52 0.11,0.81 0.06,0.29 0.18,0.6 0.54,1.2 1.85,1.56 2.12,0.57 3.74,-1.63 0.3,-0.41 0.54,-0.79 0.22,-0.39 0.44,-0.86 0.22,-0.45 0.43,-1.03 0.21,-0.58 0.48,-1.37 -0.37,0.39 -0.6,0.6 -0.25,0.23 -0.63,0.42 -0.79,0.47 -1.6,0.55 -0.81,0.1 -1.74,-0.15 -1.03,-0.28 -1.76,-0.85 -0.75,-0.56 -1.14,-1.37 -0.42,-0.79 -0.48,-1.78 -0.08,-1 0.23,-2.14 0.31,-1.15 0.9,-2 0.57,-0.84 1.37,-1.35 0.78,-0.49 1.75,-0.63 0.95,-0.13 2,0.15 0.96,0.26 1.73,0.8 0.75,0.56 1.16,1.31 0.63,1.12 0.67,2.85 0.03,1.73 -0.53,3.84 -0.5,1.86 -1.27,3.32 -0.78,1.49 -1.68,2.28 -2,1.77 -4.33,1.15 -0.8,-0.21 -1.44,-0.62 -0.64,-0.4 -1.05,-0.94 -0.36,-0.5 -0.56,-1.06 -0.19,-0.56 -0.35,-1.55 z m 1.48,-7.08 q -0.47,1.76 0.13,2.94 0.58,1.17 2.15,1.59 0.68,0.18 1.42,0.04 0.74,-0.12 1.34,-0.51 1.16,-0.75 1.56,-2.27 0.22,-0.81 0.15,-1.55 -0.09,-0.74 -0.39,-1.38 -0.31,-0.61 -0.84,-1.05 -0.55,-0.44 -1.28,-0.64 -0.87,-0.23 -1.73,-0.02 -0.86,0.23 -1.48,0.88 -0.32,0.34 -0.59,0.86 -0.28,0.54 -0.43,1.11 z m -6.85,-7.26 q 1.99,0.53 2.88,2.28 0.25,0.49 0.41,1.02 0.15,0.53 0.17,1.08 0.12,2.28 -0.55,4.75 -0.21,0.79 -0.49,1.54 -0.28,0.75 -0.59,1.43 -0.33,0.67 -0.69,1.21 -0.35,0.54 -0.7,0.91 -1.95,2.08 -4.64,1.36 -1,-0.27 -1.72,-0.84 -0.74,-0.58 -1.16,-1.43 -0.53,-1.03 -0.58,-2.1 -0.12,-2.26 0.55,-4.77 0.48,-1.8 1.22,-3.21 0.72,-1.42 1.55,-2.17 1.89,-1.72 4.33,-1.06 z m -3.81,14.23 q 1.37,0.37 2.5,-0.41 0.78,-0.55 1.19,-1.23 1.03,-1.63 1.62,-3.84 0.19,-0.69 0.32,-1.4 0.11,-0.71 0.18,-1.37 0.04,-0.65 0.03,-1.2 -0.02,-0.56 -0.11,-0.96 -0.47,-1.97 -2.3,-2.46 -0.68,-0.18 -1.29,-0.09 -0.62,0.09 -1.15,0.43 -0.79,0.53 -1.25,1.32 -1.04,1.67 -1.62,3.84 -0.17,0.65 -0.28,1.32 -0.13,0.69 -0.18,1.33 -0.06,0.66 -0.06,1.21 0,0.55 0.09,0.96 0.41,2.04 2.31,2.55 z m 325.66,72.31 q -0.43,0.95 -0.75,2.17 l -2.84,10.59 q -0.17,0.65 -0.28,1.2 -0.1,0.52 -0.15,1.06 l -1.69,-0.45 q 0.11,-0.27 0.19,-0.5 0.1,-0.23 0.19,-0.48 0.09,-0.25 0.16,-0.53 0.1,-0.29 0.2,-0.67 l 2.84,-10.59 q 0.2,-0.73 0.29,-1.22 0.09,-0.48 0.16,-1.04 z m 3.11,17.25 q -1.99,-0.53 -2.88,-2.28 -0.25,-0.49 -0.41,-1.02 -0.14,-0.53 -0.17,-1.08 -0.12,-2.28 0.55,-4.75 0.21,-0.79 0.49,-1.54 0.28,-0.75 0.59,-1.43 0.33,-0.67 0.69,-1.21 0.35,-0.54 0.7,-0.91 1.95,-2.08 4.64,-1.36 1,0.27 1.72,0.84 0.74,0.58 1.16,1.43 0.53,1.03 0.58,2.1 0.12,2.26 -0.55,4.77 -0.48,1.8 -1.22,3.21 -0.72,1.42 -1.55,2.17 -1.89,1.72 -4.33,1.06 z m 3.81,-14.23 q -1.37,-0.37 -2.5,0.41 -0.78,0.55 -1.19,1.23 -1.03,1.63 -1.62,3.84 -0.19,0.69 -0.32,1.4 -0.11,0.71 -0.18,1.37 -0.04,0.65 -0.03,1.2 0.02,0.56 0.11,0.96 0.47,1.97 2.3,2.46 0.68,0.18 1.29,0.09 0.62,-0.09 1.15,-0.43 0.79,-0.53 1.25,-1.32 1.04,-1.67 1.62,-3.84 0.17,-0.65 0.28,-1.32 0.13,-0.69 0.18,-1.33 0.06,-0.66 0.06,-1.21 -0.01,-0.55 -0.09,-0.96 -0.41,-2.04 -2.31,-2.55 z m 5.13,16.31 q -0.43,-0.11 -0.71,-0.19 -0.27,-0.07 -0.49,-0.11 -0.2,-0.03 -0.38,-0.06 -0.18,-0.03 -0.4,-0.07 0.23,-0.57 0.38,-0.94 0.15,-0.36 0.28,-0.6 0.13,-0.26 0.24,-0.47 0.13,-0.22 0.32,-0.47 0.59,-0.86 1.36,-1.52 0.79,-0.68 1.86,-1.26 0.29,-0.16 0.49,-0.25 0.22,-0.11 0.52,-0.24 0.33,-0.15 0.84,-0.35 0.52,-0.22 1.46,-0.6 0.79,-0.32 1.35,-0.61 0.58,-0.31 0.95,-0.63 0.39,-0.32 0.6,-0.69 0.24,-0.38 0.36,-0.84 0.3,-1.13 -0.32,-2.01 -0.6,-0.88 -1.97,-1.25 -1.78,-0.48 -2.93,0.59 -0.36,0.33 -0.61,0.73 -0.25,0.38 -0.54,1.1 l -1.42,-0.68 q 0.25,-0.51 0.44,-0.88 0.22,-0.39 0.43,-0.69 0.23,-0.3 0.47,-0.53 0.25,-0.23 0.54,-0.45 1.62,-1.2 3.99,-0.56 1.02,0.27 1.74,0.76 0.75,0.48 1.18,1.14 0.46,0.65 0.57,1.44 0.13,0.8 -0.1,1.67 -0.41,1.52 -1.8,2.53 -0.26,0.2 -0.54,0.36 -0.27,0.16 -0.68,0.35 -0.39,0.19 -0.99,0.43 -0.58,0.25 -1.5,0.59 -0.64,0.25 -1.12,0.46 -0.45,0.2 -0.84,0.41 -0.36,0.2 -0.66,0.42 -0.3,0.19 -0.6,0.45 -0.57,0.5 -0.94,0.94 -0.34,0.42 -0.69,1.09 l 5.68,1.52 q 0.68,0.18 1.16,0.29 0.51,0.09 1.05,0.15 l -0.44,1.66 q -0.52,-0.2 -1.01,-0.36 -0.47,-0.17 -1.15,-0.35 z m 14.45,4.19 q -1.99,-0.53 -2.88,-2.28 -0.25,-0.49 -0.41,-1.02 -0.14,-0.53 -0.17,-1.08 -0.12,-2.28 0.55,-4.75 0.21,-0.79 0.49,-1.54 0.28,-0.75 0.59,-1.43 0.33,-0.67 0.69,-1.21 0.35,-0.54 0.7,-0.91 1.95,-2.08 4.64,-1.36 1,0.27 1.72,0.84 0.74,0.58 1.16,1.43 0.53,1.03 0.58,2.1 0.12,2.26 -0.55,4.77 -0.48,1.8 -1.22,3.21 -0.72,1.42 -1.55,2.17 -1.89,1.72 -4.33,1.06 z m 3.81,-14.23 q -1.37,-0.37 -2.5,0.41 -0.78,0.55 -1.19,1.23 -1.03,1.63 -1.62,3.84 -0.19,0.69 -0.32,1.4 -0.11,0.71 -0.18,1.37 -0.04,0.65 -0.03,1.2 0.02,0.56 0.11,0.96 0.47,1.97 2.3,2.46 0.68,0.18 1.29,0.09 0.62,-0.09 1.15,-0.43 0.79,-0.53 1.25,-1.32 1.04,-1.67 1.62,-3.84 0.17,-0.65 0.28,-1.32 0.13,-0.69 0.18,-1.33 0.06,-0.66 0.06,-1.21 -0.01,-0.55 -0.09,-0.96 -0.41,-2.04 -2.31,-2.55 z M 95.07,245.63 q -0.17,-0.51 -0.29,-0.78 -0.15,-0.27 -0.37,-0.53 -0.77,-0.96 -2.32,-0.96 -1,0 -1.71,0.45 -0.74,0.45 -1.25,1.43 -0.26,0.49 -0.46,1.19 -0.22,0.72 -0.33,1.43 -0.06,0.39 -0.09,1 -0.04,0.61 -0.07,1.39 0.2,-0.41 0.35,-0.63 0.13,-0.23 0.39,-0.51 0.7,-0.74 1.51,-1.08 0.79,-0.35 1.84,-0.35 1.03,0 1.88,0.35 0.85,0.35 1.44,1 0.59,0.65 0.92,1.62 0.33,0.96 0.33,2.07 0,1.23 -0.35,2.21 -0.37,1 -1.01,1.7 -0.65,0.72 -1.57,1.08 -0.92,0.39 -2.06,0.39 -1.57,0 -2.75,-0.92 -1.18,-0.92 -1.71,-2.52 -0.28,-0.84 -0.41,-1.88 -0.13,-1.04 -0.13,-2.37 0,-2.15 0.39,-3.83 0.39,-1.66 1.14,-2.7 0.7,-0.98 1.64,-1.45 0.92,-0.45 2.19,-0.45 1.92,0 3.1,1.1 0.39,0.35 0.66,0.78 0.28,0.43 0.63,1.25 z m -2.99,3.42 q -0.77,0 -1.42,0.29 -0.66,0.29 -1.14,0.78 -0.48,0.51 -0.74,1.21 -0.28,0.7 -0.28,1.51 0,0.82 0.26,1.53 0.26,0.72 0.72,1.23 0.46,0.51 1.11,0.8 0.63,0.31 1.36,0.31 0.92,0 1.7,-0.47 0.77,-0.45 1.24,-1.27 0.22,-0.41 0.35,-0.98 0.13,-0.57 0.13,-1.17 0,-1.74 -0.88,-2.76 -0.88,-1 -2.4,-1 z m -9.66,2.8 q 0.02,-0.14 0.04,-0.23 0,-0.08 0.02,-0.16 0,-0.08 0.04,-0.2 0.02,-0.12 0.06,-0.33 -1.33,1.41 -3.23,1.41 -1.01,0 -1.84,-0.37 -0.85,-0.35 -1.47,-1.02 -1.24,-1.31 -1.24,-3.6 0,-1.23 0.35,-2.23 0.35,-1 1,-1.72 0.65,-0.7 1.57,-1.08 0.92,-0.37 2.06,-0.37 2.18,0 3.52,1.39 0.17,0.18 0.31,0.37 0.15,0.2 0.28,0.41 0.13,0.23 0.28,0.49 0.13,0.29 0.29,0.65 l -1.51,0.49 q -0.15,-0.43 -0.26,-0.68 -0.13,-0.25 -0.33,-0.51 -0.98,-1.21 -2.62,-1.21 -0.77,0 -1.4,0.27 -0.65,0.29 -1.09,0.8 -0.46,0.51 -0.7,1.23 -0.26,0.74 -0.26,1.62 0,1.7 0.88,2.7 0.87,1.02 2.34,1.02 1.42,0 2.42,-0.86 0.33,-0.29 0.52,-0.55 0.18,-0.27 0.33,-0.68 l 1.38,0.14 q -0.11,0.59 -0.17,1.02 -0.06,0.43 -0.11,1.08 l -0.41,4.62 q -0.04,0.45 -0.04,0.7 -0.02,0.25 -0.02,0.53 0,0.23 0,0.35 0,0.14 0.04,0.53 -0.22,-0.04 -0.39,-0.06 -0.18,0 -0.39,-0.02 -0.22,-0.02 -0.5,-0.02 -0.28,0 -0.68,0 h -3.8 q -0.37,0 -0.65,0 -0.29,0.02 -0.53,0.04 -0.24,0.02 -0.46,0.04 -0.24,0.04 -0.52,0.08 v -1.74 q 0.53,0.1 1.03,0.12 0.48,0.04 1.12,0.04 h 4.33 z m -12.11,0 q 0.02,-0.14 0.04,-0.23 0,-0.08 0.02,-0.16 0,-0.08 0.04,-0.2 0.02,-0.12 0.06,-0.33 -1.33,1.41 -3.23,1.41 -1.01,0 -1.84,-0.37 -0.85,-0.35 -1.47,-1.02 -1.24,-1.31 -1.24,-3.6 0,-1.23 0.35,-2.23 0.35,-1 1,-1.72 0.65,-0.7 1.57,-1.08 0.92,-0.37 2.06,-0.37 2.18,0 3.52,1.39 0.17,0.18 0.31,0.37 0.15,0.2 0.28,0.41 0.13,0.23 0.28,0.49 0.13,0.29 0.29,0.65 l -1.51,0.49 q -0.15,-0.43 -0.26,-0.68 -0.13,-0.25 -0.33,-0.51 -0.98,-1.21 -2.62,-1.21 -0.77,0 -1.4,0.27 -0.65,0.29 -1.09,0.8 -0.46,0.51 -0.7,1.23 -0.26,0.74 -0.26,1.62 0,1.7 0.88,2.7 0.87,1.02 2.34,1.02 1.42,0 2.42,-0.86 0.33,-0.29 0.52,-0.55 0.18,-0.27 0.33,-0.68 l 1.38,0.14 q -0.11,0.59 -0.17,1.02 -0.06,0.43 -0.11,1.08 l -0.41,4.62 q -0.04,0.45 -0.04,0.7 -0.02,0.25 -0.02,0.53 0,0.23 0,0.35 0,0.14 0.04,0.53 -0.22,-0.04 -0.39,-0.06 -0.18,0 -0.39,-0.02 -0.22,-0.02 -0.5,-0.02 -0.28,0 -0.68,0 h -3.8 q -0.37,0 -0.65,0 -0.29,0.02 -0.53,0.04 -0.24,0.02 -0.46,0.04 -0.24,0.04 -0.52,0.08 v -1.74 q 0.53,0.1 1.03,0.12 0.48,0.04 1.12,0.04 h 4.33 z m 338,-9.64 q -0.17,1.02 -0.17,2.29 v 10.97 q 0,0.68 0.04,1.23 0.04,0.53 0.13,1.06 h -1.75 q 0.04,-0.29 0.06,-0.53 0.04,-0.25 0.06,-0.51 0.02,-0.27 0.02,-0.55 0.02,-0.31 0.02,-0.7 V 244.5 q 0,-0.76 -0.04,-1.25 -0.04,-0.49 -0.11,-1.04 z m 7.47,15.86 q -2.06,0 -3.37,-1.45 -0.37,-0.41 -0.66,-0.88 -0.28,-0.47 -0.44,-1 -0.7,-2.17 -0.7,-4.73 0,-0.82 0.07,-1.62 0.07,-0.8 0.2,-1.53 0.15,-0.74 0.35,-1.35 0.2,-0.61 0.44,-1.06 1.35,-2.52 4.13,-2.52 1.03,0 1.88,0.37 0.87,0.37 1.49,1.08 0.77,0.86 1.11,1.88 0.7,2.15 0.7,4.75 0,1.86 -0.35,3.42 -0.33,1.56 -0.94,2.5 -1.38,2.15 -3.91,2.15 z m 0,-14.73 q -1.42,0 -2.3,1.04 -0.61,0.74 -0.83,1.49 -0.57,1.84 -0.57,4.13 0,0.72 0.06,1.43 0.07,0.72 0.18,1.37 0.13,0.63 0.28,1.17 0.17,0.53 0.35,0.9 0.96,1.78 2.86,1.78 0.7,0 1.27,-0.25 0.57,-0.25 1,-0.72 0.63,-0.72 0.87,-1.6 0.57,-1.88 0.57,-4.13 0,-0.68 -0.07,-1.35 -0.06,-0.7 -0.17,-1.33 -0.11,-0.65 -0.26,-1.19 -0.15,-0.53 -0.33,-0.9 -0.92,-1.86 -2.89,-1.86 z m 9.24,-1.13 q -0.17,1.02 -0.17,2.29 v 10.97 q 0,0.68 0.04,1.23 0.04,0.53 0.13,1.06 h -1.75 q 0.04,-0.29 0.06,-0.53 0.04,-0.25 0.06,-0.51 0.02,-0.27 0.02,-0.55 0.02,-0.31 0.02,-0.7 V 244.5 q 0,-0.76 -0.04,-1.25 -0.04,-0.49 -0.11,-1.04 z m 4.66,5.93 q -0.02,0.14 -0.04,0.23 0,0.08 -0.02,0.16 0,0.08 -0.04,0.2 -0.02,0.12 -0.06,0.33 1.33,-1.41 3.23,-1.41 1.01,0 1.84,0.37 0.85,0.35 1.47,1.02 1.24,1.31 1.24,3.6 0,1.23 -0.35,2.23 -0.35,1 -1,1.72 -0.65,0.7 -1.57,1.08 -0.92,0.37 -2.06,0.37 -2.18,0 -3.52,-1.39 -0.17,-0.18 -0.31,-0.37 -0.15,-0.2 -0.28,-0.41 -0.13,-0.23 -0.28,-0.49 -0.13,-0.29 -0.29,-0.65 l 1.51,-0.49 q 0.15,0.43 0.26,0.68 0.13,0.25 0.33,0.51 0.98,1.21 2.62,1.21 0.77,0 1.4,-0.27 0.65,-0.29 1.09,-0.8 0.46,-0.51 0.7,-1.23 0.26,-0.74 0.26,-1.62 0,-1.7 -0.88,-2.7 -0.87,-1.02 -2.34,-1.02 -1.42,0 -2.42,0.86 -0.33,0.29 -0.52,0.55 -0.18,0.27 -0.33,0.68 l -1.38,-0.14 q 0.11,-0.59 0.17,-1.02 0.06,-0.43 0.11,-1.08 l 0.41,-4.62 q 0.04,-0.45 0.04,-0.7 0.02,-0.25 0.02,-0.53 0,-0.23 0,-0.35 0,-0.14 -0.04,-0.53 0.22,0.04 0.39,0.06 0.18,0 0.39,0.02 0.22,0.02 0.5,0.02 0.28,0 0.68,0 h 3.8 q 0.37,0 0.65,0 0.29,-0.02 0.53,-0.04 0.24,-0.02 0.46,-0.04 0.24,-0.04 0.52,-0.08 v 1.74 q -0.53,-0.1 -1.03,-0.12 -0.48,-0.04 -1.12,-0.04 h -4.33 z m 28.19,-6.04 -8.99,0.47 -0.31,-5.99 8.99,-0.47 z m -406.44,21.3 -8.99,0.47 -0.31,-5.99 8.99,-0.47 z m 405.74,-32.17 -8.95,0.94 -0.63,-5.97 8.95,-0.94 z m -404.77,42.54 -8.95,0.94 -0.63,-5.97 8.95,-0.94 z m 403.5,-53.36 -8.89,1.41 -0.94,-5.93 8.89,-1.41 z m -401.99,63.67 -8.89,1.41 -0.94,-5.93 8.89,-1.41 z m 400.16,-74.4 -8.8,1.87 -1.25,-5.87 8.8,-1.87 z m -398.11,84.62 -8.8,1.87 -1.25,-5.87 8.8,-1.87 z m 392.77,-105.73 -8.56,2.78 -1.85,-5.71 8.56,-2.78 z m -387.08,125.77 -8.56,2.78 -1.85,-5.71 8.56,-2.78 z m 383.61,-136.08 -8.4,3.23 -2.15,-5.6 8.4,-3.23 z m -379.97,145.86 -8.4,3.23 -2.15,-5.6 8.4,-3.23 z m 375.95,-155.98 -8.22,3.66 -2.44,-5.48 8.22,-3.66 z m -371.81,165.54 -8.22,3.66 -2.44,-5.48 8.22,-3.66 z m 367.27,-175.44 -8.02,4.09 -2.72,-5.35 8.02,-4.09 z m -362.64,184.77 -8.02,4.09 -2.72,-5.35 8.02,-4.09 z m 352.03,-203.79 -7.55,4.9 -3.27,-5.03 7.55,-4.9 z m -341.34,221.67 -7.55,4.9 -3.27,-5.03 7.55,-4.9 z m 335.3,-230.73 -7.28,5.29 -3.53,-4.85 7.28,-5.29 z m -329.27,239.23 -7.28,5.29 -3.53,-4.85 7.28,-5.29 z m 322.75,-247.96 -6.99,5.66 -3.78,-4.66 6.99,-5.66 z m -316.3,256.13 -6.99,5.66 -3.78,-4.66 6.99,-5.66 z m 309.35,-264.51 -6.69,6.02 -4.01,-4.46 6.69,-6.02 z m -302.46,272.34 -6.69,6.02 -4.01,-4.46 6.69,-6.02 z m 287.29,-287.95 -6.02,6.69 -4.46,-4.01 6.02,-6.69 z m -8.18,-7.19 -5.66,6.99 -4.66,-3.78 5.66,-6.99 z m -8.54,-6.75 -5.29,7.28 -4.85,-3.53 5.29,-7.28 z m -8.89,-6.3 -4.9,7.55 -5.03,-3.27 4.9,-7.55 z m -18.7,-11.16 -4.09,8.02 -5.35,-2.72 4.09,-8.02 z m -9.76,-4.83 -3.66,8.22 -5.48,-2.44 3.66,-8.22 z m -10,-4.31 -3.23,8.4 -5.6,-2.15 3.23,-8.4 z m -10.21,-3.78 -2.78,8.56 -5.71,-1.85 2.78,-8.56 z m -20.95,-5.94 -1.87,8.8 -5.87,-1.25 1.87,-8.8 z m -84.62,398.11 -1.87,8.8 -5.87,-1.25 1.87,-8.8 z m 73.94,-400.24 -1.41,8.89 -5.93,-0.94 1.41,-8.89 z m -63.67,401.99 -1.41,8.89 -5.93,-0.94 1.41,-8.89 z m 52.89,-403.57 -0.94,8.95 -5.97,-0.63 0.94,-8.95 z m -42.54,404.77 -0.94,8.95 -5.97,-0.63 0.94,-8.95 z m 31.7,-405.78 -0.47,8.99 -5.99,-0.31 0.47,-8.99 z m -21.3,406.44 -0.47,8.99 -5.99,-0.31 0.47,-8.99 z m -0.47,-406.76 0.47,8.99 -5.99,0.31 -0.47,-8.99 z m 21.3,406.44 0.47,8.99 -5.99,0.31 -0.47,-8.99 z m -32.17,-405.74 0.94,8.95 -5.97,0.63 -0.94,-8.95 z m 42.54,404.77 0.94,8.95 -5.97,0.63 -0.94,-8.95 z m -53.36,-403.5 1.41,8.89 -5.93,0.94 -1.41,-8.89 z m 63.67,401.99 1.41,8.89 -5.93,0.94 -1.41,-8.89 z m -74.4,-400.16 1.87,8.8 -5.87,1.25 -1.87,-8.8 z m 84.62,398.11 1.87,8.8 -5.87,1.25 -1.87,-8.8 z m -105.73,-392.8 2.78,8.56 -5.71,1.85 -2.78,-8.56 z m 125.77,387.08 2.78,8.56 -5.71,1.85 -2.78,-8.56 z M 178.26,54.74 l 3.23,8.4 -5.6,2.15 -3.23,-8.4 z m 145.86,379.97 3.23,8.4 -5.6,2.15 -3.23,-8.4 z M 168.14,58.76 l 3.66,8.22 -5.48,2.44 -3.66,-8.22 z m 165.54,371.81 3.66,8.22 -5.48,2.44 -3.66,-8.22 z M 158.24,63.31 l 4.09,8.02 -5.35,2.72 -4.09,-8.02 z m 184.77,362.64 4.09,8.02 -5.35,2.72 -4.09,-8.02 z M 139.22,73.92 l 4.9,7.55 -5.03,3.27 -4.9,-7.55 z m 221.67,341.34 4.9,7.55 -5.03,3.27 -4.9,-7.55 z m -230.72,-335.3 5.29,7.28 -4.85,3.53 -5.29,-7.28 z m 239.23,329.27 5.29,7.28 -4.85,3.53 -5.29,-7.28 z M 121.43,86.47 l 5.66,6.99 -4.66,3.78 -5.66,-6.99 z m 256.13,316.3 5.66,6.99 -4.66,3.78 -5.66,-6.99 z M 113.05,93.42 l 6.02,6.69 -4.46,4.01 -6.02,-6.69 z m 272.34,302.46 6.02,6.69 -4.46,4.01 -6.02,-6.69 z M 97.43,108.59 l 6.69,6.02 -4.01,4.46 -6.69,-6.02 z m 302.46,272.34 6.69,6.02 -4.01,4.46 -6.69,-6.02 z M 90.24,116.77 l 6.99,5.66 -3.78,4.66 -6.99,-5.66 z m 316.3,256.13 6.99,5.66 -3.78,4.66 -6.99,-5.66 z M 83.49,125.31 l 7.28,5.29 -3.53,4.85 -7.28,-5.29 z m 329.27,239.23 7.28,5.29 -3.53,4.85 -7.28,-5.29 z M 77.19,134.2 l 7.55,4.9 -3.27,5.03 -7.55,-4.9 z m 341.34,221.67 7.55,4.9 -3.27,5.03 -7.55,-4.9 z M 66.03,152.9 l 8.02,4.09 -2.72,5.35 -8.02,-4.09 z m 362.64,184.77 8.02,4.09 -2.72,5.35 -8.02,-4.09 z M 61.2,162.66 l 8.22,3.66 -2.44,5.48 -8.22,-3.66 z m 371.81,165.54 8.22,3.66 -2.44,5.48 -8.22,-3.66 z M 56.89,172.66 l 8.4,3.23 -2.15,5.6 -8.4,-3.23 z m 379.97,145.86 8.4,3.23 -2.15,5.6 -8.4,-3.23 z M 53.11,182.87 l 8.56,2.78 -1.85,5.71 -8.56,-2.78 z m 387.08,125.77 8.56,2.78 -1.85,5.71 -8.56,-2.78 z M 47.17,203.82 l 8.8,1.87 -1.25,5.87 -8.8,-1.87 z m 398.11,84.62 8.8,1.87 -1.25,5.87 -8.8,-1.87 z M 45.04,214.5 l 8.89,1.41 -0.94,5.93 -8.89,-1.41 z m 401.99,63.67 8.89,1.41 -0.94,5.93 -8.89,-1.41 z m -403.58,-52.9 8.95,0.94 -0.63,5.97 -8.95,-0.94 z m 404.77,42.54 8.95,0.94 -0.63,5.97 -8.95,-0.94 z m -405.78,-31.7 8.99,0.47 -0.31,5.99 -8.99,-0.47 z m 406.44,21.3 8.99,0.47 -0.31,5.99 -8.99,-0.47 z m 1.25,49.31 -17.39,-4.66 1.55,-5.8 17.39,4.66 z m -384.43,-103 -17.39,-4.66 1.55,-5.8 17.39,4.66 z m 362.94,152.88 -15.59,-9 3,-5.2 15.59,9 z m -344.68,-199 -15.59,-9 3,-5.2 15.59,9 z m 311,241.6 -12.73,-12.73 4.24,-4.24 12.73,12.73 z M 113.53,117.77 100.8,105.04 l 4.24,-4.24 12.73,12.73 z m 237.87,313.86 -9,-15.59 5.2,-3 9,15.59 z m -199,-344.68 -9,-15.59 5.2,-3 9,15.59 z m 148.53,364.73 -4.66,-17.39 5.8,-1.55 4.66,17.39 z m -103,-384.43 -4.66,-17.39 5.8,-1.55 4.66,17.39 z M 247,458 v -18 h 6 v 18 z M 247,60 V 42 h 6 v 18 z m -53.73,390.14 4.66,-17.39 5.8,1.55 -4.66,17.39 z M 296.28,65.7 l 4.66,-17.39 5.8,1.55 -4.66,17.39 z m 46.12,18.26 9,-15.59 5.2,3 -9,15.59 z m -241.6,311 12.73,-12.73 4.24,4.24 -12.73,12.73 z m 281.43,-281.43 12.73,-12.73 4.24,4.24 -12.73,12.73 z M 68.37,351.4 l 15.59,-9 3,5.2 -15.59,9 z m 344.68,-199 15.59,-9 3,5.2 -15.59,9 z m -364.73,148.53 17.39,-4.66 1.55,5.8 -17.39,4.66 z m 384.44,-103.01 17.39,-4.66 1.55,5.8 -17.39,4.66 z M 42,247 h 18 v 6 H 42 Z m 398,0 h 18 v 6 h -18 z" />

</svg>
