<svg
   width="500"
   height="500"
   viewBox="0 0 500 500"
   version="1.1"
   xmlns="http://www.w3.org/2000/svg"
   xmlns:svg="http://www.w3.org/2000/svg">
      <path
         d="M 170.47,13 C 71.46,46.27 0,139.7 0,249.88 c 0,16.99 1.71,33.58 4.94,49.62 l 47.92,-9.34 c 18.67,91.77 99.89,160.89 197.14,160.89 23.48,0 45.94,-4.25 66.89,-11.66 l 16.72,45.84 C 430.48,450.77 500,358.51 500,249.88 500,139.7 428.54,46.27 329.53,13 L 313.6,59.14 C 293.59,52.47 272.24,48.71 250,48.71 c -22.24,0 -43.59,3.76 -63.6,10.44 z"
         id="path6644" />
      <path
         id="path8866"
         style="fill:#daf01e;"
         d="m 41.63,126.95 c -21.34,36.07 -33.82,78 -33.82,122.92 0,16.6 1.7,32.79 4.88,48.46 l 15.26,-3.23 c -2.96,-14.61 -4.51,-29.74 -4.51,-45.23 0,-41.99 11.62,-81.2 31.56,-114.93 z m 26.61,160.28 -15.38,2.93 c 0.68,3.35 1.59,6.6 2.44,9.89 l 15.13,-4.1 c -0.75,-2.91 -1.59,-5.76 -2.2,-8.73 z" />
      <path
         id="path9599"
         style="fill:#4bc70e;"
         d="m 487.3,201.41 -15.26,3.3 c 2.96,14.6 4.52,29.7 4.52,45.17 0,98.54 -63.15,182.22 -151.06,213.38 l 5.13,14.77 c 94.03,-33.27 161.56,-122.77 161.56,-228.15 0,-16.6 -1.7,-32.79 -4.88,-48.46 z m -416.68,95.15 -15.14,3.79 c 22.45,86.6 100.94,150.69 194.52,150.69 23.48,0 45.94,-4.25 66.89,-11.66 l -5.31,-14.65 c -19.29,6.81 -39.97,10.69 -61.58,10.69 -86.27,0 -158.63,-59.05 -179.38,-138.86 z" />
      <path
         id="path11079"
         style="fill:#ffffff;"
         d="m 145.53,38 v 16.73 h 2.03 v -6.8 h 3.94 c 2.17,0 3.67,-0.49 4.5,-1.47 0.83,-0.99 1.25,-2.2 1.25,-3.62 0,-0.83 -0.16,-1.59 -0.47,-2.28 -0.31,-0.69 -0.72,-1.23 -1.22,-1.61 -0.51,-0.39 -1.14,-0.65 -1.89,-0.79 C 153.13,38.05 152.35,38 151.34,38 Z m 224.19,1.25 -40.24,66.97 10.04,6.04 40.24,-66.96 z m -222.16,0.72 h 3.92 c 0.92,0 1.55,0.05 1.89,0.15 0.53,0.16 0.96,0.49 1.28,0.99 0.33,0.49 0.49,1.09 0.49,1.79 0,0.97 -0.27,1.72 -0.83,2.25 -0.55,0.53 -1.48,0.8 -2.79,0.8 h -3.97 z M 248.05,52.6 v 13.67 h 3.91 V 52.61 Z m -9.86,0.34 -3.9,0.27 0.95,13.64 3.9,-0.27 z m 23.62,0 -0.95,13.64 3.9,0.27 0.95,-13.64 z m -37.33,1.3 -3.87,0.54 1.9,13.54 3.87,-0.54 z m 51.04,0 -1.9,13.54 3.87,0.54 1.9,-13.54 z m -64.62,2.26 -3.82,0.81 2.84,13.37 3.82,-0.81 z m 78.21,0 -2.84,13.37 3.82,0.81 2.84,-13.37 z m -151.05,3.9 -5.65,15.38 h 2.07 l 1.62,-4.66 h 6.15 l 1.72,4.66 h 2.22 L 140.17,60.4 Z m 9.6,0 v 15.4 h 9.19 V 73.98 H 149.6 V 60.41 Z m 8.88,0 v 1.81 h 4.85 V 75.8 h 1.95 V 62.23 h 4.87 v -1.81 z m -17.47,1.62 c 0.23,0.83 0.58,1.9 1.04,3.19 l 1.54,4.26 h -4.99 l 1.62,-4.51 c 0.34,-0.97 0.61,-1.95 0.79,-2.94 z m 270.1,5.25 -28.75,31.93 5.8,5.23 28.75,-31.93 z m -158.3,3.39 c -1.08,0 -1.98,0.33 -2.69,0.99 -0.71,0.66 -1.24,1.6 -1.61,2.81 -0.36,1.21 -0.54,2.81 -0.54,4.8 0,3.16 0.49,5.44 1.47,6.84 0.82,1.16 1.94,1.74 3.37,1.74 1.09,0 1.98,-0.33 2.69,-0.99 0.71,-0.67 1.25,-1.6 1.61,-2.81 0.36,-1.22 0.54,-2.81 0.54,-4.79 0,-1.67 -0.11,-2.99 -0.33,-3.97 -0.22,-0.99 -0.53,-1.82 -0.92,-2.5 -0.39,-0.69 -0.89,-1.21 -1.49,-1.57 -0.6,-0.37 -1.3,-0.55 -2.1,-0.55 z m -0.02,1.71 c 0.85,0 1.56,0.45 2.12,1.37 0.57,0.91 0.86,2.75 0.86,5.52 0,2.75 -0.29,4.59 -0.86,5.51 -0.57,0.92 -1.27,1.38 -2.11,1.38 -0.84,0 -1.54,-0.45 -2.11,-1.37 -0.57,-0.92 -0.85,-2.76 -0.85,-5.52 0,-2.76 0.31,-4.65 0.94,-5.68 0.5,-0.8 1.17,-1.21 2,-1.21 z m 33.02,0.34 c -1.26,0 -2.32,0.38 -3.17,1.15 -0.85,0.76 -1.39,1.83 -1.63,3.21 l 1.96,0.37 c 0.15,-1.01 0.47,-1.77 0.98,-2.27 0.51,-0.51 1.14,-0.76 1.91,-0.76 0.77,0 1.4,0.25 1.89,0.75 0.49,0.5 0.73,1.12 0.73,1.88 0,0.96 -0.34,1.66 -1,2.12 -0.67,0.46 -1.42,0.69 -2.26,0.69 -0.08,0 -0.19,-0.01 -0.32,-0.02 l -0.22,1.81 c 0.55,-0.15 1.01,-0.23 1.38,-0.23 0.91,0 1.66,0.31 2.25,0.93 0.59,0.61 0.88,1.39 0.88,2.34 0,0.99 -0.32,1.83 -0.96,2.5 -0.63,0.67 -1.41,1.01 -2.33,1.01 -0.78,0 -1.44,-0.25 -1.98,-0.77 -0.54,-0.52 -0.92,-1.37 -1.14,-2.54 l -1.96,0.28 c 0.13,1.4 0.66,2.54 1.58,3.42 0.93,0.88 2.1,1.32 3.5,1.32 1.56,0 2.84,-0.51 3.86,-1.53 1.02,-1.03 1.53,-2.27 1.53,-3.74 0,-1.09 -0.26,-1.99 -0.79,-2.71 -0.52,-0.73 -1.26,-1.21 -2.2,-1.44 0.73,-0.35 1.28,-0.83 1.65,-1.42 0.37,-0.6 0.56,-1.26 0.56,-1.98 0,-0.77 -0.2,-1.49 -0.59,-2.17 -0.39,-0.68 -0.95,-1.22 -1.68,-1.61 -0.73,-0.4 -1.54,-0.6 -2.41,-0.6 z m 12.62,0 c -1.16,0 -2.13,0.33 -2.9,0.99 -0.76,0.66 -1.34,1.6 -1.73,2.81 -0.39,1.21 -0.58,2.81 -0.58,4.8 0,3.16 0.53,5.44 1.58,6.84 0.88,1.16 2.09,1.74 3.63,1.74 1.17,0 2.14,-0.33 2.9,-0.99 0.77,-0.67 1.35,-1.6 1.73,-2.81 0.39,-1.22 0.58,-2.81 0.58,-4.79 0,-1.67 -0.12,-2.99 -0.36,-3.97 -0.24,-0.99 -0.57,-1.82 -0.99,-2.5 -0.42,-0.69 -0.96,-1.21 -1.6,-1.57 -0.65,-0.37 -1.4,-0.55 -2.26,-0.55 z m -0.02,1.71 c 0.92,0 1.68,0.45 2.29,1.37 0.62,0.91 0.93,2.75 0.93,5.52 0,2.75 -0.31,4.59 -0.93,5.51 -0.61,0.92 -1.37,1.38 -2.27,1.38 -0.9,0 -1.66,-0.45 -2.28,-1.37 -0.61,-0.92 -0.92,-2.76 -0.92,-5.52 0,-2.76 0.34,-4.65 1.01,-5.68 0.54,-0.8 1.26,-1.21 2.16,-1.21 z m -90.31,0.29 c -1.17,0 -2.15,0.38 -2.94,1.15 -0.79,0.76 -1.29,1.83 -1.52,3.21 l 1.8,0.38 c 0.13,-1.01 0.44,-1.77 0.91,-2.27 0.47,-0.51 1.06,-0.76 1.77,-0.76 0.71,0 1.3,0.25 1.75,0.75 0.45,0.5 0.68,1.13 0.68,1.88 0,0.96 -0.31,1.66 -0.93,2.12 -0.62,0.46 -1.32,0.69 -2.09,0.69 -0.07,0 -0.17,-0.01 -0.29,-0.02 l -0.2,1.81 c 0.51,-0.15 0.94,-0.23 1.29,-0.23 0.84,0 1.54,0.31 2.08,0.93 0.55,0.61 0.82,1.39 0.82,2.34 0,0.99 -0.3,1.83 -0.89,2.5 -0.59,0.67 -1.31,1.01 -2.16,1.01 -0.72,0 -1.34,-0.26 -1.84,-0.77 -0.5,-0.52 -0.85,-1.37 -1.06,-2.54 l -1.82,0.28 c 0.12,1.4 0.61,2.54 1.47,3.42 0.86,0.88 1.94,1.32 3.25,1.32 1.44,0 2.64,-0.51 3.58,-1.53 0.94,-1.03 1.42,-2.27 1.42,-3.74 0,-1.09 -0.24,-1.99 -0.73,-2.71 -0.49,-0.73 -1.17,-1.2 -2.04,-1.43 0.67,-0.35 1.18,-0.83 1.53,-1.42 0.34,-0.6 0.52,-1.26 0.52,-1.99 0,-0.77 -0.18,-1.49 -0.54,-2.17 -0.36,-0.68 -0.88,-1.22 -1.56,-1.61 -0.68,-0.4 -1.43,-0.6 -2.24,-0.6 z m 11.71,0 c -1.08,0 -1.97,0.33 -2.69,0.99 -0.71,0.66 -1.25,1.59 -1.61,2.81 -0.36,1.21 -0.54,2.81 -0.54,4.8 0,3.16 0.49,5.44 1.47,6.84 0.82,1.16 1.94,1.74 3.37,1.74 1.09,0 1.98,-0.33 2.69,-0.99 0.71,-0.67 1.25,-1.6 1.61,-2.81 0.36,-1.22 0.54,-2.81 0.54,-4.79 0,-1.67 -0.11,-2.99 -0.33,-3.97 -0.22,-0.99 -0.53,-1.82 -0.92,-2.5 -0.39,-0.69 -0.89,-1.21 -1.49,-1.57 -0.6,-0.37 -1.3,-0.55 -2.1,-0.55 z m -0.02,1.71 c 0.85,0 1.56,0.45 2.12,1.37 0.57,0.91 0.86,2.75 0.86,5.52 0,2.75 -0.29,4.59 -0.86,5.51 -0.57,0.92 -1.27,1.38 -2.11,1.38 -0.84,0 -1.54,-0.46 -2.11,-1.37 -0.57,-0.92 -0.85,-2.76 -0.85,-5.52 0,-2.76 0.31,-4.66 0.94,-5.68 0.5,-0.8 1.17,-1.21 2,-1.21 z m -24.11,1.34 v 4.58 h -4.04 v 1.93 h 4.04 v 4.62 h 1.72 v -4.62 h 4.04 v -1.92 h -4.06 v -4.58 z m -115.24,1.06 -5.43,5.62 30.91,29.85 5.43,-5.62 z m 192.69,3.67 v 2.08 h 6.03 v -2.08 z m 166.06,13.66 -61.56,48.1 7.21,9.23 61.56,-48.1 z m -213.89,2.32 v 1.99 h 4.59 v 14.9 h 1.84 v -14.9 h 4.61 v -1.99 z m 12.96,0 v 16.89 h 10.39 v -1.99 h -8.55 v -5.76 h 7.7 v -1.98 h -7.7 v -5.17 h 8.22 v -1.99 z m 12.88,0 v 16.89 h 1.78 v -14.38 l 4.03,14.38 h 1.66 l 4.04,-14.14 v 14.14 h 1.78 v -16.9 h -2.48 l -3.33,11.75 c -0.34,1.19 -0.58,2.09 -0.74,2.71 -0.14,-0.55 -0.36,-1.39 -0.67,-2.5 l -3.29,-11.96 z m 16.26,0 v 16.89 h 1.84 v -6.87 h 3.57 c 1.97,0 3.33,-0.5 4.08,-1.49 0.75,-1 1.13,-2.22 1.13,-3.65 0,-0.84 -0.14,-1.61 -0.43,-2.3 -0.28,-0.7 -0.65,-1.24 -1.11,-1.62 -0.46,-0.39 -1.04,-0.66 -1.72,-0.79 -0.49,-0.11 -1.19,-0.16 -2.12,-0.16 z m -205.34,0.97 -7.05,9.36 62.39,47.02 7.05,-9.36 z m 207.18,1.02 h 3.56 c 0.84,0 1.41,0.05 1.72,0.15 0.48,0.16 0.87,0.5 1.16,1 0.3,0.5 0.45,1.1 0.45,1.81 0,0.98 -0.25,1.73 -0.75,2.27 -0.5,0.54 -1.35,0.81 -2.54,0.81 h -3.6 z m 63.4,13.47 c -2.42,0 -4.42,0.57 -6.02,1.7 -1.59,1.13 -2.79,2.74 -3.6,4.83 -0.8,2.08 -1.2,4.83 -1.2,8.24 0,5.43 1.09,9.35 3.28,11.76 1.83,2 4.34,3 7.54,3 2.43,0 4.44,-0.57 6.02,-1.7 1.6,-1.14 2.8,-2.75 3.6,-4.83 0.8,-2.09 1.2,-4.83 1.2,-8.22 0,-2.87 -0.25,-5.14 -0.75,-6.82 -0.5,-1.7 -1.18,-3.13 -2.06,-4.3 -0.88,-1.18 -1.98,-2.08 -3.33,-2.7 -1.34,-0.63 -2.91,-0.95 -4.69,-0.95 z m -22.8,0.12 -15.15,18.74 v 3.26 h 14.4 v 6.92 h 4.08 v -6.92 h 4.48 v -3.26 h -4.48 v -18.74 z m 22.76,2.82 c 1.9,0 3.49,0.78 4.75,2.35 1.28,1.56 1.93,4.73 1.93,9.49 0,4.73 -0.64,7.89 -1.93,9.47 -1.27,1.58 -2.84,2.37 -4.71,2.37 -1.87,0 -3.45,-0.78 -4.73,-2.35 -1.27,-1.58 -1.9,-4.74 -1.9,-9.49 0,-4.75 0.7,-8 2.11,-9.76 1.12,-1.38 2.61,-2.07 4.48,-2.07 z m -23.51,2.88 v 13.04 h -10.39 z m 156.88,16.7 -38.29,19.51 3.55,6.96 38.29,-19.51 z m -434.66,13.41 -4.58,10.79 71.91,30.53 4.58,-10.79 z m 93.32,6.11 c -2.78,0 -4.99,0.81 -6.64,2.42 -1.65,1.6 -2.6,3.93 -2.85,6.99 l 3.69,0.42 c 0.01,-2.04 0.54,-3.64 1.57,-4.79 1.04,-1.15 2.42,-1.73 4.15,-1.73 1.63,0 2.96,0.55 3.97,1.64 1.02,1.08 1.54,2.41 1.54,3.99 0,1.51 -0.56,3.11 -1.67,4.81 -1.12,1.69 -3.26,3.98 -6.44,6.88 -2.05,1.86 -3.61,3.5 -4.7,4.92 -1.08,1.42 -1.86,2.86 -2.35,4.33 -0.31,0.89 -0.44,1.81 -0.42,2.77 h 19.32 v -3.84 h -14.33 c 0.4,-0.72 0.9,-1.44 1.52,-2.15 0.61,-0.72 1.99,-2.09 4.15,-4.1 2.58,-2.43 4.42,-4.33 5.52,-5.72 1.12,-1.39 1.91,-2.71 2.39,-3.97 0.48,-1.26 0.72,-2.54 0.72,-3.84 0,-2.56 -0.82,-4.7 -2.45,-6.43 -1.63,-1.73 -3.85,-2.6 -6.66,-2.6 z m 22.53,0 c -2.13,0 -3.89,0.64 -5.3,1.91 -1.4,1.27 -2.45,3.08 -3.17,5.43 -0.7,2.34 -1.06,5.43 -1.06,9.27 0,6.11 0.96,10.51 2.89,13.22 1.61,2.25 3.82,3.37 6.64,3.37 2.14,0 3.91,-0.64 5.3,-1.91 1.41,-1.29 2.46,-3.1 3.17,-5.44 0.7,-2.35 1.06,-5.43 1.06,-9.25 0,-3.22 -0.22,-5.78 -0.66,-7.68 -0.44,-1.91 -1.04,-3.52 -1.81,-4.84 -0.77,-1.33 -1.75,-2.34 -2.93,-3.04 -1.18,-0.71 -2.56,-1.06 -4.13,-1.06 z m 22.71,0 c -2.13,0 -3.89,0.64 -5.3,1.91 -1.4,1.27 -2.45,3.08 -3.17,5.43 -0.7,2.34 -1.06,5.43 -1.06,9.27 0,6.11 0.96,10.51 2.89,13.22 1.61,2.25 3.82,3.37 6.64,3.37 2.14,0 3.91,-0.64 5.3,-1.91 1.41,-1.29 2.47,-3.1 3.17,-5.44 0.7,-2.35 1.06,-5.43 1.06,-9.25 0,-3.22 -0.22,-5.78 -0.66,-7.68 -0.44,-1.91 -1.04,-3.52 -1.81,-4.84 -0.77,-1.33 -1.75,-2.34 -2.93,-3.04 -1.18,-0.71 -2.56,-1.06 -4.12,-1.06 z m -22.75,3.3 c 1.67,0 3.07,0.88 4.19,2.64 1.13,1.76 1.69,5.32 1.69,10.67 0,5.32 -0.56,8.87 -1.69,10.65 -1.12,1.77 -2.5,2.66 -4.15,2.66 -1.65,0 -3.04,-0.88 -4.17,-2.64 -1.12,-1.77 -1.68,-5.33 -1.68,-10.67 0,-5.34 0.62,-9 1.86,-10.98 0.98,-1.55 2.3,-2.33 3.95,-2.33 z m 22.71,0 c 1.67,0 3.07,0.88 4.19,2.64 1.13,1.76 1.7,5.32 1.7,10.67 0,5.32 -0.57,8.87 -1.7,10.65 -1.12,1.77 -2.5,2.66 -4.14,2.66 -1.65,0 -3.04,-0.88 -4.17,-2.64 -1.12,-1.77 -1.67,-5.33 -1.67,-10.67 0,-5.34 0.62,-9 1.85,-10.98 0.98,-1.55 2.3,-2.33 3.95,-2.33 z m 69.6,4.88 c -1.2,0 -2.28,0.27 -3.26,0.81 -0.98,0.54 -1.72,1.33 -2.23,2.38 -0.51,1.04 -0.76,2.16 -0.76,3.36 0,1.09 0.21,2.08 0.62,2.97 0.42,0.88 1.05,1.61 1.9,2.2 0.65,0.46 1.8,0.96 3.43,1.49 1.63,0.52 2.68,0.9 3.16,1.15 0.74,0.38 1.28,0.85 1.6,1.41 0.32,0.55 0.48,1.2 0.48,1.95 0,0.73 -0.17,1.42 -0.51,2.04 -0.33,0.62 -0.84,1.1 -1.53,1.46 -0.69,0.36 -1.48,0.54 -2.37,0.54 -1.01,0 -1.92,-0.23 -2.73,-0.7 -0.81,-0.48 -1.4,-1.09 -1.79,-1.85 -0.38,-0.77 -0.62,-1.74 -0.73,-2.93 l -2.22,0.26 c 0.03,1.59 0.36,3.01 0.97,4.28 0.62,1.25 1.47,2.19 2.55,2.82 1.09,0.63 2.44,0.94 4.05,0.94 1.27,0 2.4,-0.31 3.41,-0.92 1.02,-0.63 1.8,-1.5 2.34,-2.61 0.54,-1.12 0.81,-2.32 0.81,-3.58 0,-1.28 -0.25,-2.4 -0.74,-3.37 -0.49,-0.98 -1.26,-1.79 -2.29,-2.43 -0.71,-0.43 -2.02,-0.94 -3.94,-1.51 -1.91,-0.58 -3.08,-1.15 -3.54,-1.7 -0.46,-0.55 -0.69,-1.25 -0.69,-2.11 0,-0.98 0.32,-1.82 0.97,-2.51 0.65,-0.7 1.69,-1.05 3.11,-1.05 1.36,0 2.39,0.39 3.09,1.15 0.7,0.77 1.11,1.9 1.23,3.4 l 2.25,-0.23 c -0.04,-1.39 -0.33,-2.64 -0.87,-3.74 -0.54,-1.1 -1.31,-1.93 -2.32,-2.5 -1,-0.57 -2.16,-0.86 -3.48,-0.86 z m -42.61,0.41 -6.82,23.76 h 2.49 l 1.95,-7.2 h 7.42 l 2.07,7.2 h 2.68 l -7.27,-23.76 z m 12.08,0 v 23.76 h 2.35 v -23.76 z m 6.53,0 v 23.76 h 2.35 v -10.55 h 2.72 c 0.61,0 1.04,0.04 1.31,0.12 0.36,0.12 0.72,0.33 1.07,0.63 0.36,0.3 0.76,0.83 1.2,1.59 0.44,0.76 1.01,1.85 1.7,3.27 l 2.35,4.94 h 2.96 l -3.09,-6.47 c -0.61,-1.26 -1.26,-2.32 -1.95,-3.16 -0.32,-0.39 -0.79,-0.78 -1.42,-1.18 1.7,-0.31 2.96,-1.05 3.78,-2.21 0.82,-1.16 1.22,-2.58 1.22,-4.26 0,-1.31 -0.25,-2.5 -0.74,-3.58 -0.49,-1.08 -1.15,-1.83 -1.97,-2.25 -0.82,-0.43 -2.03,-0.65 -3.61,-0.65 z m 34.42,0 v 23.76 h 2.35 v -9.66 h 4.55 c 2.51,0 4.25,-0.7 5.21,-2.09 0.96,-1.4 1.44,-3.12 1.44,-5.14 0,-1.18 -0.18,-2.26 -0.55,-3.24 -0.36,-0.98 -0.83,-1.74 -1.42,-2.29 -0.59,-0.55 -1.32,-0.92 -2.19,-1.12 -0.62,-0.15 -1.52,-0.23 -2.7,-0.23 z m 16.59,0 v 23.76 h 13.25 v -2.8 h -10.9 v -8.09 h 9.82 v -2.79 h -9.82 v -7.28 h 10.49 v -2.8 z m 16.54,0 v 23.76 h 13.25 v -2.8 h -10.9 v -8.09 h 9.82 v -2.79 h -9.82 v -7.28 h 10.49 v -2.8 z m 16.5,0 v 23.76 h 6.41 c 1.07,0 2.02,-0.13 2.85,-0.4 0.83,-0.27 1.54,-0.66 2.12,-1.18 0.59,-0.53 1.13,-1.25 1.62,-2.16 0.49,-0.92 0.9,-2.07 1.21,-3.47 0.31,-1.39 0.47,-2.99 0.47,-4.8 0,-2.12 -0.23,-4 -0.7,-5.64 -0.46,-1.65 -1.16,-3.01 -2.1,-4.07 -0.72,-0.82 -1.59,-1.39 -2.6,-1.7 -0.73,-0.23 -1.78,-0.34 -3.16,-0.34 z m -101.45,2.5 c 0.27,1.29 0.69,2.93 1.26,4.93 l 1.85,6.58 h -6.02 l 1.95,-6.97 c 0.41,-1.5 0.73,-3.02 0.96,-4.54 z m 19.74,0.13 h 5.62 c 1.32,0 2.28,0.36 2.88,1.09 0.61,0.72 0.92,1.65 0.92,2.77 0,0.77 -0.16,1.48 -0.47,2.14 -0.31,0.65 -0.78,1.12 -1.38,1.43 -0.61,0.29 -1.45,0.44 -2.52,0.44 h -5.05 z m 34.42,0.18 h 4.54 c 1.07,0 1.8,0.07 2.19,0.21 0.61,0.23 1.11,0.7 1.48,1.41 0.38,0.7 0.57,1.55 0.57,2.54 0,1.37 -0.32,2.44 -0.96,3.19 -0.64,0.76 -1.71,1.13 -3.23,1.13 h -4.59 z m 49.64,0 h 3.73 c 1.4,0 2.41,0.16 3.04,0.49 0.87,0.45 1.61,1.35 2.22,2.69 0.61,1.33 0.92,3.24 0.92,5.72 0,1.79 -0.16,3.32 -0.47,4.59 -0.31,1.25 -0.74,2.25 -1.3,3 -0.4,0.53 -0.93,0.94 -1.6,1.23 -0.66,0.29 -1.58,0.44 -2.75,0.44 h -3.79 z m -280.32,7.98 -2.29,7.47 41.09,12.56 2.29,-7.47 z m 462.88,6.21 -75.46,20.22 3.03,11.32 75.46,-20.22 z m -112.14,12.05 c -3.33,0 -5.98,1.3 -7.94,3.91 -2.25,2.99 -3.38,7.79 -3.38,14.38 0,5.89 1.02,10.12 3.06,12.7 2.04,2.56 4.67,3.84 7.9,3.84 1.89,0 3.59,-0.49 5.08,-1.46 1.49,-0.98 2.66,-2.38 3.51,-4.21 0.86,-1.85 1.29,-3.84 1.29,-5.98 0,-3.26 -0.91,-5.91 -2.73,-7.96 -1.81,-2.06 -4,-3.09 -6.59,-3.09 -1.48,0 -2.89,0.37 -4.24,1.12 -1.35,0.74 -2.49,1.88 -3.42,3.42 0.03,-3.41 0.39,-6.04 1.1,-7.89 0.7,-1.85 1.66,-3.25 2.88,-4.21 0.93,-0.74 2.02,-1.12 3.25,-1.12 1.54,0 2.83,0.6 3.88,1.79 0.63,0.74 1.12,1.94 1.46,3.58 l 3.85,-0.32 c -0.32,-2.65 -1.27,-4.73 -2.86,-6.23 -1.58,-1.5 -3.61,-2.26 -6.09,-2.26 z m 23.66,0 c -2.3,0 -4.21,0.67 -5.73,2 -1.51,1.33 -2.65,3.23 -3.42,5.7 -0.76,2.45 -1.14,5.69 -1.14,9.72 0,6.4 1.04,11.03 3.12,13.86 1.74,2.36 4.13,3.54 7.17,3.54 2.31,0 4.22,-0.67 5.72,-2 1.52,-1.35 2.66,-3.25 3.42,-5.7 0.76,-2.47 1.14,-5.7 1.14,-9.7 0,-3.38 -0.24,-6.06 -0.71,-8.05 -0.47,-2 -1.13,-3.69 -1.96,-5.07 -0.83,-1.4 -1.89,-2.46 -3.16,-3.19 -1.28,-0.74 -2.76,-1.12 -4.46,-1.12 z m -0.04,3.47 c 1.81,0 3.31,0.92 4.52,2.77 1.22,1.85 1.83,5.58 1.83,11.19 0,5.58 -0.61,9.31 -1.83,11.17 -1.21,1.86 -2.7,2.79 -4.48,2.79 -1.78,0 -3.28,-0.92 -4.5,-2.77 -1.21,-1.86 -1.81,-5.59 -1.81,-11.19 0,-5.6 0.67,-9.44 2,-11.51 1.06,-1.63 2.48,-2.44 4.26,-2.44 z m 77.24,3.75 -16.18,3.72 c 1.82,7.57 3.25,15.28 4.27,23.12 l -11.1,0.97 0.68,7.78 11.29,-0.99 c 0.55,6.05 0.85,12.17 0.85,18.37 0,2.9 -0.06,5.78 -0.18,8.65 l -46.81,-4.1 -1.02,11.68 46.99,4.11 c -0.88,9.11 -2.33,18.06 -4.33,26.79 l -12.15,-3.26 -2.02,7.55 12.29,3.29 c -2.38,8.84 -5.29,17.47 -8.75,25.81 l -43.78,-20.41 -4.95,10.62 43.9,20.47 c -3.44,7.13 -7.26,14.03 -11.45,20.68 l -11.32,-7.64 -4.37,6.48 11.41,7.69 c -5.87,8.6 -12.36,16.74 -19.4,24.36 l -34.82,-34.82 -8.29,8.29 34.93,34.92 c -4.8,4.65 -9.83,9.07 -15.06,13.25 l -8.72,-11.58 -6.24,4.7 8.78,11.64 c -7.37,5.46 -15.09,10.47 -23.15,14.95 l -22.76,-44.54 -10.44,5.32 22.73,44.62 c -6.6,3.21 -13.38,6.11 -20.35,8.63 l 3.91,11.29 c 7.51,-2.66 14.82,-5.74 21.94,-9.14 l 7.24,14.21 10.44,-5.32 -7.23,-14.2 c 8.74,-4.75 17.11,-10.07 25.11,-15.88 l 9.58,12.72 6.24,-4.7 -9.58,-12.72 c 5.74,-4.48 11.29,-9.2 16.57,-14.2 l 11.25,11.25 8.29,-8.29 -11.27,-11.27 c 7.74,-8.13 14.89,-16.82 21.36,-26.02 l 13.11,8.84 4.37,-6.48 -13.09,-8.83 c 4.69,-7.18 8.99,-14.64 12.85,-22.36 l 14.29,6.66 4.95,-10.62 -14.28,-6.66 c 3.95,-9.04 7.37,-18.37 10.12,-27.97 l 15.1,4.05 2.02,-7.55 -15.12,-4.05 c 2.38,-9.53 4.15,-19.31 5.27,-29.28 l 15.66,1.37 1.02,-11.67 -15.69,-1.37 c 0.28,-4.6 0.47,-9.23 0.47,-13.9 0,-5.33 -0.21,-10.61 -0.59,-15.85 l 15.63,-1.37 -0.68,-7.78 -15.64,1.37 c -0.92,-8.63 -2.31,-17.11 -4.15,-25.44 z m -458.62,1.24 -2.04,11.54 76.94,13.57 2.04,-11.54 z m 102.55,4.95 c -2.4,0 -4.32,0.78 -5.76,2.35 -1.44,1.57 -2.17,3.51 -2.17,5.81 0,1.53 0.34,2.84 1.02,3.93 0.68,1.09 1.72,1.94 3.12,2.53 -1.68,0.5 -2.98,1.45 -3.9,2.85 -0.9,1.38 -1.36,3.1 -1.36,5.16 0,2.76 0.83,5.07 2.5,6.93 1.67,1.84 3.86,2.76 6.59,2.76 2.72,0 4.92,-0.92 6.59,-2.76 1.67,-1.84 2.5,-4.12 2.5,-6.82 0,-1.96 -0.44,-3.64 -1.34,-5.05 -0.88,-1.41 -2.16,-2.43 -3.86,-3.07 1.37,-0.59 2.38,-1.42 3.05,-2.5 0.68,-1.09 1.02,-2.38 1.02,-3.84 0,-2.3 -0.73,-4.26 -2.2,-5.85 -1.47,-1.61 -3.41,-2.42 -5.82,-2.42 z m 21.44,0 c -2.01,0 -3.68,0.62 -5.01,1.86 -1.32,1.24 -2.31,3 -2.99,5.29 -0.67,2.27 -1,5.28 -1,9.03 0,5.95 0.91,10.23 2.73,12.87 1.52,2.19 3.61,3.28 6.27,3.28 2.02,0 3.69,-0.62 5.01,-1.86 1.33,-1.25 2.33,-3.02 2.99,-5.29 0.67,-2.29 1,-5.29 1,-9 0,-3.14 -0.21,-5.63 -0.62,-7.47 -0.41,-1.86 -0.99,-3.43 -1.71,-4.71 -0.73,-1.3 -1.65,-2.28 -2.77,-2.96 -1.12,-0.69 -2.42,-1.04 -3.9,-1.04 z m -39.15,0.13 v 31.66 h 3.65 v -31.66 z m 272.34,2.28 c 1.77,0 3.23,0.68 4.39,2.05 1.16,1.35 1.74,3.2 1.74,5.56 0,2.45 -0.59,4.39 -1.77,5.81 -1.18,1.43 -2.58,2.14 -4.22,2.14 -1.12,0 -2.19,-0.34 -3.21,-1.02 -1.02,-0.7 -1.81,-1.71 -2.39,-3.03 -0.56,-1.32 -0.84,-2.7 -0.84,-4.14 0,-2.2 0.61,-3.98 1.83,-5.33 1.22,-1.36 2.7,-2.05 4.46,-2.05 z m -254.59,0.79 c 1.28,0 2.35,0.49 3.2,1.47 0.87,0.96 1.3,2.16 1.3,3.59 0,1.37 -0.42,2.53 -1.26,3.48 -0.83,0.94 -1.9,1.4 -3.2,1.4 -1.34,0 -2.43,-0.47 -3.28,-1.42 -0.84,-0.95 -1.26,-2.17 -1.26,-3.67 0,-1.32 0.43,-2.46 1.28,-3.41 0.85,-0.95 1.93,-1.42 3.22,-1.42 z m 21.36,0.02 c 1.58,0 2.9,0.86 3.95,2.57 1.07,1.71 1.6,5.18 1.6,10.39 0,5.18 -0.53,8.64 -1.6,10.37 -1.05,1.73 -2.36,2.59 -3.91,2.59 -1.56,0 -2.87,-0.86 -3.94,-2.57 -1.05,-1.73 -1.58,-5.19 -1.58,-10.39 0,-5.2 0.58,-8.76 1.75,-10.69 0.93,-1.51 2.17,-2.27 3.73,-2.27 z m -21.42,13.08 c 1.63,0 2.99,0.61 4.07,1.84 1.09,1.22 1.64,2.77 1.64,4.64 0,1.84 -0.53,3.36 -1.58,4.56 -1.05,1.19 -2.39,1.79 -4.01,1.79 -1.04,0 -2.01,-0.28 -2.92,-0.84 -0.9,-0.58 -1.59,-1.38 -2.05,-2.42 -0.45,-1.04 -0.68,-2.11 -0.68,-3.22 0,-1.81 0.52,-3.33 1.56,-4.54 1.05,-1.21 2.38,-1.81 3.97,-1.81 z m -106.69,10 -0.41,7.8 42.91,2.25 0.41,-7.8 z m 77.51,19.31 -78.02,4.09 0.61,11.7 78.02,-4.09 z m 30.02,36.88 c -2.21,0 -3.96,0.91 -5.26,2.73 -1.49,2.09 -2.24,5.44 -2.24,10.04 0,4.12 0.67,7.07 2.03,8.87 1.35,1.79 3.1,2.68 5.24,2.68 1.26,0 2.38,-0.34 3.37,-1.03 0.99,-0.68 1.76,-1.66 2.32,-2.94 0.57,-1.29 0.86,-2.68 0.86,-4.18 0,-2.27 -0.6,-4.13 -1.81,-5.56 -1.2,-1.44 -2.65,-2.16 -4.37,-2.16 -0.98,0 -1.92,0.26 -2.81,0.78 -0.89,0.52 -1.65,1.32 -2.27,2.39 0.02,-2.38 0.26,-4.22 0.73,-5.51 0.47,-1.29 1.1,-2.27 1.91,-2.94 0.62,-0.52 1.34,-0.78 2.15,-0.78 1.02,0 1.87,0.42 2.57,1.25 0.42,0.52 0.74,1.35 0.97,2.5 l 2.55,-0.23 c -0.21,-1.85 -0.84,-3.3 -1.9,-4.36 -1.05,-1.05 -2.39,-1.57 -4.04,-1.57 z m 15.68,0 c -1.52,0 -2.79,0.47 -3.79,1.4 -1,0.93 -1.75,2.26 -2.27,3.98 -0.5,1.71 -0.76,3.98 -0.76,6.79 0,4.47 0.69,7.7 2.07,9.68 1.15,1.65 2.73,2.47 4.75,2.47 1.53,0 2.8,-0.47 3.79,-1.4 1.01,-0.94 1.77,-2.27 2.27,-3.98 0.5,-1.72 0.76,-3.98 0.76,-6.77 0,-2.36 -0.16,-4.23 -0.47,-5.62 -0.31,-1.4 -0.75,-2.58 -1.3,-3.54 -0.55,-0.97 -1.25,-1.72 -2.1,-2.22 -0.85,-0.52 -1.83,-0.78 -2.95,-0.78 z m -29.67,0.1 v 23.82 h 2.77 v -23.85 z m 29.65,2.32 c 1.2,0 2.2,0.64 3,1.93 0.81,1.29 1.21,3.89 1.21,7.81 0,3.9 -0.4,6.5 -1.21,7.8 -0.8,1.3 -1.79,1.95 -2.97,1.95 -1.18,0 -2.17,-0.64 -2.98,-1.93 -0.8,-1.3 -1.2,-3.9 -1.2,-7.81 0,-3.91 0.44,-6.59 1.33,-8.04 0.7,-1.14 1.64,-1.71 2.82,-1.71 z m 230.69,4.43 c -2.37,0 -4.26,0.8 -5.69,2.41 -1.43,1.6 -2.14,3.58 -2.14,5.94 0,1.56 0.33,2.9 1,4.02 0.67,1.12 1.7,1.98 3.09,2.58 -1.66,0.52 -2.94,1.49 -3.85,2.92 -0.89,1.41 -1.34,3.17 -1.34,5.28 0,2.83 0.82,5.19 2.47,7.09 1.65,1.88 3.82,2.83 6.51,2.83 2.69,0 4.86,-0.94 6.51,-2.83 1.65,-1.88 2.47,-4.21 2.47,-6.98 0,-2 -0.44,-3.72 -1.32,-5.17 -0.87,-1.44 -2.14,-2.49 -3.81,-3.14 1.35,-0.6 2.35,-1.46 3.01,-2.56 0.67,-1.12 1,-2.43 1,-3.93 0,-2.36 -0.73,-4.35 -2.18,-5.98 -1.45,-1.65 -3.36,-2.47 -5.74,-2.47 z m 21.18,0 c -1.98,0 -3.63,0.63 -4.95,1.9 -1.3,1.27 -2.29,3.07 -2.96,5.41 -0.66,2.33 -0.98,5.4 -0.98,9.23 0,6.08 0.9,10.47 2.7,13.16 1.5,2.24 3.56,3.36 6.19,3.36 2,0 3.64,-0.63 4.95,-1.9 1.31,-1.28 2.3,-3.08 2.96,-5.41 0.66,-2.34 0.99,-5.41 0.99,-9.21 0,-3.21 -0.21,-5.75 -0.62,-7.64 -0.41,-1.9 -0.97,-3.5 -1.69,-4.81 -0.72,-1.32 -1.63,-2.33 -2.73,-3.03 -1.1,-0.71 -2.39,-1.06 -3.85,-1.06 z m -21.14,3.27 c 1.26,0 2.32,0.5 3.16,1.5 0.86,0.99 1.28,2.21 1.28,3.67 0,1.4 -0.42,2.58 -1.25,3.55 -0.82,0.96 -1.87,1.44 -3.16,1.44 -1.33,0 -2.4,-0.49 -3.23,-1.46 -0.83,-0.97 -1.25,-2.22 -1.25,-3.75 0,-1.35 0.42,-2.52 1.27,-3.49 0.84,-0.97 1.9,-1.46 3.18,-1.46 z m 21.1,0.02 c 1.56,0 2.86,0.88 3.9,2.63 1.05,1.75 1.58,5.29 1.58,10.62 0,5.3 -0.53,8.83 -1.58,10.6 -1.04,1.77 -2.33,2.65 -3.87,2.65 -1.54,0 -2.83,-0.88 -3.89,-2.63 -1.04,-1.77 -1.56,-5.31 -1.56,-10.62 0,-5.31 0.58,-8.96 1.73,-10.93 0.92,-1.55 2.14,-2.32 3.68,-2.32 z M 93.89,300.5 59.02,313.19 63.03,324.2 97.9,311.51 Z m 21.66,0.06 c 1.17,0 2.14,0.48 2.91,1.43 0.77,0.94 1.15,2.24 1.15,3.88 0,1.71 -0.39,3.06 -1.17,4.06 -0.78,1 -1.71,1.49 -2.79,1.49 -0.74,0 -1.45,-0.24 -2.13,-0.71 -0.68,-0.49 -1.2,-1.19 -1.58,-2.11 -0.37,-0.92 -0.56,-1.88 -0.56,-2.89 0,-1.54 0.4,-2.78 1.21,-3.72 0.81,-0.95 1.79,-1.43 2.95,-1.43 z m 246.71,12.47 c 1.61,0 2.95,0.63 4.02,1.88 1.08,1.25 1.62,2.83 1.62,4.75 0,1.88 -0.52,3.44 -1.56,4.66 -1.04,1.22 -2.36,1.83 -3.96,1.83 -1.03,0 -1.99,-0.29 -2.88,-0.86 -0.89,-0.59 -1.57,-1.41 -2.03,-2.47 -0.45,-1.06 -0.67,-2.16 -0.67,-3.29 0,-1.85 0.51,-3.4 1.54,-4.64 1.04,-1.24 2.35,-1.86 3.92,-1.86 z m -110.54,4.49 c -1.86,0 -3.38,0.86 -4.56,2.57 -1.18,1.71 -1.76,4.07 -1.76,7.1 0,1.6 0.25,3.12 0.76,4.55 0.5,1.43 1.25,2.57 2.22,3.39 0.98,0.83 2.09,1.24 3.33,1.24 1.15,0 2.21,-0.37 3.21,-1.12 0.99,-0.75 1.76,-1.86 2.3,-3.32 0.54,-1.46 0.81,-3.11 0.81,-4.96 0,-1.82 -0.26,-3.45 -0.78,-4.89 -0.51,-1.44 -1.25,-2.57 -2.23,-3.37 -0.98,-0.8 -2.08,-1.21 -3.29,-1.21 z m 24.37,0.01 c -0.89,0 -1.7,0.21 -2.42,0.62 -0.73,0.41 -1.28,1.02 -1.66,1.83 -0.38,0.8 -0.57,1.65 -0.57,2.57 0,0.84 0.15,1.6 0.46,2.28 0.31,0.67 0.78,1.23 1.41,1.69 0.49,0.36 1.34,0.74 2.55,1.14 1.21,0.4 2,0.69 2.35,0.88 0.55,0.29 0.95,0.65 1.19,1.08 0.24,0.42 0.36,0.92 0.36,1.49 0,0.56 -0.13,1.09 -0.38,1.57 -0.25,0.47 -0.62,0.85 -1.13,1.12 -0.51,0.27 -1.1,0.41 -1.76,0.41 -0.75,0 -1.43,-0.18 -2.03,-0.54 -0.6,-0.36 -1.04,-0.84 -1.33,-1.42 -0.28,-0.59 -0.46,-1.34 -0.54,-2.25 l -1.65,0.2 c 0.02,1.22 0.26,2.31 0.72,3.28 0.46,0.96 1.1,1.68 1.9,2.16 0.81,0.48 1.81,0.72 3.01,0.72 0.94,0 1.79,-0.24 2.54,-0.71 0.76,-0.48 1.34,-1.15 1.74,-2 0.4,-0.86 0.6,-1.78 0.6,-2.75 0,-0.98 -0.18,-1.84 -0.55,-2.59 -0.37,-0.75 -0.93,-1.38 -1.7,-1.87 -0.53,-0.33 -1.5,-0.72 -2.93,-1.16 -1.42,-0.45 -2.29,-0.88 -2.63,-1.31 -0.34,-0.42 -0.51,-0.96 -0.51,-1.62 0,-0.75 0.24,-1.4 0.72,-1.93 0.49,-0.54 1.26,-0.81 2.31,-0.81 1.01,0 1.78,0.29 2.29,0.88 0.52,0.59 0.83,1.46 0.92,2.61 l 1.67,-0.17 c -0.03,-1.07 -0.25,-2.03 -0.65,-2.87 -0.4,-0.85 -0.98,-1.48 -1.73,-1.91 -0.74,-0.44 -1.61,-0.66 -2.58,-0.66 z m -55.85,0.31 v 18.23 h 1.75 v -6.32 l 2.16,-2.91 4.7,9.23 h 2.3 l -5.78,-10.84 5.54,-7.38 h -2.37 l -6.55,9.04 v -9.04 z m 12.35,0 v 18.23 h 1.68 v -14.32 l 6.93,14.32 h 1.79 v -18.23 h -1.67 v 14.31 l -6.93,-14.31 z m 26.69,0 v 2.15 h 4.35 v 16.08 h 1.75 v -16.08 h 4.37 v -2.15 z m -7.55,1.75 c 0.87,0 1.65,0.31 2.35,0.92 0.7,0.61 1.23,1.46 1.59,2.57 0.37,1.1 0.55,2.4 0.55,3.88 0,2.35 -0.43,4.16 -1.28,5.43 -0.85,1.28 -1.93,1.91 -3.24,1.91 -1.29,0 -2.37,-0.63 -3.22,-1.89 -0.85,-1.27 -1.28,-3 -1.28,-5.2 0,-2.74 0.44,-4.7 1.33,-5.87 0.89,-1.18 1.96,-1.77 3.2,-1.77 z m -170.14,8.13 -14.04,6.85 3.42,7.02 14.04,-6.85 z m 27.7,6.6 -31.12,20.21 6.38,9.83 31.12,-20.21 z m 57.96,5.84 c -1.52,0 -2.79,0.47 -3.79,1.4 -1,0.93 -1.75,2.26 -2.27,3.98 -0.5,1.71 -0.76,3.98 -0.76,6.79 0,4.47 0.69,7.7 2.07,9.68 1.15,1.65 2.73,2.47 4.75,2.47 1.53,0 2.8,-0.47 3.79,-1.4 1.01,-0.94 1.76,-2.27 2.27,-3.98 0.5,-1.72 0.76,-3.98 0.76,-6.77 0,-2.36 -0.16,-4.23 -0.47,-5.62 -0.31,-1.4 -0.75,-2.58 -1.3,-3.54 -0.55,-0.97 -1.25,-1.72 -2.1,-2.22 -0.85,-0.52 -1.83,-0.78 -2.95,-0.78 z m -29.67,0.1 v 23.82 h 2.77 v -23.82 z m 15.31,0 -9.54,15.44 v 2.68 h 9.07 v 5.7 h 2.57 v -5.7 h 2.82 v -2.68 h -2.82 v -15.44 z m 14.34,2.32 c 1.2,0 2.2,0.64 3,1.93 0.81,1.29 1.21,3.89 1.21,7.81 0,3.9 -0.4,6.5 -1.21,7.8 -0.8,1.3 -1.79,1.95 -2.97,1.95 -1.18,0 -2.17,-0.64 -2.98,-1.93 -0.88,-1.32 -1.28,-3.92 -1.28,-7.83 0,-3.91 0.44,-6.59 1.33,-8.04 0.7,-1.14 1.64,-1.71 2.82,-1.71 z m -14.81,2.37 v 10.74 h -6.55 z m 163.09,15.32 c -2.1,0 -3.84,0.58 -5.23,1.75 -1.38,1.16 -2.42,2.82 -3.13,4.98 -0.69,2.14 -1.04,4.97 -1.04,8.49 0,5.59 0.95,9.63 2.85,12.11 1.59,2.06 3.77,3.09 6.55,3.09 2.11,0 3.86,-0.58 5.23,-1.75 1.39,-1.18 2.43,-2.84 3.13,-4.98 0.69,-2.15 1.04,-4.98 1.04,-8.47 0,-2.95 -0.22,-5.29 -0.65,-7.03 -0.43,-1.75 -1.03,-3.22 -1.79,-4.43 -0.76,-1.22 -1.72,-2.15 -2.89,-2.78 -1.17,-0.65 -2.53,-0.98 -4.07,-0.98 z m 22.4,0 c -2.1,0 -3.84,0.58 -5.23,1.75 -1.38,1.16 -2.42,2.82 -3.13,4.98 -0.69,2.14 -1.04,4.97 -1.04,8.49 0,5.59 0.95,9.63 2.85,12.11 1.59,2.06 3.77,3.09 6.55,3.09 2.11,0 3.86,-0.58 5.23,-1.75 1.39,-1.18 2.43,-2.84 3.13,-4.98 0.69,-2.15 1.04,-4.98 1.04,-8.47 0,-2.95 -0.22,-5.29 -0.65,-7.03 -0.43,-1.75 -1.03,-3.22 -1.79,-4.43 -0.76,-1.22 -1.72,-2.15 -2.89,-2.78 -1.17,-0.65 -2.53,-0.98 -4.07,-0.98 z M 297,360.39 v 29.78 h 3.81 v -29.78 z m 18.47,2.9 c 1.65,0 3.03,0.81 4.13,2.42 1.11,1.61 1.67,4.87 1.67,9.77 0,4.88 -0.56,8.13 -1.67,9.75 -1.1,1.63 -2.47,2.44 -4.09,2.44 -1.63,0 -2.99,-0.81 -4.11,-2.42 -1.1,-1.63 -1.65,-4.88 -1.65,-9.77 0,-4.89 0.61,-8.24 1.83,-10.05 0.97,-1.42 2.27,-2.13 3.89,-2.13 z m 22.4,0 c 1.65,0 3.03,0.81 4.13,2.42 1.11,1.61 1.67,4.87 1.67,9.77 0,4.88 -0.56,8.13 -1.67,9.75 -1.1,1.63 -2.47,2.44 -4.09,2.44 -1.63,0 -2.99,-0.81 -4.11,-2.42 -1.1,-1.63 -1.65,-4.88 -1.65,-9.77 0,-4.89 0.61,-8.24 1.83,-10.05 0.97,-1.42 2.27,-2.13 3.89,-2.13 z m -203.96,2.58 -25.31,27.14 8.57,7.99 25.31,-27.14 z m -28.47,0.29 -11.97,10.04 5.02,5.99 11.97,-10.04 z m 112.31,15.14 c -1.84,0 -3.31,0.61 -4.41,1.83 -1.09,1.21 -1.72,2.98 -1.89,5.3 l 2.45,0.32 c 0.01,-1.55 0.36,-2.76 1.04,-3.64 0.69,-0.88 1.61,-1.31 2.75,-1.31 1.09,0 1.96,0.42 2.63,1.25 0.68,0.82 1.02,1.83 1.02,3.03 0,1.14 -0.37,2.36 -1.11,3.65 -0.74,1.28 -2.17,3.02 -4.27,5.22 -1.36,1.41 -2.4,2.66 -3.12,3.74 -0.71,1.08 -1.24,2.17 -1.56,3.28 -0.2,0.67 -0.29,1.37 -0.28,2.1 h 12.82 v -2.91 h -9.51 c 0.26,-0.55 0.6,-1.09 1.01,-1.63 0.41,-0.55 1.32,-1.59 2.75,-3.12 1.71,-1.84 2.93,-3.29 3.67,-4.34 0.74,-1.06 1.27,-2.06 1.59,-3.01 0.32,-0.95 0.48,-1.92 0.48,-2.91 0,-1.94 -0.54,-3.57 -1.63,-4.88 -1.09,-1.31 -2.56,-1.97 -4.42,-1.97 z m 14.95,0 c -1.41,0 -2.58,0.48 -3.52,1.45 -0.93,0.97 -1.63,2.34 -2.1,4.12 -0.47,1.77 -0.7,4.12 -0.7,7.04 0,4.64 0.64,7.98 1.92,10.04 1.07,1.71 2.54,2.56 4.41,2.56 1.42,0 2.59,-0.48 3.52,-1.45 0.94,-0.98 1.64,-2.35 2.11,-4.12 0.47,-1.78 0.7,-4.13 0.7,-7.02 0,-2.45 -0.15,-4.39 -0.44,-5.82 -0.29,-1.45 -0.69,-2.67 -1.2,-3.67 -0.51,-1.01 -1.16,-1.78 -1.95,-2.31 -0.79,-0.54 -1.7,-0.81 -2.74,-0.81 z m -27.52,0.1 v 24.68 h 2.57 V 381.4 Z m 27.5,2.41 c 1.11,0 2.04,0.67 2.78,2 0.75,1.34 1.12,4.03 1.12,8.1 0,4.04 -0.38,6.74 -1.12,8.08 -0.74,1.35 -1.66,2.02 -2.75,2.02 -1.09,0 -2.02,-0.67 -2.77,-2 -0.74,-1.35 -1.11,-4.05 -1.11,-8.1 0,-4.05 0.41,-6.83 1.23,-8.33 0.65,-1.18 1.53,-1.77 2.62,-1.77 z m -62.3,9.6 -16.85,33.06 10.44,5.32 16.85,-33.06 z m -29.92,6.24 -8.96,12.8 6.4,4.48 8.96,-12.8 z m 160.48,6.33 -11.26,3.23 10.23,35.67 11.27,-3.23 z m -87.91,3.84 -7.08,36.43 11.5,2.24 7.08,-36.43 z m 65.69,1.72 -11.61,1.63 5.17,36.75 11.6,-1.63 z m -92.74,12.52 -5.09,14.78 7.39,2.54 5.09,-14.77 z m 56.96,11.29 -0.27,15.62 7.81,0.13 0.27,-15.62 z" />
      <path
         style="fill:#8cbaff;"
         d="m 228.89,211.28 1.36,-0.26 q 0.23,1.65 0.79,2.38 0.56,0.72 1.37,0.72 0.96,0 1.61,-0.95 0.66,-0.95 0.66,-2.35 0,-1.34 -0.61,-2.2 -0.61,-0.87 -1.55,-0.87 -0.38,0 -0.96,0.22 l 0.15,-1.7 q 0.14,0.02 0.22,0.02 0.87,0 1.56,-0.65 0.69,-0.65 0.69,-2 0,-1.07 -0.5,-1.77 -0.5,-0.7 -1.3,-0.7 -0.79,0 -1.32,0.71 -0.53,0.71 -0.68,2.14 l -1.36,-0.35 q 0.25,-1.95 1.13,-3.02 0.88,-1.08 2.19,-1.08 0.9,0 1.66,0.56 0.76,0.55 1.16,1.51 0.41,0.96 0.41,2.04 0,1.02 -0.38,1.87 -0.38,0.84 -1.14,1.34 0.98,0.32 1.52,1.35 0.54,1.01 0.54,2.55 0,2.07 -1.05,3.52 -1.05,1.43 -2.67,1.43 -1.45,0 -2.42,-1.24 -0.96,-1.24 -1.09,-3.22 z m 8.57,-3.63 q 0,-2.81 0.4,-4.51 0.41,-1.72 1.2,-2.64 0.8,-0.93 2,-0.93 0.89,0 1.56,0.52 0.67,0.51 1.11,1.48 0.44,0.96 0.69,2.35 0.25,1.38 0.25,3.73 0,2.78 -0.4,4.5 -0.4,1.7 -1.2,2.64 -0.79,0.93 -2,0.93 -1.6,0 -2.51,-1.64 -1.09,-1.97 -1.09,-6.43 z m 1.39,0 q 0,3.89 0.63,5.19 0.64,1.28 1.57,1.28 0.93,0 1.57,-1.29 0.64,-1.29 0.64,-5.18 0,-3.91 -0.64,-5.19 -0.63,-1.28 -1.58,-1.28 -0.93,0 -1.49,1.13 -0.7,1.45 -0.7,5.34 z m 7.18,0 q 0,-2.81 0.4,-4.51 0.41,-1.72 1.2,-2.64 0.8,-0.93 2,-0.93 0.89,0 1.56,0.52 0.67,0.51 1.11,1.48 0.44,0.96 0.69,2.35 0.25,1.38 0.25,3.73 0,2.78 -0.4,4.5 -0.4,1.7 -1.2,2.64 -0.79,0.93 -2,0.93 -1.6,0 -2.51,-1.64 -1.09,-1.97 -1.09,-6.43 z m 1.39,0 q 0,3.89 0.63,5.19 0.64,1.28 1.57,1.28 0.93,0 1.57,-1.29 0.64,-1.29 0.64,-5.18 0,-3.91 -0.64,-5.19 -0.63,-1.28 -1.58,-1.28 -0.93,0 -1.49,1.13 -0.7,1.45 -0.7,5.34 z m 7.18,0 q 0,-2.81 0.4,-4.51 0.41,-1.72 1.2,-2.64 0.8,-0.93 2,-0.93 0.89,0 1.56,0.52 0.67,0.51 1.11,1.48 0.44,0.96 0.69,2.35 0.25,1.38 0.25,3.73 0,2.78 -0.4,4.5 -0.4,1.7 -1.2,2.64 -0.79,0.93 -2,0.93 -1.6,0 -2.51,-1.64 -1.09,-1.97 -1.09,-6.43 z m 1.39,0 q 0,3.89 0.63,5.19 0.64,1.28 1.57,1.28 0.93,0 1.57,-1.29 0.64,-1.29 0.64,-5.18 0,-3.91 -0.64,-5.19 -0.63,-1.28 -1.58,-1.28 -0.93,0 -1.49,1.13 -0.7,1.45 -0.7,5.34 z m 7.18,0 q 0,-2.81 0.4,-4.51 0.41,-1.72 1.2,-2.64 0.8,-0.93 2,-0.93 0.89,0 1.56,0.52 0.67,0.51 1.11,1.48 0.44,0.96 0.69,2.35 0.25,1.38 0.25,3.73 0,2.78 -0.4,4.5 -0.4,1.7 -1.2,2.64 -0.79,0.93 -2,0.93 -1.6,0 -2.51,-1.64 -1.09,-1.97 -1.09,-6.43 z m 1.39,0 q 0,3.89 0.63,5.19 0.64,1.28 1.57,1.28 0.93,0 1.57,-1.29 0.64,-1.29 0.64,-5.18 0,-3.91 -0.64,-5.19 -0.63,-1.28 -1.58,-1.28 -0.93,0 -1.49,1.13 -0.7,1.45 -0.7,5.34 z m 7.88,7.8 v -9.95 h -1.2 v -1.51 h 1.2 v -1.22 q 0,-1.15 0.14,-1.72 0.2,-0.76 0.69,-1.22 0.5,-0.47 1.39,-0.47 0.57,0 1.26,0.19 l -0.2,1.69 q -0.42,-0.11 -0.8,-0.11 -0.62,0 -0.87,0.38 -0.26,0.38 -0.26,1.41 v 1.06 h 1.56 v 1.51 h -1.56 v 9.95 z m 6.92,-1.74 0.2,1.72 q -0.57,0.17 -1.02,0.17 -0.74,0 -1.14,-0.33 -0.41,-0.33 -0.57,-0.87 -0.17,-0.55 -0.17,-2.3 v -6.59 h -0.99 V 204 h 0.99 v -2.84 l 1.35,-1.17 v 4 h 1.36 v 1.51 h -1.36 v 6.7 q 0,0.83 0.07,1.07 0.08,0.24 0.23,0.38 0.17,0.14 0.47,0.14 0.23,0 0.59,-0.08 z"
         id="text4595"
         aria-label="30000ft" />
      <path
         id="rect22307"
         style="fill:#c42400"
         d="m 42.22,125.4 50.74,29.3 -3.91,6.77 -50.74,-29.3 z m 449.85,115.7 -58.51,3.07 -0.41,-7.8 58.51,-3.07 z" />
      <path
         id="rect22309"
         style="fill:#0a21e3"
         transform="rotate(-138.00007)"
         d="m -595.18,-22.31 h 58.59 v 7.81 h -58.59 z" />
</svg>
