<svg
   width="500"
   height="500"
   viewBox="0 0 500 500"
   version="1.1"
   xmlns="http://www.w3.org/2000/svg"
   xmlns:svg="http://www.w3.org/2000/svg">
      <circle
         id="circle1"
         cx="250"
         cy="250"
         r="250"
         style="fill:#ffffff" />
      <path
         id="path1"
         d="m 105.56,65.01 -1.39,-1.72 7.4,-5.99 q 0.54,0.64 0.84,1.37 0.52,1.21 0.66,2.66 0.15,1.46 -0.02,3.66 -0.25,3.43 0.02,5.07 0.28,1.66 1.1,2.67 0.86,1.06 2.03,1.31 1.17,0.27 2.12,-0.5 1,-0.81 0.97,-2.06 -0.03,-1.25 -1.13,-2.63 l 1.56,-0.96 q 1.52,2.17 1.44,4.01 -0.07,1.85 -1.67,3.14 -1.61,1.3 -3.49,0.91 -1.88,-0.4 -3.27,-2.12 -0.71,-0.88 -1.12,-1.94 -0.41,-1.06 -0.53,-2.52 -0.12,-1.44 0.04,-4.27 0.14,-2.35 0.11,-3.12 -0.03,-0.77 -0.2,-1.43 z m -3.68,0.13 11.77,14.54 -1.48,1.2 -11.77,-14.54 z m 2.27,10.04 q 2.09,2.58 2.95,4.47 0.87,1.91 0.75,3.41 -0.12,1.51 -1.34,2.5 -0.9,0.73 -1.97,0.8 -1.06,0.08 -2.22,-0.44 -1.16,-0.53 -2.45,-1.6 -1.28,-1.06 -3.03,-3.23 -2.07,-2.56 -2.95,-4.46 -0.87,-1.89 -0.75,-3.41 0.12,-1.5 1.34,-2.5 1.62,-1.31 3.76,-0.56 2.57,0.92 5.89,5.02 z m -1.41,1.14 q -2.9,-3.58 -4.51,-4.25 -1.6,-0.65 -2.55,0.12 -0.95,0.77 -0.63,2.47 0.31,1.71 3.21,5.29 2.91,3.59 4.51,4.25 1.59,0.66 2.56,-0.12 0.95,-0.77 0.67,-2.27 -0.37,-1.9 -3.27,-5.49 z m 172.4,410.6 -2.28,-18.56 1.89,-0.23 2.28,18.58 z m 5.55,-0.69 -2.28,-18.58 1.89,-0.23 2.28,18.58 z m 3.4,-9.71 q -0.41,-3.29 -0.14,-5.36 0.28,-2.08 1.17,-3.29 0.9,-1.21 2.46,-1.41 1.15,-0.14 2.1,0.36 0.94,0.49 1.64,1.56 0.71,1.05 1.23,2.66 0.53,1.58 0.86,4.34 0.4,3.27 0.13,5.35 -0.27,2.07 -1.17,3.29 -0.89,1.22 -2.46,1.41 -2.07,0.25 -3.49,-1.53 -1.7,-2.14 -2.35,-7.38 z m 1.81,-0.22 q 0.56,4.57 1.56,5.99 1.01,1.41 2.23,1.26 1.21,-0.15 1.84,-1.77 0.64,-1.62 0.09,-6.18 -0.56,-4.59 -1.58,-5.99 -1,-1.4 -2.24,-1.25 -1.21,0.15 -1.77,1.57 -0.7,1.81 -0.14,6.39 z M 66.96,103.41 l -1.72,-1.39 6,-7.41 q 0.66,0.51 1.11,1.17 0.75,1.08 1.21,2.47 0.44,1.4 0.75,3.59 0.47,3.41 1.08,4.96 0.62,1.56 1.64,2.38 1.06,0.86 2.26,0.85 1.2,0.01 1.96,-0.93 0.8,-0.99 0.51,-2.22 -0.29,-1.22 -1.66,-2.34 l 1.33,-1.26 q 1.94,1.8 2.24,3.62 0.32,1.83 -0.98,3.42 -1.3,1.61 -3.22,1.61 -1.92,0 -3.64,-1.39 -0.87,-0.7 -1.49,-1.66 -0.62,-0.96 -1.04,-2.36 -0.42,-1.39 -0.84,-4.19 -0.35,-2.33 -0.55,-3.08 -0.19,-0.74 -0.49,-1.36 z m 4.26,5.89 q 2.58,2.09 3.82,3.77 1.24,1.69 1.45,3.18 0.2,1.5 -0.79,2.72 -0.73,0.9 -1.75,1.2 -1.02,0.3 -2.27,0.02 -1.24,-0.27 -2.73,-1.06 -1.47,-0.77 -3.64,-2.52 -2.56,-2.07 -3.8,-3.75 -1.24,-1.68 -1.45,-3.18 -0.2,-1.49 0.79,-2.72 1.31,-1.62 3.57,-1.32 2.71,0.37 6.81,3.68 z m -1.15,1.41 q -3.58,-2.9 -5.29,-3.22 -1.7,-0.31 -2.47,0.64 -0.77,0.95 -0.1,2.56 0.67,1.62 4.23,4.5 3.59,2.91 5.3,3.21 1.7,0.31 2.48,-0.65 0.77,-0.95 0.18,-2.36 -0.76,-1.79 -4.34,-4.68 z m -5.9,7.29 q 2.58,2.09 3.82,3.77 1.24,1.69 1.45,3.18 0.2,1.5 -0.79,2.72 -0.73,0.9 -1.75,1.2 -1.02,0.3 -2.27,0.02 -1.24,-0.27 -2.73,-1.06 -1.47,-0.77 -3.64,-2.52 -2.56,-2.07 -3.8,-3.75 -1.24,-1.68 -1.45,-3.18 -0.2,-1.49 0.79,-2.72 1.31,-1.62 3.57,-1.32 2.71,0.37 6.81,3.68 z m -1.15,1.41 q -3.58,-2.9 -5.29,-3.22 -1.7,-0.31 -2.47,0.64 -0.77,0.95 -0.1,2.56 0.67,1.62 4.23,4.5 3.59,2.91 5.3,3.21 1.7,0.31 2.48,-0.65 0.77,-0.95 0.18,-2.36 -0.76,-1.79 -4.34,-4.68 z m -25.15,26.98 16.95,7.91 -0.81,1.72 -16.95,-7.91 z m 1.89,6.2 -0.53,1.63 q -1.51,-0.47 -2.39,-0.2 -0.89,0.25 -1.29,1.12 -0.35,0.74 -0.17,1.5 0.18,0.76 0.74,1.46 0.58,0.7 1.71,1.53 1.14,0.82 2.43,1.43 0.14,0.06 0.42,0.19 -0.77,-0.95 -1,-2.08 -0.23,-1.12 0.23,-2.09 0.75,-1.62 2.8,-2.03 2.05,-0.41 4.55,0.75 2.58,1.21 3.61,3.1 1.03,1.91 0.2,3.68 -0.6,1.27 -1.98,1.91 -1.39,0.64 -3.29,0.42 -1.9,-0.22 -5.02,-1.67 -3.25,-1.52 -4.93,-2.96 -1.66,-1.44 -2.17,-2.99 -0.51,-1.54 0.16,-2.98 0.71,-1.53 2.26,-1.99 1.56,-0.46 3.65,0.28 z m 4.42,10.06 q 1.79,0.83 3.19,0.59 1.4,-0.24 1.87,-1.27 0.5,-1.07 -0.27,-2.39 -0.76,-1.32 -2.56,-2.16 -1.62,-0.76 -2.99,-0.48 -1.36,0.29 -1.88,1.39 -0.52,1.11 0.15,2.29 0.68,1.19 2.47,2.03 z m -4.6,1.92 q 3.01,1.4 4.61,2.73 1.62,1.34 2.17,2.74 0.56,1.41 -0.11,2.83 -0.49,1.06 -1.42,1.59 -0.92,0.54 -2.19,0.57 -1.27,0.03 -2.9,-0.36 -1.62,-0.39 -4.14,-1.57 -2.98,-1.4 -4.6,-2.72 -1.6,-1.33 -2.17,-2.74 -0.56,-1.4 0.11,-2.83 0.88,-1.88 3.14,-2.15 2.72,-0.31 7.5,1.92 z m -0.77,1.65 q -4.17,-1.94 -5.92,-1.85 -1.73,0.11 -2.24,1.22 -0.52,1.11 0.53,2.51 1.04,1.4 5.19,3.34 4.19,1.95 5.91,1.84 1.72,-0.1 2.24,-1.23 0.52,-1.11 -0.4,-2.33 -1.16,-1.55 -5.34,-3.5 z m -19.62,31.13 18.42,3.25 -0.33,1.88 -18.42,-3.25 z m 8.73,8.92 q 0.71,-1 1.75,-1.35 1.05,-0.35 2.38,-0.12 2.01,0.35 3.19,1.72 1.17,1.35 0.84,3.2 -0.32,1.86 -1.94,2.74 -1.6,0.88 -3.6,0.53 -1.28,-0.23 -2.14,-0.92 -0.85,-0.67 -1.18,-1.83 -0.78,1.21 -2.14,1.67 -1.36,0.47 -3.06,0.16 -2.36,-0.42 -3.74,-1.98 -1.39,-1.57 -1.01,-3.67 0.37,-2.1 2.21,-3.11 1.85,-1 4.26,-0.58 1.8,0.32 2.88,1.23 1.09,0.92 1.31,2.3 z m 3.89,0.33 q -1.31,-0.23 -2.25,0.27 -0.95,0.5 -1.12,1.54 -0.18,1.01 0.52,1.79 0.71,0.8 1.91,1 1.24,0.22 2.2,-0.3 0.97,-0.51 1.15,-1.5 0.18,-0.99 -0.54,-1.81 -0.71,-0.8 -1.87,-1.01 z m -8.41,-2.06 q -0.96,-0.17 -1.94,0.02 -0.97,0.2 -1.59,0.81 -0.61,0.61 -0.75,1.41 -0.22,1.25 0.68,2.25 0.9,1 2.51,1.28 1.63,0.29 2.86,-0.36 1.22,-0.65 1.44,-1.9 0.21,-1.23 -0.69,-2.22 -0.91,-0.99 -2.5,-1.27 z m 2.14,9.92 q 3.27,0.58 5.16,1.44 1.91,0.88 2.8,2.08 0.9,1.22 0.62,2.76 -0.2,1.15 -0.96,1.9 -0.74,0.76 -1.98,1.12 -1.22,0.37 -2.9,0.4 -1.67,0.03 -4.41,-0.45 -3.24,-0.57 -5.15,-1.44 -1.9,-0.87 -2.8,-2.08 -0.9,-1.21 -0.62,-2.76 0.36,-2.05 2.48,-2.89 2.55,-0.99 7.74,-0.08 z m -0.31,1.79 q -4.53,-0.8 -6.19,-0.25 -1.63,0.56 -1.85,1.76 -0.21,1.2 1.15,2.28 1.37,1.09 5.89,1.89 4.55,0.8 6.2,0.25 1.64,-0.55 1.86,-1.77 0.21,-1.2 -0.98,-2.15 -1.52,-1.2 -6.06,-1.99 z m -12.49,37.02 18.68,-0.98 0.09,1.9 -18.68,0.98 z m 16.49,3.82 2.2,-0.11 0.49,9.32 -1.79,0.1 q -1.97,-1.28 -5.19,-2.47 -3.21,-1.18 -6.59,-1.75 -2.37,-0.41 -5.18,-0.41 l -0.09,-1.82 q 2.21,-0.09 5.36,0.39 3.16,0.48 6.12,1.51 2.97,1.04 5.03,2.29 z m -6.44,11.43 q 3.31,-0.18 5.35,0.24 2.05,0.42 3.2,1.4 1.15,0.99 1.23,2.55 0.06,1.16 -0.51,2.07 -0.56,0.9 -1.67,1.53 -1.1,0.63 -2.73,1.04 -1.61,0.41 -4.4,0.55 -3.29,0.17 -5.35,-0.24 -2.04,-0.41 -3.2,-1.4 -1.15,-0.97 -1.23,-2.55 -0.11,-2.08 1.77,-3.37 2.26,-1.55 7.52,-1.83 z m 0.09,1.82 q -4.61,0.24 -6.09,1.15 -1.47,0.91 -1.41,2.14 0.06,1.22 1.63,1.96 1.57,0.75 6.16,0.51 4.61,-0.25 6.09,-1.16 1.47,-0.9 1.41,-2.14 -0.06,-1.22 -1.44,-1.87 -1.75,-0.82 -6.36,-0.58 z m 2.04,48.44 17.89,-5.47 0.56,1.82 -17.89,5.47 z m 17.52,9 -0.69,-1.63 q 1.22,-0.62 1.68,-1.22 0.73,-0.97 0.42,-1.98 -0.25,-0.81 -1.02,-1.24 -1,-0.57 -2.59,-0.58 -1.59,-0.01 -4.29,0.79 1.4,0.25 2.25,0.95 0.85,0.7 1.15,1.68 0.51,1.69 -0.75,3.37 -1.25,1.68 -3.81,2.47 -1.68,0.51 -3.31,0.39 -1.61,-0.12 -2.68,-0.85 -1.07,-0.75 -1.45,-1.98 -0.65,-2.11 0.96,-4.06 1.62,-1.95 6.25,-3.38 5.18,-1.59 7.99,-0.83 2.44,0.66 3.12,2.84 0.49,1.63 -0.37,3.03 -0.86,1.4 -2.89,2.25 z m -9.83,-4.55 q -1.13,0.35 -2.05,1.03 -0.92,0.69 -1.27,1.53 -0.33,0.83 -0.11,1.57 0.33,1.07 1.68,1.49 1.36,0.42 3.29,-0.16 1.86,-0.57 2.68,-1.66 0.84,-1.09 0.49,-2.24 -0.35,-1.15 -1.67,-1.62 -1.31,-0.48 -3.04,0.06 z m 5.73,7.91 q 3.18,-0.97 5.25,-1.06 2.1,-0.09 3.45,0.58 1.35,0.68 1.81,2.18 0.33,1.11 0.01,2.13 -0.32,1.01 -1.25,1.89 -0.92,0.88 -2.4,1.67 -1.46,0.79 -4.13,1.6 -3.15,0.97 -5.24,1.06 -2.08,0.09 -3.45,-0.58 -1.35,-0.66 -1.81,-2.18 -0.61,-2 0.9,-3.7 1.82,-2.05 6.85,-3.59 z m 0.53,1.74 q -4.4,1.35 -5.63,2.58 -1.21,1.24 -0.85,2.41 0.36,1.16 2.06,1.51 1.71,0.35 6.1,-0.99 4.42,-1.35 5.63,-2.59 1.22,-1.23 0.85,-2.42 -0.36,-1.16 -1.85,-1.48 -1.91,-0.38 -6.31,0.97 z m 6.69,35.66 15.87,-9.92 1.01,1.61 -15.87,9.92 z m 6.57,1.26 1.16,1.47 q -1.39,1.11 -1.74,2.22 -0.34,1.11 0.22,2.01 0.67,1.08 2.21,1.18 1.53,0.08 3.29,-1 1.66,-1.04 2.18,-2.37 0.51,-1.32 -0.21,-2.48 -0.46,-0.73 -1.25,-1.04 -0.79,-0.32 -1.67,-0.23 l -0.64,-1.56 8.88,-3.91 3.8,6.09 -1.86,1.17 -3.05,-4.88 -4.67,2.01 q 1.69,0.48 2.44,1.69 1,1.6 0.25,3.6 -0.75,2 -3.02,3.41 -2.15,1.35 -4.33,1.36 -2.66,0.03 -3.93,-2.01 -1.04,-1.66 -0.49,-3.48 0.55,-1.81 2.46,-3.21 z m 9.61,7.2 q 2.81,-1.76 4.8,-2.39 2,-0.62 3.48,-0.33 1.49,0.3 2.32,1.64 0.61,0.98 0.56,2.06 -0.04,1.06 -0.72,2.15 -0.66,1.09 -1.89,2.23 -1.21,1.14 -3.57,2.62 -2.79,1.75 -4.79,2.38 -1.99,0.63 -3.48,0.33 -1.48,-0.3 -2.32,-1.64 -1.11,-1.77 -0.09,-3.81 1.23,-2.45 5.69,-5.24 z m 0.96,1.54 q -3.91,2.44 -4.77,3.95 -0.84,1.52 -0.2,2.55 0.64,1.03 2.39,0.93 1.74,-0.11 5.63,-2.54 3.91,-2.45 4.77,-3.96 0.85,-1.51 0.19,-2.56 -0.64,-1.03 -2.17,-0.94 -1.94,0.13 -5.84,2.58 z m 16.73,36.38 13,-13.46 1.37,1.33 -13,13.46 z m 7.36,7.1 3.11,-3.23 -4.5,-4.34 1.46,-1.52 13.15,-4.15 1.04,1.01 -8.42,8.72 1.4,1.36 -1.46,1.52 -1.4,-1.36 -3.11,3.23 z m 4.58,-4.74 5.86,-6.07 -9.11,2.94 z m 5.81,1.94 q 2.31,-2.38 4.08,-3.48 1.8,-1.09 3.3,-1.16 1.51,-0.07 2.64,1.03 0.83,0.81 1.04,1.86 0.21,1.04 -0.17,2.27 -0.38,1.22 -1.29,2.62 -0.9,1.4 -2.83,3.41 -2.29,2.36 -4.07,3.47 -1.78,1.09 -3.3,1.16 -1.5,0.07 -2.64,-1.03 -1.5,-1.45 -1.01,-3.67 0.6,-2.67 4.25,-6.46 z m 1.3,1.26 q -3.2,3.31 -3.67,4.99 -0.45,1.67 0.42,2.52 0.88,0.84 2.54,0.32 1.66,-0.53 4.85,-3.83 3.21,-3.32 3.67,-4.99 0.46,-1.66 -0.43,-2.53 -0.88,-0.84 -2.33,-0.38 -1.84,0.6 -5.05,3.91 z m 34.92,35.99 9.07,-16.36 1.66,0.92 -9.07,16.36 z m 6.38,-2.1 1.7,0.59 q -0.68,1.85 -0.46,2.97 0.23,1.11 1.15,1.62 1.09,0.61 2.38,0.04 1.3,-0.57 2.11,-2.01 0.77,-1.38 0.57,-2.66 -0.2,-1.29 -1.27,-1.89 -0.44,-0.25 -1.21,-0.38 l 1.15,-1.66 q 0.14,0.11 0.23,0.16 0.99,0.55 2.15,0.31 1.16,-0.23 1.94,-1.63 0.61,-1.11 0.44,-2.15 -0.17,-1.05 -1.09,-1.55 -0.9,-0.5 -1.91,-0.1 -1.01,0.4 -2,1.78 l -1.34,-1.21 q 1.4,-1.87 3.02,-2.4 1.63,-0.56 3.12,0.27 1.03,0.57 1.58,1.63 0.55,1.05 0.46,2.3 -0.08,1.25 -0.7,2.37 -0.59,1.06 -1.51,1.69 -0.92,0.63 -2.07,0.67 0.93,0.96 0.96,2.36 0.03,1.39 -0.84,2.98 -1.19,2.15 -3.22,2.97 -2.02,0.82 -3.86,-0.2 -1.66,-0.92 -2.05,-2.81 -0.38,-1.89 0.6,-4.02 z m 11.87,1.67 q 1.61,-2.9 3.04,-4.41 1.44,-1.52 2.88,-1.98 1.44,-0.45 2.82,0.31 1.02,0.56 1.48,1.53 0.48,0.95 0.42,2.23 -0.05,1.27 -0.57,2.87 -0.51,1.59 -1.86,4.03 -1.6,2.88 -3.03,4.4 -1.43,1.51 -2.88,1.98 -1.44,0.46 -2.82,-0.31 -1.83,-1.01 -1.92,-3.28 -0.11,-2.74 2.44,-7.34 z m 1.59,0.88 q -2.24,4.03 -2.25,5.77 -0.01,1.74 1.06,2.32 1.06,0.59 2.53,-0.35 1.47,-0.93 3.71,-4.95 2.24,-4.04 2.25,-5.78 0.01,-1.73 -1.07,-2.33 -1.06,-0.59 -2.35,0.23 -1.63,1.06 -3.86,5.08 z m 39.76,24.92 3.89,-18.31 1.87,0.39 -3.89,18.31 z m 14.01,0.72 -0.46,2.16 -9.32,-1.98 q 0.15,-0.81 0.53,-1.52 0.62,-1.16 1.66,-2.19 1.04,-1.03 2.86,-2.29 2.82,-1.96 3.93,-3.21 1.11,-1.27 1.38,-2.54 0.29,-1.33 -0.27,-2.41 -0.53,-1.08 -1.72,-1.33 -1.25,-0.26 -2.21,0.55 -0.95,0.82 -1.34,2.53 l -1.73,-0.61 q 0.73,-2.54 2.21,-3.64 1.48,-1.11 3.5,-0.68 2.03,0.43 2.9,2.15 0.88,1.71 0.41,3.87 -0.23,1.1 -0.8,2.09 -0.57,0.99 -1.63,1.99 -1.05,1.01 -3.35,2.65 -1.92,1.37 -2.49,1.89 -0.57,0.51 -0.99,1.05 z m 3.32,-6.47 q 0.69,-3.24 1.62,-5.11 0.94,-1.88 2.18,-2.73 1.24,-0.86 2.79,-0.53 1.13,0.24 1.87,1.02 0.73,0.77 1.05,2.01 0.32,1.23 0.3,2.91 -0.02,1.66 -0.6,4.39 -0.69,3.22 -1.62,5.1 -0.93,1.87 -2.18,2.73 -1.24,0.86 -2.79,0.53 -2.03,-0.43 -2.8,-2.58 -0.9,-2.58 0.19,-7.73 z m 1.78,0.38 q -0.96,4.5 -0.47,6.17 0.5,1.66 1.69,1.91 1.19,0.25 2.32,-1.07 1.14,-1.33 2.09,-5.81 0.96,-4.52 0.46,-6.18 -0.49,-1.65 -1.71,-1.91 -1.19,-0.25 -2.18,0.9 -1.25,1.48 -2.21,5.99 z M 54.93,290.44 l 0.41,1.91 -19.1,4.07 -0.41,-1.91 z m 52.44,-179.56 -1.36,1.41 -14.05,-13.57 1.36,-1.41 z m 0,0 -1.36,1.41 -14.05,-13.57 1.36,-1.41 z m -29.41,38.64 -0.98,1.69 -16.91,-9.76 0.98,-1.69 z m -18.19,41.28 -0.57,1.87 -18.67,-5.71 0.57,-1.87 z m -8.67,47.78 -0.11,1.95 -19.51,-1.02 0.11,-1.95 z m 19.4,97.86 0.86,1.75 -17.56,8.56 -0.86,-1.75 z m 26.25,40.86 1.25,1.49 -14.96,12.56 -1.25,-1.49 z m 38.17,35.32 1.6,1.12 -11.2,16 -1.6,-1.12 z m 49.28,25.42 1.84,0.63 -6.36,18.46 -1.84,-0.63 z m 119.75,3.72 1.88,-0.54 5.39,18.77 -1.88,0.54 z m -58.43,7.4 1.95,0.03 -0.34,19.52 -1.95,-0.03 z M 128.88,91.78 l -3.08,2.41 -9.62,-12.31 3.08,-2.41 z m -36.81,36.73 -2.35,3.12 -12.48,-9.4 2.35,-3.12 z m -24.69,41.81 -1.53,3.6 -14.39,-6.1 1.53,-3.6 z m -13.23,43.13 -0.68,3.85 -15.39,-2.71 0.68,-3.85 z m -3.19,45 0.2,3.9 -15.6,0.82 -0.2,-3.9 z m 11.18,57.82 1.33,3.67 -14.69,5.34 -1.33,-3.67 z m 19.73,40.56 2.12,3.28 -13.1,8.51 -2.12,-3.28 z m 30.84,37.5 2.86,2.67 -10.66,11.43 -2.86,-2.67 z m 45.11,32.25 3.48,1.77 -7.09,13.92 -3.48,-1.77 z m 52.25,18.57 3.84,0.75 -2.98,15.34 -3.84,-0.75 z m 65.72,2.37 3.87,-0.54 2.18,15.48 -3.87,0.54 z M 470.13,249.41 h -1.99 v -10.57 q 0.75,-0.02 1.44,0.23 1.14,0.4 2.24,1.28 1.1,0.9 2.55,2.57 2.25,2.61 3.56,3.52 1.32,0.91 2.49,0.91 1.23,0 2.07,-0.84 0.85,-0.83 0.85,-2.17 0,-1.42 -0.9,-2.26 -0.89,-0.85 -2.48,-0.86 l 0.22,-2.02 q 2.37,0.21 3.61,1.56 1.25,1.35 1.25,3.64 0,2.3 -1.34,3.64 -1.34,1.34 -3.33,1.35 -1.01,0 -1.98,-0.39 -0.98,-0.4 -2.06,-1.31 -1.08,-0.9 -2.97,-3.02 -1.57,-1.77 -2.12,-2.27 -0.55,-0.5 -1.11,-0.83 z m 2.42,2.1 0.19,2.06 q -1.59,0.23 -2.39,1.05 -0.79,0.84 -0.79,2.02 0,1.42 1.13,2.4 1.12,0.98 2.99,0.98 1.77,0.01 2.79,-0.95 1.02,-0.94 1.02,-2.47 0,-0.95 -0.46,-1.71 -0.45,-0.76 -1.17,-1.19 l 0.25,-1.84 8.64,1.55 v 7.95 h -1.98 v -6.38 l -4.53,-0.86 q 1.06,1.45 1.05,3.02 0,2.09 -1.52,3.53 -1.52,1.44 -3.93,1.44 -2.28,0 -3.95,-1.26 -2.05,-1.54 -2.04,-4.2 0,-2.18 1.28,-3.56 1.28,-1.37 3.4,-1.57 z m -5.68,-32.62 -1.97,0.27 -1.47,-10.46 q 0.73,-0.13 1.45,0.02 1.18,0.25 2.4,0.96 1.21,0.73 2.88,2.19 2.59,2.27 4.02,2.99 1.44,0.73 2.59,0.57 1.22,-0.17 1.93,-1.12 0.73,-0.94 0.54,-2.27 -0.2,-1.41 -1.2,-2.12 -1,-0.71 -2.58,-0.51 l -0.06,-2.03 q 2.38,-0.13 3.8,1.04 1.43,1.16 1.75,3.42 0.32,2.28 -0.83,3.79 -1.15,1.51 -3.11,1.79 -1.01,0.14 -2.02,-0.11 -1.02,-0.26 -2.22,-1.01 -1.19,-0.75 -3.35,-2.58 -1.79,-1.53 -2.42,-1.96 -0.62,-0.43 -1.22,-0.67 z m 1.72,12.3 -1.97,0.27 -1.47,-10.46 q 0.73,-0.13 1.45,0.02 1.18,0.25 2.4,0.96 1.21,0.73 2.88,2.19 2.59,2.27 4.02,2.99 1.44,0.73 2.59,0.57 1.22,-0.17 1.93,-1.12 0.73,-0.94 0.54,-2.27 -0.2,-1.41 -1.2,-2.12 -1,-0.71 -2.58,-0.51 l -0.07,-2.01 q 2.38,-0.13 3.8,1.04 1.43,1.16 1.75,3.42 0.32,2.28 -0.83,3.79 -1.15,1.51 -3.11,1.79 -1.01,0.14 -2.02,-0.11 -1.02,-0.26 -2.22,-1.01 -1.19,-0.75 -3.35,-2.58 -1.79,-1.53 -2.42,-1.96 -0.62,-0.43 -1.22,-0.67 z m -8.54,-41.71 -1.91,0.55 -2.92,-10.16 q 0.71,-0.22 1.44,-0.17 1.21,0.08 2.51,0.62 1.31,0.55 3.16,1.77 2.88,1.89 4.39,2.41 1.52,0.51 2.64,0.19 1.18,-0.34 1.75,-1.38 0.59,-1.03 0.22,-2.32 -0.39,-1.37 -1.49,-1.93 -1.09,-0.57 -2.63,-0.15 l -0.35,-2.01 q 2.34,-0.46 3.91,0.5 1.57,0.95 2.2,3.14 0.64,2.21 -0.29,3.87 -0.93,1.66 -2.83,2.21 -0.97,0.28 -2.02,0.17 -1.05,-0.11 -2.33,-0.69 -1.29,-0.57 -3.68,-2.09 -1.99,-1.27 -2.67,-1.59 -0.66,-0.33 -1.3,-0.49 z m 6.65,0.29 q 2.87,-0.83 4.77,-0.77 1.91,0.06 3.19,0.89 1.27,0.84 1.74,2.52 0.36,1.24 0.09,2.32 -0.25,1.08 -1.06,1.98 -0.81,0.89 -2.14,1.64 -1.31,0.75 -3.71,1.44 -2.85,0.81 -4.76,0.76 -1.9,-0.06 -3.19,-0.89 -1.26,-0.82 -1.74,-2.52 -0.64,-2.22 0.68,-3.98 1.58,-2.1 6.14,-3.41 z m 0.55,1.94 q -3.99,1.15 -5.05,2.41 -1.05,1.26 -0.69,2.57 0.37,1.3 1.94,1.8 1.58,0.51 5.55,-0.62 3.99,-1.15 5.05,-2.42 1.06,-1.26 0.68,-2.58 -0.37,-1.3 -1.75,-1.75 -1.76,-0.55 -5.74,0.59 z m -22.14,-35.27 15.37,-6.85 0.86,1.93 -15.37,6.85 z m 11.61,3.66 q -0.07,-1.31 0.49,-2.2 0.56,-0.89 1.67,-1.38 1.68,-0.74 3.33,-0.12 1.66,0.64 2.5,2.54 0.85,1.91 0.19,3.6 -0.65,1.68 -2.32,2.44 -1.07,0.47 -2.1,0.29 -1.03,-0.18 -1.93,-1.07 0.13,1.55 -0.58,2.7 -0.72,1.17 -2.13,1.8 -1.97,0.88 -3.9,0.15 -1.93,-0.72 -2.89,-2.89 -0.96,-2.17 -0.21,-4.08 0.77,-1.93 2.78,-2.82 1.5,-0.67 2.83,-0.4 1.34,0.28 2.3,1.45 z m 3.04,-1.79 q -1.09,0.48 -1.48,1.46 -0.39,0.98 0.08,2.04 0.46,1.03 1.43,1.39 0.99,0.36 1.99,-0.08 1.04,-0.46 1.43,-1.47 0.41,-0.99 -0.03,-2.01 -0.46,-1.02 -1.45,-1.39 -0.99,-0.37 -1.96,0.06 z m -7.35,2.58 q -0.81,0.36 -1.41,1.05 -0.6,0.7 -0.69,1.62 -0.09,0.89 0.28,1.72 0.57,1.28 1.82,1.74 1.24,0.45 2.58,-0.14 1.36,-0.6 1.87,-1.87 0.51,-1.25 -0.07,-2.55 -0.56,-1.26 -1.82,-1.71 -1.25,-0.44 -2.57,0.16 z m -22.25,-30.87 14.27,-8.92 1.12,1.79 -14.27,8.92 z m 18.85,6.19 -1.17,-1.57 q 0.89,-0.87 1.1,-1.57 0.33,-1.14 -0.3,-2.14 -0.5,-0.8 -1.33,-1.1 -1.09,-0.4 -2.54,-0.14 -1.44,0.27 -3.59,1.59 1.34,0 2.35,0.57 1.01,0.58 1.6,1.53 1.04,1.66 0.47,3.64 -0.56,1.98 -2.59,3.26 -1.34,0.84 -2.85,1 -1.49,0.17 -2.7,-0.41 -1.22,-0.58 -1.98,-1.8 -1.3,-2.08 -0.51,-4.4 0.79,-2.33 4.49,-4.63 4.14,-2.59 6.92,-2.31 2.43,0.25 3.77,2.39 1,1.6 0.69,3.21 -0.3,1.62 -1.84,2.86 z m -10.4,-2.95 q -0.9,0.57 -1.51,1.44 -0.59,0.89 -0.63,1.82 -0.02,0.92 0.43,1.65 0.66,1.05 2.03,1.25 1.37,0.2 2.91,-0.76 1.48,-0.92 1.85,-2.2 0.39,-1.28 -0.32,-2.42 -0.71,-1.13 -2.05,-1.37 -1.33,-0.25 -2.72,0.6 z m -27.2,-27.96 12.89,-10.82 1.36,1.62 -12.89,10.82 z m 7.29,8.68 3.09,-2.59 -4.46,-5.31 1.45,-1.22 13.04,-1.43 1.03,1.23 -8.35,7.01 1.38,1.65 -1.45,1.22 -1.38,-1.65 -3.09,2.59 z m 4.54,-3.81 5.81,-4.88 -9.03,1.04 z m -33.88,-25.45 11.26,-12.5 1.57,1.41 -11.26,12.5 z m 12.75,8.81 -1.33,1.47 -7.85,-7.07 q 0.49,-0.57 1.13,-0.92 1.06,-0.58 2.46,-0.8 1.4,-0.22 3.62,-0.17 3.44,0.07 4.99,-0.29 1.56,-0.37 2.35,-1.24 0.82,-0.91 0.76,-2.1 -0.05,-1.19 -1.05,-2.09 -1.05,-0.95 -2.28,-0.85 -1.23,0.1 -2.3,1.26 l -1.35,-1.52 q 1.74,-1.63 3.58,-1.64 1.84,-0.03 3.53,1.51 1.71,1.54 1.81,3.43 0.1,1.9 -1.23,3.37 -0.68,0.75 -1.62,1.21 -0.95,0.46 -2.34,0.65 -1.4,0.2 -4.22,0.18 -2.36,-0.03 -3.1,0.06 -0.74,0.07 -1.36,0.27 z M 220.92,27.23 q -0.32,-2.97 0.07,-4.84 0.39,-1.87 1.43,-2.98 1.05,-1.1 2.78,-1.28 1.28,-0.13 2.3,0.31 1.02,0.44 1.76,1.39 0.73,0.95 1.25,2.39 0.51,1.42 0.78,3.92 0.31,2.95 -0.07,4.82 -0.39,1.87 -1.43,2.98 -1.04,1.1 -2.78,1.28 -2.3,0.24 -3.8,-1.35 -1.79,-1.92 -2.29,-6.63 z m 2,-0.22 q 0.43,4.12 1.49,5.39 1.07,1.26 2.41,1.12 1.35,-0.14 2.11,-1.61 0.78,-1.47 0.34,-5.57 -0.43,-4.13 -1.5,-5.4 -1.05,-1.26 -2.42,-1.12 -1.35,0.14 -2.02,1.43 -0.84,1.64 -0.41,5.76 z m 41.29,6.32 -0.06,1.99 -10.55,-0.37 q 0,-0.75 0.28,-1.43 0.45,-1.12 1.37,-2.19 0.93,-1.07 2.66,-2.46 2.68,-2.16 3.64,-3.44 0.96,-1.29 1,-2.46 0.05,-1.23 -0.77,-2.09 -0.8,-0.88 -2.14,-0.92 -1.42,-0.05 -2.3,0.82 -0.88,0.86 -0.94,2.45 l -2.01,-0.29 q 0.29,-2.36 1.68,-3.56 1.4,-1.2 3.67,-1.13 2.3,0.07 3.6,1.47 1.29,1.39 1.23,3.37 -0.03,1.01 -0.46,1.97 -0.43,0.96 -1.38,2.01 -0.94,1.04 -3.12,2.85 -1.82,1.5 -2.34,2.04 -0.52,0.53 -0.86,1.08 z m 25.41,5.83 0.7,-3.97 -6.82,-1.2 0.33,-1.87 9.08,-9.48 1.58,0.28 -1.9,10.74 2.12,0.38 -0.33,1.87 -2.12,-0.38 -0.7,3.97 z m 1.03,-5.83 1.31,-7.47 -6.25,6.6 z m 33.61,1 -1.9,-0.45 q 0.13,-1.23 -0.16,-1.91 -0.49,-1.09 -1.59,-1.45 -0.89,-0.29 -1.74,0.02 -1.1,0.39 -2.03,1.53 -0.93,1.14 -1.73,3.53 1.03,-0.86 2.17,-1.07 1.14,-0.21 2.22,0.14 1.86,0.6 2.7,2.49 0.85,1.87 0.11,4.16 -0.49,1.51 -1.53,2.6 -1.03,1.08 -2.34,1.42 -1.3,0.33 -2.67,-0.11 -2.33,-0.76 -3.22,-3.04 -0.88,-2.29 0.46,-6.44 1.51,-4.64 3.82,-6.22 2.02,-1.37 4.42,-0.59 1.79,0.58 2.59,2.01 0.81,1.43 0.43,3.38 z m -9.86,4.42 q -0.33,1.01 -0.23,2.08 0.12,1.06 0.69,1.79 0.58,0.72 1.39,0.98 1.18,0.39 2.36,-0.34 1.17,-0.73 1.74,-2.45 0.54,-1.66 0.01,-2.88 -0.52,-1.23 -1.81,-1.65 -1.27,-0.41 -2.46,0.26 -1.19,0.67 -1.7,2.21 z m 31.87,7.73 q -0.89,-0.96 -1.04,-2 -0.14,-1.04 0.39,-2.13 0.81,-1.65 2.48,-2.23 1.68,-0.58 3.55,0.34 1.89,0.92 2.46,2.64 0.59,1.71 -0.22,3.36 -0.52,1.05 -1.42,1.58 -0.9,0.52 -2.17,0.43 1.1,1.1 1.29,2.44 0.2,1.35 -0.48,2.75 -0.95,1.94 -2.89,2.62 -1.95,0.69 -4.07,-0.35 -2.13,-1.03 -2.79,-2.99 -0.65,-1.96 0.31,-3.95 0.72,-1.47 1.91,-2.12 1.2,-0.65 2.69,-0.37 z m 1.19,-3.32 q -0.52,1.07 -0.2,2.07 0.32,1 1.37,1.51 1.02,0.49 1.99,0.15 0.99,-0.36 1.47,-1.34 0.5,-1.02 0.15,-2.04 -0.32,-1.03 -1.32,-1.51 -1.01,-0.49 -2.01,-0.13 -1,0.36 -1.46,1.3 z m -3.98,6.71 q -0.38,0.79 -0.4,1.71 0,0.92 0.5,1.68 0.51,0.74 1.32,1.14 1.27,0.62 2.5,0.16 1.24,-0.45 1.88,-1.77 0.66,-1.34 0.23,-2.63 -0.41,-1.29 -1.69,-1.91 -1.25,-0.6 -2.49,-0.14 -1.23,0.47 -1.87,1.76 z m 22.02,17.26 9.41,-13.95 1.75,1.19 -9.41,13.95 z m 8.83,-4.05 q 1.66,-2.48 3.16,-3.66 1.51,-1.18 3.01,-1.36 1.51,-0.17 2.95,0.8 1.07,0.72 1.56,1.72 0.5,0.98 0.45,2.2 -0.05,1.2 -0.58,2.64 -0.52,1.42 -1.93,3.49 -1.66,2.46 -3.16,3.64 -1.49,1.18 -3.01,1.36 -1.5,0.18 -2.95,-0.8 -1.92,-1.29 -2.04,-3.48 -0.14,-2.63 2.52,-6.56 z m 1.67,1.13 q -2.32,3.43 -2.32,5.09 0.01,1.65 1.12,2.4 1.12,0.75 2.65,0.12 1.54,-0.63 3.85,-4.05 2.32,-3.45 2.32,-5.09 0,-1.64 -1.13,-2.41 -1.12,-0.75 -2.46,-0.21 -1.7,0.7 -4.02,4.15 z m 84.39,191.31 -0.07,1.95 -13.66,-0.47 0.07,-1.95 z m -0.06,-14.65 0.07,1.95 -13.66,0.48 -0.07,-1.95 z m -1.09,-14.61 0.21,1.94 -13.6,1.42 -0.21,-1.94 z m -2.11,-14.5 0.34,1.92 -13.46,2.37 -0.34,-1.92 z m -3.11,-14.32 0.47,1.89 -13.27,3.31 -0.47,-1.89 z m -4.1,-14.06 0.6,1.86 -13,4.22 -0.6,-1.86 z m -5.08,-13.74 0.73,1.81 -12.68,5.12 -0.73,-1.81 z m -6.02,-13.36 0.86,1.75 -12.29,5.99 -0.86,-1.75 z m -6.94,-12.91 0.97,1.69 -11.84,6.83 -0.97,-1.69 z m -7.82,-12.39 1.1,1.62 -11.34,7.64 -1.1,-1.62 z m -8.67,-11.82 1.2,1.54 -10.77,8.41 -1.2,-1.54 z m -9.47,-11.18 1.31,1.45 -10.16,9.15 -1.31,-1.45 z m -10.23,-10.5 1.4,1.36 -9.5,9.83 -1.4,-1.36 z m -10.94,-9.76 1.49,1.26 -8.79,10.47 -1.49,-1.26 z m -11.59,-8.97 1.59,1.15 -8.04,11.07 -1.59,-1.15 z M 234.92,39.8 l 1.94,-0.14 0.96,13.64 -1.94,0.14 z m 14.64,-0.58 h 1.95 v 13.67 h -1.95 z m 14.64,0.44 1.95,0.14 -0.95,13.64 -1.95,-0.14 z m 14.58,1.46 1.93,0.27 -1.9,13.53 -1.93,-0.27 z m 14.44,2.48 1.91,0.4 -2.84,13.37 -1.91,-0.4 z m 14.24,3.48 1.88,0.53 -3.77,13.14 -1.88,-0.53 z m 13.96,4.46 1.84,0.67 -4.68,12.85 -1.84,-0.67 z m 13.61,5.43 1.79,0.8 -5.56,12.49 -1.79,-0.8 z m 13.2,6.36 1.73,0.92 -6.42,12.07 -1.73,-0.92 z m 12.73,7.27 1.65,1.04 -7.24,11.6 -1.65,-1.04 z m 99.96,177.43 v 3.9 h -13.67 v -3.9 z m 39.07,0 v 3.9 l -11.72,0.01 v -3.9 z m -41.38,-29.33 0.55,3.87 -13.54,1.9 -0.55,-3.87 z m 38.69,-5.44 0.55,3.87 -11.6,1.63 -0.55,-3.87 z m -45.06,-23.29 1.08,3.76 -13.14,3.77 -1.08,-3.76 z m 37.55,-10.76 1.08,3.76 -11.27,3.23 -1.08,-3.76 z m -47.87,-16.8 1.59,3.57 -12.5,5.56 -1.59,-3.57 z m 35.68,-15.89 1.59,3.57 -10.71,4.77 -1.59,-3.57 z m -49.74,-9.97 2.07,3.31 -11.59,7.25 -2.07,-3.31 z m 33.13,-20.7 2.07,3.31 -9.93,6.21 -2.07,-3.31 z m -50.65,-2.95 2.51,2.99 -10.47,8.79 -2.51,-2.99 z m 29.93,-25.11 2.51,2.99 -8.98,7.53 -2.51,-2.99 z m -50.56,4.13 2.91,2.61 -9.14,10.16 -2.91,-2.61 z m 26.14,-29.02 2.91,2.61 -7.84,8.71 -2.91,-2.61 z m -189.82,-22.48 3.89,-0.4 1.43,13.59 -3.89,0.4 z m -4.08,-38.85 3.89,-0.4 1.23,11.66 -3.89,0.4 z m 33.48,37.55 3.91,0.14 -0.48,13.67 -3.91,-0.14 z m 1.36,-39.04 3.91,0.14 -0.41,11.71 -3.91,-0.14 z m 27.93,41.84 3.85,0.68 -2.38,13.46 -3.85,-0.68 z m 6.79,-38.47 3.85,0.68 -2.04,11.54 -3.85,-0.68 z m 21.84,45.32 3.72,1.21 -4.22,13 -3.72,-1.21 z m 12.07,-37.15 3.72,1.21 -3.63,11.14 -3.72,-1.21 z m 15.31,47.92 3.51,1.72 -6,12.29 -3.51,-1.72 z m 17.12,-35.11 3.51,1.72 -5.14,10.54 -3.51,-1.72 z m 8.5,49.59 3.24,2.19 -7.65,11.34 -3.24,-2.19 z m 21.85,-32.38 3.24,2.19 -6.55,9.72 -3.24,-2.19 z m 111.35,223.84 -0.27,3.9 -52.61,-3.68 0.27,-3.9 z m -0.27,-34.87 0.28,3.9 -52.6,3.68 -0.28,-3.9 z m -5.13,-34.51 0.82,3.83 -51.58,10.97 -0.82,-3.83 z m -9.87,-33.45 1.33,3.67 -49.56,18.04 -1.33,-3.67 z m -14.43,-31.75 1.84,3.45 -46.56,24.76 -1.84,-3.45 z m -18.72,-29.44 2.3,3.16 -42.66,31 -2.3,-3.16 z m -22.63,-26.55 2.72,2.81 -37.94,36.63 -2.72,-2.81 z m -26.1,-23.14 3.08,2.4 -32.47,41.55 -3.08,-2.4 z M 239.31,0.2 l 3.9,-0.14 1.84,52.71 -3.9,0.14 z m 34.86,0.94 3.88,0.4 -5.51,52.44 -3.88,-0.4 z m 34.39,5.79 3.79,0.95 -12.75,51.17 -3.79,-0.95 z m 33.25,10.52 3.62,1.46 -19.76,48.9 -3.62,-1.46 z m 31.46,15.04 3.38,1.95 -26.36,45.68 -3.38,-1.96 z"
         />
</svg>

