<svg
   width="500"
   height="500"
   viewBox="0 0 500 500"
   version="1.1"
   xmlns="http://www.w3.org/2000/svg"
   xmlns:svg="http://www.w3.org/2000/svg">

   <circle r="250" cx="250" cy="250" />
   <path
       d="m 291.36,313.93 h 16.61 v 2.93 l -13.37,22.28 h 13.69 v 3.24 h -17.26 v -2.93 l 13.37,-22.28 h -13.04 z m -19.43,0 h 17.89 v 3.24 h -7.51 v 25.21 h -2.87 v -25.21 h -7.51 z m -5.08,15.11 q 0.92,0.42 1.78,1.79 0.88,1.37 1.76,3.77 l 2.9,7.78 h -3.07 l -2.7,-7.3 q -1.05,-2.86 -2.04,-3.79 -0.98,-0.93 -2.68,-0.93 h -3.12 v 12.03 h -2.86 v -28.45 h 6.46 q 3.63,0 5.41,2.04 1.78,2.04 1.78,6.16 0,2.69 -0.93,4.46 -0.92,1.77 -2.69,2.46 z m -7.17,-11.95 v 10.1 h 3.6 q 2.07,0 3.12,-1.28 1.06,-1.3 1.06,-3.79 0,-2.5 -1.06,-3.75 -1.05,-1.28 -3.12,-1.28 z m -15.63,0.63 -3.88,14.16 h 7.78 z m -1.61,-3.79 h 3.24 l 8.06,28.45 h -2.97 l -1.93,-7.3 h -9.53 l -1.93,7.3 h -3.02 z m -27.01,0 h 2.87 v 17.29 q 0,4.57 1.23,6.59 1.23,2 3.99,2 2.75,0 3.98,-2 1.23,-2.02 1.23,-6.59 v -17.29 h 2.87 v 17.76 q 0,5.57 -2.05,8.4 -2.04,2.84 -6.03,2.84 -4.01,0 -6.06,-2.84 -2.04,-2.84 -2.04,-8.4 z m -13.92,2.61 q -3.12,0 -4.96,3.13 -1.83,3.13 -1.83,8.52 0,5.37 1.83,8.5 1.84,3.13 4.96,3.13 3.12,0 4.93,-3.13 1.83,-3.13 1.83,-8.5 0,-5.39 -1.83,-8.52 -1.81,-3.13 -4.93,-3.13 z m 4.01,25.33 3.77,5.55 h -3.46 l -3.13,-4.55 q -0.47,0.04 -0.72,0.06 -0.24,0.02 -0.47,0.02 -4.46,0 -7.14,-4 -2.66,-4.02 -2.66,-10.75 0,-6.75 2.66,-10.75 2.68,-4.02 7.14,-4.02 4.45,0 7.11,4.02 2.66,4 2.66,10.75 0,4.96 -1.49,8.48 -1.47,3.53 -4.28,5.2 z m 81.34,-188.98 h 3.35 v 13.85 l 11.12,-13.85 h 4.32 l -12.3,15.28 13.18,17.49 h -4.42 l -11.9,-15.78 v 15.78 h -3.35 z m -5.18,2.52 v 4.68 q -1.69,-2.09 -3.62,-3.12 -1.91,-1.03 -4.07,-1.03 -4.25,0 -6.51,3.45 -2.26,3.42 -2.26,9.92 0,6.48 2.26,9.92 2.26,3.42 6.51,3.42 2.16,0 4.07,-1.03 1.93,-1.03 3.62,-3.12 v 4.63 q -1.76,1.58 -3.74,2.37 -1.96,0.79 -4.15,0.79 -5.63,0 -8.87,-4.54 -3.24,-4.57 -3.24,-12.45 0,-7.9 3.24,-12.45 3.24,-4.57 8.87,-4.57 2.22,0 4.18,0.79 1.98,0.77 3.7,2.33 z m -35.26,0.48 q -3.65,0 -5.81,3.6 -2.14,3.6 -2.14,9.81 0,6.19 2.14,9.79 2.16,3.6 5.81,3.6 3.65,0 5.78,-3.6 2.14,-3.6 2.14,-9.79 0,-6.21 -2.14,-9.81 -2.12,-3.6 -5.78,-3.6 z m 0,-3.6 q 5.21,0 8.33,4.63 3.12,4.61 3.12,12.38 0,7.75 -3.12,12.38 -3.12,4.61 -8.33,4.61 -5.23,0 -8.37,-4.61 -3.12,-4.61 -3.12,-12.38 0,-7.77 3.12,-12.38 3.14,-4.63 8.37,-4.63 z m -27.79,0.59 h 3.35 v 29.04 h 12.07 v 3.73 h -15.42 z m -5.18,2.52 v 4.68 q -1.69,-2.09 -3.62,-3.12 -1.91,-1.03 -4.07,-1.03 -4.25,0 -6.51,3.45 -2.26,3.42 -2.26,9.92 0,6.48 2.26,9.92 2.26,3.42 6.51,3.42 2.16,0 4.07,-1.03 1.93,-1.03 3.62,-3.12 v 4.63 q -1.76,1.58 -3.74,2.37 -1.96,0.79 -4.15,0.79 -5.63,0 -8.87,-4.54 -3.24,-4.57 -3.24,-12.45 0,-7.9 3.24,-12.45 3.24,-4.57 8.87,-4.57 2.22,0 4.18,0.79 1.98,0.77 3.7,2.33 z m -47.8,-63.88 h 4.71 v 33.4 h -4.71 z m -14.08,0 h 4.71 v 33.4 h -4.71 z m -32.31,61 q -3.64,0 -5.48,3.44 -1.82,3.42 -1.82,10.31 0,6.87 1.82,10.31 1.84,3.42 5.48,3.42 3.66,0 5.48,-3.42 1.84,-3.44 1.84,-10.31 0,-6.89 -1.84,-10.31 -1.82,-3.44 -5.48,-3.44 z m 0,-3.58 q 5.85,0 8.93,4.45 3.1,4.43 3.1,12.88 0,8.43 -3.1,12.88 -3.08,4.43 -8.93,4.43 -5.85,0 -8.95,-4.43 -3.08,-4.45 -3.08,-12.88 0,-8.46 3.08,-12.88 3.1,-4.45 8.95,-4.45 z m -24.58,0.6 h 4.71 v 33.4 H 94.68 Z M 69.26,265.97 v -4.12 q 1.77,0.81 3.59,1.23 1.82,0.42 3.57,0.42 4.66,0 7.11,-3 2.47,-3.02 2.82,-9.15 -1.35,1.92 -3.43,2.95 -2.08,1.03 -4.59,1.03 -5.22,0 -8.28,-3.02 -3.03,-3.04 -3.03,-8.3 0,-5.14 3.17,-8.25 3.17,-3.11 8.44,-3.11 6.04,0 9.21,4.45 3.19,4.43 3.19,12.88 0,7.9 -3.92,12.62 -3.89,4.7 -10.49,4.7 -1.77,0 -3.59,-0.34 -1.82,-0.34 -3.78,-1.01 z m 9.37,-14.16 q 3.17,0 5.01,-2.08 1.87,-2.08 1.87,-5.7 0,-3.6 -1.87,-5.68 -1.84,-2.1 -5.01,-2.1 -3.17,0 -5.04,2.1 -1.84,2.08 -1.84,5.68 0,3.62 1.84,5.7 1.87,2.08 5.04,2.08 z m 28.97,83.52 q -3.36,0 -5.29,1.72 -1.91,1.72 -1.91,4.74 0,3.02 1.91,4.74 1.94,1.72 5.29,1.72 3.36,0 5.29,-1.72 1.94,-1.74 1.94,-4.74 0,-3.02 -1.94,-4.74 -1.91,-1.72 -5.29,-1.72 z m -4.71,-1.92 q -3.03,-0.72 -4.73,-2.71 -1.68,-1.99 -1.68,-4.85 0,-4 2.96,-6.33 2.98,-2.33 8.16,-2.33 5.2,0 8.16,2.33 2.96,2.33 2.96,6.33 0,2.86 -1.7,4.85 -1.68,1.99 -4.69,2.71 3.4,0.76 5.29,2.98 1.91,2.21 1.91,5.41 0,4.85 -3.1,7.45 -3.08,2.59 -8.84,2.59 -5.76,0 -8.86,-2.59 -3.08,-2.59 -3.08,-7.45 0,-3.2 1.91,-5.41 1.91,-2.21 5.32,-2.98 z m -1.73,-7.14 q 0,2.59 1.68,4.05 1.7,1.45 4.76,1.45 3.03,0 4.73,-1.45 1.73,-1.45 1.73,-4.05 0,-2.59 -1.73,-4.05 -1.7,-1.45 -4.73,-1.45 -3.05,0 -4.76,1.45 -1.68,1.45 -1.68,4.05 z m 222.93,49.45 h 18.49 v 3.8 H 328.4 v 8.19 q 1.03,-0.34 2.05,-0.49 1.03,-0.18 2.05,-0.18 5.83,0 9.23,3.06 3.4,3.06 3.4,8.3 0,5.39 -3.5,8.39 -3.5,2.98 -9.86,2.98 -2.19,0 -4.48,-0.36 -2.26,-0.36 -4.69,-1.07 v -4.54 q 2.1,1.1 4.34,1.63 2.24,0.54 4.73,0.54 4.03,0 6.39,-2.04 2.36,-2.04 2.36,-5.53 0,-3.49 -2.36,-5.53 -2.36,-2.04 -6.39,-2.04 -1.89,0 -3.78,0.4 -1.87,0.4 -3.82,1.25 z m -169.16,-2.68 h 22.39 v 1.92 l -12.64,31.47 h -4.92 l 11.89,-29.59 h -16.72 z m 244.13,-51.17 -11.89,17.83 h 11.89 z m -1.24,-3.94 h 5.92 v 21.76 h 4.97 v 3.76 h -4.97 v 7.87 h -4.69 v -7.87 h -15.72 v -4.36 z m 27.7,-69.28 q 3.38,0.69 5.27,2.89 1.91,2.19 1.91,5.41 0,4.94 -3.54,7.65 -3.54,2.71 -10.07,2.71 -2.19,0 -4.52,-0.42 -2.31,-0.4 -4.78,-1.23 v -4.36 q 1.96,1.1 4.29,1.66 2.33,0.56 4.87,0.56 4.43,0 6.74,-1.68 2.33,-1.68 2.33,-4.88 0,-2.95 -2.17,-4.61 -2.15,-1.68 -5.99,-1.68 h -4.06 v -3.71 h 4.24 q 3.47,0 5.32,-1.32 1.84,-1.34 1.84,-3.85 0,-2.57 -1.91,-3.94 -1.89,-1.39 -5.43,-1.39 -1.94,0 -4.15,0.4 -2.22,0.4 -4.87,1.25 v -4.03 q 2.68,-0.72 5.01,-1.07 2.36,-0.36 4.43,-0.36 5.36,0 8.49,2.35 3.12,2.33 3.12,6.31 0,2.77 -1.66,4.7 -1.66,1.9 -4.71,2.64 z m -33.51,-69.72 h 16.44 v 3.8 h -22.11 v -3.8 q 2.68,-2.66 7.3,-7.14 4.64,-4.5 5.83,-5.79 2.26,-2.44 3.15,-4.12 0.91,-1.7 0.91,-3.33 0,-2.66 -1.96,-4.34 -1.94,-1.68 -5.06,-1.68 -2.22,0 -4.69,0.74 -2.45,0.74 -5.25,2.24 v -4.56 q 2.84,-1.1 5.32,-1.66 2.47,-0.56 4.52,-0.56 5.41,0 8.63,2.59 3.22,2.59 3.22,6.93 0,2.06 -0.82,3.91 -0.79,1.83 -2.91,4.34 -0.58,0.65 -3.71,3.76 -3.12,3.09 -8.81,8.66 z M 336.74,92.52 h 4.71 v 33.4 h -4.71 z m -87.45,322.42 q -3.17,0 -5.04,2.08 -1.84,2.08 -1.84,5.7 0,3.6 1.84,5.7 1.87,2.08 5.04,2.08 3.17,0 5.01,-2.08 1.87,-2.1 1.87,-5.7 0,-3.62 -1.87,-5.7 -1.84,-2.08 -5.01,-2.08 z m 9.35,-14.16 v 4.12 q -1.77,-0.81 -3.59,-1.23 -1.8,-0.43 -3.57,-0.43 -4.66,0 -7.14,3.02 -2.45,3.02 -2.8,9.13 1.38,-1.95 3.45,-2.98 2.08,-1.05 4.57,-1.05 5.25,0 8.28,3.06 3.05,3.04 3.05,8.3 0,5.14 -3.17,8.25 -3.17,3.11 -8.44,3.11 -6.04,0 -9.23,-4.43 -3.19,-4.45 -3.19,-12.88 0,-7.92 3.92,-12.62 3.92,-4.72 10.52,-4.72 1.77,0 3.57,0.34 1.82,0.34 3.78,1.01 z M 251.06,98.2 h 16.44 v 3.8 h -22.11 v -3.8 q 2.68,-2.66 7.3,-7.14 4.64,-4.5 5.83,-5.79 2.26,-2.44 3.15,-4.12 0.91,-1.7 0.91,-3.33 0,-2.66 -1.96,-4.34 -1.94,-1.68 -5.06,-1.68 -2.22,0 -4.69,0.74 -2.45,0.74 -5.25,2.24 v -4.56 q 2.84,-1.1 5.32,-1.66 2.47,-0.56 4.52,-0.56 5.41,0 8.63,2.59 3.22,2.59 3.22,6.93 0,2.06 -0.82,3.91 -0.79,1.83 -2.91,4.34 -0.58,0.65 -3.71,3.76 -3.12,3.09 -8.81,8.66 z M 232.5,68.6 h 4.71 V 102 h -4.71 z m 43.79,-32.02 -7.96,-0.84 3.14,-29.84 7.96,0.84 z m -47.77,454.5 -7.96,-0.84 3.14,-29.84 7.96,0.84 z m 69.78,-450.59 -7.83,-1.66 6.24,-29.34 7.83,1.66 z m -95.02,447.01 -7.83,-1.66 6.24,-29.34 7.83,1.66 z m 116.49,-440.83 -7.61,-2.47 9.27,-28.53 7.61,2.47 z m -141.22,434.63 -7.61,-2.47 9.27,-28.53 7.61,2.47 z m 161.93,-426.23 -7.31,-3.25 12.2,-27.41 7.31,3.25 z m -185.88,417.49 -7.31,-3.25 12.2,-27.41 7.31,3.25 z m 224.11,-394.45 -6.47,-4.7 17.63,-24.27 6.47,4.7 z m -268.62,369.72 -6.47,-4.7 17.63,-24.27 6.47,4.7 z M 395.81,92.5 l -5.95,-5.35 20.07,-22.29 5.95,5.35 z m -305.77,339.63 -5.95,-5.35 20.07,-22.29 5.95,5.35 z m 321.3,-323.52 -5.35,-5.95 22.29,-20.07 5.35,5.95 z M 71.72,414.4 l -5.35,-5.95 22.29,-20.07 5.35,5.95 z m 353.36,-288.16 -4.7,-6.47 24.27,-17.63 4.7,6.47 z m -369.72,268.62 -4.7,-6.47 24.27,-17.63 4.7,6.47 z m 391.31,-229.54 -3.25,-7.31 27.41,-12.2 3.25,7.31 z M 29.18,351.2 l -3.25,-7.31 27.41,-12.2 3.25,7.31 z m 425.11,-164.87 -2.47,-7.61 28.53,-9.27 2.47,7.61 z m -434.63,141.22 -2.47,-7.61 28.53,-9.27 2.47,7.61 z m 440.01,-119.53 -1.66,-7.83 29.34,-6.24 1.66,7.83 z M 12.66,303.04 11,295.21 40.34,288.97 42,296.8 Z m 450.1,-72.88 -0.84,-7.96 29.84,-3.14 0.84,7.96 z m -454.5,47.77 -0.84,-7.96 29.84,-3.14 0.84,7.96 z m 453.66,-3.14 0.84,-7.96 29.84,3.14 -0.84,7.96 z m -454.5,-47.77 0.84,-7.96 29.84,3.14 -0.84,7.96 z m 450.59,69.78 1.66,-7.83 29.34,6.24 -1.66,7.83 z M 11,201.78 l 1.66,-7.83 29.34,6.24 -1.66,7.83 z m 440.83,116.49 2.47,-7.61 28.53,9.27 -2.47,7.61 z M 17.18,177.06 l 2.47,-7.61 28.53,9.27 -2.47,7.61 z m 426.23,161.93 3.25,-7.31 27.41,12.2 -3.25,7.31 z M 25.92,153.11 l 3.25,-7.31 27.41,12.2 -3.25,7.31 z m 394.45,224.11 4.7,-6.47 24.27,17.63 -4.7,6.47 z M 50.65,108.61 l 4.7,-6.47 24.27,17.63 -4.7,6.47 z m 355.33,285.72 5.35,-5.95 22.29,20.07 -5.35,5.95 z M 66.37,88.54 l 5.35,-5.95 22.29,20.07 -5.35,5.95 z m 323.52,321.3 5.95,-5.35 20.07,22.29 -5.95,5.35 z M 84.09,70.22 l 5.95,-5.35 20.07,22.29 -5.94,5.36 z m 288.17,353.36 6.47,-4.7 17.63,24.27 -6.47,4.7 z M 103.64,53.86 l 6.47,-4.7 17.63,24.27 -6.47,4.7 z m 229.55,391.31 7.31,-3.25 12.2,27.41 -7.31,3.25 z M 147.31,27.68 l 7.31,-3.25 12.2,27.41 -7.31,3.25 z m 164.87,425.11 7.61,-2.47 9.27,28.53 -7.61,2.47 z M 170.95,18.15 l 7.61,-2.47 9.27,28.53 -7.61,2.47 z m 119.53,440.01 7.83,-1.66 6.24,29.34 -7.83,1.66 z m -95.02,-447.01 7.83,-1.66 6.24,29.34 -7.83,1.66 z m 72.88,450.1 7.96,-0.84 3.14,29.84 -7.96,0.84 z m -47.77,-454.5 7.96,-0.84 3.14,29.84 -7.96,0.84 z m -60.37,75.7 -10.39,6 -27.5,-47.63 10.39,-6 z m 217.5,376.72 -10.39,6 -27.5,-47.63 10.39,-6 z M 82.46,339.8 l 6,10.39 -47.63,27.5 -6,-10.39 z m 376.72,-217.5 6,10.39 -47.63,27.5 -6,-10.39 z m -370.72,27.5 -6,10.39 -47.63,-27.5 6,-10.39 z m 376.72,217.5 -6,10.39 -47.63,-27.5 6,-10.39 z m -315.37,44.24 10.39,6 -27.5,47.63 -10.39,-6 z m 217.5,-376.72 10.39,6 -27.5,47.63 -10.39,-6 z M 60,244 v 12 H 5 v -12 z m 435,0 v 12 H 440 V 244 Z M 244,440 h 12 v 55 H 244 Z M 244,5 h 12 v 55 h -12 z"
       style="fill:#ffffff" />
</svg>
