<?xml version="1.0" encoding="UTF-8" standalone="no"?>
<svg
   width="500"
   height="500"
   viewBox="0 0 500 500"
   version="1.1"
   id="svg1"
   sodipodi:docname="face.svg"
   inkscape:version="1.4 (e7c3feb1, 2024-10-09)"
   xmlns:inkscape="http://www.inkscape.org/namespaces/inkscape"
   xmlns:sodipodi="http://sodipodi.sourceforge.net/DTD/sodipodi-0.dtd"
   xmlns="http://www.w3.org/2000/svg"
   xmlns:svg="http://www.w3.org/2000/svg">
  <sodipodi:namedview
     id="namedview1"
     pagecolor="#ffffff"
     bordercolor="#000000"
     borderopacity="0.25"
     inkscape:showpageshadow="2"
     inkscape:pageopacity="0.0"
     inkscape:pagecheckerboard="0"
     inkscape:deskcolor="#d1d1d1"
     inkscape:zoom="1.4161375"
     inkscape:cx="376.37589"
     inkscape:cy="308.58586"
     inkscape:window-width="1728"
     inkscape:window-height="1051"
     inkscape:window-x="0"
     inkscape:window-y="38"
     inkscape:window-maximized="1"
     inkscape:current-layer="svg1" />
  <defs
     id="defs1" />
  <g
     id="layer1"
     style="display:inline">
    <path
       id="back"
       style="display:inline;fill:#101010"
       d="M 500,250 A 250,250 0 0 1 250,500 250,250 0 0 1 0,250 250,250 0 0 1 250,0 250,250 0 0 1 500,250 Z" />
    <path
       id="white"
       style="font-weight:bold;font-size:32px;fill:#ffffff"
       d="m 348.60156,72.804688 -38.28711,32.125002 c 2.14391,2.43718 4.23361,4.92151 6.26758,7.45117 l 38.27735,-32.119141 z m 45.93164,2.566406 c -1.84374,0 -3.40624,0.630208 -4.6875,1.890625 -1.27083,1.260416 -1.90625,2.807291 -1.90625,4.640625 0,1.833333 0.63542,3.380208 1.90625,4.640625 1.28126,1.260416 2.84376,1.890625 4.6875,1.890625 1.84376,0 3.40104,-0.630209 4.67188,-1.890625 1.28124,-1.260417 1.92187,-2.807292 1.92187,-4.640625 0,-1.833334 -0.63541,-3.380209 -1.90625,-4.640625 -1.27083,-1.260417 -2.83333,-1.890625 -4.6875,-1.890625 z m -20.78125,0.01563 c -1.70833,0 -3.17708,0.255208 -4.40625,0.765625 -1.22916,0.510416 -2.22916,1.276041 -3,2.296875 -0.77083,1.03125 -1.33333,2.291666 -1.6875,3.78125 -0.35416,1.489583 -0.53125,3.244791 -0.53125,5.265625 0,1.958333 0.17187,3.697916 0.51563,5.21875 0.34374,1.510416 0.90104,2.776041 1.67187,3.796875 0.76042,1.020833 1.75521,1.791666 2.98438,2.3125 1.22916,0.520833 2.71354,0.78125 4.45312,0.78125 1.77084,0 3.26042,-0.255209 4.46875,-0.765625 1.20834,-0.520834 2.19792,-1.286459 2.96875,-2.296875 0.75,-0.989584 1.30209,-2.255209 1.65625,-3.796875 0.35417,-1.552084 0.53125,-3.307292 0.53125,-5.265625 0,-1.958334 -0.17188,-3.682292 -0.51562,-5.171875 -0.34376,-1.5 -0.89584,-2.760417 -1.65625,-3.78125 -0.77084,-1.041667 -1.76042,-1.822917 -2.96875,-2.34375 -1.20834,-0.53125 -2.70312,-0.796875 -4.48438,-0.796875 z m 20.78125,3.40625 c 0.86459,0 1.58334,0.307291 2.15625,0.921875 0.58334,0.604166 0.875,1.333333 0.875,2.1875 0,0.854166 -0.29166,1.583333 -0.875,2.1875 -0.57291,0.604166 -1.29166,0.90625 -2.15625,0.90625 -0.84374,0 -1.56249,-0.291667 -2.15625,-0.875 -0.58333,-0.59375 -0.875,-1.333334 -0.875,-2.21875 0,-0.864584 0.29167,-1.598959 0.875,-2.203125 0.58334,-0.604167 1.30209,-0.90625 2.15625,-0.90625 z m -20.78125,0.890625 c 1.28126,0 2.19792,0.598958 2.75,1.796875 0.55209,1.1875 0.82813,3.1875 0.82813,6 0,2.78125 -0.28125,4.78125 -0.84375,6 -0.5625,1.21875 -1.47396,1.828125 -2.73438,1.828125 -1.26041,0 -2.17187,-0.609375 -2.73437,-1.828125 -0.5625,-1.21875 -0.84375,-3.208334 -0.84375,-5.96875 0,-2.833334 0.27604,-4.84375 0.82812,-6.03125 0.55209,-1.197917 1.46876,-1.796875 2.75,-1.796875 z M 165.44141,113.17773 v 4.26563 h 5.9375 v -4.26563 z m -37.57813,1.04688 6.26563,23.26562 h 6.64062 l 4.0625,-15.15625 4.17188,15.15625 h 6.64062 l 6.26563,-23.26562 h -6.10938 l -3.75,16.01562 -4.07812,-16.01562 h -5.98438 l -4.28125,16.01562 -3.57812,-16.01562 z m 60.25,5.23437 c -1.125,0 -2.15104,0.20834 -3.07812,0.625 -0.91667,0.41667 -1.875,1.01563 -2.875,1.79688 v -1.9375 h -5.625 v 17.54687 h 5.625 v -12.4375 c 0.61458,-0.36458 1.18229,-0.6302 1.70312,-0.79687 0.53125,-0.16667 1.05209,-0.25 1.5625,-0.25 0.71875,0 1.27604,0.0885 1.67188,0.26562 0.40624,0.17708 0.71354,0.45833 0.92187,0.84375 0.17709,0.33334 0.30209,0.85417 0.375,1.5625 0.0729,0.69792 0.10938,1.40105 0.10938,2.10938 v 8.70312 h 5.65625 v -11.42187 c 0,-2.19791 -0.53646,-3.84896 -1.60938,-4.95313 -1.0625,-1.10416 -2.54167,-1.65625 -4.4375,-1.65625 z m 17.92188,0 c -1.05209,0 -2.08334,0.20313 -3.09375,0.60938 -1,0.40625 -1.84375,0.97396 -2.53125,1.70312 -0.73959,0.78125 -1.31251,1.69792 -1.71875,2.75 -0.40626,1.05208 -0.60938,2.30208 -0.60938,3.75 0,3.02084 0.66667,5.27084 2,6.75 1.33333,1.47917 3.22917,2.21875 5.6875,2.21875 1.01042,0 1.92709,-0.16145 2.75,-0.48437 0.82292,-0.32291 1.57292,-0.76041 2.25,-1.3125 v 0.32812 c 0,0.72917 -0.0729,1.35417 -0.21875,1.875 -0.14583,0.52084 -0.38021,0.94792 -0.70312,1.28125 -0.34376,0.35417 -0.84376,0.625 -1.5,0.8125 -0.64584,0.19792 -1.48959,0.29688 -2.53125,0.29688 -0.78126,0 -1.66667,-0.11458 -2.65625,-0.34375 -0.98959,-0.21875 -1.82813,-0.46354 -2.51563,-0.73438 h -0.6875 v 4.39063 c 0.86459,0.20833 1.88542,0.38542 3.0625,0.53125 1.1875,0.14583 2.39062,0.21875 3.60938,0.21875 1.5,0 2.84375,-0.14583 4.03125,-0.4375 1.19791,-0.28125 2.21874,-0.74479 3.0625,-1.39063 0.84374,-0.63542 1.49999,-1.51562 1.96875,-2.64062 0.46874,-1.125 0.70312,-2.51042 0.70312,-4.15625 v -15.53125 h -5.45312 l -0.20313,0.78125 c -0.63541,-0.39583 -1.34375,-0.70313 -2.125,-0.92188 -0.77083,-0.22916 -1.63021,-0.34375 -2.57812,-0.34375 z m -40.4375,0.48438 v 17.54687 h 5.625 v -17.54687 z m 42.71875,3.625 c 0.375,0 0.79687,0.0417 1.26562,0.125 0.46875,0.0729 0.86459,0.17709 1.1875,0.3125 v 7.95312 c -0.44791,0.29167 -0.94271,0.52605 -1.48437,0.70313 -0.54167,0.17709 -1.09375,0.26562 -1.65625,0.26562 -1.23959,0 -2.17709,-0.33333 -2.8125,-1 -0.625,-0.66666 -0.9375,-1.84375 -0.9375,-3.53125 0,-1.52083 0.36979,-2.70312 1.10937,-3.54687 0.73959,-0.85417 1.84896,-1.28125 3.32813,-1.28125 z m 188.61132,29.55859 -46.9707,17.09571 c 1.17863,3.02322 2.29023,6.07214 3.33399,9.14453 l 46.96679,-17.09375 z m -246.62695,0.0508 v 24.3125 h 5.625 v -24.3125 z m -20.5,1.04688 v 23.26562 h 5.96875 v -9.9375 h 9.92188 v -4.5 h -9.92188 v -4.32812 h 10.70313 v -4.5 z m 329.04883,1.08203 c -1.84375,0 -3.40625,0.63021 -4.6875,1.89063 -1.27083,1.26041 -1.90625,2.80729 -1.90625,4.64062 0,1.83333 0.63542,3.38021 1.90625,4.64063 1.28125,1.26041 2.84375,1.89062 4.6875,1.89062 1.84375,0 3.40104,-0.63021 4.67187,-1.89062 1.28126,-1.26042 1.92188,-2.8073 1.92188,-4.64063 0,-1.83333 -0.63542,-3.38021 -1.90625,-4.64062 -1.27083,-1.26042 -2.83333,-1.89063 -4.6875,-1.89063 z m -20.78125,0.0156 c -1.70833,0 -3.17708,0.25521 -4.40625,0.76562 -1.22917,0.51042 -2.22917,1.27604 -3,2.29688 -0.77083,1.03124 -1.33333,2.29166 -1.6875,3.78125 -0.35417,1.48958 -0.53125,3.24479 -0.53125,5.26562 0,1.95833 0.17188,3.69792 0.51562,5.21875 0.34376,1.51042 0.90105,2.77604 1.67188,3.79688 0.76041,1.02083 1.75521,1.79166 2.98437,2.3125 1.22917,0.52083 2.71354,0.78125 4.45313,0.78125 1.77083,0 3.26042,-0.25521 4.46875,-0.76563 1.20833,-0.52083 2.19792,-1.28646 2.96875,-2.29687 0.75,-0.98959 1.30208,-2.25521 1.65625,-3.79688 0.35417,-1.55208 0.53125,-3.30729 0.53125,-5.26562 0,-1.95834 -0.17187,-3.68229 -0.51563,-5.17188 -0.34374,-1.5 -0.89583,-2.76042 -1.65625,-3.78125 -0.77083,-1.04167 -1.76041,-1.82292 -2.96875,-2.34375 -1.20833,-0.53125 -2.70312,-0.79687 -4.48437,-0.79687 z m -24.40625,0.40625 c -0.0417,0.625 -0.19792,1.14583 -0.46875,1.5625 -0.27083,0.41666 -0.67708,0.75521 -1.21875,1.01562 -0.45833,0.21875 -1.03125,0.375 -1.71875,0.46875 -0.6875,0.0833 -1.40625,0.125 -2.15625,0.125 v 3.79688 h 4.90625 v 12.29687 h -4.90625 v 4.0625 h 15.53125 v -4.0625 h -4.79688 v -19.26562 z m 45.1875,3 c 0.86458,0 1.58333,0.30729 2.15625,0.92187 0.58333,0.60417 0.875,1.33333 0.875,2.1875 0,0.85417 -0.29167,1.58333 -0.875,2.1875 -0.57292,0.60417 -1.29167,0.90625 -2.15625,0.90625 -0.84375,0 -1.5625,-0.29167 -2.15625,-0.875 -0.58333,-0.59375 -0.875,-1.33333 -0.875,-2.21875 0,-0.86458 0.29167,-1.59896 0.875,-2.20312 0.58333,-0.60417 1.30208,-0.90625 2.15625,-0.90625 z m -290.4707,0.71484 c -1.34376,0 -2.68751,0.10937 -4.03125,0.32812 -1.33334,0.20834 -2.29688,0.39063 -2.89063,0.54688 v 4.23437 h 0.51563 c 0.45833,-0.17708 1.21354,-0.42708 2.26562,-0.75 1.05209,-0.33333 2.04167,-0.5 2.96875,-0.5 1.54167,0 2.70833,0.1875 3.5,0.5625 0.79167,0.36458 1.1875,1.03125 1.1875,2 v 0.0937 c -1.65625,0.0937 -3.25521,0.23958 -4.79687,0.4375 -1.54167,0.19792 -2.83334,0.53125 -3.875,1 -1.05209,0.46875 -1.86459,1.10938 -2.4375,1.92188 -0.57292,0.8125 -0.85938,1.85937 -0.85938,3.14062 0,1.60417 0.5625,2.92188 1.6875,3.95313 1.125,1.03125 2.52083,1.54687 4.1875,1.54687 0.70833,0 1.35937,-0.0625 1.95313,-0.1875 0.59374,-0.11458 1.16666,-0.29687 1.71875,-0.54687 0.39583,-0.1875 0.81771,-0.44271 1.26562,-0.76563 0.44792,-0.32292 0.82292,-0.59895 1.125,-0.82812 v 1.85937 h 5.57813 v -11.9375 c 0,-2.10416 -0.71354,-3.64583 -2.14063,-4.625 -1.41667,-0.98958 -3.72396,-1.48437 -6.92187,-1.48437 z m 25.625,0.0156 c -1.17709,0 -2.21876,0.21355 -3.125,0.64063 -0.89584,0.42709 -1.77604,0.98437 -2.64063,1.67187 v -1.82812 h -5.625 v 23.98437 h 5.625 v -7.3125 c 0.72917,0.38542 1.44271,0.6823 2.14063,0.89063 0.69791,0.21875 1.54687,0.32812 2.54687,0.32812 1.08333,0 2.09896,-0.20833 3.04688,-0.625 0.94791,-0.41666 1.79687,-1.03125 2.54687,-1.84375 0.71875,-0.77083 1.29688,-1.75 1.73438,-2.9375 0.44791,-1.1875 0.67187,-2.5052 0.67187,-3.95312 0,-2.80208 -0.60938,-5.00521 -1.82812,-6.60938 -1.20834,-1.60416 -2.90625,-2.40625 -5.09375,-2.40625 z m 18.84375,0 c -2.77084,0 -4.95834,0.5625 -6.5625,1.6875 -1.59376,1.11458 -2.39063,2.51563 -2.39063,4.20313 0,1.3125 0.38542,2.41145 1.15625,3.29687 0.77083,0.875 1.95312,1.52084 3.54688,1.9375 0.58333,0.15625 1.22916,0.29167 1.9375,0.40625 0.71874,0.10417 1.28645,0.20313 1.70312,0.29688 0.875,0.17709 1.46875,0.36459 1.78125,0.5625 0.3125,0.1875 0.46875,0.49479 0.46875,0.92187 0,0.47917 -0.26563,0.84375 -0.79687,1.09375 -0.53126,0.23958 -1.34896,0.35938 -2.45313,0.35938 -0.84375,0 -1.63541,-0.0833 -2.375,-0.25 -0.73958,-0.17708 -1.40104,-0.38541 -1.98437,-0.625 -0.67709,-0.27083 -1.20313,-0.52083 -1.57813,-0.75 -0.36458,-0.23958 -0.6875,-0.45833 -0.96875,-0.65625 h -0.51562 v 4.625 c 0.77083,0.35417 1.79166,0.67708 3.0625,0.96875 1.27083,0.29167 2.6875,0.4375 4.25,0.4375 2.82291,0 5.04687,-0.55208 6.67187,-1.65625 1.625,-1.11458 2.4375,-2.57813 2.4375,-4.39063 0,-1.23958 -0.35417,-2.27083 -1.0625,-3.09375 -0.70833,-0.83333 -1.80208,-1.4427 -3.28125,-1.82812 -0.66667,-0.16667 -1.33333,-0.30208 -2,-0.40625 -0.65625,-0.11458 -1.27083,-0.22916 -1.84375,-0.34375 -1.04167,-0.21875 -1.70313,-0.4375 -1.98437,-0.65625 -0.28126,-0.21875 -0.42188,-0.53646 -0.42188,-0.95313 0,-0.45833 0.30729,-0.8125 0.92188,-1.0625 0.625,-0.25 1.39062,-0.375 2.29687,-0.375 1.09375,0 2.17188,0.1823 3.23438,0.54688 1.07291,0.35417 2.02604,0.8177 2.85937,1.39062 h 0.48438 v -4.4375 c -0.67709,-0.30208 -1.6198,-0.58333 -2.82813,-0.84375 -1.19791,-0.27083 -2.45312,-0.40625 -3.76562,-0.40625 z m 225.2207,0.16016 c 1.28125,0 2.19791,0.59896 2.75,1.79688 0.55208,1.1875 0.82812,3.1875 0.82812,6 0,2.78124 -0.28125,4.78124 -0.84375,6 -0.5625,1.21874 -1.47396,1.82812 -2.73437,1.82812 -1.26042,0 -2.17188,-0.60938 -2.73438,-1.82812 -0.5625,-1.21876 -0.84375,-3.20834 -0.84375,-5.96875 0,-2.83334 0.27604,-4.84375 0.82813,-6.03125 0.55208,-1.19792 1.46875,-1.79688 2.75,-1.79688 z m -246.58008,4.08984 c 1.26042,0 2.18229,0.38542 2.76563,1.15625 0.58333,0.77084 0.875,2.01042 0.875,3.71875 0,1.75 -0.36459,3.0625 -1.09375,3.9375 -0.72917,0.86458 -1.83854,1.29688 -3.32813,1.29688 -0.41667,0 -0.83854,-0.0208 -1.26562,-0.0625 -0.42709,-0.0417 -0.82813,-0.13542 -1.20313,-0.28125 v -8.82813 c 0.51042,-0.30208 1.04688,-0.53125 1.60938,-0.6875 0.5625,-0.16666 1.10937,-0.25 1.64062,-0.25 z m -19.625,5.54688 v 3.65625 c -0.4375,0.375 -0.94792,0.67708 -1.53125,0.90625 -0.57291,0.22917 -1.14062,0.34375 -1.70312,0.34375 -0.70834,0 -1.22917,-0.0469 -1.5625,-0.14063 -0.33334,-0.10416 -0.61979,-0.26041 -0.85938,-0.46875 -0.25003,-0.20833 -0.40628,-0.42708 -0.46875,-0.65625 -0.0625,-0.22916 -0.0937,-0.52603 -0.0937,-0.89062 0,-0.55208 0.14583,-0.99479 0.4375,-1.32813 0.30209,-0.34375 0.73438,-0.60417 1.29688,-0.78125 0.45833,-0.14583 1.13021,-0.27083 2.01562,-0.375 0.88542,-0.11462 1.70834,-0.20315 2.46875,-0.26562 z m 299.77539,107.55273 c -1.84374,0 -3.40624,0.63022 -4.6875,1.89063 -1.27083,1.26042 -1.90625,2.80729 -1.90625,4.64062 0,1.83334 0.63542,3.38022 1.90625,4.64063 1.28126,1.26042 2.84376,1.89062 4.6875,1.89062 1.84376,0 3.40104,-0.6302 4.67188,-1.89062 1.28124,-1.26041 1.92187,-2.80729 1.92187,-4.64063 0,-1.83333 -0.63541,-3.3802 -1.90625,-4.64062 -1.27083,-1.26041 -2.83333,-1.89063 -4.6875,-1.89063 z m -43.79687,0.0312 c -1.44792,0 -2.89584,0.16147 -4.34375,0.48438 -1.4375,0.32292 -2.52604,0.64584 -3.26563,0.96875 v 5.17187 h 0.5 c 0.90626,-0.61458 1.88542,-1.11979 2.9375,-1.51562 1.0625,-0.39583 2.07292,-0.59375 3.03125,-0.59375 1.28126,0 2.26042,0.29167 2.9375,0.875 0.6875,0.57292 1.03125,1.39062 1.03125,2.45312 0,0.88542 -0.26563,1.78125 -0.79687,2.6875 -0.53126,0.90625 -1.42709,1.96875 -2.6875,3.1875 -0.84376,0.82292 -1.96876,1.80208 -3.375,2.9375 -1.39584,1.13542 -2.79167,2.20833 -4.1875,3.21875 v 3.84375 h 18.26562 v -4.45312 h -10.45312 c 0.40624,-0.29167 1.08854,-0.80208 2.04687,-1.53125 0.95834,-0.73958 1.91146,-1.54688 2.85938,-2.42188 1.51041,-1.40625 2.63021,-2.77083 3.35937,-4.09375 0.73959,-1.32292 1.10938,-2.71875 1.10938,-4.1875 0,-2.23958 -0.76562,-3.96875 -2.29688,-5.1875 -1.53124,-1.22916 -3.75521,-1.84375 -6.67187,-1.84375 z m 15.07812,0.45313 v 13.125 h 0.6875 c 0.64584,-0.15625 1.39584,-0.3125 2.25,-0.46875 0.86459,-0.16667 1.76563,-0.25 2.70313,-0.25 0.64583,0 1.36458,0.0573 2.15625,0.17187 0.79166,0.10417 1.46875,0.32813 2.03125,0.67188 0.38541,0.23959 0.69791,0.55729 0.9375,0.95312 0.25,0.38542 0.375,0.84896 0.375,1.39063 0,0.69792 -0.0937,1.21354 -0.28125,1.54687 -0.17709,0.33334 -0.44271,0.66147 -0.79688,0.98438 -0.44791,0.39583 -1.05729,0.67187 -1.82812,0.82812 -0.76042,0.14584 -1.46876,0.21875 -2.125,0.21875 -1.08334,0 -2.17187,-0.1875 -3.26563,-0.5625 -1.09374,-0.375 -2.11458,-0.84375 -3.0625,-1.40625 h -0.65625 v 5.14063 c 0.8125,0.35417 1.85937,0.67187 3.14063,0.95312 1.29166,0.29168 2.86979,0.44273 4.73437,0.45313 1.59376,0 3.01042,-0.1875 4.25,-0.5625 1.25,-0.38541 2.35417,-0.97396 3.3125,-1.76563 0.86459,-0.73958 1.52084,-1.625 1.96875,-2.65625 0.45834,-1.04166 0.6875,-2.16666 0.6875,-3.375 0,-1.42708 -0.26563,-2.60937 -0.79687,-3.54687 -0.53126,-0.94791 -1.27084,-1.70833 -2.21875,-2.28125 -0.72917,-0.4375 -1.59896,-0.77605 -2.60938,-1.01563 -1,-0.25 -2.14063,-0.375 -3.42187,-0.375 -0.375,0 -0.8125,0.0104 -1.3125,0.0312 -0.48959,0.0105 -0.89584,0.0261 -1.21875,0.0469 v -3.79688 h 10.90625 v -4.45312 z m 28.71875,2.9375 c 0.86459,0 1.58334,0.30729 2.15625,0.92187 0.58334,0.60417 0.875,1.33334 0.875,2.1875 0,0.85417 -0.29166,1.58334 -0.875,2.1875 -0.57291,0.60417 -1.29166,0.90625 -2.15625,0.90625 -0.84374,0 -1.56249,-0.29166 -2.15625,-0.875 -0.58333,-0.59375 -0.875,-1.33333 -0.875,-2.21875 0,-0.86458 0.29167,-1.59895 0.875,-2.20312 0.58334,-0.60417 1.30209,-0.90625 2.15625,-0.90625 z M 362.31055,283.375 c -0.62037,3.18874 -1.3113,6.36334 -2.07227,9.52148 l 49.6836,8.75977 1.6914,-9.58789 z M 316.2832,387.36914 c -1.94114,2.60317 -3.93968,5.16302 -5.99414,7.67774 l 38.3125,32.14843 6.25782,-7.45703 z m 98.86719,12.00781 c -1.84375,0 -3.40625,0.63021 -4.6875,1.89063 -1.27083,1.26042 -1.90625,2.80729 -1.90625,4.64062 0,1.83334 0.63542,3.38021 1.90625,4.64063 1.28125,1.26042 2.84375,1.89062 4.6875,1.89062 1.84375,0 3.40104,-0.6302 4.67188,-1.89062 1.28124,-1.26042 1.92187,-2.80729 1.92187,-4.64063 0,-1.83333 -0.63542,-3.3802 -1.90625,-4.64062 -1.27083,-1.26042 -2.83333,-1.89063 -4.6875,-1.89063 z m -20.78125,0.0156 c -1.70833,0 -3.17708,0.2552 -4.40625,0.76562 -1.22917,0.51042 -2.22917,1.27604 -3,2.29688 -0.77083,1.03125 -1.33333,2.29167 -1.6875,3.78125 -0.35417,1.48958 -0.53125,3.24479 -0.53125,5.26562 0,1.95834 0.17187,3.69792 0.51563,5.21875 0.34374,1.51042 0.90104,2.77604 1.67187,3.79688 0.76042,1.02083 1.75521,1.79166 2.98438,2.3125 1.22916,0.52083 2.71354,0.78125 4.45312,0.78125 1.77083,0 3.26042,-0.25521 4.46875,-0.76563 1.20833,-0.52083 2.19792,-1.28645 2.96875,-2.29687 0.75,-0.98958 1.30208,-2.25521 1.65625,-3.79688 0.35417,-1.55208 0.53125,-3.30729 0.53125,-5.26562 0,-1.95834 -0.17188,-3.6823 -0.51562,-5.17188 -0.34376,-1.5 -0.89584,-2.76041 -1.65625,-3.78125 -0.77084,-1.04166 -1.76042,-1.82291 -2.96875,-2.34375 -1.20834,-0.53125 -2.70313,-0.79687 -4.48438,-0.79687 z m -21.92187,0.46875 -10.89063,13.5 v 4.40625 h 11.26563 v 5.42187 h 5.73437 v -5.42187 h 3.17188 v -4.25 h -3.17188 V 399.8613 Z m 42.70312,2.9375 c 0.86459,0 1.58334,0.30729 2.15625,0.92187 0.58333,0.60417 0.875,1.33334 0.875,2.1875 0,0.85417 -0.29167,1.58334 -0.875,2.1875 -0.57291,0.60417 -1.29166,0.90625 -2.15625,0.90625 -0.84375,0 -1.5625,-0.29166 -2.15625,-0.875 -0.58333,-0.59375 -0.875,-1.33333 -0.875,-2.21875 0,-0.86458 0.29167,-1.59896 0.875,-2.20312 0.58333,-0.60417 1.30208,-0.90625 2.15625,-0.90625 z m -20.78125,0.89062 c 1.28125,0 2.19792,0.59896 2.75,1.79688 0.55209,1.1875 0.82813,3.1875 0.82813,6 0,2.78125 -0.28125,4.78125 -0.84375,6 -0.5625,1.21875 -1.47396,1.82812 -2.73438,1.82812 -1.26041,0 -2.17187,-0.60937 -2.73437,-1.82812 -0.5625,-1.21875 -0.84375,-3.20833 -0.84375,-5.96875 0,-2.83334 0.27604,-4.84375 0.82812,-6.03125 0.55209,-1.19792 1.46875,-1.79688 2.75,-1.79688 z m -21.54687,1.42188 v 8.40625 h -6.76563 z" />
  </g>
  <rect
     style="fill:#fbfbfb;stroke-width:0.79981"
     id="rect1"
     width="20"
     height="10"
     x="5"
     y="245" />
  <rect
     style="fill:#fbfbfb;stroke-width:0.79981"
     id="rect2"
     width="20"
     height="10"
     x="85"
     y="245" />
  <path
     d="m 49.067788,161.00618 q 0,1.17644 -0.261433,2.05515 -0.25417,0.87144 -0.842393,1.4524 -0.559175,0.55191 -1.307162,0.80608 -0.747987,0.25417 -1.742883,0.25417 -1.016682,0 -1.771931,-0.26869 -0.755249,-0.26869 -1.270852,-0.79156 -0.588223,-0.59548 -0.849655,-1.43788 -0.254171,-0.84239 -0.254171,-2.06967 v -6.47045 h 1.437879 v 6.54307 q 0,0.8787 0.116192,1.38704 0.123454,0.50834 0.406673,0.92228 0.319528,0.47203 0.864179,0.71168 0.551913,0.23964 1.321686,0.23964 0.777035,0 1.321686,-0.23238 0.544651,-0.23965 0.871442,-0.71894 0.283218,-0.41394 0.39941,-0.94406 0.123454,-0.53739 0.123454,-1.32895 v -6.57938 h 1.437879 z m 9.818239,-3.20255 q 0,0.71894 -0.25417,1.33621 -0.246908,0.61001 -0.697153,1.06026 -0.559175,0.55917 -1.321686,0.84239 -0.762511,0.27596 -1.924433,0.27596 h -1.437878 v 4.03041 h -1.437879 v -10.81313 h 2.933853 q 0.973109,0 1.648477,0.16702 0.675367,0.15977 1.198231,0.50834 0.617271,0.41394 0.951324,1.03121 0.341314,0.61727 0.341314,1.56133 z m -1.495974,0.0363 q 0,-0.55917 -0.196074,-0.97311 -0.196075,-0.41393 -0.595485,-0.67536 -0.348577,-0.22513 -0.798821,-0.31953 -0.442983,-0.10167 -1.125612,-0.10167 h -1.423354 v 4.3209 h 1.212755 q 0.871442,0 1.416093,-0.15251 0.544651,-0.15976 0.885965,-0.50108 0.341315,-0.34857 0.479293,-0.73346 0.14524,-0.38489 0.14524,-0.86418 z"
     id="text2"
     style="font-size:14.8726px;font-family:Sans;-inkscape-font-specification:'Sans, Normal';fill:#fbfbfb;stroke-width:0.802166"
     transform="scale(1.1038266,0.90593939)"
     aria-label="UP" />
  <path
     d="m 42.385869,356.337 q 0,1.31373 -0.575971,2.38154 -0.569499,1.06781 -1.520822,1.65673 -0.660101,0.40771 -1.47552,0.58891 -0.808948,0.18121 -2.135623,0.18121 h -2.433314 v -9.63619 h 2.407428 q 1.410805,0 2.239168,0.20709 0.834834,0.20062 1.410805,0.55656 0.98368,0.6148 1.533765,1.63731 0.550084,1.02251 0.550084,2.42684 z m -1.339618,-0.0194 q 0,-1.13253 -0.394766,-1.90912 -0.394767,-0.77659 -1.177828,-1.22313 -0.569499,-0.32358 -1.210186,-0.44654 -0.640687,-0.12943 -1.533765,-0.12943 h -1.203714 v 7.43585 h 1.203714 q 0.925436,0 1.611424,-0.13591 0.692459,-0.1359 1.26843,-0.50478 0.718346,-0.45948 1.074283,-1.21019 0.362408,-0.7507 0.362408,-1.87675 z m 10.59398,-3.70175 q 0.588914,0.64716 0.89955,1.58554 0.317108,0.93838 0.317108,2.12915 0,1.19077 -0.32358,2.13562 -0.317107,0.93838 -0.893078,1.56612 -0.595385,0.65363 -1.410805,0.98368 -0.808948,0.33005 -1.850872,0.33005 -1.016039,0 -1.850873,-0.33652 -0.828362,-0.33652 -1.410805,-0.97721 -0.582442,-0.64068 -0.89955,-1.57259 -0.310636,-0.93191 -0.310636,-2.12915 0,-1.17783 0.310636,-2.10974 0.310636,-0.93838 0.906022,-1.60495 0.569499,-0.63421 1.410805,-0.97074 0.847777,-0.33652 1.844401,-0.33652 1.035453,0 1.857344,0.34299 0.828362,0.33653 1.404333,0.96427 z m -0.116488,3.71469 q 0,-1.87676 -0.841306,-2.8928 -0.841306,-1.02251 -2.297412,-1.02251 -1.469049,0 -2.310355,1.02251 -0.834834,1.01604 -0.834834,2.8928 0,1.89617 0.854249,2.90574 0.854249,1.00309 2.29094,1.00309 1.436692,0 2.284469,-1.00309 0.854249,-1.00957 0.854249,-2.90574 z m 14.580476,-4.82133 -2.504503,9.63619 h -1.443162 l -2.025606,-7.99888 -1.980304,7.99888 h -1.410805 l -2.549803,-9.63619 h 1.313731 l 2.025605,8.01182 1.993248,-8.01182 h 1.300788 l 2.012662,8.08948 2.012662,-8.08948 z m 9.241419,9.63619 H 73.7601 l -4.568937,-8.62015 v 8.62015 H 67.99392 v -9.63619 h 1.986776 l 4.167699,7.86944 v -7.86944 h 1.197243 z"
     id="text3"
     style="font-size:13.2538px;font-family:Sans;-inkscape-font-specification:'Sans, Normal';fill:#fbfbfb;stroke-width:0.714848"
     transform="scale(1.0037389,0.99627504)"
     aria-label="DOWN" />
</svg>
