<?xml version="1.0" encoding="UTF-8" standalone="no"?>
<svg xmlns="http://www.w3.org/2000/svg" xmlns:svg="http://www.w3.org/2000/svg" width="500" height="500" viewBox="0 0 500 500" preserveAspectRatio="xMinYMin" version="1.1">
  <rect x="132" y="235" width="236" height="30" style="fill:#1c1c1c" />
  <path style="fill:#ffffff;" d="m 138.5,240 v 6.30078 a 4,4 0 0 0 -1.81445,1.46875 A 4,4 0 0 0 136,250 a 4,4 0 0 0 0.68555,2.23047 4,4 0 0 0 1.81445,1.46875 V 260 h 3 v -6.30078 a 4,4 0 0 0 1.8125,-1.46875 A 4,4 0 0 0 144,250 4,4 0 0 0 143.31445,247.76367 4,4 0 0 0 141.5,246.29297 V 240 Z m 22,0 v 6.30078 a 4,4 0 0 0 -1.81445,1.46875 A 4,4 0 0 0 158,250 a 4,4 0 0 0 0.68555,2.23047 4,4 0 0 0 1.81445,1.46875 V 260 h 3 v -6.30078 a 4,4 0 0 0 1.8125,-1.46875 A 4,4 0 0 0 166,250 4,4 0 0 0 165.31445,247.76367 4,4 0 0 0 163.5,246.29297 V 240 Z m 22,0 v 6.30078 a 4,4 0 0 0 -1.81445,1.46875 A 4,4 0 0 0 180,250 a 4,4 0 0 0 0.68555,2.23047 4,4 0 0 0 1.81445,1.46875 V 260 h 3 v -6.30078 a 4,4 0 0 0 1.8125,-1.46875 A 4,4 0 0 0 188,250 4,4 0 0 0 187.31445,247.76367 4,4 0 0 0 185.5,246.29297 V 240 Z m 22,0 v 6.30078 a 4,4 0 0 0 -1.81445,1.46875 A 4,4 0 0 0 202,250 a 4,4 0 0 0 0.68555,2.23047 4,4 0 0 0 1.81445,1.46875 V 260 h 3 v -6.30078 a 4,4 0 0 0 1.8125,-1.46875 A 4,4 0 0 0 210,250 4,4 0 0 0 209.31445,247.76367 4,4 0 0 0 207.5,246.29297 V 240 Z m 22,0 v 6.30078 a 4,4 0 0 0 -1.81445,1.46875 A 4,4 0 0 0 224,250 a 4,4 0 0 0 0.68555,2.23047 4,4 0 0 0 1.81445,1.46875 V 260 h 3 v -6.30078 a 4,4 0 0 0 1.8125,-1.46875 A 4,4 0 0 0 232,250 4,4 0 0 0 231.31445,247.76367 4,4 0 0 0 229.5,246.29297 V 240 Z m 44,0 v 6.30078 a 4,4 0 0 0 -1.81445,1.46875 A 4,4 0 0 0 268,250 a 4,4 0 0 0 0.68555,2.23047 4,4 0 0 0 1.81445,1.46875 V 260 h 3 v -6.30078 a 4,4 0 0 0 1.8125,-1.46875 A 4,4 0 0 0 276,250 4,4 0 0 0 275.31445,247.76367 4,4 0 0 0 273.5,246.29297 V 240 Z m 22,0 v 6.30078 a 4,4 0 0 0 -1.81445,1.46875 A 4,4 0 0 0 290,250 a 4,4 0 0 0 0.68555,2.23047 4,4 0 0 0 1.81445,1.46875 V 260 h 3 v -6.30078 a 4,4 0 0 0 1.8125,-1.46875 A 4,4 0 0 0 298,250 4,4 0 0 0 297.31445,247.76367 4,4 0 0 0 295.5,246.29297 V 240 Z m 22,0 v 6.30078 a 4,4 0 0 0 -1.81445,1.46875 A 4,4 0 0 0 312,250 a 4,4 0 0 0 0.68555,2.23047 4,4 0 0 0 1.81445,1.46875 V 260 h 3 v -6.30078 a 4,4 0 0 0 1.8125,-1.46875 A 4,4 0 0 0 320,250 4,4 0 0 0 319.31445,247.76367 4,4 0 0 0 317.5,246.29297 V 240 Z m 22,0 v 6.30078 a 4,4 0 0 0 -1.81445,1.46875 A 4,4 0 0 0 334,250 a 4,4 0 0 0 0.68555,2.23047 4,4 0 0 0 1.81445,1.46875 V 260 h 3 v -6.30078 a 4,4 0 0 0 1.8125,-1.46875 A 4,4 0 0 0 342,250 4,4 0 0 0 341.31445,247.76367 4,4 0 0 0 339.5,246.29297 V 240 Z m 22,0 v 6.30078 a 4,4 0 0 0 -1.81445,1.46875 A 4,4 0 0 0 356,250 a 4,4 0 0 0 0.68555,2.23047 4,4 0 0 0 1.81445,1.46875 V 260 h 3 v -6.30078 a 4,4 0 0 0 1.8125,-1.46875 A 4,4 0 0 0 364,250 4,4 0 0 0 363.31445,247.76367 4,4 0 0 0 361.5,246.29297 V 240 Z" />
</svg>
