<?xml version="1.0" encoding="UTF-8" standalone="no"?>
<svg xmlns="http://www.w3.org/2000/svg" xmlns:svg="http://www.w3.org/2000/svg" width="500" height="500" viewBox="0 0 500 500" preserveAspectRatio="xMinYMin" version="1.1" id="svg96" xml:space="preserve">
  <defs id="defs96"/>
  <g id="compass" style="display:inline">
    <path id="path191" style="fill:#000000;" d="M 250,50 A 200,200 0 0 0 50,250 200,200 0 0 0 250,450 200,200 0 0 0 450,250 200,200 0 0 0 250,50 Z m 0,50 A 150,150 0 0 1 400,250 150,150 0 0 1 250,400 150,150 0 0 1 100,250 150,150 0 0 1 250,100 Z"/>
    <path id="text188" style="fill:#ffffff;" d="m 108.17085,180.63425 c 0.31629,0.10605 0.59589,0.19866 0.83893,0.27771 0.23304,0.058 0.441,0.10159 0.62401,0.13067 0.183,0.0291 0.36433,0.042 0.54398,0.0386 0.1629,-0.0129 0.33257,-0.0376 0.5088,-0.0736 0.97429,-0.18749 1.70002,-0.69449 2.17721,-1.52101 0.4971,-0.86099 0.59667,-1.70655 0.29875,-2.5367 -0.2913,-0.84162 -0.93654,-1.55092 -1.93582,-2.12781 -0.58288,-0.33655 -1.14887,-0.54852 -1.69798,-0.63595 -0.54242,-0.0989 -1.03638,-0.0703 -1.4818,0.0858 -0.30249,0.10086 -0.60975,0.30609 -0.92175,0.61578 -0.32868,0.30003 -0.60237,0.63946 -0.82108,1.01828 -0.21872,0.37882 -0.39893,0.71098 -0.54164,0.99594 -0.14244,0.28512 -0.27488,0.59131 -0.39717,0.91865 l -3.0977,-1.78846 c 0.20903,-0.24665 0.38819,-0.47994 0.53735,-0.69996 0.15589,-0.23142 0.33984,-0.53083 0.55192,-0.89816 0.4971,-0.86098 0.61835,-1.68636 0.36375,-2.4762 -0.27121,-0.79945 -0.88982,-1.47801 -1.85575,-2.0357 -0.86603,-0.5 -1.64486,-0.68945 -2.336537,-0.56841 -0.69166,0.12107 -1.24957,0.54899 -1.67375,1.28364 -0.4772,0.82652 -0.58026,1.6012 -0.3092,2.32402 0.13373,0.30683 0.30404,0.58881 0.51082,0.84597 0.20681,0.25719 0.53855,0.58646 0.99518,0.98785 l -2.02119,2.11617 c -0.40668,-0.37253 -0.75506,-0.7114 -1.04514,-1.01665 -0.28345,-0.31674 -0.52198,-0.61516 -0.71555,-0.89527 -0.21024,-0.28973 -0.38052,-0.57168 -0.51083,-0.84598 -0.14036,-0.2953 -0.25912,-0.6088 -0.35639,-0.94042 -0.41228,-1.40131 -0.22074,-2.79071 0.57457,-4.16822 0.41754,-0.72323 0.91692,-1.29969 1.49812,-1.72944 0.58781,-0.44121 1.2342,-0.73381 1.93912,-0.87789 0.70492,-0.14402 1.45342,-0.13279 2.245517,0.0337 0.78208,0.14543 1.58114,0.4537 2.39722,0.92487 0.74942,0.43268 1.38594,0.94556 1.90955,1.53869 0.53021,0.58163 0.88914,1.1715 1.07676,1.76961 0.10379,0.32017 0.15613,0.63348 0.15679,0.93999 -0.016,0.2969 -0.0649,0.72783 -0.14682,1.2928 0.4845,-0.53154 0.95769,-0.90883 1.4196,-1.13196 0.46189,-0.22313 1.0205,-0.34446 1.6758,-0.36407 0.63201,-0.0177 1.25926,0.0689 1.88175,0.25989 0.6125,0.16995 1.29343,0.47126 2.04289,0.90397 0.68282,0.39422 1.29596,0.87065 1.83945,1.42934 0.52679,0.54907 0.93062,1.11891 1.21137,1.70958 0.79222,1.7431 0.65154,3.54451 -0.42212,5.40419 -0.58328,1.01016 -1.27187,1.76057 -2.06584,2.25115 -0.78734,0.47906 -1.73151,0.72989 -2.83259,0.75235 -0.22616,0.007 -0.45737,0.004 -0.6936,-0.0102 -0.2296,-0.0254 -0.4758,-0.0604 -0.73875,-0.10507 -0.25631,-0.0562 -0.5375,-0.12668 -0.84376,-0.21162 -0.30622,-0.085 -0.66576,-0.19309 -1.07851,-0.32428 z m 14.59906,-11.84403 c -0.855,1.48086 -2.22539,2.29677 -4.11124,2.44776 -1.07098,0.0858 -2.13071,-0.021 -3.17928,-0.32025 -2.02384,-0.57154 -4.06832,-1.45348 -6.13345,-2.64577 -0.66619,-0.38461 -1.31076,-0.78737 -1.93378,-1.20827 -0.63303,-0.44203 -1.22282,-0.88203 -1.76934,-1.32003 -0.5632,-0.4476 -1.06649,-0.88357 -1.50988,-1.30794 -0.44336,-0.42433 -0.81016,-0.82744 -1.10044,-1.20931 -0.86077,-1.12448 -1.36722,-2.22809 -1.51933,-3.31083 -0.16872,-1.09231 0.0252,-2.12061 0.58198,-3.08487 0.86161,-1.49233 2.23533,-2.31403 4.12114,-2.46502 1.07101,-0.0858 2.13076,0.021 3.17926,0.32028 1.01528,0.27999 2.044,0.65203 3.08627,1.11601 1.03223,0.44287 2.0646,0.96242 3.09718,1.55858 1.54886,0.89421 2.8982,1.82632 4.04803,2.7963 1.15645,0.95849 2.02672,1.87419 2.61079,2.74714 1.4019,2.11038 1.57923,4.07244 0.53203,5.88622 z m -2.8879,-1.69031 c 0.2187,-0.37881 0.32925,-0.78183 0.33162,-1.20902 0.003,-0.4272 -0.0997,-0.84602 -0.30716,-1.25642 -0.35753,-0.72686 -1.03461,-1.51572 -2.03113,-2.36657 -0.99655,-0.85086 -2.22764,-1.69934 -3.69323,-2.54549 -1.46554,-0.84621 -2.79926,-1.47843 -4.00109,-1.89683 -1.21848,-0.42797 -2.2485,-0.62469 -3.09003,-0.59016 -0.45238,0.0143 -0.86629,0.13506 -1.2417,0.36221 -0.36895,0.21532 -0.66582,0.51863 -0.89117,0.90892 -0.46391,0.80359 -0.41039,1.69161 0.1606,2.66415 0.8613,1.50781 2.66641,3.05472 5.41435,4.64128 1.31572,0.75956 2.53293,1.36285 3.65166,1.80975 1.12535,0.43547 2.059,0.68371 2.80098,0.7447 1.3874,0.097 2.35281,-0.32521 2.8963,-1.26652 z m 285.12339,164.28667 -0.67171,-0.47962 c -0.21356,-0.13866 -0.4441,-0.287 -0.69155,-0.44523 -0.24744,-0.1582 -0.52033,-0.33101 -0.8186,-0.51856 -0.30491,-0.17604 -0.6437,-0.37163 -1.01637,-0.58679 l -13.6701,-7.89245 c -0.7453,-0.4303 -1.36711,-0.78121 -1.86479,-1.05365 -0.48756,-0.2509 -0.98506,-0.48455 -1.4925,-0.70097 l 1.51116,-2.61743 c 0.4478,0.31974 0.90221,0.62805 1.36325,0.92484 0.478,0.30657 1.08964,0.67506 1.83495,1.10537 l 13.67009,7.89243 c 0.38961,0.22494 0.73191,0.41447 1.02633,0.56957 0.30491,0.17606 0.57942,0.32645 0.82298,0.45229 0.26076,0.13518 0.50787,0.25487 0.74132,0.35905 0.24375,0.12549 0.49933,0.25007 0.76673,0.37374 z m -22.74094,-7.32064 c 0.19221,-0.33296 0.3513,-0.60846 0.4772,-0.82656 0.12596,-0.21812 0.22664,-0.41255 0.30271,-0.58291 0.0693,-0.15902 0.13186,-0.30656 0.18778,-0.44263 0.056,-0.13602 0.11858,-0.2836 0.18776,-0.44264 0.69524,0.47796 1.27194,0.88737 1.73004,1.22841 0.4515,0.35247 0.87277,0.71821 1.26385,1.09705 1.56433,1.51543 2.77039,3.26024 3.61815,5.23443 0.1171,0.26661 0.21732,0.5234 0.3005,0.77043 0.0936,0.26833 0.19076,0.56938 0.29166,0.90313 0.11787,0.34357 0.24641,0.74687 0.38561,1.20988 0.13259,0.47453 0.2847,1.05218 0.4563,1.73287 0.18119,0.62508 0.34802,1.15764 0.50051,1.5977 0.16277,0.46132 0.34507,0.84976 0.54689,1.16526 0.19556,0.32672 0.40838,0.60312 0.63964,0.82849 0.2482,0.2351 0.53322,0.44562 0.85508,0.63143 0.8639,0.49876 1.6641,0.67762 2.40058,0.53647 0.7534,-0.13137 1.34222,-0.56438 1.76638,-1.29911 0.58988,-1.02171 0.51106,-2.03921 -0.2365,-3.05246 -0.21874,-0.32526 -0.47429,-0.62589 -0.76671,-0.90185 -0.28209,-0.25467 -0.70301,-0.58187 -1.26273,-0.98159 l 1.85362,-2.21303 c 0.89928,0.67224 1.59565,1.26562 2.08913,1.78013 0.50377,0.53576 0.93387,1.12083 1.29034,1.75523 0.99729,1.75435 0.99216,3.50404 -0.0153,5.24896 -0.43745,0.75769 -0.96401,1.35676 -1.57968,1.79721 -0.59874,0.4503 -1.26637,0.74592 -2.00283,0.88708 -0.71954,0.15092 -1.48954,0.13497 -2.30998,-0.0479 -0.82709,-0.17138 -1.67258,-0.50647 -2.53649,-1.00523 -0.84698,-0.48899 -1.53596,-1.01689 -2.06697,-1.5837 -0.5141,-0.55702 -0.94498,-1.21906 -1.2926,-1.98613 -0.0965,-0.22412 -0.1826,-0.42688 -0.25854,-0.60841 -0.0758,-0.18151 -0.15913,-0.42861 -0.24969,-0.74113 -0.0972,-0.30097 -0.21913,-0.71581 -0.36571,-1.24431 -0.15321,-0.51705 -0.3469,-1.21819 -0.58114,-2.10346 -0.1709,-0.60377 -0.38931,-1.24262 -0.65517,-1.91654 -0.25557,-0.65267 -0.48984,-1.18588 -0.70266,-1.59961 -0.25412,-0.49875 -0.50236,-0.90991 -0.74462,-1.23352 -0.23204,-0.3023 -0.55721,-0.65841 -0.97554,-1.06831 l -2.78368,4.82155 c -0.31814,0.55104 -0.57954,1.04301 -0.78427,1.4758 -0.21141,0.44434 -0.36603,0.82958 -0.46395,1.1557 l -3.35403,-1.93645 c 0.28282,-0.37244 0.55381,-0.74408 0.81305,-1.11482 0.24224,-0.38057 0.52248,-0.84637 0.84061,-1.39737 z m 17.12993,13.91904 1.50001,-2.59812 23.0607,13.3141 -1.50001,2.5981 z m -54.79231,60.48073 c -0.1133,-0.24923 -0.2266,-0.49847 -0.33981,-0.74776 -0.11501,-0.2258 -0.23983,-0.4684 -0.3743,-0.72792 -0.13446,-0.25949 -0.28362,-0.54424 -0.44727,-0.85429 l -0.58395,-1.01143 -7.85401,-13.60355 c -0.42824,-0.74171 -0.78952,-1.3535 -1.08292,-1.83589 -0.29546,-0.45875 -0.60816,-0.90755 -0.93805,-1.34641 l 2.61734,-1.5111 c 0.2266,0.49847 0.46464,0.99037 0.71421,1.47563 0.25927,0.50208 0.60299,1.12402 1.03121,1.86572 l 7.85402,13.60354 c 0.22387,0.38771 0.42455,0.72134 0.60118,1.00148 0.17521,0.30341 0.33697,0.56964 0.48439,0.79919 0.1575,0.24619 0.31099,0.47224 0.46046,0.67813 0.14776,0.22934 0.30604,0.46387 0.47506,0.70343 z M 331.406,386.22702 c -0.29448,-0.32446 -0.53452,-0.56795 -0.72019,-0.73048 -0.18561,-0.16248 -0.40005,-0.30845 -0.64311,-0.4378 -0.97845,-0.58143 -1.93261,-0.60367 -2.8625,-0.0668 -0.86096,0.49709 -1.32501,1.27071 -1.39217,2.32089 -0.0786,1.05681 0.24704,2.21733 0.97694,3.4816 0.72019,1.24743 1.53633,2.09107 2.44845,2.5309 0.91037,0.46338 1.77882,0.45641 2.60535,-0.0208 0.87244,-0.5037 1.36034,-1.30234 1.46364,-2.3959 0.0192,-0.25833 0.0195,-0.48323 7.7e-4,-0.67471 -0.009,-0.17461 -0.056,-0.42845 -0.14113,-0.76137 l 2.3276,-0.93929 c 0.21687,0.48163 0.38678,0.85553 0.50983,1.12165 0.13276,0.28295 0.24205,0.51204 0.32785,0.68726 0.0744,0.18185 0.14558,0.33174 0.21371,0.44975 0.0662,0.14153 0.14727,0.30828 0.2429,0.50032 l 3.22439,6.49945 c 0.12474,0.24265 0.30309,0.57795 0.53487,1.00602 0.2318,0.42809 0.52694,0.96568 0.88525,1.61289 -0.13602,0.056 -0.26629,0.10882 -0.3908,0.1582 -0.12627,0.0729 -0.2633,0.14047 -0.41065,0.20337 -0.1377,0.0795 -0.29271,0.16903 -0.46494,0.26843 l -0.60267,0.34796 -4.23594,2.44564 c -0.29847,0.17231 -0.55103,0.31811 -0.75765,0.43741 -0.2084,0.14284 -0.3987,0.26391 -0.57086,0.36331 -0.17396,0.12295 -0.33642,0.23915 -0.48739,0.34883 -0.14127,0.12648 -0.29488,0.2714 -0.46082,0.43464 l -1.83942,-3.18599 c 0.4275,-0.13447 0.8298,-0.29925 1.20686,-0.49447 0.37534,-0.17178 0.80408,-0.3968 1.28623,-0.67517 l 4.04654,-2.33627 -2.27921,-4.58401 c -0.0938,-0.21547 -0.26374,-0.58941 -0.50983,-1.12161 -0.11333,0.78465 -0.33717,1.43084 -0.67159,1.93857 -0.3247,0.52458 -0.78547,0.95921 -1.38241,1.30384 -1.41199,0.8152 -2.8962,0.82927 -4.45266,0.0422 -0.77511,-0.36159 -1.48408,-0.8738 -2.12694,-1.53654 -0.64283,-0.66273 -1.25623,-1.49982 -1.84016,-2.51124 -0.64235,-1.11256 -1.10087,-2.18514 -1.37562,-3.21775 -0.27476,-1.03261 -0.36831,-1.98999 -0.28071,-2.87216 0.0973,-0.86534 0.37013,-1.65216 0.81832,-2.36044 0.43675,-0.70166 1.05688,-1.28446 1.86045,-1.7484 1.68748,-0.97425 3.41954,-0.99658 5.19607,-0.0669 0.22197,0.11892 0.42743,0.23639 0.61634,0.35238 0.19888,0.13238 0.40263,0.27323 0.61126,0.42254 0.20684,0.17266 0.4235,0.36233 0.64981,0.56879 0.23613,0.22339 0.50224,0.48548 0.79844,0.78644 z m 19.89307,36.22805 -2.5981,1.50001 -12.49996,-21.65065 2.59807,-1.5 z M 326.73143,111.03595 c -0.10604,0.31626 -0.19863,0.5959 -0.27769,0.83892 -0.058,0.23307 -0.10157,0.44102 -0.13068,0.62403 -0.0291,0.18301 -0.042,0.36434 -0.0386,0.54398 0.0129,0.16301 0.0376,0.33261 0.0736,0.50879 0.18753,0.97433 0.69456,1.70003 1.52106,2.17722 0.86094,0.49709 1.70653,0.59664 2.53667,0.29875 0.84163,-0.29131 1.55092,-0.93653 2.12782,-1.93583 0.33655,-0.58289 0.54852,-1.14889 0.63597,-1.69796 0.0989,-0.54245 0.0703,-1.0364 -0.0858,-1.4818 -0.10085,-0.30248 -0.30609,-0.60975 -0.61577,-0.92174 -0.30004,-0.32868 -0.63948,-0.60239 -1.01831,-0.82107 -0.37883,-0.21873 -0.711,-0.39894 -0.99597,-0.54164 -0.28512,-0.14233 -0.59135,-0.27479 -0.91865,-0.39714 l 1.78846,-3.0977 c 0.24666,0.20903 0.47996,0.38818 0.69996,0.53737 0.23146,0.15581 0.53085,0.33974 0.8982,0.55183 0.86095,0.4971 1.68633,0.61836 2.47618,0.3638 0.79944,-0.27124 1.47802,-0.88982 2.0357,-1.85576 0.49999,-0.86604 0.68947,-1.64491 0.56839,-2.33657 -0.12104,-0.69163 -0.54892,-1.24956 -1.28363,-1.67372 -0.82654,-0.47722 -1.60119,-0.58028 -2.32399,-0.30922 -0.30683,0.13373 -0.58882,0.30405 -0.84599,0.51083 -0.25717,0.20679 -0.58645,0.53854 -0.98781,0.99517 l -2.11623,-2.021168 c 0.37256,-0.406703 0.71143,-0.755087 1.01671,-1.045178 0.31671,-0.283431 0.61511,-0.521941 0.89522,-0.715503 0.28975,-0.210241 0.57172,-0.38054 0.84598,-0.510826 0.29533,-0.140371 0.60883,-0.259133 0.94045,-0.356325 1.40129,-0.412288 2.7907,-0.22079 4.16827,0.574529 0.7232,0.417562 1.29969,0.91693 1.72941,1.498126 0.44123,0.587838 0.73383,1.234225 0.87788,1.939105 0.14403,0.70491 0.1328,1.45343 -0.0337,2.24552 -0.1454,0.78207 -0.45372,1.58114 -0.92486,2.3972 -0.43268,0.74946 -0.9456,1.38599 -1.5387,1.90953 -0.58164,0.53028 -1.1715,0.88918 -1.76963,1.07678 -0.32012,0.10388 -0.63347,0.15606 -0.93997,0.15674 -0.29691,-0.016 -0.72788,-0.065 -1.29279,-0.14679 0.53149,0.48446 0.90879,0.95769 1.13193,1.41958 0.22313,0.46188 0.34445,1.0205 0.36409,1.67578 0.0177,0.63205 -0.0689,1.25927 -0.25995,1.88178 -0.16993,0.6125 -0.47124,1.29343 -0.90392,2.04288 -0.39424,0.68282 -0.8707,1.29601 -1.42936,1.83945 -0.54906,0.52682 -1.11891,0.93059 -1.70957,1.21135 -1.74314,0.79229 -3.54452,0.65158 -5.40422,-0.42213 -1.0102,-0.58321 -1.76056,-1.27184 -2.25115,-2.06578 -0.47916,-0.78733 -0.72987,-1.73158 -0.75233,-2.8326 -0.007,-0.2262 -0.004,-0.45741 0.0101,-0.69363 0.0254,-0.22958 0.0604,-0.47582 0.10507,-0.73874 0.0562,-0.25633 0.12668,-0.5375 0.21164,-0.84373 0.085,-0.30624 0.19305,-0.66575 0.32422,-1.07854 z m 12.06763,-11.840407 -2.59809,-1.499984 12.50002,-21.650648 2.5981,1.500038 z m -176.6536,19.782267 c 0.22087,0.24995 0.41675,0.46994 0.58768,0.65994 0.17283,0.16675 0.33111,0.30847 0.47507,0.42523 0.14393,0.1167 0.29454,0.21855 0.45184,0.30532 0.14764,0.0703 0.30683,0.13374 0.47745,0.19067 0.93747,0.32476 1.81949,0.24853 2.64602,-0.22864 0.86095,-0.4971 1.36997,-1.17956 1.52705,-2.04749 0.16858,-0.87448 -0.0356,-1.81139 -0.61254,-2.81063 -0.33652,-0.5829 -0.7207,-1.04949 -1.1525,-1.3997 -0.42035,-0.35689 -0.86243,-0.57911 -1.32622,-0.66663 -0.31238,-0.0639 -0.68107,-0.0397 -1.10612,0.0724 -0.43464,0.0955 -0.84138,0.25263 -1.22021,0.47134 -0.37883,0.21872 -0.701,0.41626 -0.9671,0.59159 -0.26592,0.1757 -0.53365,0.37473 -0.8033,0.59705 l -1.78843,-3.09771 c 0.30437,-0.1091 0.57611,-0.22165 0.81533,-0.33749 0.2507,-0.12255 0.5597,-0.28988 0.92705,-0.50197 0.86095,-0.49707 1.37864,-1.15127 1.5531,-1.96257 0.16482,-0.82794 -0.0316,-1.72491 -0.58929,-2.69086 -0.50001,-0.86601 -1.07979,-1.41952 -1.73931,-1.6605 -0.65952,-0.24099 -1.35664,-0.14939 -2.09133,0.27479 -0.8265,0.47721 -1.30312,1.09655 -1.42979,1.85805 -0.0376,0.33258 -0.0311,0.66193 0.0194,0.98804 0.0505,0.32613 0.17318,0.77717 0.36797,1.35307 l -2.80853,0.8221 c -0.16592,-0.52597 -0.29816,-0.99364 -0.39681,-1.40304 -0.0871,-0.41602 -0.14442,-0.79371 -0.17202,-1.13309 -0.0372,-0.35603 -0.0437,-0.68536 -0.0194,-0.98803 0.0261,-0.32594 0.0799,-0.65683 0.16162,-0.99263 0.34357,-1.41972 1.20413,-2.52722 2.58169,-3.32254 0.72319,-0.41753 1.44391,-0.66712 2.16212,-0.74866 0.72969,-0.0882 1.43578,-0.0184 2.11825,0.20929 0.68251,0.22771 1.32513,0.61168 1.92784,1.15195 0.60458,0.51697 1.14246,1.18351 1.61361,1.99957 0.43271,0.74943 0.72747,1.51186 0.88441,2.28729 0.16832,0.76883 0.18422,1.45912 0.0477,2.07092 -0.0702,0.32916 -0.18157,0.62665 -0.33422,0.89244 -0.16232,0.24915 -0.42012,0.59787 -0.77355,1.04614 0.68532,-0.218 1.28377,-0.30815 1.79538,-0.27042 0.51156,0.0377 1.05603,0.21194 1.63332,0.52259 0.55623,0.30058 1.05616,0.68922 1.4997,1.16595 0.44545,0.4534 0.88451,1.05481 1.31719,1.80428 0.39425,0.68282 0.68703,1.40199 0.87835,2.15758 0.18171,0.73889 0.24644,1.4343 0.19429,2.08619 -0.18544,1.90572 -1.20797,3.39543 -3.06766,4.46914 -1.01022,0.58322 -1.98175,0.88879 -2.91463,0.91664 -0.92139,0.0213 -1.8645,-0.23367 -2.82925,-0.76476 -0.19939,-0.10703 -0.39815,-0.22524 -0.59564,-0.35554 -0.18613,-0.1368 -0.38192,-0.29026 -0.58722,-0.46038 -0.19397,-0.17677 -0.4022,-0.37851 -0.6249,-0.60518 -0.2227,-0.22673 -0.48005,-0.50007 -0.77189,-0.82005 z m 12.26011,-7.07842 c 0.2209,0.25001 0.41675,0.47003 0.58765,0.66003 0.17283,0.16674 0.33118,0.30842 0.47508,0.42519 0.14393,0.1167 0.29456,0.21856 0.45185,0.30533 0.14768,0.0702 0.30683,0.13373 0.47747,0.19068 0.93745,0.32476 1.81947,0.24856 2.64599,-0.22866 0.86098,-0.49707 1.36998,-1.17957 1.52707,-2.04744 0.16855,-0.8745 -0.0356,-1.81143 -0.61254,-2.81065 -0.33655,-0.58292 -0.7207,-1.0495 -1.15249,-1.39975 -0.42034,-0.35688 -0.86242,-0.57909 -1.3262,-0.6666 -0.3124,-0.0639 -0.68112,-0.0397 -1.10614,0.0724 -0.43465,0.0955 -0.84139,0.25263 -1.22024,0.47136 -0.37881,0.21871 -0.70099,0.41626 -0.96704,0.59169 -0.26589,0.17569 -0.53366,0.37473 -0.80326,0.597 l -1.78845,-3.0977 c 0.30436,-0.1091 0.57616,-0.22157 0.81531,-0.33748 0.25069,-0.12258 0.5597,-0.28989 0.92702,-0.50196 0.86098,-0.49709 1.37868,-1.15129 1.55313,-1.96258 0.16483,-0.82797 -0.0316,-1.72492 -0.58929,-2.690848 -0.49999,-0.866001 -1.07974,-1.419532 -1.73931,-1.660523 -0.65954,-0.240966 -1.35664,-0.149387 -2.09133,0.27479 -0.82652,0.477192 -1.30309,1.096542 -1.42978,1.858042 -0.0376,0.332609 -0.0311,0.661949 0.0194,0.988069 0.0505,0.32611 0.17318,0.77712 0.36792,1.35306 l -2.80852,0.8221 c -0.1659,-0.52597 -0.29815,-0.99367 -0.39677,-1.40304 -0.0871,-0.41602 -0.14447,-0.7937 -0.17203,-1.13311 -0.0372,-0.35602 -0.0437,-0.685367 -0.0194,-0.988037 0.0261,-0.325932 0.08,-0.656841 0.16163,-0.992584 0.3436,-1.419717 1.20415,-2.52723 2.58168,-3.322548 0.72321,-0.417532 1.44394,-0.667091 2.16213,-0.748679 0.72969,-0.0882 1.43579,-0.0184 2.11829,0.209298 0.68246,0.227703 1.3251,0.611712 1.9278,1.151929 0.60461,0.516972 1.14248,1.18348 1.61363,1.999531 0.43272,0.749461 0.7275,1.51186 0.88437,2.28732 0.16839,0.76884 0.18426,1.45912 0.0477,2.07095 -0.0702,0.32917 -0.18152,0.62663 -0.33421,0.89243 -0.16229,0.2491 -0.42011,0.59786 -0.77354,1.04615 0.68534,-0.21803 1.2838,-0.30819 1.79538,-0.27046 0.51157,0.0377 1.056,0.21196 1.63333,0.52258 0.5562,0.30069 1.0561,0.6893 1.4997,1.16595 0.44543,0.45343 0.8845,1.05486 1.31718,1.80433 0.39426,0.68279 0.68703,1.40199 0.87836,2.15754 0.18172,0.73891 0.24648,1.4343 0.19427,2.08622 -0.18544,1.90573 -1.208,3.39542 -3.06766,4.46912 -1.0102,0.58322 -1.98175,0.88879 -2.9146,0.91665 -0.92143,0.0213 -1.86451,-0.23365 -2.82931,-0.76473 -0.19937,-0.10702 -0.39811,-0.22522 -0.59564,-0.35555 -0.18613,-0.13679 -0.38188,-0.29022 -0.58722,-0.46036 -0.19396,-0.17675 -0.40218,-0.37847 -0.62491,-0.60516 -0.2227,-0.22672 -0.48002,-0.50005 -0.7719,-0.82007 z m 5.55297,272.30227 0.82651,0.47722 c 0.21812,0.12589 0.4125,0.2266 0.58293,0.3026 0.15904,0.0692 0.30659,0.13174 0.44261,0.18776 0.13608,0.0559 0.28362,0.11848 0.44263,0.18774 -0.47796,0.69525 -0.88741,1.27196 -1.22846,1.73005 -0.35246,0.45147 -0.71814,0.87276 -1.09704,1.26384 -1.51536,1.56436 -3.26015,2.77041 -5.23432,3.6182 -0.26659,0.11708 -0.52339,0.2173 -0.77042,0.30053 -0.2683,0.0936 -0.56932,0.19078 -0.9031,0.29167 -0.34355,0.11786 -0.74683,0.2464 -1.20988,0.3856 -0.47449,0.13262 -1.0521,0.28475 -1.73281,0.45634 -0.62502,0.18123 -1.15757,0.34806 -1.59764,0.50049 -0.46137,0.1628 -0.84977,0.34512 -1.16527,0.54691 -0.32671,0.19555 -0.60315,0.40839 -0.82845,0.63969 -0.23511,0.2482 -0.44566,0.53321 -0.63148,0.85506 -0.49874,0.8639 -0.67758,1.6641 -0.53645,2.40059 0.13135,0.75341 0.56435,1.34218 1.29903,1.76637 1.02168,0.58985 2.03913,0.51099 3.05238,-0.23657 0.32528,-0.21875 0.62589,-0.47429 0.90185,-0.76674 0.25466,-0.2821 0.5819,-0.70296 0.98161,-1.26272 l 2.21294,1.85361 c -0.67227,0.89926 -1.26565,1.59563 -1.78014,2.08908 -0.53573,0.50376 -1.12082,0.93389 -1.75522,1.29039 -1.75431,0.99727 -3.50394,0.9922 -5.24882,-0.0152 -0.75764,-0.43742 -1.35668,-0.96396 -1.79712,-1.57963 -0.4503,-0.59872 -0.74589,-1.26633 -0.88706,-2.00281 -0.15088,-0.71952 -0.13491,-1.4895 0.0479,-2.30994 0.17142,-0.82709 0.50651,-1.67255 1.00527,-2.53646 0.48899,-0.84698 1.01689,-1.53599 1.58369,-2.067 0.55699,-0.51409 1.21905,-0.94498 1.98608,-1.29263 0.22414,-0.0965 0.42691,-0.18262 0.6084,-0.25854 0.18151,-0.0758 0.42861,-0.15913 0.74112,-0.24971 0.30096,-0.0972 0.71581,-0.21914 1.24428,-0.36572 0.51705,-0.1532 1.2182,-0.34694 2.10341,-0.58117 0.6038,-0.17089 1.2426,-0.38929 1.91654,-0.6552 0.65266,-0.25559 1.18585,-0.48982 1.59955,-0.70267 0.49875,-0.25413 0.9099,-0.50236 1.23352,-0.74463 0.30229,-0.23203 0.65842,-0.55718 1.06828,-0.9755 l -4.82139,-2.78364 c -0.55103,-0.31815 -1.04297,-0.57951 -1.47576,-0.78424 -0.4443,-0.21137 -0.82952,-0.36599 -1.15562,-0.46393 l 1.93641,-3.354 c 0.37246,0.28281 0.74404,0.55383 1.11481,0.81301 0.3805,0.24231 0.84624,0.52253 1.39726,0.84068 z m -24.62618,12.7496 0.4796,-0.67169 c 0.13867,-0.21357 0.28702,-0.44413 0.44524,-0.69157 0.15822,-0.24745 0.33102,-0.52034 0.51857,-0.81859 0.17604,-0.30491 0.37165,-0.64372 0.58683,-1.01636 l 7.89239,-13.67008 c 0.43034,-0.74538 0.78125,-1.36716 1.05368,-1.86484 0.2509,-0.48755 0.48455,-0.98504 0.70099,-1.49249 l 2.61732,1.51111 c -0.31972,0.44779 -0.62803,0.90219 -0.92482,1.36325 -0.30656,0.478 -0.67505,1.08963 -1.10537,1.83497 l -7.89247,13.6701 c -0.22489,0.38959 -0.41447,0.73189 -0.56956,1.02631 -0.17605,0.30487 -0.32646,0.57944 -0.4522,0.82302 -0.13526,0.26069 -0.25496,0.50781 -0.35905,0.74131 -0.12541,0.24382 -0.24998,0.49937 -0.37373,0.76672 z m -30.84608,-61.99538 c 0.19221,0.33289 0.35127,0.60839 0.47721,0.82653 0.12593,0.21809 0.24396,0.40251 0.35355,0.55353 0.10312,0.13945 0.19963,0.2674 0.28943,0.38393 0.0898,0.11652 0.18629,0.24446 0.28944,0.38392 -0.76155,0.36312 -1.40451,0.65783 -1.92889,0.88401 -0.53098,0.21476 -1.05834,0.39678 -1.58195,0.54599 -2.09457,0.59708 -4.20865,0.76919 -6.34222,0.51626 -0.28944,-0.0319 -0.56192,-0.0735 -0.8175,-0.12496 -0.27913,-0.0532 -0.58842,-0.11942 -0.92793,-0.19893 -0.35646,-0.0697 -0.76999,-0.16008 -1.24058,-0.27102 -0.47725,-0.12243 -1.05354,-0.27952 -1.72887,-0.47126 -0.63187,-0.15556 -1.17651,-0.27733 -1.63384,-0.36534 -0.48092,-0.0897 -0.90843,-0.12603 -1.28258,-0.109 -0.38076,0.005 -0.72651,0.0519 -1.03734,0.13968 -0.3277,0.0974 -0.65252,0.239 -0.97437,0.42481 -0.86391,0.49877 -1.41889,1.10234 -1.66491,1.81075 -0.26292,0.71813 -0.18229,1.44455 0.24185,2.17926 0.58988,1.02168 1.51046,1.46214 2.76174,1.32135 0.39108,-0.0268 0.77921,-0.0978 1.1644,-0.21309 0.36164,-0.11688 0.85538,-0.31787 1.48145,-0.60275 l 0.98969,2.71176 c -1.03184,0.4427 -1.89389,0.74905 -2.58618,0.91919 -0.71589,0.16836 -1.43764,0.24833 -2.16524,0.2399 -2.01796,-0.0136 -3.53062,-0.89278 -4.53807,-2.63771 -0.43743,-0.75767 -0.69294,-1.51322 -0.76655,-2.26665 -0.0906,-0.74364 -0.0128,-1.46965 0.23321,-2.178 0.22907,-0.6986 0.62788,-1.35742 1.19646,-1.97654 0.56196,-0.63055 1.27489,-1.19523 2.13881,-1.694 0.84699,-0.48901 1.64866,-0.82174 2.40502,-0.99824 0.73941,-0.16671 1.52819,-0.20883 2.36632,-0.12637 0.24234,0.0285 0.46103,0.0552 0.65618,0.0803 0.19512,0.025 0.45071,0.0765 0.76666,0.15434 0.30925,0.0663 0.72946,0.16813 1.26048,0.30542 0.52438,0.12585 1.22844,0.30864 2.11219,0.54839 0.60832,0.15391 1.27079,0.28419 1.98739,0.39089 0.693,0.10499 1.27184,0.16873 1.73656,0.19127 0.55899,0.0293 1.03919,0.02 1.44057,-0.0281 0.37783,-0.0497 0.84882,-0.15328 1.41294,-0.31066 l -2.78365,-4.82144 c -0.31816,-0.55105 -0.61338,-1.02344 -0.88596,-1.41712 -0.27909,-0.40519 -0.53539,-0.73171 -0.76879,-0.97959 l 3.35399,-1.93642 c 0.18112,0.43111 0.36742,0.85163 0.55892,1.26145 0.20837,0.40014 0.47162,0.8757 0.78977,1.42672 z m -16.62185,-18.34493 c 0.0589,0.18024 0.11964,0.3442 0.18219,0.49175 0.056,0.13602 0.11196,0.27211 0.16786,0.40819 0.0559,0.13607 0.127,0.27872 0.21316,0.42795 0.0625,0.1475 0.14686,0.31318 0.25291,0.49686 l 0.35793,0.61989 1.80402,-1.04157 c 0.32185,-0.18582 0.60984,-0.35209 0.86392,-0.49876 0.24743,-0.15821 0.47799,-0.30657 0.69155,-0.44523 0.21356,-0.13865 0.42717,-0.27722 0.64075,-0.41589 0.19001,-0.1403 0.39697,-0.29039 0.62089,-0.45027 l 1.41171,2.44516 c -0.47358,0.19687 -0.93388,0.41673 -1.38094,0.65952 -0.45366,0.23132 -1.00237,0.53276 -1.64607,0.9044 l -1.75327,1.01223 2.7539,4.7698 c 0.29823,0.5166 0.5455,0.92484 0.74125,1.22508 0.19592,0.30019 0.39701,0.58969 0.60322,0.86858 l -3.12533,1.80443 c -0.32331,-0.0123 -0.59947,-0.0213 -0.82854,-0.0268 -0.22905,-0.005 -0.45476,-0.005 -0.67718,6.7e-4 -0.22906,-0.005 -0.46657,-0.006 -0.71255,-0.002 -0.2526,-0.007 -0.5575,-0.007 -0.91471,4e-5 l -9.724817,0.17329 c -0.444821,0.0119 -0.82559,0.0175 -1.142277,0.0166 -0.333624,0.009 -0.631905,0.0204 -0.89481,0.0345 -0.286504,0.0123 -0.546114,0.0321 -0.778844,0.0593 -0.239327,0.0157 -0.507421,0.0404 -0.80424,0.074 l -1.342119,-2.32464 c 0.385927,-0.19222 0.74641,-0.36975 1.081542,-0.53263 0.311537,-0.16451 0.63154,-0.33402 0.960017,-0.50831 0.328501,-0.17431 0.67905,-0.36907 1.051708,-0.58423 0.372659,-0.2152 0.796161,-0.45967 1.27046,-0.73352 l 8.3342,-4.81174 -0.34797,-0.60269 c -0.19884,-0.34436 -0.3765,-0.63211 -0.53239,-0.86352 -0.17969,-0.23301 -0.39621,-0.49063 -0.64956,-0.77295 z m -5.714,9.29138 c -0.59288,0.3423 -1.12151,0.63942 -1.58527,0.89239 -0.46402,0.25254 -0.968504,0.51321 -1.513475,0.78201 0.239352,-0.0157 0.458471,-0.0274 0.657322,-0.0351 0.192237,-0.0192 0.399553,-0.0317 0.621943,-0.0377 0.21576,-0.0174 0.45847,-0.0275 0.72802,-0.03 0.26291,-0.0141 0.57297,-0.0247 0.93018,-0.0319 l 7.95616,-0.18531 -2.53513,-4.39097 z M 398.29776,167.9269 c 0.78675,-0.76032 1.27292,-1.42372 1.45851,-1.99005 0.18563,-0.56634 0.0995,-1.15946 -0.25844,-1.77934 -0.70255,-1.21686 -2.09199,-1.61618 -4.16833,-1.19807 -0.77778,0.15828 -1.53081,0.37873 -2.25905,0.66141 -0.72823,0.2827 -1.5903,0.68093 -2.58627,1.19472 0.58384,-0.0309 1.10748,-0.0118 1.57086,0.0573 0.4634,0.0692 0.87823,0.18937 1.24448,0.36055 0.37293,0.18262 0.70059,0.42203 0.98299,0.71822 0.30572,0.29795 0.58452,0.66507 0.83639,1.10129 0.51034,0.88396 0.70858,1.82562 0.59473,2.82503 -0.11387,0.99941 -0.5378,1.96358 -1.27181,2.89246 -0.74757,0.98261 -1.88184,1.91303 -3.40287,2.7912 -0.98616,0.56936 -1.97004,0.96899 -2.95157,1.19898 -0.95822,0.23176 -1.86741,0.29752 -2.7276,0.19721 -0.8536,-0.0888 -1.62315,-0.34092 -2.30873,-0.75635 -0.68558,-0.41545 -1.24044,-0.99052 -1.6646,-1.7252 -0.39771,-0.68876 -0.6301,-1.41941 -0.69719,-2.19187 -0.0671,-0.77248 0.0441,-1.52548 0.33374,-2.25902 0.43113,-1.10609 1.26604,-2.24624 2.50466,-3.42059 1.25532,-1.18398 2.83574,-2.32598 4.74118,-3.42615 0.76887,-0.44387 1.53761,-0.84941 2.30617,-1.21669 0.79191,-0.36541 1.55531,-0.68369 2.29017,-0.95488 0.74148,-0.25974 1.44611,-0.46756 2.11381,-0.62347 0.67434,-0.14443 1.29174,-0.23302 1.85229,-0.26581 2.57228,-0.13816 4.37537,0.68817 5.4093,2.479 0.43081,0.74616 0.65975,1.50942 0.68685,2.2897 0.027,0.78034 -0.15772,1.56045 -0.55425,2.34041 -0.20173,0.42261 -0.44335,0.81471 -0.72494,1.17624 -0.26482,0.35189 -0.66683,0.8136 -1.20605,1.38511 z m -6.14039,0.30788 c -0.24521,-0.42476 -0.57083,-0.75714 -0.97688,-0.99722 -0.40599,-0.24016 -0.86921,-0.38579 -1.38929,-0.43768 -0.50343,-0.0614 -1.04895,-0.022 -1.63656,0.11832 -0.57088,0.13061 -1.14049,0.35999 -1.7088,0.68807 -0.56827,0.32813 -1.05504,0.70093 -1.4602,1.11858 -0.39858,0.42908 -0.70046,0.87126 -0.90564,1.32648 -0.19863,0.46663 -0.29545,0.93584 -0.2905,1.40751 0.005,0.47166 0.1297,0.91986 0.37513,1.34463 0.29165,0.50512 0.70719,0.87744 1.24662,1.11701 0.55621,0.22989 1.17967,0.3062 1.87047,0.2288 0.35704,-0.0378 0.75601,-0.13805 1.19693,-0.30075 0.44091,-0.16276 0.87864,-0.36954 1.31325,-0.62047 1.25361,-0.72373 2.08384,-1.52453 2.4908,-2.40233 0.41355,-0.8663 0.37179,-1.72998 -0.12533,-2.59095 z m 8.0217,-3.20862 -1.50002,-2.59811 23.77606,-13.72708 1.5,2.59808 z M 253.36571,408.76278 c -0.0397,-0.65544 -0.0928,-1.16626 -0.15908,-1.53254 -0.0795,-0.34701 -0.21204,-0.68435 -0.39767,-1.01204 -0.29169,-0.55902 -0.68273,-0.98312 -1.17312,-1.27231 -0.50349,-0.28953 -1.08027,-0.43384 -1.72986,-0.43371 -0.99422,-3e-5 -1.76968,0.29878 -2.32641,0.89637 -0.57001,0.61687 -0.85491,1.47474 -0.85501,2.5735 0,0.59758 0.0928,1.12771 0.27838,1.59037 0.17231,0.46266 0.41098,0.81924 0.71582,1.06985 0.14578,0.11568 0.28497,0.21209 0.41756,0.28922 0.1194,0.077 0.2916,0.15415 0.51695,0.23126 0.21213,0.0964 0.517,0.21201 0.91465,0.347 0.3844,0.13499 0.92128,0.3181 1.6106,0.5494 0.7423,0.2506 1.33879,0.50123 1.78953,0.75181 0.45088,0.26955 0.85504,0.60716 1.21291,1.01205 1.02067,1.15661 1.53104,2.71804 1.53101,4.68435 3e-5,1.00239 -0.13255,1.90842 -0.39766,2.71806 -0.26513,0.82893 -0.64293,1.53251 -1.13345,2.11079 -0.50373,0.57833 -1.10024,1.0217 -1.78955,1.33012 -0.68927,0.30847 -1.46472,0.46264 -2.32638,0.46264 -1.14,1e-5 -2.12756,-0.2506 -2.96266,-0.75178 -0.83512,-0.48193 -1.49791,-1.20482 -1.98837,-2.16869 -0.25181,-0.48195 -0.44404,-0.9735 -0.57664,-1.47471 -0.14582,-0.4819 -0.27837,-1.10842 -0.39766,-1.8795 l 2.84338,-0.49158 c 0.0663,0.50121 0.13917,0.89639 0.21871,1.18555 0.0795,0.28911 0.20547,0.57831 0.37782,0.86746 0.53064,0.92508 1.35879,1.38788 2.48548,1.38787 0.87486,3e-5 1.57745,-0.28914 2.10766,-0.86747 0.53026,-0.57831 0.79534,-1.33975 0.79535,-2.28434 -3e-5,-1.17589 -0.4507,-2.05301 -1.35208,-2.63134 -0.10612,-0.0578 -0.20519,-0.11616 -0.29837,-0.17322 -0.10599,-0.0386 -0.25183,-0.0964 -0.43749,-0.17348 -0.18555,-0.0771 -0.43741,-0.17357 -0.75562,-0.28917 -0.31813,-0.0964 -0.75553,-0.23131 -1.31227,-0.40482 -0.79533,-0.2506 -1.44487,-0.52048 -1.94859,-0.80965 -0.5037,-0.2699 -0.93453,-0.58793 -1.29244,-0.95419 -0.56999,-0.61689 -0.98756,-1.3301 -1.2527,-2.13974 -0.26512,-0.79038 -0.39768,-1.73496 -0.39766,-2.83375 -2e-5,-2.06266 0.41753,-3.7012 1.25265,-4.91563 1.04724,-1.46508 2.63128,-2.19764 4.7522,-2.19762 0.82187,-10e-6 1.60396,0.13496 2.34629,0.40481 0.74232,0.26988 1.35207,0.63614 1.82931,1.09876 0.78209,0.77108 1.36535,1.86988 1.74975,3.29639 0.0928,0.32773 0.16573,0.6554 0.21872,0.98312 0.0397,0.34702 0.0928,0.81928 0.1591,1.41688 z m -1.86569,41.23719 -3,10e-6 -1e-5,-24.99999 3.00002,-2e-5 z m 2.18337,-350.870932 c -0.1723,-0.522598 -0.35788,-1.025107 -0.55675,-1.507537 -0.18557,-0.482408 -0.42415,-1.055251 -0.71581,-1.718603 l -5.12997,-11.72861 c -0.18554,-0.462348 -0.39769,-1.005036 -0.63629,-1.628151 -0.23856,-0.62313 -0.4772,-1.286425 -0.71578,-1.989938 7e-5,0.100531 0,0.191 -1e-5,0.271361 0.0133,0.06031 0.0199,0.14071 0.0199,0.241188 0.0132,0.10046 0.0199,0.231076 0.0199,0.392 0.0132,0.140699 0.0265,0.351721 0.0398,0.633129 -6e-5,0.140699 0,0.331655 1e-5,0.57289 0.0132,0.221058 0.0199,0.452249 0.0199,0.693445 0.0132,0.241196 0.0199,0.48241 0.0199,0.723636 0.0133,0.241181 0.0199,0.452241 0.0199,0.633124 l 10e-6,9.889438 c 0,1.02512 0.0133,1.899531 0.0398,2.623112 0.0265,0.723639 0.0663,1.356801 0.11928,1.899512 l -2.903,1.3e-5 c 0.053,-0.502533 0.0928,-1.125656 0.1193,-1.869376 0.0265,-0.7638 0.0398,-1.658279 0.0398,-2.683421 l -2e-5,-15.557753 c 2e-5,-0.78393 -0.0133,-1.467323 -0.0398,-2.050232 -0.0133,-0.603017 -0.053,-1.216091 -0.11931,-1.83919 l 3.10186,10e-7 c 0.0928,0.381898 0.23198,0.82412 0.41758,1.326641 0.18556,0.4824 0.45068,1.1055 0.79535,1.869329 l 5.03053,11.487417 c 0.23863,0.542716 0.49711,1.175896 0.77544,1.899504 0.29164,0.703536 0.55015,1.356781 0.77549,1.959765 -0.0265,-0.301489 -0.0464,-0.633132 -0.0596,-0.994935 -0.0133,-0.361814 -0.0265,-0.723617 -0.0398,-1.085454 -0.0133,-0.381894 -0.0265,-0.753755 -0.0398,-1.115556 -2e-5,-0.38193 1e-5,-0.733671 -1e-5,-1.055289 l 3e-5,-10.130631 c 0,-0.904514 -0.0133,-1.67838 -0.0398,-2.321618 -0.0133,-0.643201 -0.053,-1.256265 -0.1193,-1.839195 l 2.903,10e-7 c -0.0663,0.603021 -0.11265,1.216103 -0.13918,1.839217 -0.0133,0.623105 -0.0199,1.396987 -0.0199,2.321567 l -1e-5,15.949781 c 0,0.844201 0.007,1.577868 0.0199,2.200968 0.0265,0.603019 0.0729,1.165844 0.13916,1.688459 z M 99.074561,246.94778 c -0.361836,0.0398 -0.824116,0.10607 -1.386929,0.19878 -0.582934,0.0795 -1.135711,0.17232 -1.658328,0.2784 l -11.216067,2.12748 c -0.582921,0.10607 -1.175919,0.20549 -1.77891,0.2983 -0.623134,0.0928 -1.316583,0.18555 -2.080417,0.27835 0.864355,0.10603 1.60803,0.21209 2.231149,0.3181 0.603034,0.0928 1.145729,0.1856 1.628164,0.27839 l 11.216083,2.1076 c 0.68342,0.11934 1.276375,0.21873 1.778924,0.29827 0.482423,0.0795 0.904498,0.13251 1.266326,0.15908 l -6e-6,2.64443 c -0.180914,0.0265 -0.331636,0.053 -0.452256,0.0795 -0.140708,0.0132 -0.301507,0.0398 -0.482435,0.0795 -0.200937,0.0264 -0.462293,0.0729 -0.783897,0.13915 -0.341721,0.053 -0.804054,0.13255 -1.386958,0.23861 l -17.306554,3.16143 c -0.884414,0.17233 -1.587953,0.31816 -2.11056,0.43744 -0.522601,0.10603 -1.015052,0.22537 -1.477384,0.35788 l 2.2e-5,-3.18131 c 0.522582,-0.0265 1.035168,-0.0663 1.537639,-0.11924 0.482421,-0.053 1.05531,-0.13254 1.718613,-0.23862 l 11.487468,-1.84912 c 0.462287,-0.0663 1.035175,-0.14582 1.718617,-0.23863 0.683388,-0.0928 1.28639,-0.17228 1.809041,-0.2386 -0.92465,-0.13255 -1.638213,-0.23859 -2.140714,-0.31815 -0.522628,-0.0795 -0.994989,-0.15903 -1.417098,-0.23859 L 78.14992,251.79919 c -1.226144,-0.22534 -2.251275,-0.37117 -3.075421,-0.43743 l 9e-6,-2.44563 c 0.361801,-0.0265 0.814063,-0.0796 1.356782,-0.15907 0.542702,-0.0928 1.095478,-0.19218 1.658296,-0.29827 l 11.608061,-2.22688 c 0.200973,-0.0397 0.402033,-0.0728 0.603021,-0.0994 0.180923,-0.0398 0.40201,-0.0796 0.663332,-0.11928 0.261324,-0.0398 0.582895,-0.0862 0.96484,-0.13919 0.381895,-0.053 0.854259,-0.11928 1.417054,-0.19887 -0.180905,-0.0265 -0.321626,-0.0464 -0.422084,-0.0596 -0.100529,-0.0133 -0.201068,-0.0266 -0.301535,-0.0398 -0.120597,-0.0133 -0.251267,-0.0265 -0.391969,-0.0398 -0.160878,-0.0265 -0.371843,-0.0531 -0.633153,-0.0795 -0.120597,-0.0133 -0.271367,-0.0331 -0.45225,-0.0596 -0.201054,-0.0266 -0.391976,-0.053 -0.572895,-0.0795 -0.201065,-0.0265 -0.38188,-0.0464 -0.542684,-0.0597 -0.180915,-0.0265 -0.301528,-0.0464 -0.361849,-0.0596 l -11.366848,-1.84918 c -0.582915,-0.10604 -1.155764,-0.18558 -1.71857,-0.23859 -0.582944,-0.053 -1.085435,-0.0861 -1.507554,-0.0994 l 6e-6,-3.18133 c 0.26128,0.0662 0.51256,0.13256 0.753746,0.19884 0.241205,0.053 0.502539,0.11265 0.783923,0.17896 0.261362,0.0531 0.562841,0.11263 0.904551,0.17895 0.321585,0.0663 0.703508,0.13917 1.145718,0.2187 l 17.276421,3.18134 c 0.422124,0.0663 0.773849,0.12592 1.055256,0.17895 0.261344,0.0398 0.462331,0.0729 0.603032,0.0994 0.221154,0.0397 0.391938,0.0729 0.512558,0.0994 0.120598,0.0133 0.231121,0.0265 0.33166,0.0398 0.0804,0.013 0.170897,0.0265 0.271376,0.0398 0.08041,0.0133 0.201035,0.0266 0.361775,0.0398 z m 301.999969,8.82876 c 0.079,-0.35787 0.13828,-0.7224 0.17777,-1.09357 0.0197,-0.37119 0.0296,-0.86165 0.0296,-1.47141 l 10e-6,-6.20375 c -10e-6,-0.30488 -10e-6,-0.57001 -10e-6,-0.79535 10e-6,-0.22537 2e-5,-0.43082 -1e-5,-0.61637 -0.0197,-0.18555 -0.0296,-0.37119 -0.0296,-0.55679 -0.0197,-0.17233 -0.0395,-0.35791 -0.0593,-0.55671 0.5926,0.0531 1.17531,0.0928 1.74818,0.11925 0.5728,0.0265 1.29383,0.0397 2.16295,0.0397 l 16.02963,-5e-5 c 0.77037,0 1.42223,-0.0132 1.95557,-0.0397 0.55309,-0.0133 1.17531,-0.053 1.86668,-0.11925 -0.0198,0.19888 -0.0395,0.38443 -0.0593,0.55675 6e-5,0.1723 -0.01,0.35128 -0.0296,0.53689 l 1e-5,0.63629 -1e-5,0.79533 v 6.00489 c -2e-5,0.50372 0.01,0.94115 0.0296,1.31234 0.0395,0.37115 0.0988,0.78873 0.17775,1.25267 l -3.91109,-1e-5 c 0.0395,-0.1856 0.0691,-0.37115 0.0889,-0.55671 0.0395,-0.1856 0.0593,-0.3778 0.0593,-0.57667 0.0197,-0.19879 0.0296,-0.41755 0.0296,-0.65617 0.0197,-0.22533 0.0296,-0.48381 0.0296,-0.77546 l 2e-5,-5.72649 -6.10374,1e-5 5e-5,4.83173 c -3e-5,0.51697 0.01,0.96768 0.0296,1.3521 0.0395,0.38441 0.0988,0.79536 0.1778,1.23279 h -3.88148 c 0.0395,-0.19883 0.0692,-0.39104 0.0889,-0.57664 0.0395,-0.17225 0.0593,-0.35789 0.0593,-0.55675 0.0197,-0.19876 0.0296,-0.41753 0.0296,-0.65615 0.0197,-0.22533 0.0296,-0.49047 0.0296,-0.79535 l -10e-6,-4.85165 -6.99257,-1e-5 -1e-5,5.96514 c 1e-5,0.55676 0.01,1.01411 0.0296,1.37201 0.0395,0.35789 0.0988,0.74894 0.17778,1.1731 z m 20.48601,-84.11621 -1.2719,-2.72748 10.9101,-5.08746 1.27186,2.72753 z m -352.759218,164.49433 -1.271857,-2.72754 10.910083,-5.08744 1.271861,2.72753 z m 17.71341,30.15595 -1.726142,-2.46523 9.860904,-6.90467 1.726155,2.46523 z m 318.835858,-223.25126 -1.72619,-2.46523 9.86093,-6.90466 1.72615,2.46518 z m -296.155,249.87317 -2.12804,-2.12806 8.51214,-8.51208 2.12802,2.12802 z m 275.22481,-275.22488 -2.12799,-2.128 8.51209,-8.5121 2.12801,2.12804 z m -248.26571,297.50386 -2.46523,-1.72616 6.90466,-9.86089 2.46521,1.72612 z m 223.25123,-318.835886 -2.46523,-1.726167 6.90471,-9.860907 2.46521,1.726199 z M 166.5729,432.47058 l -2.72749,-1.27184 5.08745,-10.91008 2.72748,1.27186 z m 164.49433,-352.759217 -2.72752,-1.271836 5.08746,-10.91007 2.7275,1.271832 z m -131.54119,364.474077 -2.90694,-0.7789 3.11565,-11.62776 2.90694,0.77891 z m 100.73928,-375.964142 -2.90695,-0.77893 3.11564,-11.62774 2.90693,0.778874 z m -66.25252,381.778732 -2.99807,-0.26226 1.0492,-11.99214 2.99805,0.26231 z m 33.92332,-387.745595 -2.99806,-0.26229 1.04919,-11.992128 2.99806,0.262269 z m 1.04919,387.483285 -2.99803,0.26228 -1.04918,-11.99212 2.99806,-0.26229 z m -33.92335,-387.745574 -2.99806,0.262269 -1.04915,-11.992129 2.99802,-0.262289 z m 68.319,381.414314 -2.90696,0.77892 -3.11563,-11.62774 2.90694,-0.7789 z M 202.64167,67.442375 l -2.90693,0.778902 -3.11563,-11.627792 2.90691,-0.77887 z m 133.51304,363.756325 -2.72754,1.27185 -5.08748,-10.91006 2.7275,-1.27185 z M 171.66034,78.439519 l -2.72749,1.271864 -5.08746,-10.910075 2.72751,-1.271882 z m 194.6503,335.045751 -2.46521,1.72616 -6.90474,-9.86088 2.46525,-1.72616 z M 143.05936,94.649448 l -2.46524,1.726154 -6.90469,-9.860865 2.46523,-1.7262 z m 249.87314,296.155022 -2.12801,2.12802 -8.51212,-8.51211 2.12803,-2.12804 z m -275.22482,-275.22484 -2.128,2.12799 -8.51215,-8.51206 2.12803,-2.12804 z m 297.50378,248.26574 -1.72616,2.46521 -9.86089,-6.9047 1.72616,-2.46521 z M 96.375638,140.59411 l -1.726151,2.46519 -9.860929,-6.90467 1.72619,-2.46521 z m 336.094952,192.83302 -1.27188,2.72751 -10.91007,-5.08745 1.27188,-2.72755 z M 79.711394,168.93281 l -1.271832,2.72752 -10.910081,-5.08746 1.271872,-2.72753 z M 444.1854,300.474 l -0.77891,2.90693 -11.62775,-3.11565 0.77892,-2.9069 z M 68.221316,199.73471 l -0.778913,2.90694 -11.627767,-3.11564 0.778925,-2.90696 z m 381.778694,66.25254 -0.26229,2.99807 -11.99211,-1.04922 0.26227,-2.99805 z M 62.254478,232.0639 l -0.262282,2.99803 -11.992137,-1.0492 0.262297,-2.99802 z m 387.483252,-1.04918 0.26228,2.99804 -11.99213,1.04917 -0.26229,-2.99803 z m -387.74555,33.92333 0.26229,2.998 -11.99213,1.04918 -0.2623,-2.99802 z m 381.41433,-68.31896 0.77889,2.90691 -11.62776,3.11565 -0.77891,-2.90695 z M 67.4424,297.35832 l 0.778917,2.90693 -11.627749,3.11568 -0.778912,-2.90697 z m 10.102576,53.94072 -1.500005,-2.59809 21.650628,-12.49999 1.500003,2.59806 z m 20.21035,28.40755 -1.928348,-2.29816 19.151092,-16.06971 1.92837,2.29814 z m 287.266654,-241.04536 -1.92837,-2.29811 19.15114,-16.06968 1.92833,2.29811 z m -262.4304,265.51184 -2.29814,-1.92836 16.06969,-19.15112 2.29812,1.92836 z m 241.04536,-287.26665 -2.29816,-1.9284 16.0697,-19.151061 2.29813,1.928343 z m -212.33784,307.04867 -2.59812,-1.49999 12.50001,-21.65063 2.59811,1.49999 z m 31.70645,14.49648 -2.81907,-1.02605 8.5505,-23.49233 2.81909,1.02606 z m 128.25753,-352.384777 -2.81909,-1.026036 8.55054,-23.492326 2.81906,1.026087 z m -94.51549,361.155247 -2.95443,-0.52096 4.34125,-24.6202 2.9544,0.52095 z m 65.11806,-369.302912 -2.95442,-0.520966 4.34122,-24.620203 2.95443,0.520959 z m -30.36564,-2.919122 -2.99999,10e-7 3e-5,-24.99999 2.99998,-2.1e-5 z m 34.70687,371.701084 -2.95445,0.52093 -4.34121,-24.62018 2.95447,-0.52098 z m -65.11804,-369.302923 -2.95446,0.520948 -4.3412,-24.620179 2.95443,-0.520961 z m 98.72472,360.027363 -2.81906,1.02602 -8.5505,-23.49229 2.81908,-1.02609 z M 191.556,85.040756 l -2.81906,1.02604 -8.5505,-23.492283 2.81907,-1.026064 z m -27.75692,12.654775 -2.5981,1.500021 -12.49999,-21.650661 2.59806,-1.499962 z M 379.7066,402.2447 l -2.29813,1.92839 -16.06968,-19.15113 2.29811,-1.92836 z m -241.04537,-287.26665 -2.2981,1.92836 -16.06972,-19.151102 2.29816,-1.928377 z m 265.51187,262.43039 -1.92838,2.29817 -19.15113,-16.06971 1.92838,-2.29813 z m -287.26668,-241.04533 -1.92837,2.29811 -19.151087,-16.06971 1.92833,-2.29807 z m -40.861487,14.93597 1.50001,-2.59811 21.65065,12.5 -1.50003,2.5981 z m 362.406637,165.69541 -1.02605,2.81907 -23.49233,-8.55047 1.02606,-2.81907 z M 86.066848,188.73692 l -1.026076,2.81908 -23.492327,-8.55048 1.026068,-2.81906 z m 361.155212,94.51553 -0.52095,2.95439 -24.6202,-4.34122 0.52097,-2.95441 z m -369.302919,-65.11808 -0.520953,2.95443 -24.620199,-4.3412 0.520967,-2.95444 z m 372.080879,30.36566 2e-5,2.99998 h -25.00002 l -1e-5,-2.99999 z m -374.99999,-6e-5 -2.1e-5,3.00001 -24.999981,3e-5 -2.1e-5,-2.99997 z m 371.70106,-34.70683 0.52095,2.95444 -24.62018,4.34125 -0.52094,-2.95449 z m -369.302902,65.11807 0.520939,2.95448 -24.620197,4.34113 -0.520921,-2.95442 z m 360.027312,-98.72478 1.02608,2.8191 -23.49233,8.55047 -1.02604,-2.81906 z m -352.384721,128.25755 1.026078,2.81908 -23.492338,8.5505 -1.026064,-2.81905 z"/>
  </g>
</svg>
