<?xml version="1.0" encoding="UTF-8" standalone="no"?>
<svg xmlns="http://www.w3.org/2000/svg" xmlns:svg="http://www.w3.org/2000/svg" width="500" height="500" viewBox="0 0 500 500" preserveAspectRatio="xMinYMin" version="1.1" id="svg96" xml:space="preserve">
  <path style="fill:#141414;" d="M 0,125 V 500 H 500 V 125 H 406.07422 C 433.53635,159.2445 450,202.68897 450,250 450,360.45684 360.45684,450 250,450 139.54316,450 50,360.45684 50,250 50,202.68897 66.463653,159.2445 93.925781,125 Z"/>
  <path style="fill:#ffffff;" d="m 38,146.14453 a 4,4 0 0 0 -2.230469,0.6875 4,4 0 0 0 -1.46875,1.8125 H 28 v 3 h 6.300781 a 4,4 0 0 0 1.46875,1.81445 4,4 0 0 0 2.230469,0.68555 4,4 0 0 0 2.230469,-0.68555 4,4 0 0 0 1.46875,-1.81445 H 48 v -3 H 41.707031 A 4,4 0 0 0 40.236328,146.83008 4,4 0 0 0 38,146.14453 Z m 424,0 a 4,4 0 0 0 -2.23633,0.68555 4,4 0 0 0 -1.4707,1.81445 H 452 v 3 h 6.30078 a 4,4 0 0 0 1.46875,1.81445 4,4 0 0 0 2.23047,0.68555 4,4 0 0 0 2.23047,-0.68555 4,4 0 0 0 1.46875,-1.81445 H 472 v -3 h -6.30078 a 4,4 0 0 0 -1.46875,-1.8125 A 4,4 0 0 0 462,146.14453 Z M 38,195.79102 a 4,4 0 0 0 -2.230469,0.68554 4,4 0 0 0 -1.46875,1.81446 H 28 v 3 h 6.300781 a 4,4 0 0 0 1.46875,1.81445 4,4 0 0 0 2.230469,0.68555 4,4 0 0 0 2.230469,-0.68555 4,4 0 0 0 1.46875,-1.81445 H 48 v -3 H 41.707031 A 4,4 0 0 0 40.236328,196.47461 4,4 0 0 0 38,195.79102 Z m 424,0 a 4,4 0 0 0 -2.23633,0.68359 4,4 0 0 0 -1.4707,1.81641 H 452 v 3 h 6.30078 a 4,4 0 0 0 1.46875,1.81445 4,4 0 0 0 2.23047,0.68555 4,4 0 0 0 2.23047,-0.68555 4,4 0 0 0 1.46875,-1.81445 H 472 v -3 h -6.30078 A 4,4 0 0 0 464.23047,196.47656 4,4 0 0 0 462,195.79102 Z M 13,248.75195 v 4 h 35 v -4 z m 439,0 v 4 h 35 v -4 z M 38,296.20898 a 4,4 0 0 0 -2.230469,0.68555 4,4 0 0 0 -1.46875,1.81445 H 28 v 3 h 6.300781 a 4,4 0 0 0 1.46875,1.81446 4,4 0 0 0 2.230469,0.68554 4,4 0 0 0 2.230469,-0.68554 4,4 0 0 0 1.46875,-1.81446 H 48 v -3 H 41.707031 A 4,4 0 0 0 40.236328,296.89258 4,4 0 0 0 38,296.20898 Z m 424,0 a 4,4 0 0 0 -2.23633,0.6836 4,4 0 0 0 -1.4707,1.8164 H 452 v 3 h 6.30078 a 4,4 0 0 0 1.46875,1.81446 4,4 0 0 0 2.23047,0.68554 4,4 0 0 0 2.23047,-0.68554 4,4 0 0 0 1.46875,-1.81446 H 472 v -3 h -6.30078 A 4,4 0 0 0 464.23047,296.89453 4,4 0 0 0 462,296.20898 Z M 38,345.85547 a 4,4 0 0 0 -2.230469,0.68555 4,4 0 0 0 -1.46875,1.81445 H 28 v 3 h 6.300781 a 4,4 0 0 0 1.46875,1.8125 4,4 0 0 0 2.230469,0.6875 4,4 0 0 0 2.230469,-0.6875 4,4 0 0 0 1.46875,-1.8125 H 48 v -3 H 41.707031 A 4,4 0 0 0 40.236328,346.53906 4,4 0 0 0 38,345.85547 Z m 424,0 a 4,4 0 0 0 -2.23633,0.68359 4,4 0 0 0 -1.4707,1.81641 H 452 v 3 h 6.30078 a 4,4 0 0 0 1.46875,1.8125 4,4 0 0 0 2.23047,0.6875 4,4 0 0 0 2.23047,-0.6875 4,4 0 0 0 1.46875,-1.8125 H 472 v -3 h -6.30078 A 4,4 0 0 0 464.23047,346.54102 4,4 0 0 0 462,345.85547 Z m -355.89648,45.91992 -24.748051,24.74805 2.121093,2.12109 24.748048,-24.74805 z m 287.79296,0 -2.12109,2.12109 24.74805,24.74805 2.12109,-2.12109 z M 248.5,452 v 35 h 3 v -35 z" />
</svg>
