<?xml version="1.0" encoding="UTF-8" standalone="no"?>
<svg xmlns="http://www.w3.org/2000/svg" xmlns:svg="http://www.w3.org/2000/svg" width="500" height="500" viewBox="0 0 500 500" preserveAspectRatio="xMinYMin" version="1.1">
  <path style="fill:#da9726;" d="M 248.02539,230.13086 V 248 H 213.0625 v 4 h 34.96289 v 55.09766 H 235.6582 v 4 h 12.36719 v 11.03711 h 4 v -11.03711 h 12.31641 v -4 H 252.02539 V 252 h 34.91211 v -4 h -34.91211 v -17.86914 z" />
  <path style="fill:#141414;" d="M 0,0 V 130 H 89.996094 C 126.48455,81.42511 184.56966,50 250,50 c 65.43034,0 123.51545,31.42511 160.00391,80 H 500 V 0 Z"/>
  <path style="fill:#ffffff;" d="m 247.5,13 v 141.25 h 5 V 13 Z m -164.023438,68.355469 -2.121093,2.121093 24.748051,24.748048 2.12109,-2.12109 z m 333.046878,0 -24.74805,24.748051 2.12109,2.12109 24.74805,-24.748048 z M 56.236328,108.57812 c -0.484448,0 -0.944028,0.0469 -1.376953,0.14258 -0.432925,0.0956 -0.839338,0.2404 -1.220703,0.43164 -0.381368,0.19125 -0.73663,0.42994 -1.066406,0.7168 -0.32978,0.28686 -0.633949,0.62143 -0.91211,1.00391 -0.276826,0.38062 -0.519017,0.79565 -0.726562,1.24609 -0.207545,0.45044 -0.38122,0.93682 -0.519532,1.45703 -0.138308,0.52021 -0.241416,1.07413 -0.310546,1.66406 C 50.034386,115.83017 50,116.45564 50,117.11523 c 0,0.72061 0.03678,1.39561 0.111328,2.02539 0.07455,0.62978 0.186875,1.21439 0.335938,1.75391 0.149058,0.53584 0.32944,1.02728 0.541015,1.47461 0.211575,0.44733 0.454348,0.85055 0.728516,1.20898 0.271506,0.35475 0.571597,0.66575 0.900391,0.93165 0.328794,0.26589 0.686304,0.48668 1.072265,0.66406 0.385964,0.17738 0.790406,0.31143 1.214844,0.40039 0.424435,0.0889 0.868877,0.13281 1.332031,0.13281 0.718689,0 1.461914,-0.15206 2.228516,-0.45508 0.771924,-0.31042 1.483331,-0.67204 2.132812,-1.08593 v -7.08399 h -4.751953 v 1.92774 h 3.185547 v 4.04687 c -0.383303,0.22173 -0.830727,0.40254 -1.341797,0.54297 -0.505743,0.14042 -1.01432,0.21094 -1.525391,0.21094 -0.348695,0 -0.678257,-0.0375 -0.990234,-0.11133 -0.311977,-0.0739 -0.605526,-0.18426 -0.880859,-0.33203 -0.275336,-0.14777 -0.532708,-0.333 -0.771485,-0.55469 -0.238773,-0.22169 -0.45981,-0.47976 -0.662109,-0.77539 -0.404597,-0.59496 -0.707595,-1.30734 -0.910156,-2.13867 -0.202562,-0.83134 -0.304688,-1.78164 -0.304688,-2.84961 0,-1.01254 0.096,-1.92049 0.289063,-2.72266 0.193059,-0.80217 0.48318,-1.49858 0.86914,-2.08984 0.194313,-0.29748 0.405862,-0.55812 0.634766,-0.78125 0.228904,-0.22314 0.474781,-0.40787 0.738281,-0.55664 0.263503,-0.14878 0.545642,-0.26154 0.84375,-0.33594 0.298111,-0.0744 0.612585,-0.11133 0.945313,-0.11133 0.590921,0 1.118874,0.0772 1.582031,0.23242 0.468482,0.14782 0.886579,0.33729 1.253906,0.56641 0.303448,0.19216 0.61169,0.43246 0.925781,0.7207 0.314095,0.28824 0.553722,0.51989 0.71875,0.69727 h 0.142579 v -2.60352 c -0.814518,-0.53953 -1.575161,-0.92089 -2.283203,-1.14257 -0.70272,-0.22912 -1.39226,-0.34375 -2.06836,-0.34376 z m 11.132813,0 c -0.646823,0 -1.237552,0.11038 -1.771485,0.33204 -0.53393,0.22165 -1.011076,0.5546 -1.43164,0.99804 -0.420568,0.43976 -0.735025,0.94237 -0.945313,1.50782 -0.210287,0.56544 -0.316406,1.19372 -0.316406,1.88476 0,0.60235 0.06273,1.14912 0.189453,1.63867 0.126723,0.48956 0.317442,0.9219 0.570312,1.29883 0.255535,0.37324 0.579434,0.69266 0.970704,0.95703 0.391266,0.26438 0.849912,0.4737 1.376953,0.62891 0.521713,0.14782 1.013408,0.26916 1.476562,0.36523 0.468481,0.0961 0.901512,0.21741 1.300781,0.36524 0.527041,0.19215 0.918294,0.46317 1.173829,0.81054 0.130425,0.17369 0.229387,0.39612 0.294921,0.66602 0.06554,0.2699 0.09766,0.58728 0.09766,0.95313 0,0.42493 -0.06805,0.8067 -0.205078,1.14648 -0.137025,0.33978 -0.34302,0.63759 -0.617188,0.89258 -0.271506,0.25498 -0.597548,0.44656 -0.978515,0.57422 -0.380967,0.12766 -0.816869,0.1914 -1.306641,0.1914 -0.346037,0 -0.704528,-0.0481 -1.074219,-0.14258 -0.36969,-0.0945 -0.750585,-0.23536 -1.144531,-0.42382 -0.39395,-0.18847 -0.764019,-0.4157 -1.111328,-0.6836 -0.347312,-0.2679 -0.671871,-0.57646 -0.972657,-0.92383 h -0.113281 v 2.75 c 0.708046,0.43607 1.402558,0.76461 2.083985,0.98633 0.686746,0.22173 1.459302,0.33203 2.316406,0.33203 0.39927,0 0.768501,-0.0333 1.109375,-0.0996 0.340873,-0.0663 0.653394,-0.16579 0.935547,-0.29882 0.569627,-0.26608 1.066299,-0.63637 1.492187,-1.10938 0.388626,-0.43606 0.689398,-0.96748 0.902344,-1.5957 C 71.890138,121.95185 72,121.31684 72,120.67383 c 0,-0.59127 -0.05639,-1.11773 -0.167969,-1.57813 -0.111582,-0.46039 -0.27836,-0.85471 -0.501953,-1.18359 -0.223593,-0.3289 -0.502793,-0.61555 -0.835937,-0.86133 -0.333148,-0.24578 -0.720247,-0.45068 -1.16211,-0.61328 -0.436535,-0.15521 -0.967516,-0.30535 -1.595703,-0.45312 -0.628187,-0.14782 -1.112411,-0.27349 -1.453125,-0.37696 -0.322081,-0.10347 -0.595375,-0.23108 -0.820312,-0.38086 -0.22494,-0.14977 -0.40153,-0.32172 -0.529297,-0.51758 -0.127768,-0.19585 -0.224813,-0.42931 -0.289063,-0.69921 -0.06425,-0.26991 -0.0957,-0.57625 -0.0957,-0.91993 0,-0.38432 0.0634,-0.73274 0.191406,-1.04687 0.128011,-0.31414 0.320641,-0.594 0.576172,-0.83789 0.258197,-0.2439 0.557564,-0.42719 0.898438,-0.54883 0.34087,-0.12164 0.723258,-0.18164 1.146484,-0.18164 0.385964,0 0.767917,0.0443 1.144531,0.13281 0.376617,0.0885 0.747903,0.22106 1.115235,0.39844 0.36999,0.17368 0.704238,0.37019 1.001953,0.58984 0.297715,0.21965 0.558901,0.46245 0.785156,0.72852 h 0.113281 v -2.59375 c -0.537684,-0.3252 -1.156121,-0.59859 -1.853515,-0.82031 -0.697398,-0.22173 -1.46302,-0.33204 -2.298828,-0.33204 z m 366.867189,0 c -0.48445,0 -0.94404,0.0469 -1.37695,0.14258 -0.43291,0.0956 -0.83934,0.2404 -1.22071,0.43164 -0.38137,0.19125 -0.73663,0.42994 -1.0664,0.7168 -0.32978,0.28686 -0.63395,0.62143 -0.91211,1.00391 -0.27683,0.38062 -0.51902,0.79565 -0.72657,1.24609 -0.20754,0.45044 -0.38122,0.93682 -0.51953,1.45703 -0.13831,0.52021 -0.24141,1.07413 -0.31054,1.66406 -0.0691,0.58994 -0.10352,1.21541 -0.10352,1.875 0,0.72061 0.0368,1.39561 0.11133,2.02539 0.0745,0.62978 0.18687,1.21439 0.33594,1.75391 0.14906,0.53584 0.32944,1.02728 0.54101,1.47461 0.21158,0.44733 0.45435,0.85055 0.72852,1.20898 0.2715,0.35475 0.57159,0.66575 0.90039,0.93165 0.32879,0.26589 0.6863,0.48668 1.07226,0.66406 0.38597,0.17738 0.79041,0.31143 1.21485,0.40039 0.42443,0.0889 0.86887,0.13281 1.33203,0.13281 0.71869,0 1.46191,-0.15206 2.22851,-0.45508 0.77193,-0.31042 1.48333,-0.67204 2.13282,-1.08593 v -7.08399 h -4.75196 v 1.92774 h 3.18555 v 4.04687 c -0.3833,0.22173 -0.83072,0.40254 -1.3418,0.54297 -0.50574,0.14042 -1.01431,0.21094 -1.52539,0.21094 -0.3487,0 -0.67826,-0.0375 -0.99023,-0.11133 -0.31198,-0.0739 -0.60553,-0.18426 -0.88086,-0.33203 -0.27534,-0.14777 -0.53271,-0.333 -0.77149,-0.55469 -0.23877,-0.22169 -0.45982,-0.47976 -0.6621,-0.77539 -0.40459,-0.59496 -0.7076,-1.30734 -0.91016,-2.13867 -0.20256,-0.83134 -0.30469,-1.78164 -0.30469,-2.84961 0,-1.01254 0.096,-1.92049 0.28906,-2.72266 0.19306,-0.80217 0.48318,-1.49858 0.86914,-2.08984 0.19432,-0.29748 0.40587,-0.55812 0.63477,-0.78125 0.2289,-0.22314 0.47478,-0.40787 0.73828,-0.55664 0.2635,-0.14878 0.54564,-0.26154 0.84375,-0.33594 0.29811,-0.0744 0.61259,-0.11133 0.94531,-0.11133 0.59093,0 1.1189,0.0772 1.58204,0.23242 0.46845,0.14782 0.88657,0.33729 1.2539,0.56641 0.30345,0.19216 0.61169,0.43246 0.92578,0.7207 0.3141,0.28824 0.55372,0.51989 0.71875,0.69727 h 0.14258 v -2.60352 c -0.81451,-0.53953 -1.57516,-0.92089 -2.2832,-1.14257 -0.70273,-0.22912 -1.39226,-0.34375 -2.06836,-0.34376 z m 11.13281,0 c -0.64682,0 -1.23755,0.11038 -1.77148,0.33204 -0.53394,0.22165 -1.01108,0.5546 -1.43164,0.99804 -0.42057,0.43976 -0.73503,0.94237 -0.94532,1.50782 -0.21028,0.56544 -0.3164,1.19372 -0.3164,1.88476 0,0.60235 0.0627,1.14912 0.18945,1.63867 0.12672,0.48956 0.31745,0.9219 0.57031,1.29883 0.25554,0.37324 0.57944,0.69266 0.97071,0.95703 0.39127,0.26438 0.84991,0.4737 1.37695,0.62891 0.52172,0.14782 1.0134,0.26916 1.47656,0.36523 0.46848,0.0961 0.90151,0.21741 1.30078,0.36524 0.52704,0.19215 0.9183,0.46317 1.17383,0.81054 0.13043,0.17369 0.22939,0.39612 0.29492,0.66602 0.0655,0.2699 0.0977,0.58728 0.0977,0.95313 0,0.42493 -0.0681,0.8067 -0.20508,1.14648 -0.13702,0.33978 -0.34302,0.63759 -0.61719,0.89258 -0.2715,0.25498 -0.59755,0.44656 -0.97851,0.57422 -0.38097,0.12766 -0.81687,0.1914 -1.30664,0.1914 -0.34604,0 -0.70453,-0.0481 -1.07422,-0.14258 -0.36969,-0.0945 -0.75058,-0.23536 -1.14453,-0.42382 -0.39396,-0.18847 -0.76402,-0.4157 -1.11133,-0.6836 -0.34731,-0.2679 -0.67187,-0.57646 -0.97266,-0.92383 h -0.11328 v 2.75 c 0.70804,0.43607 1.40256,0.76461 2.08399,0.98633 0.6867,0.22173 1.45929,0.33203 2.3164,0.33203 0.39928,0 0.7685,-0.0333 1.10938,-0.0996 0.34087,-0.0663 0.65339,-0.16579 0.93554,-0.29882 0.56963,-0.26608 1.06629,-0.63637 1.49219,-1.10938 0.38862,-0.43606 0.68942,-0.96748 0.90235,-1.5957 0.21825,-0.62821 0.32812,-1.26324 0.32812,-1.90625 0,-0.59127 -0.0564,-1.11773 -0.16797,-1.57813 -0.11158,-0.46039 -0.27836,-0.85471 -0.50195,-1.18359 -0.2236,-0.3289 -0.50279,-0.61555 -0.83594,-0.86133 -0.33315,-0.24578 -0.72024,-0.45068 -1.16211,-0.61328 -0.43654,-0.15521 -0.96751,-0.30535 -1.5957,-0.45312 -0.62819,-0.14782 -1.1124,-0.27349 -1.45313,-0.37696 -0.32208,-0.10347 -0.59537,-0.23108 -0.82031,-0.38086 -0.22494,-0.14977 -0.40153,-0.32172 -0.5293,-0.51758 -0.12776,-0.19585 -0.22481,-0.42931 -0.28906,-0.69921 -0.0642,-0.26991 -0.0957,-0.57625 -0.0957,-0.91993 0,-0.38432 0.0634,-0.73274 0.1914,-1.04687 0.12801,-0.31414 0.32064,-0.594 0.57618,-0.83789 0.25819,-0.2439 0.55756,-0.42719 0.89843,-0.54883 0.34088,-0.12164 0.72326,-0.18164 1.14649,-0.18164 0.38596,0 0.76791,0.0443 1.14453,0.13281 0.37662,0.0885 0.7479,0.22106 1.11523,0.39844 0.37,0.17368 0.70424,0.37019 1.00196,0.58984 0.29771,0.21965 0.5589,0.46245 0.78515,0.72852 h 0.11328 v -2.59375 c -0.53768,-0.3252 -1.15611,-0.59859 -1.85351,-0.82031 -0.6974,-0.22173 -1.46301,-0.33204 -2.29883,-0.33204 z"/>
</svg>
