<?xml version="1.0" encoding="UTF-8" standalone="no"?>
<svg xmlns="http://www.w3.org/2000/svg" xmlns:svg="http://www.w3.org/2000/svg" width="500" height="500" viewBox="0 0 500 500" preserveAspectRatio="xMinYMin" version="1.1" id="svg96" xml:space="preserve">
  <path style="fill:#d11818" d="m 295.94,63.99 h 94.98 v 42.65 H 318.2 A 22.26,22.26 0 0 1 295.94,84.38 Z"/>
  <path d="m 321.7,82.98 q -0.09,0.73 -0.12,1.36 -0.02,0.63 -0.02,1.64 v 12.66 q 0,0.52 0,0.92 0.02,0.4 0.03,0.75 0.02,0.33 0.03,0.66 0.03,0.33 0.07,0.7 h -2.57 q 0.07,-0.68 0.1,-1.34 0.03,-0.66 0.03,-1.69 v -5.31 h -6.93 v 5.31 q 0,0.52 0,0.92 0.02,0.4 0.03,0.75 0.02,0.35 0.03,0.68 0.03,0.33 0.07,0.68 h -2.57 q 0.07,-0.66 0.1,-1.32 0.03,-0.68 0.03,-1.71 V 86.01 q 0,-1.03 -0.03,-1.69 -0.03,-0.66 -0.1,-1.34 h 2.57 q -0.09,0.75 -0.12,1.41 -0.02,0.66 -0.02,1.6 v 4.53 h 6.93 v -4.51 q 0,-1.01 -0.03,-1.69 -0.02,-0.7 -0.1,-1.34 z m 2.59,2.98 q 0,-0.99 -0.03,-1.62 -0.02,-0.66 -0.1,-1.43 0.26,0.02 0.48,0.05 0.22,0 0.47,0.02 0.24,0 0.53,0 0.29,0 0.71,0 h 3.11 q 1.62,0 2.72,0.49 1.1,0.47 1.93,1.57 0.95,1.22 1.43,3.03 0.48,1.78 0.48,4.09 0,4.84 -2.03,7.47 -0.83,1.06 -1.91,1.55 -1.07,0.49 -2.6,0.49 h -3.14 q -0.4,0 -0.69,0 -0.29,0 -0.53,0 -0.24,0.02 -0.48,0.02 -0.22,0.02 -0.48,0.05 0.03,-0.35 0.05,-0.68 0.03,-0.35 0.05,-0.7 0.02,-0.35 0.02,-0.75 0.02,-0.42 0.02,-0.96 z m 5.03,12.94 q 1.07,0 1.78,-0.35 0.72,-0.35 1.28,-1.15 0.62,-0.89 0.93,-2.21 0.33,-1.34 0.33,-3.01 0,-3.33 -1.19,-5.03 -0.53,-0.75 -1.26,-1.08 -0.71,-0.33 -1.84,-0.33 h -2.76 v 13.17 z m 19.97,-2.04 q 0,0.52 0,0.92 0,0.4 0.02,0.75 0.02,0.33 0.03,0.68 0.03,0.33 0.07,0.7 -0.47,0.35 -0.83,0.61 -0.34,0.23 -0.67,0.42 -0.31,0.19 -0.62,0.33 -0.29,0.14 -0.64,0.26 -0.59,0.21 -1.24,0.33 -0.66,0.12 -1.29,0.12 -3.26,0 -4.9,-2.7 -0.79,-1.27 -1.21,-3.1 -0.41,-1.83 -0.41,-4.04 0,-2.82 0.71,-4.91 0.71,-2.09 2.05,-3.33 0.81,-0.73 1.72,-1.06 0.91,-0.33 2.1,-0.33 1.19,0 2.21,0.52 1.03,0.52 1.76,1.5 0.22,0.31 0.4,0.59 0.19,0.28 0.33,0.61 0.16,0.33 0.28,0.73 0.14,0.38 0.28,0.87 l -2.36,0.87 q -0.21,-0.8 -0.48,-1.34 -0.28,-0.56 -0.66,-0.89 -0.38,-0.35 -0.88,-0.49 -0.48,-0.16 -1.16,-0.16 -0.78,0 -1.45,0.38 -0.67,0.38 -1.17,1.06 -1.28,1.81 -1.28,5.35 0,3.62 1.17,5.5 0.53,0.85 1.24,1.24 0.72,0.38 1.76,0.38 0.88,0 1.57,-0.23 0.71,-0.26 1.36,-0.82 v -3.83 h -0.93 q -0.66,0 -1.02,0.02 -0.36,0.02 -0.74,0.12 v -3.03 q 0.22,0.05 0.43,0.07 0.21,0.02 0.43,0.05 0.24,0.02 0.52,0.02 0.29,0 0.69,0 h 0.9 q 0.6,0 1.03,-0.02 0.45,-0.02 1,-0.07 -0.07,0.66 -0.1,1.29 -0.02,0.63 -0.02,1.62 z" />
</svg>
