<?xml version="1.0" encoding="UTF-8" standalone="no"?>
<svg xmlns="http://www.w3.org/2000/svg" xmlns:svg="http://www.w3.org/2000/svg" width="500" height="500" viewBox="0 0 500 500" preserveAspectRatio="xMinYMin" version="1.1" id="svg96" xml:space="preserve">
  <path style="fill:#d11818;" d="M 193.23,63.99 H 98.25 v 42.66 h 72.72 a 22.26,22.26 0 0 0 22.26,-22.26 z"/>
  <path d="m 149.29,101.68 q -0.21,-0.61 -0.45,-1.17 -0.22,-0.57 -0.58,-1.34 l -4.14,-9.14 q -0.22,-0.54 -0.51,-1.27 -0.29,-0.73 -0.58,-1.55 0,0.12 0,0.21 0.02,0.07 0.02,0.19 0.02,0.12 0.02,0.3 0.02,0.17 0.03,0.5 0,0.17 0,0.45 0.02,0.25 0.02,0.54 0.02,0.28 0.02,0.57 0.02,0.28 0.02,0.5 v 7.7 q 0,1.2 0.03,2.05 0.03,0.85 0.1,1.48 h -2.34 q 0.07,-0.59 0.1,-1.45 0.03,-0.9 0.03,-2.09 V 86.01 q 0,-0.92 -0.03,-1.6 -0.02,-0.7 -0.1,-1.43 h 2.5 q 0.12,0.45 0.34,1.03 0.22,0.57 0.64,1.45 l 4.06,8.94 q 0.29,0.63 0.63,1.48 0.36,0.82 0.63,1.53 -0.03,-0.35 -0.05,-0.77 -0.02,-0.42 -0.03,-0.85 -0.02,-0.45 -0.03,-0.87 0,-0.45 0,-0.82 v -7.89 q 0,-1.05 -0.03,-1.8 -0.02,-0.75 -0.1,-1.43 h 2.34 q -0.08,0.7 -0.12,1.43 -0.02,0.73 -0.02,1.8 v 12.44 q 0,0.98 0.02,1.72 0.03,0.7 0.12,1.32 z m 13.82,0 q -0.08,-0.59 -0.21,-1.27 -0.12,-0.68 -0.24,-1.2 l -0.64,-2.57 h -5.13 l -0.64,2.57 q -0.12,0.42 -0.19,0.73 -0.07,0.3 -0.12,0.57 -0.05,0.25 -0.1,0.54 -0.03,0.25 -0.08,0.63 h -2.63 q 0.17,-0.47 0.4,-1.2 0.22,-0.75 0.45,-1.57 l 3.53,-13.56 q 0.22,-0.9 0.34,-1.38 0.12,-0.52 0.17,-0.98 h 2.79 q 0.03,0.21 0.07,0.42 0.03,0.19 0.1,0.45 0.07,0.25 0.14,0.61 0.1,0.35 0.24,0.9 l 3.56,13.56 q 0.31,1.13 0.46,1.74 0.17,0.59 0.36,1.03 z M 159.73,87 q -0.05,-0.19 -0.12,-0.45 -0.05,-0.28 -0.17,-0.87 -0.1,0.42 -0.16,0.65 -0.05,0.21 -0.08,0.35 -0.02,0.12 -0.03,0.19 -0.02,0.05 -0.03,0.12 l -1.67,6.95 h 3.97 z m 9.99,14.68 q -0.05,-0.4 -0.17,-0.97 -0.13,-0.57 -0.34,-1.38 l -3.43,-13.56 q -0.27,-1.05 -0.45,-1.69 -0.17,-0.63 -0.36,-1.1 h 2.64 q 0.07,0.59 0.17,1.22 0.12,0.61 0.26,1.25 l 2.66,11.61 q 0.03,0.12 0.08,0.33 0.05,0.21 0.1,0.47 0.07,0.23 0.12,0.52 0.05,0.25 0.1,0.47 0.12,-0.54 0.19,-0.98 0.1,-0.47 0.17,-0.8 l 2.66,-11.61 q 0.1,-0.45 0.16,-0.77 0.08,-0.33 0.13,-0.59 0.05,-0.28 0.08,-0.54 0.03,-0.25 0.07,-0.57 h 2.64 q -0.08,0.21 -0.16,0.47 -0.08,0.23 -0.17,0.57 -0.1,0.33 -0.21,0.75 -0.12,0.42 -0.26,1 l -3.43,13.56 q -0.4,1.57 -0.5,2.35 z"  />
</svg>
