<svg
   width="500"
   height="500"
   viewBox="0 0 500 500"
   version="1.1"
   xmlns="http://www.w3.org/2000/svg"
   xmlns:svg="http://www.w3.org/2000/svg">
  <circle
       cx="250"
       cy="250"
       r="250" />
  <path
       style="fill:#ffffff"
       d="m 97.48,326.62 -16.24,-15.37 18.79,-6.84 z m 40.47,-123.27 q -0.04,0.43 -0.08,0.87 -0.02,0.4 -0.04,0.87 -0.02,0.46 -0.04,1.02 0,0.56 0,1.24 v 16.64 q 0,1.36 0.02,2.26 0.04,0.87 0.14,1.73 h -2.96 q 0.08,-0.87 0.12,-1.73 0.04,-0.9 0.04,-2.26 v -16.64 q 0,-0.71 -0.02,-1.24 0,-0.56 -0.02,-0.99 -0.02,-0.46 -0.06,-0.87 -0.02,-0.43 -0.06,-0.9 z m 8.27,25.12 q -2.51,0 -4.09,-2.51 -0.9,-1.42 -1.28,-3.12 -0.76,-3.28 -0.76,-7.11 0,-1.24 0.08,-2.44 0.1,-1.24 0.25,-2.35 0.16,-1.14 0.37,-2.1 0.21,-0.96 0.49,-1.67 0.8,-2.1 2.06,-3.19 1.27,-1.11 2.9,-1.11 2.53,0 4.11,2.51 0.9,1.42 1.28,3.12 0.39,1.64 0.56,3.46 0.19,1.79 0.19,3.71 0,2.88 -0.39,5.26 -0.37,2.38 -1.05,3.9 -1.65,3.65 -4.73,3.65 z m 0.02,-3.59 q 0.64,0 1.19,-0.34 0.55,-0.34 0.92,-0.96 0.66,-1.08 1.01,-3.16 0.35,-2.07 0.35,-4.79 0,-2.72 -0.35,-4.73 -0.35,-2.04 -1.01,-3.19 -0.35,-0.62 -0.92,-0.96 -0.55,-0.34 -1.21,-0.34 -1.36,0 -2.18,1.58 -1.28,2.41 -1.28,7.52 0,2.44 0.25,4.36 0.27,1.92 0.74,3 0.9,2.01 2.49,2.01 z m 13.84,3.59 q -2.51,0 -4.09,-2.51 -0.9,-1.42 -1.28,-3.12 -0.76,-3.28 -0.76,-7.11 0,-1.24 0.08,-2.44 0.1,-1.24 0.25,-2.35 0.16,-1.14 0.37,-2.1 0.21,-0.96 0.49,-1.67 0.8,-2.1 2.06,-3.19 1.27,-1.11 2.9,-1.11 2.53,0 4.11,2.51 0.9,1.42 1.28,3.12 0.39,1.64 0.56,3.46 0.19,1.79 0.19,3.71 0,2.88 -0.39,5.26 -0.37,2.38 -1.05,3.9 -1.65,3.65 -4.73,3.65 z m 0.02,-3.59 q 0.64,0 1.19,-0.34 0.55,-0.34 0.92,-0.96 0.66,-1.08 1.01,-3.16 0.35,-2.07 0.35,-4.79 0,-2.72 -0.35,-4.73 -0.35,-2.04 -1.01,-3.19 -0.35,-0.62 -0.92,-0.96 -0.55,-0.34 -1.21,-0.34 -1.36,0 -2.18,1.58 -1.28,2.41 -1.28,7.52 0,2.44 0.25,4.36 0.27,1.92 0.74,3 0.9,2.01 2.49,2.01 z m 17.54,-1.36 q 0,1.64 0.02,2.63 0.04,0.96 0.14,1.82 h -2.9 q 0.1,-0.8 0.12,-1.82 0.04,-1.02 0.04,-2.57 v -16.3 q 0,-0.65 -0.02,-1.14 0,-0.49 -0.02,-0.96 -0.02,-0.46 -0.06,-0.93 -0.02,-0.46 -0.06,-0.99 0.29,0.03 0.55,0.06 0.27,0 0.55,0.03 0.27,0 0.6,0 0.33,0 0.78,0 h 5.45 q 0.47,0 0.82,0 0.37,-0.03 0.66,-0.03 0.31,-0.03 0.58,-0.06 0.29,-0.06 0.6,-0.12 v 4.18 q -0.53,-0.12 -1.13,-0.15 -0.6,-0.06 -1.54,-0.06 h -5.18 v 6.56 h 4.17 q 0.92,0 1.5,-0.03 0.58,-0.06 1.15,-0.19 v 4.11 q -0.55,-0.12 -1.15,-0.15 -0.6,-0.06 -1.5,-0.06 h -4.17 z m 20.85,4.67 q -0.53,-0.12 -1.07,-0.19 -0.55,-0.03 -1.44,-0.03 h -6.07 q -0.45,0 -0.78,0 -0.33,0 -0.6,0 -0.27,0.03 -0.55,0.03 -0.25,0.03 -0.55,0.06 0.08,-0.93 0.12,-1.82 0.04,-0.9 0.04,-2.26 v -16.73 q 0,-1.21 -0.04,-2.04 -0.02,-0.87 -0.12,-1.95 0.29,0.03 0.55,0.06 0.25,0 0.53,0.03 0.29,0 0.62,0 0.33,0 0.78,0 h 5.88 q 0.74,0 1.28,-0.03 0.55,-0.06 1.23,-0.19 v 4.08 q -0.27,-0.06 -0.55,-0.09 -0.27,-0.06 -0.56,-0.06 -0.29,-0.03 -0.64,-0.03 -0.33,-0.03 -0.76,-0.03 h -5.61 v 6.37 h 4.73 q 0.76,0 1.32,-0.03 0.56,-0.06 1.21,-0.19 v 4.05 q -0.29,-0.06 -0.56,-0.09 -0.25,-0.06 -0.55,-0.06 -0.29,-0.03 -0.64,-0.03 -0.33,-0.03 -0.78,-0.03 h -4.75 v 7.3 H 196 q 0.82,0 1.34,-0.03 0.53,-0.06 1.15,-0.19 z m 13.34,0 q -0.53,-0.12 -1.07,-0.19 -0.55,-0.03 -1.44,-0.03 h -6.07 q -0.45,0 -0.78,0 -0.33,0 -0.6,0 -0.27,0.03 -0.55,0.03 -0.25,0.03 -0.55,0.06 0.08,-0.93 0.12,-1.82 0.04,-0.9 0.04,-2.26 v -16.73 q 0,-1.21 -0.04,-2.04 -0.02,-0.87 -0.12,-1.95 0.29,0.03 0.55,0.06 0.25,0 0.53,0.03 0.29,0 0.62,0 0.33,0 0.78,0 h 5.88 q 0.74,0 1.28,-0.03 0.55,-0.06 1.23,-0.19 v 4.08 q -0.27,-0.06 -0.55,-0.09 -0.27,-0.06 -0.56,-0.06 -0.29,-0.03 -0.64,-0.03 -0.33,-0.03 -0.76,-0.03 h -5.61 v 6.37 h 4.73 q 0.76,0 1.32,-0.03 0.56,-0.06 1.21,-0.19 v 4.05 q -0.29,-0.06 -0.56,-0.09 -0.25,-0.06 -0.55,-0.06 -0.29,-0.03 -0.64,-0.03 -0.33,-0.03 -0.78,-0.03 h -4.75 v 7.3 h 5.84 q 0.82,0 1.34,-0.03 0.53,-0.06 1.15,-0.19 z m 9.11,-4.24 q 0,1.27 0.02,2.17 0.04,0.9 0.14,1.86 h -2.94 q 0.1,-0.99 0.12,-1.86 0.04,-0.9 0.04,-2.17 v -16.89 h -2.63 q -0.88,0 -1.52,0.06 -0.64,0.03 -1.15,0.15 v -4.14 q 0.53,0.12 1.17,0.19 0.64,0.03 1.48,0.03 h 7.71 q 0.53,0 0.93,0 0.41,-0.03 0.74,-0.03 0.33,-0.03 0.62,-0.06 0.29,-0.06 0.56,-0.12 v 4.14 q -0.55,-0.12 -1.19,-0.15 -0.62,-0.06 -1.67,-0.06 h -2.43 z m 13.45,4.02 q 0.1,-0.93 0.12,-1.82 0.04,-0.9 0.04,-2.17 v -16.73 q 0,-1.11 -0.04,-2.01 -0.02,-0.93 -0.12,-1.98 0.62,0.06 1.15,0.09 0.55,0 1.32,0 h 4.07 q 1.42,0 2.43,0.56 1.01,0.53 1.71,1.64 0.6,0.93 0.9,2.29 0.31,1.36 0.31,3.03 0,3.53 -1.3,5.69 -0.72,1.14 -1.73,1.7 -1.01,0.53 -2.41,0.53 h -3.72 v 5.17 q 0,1.27 0.02,2.2 0.04,0.93 0.14,1.82 z m 6.44,-12.74 q 1.34,0 2.04,-1.08 0.72,-1.11 0.72,-3.16 0,-1.89 -0.64,-2.97 -0.33,-0.59 -0.84,-0.84 -0.51,-0.28 -1.28,-0.28 h -3.72 v 8.32 z m 18.46,12.96 q -0.53,-0.12 -1.07,-0.19 -0.55,-0.03 -1.44,-0.03 h -6.07 q -0.45,0 -0.78,0 -0.33,0 -0.6,0 -0.27,0.03 -0.55,0.03 -0.25,0.03 -0.55,0.06 0.08,-0.93 0.12,-1.82 0.04,-0.9 0.04,-2.26 v -16.73 q 0,-1.21 -0.04,-2.04 -0.02,-0.87 -0.12,-1.95 0.29,0.03 0.55,0.06 0.25,0 0.53,0.03 0.29,0 0.62,0 0.33,0 0.78,0 h 5.88 q 0.74,0 1.28,-0.03 0.55,-0.06 1.23,-0.19 v 4.08 q -0.27,-0.06 -0.55,-0.09 -0.27,-0.06 -0.56,-0.06 -0.29,-0.03 -0.64,-0.03 -0.33,-0.03 -0.76,-0.03 h -5.61 v 6.37 h 4.73 q 0.76,0 1.32,-0.03 0.56,-0.06 1.21,-0.19 v 4.05 q -0.29,-0.06 -0.56,-0.09 -0.25,-0.06 -0.55,-0.06 -0.29,-0.03 -0.64,-0.03 -0.33,-0.03 -0.78,-0.03 h -4.75 v 7.3 h 5.84 q 0.82,0 1.34,-0.03 0.53,-0.06 1.15,-0.19 z m 12.17,-0.22 q -0.04,-0.56 -0.29,-1.76 -0.23,-1.21 -0.72,-3.19 -0.39,-1.61 -0.74,-2.63 -0.35,-1.05 -0.72,-1.67 -0.35,-0.62 -0.78,-0.87 -0.43,-0.25 -0.99,-0.25 h -2.9 v 6.31 q 0,1.39 0.02,2.29 0.04,0.87 0.14,1.76 h -2.9 q 0.04,-0.49 0.06,-0.9 0.04,-0.43 0.06,-0.9 0.02,-0.46 0.02,-0.99 0.02,-0.53 0.02,-1.24 v -16.65 q 0,-0.62 -0.02,-1.11 0,-0.49 -0.02,-0.96 -0.02,-0.46 -0.06,-0.93 -0.02,-0.46 -0.06,-1.02 0.6,0.06 1.15,0.09 0.55,0 1.34,0 h 4.67 q 2.24,0 3.45,1.67 1.21,1.67 1.21,4.76 0,3 -0.99,4.61 -0.41,0.68 -0.88,1.05 -0.45,0.37 -1.28,0.74 0.47,0.25 0.8,0.62 0.33,0.37 0.7,1.27 0.37,0.9 0.84,2.51 0.47,1.61 1.19,4.33 0.06,0.22 0.16,0.62 0.12,0.37 0.25,0.8 0.14,0.43 0.27,0.9 0.14,0.43 0.23,0.74 z m -3.23,-13.89 q 0.55,0 1.03,-0.28 0.49,-0.31 0.82,-0.84 0.62,-0.99 0.62,-2.72 0,-3.37 -2.39,-3.37 h -3.99 v 7.21 z m 21.94,13.89 q -0.08,-0.74 -0.31,-1.79 -0.21,-1.08 -0.55,-2.38 l -2.8,-10.61 q -0.14,-0.53 -0.25,-0.96 -0.1,-0.46 -0.21,-0.99 -0.12,-0.53 -0.23,-1.18 -0.12,-0.68 -0.29,-1.61 0.02,0.62 0.04,1.36 0.04,0.74 0.06,1.45 0.04,0.68 0.04,1.24 0.02,0.56 0.02,0.8 v 10.15 q 0,1.61 0.02,2.63 0.04,0.99 0.14,1.89 h -2.73 q 0.08,-0.93 0.12,-1.95 0.04,-1.02 0.04,-2.57 v -15.53 q 0,-1.52 -0.04,-2.57 -0.02,-1.05 -0.12,-2.01 h 3.56 q 0.21,1.7 0.72,3.68 l 3.95,15.34 3.93,-15.34 q 0.29,-1.14 0.45,-1.95 0.16,-0.84 0.25,-1.73 h 3.58 q -0.04,0.56 -0.08,1.05 -0.02,0.49 -0.04,1.02 -0.02,0.53 -0.04,1.14 0,0.59 0,1.36 v 15.53 q 0,1.7 0.02,2.69 0.04,0.96 0.14,1.82 h -2.73 q 0.1,-0.96 0.12,-1.92 0.04,-0.99 0.04,-2.6 v -10.27 q 0.06,-2.04 0.1,-3.22 0.04,-1.18 0.06,-1.52 -0.19,1.27 -0.45,2.47 -0.23,1.21 -0.45,2.04 l -2.92,10.89 q -0.16,0.56 -0.29,1.14 -0.12,0.56 -0.23,1.11 -0.12,0.56 -0.21,1.05 -0.08,0.46 -0.12,0.8 z m 15.11,-24.62 q -0.04,0.43 -0.08,0.87 -0.02,0.4 -0.04,0.87 -0.02,0.46 -0.04,1.02 0,0.56 0,1.24 v 16.64 q 0,1.36 0.02,2.26 0.04,0.87 0.14,1.73 h -2.96 q 0.08,-0.87 0.12,-1.73 0.04,-0.9 0.04,-2.26 v -16.64 q 0,-0.71 -0.02,-1.24 0,-0.56 -0.02,-0.99 -0.02,-0.46 -0.06,-0.87 -0.02,-0.43 -0.06,-0.9 z m 12.89,24.62 q -0.25,-0.8 -0.55,-1.55 -0.27,-0.74 -0.7,-1.76 l -5.02,-12.03 q -0.27,-0.71 -0.62,-1.67 -0.35,-0.96 -0.7,-2.04 0,0.15 0,0.28 0.02,0.09 0.02,0.25 0.02,0.15 0.02,0.4 0.02,0.22 0.04,0.65 0,0.22 0,0.59 0.02,0.34 0.02,0.71 0.02,0.37 0.02,0.74 0.02,0.37 0.02,0.65 v 10.15 q 0,1.58 0.04,2.69 0.04,1.11 0.12,1.95 h -2.84 q 0.08,-0.77 0.12,-1.92 0.04,-1.18 0.04,-2.75 v -15.96 q 0,-1.21 -0.04,-2.1 -0.02,-0.93 -0.12,-1.89 h 3.04 q 0.14,0.59 0.41,1.36 0.27,0.74 0.78,1.92 l 4.93,11.78 q 0.35,0.84 0.76,1.95 0.43,1.08 0.76,2.01 -0.04,-0.46 -0.06,-1.02 -0.02,-0.56 -0.04,-1.11 -0.02,-0.59 -0.04,-1.14 0,-0.59 0,-1.08 v -10.39 q 0,-1.39 -0.04,-2.38 -0.02,-0.99 -0.12,-1.89 h 2.84 q -0.1,0.93 -0.14,1.89 -0.02,0.96 -0.02,2.38 V 224 q 0,1.3 0.02,2.26 0.04,0.93 0.14,1.73 z m 19.23,-24.62 q -0.1,0.87 -0.14,1.79 -0.02,0.93 -0.02,2.41 v 10.98 q 0,4.83 -1.71,7.42 -1.71,2.57 -4.93,2.57 -1.64,0 -2.92,-0.77 -1.28,-0.74 -2.1,-2.13 -1.46,-2.51 -1.46,-7.11 v -10.92 q 0,-1.45 -0.04,-2.41 -0.02,-0.99 -0.12,-1.82 h 2.91 q -0.1,0.8 -0.14,1.76 -0.02,0.96 -0.02,2.47 v 10.92 q 0,3.16 0.99,4.76 1.01,1.61 3,1.61 1.97,0 2.96,-1.61 0.99,-1.61 0.99,-4.79 v -10.89 q 0,-1.48 -0.04,-2.41 -0.02,-0.96 -0.12,-1.82 z m 9.58,20.6 q 0,1.27 0.02,2.17 0.04,0.9 0.14,1.86 h -2.94 q 0.1,-0.99 0.12,-1.86 0.04,-0.9 0.04,-2.17 v -16.89 h -2.63 q -0.88,0 -1.52,0.06 -0.64,0.03 -1.15,0.15 v -4.14 q 0.53,0.12 1.17,0.19 0.64,0.03 1.48,0.03 h 7.71 q 0.53,0 0.93,0 0.41,-0.03 0.74,-0.03 0.33,-0.03 0.62,-0.06 0.29,-0.06 0.56,-0.12 v 4.14 q -0.55,-0.12 -1.19,-0.15 -0.62,-0.06 -1.67,-0.06 h -2.43 z m 18.03,4.24 q -0.53,-0.12 -1.07,-0.19 -0.55,-0.03 -1.44,-0.03 h -6.07 q -0.45,0 -0.78,0 -0.33,0 -0.6,0 -0.27,0.03 -0.55,0.03 -0.25,0.03 -0.55,0.06 0.08,-0.93 0.12,-1.82 0.04,-0.9 0.04,-2.26 v -16.73 q 0,-1.21 -0.04,-2.04 -0.02,-0.87 -0.12,-1.95 0.29,0.03 0.55,0.06 0.25,0 0.53,0.03 0.29,0 0.62,0 0.33,0 0.78,0 h 5.88 q 0.74,0 1.28,-0.03 0.55,-0.06 1.23,-0.19 v 4.08 q -0.27,-0.06 -0.55,-0.09 -0.27,-0.06 -0.56,-0.06 -0.29,-0.03 -0.64,-0.03 -0.33,-0.03 -0.76,-0.03 h -5.61 v 6.37 h 4.73 q 0.76,0 1.32,-0.03 0.56,-0.06 1.21,-0.19 v 4.05 q -0.29,-0.06 -0.56,-0.09 -0.25,-0.06 -0.55,-0.06 -0.29,-0.03 -0.64,-0.03 -0.33,-0.03 -0.78,-0.03 h -4.75 v 7.3 h 5.84 q 0.82,0 1.34,-0.03 0.53,-0.06 1.15,-0.19 z M 143.99,194.55 q -0.07,-0.53 -0.26,-1.27 -0.19,-0.74 -0.49,-1.82 l -4.98,-17.85 q -0.4,-1.39 -0.65,-2.23 -0.26,-0.84 -0.51,-1.45 h 3.84 q 0.09,0.77 0.26,1.61 0.16,0.8 0.37,1.64 l 3.86,15.28 q 0.05,0.15 0.12,0.43 0.07,0.28 0.14,0.62 0.09,0.31 0.16,0.68 0.07,0.34 0.14,0.62 0.16,-0.71 0.28,-1.3 0.14,-0.62 0.26,-1.05 l 3.86,-15.28 q 0.14,-0.59 0.23,-1.02 0.12,-0.43 0.19,-0.77 0.07,-0.37 0.12,-0.71 0.05,-0.34 0.09,-0.74 h 3.84 q -0.12,0.28 -0.23,0.62 -0.12,0.31 -0.26,0.74 -0.14,0.43 -0.3,0.99 -0.16,0.56 -0.37,1.33 l -4.98,17.85 q -0.58,2.07 -0.72,3.09 z m 25.98,0.22 q -0.63,-0.12 -1.28,-0.19 -0.65,-0.03 -1.72,-0.03 h -7.26 q -0.54,0 -0.93,0 -0.4,0 -0.72,0 -0.33,0.03 -0.65,0.03 -0.3,0.03 -0.65,0.06 0.09,-0.93 0.14,-1.82 0.05,-0.9 0.05,-2.26 v -16.73 q 0,-1.21 -0.05,-2.04 -0.02,-0.87 -0.14,-1.95 0.35,0.03 0.65,0.06 0.3,0 0.63,0.03 0.35,0 0.74,0 0.4,0 0.93,0 h 7.03 q 0.88,0 1.54,-0.03 0.65,-0.06 1.47,-0.19 v 4.08 q -0.33,-0.06 -0.65,-0.09 -0.33,-0.06 -0.68,-0.06 -0.35,-0.03 -0.77,-0.03 -0.4,-0.03 -0.91,-0.03 h -6.7 v 6.37 h 5.66 q 0.91,0 1.58,-0.03 0.68,-0.06 1.44,-0.19 v 4.05 q -0.35,-0.06 -0.68,-0.09 -0.3,-0.06 -0.65,-0.06 -0.35,-0.03 -0.77,-0.03 -0.4,-0.03 -0.93,-0.03 h -5.68 v 7.3 h 6.98 q 0.98,0 1.61,-0.03 0.63,-0.06 1.37,-0.19 z m 14.55,-0.22 q -0.05,-0.56 -0.35,-1.76 -0.28,-1.21 -0.86,-3.19 -0.47,-1.61 -0.88,-2.63 -0.42,-1.05 -0.86,-1.67 -0.42,-0.62 -0.93,-0.87 -0.51,-0.25 -1.19,-0.25 h -3.47 v 6.31 q 0,1.39 0.02,2.29 0.05,0.87 0.16,1.76 h -3.47 q 0.05,-0.49 0.07,-0.9 0.05,-0.43 0.07,-0.9 0.02,-0.46 0.02,-0.99 0.02,-0.53 0.02,-1.24 v -16.67 q 0,-0.62 -0.02,-1.11 0,-0.49 -0.02,-0.96 -0.02,-0.46 -0.07,-0.93 -0.02,-0.46 -0.07,-1.02 0.72,0.06 1.37,0.09 0.65,0 1.61,0 h 5.59 q 2.68,0 4.12,1.67 1.44,1.67 1.44,4.76 0,3 -1.19,4.61 -0.49,0.68 -1.05,1.05 -0.54,0.37 -1.54,0.74 0.56,0.25 0.95,0.62 0.4,0.37 0.84,1.27 0.44,0.9 1,2.51 0.56,1.61 1.42,4.33 0.07,0.22 0.19,0.62 0.14,0.37 0.3,0.8 0.16,0.43 0.33,0.9 0.16,0.43 0.28,0.74 z m -3.86,-13.89 q 0.65,0 1.23,-0.28 0.58,-0.31 0.98,-0.84 0.74,-0.99 0.74,-2.72 0,-3.37 -2.86,-3.37 h -4.77 v 7.21 z m 18.21,9.87 q 0,1.27 0.02,2.17 0.05,0.9 0.16,1.86 h -3.52 q 0.12,-0.99 0.14,-1.86 0.05,-0.9 0.05,-2.17 v -16.89 h -3.14 q -1.05,0 -1.82,0.06 -0.77,0.03 -1.37,0.15 v -4.14 q 0.63,0.12 1.4,0.19 0.77,0.03 1.77,0.03 h 9.22 q 0.63,0 1.12,0 0.49,-0.03 0.88,-0.03 0.4,-0.03 0.74,-0.06 0.35,-0.06 0.68,-0.12 v 4.14 q -0.65,-0.12 -1.42,-0.15 -0.74,-0.06 -2,-0.06 h -2.91 z m 11.87,-20.6 q -0.05,0.43 -0.09,0.87 -0.02,0.4 -0.05,0.87 -0.02,0.46 -0.05,1.02 0,0.56 0,1.24 v 16.64 q 0,1.36 0.02,2.26 0.05,0.87 0.16,1.73 h -3.54 q 0.09,-0.87 0.14,-1.73 0.05,-0.9 0.05,-2.26 v -16.64 q 0,-0.71 -0.02,-1.24 0,-0.56 -0.02,-0.99 -0.02,-0.46 -0.07,-0.87 -0.02,-0.43 -0.07,-0.9 z m 19.11,17.11 q -0.33,1.67 -0.68,2.72 -0.35,1.02 -0.88,1.92 -1,1.64 -2.63,2.51 -1.61,0.87 -3.72,0.87 -3.82,0 -5.98,-2.97 -1.23,-1.7 -1.89,-4.21 -0.65,-2.51 -0.65,-5.51 0,-3.09 0.7,-5.66 0.7,-2.57 2.03,-4.33 1.05,-1.42 2.56,-2.17 1.51,-0.77 3.26,-0.77 1.37,0 2.42,0.37 1.07,0.34 2.05,1.11 1.58,1.3 2.47,3.37 0.21,0.49 0.35,0.99 0.16,0.49 0.37,1.39 l -3.24,0.99 q -0.26,-1.02 -0.47,-1.58 -0.19,-0.56 -0.54,-1.08 -1.19,-1.92 -3.4,-1.92 -1.23,0 -2.23,0.62 -0.98,0.62 -1.68,1.82 -0.68,1.18 -1.05,2.88 -0.35,1.67 -0.35,3.8 0,2.13 0.37,3.84 0.37,1.7 1.05,2.91 0.7,1.18 1.68,1.82 0.98,0.62 2.21,0.62 1.23,0 2.21,-0.59 1,-0.62 1.56,-1.7 0.3,-0.59 0.47,-1.18 0.16,-0.59 0.3,-1.67 z m 15.71,7.52 q -0.12,-0.77 -0.3,-1.67 -0.16,-0.9 -0.35,-1.58 l -0.93,-3.37 h -7.45 l -0.93,3.37 q -0.16,0.56 -0.28,0.96 -0.09,0.4 -0.16,0.74 -0.07,0.34 -0.14,0.71 -0.05,0.34 -0.12,0.84 h -3.82 q 0.26,-0.62 0.58,-1.58 0.33,-0.99 0.65,-2.07 l 5.12,-17.85 q 0.33,-1.18 0.49,-1.82 0.16,-0.68 0.26,-1.3 h 4.05 q 0.05,0.28 0.09,0.56 0.05,0.25 0.14,0.59 0.09,0.34 0.21,0.8 0.14,0.46 0.35,1.18 l 5.17,17.85 q 0.44,1.48 0.68,2.29 0.26,0.77 0.51,1.36 z m -4.91,-19.33 q -0.07,-0.25 -0.16,-0.59 -0.07,-0.37 -0.26,-1.14 -0.14,0.56 -0.23,0.87 -0.07,0.28 -0.12,0.46 -0.02,0.15 -0.05,0.25 -0.02,0.06 -0.05,0.15 l -2.42,9.16 h 5.77 z m 23.79,19.55 q -0.63,-0.12 -1.35,-0.19 -0.72,-0.03 -1.96,-0.03 h -6.89 q -0.98,0 -1.65,0 -0.68,0.03 -1.3,0.09 0.12,-0.87 0.14,-1.79 0.05,-0.93 0.05,-2.29 v -16.05 q 0,-0.8 -0.02,-1.42 0,-0.62 -0.02,-1.14 -0.02,-0.56 -0.07,-1.02 -0.02,-0.49 -0.07,-0.99 h 3.52 q -0.05,0.46 -0.09,0.93 -0.02,0.46 -0.05,0.99 -0.02,0.49 -0.05,1.14 0,0.65 0,1.48 v 16.33 h 6.52 q 0.58,0 1.02,0 0.47,-0.03 0.84,-0.03 0.4,-0.03 0.72,-0.06 0.35,-0.06 0.72,-0.12 z m 20.07,-7.89 q 0.07,1.05 0.19,1.64 0.14,0.56 0.47,1.08 0.51,0.9 1.37,1.36 0.88,0.46 2.03,0.46 1.75,0 2.72,-0.96 1,-0.99 1,-2.75 0,-0.96 -0.33,-1.7 -0.3,-0.74 -0.84,-1.14 -0.26,-0.19 -0.49,-0.31 -0.21,-0.12 -0.61,-0.25 -0.37,-0.15 -1.07,-0.37 -0.68,-0.22 -1.89,-0.59 -1.3,-0.4 -2.1,-0.8 -0.79,-0.43 -1.42,-1.08 -1.79,-1.86 -1.79,-5.01 0,-1.61 0.47,-2.91 0.47,-1.33 1.33,-2.26 0.88,-0.93 2.1,-1.42 1.21,-0.49 2.72,-0.49 2,0 3.47,0.8 1.47,0.77 2.33,2.32 0.44,0.77 0.68,1.58 0.26,0.77 0.47,2.01 l -3.33,0.53 q -0.12,-0.8 -0.26,-1.27 -0.14,-0.46 -0.44,-0.93 -0.93,-1.48 -2.91,-1.48 -1.54,0 -2.47,0.93 -0.93,0.93 -0.93,2.44 0,1.89 1.58,2.81 0.19,0.09 0.35,0.19 0.19,0.06 0.51,0.19 0.33,0.12 0.88,0.31 0.56,0.15 1.54,0.43 1.4,0.4 2.28,0.87 0.88,0.43 1.51,1.02 1,0.99 1.47,2.29 0.47,1.27 0.47,3.03 0,3.31 -1.47,5.26 -1.84,2.35 -5.56,2.35 -1.44,0 -2.75,-0.43 -1.3,-0.43 -2.14,-1.18 -1.37,-1.24 -2.05,-3.53 -0.16,-0.53 -0.26,-1.05 -0.07,-0.56 -0.19,-1.52 z m 13.9,7.67 q 0.12,-0.93 0.14,-1.82 0.05,-0.9 0.05,-2.17 v -16.73 q 0,-1.11 -0.05,-2.01 -0.02,-0.93 -0.14,-1.98 0.74,0.06 1.37,0.09 0.65,0 1.58,0 h 4.87 q 1.7,0 2.91,0.56 1.21,0.53 2.05,1.64 0.72,0.93 1.07,2.29 0.37,1.36 0.37,3.03 0,3.53 -1.56,5.69 -0.86,1.14 -2.07,1.7 -1.21,0.53 -2.89,0.53 h -4.45 v 5.17 q 0,1.27 0.02,2.2 0.05,0.93 0.16,1.82 z m 7.71,-12.74 q 1.61,0 2.44,-1.08 0.86,-1.11 0.86,-3.16 0,-1.89 -0.77,-2.97 -0.4,-0.59 -1,-0.84 -0.61,-0.28 -1.54,-0.28 h -4.45 v 8.32 z m 22.07,12.96 q -0.63,-0.12 -1.28,-0.19 -0.65,-0.03 -1.72,-0.03 h -7.26 q -0.54,0 -0.93,0 -0.4,0 -0.72,0 -0.33,0.03 -0.65,0.03 -0.3,0.03 -0.65,0.06 0.09,-0.93 0.14,-1.82 0.05,-0.9 0.05,-2.26 v -16.73 q 0,-1.21 -0.05,-2.04 -0.02,-0.87 -0.14,-1.95 0.35,0.03 0.65,0.06 0.3,0 0.63,0.03 0.35,0 0.74,0 0.4,0 0.93,0 h 7.03 q 0.88,0 1.54,-0.03 0.65,-0.06 1.47,-0.19 v 4.08 q -0.33,-0.06 -0.65,-0.09 -0.33,-0.06 -0.68,-0.06 -0.35,-0.03 -0.77,-0.03 -0.4,-0.03 -0.91,-0.03 h -6.7 v 6.37 h 5.66 q 0.91,0 1.58,-0.03 0.68,-0.06 1.44,-0.19 v 4.05 q -0.35,-0.06 -0.68,-0.09 -0.3,-0.06 -0.65,-0.06 -0.35,-0.03 -0.77,-0.03 -0.4,-0.03 -0.93,-0.03 h -5.68 v 7.3 h 6.98 q 0.98,0 1.61,-0.03 0.63,-0.06 1.37,-0.19 z m 15.95,0 q -0.63,-0.12 -1.28,-0.19 -0.65,-0.03 -1.72,-0.03 h -7.26 q -0.54,0 -0.93,0 -0.4,0 -0.72,0 -0.33,0.03 -0.65,0.03 -0.3,0.03 -0.65,0.06 0.09,-0.93 0.14,-1.82 0.05,-0.9 0.05,-2.26 v -16.73 q 0,-1.21 -0.05,-2.04 -0.02,-0.87 -0.14,-1.95 0.35,0.03 0.65,0.06 0.3,0 0.63,0.03 0.35,0 0.74,0 0.4,0 0.93,0 h 7.03 q 0.88,0 1.54,-0.03 0.65,-0.06 1.47,-0.19 v 4.08 q -0.33,-0.06 -0.65,-0.09 -0.33,-0.06 -0.68,-0.06 -0.35,-0.03 -0.77,-0.03 -0.4,-0.03 -0.91,-0.03 h -6.7 v 6.37 h 5.66 q 0.91,0 1.58,-0.03 0.68,-0.06 1.44,-0.19 v 4.05 q -0.35,-0.06 -0.68,-0.09 -0.3,-0.06 -0.65,-0.06 -0.35,-0.03 -0.77,-0.03 -0.4,-0.03 -0.93,-0.03 h -5.68 v 7.3 h 6.98 q 0.98,0 1.61,-0.03 0.63,-0.06 1.37,-0.19 z m 2.91,-20.91 q 0,-1.3 -0.05,-2.13 -0.02,-0.87 -0.14,-1.89 0.35,0.03 0.65,0.06 0.3,0 0.63,0.03 0.33,0 0.72,0 0.4,0 0.95,0 h 4.21 q 2.19,0 3.68,0.65 1.49,0.62 2.61,2.07 1.28,1.61 1.93,3.99 0.65,2.35 0.65,5.38 0,6.37 -2.75,9.84 -1.12,1.39 -2.58,2.04 -1.44,0.65 -3.52,0.65 h -4.24 q -0.54,0 -0.93,0 -0.4,0 -0.72,0 -0.33,0.03 -0.65,0.03 -0.3,0.03 -0.65,0.06 0.05,-0.46 0.07,-0.9 0.05,-0.46 0.07,-0.93 0.02,-0.46 0.02,-0.99 0.02,-0.56 0.02,-1.27 z m 6.8,17.04 q 1.44,0 2.4,-0.46 0.98,-0.46 1.72,-1.52 0.84,-1.18 1.26,-2.91 0.44,-1.76 0.44,-3.96 0,-4.39 -1.61,-6.62 -0.72,-0.99 -1.7,-1.42 -0.95,-0.43 -2.49,-0.43 h -3.72 v 17.32 z M 102.14,324.48 q 0,-1.15 -0.04,-1.89 -0.02,-0.77 -0.11,-1.67 0.27,0.03 0.51,0.05 0.23,0 0.49,0.03 0.25,0 0.56,0 0.31,0 0.74,0 h 3.26 q 1.7,0 2.85,0.58 1.15,0.55 2.02,1.84 0.99,1.43 1.5,3.54 0.51,2.08 0.51,4.77 0,5.65 -2.13,8.72 -0.87,1.23 -2,1.81 -1.12,0.58 -2.72,0.58 h -3.28 q -0.41,0 -0.72,0 -0.31,0 -0.56,0 -0.25,0.03 -0.51,0.03 -0.23,0.03 -0.51,0.05 0.04,-0.41 0.05,-0.8 0.04,-0.41 0.05,-0.82 0.02,-0.41 0.02,-0.88 0.02,-0.49 0.02,-1.12 z m 5.27,15.11 q 1.12,0 1.86,-0.41 0.76,-0.41 1.33,-1.34 0.65,-1.04 0.97,-2.58 0.34,-1.56 0.34,-3.51 0,-3.9 -1.24,-5.87 -0.56,-0.88 -1.32,-1.26 -0.74,-0.38 -1.93,-0.38 h -2.89 v 15.36 z m 15.37,-19.04 q 2.94,0 4.74,2.74 0.99,1.51 1.5,3.7 0.52,2.17 0.52,4.86 0,2.61 -0.49,4.72 -0.47,2.11 -1.35,3.62 -0.88,1.48 -2.13,2.3 -1.24,0.8 -2.78,0.8 -1.53,0 -2.78,-0.8 -1.24,-0.82 -2.13,-2.3 -0.87,-1.51 -1.35,-3.62 -0.47,-2.11 -0.47,-4.72 0,-2.66 0.52,-4.86 0.52,-2.22 1.53,-3.7 0.94,-1.4 2.07,-2.06 1.14,-0.69 2.58,-0.69 z m 0.05,19.48 q 0.97,0 1.75,-0.55 0.78,-0.58 1.32,-1.65 0.54,-1.07 0.83,-2.58 0.29,-1.51 0.29,-3.4 0,-2.08 -0.38,-3.7 -0.36,-1.65 -1.05,-2.69 -1.14,-1.67 -2.78,-1.67 -0.97,0 -1.77,0.58 -0.78,0.55 -1.33,1.62 -0.54,1.04 -0.85,2.55 -0.29,1.48 -0.29,3.35 0,2.06 0.38,3.73 0.38,1.67 1.08,2.74 1.14,1.67 2.8,1.67 z m 19.97,2.8 q -0.05,-0.49 -0.18,-1.26 -0.11,-0.8 -0.25,-1.51 l -1.93,-10.2 q -0.14,-0.8 -0.27,-1.62 -0.13,-0.85 -0.25,-1.89 -0.14,1.18 -0.29,2.03 -0.13,0.82 -0.25,1.48 l -1.91,10.2 q -0.16,0.93 -0.27,1.62 -0.11,0.66 -0.14,1.15 h -2.4 q -0.04,-0.25 -0.07,-0.41 -0.02,-0.19 -0.07,-0.44 -0.04,-0.27 -0.13,-0.71 -0.07,-0.47 -0.22,-1.26 l -2.87,-15.74 q -0.23,-1.21 -0.4,-1.92 -0.14,-0.71 -0.32,-1.34 h 2.89 q 0.04,0.71 0.11,1.4 0.07,0.66 0.22,1.56 l 1.68,10.45 q 0.09,0.63 0.22,1.56 0.13,0.93 0.22,1.65 0.18,-1.26 0.29,-1.95 0.11,-0.71 0.22,-1.29 l 2,-10.59 q 0.31,-1.67 0.4,-2.8 h 2.22 q 0.04,0.49 0.14,1.23 0.13,0.74 0.27,1.51 l 2.02,10.56 q 0.05,0.27 0.09,0.55 0.05,0.25 0.11,0.6 0.05,0.36 0.13,0.88 0.07,0.52 0.18,1.29 0.04,-0.25 0.05,-0.38 0.02,-0.14 0.04,-0.27 0.02,-0.16 0.04,-0.36 0.04,-0.22 0.07,-0.58 0.02,-0.16 0.05,-0.41 0.04,-0.27 0.07,-0.52 0.04,-0.27 0.05,-0.49 0.04,-0.25 0.05,-0.33 l 1.68,-10.34 q 0.14,-0.8 0.22,-1.56 0.07,-0.8 0.09,-1.37 h 2.89 q -0.09,0.36 -0.18,0.69 -0.07,0.33 -0.16,0.71 -0.07,0.36 -0.16,0.82 -0.09,0.44 -0.2,1.04 l -2.89,15.72 q -0.09,0.58 -0.16,0.96 -0.05,0.36 -0.09,0.55 -0.05,0.3 -0.09,0.47 -0.02,0.16 -0.04,0.3 -0.02,0.11 -0.04,0.25 -0.02,0.11 -0.04,0.33 z m 17.33,0 q -0.23,-0.71 -0.51,-1.37 -0.25,-0.66 -0.65,-1.56 l -4.65,-10.67 q -0.25,-0.63 -0.58,-1.48 -0.32,-0.85 -0.65,-1.81 0,0.14 0,0.25 0.02,0.08 0.02,0.22 0.02,0.14 0.02,0.36 0.02,0.19 0.04,0.58 0,0.19 0,0.52 0.02,0.3 0.02,0.63 0.02,0.33 0.02,0.66 0.02,0.33 0.02,0.58 v 9 q 0,1.4 0.04,2.39 0.04,0.99 0.11,1.73 h -2.63 q 0.07,-0.69 0.11,-1.7 0.04,-1.04 0.04,-2.44 v -14.15 q 0,-1.07 -0.04,-1.87 -0.02,-0.82 -0.11,-1.67 h 2.81 q 0.13,0.52 0.38,1.21 0.25,0.66 0.72,1.7 l 4.56,10.45 q 0.32,0.74 0.7,1.73 0.4,0.96 0.7,1.78 -0.04,-0.41 -0.05,-0.91 -0.02,-0.49 -0.04,-0.99 -0.02,-0.52 -0.04,-1.01 0,-0.52 0,-0.96 v -9.22 q 0,-1.23 -0.04,-2.11 -0.02,-0.88 -0.11,-1.67 h 2.63 q -0.09,0.82 -0.13,1.67 -0.02,0.85 -0.02,2.11 v 14.51 q 0,1.15 0.02,2 0.04,0.82 0.13,1.54 z M 117.11,156.78 q -0.11,0.77 -0.15,1.59 -0.02,0.82 -0.02,2.14 v 9.74 q 0,4.28 -1.93,6.58 -1.93,2.28 -5.54,2.28 -1.84,0 -3.29,-0.69 -1.45,-0.66 -2.37,-1.89 -1.64,-2.22 -1.64,-6.31 v -9.68 q 0,-1.29 -0.04,-2.14 -0.02,-0.88 -0.13,-1.62 h 3.26 q -0.11,0.71 -0.15,1.56 -0.02,0.85 -0.02,2.19 v 9.68 q 0,2.8 1.12,4.22 1.14,1.43 3.37,1.43 2.21,0 3.33,-1.43 1.12,-1.43 1.12,-4.25 v -9.66 q 0,-1.32 -0.04,-2.14 -0.02,-0.85 -0.13,-1.62 z m 3.09,21.83 q 0.11,-0.82 0.13,-1.62 0.04,-0.8 0.04,-1.92 v -14.84 q 0,-0.99 -0.04,-1.78 -0.02,-0.82 -0.13,-1.76 0.7,0.05 1.29,0.08 0.61,0 1.49,0 h 4.58 q 1.6,0 2.74,0.49 1.14,0.47 1.93,1.45 0.68,0.82 1.01,2.03 0.35,1.21 0.35,2.69 0,3.13 -1.47,5.05 -0.81,1.01 -1.95,1.51 -1.14,0.47 -2.72,0.47 h -4.18 v 4.58 q 0,1.12 0.02,1.95 0.04,0.82 0.15,1.62 z m 7.25,-11.3 q 1.51,0 2.3,-0.96 0.81,-0.99 0.81,-2.8 0,-1.67 -0.72,-2.63 -0.37,-0.52 -0.94,-0.74 -0.57,-0.25 -1.45,-0.25 h -4.18 v 7.38 z m -23.54,-19.46 q 0.22,0.68 0.42,1.05 0.19,0.37 0.54,0.74 1.34,1.58 3.93,1.58 2.4,0 3.81,-1.39 1.44,-1.39 1.44,-3.72 0,-2.29 -1.38,-3.63 -1.34,-1.36 -3.65,-1.36 -2.43,0 -3.97,1.43 -0.35,0.34 -0.54,0.62 -0.19,0.25 -0.42,0.77 l -4,-0.37 q 0.13,-0.84 0.19,-1.3 0.06,-0.5 0.1,-0.81 0.06,-0.31 0.06,-0.53 0.03,-0.25 0.06,-0.59 l 0.74,-7.68 q 0.03,-0.43 0.06,-1.21 0.03,-0.77 0.06,-1.95 0.35,0.03 0.67,0.06 0.35,0 0.74,0.03 0.38,0 0.86,0 0.48,0 1.12,0 h 7.87 q 0.83,0 1.41,0 0.61,-0.03 1.09,-0.03 0.51,-0.03 0.96,-0.06 0.45,-0.06 0.99,-0.15 v 3.9 q -1.06,-0.15 -2.08,-0.19 Q 114,133 112.66,133 h -7.52 l -0.51,5.42 q -0.06,0.37 -0.19,1.3 1.18,-0.99 2.49,-1.43 1.31,-0.46 2.97,-0.46 3.93,0 6.24,2.32 1.18,1.12 1.73,2.54 0.54,1.43 0.54,3.28 0,2.05 -0.67,3.69 -0.67,1.64 -1.92,2.79 -1.25,1.12 -3.04,1.74 -1.76,0.62 -4,0.62 -4.7,0 -7.29,-2.7 -0.32,-0.34 -0.58,-0.65 -0.26,-0.34 -0.51,-0.71 -0.22,-0.4 -0.45,-0.87 -0.22,-0.5 -0.48,-1.15 z m 0,215.81 q 0.22,0.68 0.42,1.05 0.19,0.37 0.54,0.74 1.34,1.58 3.93,1.58 2.4,0 3.81,-1.39 1.44,-1.39 1.44,-3.72 0,-2.29 -1.38,-3.63 -1.34,-1.36 -3.65,-1.36 -2.43,0 -3.97,1.43 -0.35,0.34 -0.54,0.62 -0.19,0.25 -0.42,0.77 l -4,-0.37 q 0.13,-0.84 0.19,-1.3 0.06,-0.5 0.1,-0.81 0.06,-0.31 0.06,-0.53 0.03,-0.25 0.06,-0.59 l 0.74,-7.68 q 0.03,-0.43 0.06,-1.21 0.03,-0.77 0.06,-1.95 0.35,0.03 0.67,0.06 0.35,0 0.74,0.03 0.38,0 0.86,0 0.48,0 1.12,0 h 7.87 q 0.83,0 1.41,0 0.61,-0.03 1.09,-0.03 0.51,-0.03 0.96,-0.06 0.45,-0.06 0.99,-0.15 v 3.9 q -1.06,-0.15 -2.08,-0.19 -0.99,-0.06 -2.33,-0.06 h -7.52 l -0.51,5.42 q -0.06,0.37 -0.19,1.3 1.18,-0.99 2.49,-1.43 1.31,-0.46 2.97,-0.46 3.93,0 6.24,2.32 1.18,1.12 1.73,2.54 0.54,1.43 0.54,3.28 0,2.05 -0.67,3.69 -0.67,1.64 -1.92,2.79 -1.25,1.12 -3.04,1.74 -1.76,0.62 -4,0.62 -4.7,0 -7.29,-2.7 -0.32,-0.34 -0.58,-0.65 -0.26,-0.34 -0.51,-0.71 -0.22,-0.4 -0.45,-0.87 -0.22,-0.5 -0.48,-1.15 z m 246.43,7.64 q -0.06,0.43 -0.13,0.87 -0.03,0.4 -0.06,0.87 -0.03,0.46 -0.06,1.02 0,0.56 0,1.24 v 16.67 q 0,1.36 0.03,2.26 0.06,0.87 0.22,1.74 h -4.86 q 0.13,-0.87 0.19,-1.74 0.06,-0.9 0.06,-2.26 v -16.66 q 0,-0.71 -0.03,-1.24 0,-0.56 -0.03,-0.99 -0.03,-0.46 -0.1,-0.87 -0.03,-0.43 -0.1,-0.9 z m 8.54,18.25 q 0.22,0.68 0.42,1.05 0.19,0.37 0.54,0.74 1.34,1.58 3.93,1.58 2.4,0 3.81,-1.39 1.44,-1.39 1.44,-3.72 0,-2.29 -1.38,-3.63 -1.34,-1.36 -3.65,-1.36 -2.43,0 -3.97,1.43 -0.35,0.34 -0.54,0.62 -0.19,0.25 -0.42,0.77 l -4,-0.37 q 0.13,-0.84 0.19,-1.3 0.06,-0.5 0.1,-0.81 0.06,-0.31 0.06,-0.53 0.03,-0.25 0.06,-0.59 l 0.74,-7.68 q 0.03,-0.43 0.06,-1.21 0.03,-0.77 0.06,-1.95 0.35,0.03 0.67,0.06 0.35,0 0.74,0.03 0.38,0 0.86,0 0.48,0 1.12,0 h 7.87 q 0.83,0 1.41,0 0.61,-0.03 1.09,-0.03 0.51,-0.03 0.96,-0.06 0.45,-0.06 0.99,-0.15 v 3.9 q -1.06,-0.15 -2.08,-0.19 -0.99,-0.06 -2.33,-0.06 h -7.52 l -0.51,5.42 q -0.06,0.37 -0.19,1.3 1.18,-0.99 2.49,-1.43 1.31,-0.46 2.97,-0.46 3.93,0 6.24,2.32 1.18,1.12 1.73,2.54 0.54,1.43 0.54,3.28 0,2.05 -0.67,3.69 -0.67,1.64 -1.92,2.79 -1.25,1.12 -3.04,1.74 -1.76,0.62 -4,0.62 -4.7,0 -7.29,-2.7 -0.32,-0.34 -0.58,-0.65 -0.26,-0.34 -0.51,-0.71 -0.22,-0.4 -0.45,-0.87 -0.22,-0.5 -0.48,-1.15 z M 350.34,101 q -0.06,0.43 -0.13,0.87 -0.03,0.4 -0.06,0.87 -0.03,0.46 -0.06,1.02 0,0.56 0,1.24 v 16.67 q 0,1.36 0.03,2.26 0.06,0.87 0.22,1.74 h -4.86 q 0.13,-0.87 0.19,-1.74 0.06,-0.9 0.06,-2.26 V 105 q 0,-0.71 -0.03,-1.24 0,-0.56 -0.03,-0.99 -0.03,-0.46 -0.1,-0.87 -0.03,-0.43 -0.1,-0.9 z m 8.54,18.25 q 0.22,0.68 0.42,1.05 0.19,0.37 0.54,0.74 1.34,1.58 3.93,1.58 2.4,0 3.81,-1.39 1.44,-1.39 1.44,-3.72 0,-2.29 -1.38,-3.63 -1.34,-1.36 -3.65,-1.36 -2.43,0 -3.97,1.43 -0.35,0.34 -0.54,0.62 -0.19,0.25 -0.42,0.77 l -4,-0.37 q 0.13,-0.84 0.19,-1.3 0.06,-0.5 0.1,-0.81 0.06,-0.31 0.06,-0.53 0.03,-0.25 0.06,-0.59 l 0.74,-7.68 q 0.03,-0.43 0.06,-1.21 0.03,-0.77 0.06,-1.95 0.35,0.03 0.67,0.06 0.35,0 0.74,0.03 0.38,0 0.86,0 0.48,0 1.12,0 h 7.87 q 0.83,0 1.41,0 0.61,-0.03 1.09,-0.03 0.51,-0.03 0.96,-0.06 0.45,-0.06 0.99,-0.15 v 3.9 q -1.06,-0.15 -2.08,-0.19 -0.99,-0.06 -2.33,-0.06 h -7.52 l -0.51,5.42 q -0.06,0.37 -0.19,1.3 1.18,-0.99 2.49,-1.43 1.31,-0.46 2.97,-0.46 3.93,0 6.24,2.32 1.18,1.12 1.73,2.54 0.54,1.43 0.54,3.28 0,2.05 -0.67,3.69 -0.67,1.64 -1.92,2.79 -1.25,1.12 -3.04,1.74 -1.76,0.62 -4,0.62 -4.7,0 -7.29,-2.7 -0.32,-0.34 -0.58,-0.65 -0.26,-0.34 -0.51,-0.71 -0.22,-0.4 -0.45,-0.87 -0.22,-0.5 -0.48,-1.15 z M 201.3,388.14 q -0.13,0.89 -0.25,1.78 -0.06,0.83 -0.13,1.78 -0.06,0.96 -0.13,2.1 0,1.15 0,2.55 v 34.27 q 0,2.8 0.06,4.65 0.13,1.78 0.44,3.57 h -9.54 q 0.25,-1.78 0.38,-3.57 0.13,-1.85 0.13,-4.65 v -34.27 q 0,-1.46 -0.06,-2.55 0,-1.15 -0.06,-2.04 -0.06,-0.96 -0.19,-1.78 -0.06,-0.89 -0.19,-1.85 z m 26.67,51.72 q -8.1,0 -13.18,-5.16 -2.89,-2.93 -4.14,-6.43 -2.45,-6.75 -2.45,-14.65 0,-2.55 0.25,-5.03 0.31,-2.55 0.82,-4.84 0.5,-2.36 1.19,-4.33 0.69,-1.97 1.57,-3.44 2.57,-4.33 6.65,-6.56 4.08,-2.29 9.35,-2.29 8.16,0 13.24,5.16 2.89,2.93 4.14,6.43 1.26,3.38 1.82,7.13 0.63,3.69 0.63,7.64 0,5.92 -1.26,10.83 -1.19,4.9 -3.39,8.03 -5.33,7.52 -15.25,7.52 z m 0.06,-7.39 q 2.07,0 3.83,-0.7 1.76,-0.7 2.95,-1.97 2.13,-2.23 3.26,-6.5 1.13,-4.27 1.13,-9.87 0,-5.61 -1.13,-9.75 -1.13,-4.2 -3.26,-6.56 -1.13,-1.27 -2.95,-1.97 -1.76,-0.7 -3.89,-0.7 -4.39,0 -7.03,3.25 -4.14,4.97 -4.14,15.48 0,5.03 0.82,8.98 0.88,3.95 2.38,6.18 2.89,4.14 8.03,4.14 z M 385.24,275.35 q -1.27,0 -2.09,0 -0.83,0 -1.44,0.06 -0.57,0.06 -1.05,0.13 -0.48,0.06 -1.05,0.13 0.22,-2.74 0.44,-4.59 0.26,-1.85 0.7,-3.57 1.75,-6.88 5.98,-12.48 0.57,-0.76 1.13,-1.4 0.61,-0.7 1.4,-1.53 0.79,-0.89 1.88,-2.04 1.13,-1.15 2.79,-2.74 1.48,-1.53 2.49,-2.68 1.05,-1.21 1.61,-2.29 0.61,-1.08 0.87,-2.1 0.26,-1.08 0.26,-2.29 0,-3.25 -1.61,-5.1 -1.61,-1.91 -4.41,-1.91 -3.88,0 -5.54,3.76 -0.57,1.15 -0.87,2.42 -0.26,1.21 -0.48,3.44 l -6.24,-1.08 q 0.44,-3.63 1.09,-5.86 0.7,-2.29 1.92,-4.33 3.36,-5.67 9.99,-5.67 2.88,0 5.15,1.02 2.27,0.96 3.88,2.8 1.61,1.78 2.44,4.39 0.87,2.61 0.87,5.86 0,3.18 -0.74,5.61 -0.74,2.36 -2.36,4.59 -0.48,0.64 -0.87,1.15 -0.39,0.51 -1.13,1.27 -0.7,0.76 -1.96,2.04 -1.22,1.27 -3.36,3.38 -1.44,1.46 -2.92,3.31 -1.44,1.78 -2.27,3.06 -1,1.53 -1.53,2.74 -0.48,1.15 -0.96,2.99 h 12.22 q 2.09,0 3.67,-0.13 1.61,-0.13 2.71,-0.38 v 8.41 q -1.53,-0.19 -3.01,-0.32 -1.48,-0.06 -3.58,-0.06 z m 38.57,1.02 q -5.63,0 -9.16,-5.16 -2.01,-2.93 -2.88,-6.43 -1.7,-6.75 -1.7,-14.65 0,-2.55 0.17,-5.03 0.22,-2.55 0.57,-4.84 0.35,-2.36 0.83,-4.33 0.48,-1.97 1.09,-3.44 1.79,-4.33 4.63,-6.56 2.84,-2.29 6.5,-2.29 5.67,0 9.21,5.16 2.01,2.93 2.88,6.43 0.87,3.38 1.27,7.13 0.44,3.69 0.44,7.64 0,5.92 -0.87,10.83 -0.83,4.9 -2.36,8.03 -3.71,7.52 -10.6,7.52 z m 0.04,-7.39 q 1.44,0 2.66,-0.7 1.22,-0.7 2.05,-1.97 1.48,-2.23 2.27,-6.5 0.79,-4.27 0.79,-9.87 0,-5.61 -0.79,-9.75 -0.79,-4.2 -2.27,-6.56 -0.79,-1.27 -2.05,-1.97 -1.22,-0.7 -2.71,-0.7 -3.05,0 -4.89,3.25 -2.88,4.97 -2.88,15.48 0,5.03 0.57,8.98 0.61,3.95 1.66,6.18 2.01,4.14 5.59,4.14 z M 201.3,61.16 q -0.13,0.89 -0.25,1.78 -0.06,0.83 -0.13,1.78 -0.06,0.96 -0.13,2.1 0,1.15 0,2.55 v 34.27 q 0,2.8 0.06,4.65 0.13,1.78 0.44,3.57 h -9.54 q 0.25,-1.78 0.38,-3.57 0.13,-1.85 0.13,-4.65 V 69.38 q 0,-1.46 -0.06,-2.55 0,-1.15 -0.06,-2.04 -0.06,-0.96 -0.19,-1.78 -0.06,-0.89 -0.19,-1.85 z m 26.67,51.72 q -8.1,0 -13.18,-5.16 -2.89,-2.93 -4.14,-6.43 -2.45,-6.75 -2.45,-14.65 0,-2.55 0.25,-5.03 0.31,-2.55 0.82,-4.84 0.5,-2.36 1.19,-4.33 0.69,-1.97 1.57,-3.44 2.57,-4.33 6.65,-6.56 4.08,-2.29 9.35,-2.29 8.16,0 13.24,5.16 2.89,2.93 4.14,6.43 1.26,3.38 1.82,7.13 0.63,3.69 0.63,7.64 0,5.92 -1.26,10.83 -1.19,4.9 -3.39,8.03 -5.33,7.52 -15.25,7.52 z m 0.06,-7.39 q 2.07,0 3.83,-0.7 1.76,-0.7 2.95,-1.97 2.13,-2.23 3.26,-6.5 1.13,-4.27 1.13,-9.87 0,-5.61 -1.13,-9.75 -1.13,-4.2 -3.26,-6.56 -1.13,-1.27 -2.95,-1.97 -1.76,-0.7 -3.89,-0.7 -4.39,0 -7.03,3.25 -4.14,4.97 -4.14,15.48 0,5.03 0.82,8.98 0.88,3.95 2.38,6.18 2.89,4.14 8.03,4.14 z m 220.67,202.58 1.34,-4.82 33.71,9.41 -1.34,4.82 z m -10.92,29.06 2.05,-4.56 31.92,14.35 -2.05,4.56 z m -15.14,27.1 2.71,-4.2 29.42,18.96 -2.71,4.2 z m -19.02,24.53 3.31,-3.75 26.25,23.15 -3.31,3.75 z m -52.28,41.75 4.33,-2.5 17.5,30.31 -4.33,2.5 z m -32.89,14.85 4.7,-1.71 11.97,32.89 -4.7,1.71 z m -34.97,8.92 4.92,-0.87 6.08,34.47 -4.92,0.87 z m -35.98,2.71 h 5 v 35 h -5 z m -67.26,-12.09 4.73,1.63 -11.39,33.09 -4.73,-1.63 z m -29.63,-13.31 4.41,2.35 -16.43,30.9 -4.41,-2.35 z m -27.18,-17.78 3.99,3.01 -21.06,27.95 -3.99,-3.01 z m -24.07,-21.82 3.47,3.6 -25.18,24.31 -3.47,-3.6 z m -33.3,-47.02 2.35,4.41 -30.9,16.43 -2.35,-4.41 z m -10.2,-23.12 1.79,4.67 -32.68,12.54 -1.79,-4.67 z m -7.31,-24.2 1.21,4.85 -33.96,8.47 -1.21,-4.85 z m -4.31,-24.91 0.61,4.96 -34.74,4.27 -0.61,-4.96 z M 43,247.49 v 5 H 8 v -5 z m 407.05,-50.76 -1.34,-4.82 33.71,-9.41 1.34,4.82 z m -10.21,-29.32 -2.05,-4.56 31.92,-14.35 2.05,4.56 z m -14.48,-27.46 -2.71,-4.2 29.42,-18.96 2.71,4.2 z m -18.43,-24.98 -3.31,-3.75 26.25,-23.15 3.31,3.75 z m -51.26,-43 -4.33,-2.5 17.5,-30.31 4.33,2.5 z m -32.52,-15.64 -4.7,-1.71 11.97,-32.89 4.7,1.71 z m -34.74,-9.76 -4.92,-0.87 6.08,-34.47 4.92,0.87 z M 252.5,42.99 h -5 v -35 h 5 z m -67.53,10.46 -4.73,1.63 -11.39,-33.09 4.73,-1.63 z m -29.94,12.59 -4.41,2.35 -16.43,-30.9 4.41,-2.35 z m -27.61,17.12 -3.99,3.01 -21.06,-27.95 3.99,-3.01 z m -24.59,21.23 -3.47,3.6 -25.18,-24.31 3.47,-3.6 z m -34.43,46.2 -2.35,4.41 -30.9,-16.43 2.35,-4.41 z m -10.76,22.87 -1.79,4.67 -32.68,-12.54 1.79,-4.67 z m -7.89,24.01 -1.21,4.85 -33.96,-8.47 1.21,-4.85 z m -4.91,24.8 -0.61,4.96 L 9.49,222.96 10.1,218 Z m 395.11,56.07 1.22,-9.93 49.63,6.09 -1.22,9.93 z m -70.37,121.93 7.66,-6.43 32.14,38.3 -7.66,6.43 z m -157.85,37.92 9.85,1.74 -8.68,49.24 -9.85,-1.74 z m -121.88,-82.18 5.74,8.19 -40.96,28.68 -5.74,-8.19 z m 351.32,-124.47 -1.22,-9.93 49.63,-6.09 1.22,9.93 z m -63.93,-125.43 -7.66,-6.43 32.14,-38.3 7.66,6.43 z m -155.66,-46.08 -9.85,1.74 -8.68,-49.24 9.85,-1.74 z m -125.99,75.73 -5.74,8.19 -40.96,-28.68 5.74,-8.19 z M 58,244.98 v 10 H 8 v -10 z m 39.48,-71.62 2.56,22.21 -18.79,-6.84 z" /><path
       id="path96"
       style="fill:none;stroke:#ffffff;stroke-width:5;"
       d="m 90.25,308.14 a 170,170 0 0 1 0,-116.29 m 384.06,30.6 a 226,226 0 0 1 0,55.08" />
</svg>
