<svg
   width="500"
   height="500"
   viewBox="0 0 500 500"
   preserveAspectRatio="xMinYMin meet"
   version="1.1"
   xmlns="http://www.w3.org/2000/svg"
   xmlns:svg="http://www.w3.org/2000/svg">

  <circle style="fill:#101010"
       cx="250"
       cy="250"
       r="250" />
  <path
       style="fill:#46c60e"
       d="M 250.00011,3.9062204 C 114.15632,3.9062204 3.9063303,114.15622 3.9063303,250 c 0,134.5252 108.1622997,243.79904 242.1875297,245.91068 V 468.56693 C 127.16379,466.45767 31.250085,369.43068 31.250085,250 c 0,-120.74999 98.000035,-218.750025 218.750025,-218.750025 14.89973,0 51.96365,5.997736 52.80003,6.297951 56.60189,20.317464 121.00733,94.554504 140.30557,154.716844 8.56926,26.7147 -5.00926,-63.47837 -40.0294,-98.392715 L 422.72963,74.829084 C 378.28711,31.001753 317.30114,3.9062204 250.00011,3.9062204 Z M 143.79893,77.02635 c -8.7834,5.418418 -27.65852,9.004239 -47.986886,27.26569 -20.328337,18.26145 -42.109899,51.19856 -64.96692,103.75446 -8.191777,18.83563 18.681463,-18.60091 33.058774,-39.16223 l 17.363624,2.8569 C 93.741106,143.44423 125.47883,109.05075 151.52094,92.881801 Z m -62.935062,197.89766 -30.814952,8.70637 c 0.903256,5.31148 -11.222863,34.51424 -9.943291,39.6852 1.279573,5.17096 19.269138,37.52676 20.926365,42.53575 3.314457,10.01799 4.081268,-31.52602 8.91439,-22.28442 L 98.53845,325.87654 C 91.476672,312.29827 83.570186,290.49542 80.863868,274.92401 Z m 25.741052,48.96792 -34.888521,23.09295 c 1.265178,2.31178 -6.515678,24.83869 -5.168752,27.10034 1.346924,2.26164 18.84327,24.32266 20.272282,26.52865 2.858032,4.41203 -1.14107,-31.35731 2.047348,-27.20076 l 33.092893,-27.45206 c -4.5591,-5.97998 -11.69629,-15.45264 -15.35525,-22.06912 z m 28.09977,25.41229 -38.940439,32.65381 c 3.418106,3.99096 -0.693672,24.01186 3.054883,27.68254 3.748556,3.67069 3.008696,7.19889 6.996266,10.61993 l 45.00257,-55.08714 c -5.70852,-4.93332 -11.18559,-10.1558 -16.11328,-15.86914 z" />
  <path
       id="red"
       style="fill:#ac0303;"
       transform="rotate(73.999898)"
       d="m 305.32056,-417.5015 h 7.81251 v 50.78138 h -7.81251 z m 197.99319,305.8139 2.15343,-7.50985 41.39507,11.86992 -2.15343,7.509856 z" />
  <path
       id="white"
       style="fill:#ffffff;"
       d="m 451.94269,233.05187 v -12.57183 h 3.57422 q 0.94364,0 1.44131,0.12005 0.69805,0.15436 1.16987,0.59171 0.47182,0.42879 0.7562,1.20917 0.29085,0.78038 0.29085,1.71512 0,1.60363 -0.76913,2.71846 -0.76914,1.10626 -2.77923,1.10626 h -2.43021 v 5.11106 z m 1.25388,-6.59464 h 2.4496 q 1.2151,0 1.72571,-0.60029 0.5106,-0.60029 0.5106,-1.6894 0,-0.78895 -0.30378,-1.34637 -0.29731,-0.56599 -0.78852,-0.74608 -0.3167,-0.1115 -1.16986,-0.1115 h -2.42375 z m 7.14843,2.55553 1.18279,-0.13721 q 0.084,0.94331 0.3878,1.55218 0.31024,0.6003 0.95657,0.97763 0.64633,0.36875 1.45425,0.36875 0.71742,0 1.26681,-0.28301 0.54938,-0.28299 0.81437,-0.7718 0.27147,-0.49738 0.27147,-1.08052 0,-0.59172 -0.25854,-1.02907 -0.25854,-0.44593 -0.85316,-0.74608 -0.38133,-0.19724 -1.68692,-0.60887 -1.3056,-0.42021 -1.82912,-0.78896 -0.67865,-0.47165 -1.01474,-1.16628 -0.32963,-0.70319 -0.32963,-1.56933 0,-0.9519 0.40719,-1.77516 0.40719,-0.83183 1.18925,-1.26061 0.78206,-0.42878 1.73863,-0.42878 1.05352,0 1.85497,0.45451 0.80792,0.44593 1.24096,1.32064 0.43304,0.87471 0.46536,1.98097 l -1.20218,0.12006 q -0.097,-1.19202 -0.65926,-1.80089 -0.55584,-0.60886 -1.64814,-0.60886 -1.13755,0 -1.66108,0.55741 -0.51706,0.54885 -0.51706,1.32923 0,0.67747 0.36841,1.11483 0.36195,0.43735 1.88729,0.90043 1.5318,0.4545 2.10058,0.79753 0.8273,0.50596 1.22156,1.28634 0.39427,0.77181 0.39427,1.78373 0,1.00335 -0.43305,1.89521 -0.43304,0.88329 -1.24742,1.38067 -0.80792,0.48881 -1.82265,0.48881 -1.28621,0 -2.15875,-0.49738 -0.86608,-0.49739 -1.36376,-1.49216 -0.49122,-1.00334 -0.51707,-2.26396 z m 9.46877,4.03911 v -12.57183 h 1.25388 v 12.57183 z m -12.22861,-17.29014 v 1.48358 h -6.26295 q -0.0129,-0.55741 0.13573,-1.07194 0.23914,-0.84899 0.76267,-1.67225 0.52999,-0.82326 1.52535,-1.90379 1.54473,-1.68081 2.08765,-2.65843 0.54291,-0.9862 0.54291,-1.86091 0,-0.91759 -0.49767,-1.54361 -0.49121,-0.63459 -1.2862,-0.63459 -0.84023,0 -1.34437,0.66889 -0.50414,0.66891 -0.5106,1.85234 l -1.19572,-0.16294 q 0.1228,-1.77516 0.92425,-2.70132 0.80146,-0.93473 2.15229,-0.93473 1.36376,0 2.15875,1.00334 0.79499,1.00335 0.79499,2.48692 0,0.75465 -0.23268,1.48358 -0.23268,0.72893 -0.7756,1.53503 -0.53645,0.80611 -1.79034,2.21251 -1.04706,1.16628 -1.34437,1.58649 -0.29731,0.41163 -0.49121,0.83183 z m 1.24742,-4.71658 q 0,-2.22966 0.34256,-3.58461 0.34902,-1.36352 1.02767,-2.10102 0.68511,-0.73749 1.71924,-0.73749 0.76268,0 1.33791,0.41162 0.57523,0.40305 0.95011,1.17486 0.37487,0.76322 0.58816,1.86948 0.21329,1.09768 0.21329,2.96716 0,2.2125 -0.34256,3.57602 -0.34255,1.35495 -1.02767,2.10103 -0.67864,0.7375 -1.71924,0.7375 -1.37022,0 -2.15228,-1.30348 -0.93719,-1.56934 -0.93719,-5.11107 z m 1.19572,0 q 0,3.0958 0.54292,4.12487 0.54938,1.0205 1.35083,1.0205 0.80146,0 1.34437,-1.02908 0.54939,-1.02908 0.54939,-4.11629 0,-3.10437 -0.54939,-4.12487 -0.54291,-1.02049 -1.3573,-1.02049 -0.80145,0 -1.27973,0.90044 -0.60109,1.14913 -0.60109,4.24492 z m 6.8188,6.20016 v -1.758 h 1.32498 v 1.758 z m 3.02483,-6.20016 q 0,-2.22966 0.34256,-3.58461 0.34901,-1.36352 1.02766,-2.10102 0.68511,-0.73749 1.71925,-0.73749 0.76267,0 1.3379,0.41162 0.57524,0.40305 0.95011,1.17486 0.37488,0.76322 0.58816,1.86948 0.21329,1.09768 0.21329,2.96716 0,2.2125 -0.34256,3.57602 -0.34255,1.35495 -1.02766,2.10103 -0.67865,0.7375 -1.71924,0.7375 -1.37022,0 -2.15229,-1.30348 -0.93718,-1.56934 -0.93718,-5.11107 z m 1.19572,0 q 0,3.0958 0.54291,4.12487 0.54939,1.0205 1.35084,1.0205 0.80145,0 1.34436,-1.02908 0.54939,-1.02908 0.54939,-4.11629 0,-3.10437 -0.54939,-4.12487 -0.54291,-1.02049 -1.35729,-1.02049 -0.80145,0 -1.27973,0.90044 -0.60109,1.14913 -0.60109,4.24492 z m -241.10228,216.69514 1.22157,-0.13721 q 0.13573,1.18343 0.62693,1.78372 0.49768,0.59172 1.19572,0.59172 0.84023,0 1.42193,-0.84041 0.5817,-0.8404 0.5817,-2.22966 0,-1.32064 -0.56231,-2.08387 -0.55584,-0.76322 -1.46071,-0.76322 -0.56231,0 -1.01474,0.34301 -0.45243,0.33445 -0.71096,0.87471 l -1.09231,-0.18865 0.91779,-6.45744 h 4.71176 v 1.47501 h -3.78104 l -0.5106,3.37879 q 0.85316,-0.78896 1.79034,-0.78896 1.24096,0 2.09411,1.14056 0.85316,1.14055 0.85316,2.93285 0,1.70655 -0.74974,2.95001 -0.91133,1.52646 -2.48838,1.52646 -1.29266,0 -2.11351,-0.96047 -0.81438,-0.96046 -0.93071,-2.54695 z m 8.01451,3.29303 v -1.758 h 1.32498 v 1.758 z m 3.02483,-3.29303 1.22157,-0.13721 q 0.13573,1.18343 0.62694,1.78372 0.49768,0.59172 1.19572,0.59172 0.84023,0 1.42192,-0.84041 0.58171,-0.8404 0.58171,-2.22966 0,-1.32064 -0.56231,-2.08387 -0.55584,-0.76322 -1.46071,-0.76322 -0.56231,0 -1.01475,0.34301 -0.45243,0.33445 -0.71096,0.87471 l -1.0923,-0.18865 0.91779,-6.45744 h 4.71176 v 1.47501 h -3.78104 l -0.5106,3.37879 q 0.85316,-0.78896 1.79033,-0.78896 1.24097,0 2.09412,1.14056 0.85316,1.14055 0.85316,2.93285 0,1.70655 -0.74974,2.95001 -0.91134,1.52646 -2.48838,1.52646 -1.29266,0 -2.11351,-0.96047 -0.81438,-0.96046 -0.93072,-2.54695 z m 11.51117,3.29303 v -12.57184 h 3.57422 q 0.94364,0 1.44132,0.12006 0.69804,0.15436 1.16986,0.59172 0.47182,0.42878 0.75621,1.20915 0.29085,0.78039 0.29085,1.71513 0,1.60364 -0.76914,2.71847 -0.76913,1.10625 -2.77922,1.10625 h -2.43022 v 5.11106 z m 1.25388,-6.59464 h 2.4496 q 1.21511,0 1.72571,-0.60029 0.5106,-0.6003 0.5106,-1.68939 0,-0.78896 -0.30377,-1.34637 -0.29731,-0.566 -0.78853,-0.74608 -0.3167,-0.1115 -1.16986,-0.1115 h -2.42375 z m 7.14844,2.55553 1.18278,-0.13721 q 0.084,0.94332 0.3878,1.55218 0.31024,0.6003 0.95657,0.97762 0.64633,0.36875 1.45425,0.36875 0.71742,0 1.26681,-0.28299 0.54938,-0.28299 0.81437,-0.7718 0.27147,-0.49739 0.27147,-1.08053 0,-0.59172 -0.25854,-1.02907 -0.25853,-0.44594 -0.85316,-0.74608 -0.38133,-0.19724 -1.68692,-0.60887 -1.30559,-0.4202 -1.82912,-0.78895 -0.67865,-0.47166 -1.01474,-1.16628 -0.32963,-0.70321 -0.32963,-1.56934 0,-0.9519 0.40719,-1.77515 0.40719,-0.83184 1.18925,-1.26062 0.78206,-0.42878 1.73863,-0.42878 1.05352,0 1.85497,0.45451 0.80792,0.44594 1.24096,1.32065 0.43304,0.87471 0.46536,1.98095 l -1.20218,0.12006 q -0.0969,-1.192 -0.65925,-1.80087 -0.55585,-0.60887 -1.64815,-0.60887 -1.13755,0 -1.66107,0.55742 -0.51707,0.54883 -0.51707,1.32921 0,0.67748 0.36841,1.11483 0.36195,0.43735 1.88729,0.90044 1.53181,0.45451 2.10058,0.79754 0.8273,0.50596 1.22156,1.28634 0.39427,0.7718 0.39427,1.78372 0,1.00335 -0.43305,1.89521 -0.43304,0.88328 -1.24742,1.38067 -0.80791,0.48881 -1.82265,0.48881 -1.2862,0 -2.15875,-0.49739 -0.86608,-0.49738 -1.36376,-1.49215 -0.49121,-1.00335 -0.51706,-2.26396 z m 9.46876,4.03911 v -12.57184 h 1.25388 v 12.57184 z m 26.90306,-32.08761 0.40402,1.24343 -7.11157,2.3107 q -0.1665,-0.46242 -0.1378,-0.94853 0.0404,-0.79979 0.41062,-1.68294 0.37761,-0.88555 1.21357,-2.1584 1.29631,-1.97868 1.64657,-2.99836 0.34792,-1.02686 0.10971,-1.75999 -0.24988,-0.76907 -0.98548,-1.11014 -0.73059,-0.35065 -1.63329,-0.0574 -0.95409,0.30999 -1.34438,1.05663 -0.39029,0.74662 -0.0754,1.74088 l -1.4021,0.30459 q -0.34398,-1.53312 0.31385,-2.60505 0.65549,-1.07915 2.18936,-1.57753 1.54855,-0.50315 2.7245,0.0445 1.17594,0.54763 1.57996,1.79106 0.20551,0.63251 0.13981,1.3293 -0.0657,0.69678 -0.46266,1.57271 -0.38962,0.87356 -1.43041,2.51492 -0.87132,1.3638 -1.09448,1.82568 -0.2255,0.4547 -0.33124,0.87842 z m 0.92369,-1.9768 1.34972,-0.56569 q 0.4764,0.9418 1.19765,1.2637 0.72625,0.31232 1.51888,0.0548 0.95408,-0.31 1.38573,-1.229 0.43165,-0.91899 0.0533,-2.08336 -0.35965,-1.10688 -1.206,-1.53911 -0.839,-0.43461 -1.86649,-0.10079 -0.6385,0.20746 -1.05881,0.66189 -0.42266,0.44723 -0.5691,0.99543 l -1.29168,0.24487 -0.71638,-5.75081 5.3502,-1.73838 0.40167,1.23626 -4.29336,1.39499 0.34035,3.02027 q 0.75391,-0.97603 1.81807,-1.3218 1.4091,-0.45784 2.68847,0.18333 1.27936,0.64118 1.76745,2.14336 0.46474,1.43032 -0.048,2.74912 -0.61912,1.6156 -2.40986,2.19745 -1.46781,0.47692 -2.66143,-0.0252 -1.18629,-0.50454 -1.75044,-1.79131 z m 7.56754,-5.15264 q -0.60719,-1.86875 -0.58721,-3.13076 0.025,-1.27158 0.59475,-2.1401 0.5771,-0.87089 1.75136,-1.25243 0.86601,-0.28138 1.63129,-0.14861 0.76294,0.12557 1.39879,0.63415 0.63351,0.50139 1.17698,1.34988 0.54111,0.8413 1.05022,2.40817 0.60252,1.85439 0.58487,3.1236 -0.02,1.262 -0.59475,2.14008 -0.56977,0.86851 -1.75136,1.25244 -1.55589,0.50553 -2.79889,-0.29843 -1.49155,-0.96954 -2.45605,-3.93799 z m 1.35773,-0.44116 q 0.84306,2.5947 1.73979,3.25689 0.90173,0.65263 1.81178,0.35693 0.91005,-0.29568 1.24629,-1.3585 0.34358,-1.06519 -0.49715,-3.6527 -0.84541,-2.60187 -1.74714,-3.25449 -0.89439,-0.65501 -1.81911,-0.35455 -0.91004,0.29569 -1.20793,1.22684 -0.3696,1.1849 0.47347,3.77958 z m 7.0015,-2.27491 q -0.60719,-1.86875 -0.58722,-3.13076 0.025,-1.27159 0.59476,-2.1401 0.5771,-0.8709 1.75135,-1.25243 0.86602,-0.28138 1.6313,-0.14861 0.76293,0.12557 1.39878,0.63415 0.63352,0.50138 1.17697,1.34988 0.54111,0.8413 1.05022,2.40817 0.60253,1.85439 0.58489,3.1236 -0.02,1.262 -0.59476,2.14008 -0.56976,0.8685 -1.75136,1.25244 -1.55588,0.50553 -2.79889,-0.29843 -1.49154,-0.96955 -2.45604,-3.93799 z m 1.35773,-0.44116 q 0.84306,2.5947 1.73979,3.25689 0.90173,0.65263 1.81177,0.35694 0.91006,-0.2957 1.24629,-1.35851 0.34358,-1.06519 -0.49714,-3.6527 -0.84541,-2.60188 -1.74714,-3.25449 -0.8944,-0.65501 -1.81912,-0.35455 -0.91004,0.29569 -1.20792,1.22684 -0.3696,1.1849 0.47347,3.77958 z m 7.00148,-2.27491 q -0.60718,-1.86876 -0.5872,-3.13076 0.025,-1.27159 0.59475,-2.1401 0.5771,-0.8709 1.75136,-1.25243 0.86602,-0.28138 1.63128,-0.14862 0.76294,0.12558 1.39879,0.63416 0.63353,0.50138 1.17697,1.34988 0.54112,0.8413 1.05023,2.40817 0.60253,1.85439 0.58488,3.12358 -0.02,1.26202 -0.59477,2.1401 -0.56976,0.8685 -1.75134,1.25242 -1.55589,0.50555 -2.7989,-0.29841 -1.49154,-0.96955 -2.45605,-3.93799 z m 1.35775,-0.44116 q 0.84306,2.59469 1.73979,3.25689 0.90172,0.65263 1.81177,0.35693 0.91006,-0.29569 1.24629,-1.3585 0.34357,-1.06519 -0.49715,-3.6527 -0.84541,-2.60188 -1.74713,-3.25449 -0.8944,-0.65502 -1.81912,-0.35456 -0.91005,0.2957 -1.20793,1.22685 -0.36959,1.18489 0.47348,3.77958 z m 6.90698,-5.98693 0.3222,-2.32965 1.73202,-0.56277 -0.96069,2.53711 z m -25.74462,64.28746 -1.32104,0.42924 -2.67866,-8.24408 q -0.33225,0.60063 -0.9654,1.29902 -0.62581,0.69601 -1.1699,1.11913 l -0.40636,-1.25062 q 0.9424,-0.8704 1.53584,-1.86579 0.59344,-0.9954 0.71653,-1.7903 l 0.85133,-0.27661 z m 9.92208,-4.59858 0.40402,1.24344 -7.11158,2.31068 q -0.1665,-0.46241 -0.1378,-0.94851 0.0404,-0.79979 0.41062,-1.68294 0.37761,-0.88554 1.21357,-2.1584 1.29631,-1.97868 1.64657,-2.99836 0.34791,-1.02688 0.1097,-1.76 -0.24987,-0.76906 -0.98548,-1.11013 -0.73057,-0.35065 -1.63328,-0.0574 -0.95409,0.31 -1.34438,1.05662 -0.39029,0.74662 -0.0754,1.74089 l -1.40209,0.30459 q -0.34397,-1.53313 0.31384,-2.60507 0.6555,-1.07913 2.18937,-1.57751 1.54854,-0.50316 2.72449,0.0445 1.17594,0.54763 1.57996,1.79108 0.20551,0.63249 0.13982,1.32927 -0.0657,0.6968 -0.46266,1.57273 -0.38962,0.87354 -1.43041,2.51492 -0.87132,1.3638 -1.09448,1.82568 -0.2255,0.45469 -0.33124,0.87842 z m 0.13199,-4.41336 q -0.6072,-1.86876 -0.5872,-3.13077 0.025,-1.27158 0.59475,-2.14009 0.57709,-0.8709 1.75135,-1.25243 0.86602,-0.28139 1.63129,-0.14862 0.76295,0.12559 1.3988,0.63416 0.63351,0.50137 1.17696,1.34988 0.54112,0.8413 1.05023,2.40818 0.60252,1.85438 0.58487,3.12357 -0.02,1.26202 -0.59475,2.14009 -0.56977,0.86852 -1.75136,1.25244 -1.55588,0.50554 -2.79889,-0.29842 -1.49155,-0.96956 -2.45605,-3.93799 z m 1.35774,-0.44116 q 0.84306,2.5947 1.73979,3.25689 0.90173,0.65263 1.81177,0.35693 0.91006,-0.2957 1.24629,-1.3585 0.34358,-1.06519 -0.49714,-3.6527 -0.84541,-2.60188 -1.74714,-3.25451 -0.89439,-0.655 -1.81911,-0.35453 -0.91005,0.29569 -1.20793,1.22684 -0.3696,1.18489 0.47347,3.77958 z m 7.00149,-2.27491 q -0.6072,-1.86876 -0.58722,-3.13077 0.025,-1.27158 0.59476,-2.14009 0.5771,-0.8709 1.75136,-1.25243 0.86602,-0.28139 1.63128,-0.14862 0.76294,0.12559 1.3988,0.63415 0.63352,0.50138 1.17696,1.34987 0.54112,0.84131 1.05023,2.4082 0.60253,1.85438 0.58487,3.12357 -0.02,1.262 -0.59475,2.14009 -0.56976,0.86852 -1.75135,1.25244 -1.55589,0.50554 -2.7989,-0.29844 -1.49154,-0.96954 -2.45604,-3.93797 z m 1.35773,-0.44116 q 0.84306,2.5947 1.73979,3.25689 0.90173,0.65261 1.81178,0.35693 0.91006,-0.2957 1.24629,-1.35851 0.34357,-1.06518 -0.49715,-3.65269 -0.84541,-2.60188 -1.74713,-3.25451 -0.89439,-0.655 -1.81912,-0.35453 -0.91004,0.29568 -1.20793,1.22684 -0.3696,1.18489 0.47347,3.77958 z m 7.0015,-2.27492 q -0.6072,-1.86876 -0.58722,-3.13076 0.025,-1.27158 0.59475,-2.14009 0.57711,-0.8709 1.75136,-1.25243 0.86602,-0.28139 1.63129,-0.14863 0.76294,0.1256 1.3988,0.63416 0.63351,0.50138 1.17695,1.34987 0.54112,0.84132 1.05023,2.4082 0.60253,1.85438 0.58488,3.12357 -0.02,1.262 -0.59476,2.14009 -0.56976,0.86851 -1.75135,1.25244 -1.55589,0.50554 -2.7989,-0.29844 -1.49153,-0.96954 -2.45603,-3.93798 z m 1.35773,-0.44115 q 0.84306,2.5947 1.73979,3.25689 0.90173,0.65261 1.81177,0.35693 0.91005,-0.2957 1.24629,-1.3585 0.34358,-1.06519 -0.49715,-3.6527 -0.8454,-2.60189 -1.74713,-3.25451 -0.89439,-0.655 -1.81912,-0.35453 -0.91005,0.29568 -1.20793,1.22683 -0.36959,1.1849 0.47348,3.77959 z m 6.90699,-5.98693 0.32219,-2.32965 1.73203,-0.56277 -0.9607,2.53712 z m -38.42638,45.47361 1.29587,-0.57409 q 0.36552,0.75336 0.88313,1.14262 0.52245,0.37962 1.36034,0.44278 0.83544,0.0561 1.74748,-0.258 0.8099,-0.27887 1.3489,-0.72823 0.53899,-0.44935 0.6979,-0.95966 0.16374,-0.51997 -0.003,-1.00587 -0.16977,-0.49305 -0.58711,-0.75698 -0.41979,-0.27109 -1.17718,-0.29004 -0.48707,-0.0161 -2.07904,0.14836 -1.59442,0.15737 -2.29122,0.0536 -0.90145,-0.12921 -1.48016,-0.57737 -0.57386,-0.45782 -0.82237,-1.17952 -0.27311,-0.79317 -0.0497,-1.63744 0.22101,-0.8514 0.98085,-1.51267 0.75983,-0.66128 1.8397,-1.0331 1.1893,-0.40952 2.22445,-0.34233 1.04,0.0575 1.77981,0.61807 0.73983,0.56053 1.09371,1.46976 l -1.32269,0.56733 q -0.45144,-0.95557 -1.26092,-1.24433 -0.80217,-0.29128 -2.03526,0.1333 -1.28416,0.44217 -1.71523,1.11014 -0.42623,0.65831 -0.20234,1.30855 0.19437,0.56451 0.73575,0.78574 0.53408,0.22374 2.38887,0.0167 1.85965,-0.21669 2.60014,-0.15196 1.07911,0.1 1.74809,0.59702 0.66651,0.48984 0.95685,1.33304 0.28787,0.83604 0.0549,1.74751 -0.23543,0.90433 -1.01207,1.63534 -0.77179,0.72134 -1.91732,1.11578 -1.45197,0.49995 -2.57968,0.42467 -1.12043,-0.0777 -1.96766,-0.71324 -0.84239,-0.64511 -1.23327,-1.68547 z m 11.63644,-0.24211 -3.60701,-10.47552 7.73414,-2.66309 0.42566,1.23621 -6.31864,2.17569 1.10474,3.20839 5.91734,-2.0375 0.4232,1.22904 -5.91735,2.03751 1.22776,3.56569 6.56672,-2.2611 0.42566,1.23619 z m 8.76293,-3.01731 0.50084,-11.88998 1.52494,-0.52508 7.98482,8.96814 -1.6125,0.55523 -2.34011,-2.74307 -4.47267,1.54006 -0.0823,3.57716 z m 1.60517,-5.3644 3.62629,-1.24863 -2.11528,-2.51675 q -0.96594,-1.14609 -1.50679,-1.911 0.14262,1.07789 0.11251,2.19926 z m 12.80514,0.40254 -3.60701,-10.47554 1.41549,-0.48739 3.18135,9.23934 5.26798,-1.81391 0.42565,1.23619 z m 8.3981,-2.8917 -3.60701,-10.47553 7.73414,-2.66308 0.42566,1.23621 -6.31864,2.17568 1.10474,3.2084 5.91734,-2.03751 0.4232,1.22905 -5.91734,2.0375 1.22775,3.5657 6.56672,-2.26111 0.42566,1.23619 z m 12.99482,-4.47446 -7.75135,-9.04853 1.53224,-0.52759 5.4003,6.65293 q 0.65055,0.79906 1.15232,1.52151 -0.0471,-0.9429 -0.0141,-1.91344 l 0.26898,-8.60502 1.44469,-0.49744 -0.58111,11.91762 z m 6.93884,-2.38924 -3.60701,-10.47553 7.73414,-2.66308 0.42566,1.23621 -6.31865,2.17568 1.10473,3.20839 5.91736,-2.0375 0.42319,1.22905 -5.91735,2.03751 1.22777,3.56569 6.56672,-2.26111 0.42565,1.23619 z m 9.87927,-3.4017 -3.60701,-10.47554 1.41548,-0.48739 3.18136,9.23935 5.26798,-1.81392 0.42565,1.2362 z m -86.8705,17.80447 c -11.03994,1.92856 -22.34602,3.05644 -33.87452,3.2959 v 7.8125 c 12.0511,-0.23612 23.86638,-1.39406 35.4004,-3.41797 z m -134.47819,-112.80984 2.35507,-0.18815 q 0.26167,1.62267 1.20869,2.44575 0.95947,0.81133 2.30522,0.81133 1.6199,0 2.74137,-1.15233 1.12146,-1.15233 1.12146,-3.05717 0,-1.81079 -1.08409,-2.85729 -1.07161,-1.0465 -2.81611,-1.0465 -1.08409,0 -1.95633,0.47035 -0.87225,0.45857 -1.37069,1.19935 l -2.10585,-0.25869 1.76942,-8.85404 h 9.08385 v 2.02243 h -7.28951 l -0.9844,4.63279 q 1.64482,-1.08177 3.45161,-1.08177 2.39247,0 4.03728,1.56386 1.64482,1.56388 1.64482,4.02137 0,2.33992 -1.44545,4.04488 -1.75695,2.09299 -4.79738,2.09299 -2.49214,0 -4.07464,-1.31693 -1.57005,-1.31695 -1.79434,-3.49223 z m 14.19274,0 2.35508,-0.18815 q 0.26167,1.62267 1.20868,2.44575 0.95947,0.81133 2.30523,0.81133 1.61989,0 2.74136,-1.15233 1.12146,-1.15233 1.12146,-3.05717 0,-1.81079 -1.08409,-2.85729 -1.07162,-1.0465 -2.81611,-1.0465 -1.08408,0 -1.95633,0.47035 -0.87225,0.45857 -1.37068,1.19935 l -2.10586,-0.25869 1.76941,-8.85404 h 9.08386 v 2.02243 h -7.28951 l -0.9844,4.63279 q 1.64482,-1.08177 3.45162,-1.08177 2.39247,0 4.03727,1.56386 1.64481,1.56388 1.64481,4.02137 0,2.33992 -1.44544,4.04488 -1.75695,2.09299 -4.79737,2.09299 -2.49214,0 -4.07465,-1.31693 -1.57005,-1.31695 -1.79434,-3.49223 z m 14.6164,-8.58363 q 0,-1.84606 0.9844,-3.13947 0.98439,-1.29342 2.85351,-1.29342 1.71957,0 2.84103,1.16407 1.13393,1.15233 1.13393,3.39817 0,2.18706 -1.14639,3.37465 -1.13392,1.17583 -2.80366,1.17583 -1.65726,0 -2.76628,-1.16407 -1.09654,-1.16408 -1.09654,-3.51576 z m 3.9002,-2.97486 q -0.83485,0 -1.39558,0.68199 -0.54828,0.68198 -0.54828,2.50453 0,1.65793 0.56073,2.33992 0.56073,0.67023 1.38313,0.67023 0.84734,0 1.39561,-0.68199 0.56073,-0.68199 0.56073,-2.49277 0,-1.66969 -0.56073,-2.33992 -0.56074,-0.68199 -1.39561,-0.68199 z m 0.0125,16.70864 9.99347,-18.16667 h 1.81927 l -9.9561,18.16667 z m 7.90008,-4.67983 q 0,-1.85783 0.9844,-3.13948 0.9844,-1.29342 2.86596,-1.29342 1.71957,0 2.84103,1.16408 1.13393,1.15231 1.13393,3.39816 0,2.18706 -1.14638,3.37465 -1.13393,1.17584 -2.81612,1.17584 -1.65728,0 -2.76627,-1.16407 -1.09655,-1.17584 -1.09655,-3.51576 z m 3.91266,-2.97487 q -0.84733,0 -1.40806,0.68199 -0.54827,0.68199 -0.54827,2.50453 0,1.64618 0.56073,2.32816 0.56073,0.68199 1.38315,0.68199 0.85977,0 1.40805,-0.68199 0.56073,-0.68198 0.56073,-2.49277 0,-1.66969 -0.56073,-2.33992 -0.56073,-0.68199 -1.3956,-0.68199 z m -53.73473,-29.15046 -2.23047,0.16461 q -0.29905,-1.24639 -0.84733,-1.81079 -0.90963,-0.90539 -2.24292,-0.90539 -1.07162,0 -1.88157,0.5644 -1.05916,0.72901 -1.66973,2.12826 -0.61058,1.39925 -0.63549,3.98609 0.80994,-1.16408 1.98125,-1.72848 1.1713,-0.5644 2.45476,-0.5644 2.24292,0 3.81297,1.56386 1.58251,1.5521 1.58251,4.02136 0,1.62266 -0.74765,3.0219 -0.73517,1.38749 -2.0311,2.12827 -1.2959,0.74078 -2.94071,0.74078 -2.80366,0 -4.57309,-1.94014 -1.76942,-1.95188 -1.76942,-6.42007 0,-4.9973 1.95633,-7.26667 1.70713,-1.9754 4.59801,-1.9754 2.15569,0 3.52638,1.14056 1.38313,1.14056 1.65727,3.15125 z m -9.15862,7.43128 q 0,1.09352 0.48597,2.09299 0.49843,0.99946 1.38314,1.5286 0.88472,0.51735 1.85664,0.51735 1.42053,0 2.4423,-1.08177 1.02178,-1.08177 1.02178,-2.93959 0,-1.78726 -1.00932,-2.81025 -1.00932,-1.03473 -2.54199,-1.03473 -1.5202,0 -2.57936,1.03473 -1.05916,1.02299 -1.05916,2.69267 z m 11.71307,1.07001 2.35507,-0.18813 q 0.26167,1.62264 1.20869,2.44574 0.95947,0.81132 2.30523,0.81132 1.61989,0 2.74135,-1.15231 1.12147,-1.15232 1.12147,-3.05718 0,-1.81079 -1.08409,-2.85729 -1.07162,-1.04649 -2.81612,-1.04649 -1.08408,0 -1.95633,0.47034 -0.87225,0.45858 -1.37067,1.19935 l -2.10587,-0.25869 1.76942,-8.85404 h 9.08386 v 2.02243 h -7.28952 l -0.98439,4.6328 q 1.64482,-1.08177 3.45162,-1.08177 2.39246,0 4.03726,1.56386 1.64482,1.56387 1.64482,4.02137 0,2.33991 -1.44545,4.04488 -1.75695,2.09299 -4.79736,2.09299 -2.49215,0 -4.07465,-1.31695 -1.57006,-1.31694 -1.79434,-3.49223 z m 14.6164,-8.58361 q 0,-1.84606 0.9844,-3.13948 0.98439,-1.29343 2.8535,-1.29343 1.71957,0 2.84104,1.16408 1.13392,1.15233 1.13392,3.39818 0,2.18705 -1.14638,3.37464 -1.13393,1.17585 -2.80366,1.17585 -1.65727,0 -2.76628,-1.16409 -1.09654,-1.16407 -1.09654,-3.51575 z m 3.9002,-2.97487 q -0.83487,0 -1.3956,0.68199 -0.54827,0.68199 -0.54827,2.50453 0,1.65793 0.56073,2.33992 0.56073,0.67022 1.38314,0.67022 0.84733,0 1.3956,-0.68197 0.56073,-0.68199 0.56073,-2.49278 0,-1.6697 -0.56073,-2.33992 -0.56073,-0.68199 -1.3956,-0.68199 z m 0.0124,16.70865 9.99348,-18.16669 h 1.81927 l -9.95611,18.16669 z m 7.90008,-4.67983 q 0,-1.85782 0.98439,-3.13949 0.98441,-1.29343 2.86598,-1.29343 1.71957,0 2.84103,1.16409 1.13392,1.15232 1.13392,3.39817 0,2.18705 -1.14638,3.37464 -1.13392,1.17585 -2.81612,1.17585 -1.65727,0 -2.76628,-1.16409 -1.09654,-1.17583 -1.09654,-3.51574 z m 3.91267,-2.97487 q -0.84733,0 -1.40807,0.68198 -0.54827,0.68199 -0.54827,2.50453 0,1.64618 0.56073,2.32817 0.56073,0.68198 1.38314,0.68198 0.85979,0 1.40806,-0.68198 0.56074,-0.68199 0.56074,-2.49278 0,-1.66969 -0.56074,-2.33992 -0.56073,-0.68198 -1.39559,-0.68198 z m -66.7671,-53.49617 v -2.0342 h 11.82521 v 1.64617 q -1.74449,1.752 -3.46407,4.65631 -1.70712,2.90432 -2.64168,5.97326 -0.67287,2.16354 -0.85978,4.73862 h -2.30523 q 0.0373,-2.0342 0.84733,-4.91501 0.80994,-2.88079 2.31768,-5.54993 1.52021,-2.68092 3.22733,-4.51522 z m 14.04322,10.46494 2.35507,-0.18813 q 0.26168,1.62265 1.20869,2.44575 0.95947,0.81132 2.30523,0.81132 1.61989,0 2.74136,-1.15232 1.12146,-1.15232 1.12146,-3.05718 0,-1.81079 -1.08409,-2.85729 -1.07162,-1.04649 -2.81611,-1.04649 -1.08408,0 -1.95633,0.47035 -0.87225,0.45857 -1.37068,1.19934 l -2.10586,-0.25868 1.76941,-8.85404 h 9.08386 v 2.02243 h -7.28951 l -0.98439,4.63279 q 1.64481,-1.08177 3.45161,-1.08177 2.39246,0 4.03727,1.56387 1.64481,1.56386 1.64481,4.02136 0,2.33992 -1.44544,4.04488 -1.75695,2.09299 -4.79737,2.09299 -2.49214,0 -4.07465,-1.31694 -1.57005,-1.31693 -1.79434,-3.49224 z m 14.6164,-8.5836 q 0,-1.84607 0.9844,-3.13949 0.98439,-1.29342 2.8535,-1.29342 1.71958,0 2.84104,1.16409 1.13393,1.15231 1.13393,3.39816 0,2.18706 -1.14639,3.37465 -1.13393,1.17584 -2.80366,1.17584 -1.65727,0 -2.76628,-1.16408 -1.09654,-1.16408 -1.09654,-3.51575 z m 3.9002,-2.97487 q -0.83487,0 -1.3956,0.68198 -0.54826,0.68199 -0.54826,2.50454 0,1.65793 0.56073,2.33992 0.56073,0.67023 1.38313,0.67023 0.84733,0 1.3956,-0.68199 0.56074,-0.68199 0.56074,-2.49277 0,-1.6697 -0.56074,-2.33993 -0.56073,-0.68198 -1.3956,-0.68198 z m 0.0125,16.70864 9.99347,-18.16668 h 1.81927 l -9.95611,18.16668 z m 7.90008,-4.67983 q 0,-1.85782 0.9844,-3.13948 0.98439,-1.29343 2.86596,-1.29343 1.71957,0 2.84103,1.16409 1.13392,1.15231 1.13392,3.39816 0,2.18706 -1.14638,3.37466 -1.13392,1.17583 -2.81611,1.17583 -1.65728,0 -2.76628,-1.16407 -1.09654,-1.17584 -1.09654,-3.51576 z m 3.91266,-2.97486 q -0.84733,0 -1.40806,0.68199 -0.54828,0.68197 -0.54828,2.50452 0,1.64617 0.56074,2.32816 0.56073,0.68199 1.38313,0.68199 0.85979,0 1.40807,-0.68199 0.56073,-0.68199 0.56073,-2.49278 0,-1.66969 -0.56073,-2.3399 -0.56074,-0.68199 -1.3956,-0.68199 z m -0.97748,-127.39983 2.1557,-0.18814 q 0.27413,1.43452 1.0467,2.08123 0.77256,0.64671 1.98124,0.64671 1.03425,0 1.80682,-0.44681 0.78502,-0.44682 1.28345,-1.18761 0.49842,-0.75253 0.83486,-2.02242 0.33644,-1.26991 0.33644,-2.58685 0,-0.1411 -0.0125,-0.42329 -0.67287,1.01121 -1.84418,1.64616 -1.15885,0.6232 -2.51707,0.6232 -2.26783,0 -3.83789,-1.55212 -1.57004,-1.5521 -1.57004,-4.09191 0,-2.62211 1.63235,-4.22125 1.64481,-1.59914 4.11203,-1.59914 1.78188,0 3.25224,0.9054 1.48283,0.9054 2.24293,2.58684 0.77256,1.66969 0.77256,4.84445 0,3.30409 -0.7601,5.26775 -0.7601,1.95188 -2.26785,2.97486 -1.49528,1.02299 -3.51391,1.02299 -2.14325,0 -3.50146,-1.11705 -1.35823,-1.1288 -1.63235,-3.163 z m 9.18354,-7.60767 q 0,-1.82254 -1.03424,-2.89255 -1.02178,-1.07001 -2.46723,-1.07001 -1.49527,0 -2.60428,1.15231 -1.109,1.15232 -1.109,2.98663 0,1.64617 1.0467,2.68091 1.05916,1.02298 2.60429,1.02298 1.55759,0 2.55444,-1.02298 1.00932,-1.03474 1.00932,-2.85729 z m 4.67277,3.09245 q 0,-3.05717 0.66041,-4.91499 0.67288,-1.86959 1.98125,-2.8808 1.32083,-1.01123 3.31455,-1.01123 1.47037,0 2.57936,0.56442 1.10901,0.55263 1.83172,1.61089 0.72272,1.04649 1.13393,2.56332 0.4112,1.50506 0.4112,4.06839 0,3.03366 -0.66041,4.90325 -0.66042,1.85781 -1.98126,2.88079 -1.30836,1.01123 -3.31454,1.01123 -2.64167,0 -4.14942,-1.78728 -1.80679,-2.15178 -1.80679,-7.00799 z m 2.30523,0 q 0,4.24477 1.04669,5.65578 1.05916,1.39924 2.60429,1.39924 1.54513,0 2.59182,-1.411 1.05916,-1.41101 1.05916,-5.64402 0,-4.25652 -1.05916,-5.65576 -1.04669,-1.39925 -2.61675,-1.39925 -1.54512,0 -2.46722,1.23462 -1.15883,1.57563 -1.15883,5.82039 z m 12.31117,-4.59751 q 0,-1.84606 0.9844,-3.13949 0.98439,-1.29343 2.8535,-1.29343 1.71957,0 2.84104,1.16408 1.13392,1.15233 1.13392,3.39817 0,2.18706 -1.14638,3.37465 -1.13393,1.17584 -2.80366,1.17584 -1.65727,0 -2.76628,-1.16408 -1.09654,-1.16408 -1.09654,-3.51574 z m 3.9002,-2.97488 q -0.83487,0 -1.3956,0.68199 -0.54827,0.68199 -0.54827,2.50453 0,1.65793 0.56073,2.33992 0.56073,0.67023 1.38314,0.67023 0.84733,0 1.3956,-0.68198 0.56073,-0.68199 0.56073,-2.49278 0,-1.6697 -0.56073,-2.33992 -0.56073,-0.68199 -1.3956,-0.68199 z m 0.0124,16.70865 9.99349,-18.16669 h 1.81927 l -9.95611,18.16669 z m 7.90009,-4.67983 q 0,-1.85783 0.98439,-3.13949 0.9844,-1.29343 2.86596,-1.29343 1.71959,0 2.84105,1.16409 1.13392,1.15232 1.13392,3.39817 0,2.18705 -1.14639,3.37465 -1.13391,1.17584 -2.81611,1.17584 -1.65727,0 -2.76628,-1.16408 -1.09654,-1.17584 -1.09654,-3.51575 z m 3.91267,-2.97488 q -0.84734,0 -1.40808,0.68199 -0.54826,0.68199 -0.54826,2.50453 0,1.64618 0.56073,2.32817 0.56074,0.68198 1.38314,0.68198 0.85979,0 1.40805,-0.68198 0.56074,-0.68199 0.56074,-2.49279 0,-1.66969 -0.56074,-2.33991 -0.56073,-0.68199 -1.39558,-0.68199 z m 148.19197,20.14077 v -17.23777 h 2.41738 v 17.23777 z m 5.7693,-8.50129 q 0,-3.05718 0.66043,-4.915 0.67288,-1.86958 1.98124,-2.8808 1.32084,-1.01122 3.31456,-1.01122 1.47035,0 2.57936,0.5644 1.109,0.55264 1.83172,1.61089 0.72272,1.0465 1.13392,2.56333 0.41121,1.50508 0.41121,4.0684 0,3.03365 -0.66042,4.90323 -0.66041,1.85782 -1.98125,2.8808 -1.30837,1.01122 -3.31454,1.01122 -2.64168,0 -4.14942,-1.78727 -1.80681,-2.15178 -1.80681,-7.00798 z m 2.30523,0 q 0,4.24476 1.04671,5.65576 1.05916,1.39925 2.60429,1.39925 1.54513,0 2.59182,-1.411 1.05916,-1.41101 1.05916,-5.64401 0,-4.25653 -1.05916,-5.65578 -1.04669,-1.39925 -2.61675,-1.39925 -1.54512,0 -2.46722,1.23463 -1.15885,1.57562 -1.15885,5.8204 z m 11.88751,0 q 0,-3.05718 0.66042,-4.915 0.67288,-1.86958 1.98126,-2.8808 1.32083,-1.01122 3.31455,-1.01122 1.47036,0 2.57937,0.5644 1.10899,0.55264 1.83172,1.61089 0.72272,1.0465 1.13392,2.56333 0.4112,1.50508 0.4112,4.0684 0,3.03365 -0.66041,4.90323 -0.66043,1.85782 -1.98126,2.8808 -1.30837,1.01122 -3.31454,1.01122 -2.64167,0 -4.14941,-1.78727 -1.80682,-2.15178 -1.80682,-7.00798 z m 2.30524,0 q 0,4.24476 1.0467,5.65576 1.05917,1.39925 2.60429,1.39925 1.54513,0 2.59182,-1.411 1.05917,-1.41101 1.05917,-5.64401 0,-4.25653 -1.05917,-5.65578 -1.04669,-1.39925 -2.61674,-1.39925 -1.54513,0 -2.46723,1.23463 -1.15884,1.57562 -1.15884,5.8204 z m 12.31117,-4.59752 q 0,-1.84607 0.98441,-3.13949 0.98439,-1.29343 2.85349,-1.29343 1.71958,0 2.84105,1.16409 1.13392,1.15232 1.13392,3.39817 0,2.18705 -1.14639,3.37465 -1.13392,1.17584 -2.80366,1.17584 -1.65727,0 -2.76627,-1.16408 -1.09655,-1.16408 -1.09655,-3.51575 z m 3.90021,-2.97488 q -0.83487,0 -1.3956,0.68199 -0.54828,0.68198 -0.54828,2.50453 0,1.65793 0.56074,2.33992 0.56073,0.67023 1.38314,0.67023 0.84733,0 1.39559,-0.68199 0.56073,-0.68199 0.56073,-2.49277 0,-1.6697 -0.56073,-2.33992 -0.56073,-0.68199 -1.39559,-0.68199 z m 0.0124,16.70865 9.99348,-18.16669 h 1.81927 l -9.9561,18.16669 z m 7.90009,-4.67983 q 0,-1.85782 0.9844,-3.13949 0.98439,-1.29342 2.86595,-1.29342 1.71958,0 2.84105,1.16408 1.13392,1.15232 1.13392,3.39817 0,2.18705 -1.14638,3.37465 -1.13393,1.17584 -2.81613,1.17584 -1.65727,0 -2.76627,-1.16408 -1.09654,-1.17585 -1.09654,-3.51575 z m 3.91266,-2.97487 q -0.84733,0 -1.40806,0.68199 -0.54827,0.68197 -0.54827,2.50453 0,1.64616 0.56073,2.32815 0.56073,0.68199 1.38314,0.68199 0.85979,0 1.40806,-0.68199 0.56073,-0.68199 0.56073,-2.49277 0,-1.66968 -0.56073,-2.33991 -0.56073,-0.68199 -1.3956,-0.68199 z m 3.92376,45.75587 v 2.72555 h -14.47797 q -0.0299,-1.02404 0.31377,-1.96932 0.55282,-1.55972 1.76305,-3.07218 1.22518,-1.51244 3.52612,-3.49753 3.57095,-3.08791 4.826,-4.88395 1.25506,-1.81178 1.25506,-3.41876 0,-1.68575 -1.15047,-2.83584 -1.13554,-1.16584 -2.97329,-1.16584 -1.94236,0 -3.10777,1.22886 -1.1654,1.22887 -1.18034,3.403 l -2.76413,-0.29933 q 0.28389,-3.26122 2.13659,-4.96272 1.85271,-1.71726 4.97541,-1.71726 3.15259,0 4.99035,1.84329 1.83776,1.8433 1.83776,4.56886 0,1.38641 -0.53788,2.72557 -0.53788,1.33913 -1.79295,2.82007 -1.24011,1.48095 -4.1387,4.06471 -2.42047,2.14264 -3.10775,2.91462 -0.6873,0.75621 -1.13553,1.5282 z m 2.88364,-3.32424 2.82389,-0.25208 q 0.31376,2.17415 1.44928,3.27698 1.15047,1.08707 2.76412,1.08707 1.94235,0 3.28706,-1.54395 1.3447,-1.54396 1.3447,-4.09622 0,-2.42621 -1.29987,-3.82839 -1.28495,-1.40216 -3.37672,-1.40216 -1.29988,0 -2.34575,0.63019 -1.04589,0.61443 -1.64353,1.60697 l -2.52506,-0.34661 2.12165,-11.86325 h 10.89211 v 2.70979 h -8.74058 l -1.18035,6.20734 q 1.97223,-1.44942 4.1387,-1.44942 2.86869,0 4.84093,2.09537 1.97224,2.09537 1.97224,5.38809 0,3.13518 -1.73317,5.41961 -2.10671,2.80434 -5.75236,2.80434 -2.98822,0 -4.88575,-1.76453 -1.88259,-1.76452 -2.15154,-4.67914 z M 197.27432,98.571774 v 2.725556 h -14.478 q -0.0299,-1.02405 0.31377,-1.969332 0.55283,-1.559712 1.76306,-3.072162 1.22518,-1.512449 3.52612,-3.497538 3.57093,-3.087915 4.826,-4.883949 1.25505,-1.811787 1.25505,-3.418763 0,-1.68575 -1.15048,-2.835843 -1.13552,-1.165845 -2.97328,-1.165845 -1.94235,0 -3.10777,1.228864 -1.1654,1.228866 -1.18035,3.40301 l -2.76411,-0.299338 q 0.28388,-3.261218 2.13658,-4.962722 1.85271,-1.71726 4.97541,-1.71726 3.15259,0 4.99035,1.843296 1.83777,1.843297 1.83777,4.568856 0,1.386411 -0.5379,2.725559 -0.53788,1.339147 -1.79293,2.820086 -1.24012,1.48094 -4.1387,4.064706 -2.42047,2.142635 -3.10776,2.914615 -0.68729,0.756224 -1.13554,1.528204 z m 2.88365,-8.665071 q 0,-4.096216 0.79187,-6.585454 0.80683,-2.504994 2.37565,-3.859895 1.58376,-1.354902 3.97435,-1.354902 1.76307,0 3.09282,0.756224 1.32977,0.74047 2.19635,2.15839 0.86659,1.402167 1.35965,3.43452 0.49306,2.016597 0.49306,5.451117 0,4.064706 -0.79189,6.569698 -0.79187,2.48924 -2.37564,3.859899 -1.56883,1.3549 -3.97435,1.3549 -3.16753,0 -4.97541,-2.394711 -2.16646,-2.883107 -2.16646,-9.389786 z m 2.76411,0 q 0,5.687437 1.25505,7.577997 1.27,1.874806 3.12271,1.874806 1.8527,0 3.10776,-1.890561 1.27,-1.89056 1.27,-7.562242 0,-5.703193 -1.27,-7.577999 -1.25506,-1.874806 -3.13764,-1.874806 -1.85271,0 -2.95836,1.654241 -1.38952,2.111126 -1.38952,7.798564 z M 63.551606,230.18724 v -23.09635 h 2.898586 v 23.09635 z m 6.917761,-6.04979 2.823881,-0.25207 q 0.313763,2.17415 1.449292,3.27697 1.15047,1.08707 2.764116,1.08707 1.942352,0 3.287056,-1.54396 1.344706,-1.54394 1.344706,-4.09621 0,-2.42621 -1.299882,-3.82839 -1.28494,-1.40216 -3.376704,-1.40216 -1.299881,0 -2.345763,0.63019 -1.045882,0.61443 -1.643528,1.60698 l -2.525057,-0.34661 2.121646,-11.86327 h 10.892111 v 2.7098 h -8.740583 l -1.180352,6.20734 q 1.972233,-1.44943 4.138703,-1.44943 2.868704,0 4.840937,2.09537 1.972235,2.09538 1.972235,5.38811 0,3.13518 -1.733176,5.41961 -2.106705,2.80433 -5.752349,2.80433 -2.988234,0 -4.885761,-1.76453 -1.882588,-1.76452 -2.151528,-4.67914 z m 30.900253,148.0603 V 349.1014 h 2.89859 v 23.09635 z m 6.91776,-11.39062 q 0,-4.09622 0.79189,-6.58547 0.80681,-2.50499 2.37564,-3.85989 1.58377,-1.35489 3.97435,-1.35489 1.76306,0 3.09282,0.75621 1.32976,0.74048 2.19636,2.1584 0.86658,1.40216 1.35965,3.43453 0.49304,2.01658 0.49304,5.45111 0,4.06469 -0.79187,6.56968 -0.79189,2.48925 -2.37565,3.85991 -1.56882,1.3549 -3.97435,1.3549 -3.16753,0 -4.97541,-2.39471 -2.16647,-2.88311 -2.16647,-9.38978 z m 2.76412,0 q 0,5.68743 1.25506,7.578 1.27,1.8748 3.1227,1.8748 1.8527,0 3.10777,-1.89057 1.26999,-1.89056 1.26999,-7.56223 0,-5.7032 -1.26999,-7.57801 -1.25507,-1.8748 -3.13765,-1.8748 -1.85271,0 -2.95835,1.65425 -1.38953,2.11112 -1.38953,7.79856 z m -7.59903,86.90811 -3.11965,-2.35085 16.45598,-21.83762 3.11965,2.35085 z m 0,0 -3.11965,-2.35085 16.45598,-21.83762 3.11965,2.35085 z m -19.863139,-16.40085 -2.856841,-2.66406 18.648487,-19.99789 2.856833,2.66406 z m -43.530088,-52.89095 -2.011856,-3.34832 23.438269,-14.08302 2.011856,3.34832 z m -15.828744,-30.46729 -1.526285,-3.59573 25.170144,-10.68402 1.526284,3.59572 z M 9.6894366,303.07872 8.8772821,299.25782 35.6236,293.57274 l 0.812154,3.8209 z m -5.7128167,-46.82879 -0.068168,-3.90567 27.3396711,-0.47718 0.06817,3.90567 z m 14.1021971,-88.58127 1.336026,-3.6707 25.694805,9.35217 -1.336027,3.6707 z m 22.186537,-46.42029 2.070006,-3.31269 23.188886,14.49004 -2.070006,3.3127 z m 31.351633,-40.792978 2.713522,-2.809922 19.669459,18.994669 -2.71352,2.809921 z m 46.316353,-38.118319 3.3127,-2.069998 14.48998,23.188895 -3.3127,2.069997 z m 332.53726,64.910377 2.24055,3.19982 -22.39874,15.68382 -2.24054,-3.19982 z m 0,0 2.24055,3.19982 -22.39874,15.68382 -2.24054,-3.19982 z m -53.92531,-54.96061 3.11969,2.350848 -16.45591,21.837789 -3.11969,-2.350849 z m -64.21015,-34.206749 3.67067,1.336012 -9.35209,25.694781 -3.67069,-1.336012 z M 248.04701,3.9062195 h 3.90625 V 31.249973 h -3.90625 z M 63.988199,411.18029 l -5.021759,-5.98475 38.900906,-32.64145 5.021764,5.98476 z m 0,0 -5.021759,-5.98475 38.900906,-32.64145 5.021764,5.98476 z M 6.3237443,215.36193 l 1.2221596,-7.71634 50.1561261,7.94403 -1.22216,7.71634 z M 174.31356,15.802339 l 7.47115,-2.284154 14.84699,48.562439 -7.47115,2.284153 z m 2.31284,280.349211 v -2.00039 l 6.24499,-0.0116 v 6.32679 q -1.43805,1.32584 -2.96662,2.00039 -1.52857,0.66291 -3.13757,0.66291 -2.17219,0 -3.95216,-1.06997 -1.76991,-1.0816 -2.67499,-3.11688 -0.90507,-2.03527 -0.90507,-4.54736 0,-2.48886 0.89502,-4.64043 0.90507,-2.1632 2.59454,-3.20991 1.68946,-1.04672 3.89181,-1.04672 1.59895,0 2.88617,0.60477 1.29726,0.59313 2.03138,1.66311 0.73411,1.06997 1.11624,2.79123 l -1.75985,0.55825 q -0.33185,-1.30258 -0.82462,-2.04691 -0.49277,-0.74433 -1.40788,-1.18628 -0.91513,-0.45357 -2.03139,-0.45357 -1.3375,0 -2.31296,0.47684 -0.97547,0.4652 -1.57885,1.2328 -0.59332,0.76758 -0.92519,1.68636 -0.56315,1.58169 -0.56315,3.43088 0,2.27952 0.67378,3.8147 0.68383,1.53517 1.9811,2.2795 1.29727,0.74431 2.75544,0.74431 1.2671,0 2.47386,-0.55824 1.20677,-0.56988 1.83025,-1.20952 v -3.17503 z m 7.50204,6.68732 5.66172,-17.04976 h 2.10178 l 6.0338,17.04976 h -2.22245 l -1.71963,-5.16377 h -6.16454 l -1.61908,5.16377 z m 4.25383,-7.00134 h 4.99801 l -1.53863,-4.72182 q -0.70394,-2.15157 -1.04585,-3.53557 -0.28159,1.63985 -0.79446,3.25644 z m 11.02176,7.00134 v -17.04976 h 1.95093 v 15.03776 h 7.26068 v 2.012 z m 11.45418,0 v -17.04976 h 1.95092 v 15.03776 h 7.26069 v 2.012 z m 10.94131,-8.30391 q 0,-4.24499 1.97104,-6.64079 1.97104,-2.40744 5.08851,-2.40744 2.04144,0 3.68062,1.12812 1.63919,1.12812 2.49398,3.15177 0.86484,2.012 0.86484,4.57063 0,2.59352 -0.90506,4.64042 -0.90507,2.04691 -2.56438,3.10525 -1.6593,1.04672 -3.58005,1.04672 -2.08167,0 -3.72085,-1.16303 -1.63919,-1.16301 -2.48392,-3.17502 -0.84473,-2.01201 -0.84473,-4.25663 z m 2.01127,0.0349 q 0,3.08197 1.428,4.86139 1.43805,1.76778 3.60016,1.76778 2.20235,0 3.6203,-1.79105 1.428,-1.79104 1.428,-5.08237 0,-2.08179 -0.61344,-3.62859 -0.60338,-1.55844 -1.77997,-2.40744 -1.16654,-0.86063 -2.62471,-0.86063 -2.07161,0 -3.57,1.65147 -1.48834,1.63985 -1.48834,5.48944 z m 14.5817,8.26901 v -17.04976 h 2.00121 l 7.74339,13.38627 v -13.38627 h 1.87049 v 17.04976 h -2.00122 l -7.74339,-13.3979 v 13.3979 z m 14.22973,-5.47779 1.84032,-0.18608 q 0.13073,1.27931 0.60337,2.10505 0.48271,0.8141 1.48834,1.32583 1.00564,0.5001 2.26268,0.5001 1.11625,0 1.97105,-0.38378 0.85479,-0.38381 1.2671,-1.04672 0.42236,-0.67455 0.42236,-1.4654 0,-0.80248 -0.40226,-1.39562 -0.40225,-0.60476 -1.32743,-1.01182 -0.59332,-0.26749 -2.6247,-0.82573 -2.03138,-0.56988 -2.84595,-1.06998 -1.05592,-0.63966 -1.57885,-1.58169 -0.51287,-0.95367 -0.51287,-2.12832 0,-1.29095 0.63355,-2.40744 0.63355,-1.12812 1.85037,-1.70963 1.21682,-0.5815 2.70515,-0.5815 1.63919,0 2.88618,0.6164 1.25704,0.60477 1.93081,1.79104 0.67378,1.18628 0.72406,2.68656 l -1.87048,0.16282 q -0.15085,-1.61659 -1.02574,-2.44232 -0.86485,-0.82575 -2.56437,-0.82575 -1.76992,0 -2.58448,0.75596 -0.80452,0.74434 -0.80452,1.80267 0,0.91879 0.57322,1.51191 0.56315,0.59315 2.93646,1.22117 2.38335,0.6164 3.26831,1.0816 1.28721,0.68618 1.90065,1.74452 0.61343,1.04671 0.61343,2.41907 0,1.36072 -0.67377,2.57025 -0.67378,1.19791 -1.94088,1.87245 -1.25705,0.66292 -2.83589,0.66292 -2.00122,0 -3.35882,-0.67454 -1.34756,-0.67455 -2.12189,-2.02365 -0.76428,-1.36072 -0.80451,-3.07035 z m 12.8118,5.76854 4.27394,-17.63127 h 1.44811 l -4.26389,17.63127 z m 7.3713,-0.29075 v -17.04976 h 1.95093 v 7.00133 h 7.66293 v -7.00133 h 1.95093 v 17.04976 h -1.95093 v -8.03641 h -7.66293 v 8.03641 z m 14.21968,-8.30391 q 0,-4.24499 1.97104,-6.64081 1.97104,-2.40742 5.08851,-2.40742 2.04144,0 3.68062,1.12812 1.63918,1.12812 2.49398,3.15175 0.86485,2.01202 0.86485,4.57064 0,2.59352 -0.90508,4.64043 -0.90507,2.04691 -2.56437,3.10525 -1.6593,1.0467 -3.58005,1.0467 -2.08167,0 -3.72086,-1.16301 -1.63918,-1.16301 -2.48392,-3.17503 -0.84472,-2.012 -0.84472,-4.25662 z m 2.01127,0.0349 q 0,3.08198 1.42799,4.86139 1.43806,1.76779 3.60017,1.76779 2.20235,0 3.6203,-1.79105 1.42799,-1.79105 1.42799,-5.08236 0,-2.0818 -0.61344,-3.6286 -0.60338,-1.55844 -1.77997,-2.40744 -1.16653,-0.86063 -2.6247,-0.86063 -2.07161,0 -3.57,1.65147 -1.48834,1.63986 -1.48834,5.48943 z m 24.27602,-8.78074 h 1.95093 v 9.8507 q 0,2.57027 -0.50282,4.08218 -0.50281,1.51192 -1.8202,2.46559 -1.30731,0.94205 -3.43927,0.94205 -2.0716,0 -3.38899,-0.82575 -1.31738,-0.82573 -1.88054,-2.38418 -0.56316,-1.57006 -0.56316,-4.27989 v -9.8507 h 1.95095 v 9.83908 q 0,2.22135 0.35196,3.27969 0.36204,1.04672 1.22688,1.6166 0.8749,0.56987 2.13195,0.56987 2.15206,0 3.06718,-1.12813 0.91513,-1.12812 0.91513,-4.33803 z m 5.22929,17.04986 v -17.04976 h 6.53662 q 1.97106,0 2.9968,0.4652 1.02575,0.45357 1.63919,1.61659 0.61344,1.163 0.61344,2.57026 0,1.81429 -1.0157,3.05872 -1.01569,1.24442 -3.13758,1.58169 0.77435,0.43032 1.17659,0.849 0.8548,0.90715 1.61907,2.26789 l 2.56437,4.64041 h -2.45375 l -1.95092,-3.54719 q -0.85479,-1.53517 -1.40789,-2.34928 -0.5531,-0.81411 -0.99558,-1.13976 -0.43243,-0.32564 -0.88496,-0.45357 -0.33186,-0.0814 -1.08608,-0.0814 h -2.26269 v 7.57124 z m 1.95093,-9.52508 h 4.1935 q 1.3375,0 2.09172,-0.31401 0.75423,-0.32564 1.14643,-1.02345 0.3922,-0.70943 0.3922,-1.53517 0,-1.20954 -0.76428,-1.98876 -0.75423,-0.77922 -2.39342,-0.77922 h -4.66615 z m -145.912,-100.95651 v -23.76256 h 11.97891 v 2.80418 h -9.62915 v 7.35894 h 8.33315 v 2.80416 h -8.33315 v 10.79528 z m 26.68305,-23.76256 h 2.34974 v 13.72911 q 0,3.58222 -0.6056,5.6894 -0.60561,2.10719 -2.19229,3.43633 -1.57458,1.31295 -4.14235,1.31295 -2.49511,0 -4.08179,-1.15085 -1.5867,-1.15085 -2.26498,-3.32287 -0.67827,-2.18823 -0.67827,-5.96496 v -13.72911 h 2.34975 v 13.7129 q 0,3.09595 0.42393,4.57097 0.43603,1.45882 1.47767,2.25306 1.05376,0.79427 2.56778,0.79427 2.592,0 3.6942,-1.5723 1.10221,-1.57228 1.10221,-6.046 z m 6.31041,23.76256 v -23.76256 h 12.83887 v 2.80418 h -10.48911 v 7.27789 h 9.82295 v 2.78796 h -9.82295 v 8.08835 h 10.90092 v 2.80418 z m 16.39984,0 v -23.76256 h 2.34975 v 20.95838 h 8.74496 v 2.80418 z m 19.98502,0 v -23.76256 h 11.9789 v 2.80418 h -9.62914 v 7.35894 h 8.33314 v 2.80416 h -8.33314 v 10.79528 z m 14.93427,0 v -23.76256 h 2.34975 v 20.95838 h 8.74497 v 2.80418 z m 13.17799,-11.57331 q 0,-5.91633 2.37399,-9.25539 2.37397,-3.35528 6.12874,-3.35528 2.45876,0 4.43304,1.57227 1.97428,1.57228 3.00381,4.39267 1.04164,2.80418 1.04164,6.37018 0,3.61463 -1.09009,6.46743 -1.0901,2.85281 -3.08859,4.32783 -1.99851,1.45883 -4.31192,1.45883 -2.50722,0 -4.4815,-1.62092 -1.97428,-1.62092 -2.9917,-4.42508 -1.01742,-2.80418 -1.01742,-5.93254 z m 2.42243,0.0486 q 0,4.2954 1.71993,6.77541 1.73203,2.46378 4.33615,2.46378 2.65254,0 4.36036,-2.49621 1.71992,-2.4962 1.71992,-7.08338 0,-2.90142 -0.73883,-5.05724 -0.72673,-2.17201 -2.14385,-3.35528 -1.40501,-1.19948 -3.16127,-1.19948 -2.4951,0 -4.29981,2.30169 -1.7926,2.28549 -1.7926,7.65071 z m 20.68753,11.52467 -4.71162,-23.76255 h 2.41032 l 2.701,15.57695 q 0.43603,2.44758 0.75095,4.86273 0.67828,-3.80914 0.7994,-4.39267 l 3.37929,-16.04701 h 2.83424 l 2.54355,12.02716 q 0.95685,4.47371 1.38078,8.41252 0.33914,-2.25307 0.88419,-5.1707 l 2.78579,-15.26898 h 2.36187 l -4.86908,23.76255 h -2.26497 l -3.74266,-18.10558 q -0.47237,-2.26927 -0.55715,-2.78797 -0.27858,1.63713 -0.52083,2.78797 l -3.76687,18.10558 z M 250.00011,46.874978 C 137.8751,46.874978 46.875089,137.87501 46.875087,250 c 0,112.12502 91.000013,203.12503 203.125023,203.12503 11.91424,0 23.4977,-1.26375 34.85108,-3.23486 l -1.52588,-7.6294 c -10.84711,1.87032 -21.94658,3.05176 -33.3252,3.05176 -107.81249,0 -195.312522,-87.50001 -195.312522,-195.31253 0,-107.81253 87.500012,-195.312521 195.312522,-195.312521 87.75287,-2e-5 162.03634,57.988001 186.64554,137.695331 l 7.50733,-2.13623 C 418.61108,107.26592 341.32364,46.874997 250.00011,46.874978 Z m -95.82521,316.345252 -5.12695,5.92041 c 27.24254,23.11046 62.45612,37.1094 100.95216,37.1094 8.82915,0 17.448,-0.90996 25.87891,-2.31935 l -1.46484,-7.69043 c -7.95826,1.32129 -16.08293,2.19726 -24.41407,2.19726 -36.53254,0 -69.95608,-13.304 -95.82521,-35.21729 z" />
</svg>

