<svg
   width="500"
   height="500"
   viewBox="0 0 500 500"
   preserveAspectRatio="xMinYMin meet"
   version="1.1"
   xmlns="http://www.w3.org/2000/svg"
   xmlns:svg="http://www.w3.org/2000/svg">

  <path style="fill:#ffffff"
    d="m 239.4651,32.663451 v 97.555819 l -6.92701,8.65879 v 34.92383 l 6.92701,11.39037 v 64.80708 h 21.06976 v -65.51826 l 6.92705,-10.67919 v -34.92383 l -6.92705,-8.65879 V 32.663451 L 249.29018,9.8740011 Z" />
  <path style=""
    d="m 240.54918,171.32703 v -29.67039 h 9.8486 q 3.71496,0 5.39064,0.80956 1.69149,0.78933 2.70323,2.83346 1.01173,2.04414 1.01173,4.67521 0,3.33944 -1.53341,5.52526 -1.53341,2.16557 -4.58442,2.73226 1.5176,1.13339 2.49772,2.4894 0.99592,1.35602 2.67161,4.81689 l 2.82969,5.78835 h -5.59615 l -3.38299,-6.45625 q -1.80215,-3.46086 -2.46609,-4.35138 -0.66396,-0.91076 -1.40695,-1.23458 -0.74299,-0.34406 -2.35544,-0.34406 h -0.9485 v 12.38627 z m 4.67927,-17.1222 h 3.46202 q 3.36719,0 4.20503,-0.36431 0.83784,-0.36429 1.31209,-1.25481 0.47425,-0.89052 0.47425,-2.22629 0,-1.49769 -0.63234,-2.40845 -0.61652,-0.93099 -1.75472,-1.17385 -0.5691,-0.10116 -3.4146,-0.10116 h -3.65173 z M 272.75,355.63672 A 22.75,22.750013 0 0 1 250,378.38673 22.75,22.750013 0 0 1 227.25,355.63672 22.75,22.750013 0 0 1 250,332.8867 22.75,22.750013 0 0 1 272.75,355.63672 Z M 272.75,250 A 22.75,22.750013 0 0 1 250,272.75001 22.75,22.750013 0 0 1 227.25,250 22.75,22.750013 0 0 1 250,227.24999 22.75,22.750013 0 0 1 272.75,250 Z m -33.26407,0 h 20.74014 c 0.0914,0 0.16492,0.0737 0.16492,0.16493 v 100.40201 c 0,0.0914 -0.0736,0.16494 -0.16492,0.16494 h -20.74014 c -0.0914,0 -0.16494,-0.0737 -0.16494,-0.16494 V 250.16493 c 0,-0.0914 0.0736,-0.16493 0.16494,-0.16493 z" />
</svg>

