<svg
   width="500"
   height="500"
   viewBox="0 0 500 500"
   preserveAspectRatio="xMinYMin meet"
   version="1.1"
   xmlns="http://www.w3.org/2000/svg"
   xmlns:svg="http://www.w3.org/2000/svg">

  <path
    d="m 239.4651,32.663451 v 46.757526 l -6.92701,8.658792 V 123.0036 l 6.92701,11.39037 v 115.60537 h 21.06976 V 133.68278 l 6.92705,-10.67918 V 88.079769 l -6.92705,-8.658792 V 32.663451 L 249.29018,9.8740011 Z"
    style="fill:#ffffff;" />
  <path
    style=""
    d="M 241.80275,121.10611 V 91.678597 h 4.67927 v 24.428483 h 11.63494 v 4.99903 z M 272.75,355.63699 A 22.75,22.750013 0 0 1 250,378.38702 22.75,22.750013 0 0 1 227.25,355.63699 22.75,22.750013 0 0 1 250,332.88698 22.75,22.750013 0 0 1 272.75,355.63699 Z M 272.75,250 A 22.75,22.750013 0 0 1 250,272.75001 22.75,22.750013 0 0 1 227.25,250 22.75,22.750013 0 0 1 250,227.24999 22.75,22.750013 0 0 1 272.75,250 Z m -33.26409,0 h 20.74014 c 0.0914,0 0.16493,0.0737 0.16493,0.16493 v 100.40201 c 0,0.0914 -0.0736,0.16494 -0.16493,0.16494 h -20.74014 c -0.0914,0 -0.16493,-0.0737 -0.16493,-0.16494 V 250.16493 c 0,-0.0914 0.0736,-0.16493 0.16493,-0.16493 z" />
</svg>

