<svg
   width="1100"
   height="128"
   viewBox="0 0 1100 128"
   preserveAspectRatio="xMinYMin meet"
   version="1.1"
   xmlns="http://www.w3.org/2000/svg"
   xmlns:svg="http://www.w3.org/2000/svg">

    <rect
       style="fill:#202020"
       width="1100"
       height="128"
       x="0"
       y="0"
       />
    <path
       style="fill:#ffffff"
       d="M 119.6 21.3 L 119.6 42.97 L 122.9 42.97 L 122.9 21.3 L 119.6 21.3 z M 245.55 21.3 L 258.02 42.95 L 261.84 42.97 L 249.34 21.32 L 245.55 21.3 z M 564.43 21.3 L 563.33 42.97 L 566.62 42.97 L 567.73 21.3 L 564.43 21.3 z M 674.04 21.3 L 686.52 42.95 L 690.34 42.97 L 677.83 21.32 L 674.04 21.3 z M 715.4 21.3 L 723.65 42.95 L 727.46 42.97 L 719.19 21.32 L 715.4 21.3 z M 799.76 21.3 L 794.22 42.95 L 798.04 42.97 L 803.55 21.32 L 799.76 21.3 z M 939.94 21.3 L 945.45 42.97 L 948.75 42.97 L 943.24 21.3 L 939.94 21.3 z M 962.88 21.3 L 964.35 42.97 L 967.65 42.97 L 966.18 21.3 L 962.88 21.3 z M 992.22 21.3 L 988.36 42.97 L 991.66 42.97 L 995.51 21.3 L 992.22 21.3 z M 1015.3 21.3 L 1008.13 42.97 L 1011.43 42.97 L 1018.6 21.3 L 1015.3 21.3 z M 1036.33 21.3 L 1027.13 42.97 L 1030.43 42.97 L 1039.62 21.3 L 1036.33 21.3 z M 31.3 21.3 L 43.77 42.95 L 47.59 42.97 L 35.09 21.32 L 31.3 21.3 z M 459.79 21.3 L 472.27 42.95 L 476.09 42.97 L 463.59 21.32 L 459.79 21.3 z M 888.29 21.3 L 900.77 42.95 L 904.59 42.97 L 892.08 21.32 L 888.29 21.3 z M 207.41 21.32 L 194.92 43 L 198.73 42.95 L 211.19 21.34 L 207.41 21.32 z M 1064.41 21.32 L 1051.91 43 L 1055.72 42.95 L 1068.18 21.34 L 1064.41 21.32 z M 685.39 45.88 C 685.1 46.47 684.6 47.08 683.9 47.71 C 683.2 48.33 682.38 48.87 681.45 49.31 L 681.45 50.93 C 681.97 50.73 682.55 50.45 683.21 50.06 C 683.86 49.68 684.39 49.29 684.8 48.91 L 684.8 59.58 L 686.47 59.58 L 686.47 45.88 L 685.39 45.88 z M 692.82 45.88 C 691.83 45.88 691 46.15 690.34 46.68 C 689.69 47.22 689.2 47.98 688.86 48.96 C 688.53 49.94 688.37 51.24 688.37 52.85 C 688.37 55.41 688.82 57.26 689.72 58.4 C 690.47 59.34 691.5 59.81 692.82 59.81 C 693.82 59.81 694.64 59.55 695.29 59.01 C 695.95 58.47 696.44 57.71 696.77 56.73 C 697.1 55.75 697.26 54.45 697.26 52.85 C 697.26 51.5 697.16 50.43 696.96 49.63 C 696.75 48.83 696.47 48.16 696.11 47.61 C 695.75 47.05 695.29 46.62 694.74 46.33 C 694.19 46.03 693.55 45.88 692.82 45.88 z M 720.65 45.88 C 719.57 45.88 718.67 46.19 717.94 46.82 C 717.22 47.43 716.75 48.3 716.55 49.42 L 718.22 49.72 C 718.35 48.9 718.63 48.29 719.06 47.88 C 719.49 47.47 720.04 47.26 720.69 47.26 C 721.34 47.26 721.88 47.46 722.3 47.87 C 722.71 48.27 722.92 48.78 722.92 49.39 C 722.92 50.17 722.63 50.74 722.06 51.11 C 721.49 51.49 720.85 51.67 720.14 51.67 C 720.07 51.67 719.98 51.67 719.87 51.65 L 719.68 53.12 C 720.15 53 720.55 52.94 720.86 52.94 C 721.64 52.94 722.28 53.19 722.78 53.69 C 723.28 54.19 723.53 54.82 723.53 55.59 C 723.53 56.39 723.26 57.07 722.72 57.62 C 722.18 58.16 721.51 58.44 720.72 58.44 C 720.06 58.44 719.5 58.23 719.03 57.81 C 718.57 57.39 718.25 56.7 718.05 55.75 L 716.38 55.98 C 716.49 57.11 716.94 58.04 717.73 58.75 C 718.52 59.47 719.52 59.82 720.71 59.82 C 722.04 59.82 723.14 59.41 724.01 58.58 C 724.88 57.75 725.31 56.74 725.31 55.55 C 725.31 54.67 725.09 53.94 724.64 53.36 C 724.19 52.77 723.57 52.38 722.76 52.19 C 723.38 51.91 723.85 51.52 724.17 51.04 C 724.48 50.56 724.64 50.02 724.64 49.43 C 724.64 48.81 724.47 48.22 724.14 47.67 C 723.81 47.12 723.33 46.68 722.71 46.37 C 722.08 46.05 721.39 45.88 720.65 45.88 z M 730.68 45.88 C 729.69 45.88 728.86 46.15 728.2 46.68 C 727.55 47.22 727.06 47.98 726.73 48.96 C 726.4 49.94 726.23 51.24 726.23 52.85 C 726.23 55.41 726.68 57.26 727.58 58.4 C 728.33 59.34 729.36 59.81 730.68 59.81 C 731.68 59.81 732.5 59.55 733.15 59.01 C 733.81 58.47 734.3 57.71 734.63 56.73 C 734.96 55.75 735.13 54.45 735.13 52.85 C 735.13 51.5 735.02 50.43 734.82 49.63 C 734.61 48.83 734.33 48.16 733.97 47.61 C 733.61 47.05 733.16 46.62 732.61 46.33 C 732.05 46.03 731.41 45.88 730.68 45.88 z M 790.84 45.88 C 789.66 45.88 788.71 46.22 788 46.9 C 787.28 47.58 786.93 48.41 786.93 49.4 C 786.93 50.06 787.09 50.62 787.43 51.09 C 787.76 51.57 788.28 51.93 788.97 52.18 C 788.14 52.4 787.5 52.81 787.05 53.41 C 786.6 54.01 786.38 54.75 786.38 55.64 C 786.38 56.83 786.79 57.82 787.61 58.62 C 788.44 59.42 789.53 59.81 790.87 59.81 C 792.22 59.81 793.3 59.42 794.13 58.62 C 794.95 57.83 795.37 56.85 795.37 55.68 C 795.37 54.84 795.15 54.11 794.71 53.5 C 794.27 52.9 793.64 52.46 792.8 52.18 C 793.47 51.93 793.98 51.57 794.31 51.1 C 794.64 50.63 794.81 50.08 794.81 49.45 C 794.81 48.45 794.45 47.61 793.72 46.93 C 792.99 46.23 792.03 45.88 790.84 45.88 z M 800.71 45.88 C 799.71 45.88 798.89 46.15 798.23 46.68 C 797.58 47.22 797.09 47.98 796.75 48.96 C 796.42 49.94 796.26 51.24 796.26 52.85 C 796.26 55.41 796.71 57.26 797.61 58.4 C 798.36 59.34 799.39 59.81 800.71 59.81 C 801.71 59.81 802.53 59.55 803.18 59.01 C 803.84 58.47 804.33 57.71 804.66 56.73 C 804.99 55.75 805.15 54.45 805.15 52.85 C 805.15 51.5 805.05 50.43 804.85 49.63 C 804.64 48.83 804.36 48.16 804 47.61 C 803.64 47.05 803.18 46.62 802.63 46.33 C 802.08 46.03 801.44 45.88 800.71 45.88 z M 828.2 45.88 C 827.91 46.47 827.41 47.08 826.71 47.71 C 826.01 48.33 825.19 48.87 824.26 49.31 L 824.26 50.93 C 824.78 50.73 825.36 50.45 826.01 50.06 C 826.67 49.68 827.2 49.29 827.61 48.91 L 827.61 59.58 L 829.28 59.58 L 829.28 45.88 L 828.2 45.88 z M 835.63 45.88 C 834.64 45.88 833.81 46.15 833.15 46.68 C 832.5 47.22 832.01 47.98 831.67 48.96 C 831.34 49.94 831.18 51.24 831.18 52.85 C 831.18 55.41 831.63 57.26 832.53 58.4 C 833.28 59.34 834.31 59.81 835.63 59.81 C 836.63 59.81 837.45 59.55 838.1 59.01 C 838.76 58.47 839.25 57.71 839.58 56.73 C 839.91 55.75 840.07 54.45 840.07 52.85 C 840.07 51.5 839.97 50.43 839.77 49.63 C 839.56 48.83 839.28 48.16 838.92 47.61 C 838.56 47.05 838.1 46.62 837.55 46.33 C 837 46.03 836.36 45.88 835.63 45.88 z M 845.86 45.88 C 844.86 45.88 844.04 46.15 843.38 46.68 C 842.73 47.22 842.24 47.98 841.9 48.96 C 841.57 49.94 841.41 51.24 841.41 52.85 C 841.41 55.41 841.86 57.26 842.76 58.4 C 843.51 59.34 844.54 59.81 845.86 59.81 C 846.86 59.81 847.68 59.55 848.33 59.01 C 848.99 58.47 849.48 57.71 849.81 56.73 C 850.14 55.75 850.3 54.45 850.3 52.85 C 850.3 51.5 850.2 50.43 850 49.63 C 849.79 48.83 849.51 48.16 849.15 47.61 C 848.79 47.05 848.33 46.62 847.78 46.33 C 847.23 46.03 846.59 45.88 845.86 45.88 z M 557.34 45.89 C 557.05 46.48 556.56 47.09 555.86 47.71 C 555.15 48.34 554.34 48.87 553.4 49.31 L 553.4 50.93 C 553.92 50.74 554.51 50.45 555.16 50.06 C 555.82 49.68 556.34 49.3 556.75 48.91 L 556.75 59.58 L 558.42 59.58 L 558.42 45.89 L 557.34 45.89 z M 564.77 45.89 C 563.58 45.89 562.64 46.22 561.92 46.9 C 561.21 47.58 560.85 48.41 560.85 49.4 C 560.85 50.06 561.02 50.63 561.35 51.1 C 561.69 51.57 562.2 51.93 562.9 52.19 C 562.07 52.4 561.43 52.81 560.97 53.41 C 560.53 54.01 560.3 54.75 560.3 55.64 C 560.3 56.83 560.72 57.82 561.54 58.62 C 562.37 59.42 563.45 59.82 564.8 59.82 C 566.14 59.82 567.23 59.42 568.05 58.62 C 568.88 57.83 569.29 56.85 569.29 55.68 C 569.29 54.84 569.07 54.12 568.63 53.51 C 568.2 52.9 567.56 52.46 566.72 52.19 C 567.4 51.93 567.9 51.57 568.23 51.11 C 568.57 50.63 568.73 50.08 568.73 49.45 C 568.73 48.46 568.37 47.62 567.64 46.93 C 566.92 46.24 565.96 45.89 564.77 45.89 z M 574.63 45.89 C 573.64 45.89 572.81 46.15 572.16 46.69 C 571.5 47.22 571.01 47.98 570.68 48.97 C 570.35 49.95 570.18 51.24 570.18 52.86 C 570.18 55.42 570.63 57.27 571.53 58.4 C 572.28 59.34 573.32 59.82 574.63 59.82 C 575.63 59.82 576.46 59.55 577.11 59.01 C 577.76 58.47 578.26 57.72 578.58 56.74 C 578.91 55.75 579.08 54.46 579.08 52.86 C 579.08 51.5 578.98 50.43 578.77 49.64 C 578.57 48.84 578.28 48.16 577.92 47.61 C 577.57 47.05 577.11 46.63 576.56 46.33 C 576 46.04 575.36 45.89 574.63 45.89 z M 613.26 45.89 C 611.96 45.89 610.93 46.22 610.16 46.9 C 609.39 47.57 608.94 48.55 608.83 49.83 L 610.55 50.01 C 610.55 49.15 610.8 48.48 611.28 48 C 611.77 47.52 612.41 47.27 613.22 47.27 C 613.98 47.27 614.6 47.5 615.07 47.96 C 615.55 48.41 615.79 48.97 615.79 49.64 C 615.79 50.27 615.53 50.94 615 51.66 C 614.48 52.36 613.48 53.32 612 54.54 C 611.04 55.32 610.31 56.01 609.8 56.6 C 609.3 57.2 608.93 57.81 608.71 58.42 C 608.56 58.79 608.5 59.18 608.51 59.58 L 617.53 59.58 L 617.53 57.97 L 610.84 57.97 C 611.02 57.67 611.26 57.37 611.54 57.07 C 611.83 56.77 612.47 56.19 613.48 55.35 C 614.68 54.33 615.54 53.53 616.06 52.95 C 616.58 52.37 616.95 51.81 617.17 51.28 C 617.4 50.76 617.51 50.22 617.51 49.67 C 617.51 48.6 617.12 47.7 616.36 46.98 C 615.6 46.25 614.56 45.89 613.26 45.89 z M 632.53 45.89 C 631.54 45.89 630.71 46.15 630.05 46.69 C 629.4 47.22 628.91 47.98 628.57 48.97 C 628.24 49.95 628.08 51.24 628.08 52.86 C 628.08 55.42 628.53 57.27 629.43 58.4 C 630.18 59.34 631.21 59.82 632.53 59.82 C 633.53 59.82 634.35 59.55 635 59.01 C 635.66 58.47 636.15 57.72 636.48 56.74 C 636.81 55.75 636.98 54.46 636.98 52.86 C 636.98 51.5 636.87 50.43 636.67 49.64 C 636.46 48.84 636.18 48.16 635.82 47.61 C 635.46 47.05 635 46.63 634.45 46.33 C 633.9 46.04 633.26 45.89 632.53 45.89 z M 623.89 45.94 L 617.67 54.78 L 617.67 56.32 L 623.59 56.32 L 623.59 59.58 L 625.26 59.58 L 625.26 56.32 L 627.1 56.32 L 627.1 54.78 L 625.26 54.78 L 625.26 45.94 L 623.89 45.94 z M 466.03 46.12 L 466.03 47.73 L 472.71 47.73 C 471.86 48.7 471.05 49.89 470.3 51.3 C 469.55 52.71 468.97 54.17 468.57 55.69 C 468.16 57.21 467.95 58.51 467.93 59.58 L 469.65 59.58 C 469.75 58.22 469.96 56.97 470.3 55.83 C 470.76 54.21 471.42 52.64 472.27 51.11 C 473.13 49.57 473.99 48.35 474.85 47.42 L 474.85 46.12 L 466.03 46.12 z M 476.66 46.13 L 475.34 53.13 L 476.91 53.34 C 477.16 52.95 477.5 52.63 477.93 52.39 C 478.37 52.14 478.86 52.02 479.4 52.02 C 480.26 52.02 480.96 52.3 481.5 52.85 C 482.04 53.4 482.31 54.15 482.31 55.11 C 482.31 56.11 482.03 56.92 481.47 57.53 C 480.91 58.13 480.23 58.44 479.42 58.44 C 478.75 58.44 478.18 58.22 477.7 57.8 C 477.23 57.36 476.93 56.72 476.8 55.86 L 475.04 56.01 C 475.15 57.16 475.6 58.08 476.38 58.77 C 477.17 59.47 478.18 59.82 479.42 59.82 C 480.94 59.82 482.13 59.26 483 58.16 C 483.72 57.26 484.08 56.19 484.08 54.96 C 484.08 53.66 483.68 52.6 482.86 51.78 C 482.04 50.95 481.03 50.54 479.84 50.54 C 478.94 50.54 478.08 50.82 477.27 51.4 L 478 47.73 L 483.44 47.73 L 483.44 46.13 L 476.66 46.13 z M 256.2 47.17 C 254.9 47.17 253.87 47.51 253.1 48.18 C 252.33 48.85 251.89 49.83 251.77 51.12 L 253.49 51.29 C 253.5 50.44 253.74 49.77 254.22 49.28 C 254.71 48.8 255.35 48.56 256.16 48.56 C 256.92 48.56 257.54 48.79 258.01 49.25 C 258.49 49.7 258.73 50.26 258.73 50.92 C 258.73 51.55 258.47 52.23 257.95 52.94 C 257.43 53.65 256.42 54.61 254.94 55.82 C 253.99 56.6 253.25 57.29 252.75 57.89 C 252.24 58.48 251.88 59.09 251.65 59.7 C 251.5 60.07 251.44 60.46 251.45 60.87 L 260.47 60.87 L 260.47 59.26 L 253.78 59.26 C 253.96 58.95 254.2 58.65 254.49 58.35 C 254.77 58.05 255.42 57.48 256.42 56.63 C 257.62 55.61 258.48 54.82 259 54.23 C 259.52 53.65 259.89 53.09 260.11 52.57 C 260.34 52.04 260.45 51.5 260.45 50.96 C 260.45 49.88 260.07 48.98 259.3 48.26 C 258.54 47.53 257.51 47.17 256.2 47.17 z M 266.71 47.17 C 265.72 47.17 264.89 47.44 264.23 47.97 C 263.58 48.51 263.09 49.26 262.76 50.25 C 262.43 51.23 262.26 52.53 262.26 54.14 C 262.26 56.7 262.71 58.55 263.61 59.68 C 264.36 60.63 265.4 61.1 266.71 61.1 C 267.71 61.1 268.53 60.83 269.19 60.3 C 269.84 59.76 270.33 59 270.66 58.02 C 270.99 57.03 271.16 55.74 271.16 54.14 C 271.16 52.79 271.06 51.71 270.85 50.92 C 270.65 50.12 270.36 49.44 270 48.89 C 269.64 48.33 269.19 47.91 268.64 47.62 C 268.08 47.32 267.44 47.17 266.71 47.17 z M 277.31 47.17 C 276.31 47.17 275.49 47.44 274.83 47.97 C 274.18 48.51 273.69 49.26 273.35 50.25 C 273.02 51.23 272.86 52.53 272.86 54.14 C 272.86 56.7 273.31 58.55 274.21 59.68 C 274.96 60.63 275.99 61.1 277.31 61.1 C 278.31 61.1 279.13 60.83 279.78 60.3 C 280.44 59.76 280.93 59 281.26 58.02 C 281.59 57.03 281.75 55.74 281.75 54.14 C 281.75 52.79 281.65 51.71 281.45 50.92 C 281.24 50.12 280.96 49.44 280.6 48.89 C 280.24 48.33 279.78 47.91 279.23 47.62 C 278.68 47.32 278.04 47.17 277.31 47.17 z M 409.89 47.17 C 408.45 47.17 407.31 47.69 406.46 48.73 C 405.48 49.93 405 51.85 405 54.48 C 405 56.84 405.44 58.53 406.32 59.56 C 407.2 60.59 408.34 61.1 409.73 61.1 C 410.55 61.1 411.28 60.9 411.93 60.51 C 412.57 60.12 413.08 59.56 413.45 58.83 C 413.82 58.09 414 57.29 414 56.44 C 414 55.13 413.61 54.07 412.82 53.26 C 412.04 52.43 411.09 52.02 409.98 52.02 C 409.34 52.02 408.73 52.17 408.14 52.46 C 407.56 52.76 407.07 53.22 406.66 53.83 C 406.68 52.47 406.83 51.42 407.14 50.68 C 407.44 49.94 407.86 49.38 408.39 48.99 C 408.79 48.7 409.26 48.55 409.79 48.55 C 410.45 48.55 411.01 48.79 411.46 49.26 C 411.74 49.56 411.95 50.04 412.1 50.7 L 413.76 50.57 C 413.63 49.51 413.21 48.68 412.52 48.07 C 411.84 47.47 410.97 47.17 409.89 47.17 z M 420.12 47.17 C 419.12 47.17 418.3 47.44 417.64 47.97 C 416.99 48.51 416.5 49.26 416.16 50.25 C 415.83 51.23 415.67 52.53 415.67 54.14 C 415.67 56.7 416.12 58.55 417.02 59.68 C 417.77 60.63 418.8 61.1 420.12 61.1 C 421.11 61.1 421.94 60.83 422.59 60.3 C 423.25 59.76 423.74 59 424.07 58.02 C 424.4 57.03 424.56 55.74 424.56 54.14 C 424.56 52.79 424.46 51.71 424.26 50.92 C 424.05 50.12 423.77 49.44 423.41 48.89 C 423.05 48.33 422.6 47.91 422.04 47.62 C 421.49 47.32 420.85 47.17 420.12 47.17 z M 48.84 47.17 C 47.85 47.17 47.02 47.44 46.37 47.97 C 45.72 48.51 45.22 49.27 44.89 50.25 C 44.56 51.23 44.4 52.53 44.4 54.14 C 44.4 56.7 44.84 58.55 45.74 59.69 C 46.49 60.63 47.53 61.1 48.84 61.1 C 49.84 61.1 50.67 60.83 51.32 60.3 C 51.98 59.76 52.47 59 52.8 58.02 C 53.12 57.04 53.29 55.74 53.29 54.14 C 53.29 52.79 53.19 51.72 52.98 50.92 C 52.78 50.12 52.5 49.45 52.14 48.89 C 51.78 48.34 51.32 47.91 50.77 47.62 C 50.22 47.32 49.57 47.17 48.84 47.17 z M 115.83 47.17 C 114.75 47.17 113.85 47.48 113.13 48.1 C 112.4 48.72 111.94 49.59 111.73 50.71 L 113.41 51.01 C 113.53 50.19 113.81 49.57 114.24 49.16 C 114.68 48.75 115.22 48.55 115.87 48.55 C 116.53 48.55 117.07 48.75 117.48 49.16 C 117.9 49.56 118.1 50.07 118.1 50.68 C 118.1 51.46 117.82 52.03 117.25 52.4 C 116.68 52.77 116.04 52.96 115.32 52.96 C 115.25 52.96 115.16 52.95 115.05 52.94 L 114.87 54.41 C 115.34 54.29 115.73 54.22 116.05 54.22 C 116.82 54.22 117.46 54.48 117.97 54.98 C 118.47 55.48 118.72 56.11 118.72 56.88 C 118.72 57.68 118.45 58.36 117.9 58.9 C 117.36 59.45 116.7 59.72 115.91 59.72 C 115.24 59.72 114.68 59.52 114.22 59.1 C 113.76 58.68 113.43 57.99 113.24 57.04 L 111.56 57.27 C 111.68 58.4 112.13 59.33 112.91 60.04 C 113.71 60.75 114.7 61.11 115.9 61.11 C 117.23 61.11 118.33 60.7 119.19 59.87 C 120.06 59.04 120.5 58.03 120.5 56.84 C 120.5 55.96 120.27 55.23 119.83 54.64 C 119.38 54.06 118.75 53.67 117.95 53.48 C 118.57 53.2 119.04 52.81 119.35 52.33 C 119.67 51.84 119.83 51.31 119.83 50.72 C 119.83 50.1 119.66 49.51 119.32 48.96 C 118.99 48.41 118.52 47.97 117.89 47.66 C 117.27 47.33 116.58 47.17 115.83 47.17 z M 198.76 47.17 C 197.77 47.17 196.94 47.44 196.29 47.97 C 195.64 48.51 195.14 49.27 194.81 50.25 C 194.48 51.23 194.31 52.53 194.31 54.14 C 194.31 56.7 194.76 58.55 195.66 59.69 C 196.41 60.63 197.45 61.1 198.76 61.1 C 199.76 61.1 200.59 60.83 201.24 60.3 C 201.89 59.76 202.39 59 202.71 58.02 C 203.04 57.04 203.21 55.74 203.21 54.14 C 203.21 52.79 203.11 51.72 202.9 50.92 C 202.7 50.12 202.41 49.45 202.06 48.89 C 201.7 48.34 201.24 47.91 200.69 47.62 C 200.13 47.32 199.49 47.17 198.76 47.17 z M 905.83 47.17 C 904.84 47.17 904.02 47.44 903.36 47.97 C 902.71 48.51 902.22 49.27 901.88 50.25 C 901.55 51.23 901.39 52.53 901.39 54.14 C 901.39 56.7 901.84 58.55 902.74 59.69 C 903.49 60.63 904.52 61.1 905.83 61.1 C 906.83 61.1 907.66 60.83 908.31 60.3 C 908.97 59.76 909.46 59 909.79 58.02 C 910.12 57.04 910.28 55.74 910.28 54.14 C 910.28 52.79 910.18 51.72 909.98 50.92 C 909.77 50.12 909.49 49.45 909.13 48.89 C 908.77 48.34 908.31 47.91 907.76 47.62 C 907.21 47.32 906.57 47.17 905.83 47.17 z M 961.68 47.17 C 960.39 47.17 959.35 47.51 958.59 48.19 C 957.82 48.86 957.37 49.83 957.25 51.12 L 958.98 51.3 C 958.98 50.44 959.23 49.77 959.71 49.28 C 960.2 48.8 960.84 48.56 961.65 48.56 C 962.41 48.56 963.03 48.79 963.5 49.25 C 963.97 49.7 964.21 50.26 964.21 50.92 C 964.21 51.56 963.95 52.23 963.43 52.94 C 962.91 53.65 961.91 54.61 960.43 55.83 C 959.47 56.61 958.74 57.3 958.23 57.89 C 957.73 58.49 957.36 59.09 957.13 59.71 C 956.99 60.08 956.93 60.47 956.94 60.87 L 965.95 60.87 L 965.95 59.26 L 959.26 59.26 C 959.45 58.95 959.69 58.65 959.97 58.36 C 960.26 58.05 960.9 57.48 961.91 56.64 C 963.11 55.62 963.97 54.82 964.48 54.23 C 965 53.65 965.38 53.1 965.6 52.57 C 965.82 52.04 965.94 51.51 965.94 50.96 C 965.94 49.89 965.55 48.99 964.79 48.26 C 964.03 47.54 962.99 47.17 961.68 47.17 z M 972.2 47.17 C 971.2 47.17 970.38 47.44 969.72 47.97 C 969.07 48.51 968.58 49.27 968.24 50.25 C 967.91 51.23 967.75 52.53 967.75 54.14 C 967.75 56.7 968.2 58.55 969.1 59.69 C 969.85 60.63 970.88 61.1 972.2 61.1 C 973.19 61.1 974.02 60.83 974.67 60.3 C 975.33 59.76 975.82 59 976.15 58.02 C 976.48 57.04 976.64 55.74 976.64 54.14 C 976.64 52.79 976.54 51.72 976.34 50.92 C 976.13 50.12 975.85 49.45 975.49 48.89 C 975.13 48.34 974.67 47.91 974.12 47.62 C 973.57 47.32 972.93 47.17 972.2 47.17 z M 1034.5 47.17 C 1033.51 47.17 1032.69 47.44 1032.03 47.97 C 1031.38 48.51 1030.88 49.27 1030.55 50.25 C 1030.22 51.23 1030.06 52.53 1030.06 54.14 C 1030.06 56.7 1030.51 58.55 1031.4 59.69 C 1032.15 60.63 1033.19 61.1 1034.5 61.1 C 1035.5 61.1 1036.33 60.83 1036.98 60.3 C 1037.64 59.76 1038.13 59 1038.46 58.02 C 1038.79 57.04 1038.95 55.74 1038.95 54.14 C 1038.95 52.79 1038.85 51.72 1038.64 50.92 C 1038.44 50.12 1038.16 49.45 1037.8 48.89 C 1037.44 48.34 1036.98 47.91 1036.43 47.62 C 1035.88 47.32 1035.23 47.17 1034.5 47.17 z M 400.15 47.23 L 393.93 56.07 L 393.93 57.6 L 399.84 57.6 L 399.84 60.87 L 401.52 60.87 L 401.52 57.6 L 403.36 57.6 L 403.36 56.07 L 401.52 56.07 L 401.52 47.23 L 400.15 47.23 z M 1049.39 47.23 L 1049.39 60.87 L 1051.19 60.87 L 1051.19 54.67 L 1057.59 54.67 L 1057.59 53.06 L 1051.19 53.06 L 1051.19 48.84 L 1058.59 48.84 L 1058.59 47.23 L 1049.39 47.23 z M 790.86 47.26 C 791.5 47.26 792.02 47.47 792.44 47.89 C 792.87 48.31 793.09 48.83 793.09 49.44 C 793.09 50.03 792.88 50.53 792.46 50.94 C 792.05 51.34 791.53 51.54 790.88 51.54 C 790.22 51.54 789.68 51.34 789.26 50.93 C 788.85 50.52 788.64 49.99 788.64 49.35 C 788.64 48.77 788.85 48.29 789.27 47.88 C 789.69 47.47 790.22 47.26 790.86 47.26 z M 564.79 47.26 C 565.42 47.26 565.95 47.48 566.37 47.9 C 566.8 48.31 567.01 48.83 567.01 49.44 C 567.01 50.03 566.8 50.53 566.39 50.94 C 565.98 51.34 565.45 51.54 564.81 51.54 C 564.14 51.54 563.6 51.34 563.19 50.93 C 562.77 50.52 562.56 49.99 562.56 49.35 C 562.56 48.78 562.78 48.29 563.2 47.88 C 563.62 47.47 564.15 47.26 564.79 47.26 z M 692.8 47.27 C 693.58 47.27 694.23 47.64 694.75 48.38 C 695.28 49.12 695.54 50.61 695.54 52.85 C 695.54 55.09 695.28 56.57 694.75 57.32 C 694.23 58.06 693.59 58.44 692.82 58.44 C 692.05 58.44 691.4 58.07 690.87 57.33 C 690.35 56.58 690.09 55.09 690.09 52.85 C 690.09 50.61 690.38 49.08 690.96 48.25 C 691.41 47.6 692.03 47.27 692.8 47.27 z M 730.66 47.27 C 731.44 47.27 732.09 47.64 732.61 48.38 C 733.14 49.12 733.4 50.61 733.4 52.85 C 733.4 55.09 733.14 56.57 732.61 57.32 C 732.09 58.06 731.45 58.44 730.68 58.44 C 729.91 58.44 729.26 58.07 728.73 57.33 C 728.21 56.58 727.95 55.09 727.95 52.85 C 727.95 50.61 728.24 49.08 728.82 48.25 C 729.28 47.6 729.89 47.27 730.66 47.27 z M 800.69 47.27 C 801.47 47.27 802.12 47.64 802.64 48.38 C 803.17 49.12 803.43 50.61 803.43 52.85 C 803.43 55.09 803.17 56.57 802.64 57.32 C 802.12 58.06 801.48 58.44 800.71 58.44 C 799.94 58.44 799.29 58.07 798.76 57.33 C 798.24 56.58 797.98 55.09 797.98 52.85 C 797.98 50.61 798.27 49.08 798.84 48.25 C 799.3 47.6 799.92 47.27 800.69 47.27 z M 835.61 47.27 C 836.39 47.27 837.04 47.64 837.56 48.38 C 838.09 49.12 838.35 50.61 838.35 52.85 C 838.35 55.09 838.09 56.57 837.56 57.32 C 837.04 58.06 836.4 58.44 835.63 58.44 C 834.86 58.44 834.21 58.07 833.68 57.33 C 833.16 56.58 832.9 55.09 832.9 52.85 C 832.9 50.61 833.19 49.08 833.77 48.25 C 834.23 47.6 834.84 47.27 835.61 47.27 z M 845.84 47.27 C 846.62 47.27 847.27 47.64 847.79 48.38 C 848.32 49.12 848.58 50.61 848.58 52.85 C 848.58 55.09 848.32 56.57 847.79 57.32 C 847.27 58.06 846.63 58.44 845.86 58.44 C 845.09 58.44 844.44 58.07 843.91 57.33 C 843.39 56.58 843.13 55.09 843.13 52.85 C 843.13 50.61 843.42 49.08 843.99 48.25 C 844.45 47.6 845.07 47.27 845.84 47.27 z M 574.61 47.27 C 575.39 47.27 576.05 47.64 576.57 48.38 C 577.09 49.12 577.36 50.61 577.36 52.86 C 577.36 55.09 577.09 56.58 576.57 57.32 C 576.05 58.07 575.4 58.44 574.63 58.44 C 573.86 58.44 573.21 58.07 572.69 57.33 C 572.17 56.59 571.91 55.1 571.91 52.86 C 571.91 50.62 572.19 49.08 572.77 48.25 C 573.23 47.6 573.84 47.27 574.61 47.27 z M 632.51 47.27 C 633.29 47.27 633.94 47.64 634.46 48.38 C 634.99 49.12 635.25 50.61 635.25 52.86 C 635.25 55.09 634.99 56.58 634.46 57.32 C 633.94 58.07 633.3 58.44 632.53 58.44 C 631.76 58.44 631.11 58.07 630.58 57.33 C 630.06 56.59 629.8 55.1 629.8 52.86 C 629.8 50.62 630.09 49.08 630.67 48.25 C 631.12 47.6 631.74 47.27 632.51 47.27 z M 184.93 47.41 L 184.93 49.02 L 191.61 49.02 C 190.76 49.98 189.96 51.17 189.2 52.59 C 188.45 54 187.88 55.46 187.47 56.98 C 187.07 58.5 186.86 59.8 186.84 60.87 L 188.56 60.87 C 188.65 59.51 188.87 58.26 189.2 57.12 C 189.67 55.5 190.33 53.92 191.18 52.39 C 192.03 50.86 192.89 49.63 193.76 48.71 L 193.76 47.41 L 184.93 47.41 z M 123.77 47.41 L 122.45 54.42 L 124.02 54.63 C 124.27 54.23 124.61 53.92 125.04 53.68 C 125.48 53.43 125.97 53.3 126.51 53.3 C 127.38 53.3 128.08 53.58 128.61 54.13 C 129.15 54.68 129.42 55.44 129.42 56.39 C 129.42 57.4 129.14 58.21 128.58 58.81 C 128.02 59.42 127.34 59.72 126.53 59.72 C 125.86 59.72 125.29 59.51 124.81 59.08 C 124.34 58.65 124.04 58 123.91 57.15 L 122.15 57.3 C 122.26 58.44 122.71 59.36 123.49 60.06 C 124.28 60.75 125.29 61.1 126.53 61.1 C 128.05 61.1 129.24 60.55 130.12 59.44 C 130.84 58.54 131.19 57.48 131.19 56.25 C 131.19 54.95 130.78 53.89 129.97 53.06 C 129.15 52.24 128.14 51.83 126.95 51.83 C 126.05 51.83 125.19 52.11 124.37 52.68 L 125.11 49.02 L 130.55 49.02 L 130.55 47.41 L 123.77 47.41 z M 1021.08 47.41 L 1019.76 54.42 L 1021.33 54.63 C 1021.58 54.23 1021.92 53.92 1022.35 53.68 C 1022.79 53.43 1023.27 53.3 1023.81 53.3 C 1024.68 53.3 1025.38 53.58 1025.92 54.13 C 1026.46 54.68 1026.72 55.44 1026.72 56.39 C 1026.72 57.4 1026.45 58.21 1025.89 58.81 C 1025.33 59.42 1024.65 59.72 1023.84 59.72 C 1023.17 59.72 1022.6 59.51 1022.12 59.08 C 1021.65 58.65 1021.35 58 1021.22 57.15 L 1019.46 57.3 C 1019.57 58.44 1020.02 59.36 1020.8 60.06 C 1021.59 60.75 1022.6 61.1 1023.84 61.1 C 1025.35 61.1 1026.55 60.55 1027.42 59.44 C 1028.14 58.54 1028.5 57.48 1028.5 56.25 C 1028.5 54.95 1028.09 53.89 1027.27 53.06 C 1026.45 52.24 1025.45 51.83 1024.26 51.83 C 1023.36 51.83 1022.5 52.11 1021.68 52.68 L 1022.42 49.02 L 1027.86 49.02 L 1027.86 47.41 L 1021.08 47.41 z M 266.69 48.56 C 267.47 48.56 268.12 48.93 268.64 49.66 C 269.17 50.4 269.44 51.89 269.44 54.14 C 269.44 56.37 269.17 57.86 268.64 58.61 C 268.12 59.35 267.48 59.72 266.71 59.72 C 265.94 59.72 265.29 59.35 264.77 58.61 C 264.24 57.87 263.98 56.38 263.98 54.14 C 263.98 51.9 264.27 50.36 264.85 49.53 C 265.31 48.88 265.92 48.56 266.69 48.56 z M 277.29 48.56 C 278.07 48.56 278.72 48.93 279.24 49.66 C 279.77 50.4 280.03 51.89 280.03 54.14 C 280.03 56.37 279.77 57.86 279.24 58.61 C 278.72 59.35 278.08 59.72 277.31 59.72 C 276.54 59.72 275.89 59.35 275.36 58.61 C 274.84 57.87 274.58 56.38 274.58 54.14 C 274.58 51.9 274.87 50.36 275.45 49.53 C 275.91 48.88 276.52 48.56 277.29 48.56 z M 420.1 48.56 C 420.88 48.56 421.53 48.93 422.05 49.66 C 422.58 50.4 422.84 51.89 422.84 54.14 C 422.84 56.37 422.58 57.86 422.05 58.61 C 421.53 59.35 420.89 59.72 420.12 59.72 C 419.35 59.72 418.7 59.35 418.17 58.61 C 417.65 57.87 417.39 56.38 417.39 54.14 C 417.39 51.9 417.68 50.36 418.26 49.53 C 418.71 48.88 419.33 48.56 420.1 48.56 z M 48.82 48.56 C 49.6 48.56 50.26 48.93 50.78 49.67 C 51.3 50.4 51.57 51.9 51.57 54.14 C 51.57 56.38 51.3 57.86 50.78 58.61 C 50.26 59.35 49.61 59.72 48.84 59.72 C 48.07 59.72 47.43 59.36 46.9 58.62 C 46.38 57.87 46.12 56.38 46.12 54.14 C 46.12 51.9 46.4 50.37 46.98 49.54 C 47.44 48.89 48.05 48.56 48.82 48.56 z M 198.74 48.56 C 199.52 48.56 200.18 48.93 200.7 49.67 C 201.22 50.4 201.49 51.9 201.49 54.14 C 201.49 56.38 201.22 57.86 200.7 58.61 C 200.18 59.35 199.53 59.72 198.76 59.72 C 197.99 59.72 197.34 59.36 196.82 58.62 C 196.3 57.87 196.04 56.38 196.04 54.14 C 196.04 51.9 196.32 50.37 196.9 49.54 C 197.36 48.89 197.97 48.56 198.74 48.56 z M 905.82 48.56 C 906.6 48.56 907.25 48.93 907.77 49.67 C 908.3 50.4 908.56 51.9 908.56 54.14 C 908.56 56.38 908.3 57.86 907.77 58.61 C 907.25 59.35 906.6 59.72 905.83 59.72 C 905.07 59.72 904.42 59.36 903.89 58.62 C 903.37 57.87 903.11 56.38 903.11 54.14 C 903.11 51.9 903.4 50.37 903.97 49.54 C 904.43 48.89 905.05 48.56 905.82 48.56 z M 972.18 48.56 C 972.96 48.56 973.61 48.93 974.13 49.67 C 974.66 50.4 974.92 51.9 974.92 54.14 C 974.92 56.38 974.66 57.86 974.13 58.61 C 973.61 59.35 972.96 59.72 972.2 59.72 C 971.43 59.72 970.78 59.36 970.25 58.62 C 969.73 57.87 969.47 56.38 969.47 54.14 C 969.47 51.9 969.76 50.37 970.34 49.54 C 970.79 48.89 971.41 48.56 972.18 48.56 z M 1034.48 48.56 C 1035.27 48.56 1035.92 48.93 1036.44 49.67 C 1036.97 50.4 1037.23 51.9 1037.23 54.14 C 1037.23 56.38 1036.97 57.86 1036.44 58.61 C 1035.92 59.35 1035.27 59.72 1034.5 59.72 C 1033.73 59.72 1033.09 59.36 1032.56 58.62 C 1032.04 57.87 1031.78 56.38 1031.78 54.14 C 1031.78 51.9 1032.07 50.37 1032.64 49.54 C 1033.1 48.89 1033.72 48.56 1034.48 48.56 z M 623.59 48.63 L 623.59 54.78 L 619.32 54.78 L 623.59 48.63 z M 399.84 49.92 L 399.84 56.07 L 395.57 56.07 L 399.84 49.92 z M 790.83 52.91 C 791.64 52.91 792.31 53.17 792.84 53.7 C 793.38 54.23 793.65 54.89 793.65 55.7 C 793.65 56.49 793.39 57.15 792.87 57.66 C 792.35 58.18 791.69 58.44 790.89 58.44 C 790.38 58.44 789.89 58.31 789.45 58.07 C 789 57.82 788.66 57.48 788.43 57.03 C 788.21 56.58 788.1 56.12 788.1 55.64 C 788.1 54.86 788.36 54.21 788.87 53.69 C 789.39 53.17 790.05 52.91 790.83 52.91 z M 564.76 52.91 C 565.57 52.91 566.24 53.18 566.77 53.7 C 567.31 54.23 567.58 54.9 567.58 55.7 C 567.58 56.5 567.32 57.15 566.8 57.67 C 566.28 58.18 565.62 58.44 564.82 58.44 C 564.3 58.44 563.82 58.32 563.37 58.08 C 562.93 57.83 562.59 57.48 562.36 57.03 C 562.14 56.59 562.03 56.12 562.03 55.65 C 562.03 54.87 562.28 54.21 562.8 53.69 C 563.32 53.17 563.97 52.91 564.76 52.91 z M 409.64 53.5 C 410.4 53.5 411.04 53.77 411.54 54.32 C 412.04 54.86 412.29 55.6 412.29 56.54 C 412.29 57.52 412.04 58.3 411.53 58.87 C 411.02 59.44 410.41 59.72 409.71 59.72 C 409.22 59.72 408.76 59.58 408.32 59.31 C 407.88 59.03 407.53 58.63 407.29 58.1 C 407.04 57.57 406.92 57.02 406.92 56.45 C 406.92 55.57 407.19 54.86 407.72 54.32 C 408.24 53.77 408.88 53.5 409.64 53.5 z M 516.63 70.43 C 514.91 70.43 513.51 71.07 512.43 72.35 C 511.34 73.63 510.8 75.4 510.8 77.67 C 510.8 78.86 511.03 80 511.5 81.07 C 511.96 82.14 512.64 82.99 513.55 83.61 C 514.45 84.23 515.48 84.54 516.62 84.54 C 517.68 84.54 518.66 84.26 519.58 83.7 C 520.49 83.14 521.2 82.31 521.7 81.22 C 522.2 80.13 522.45 78.89 522.45 77.51 C 522.45 76.14 522.21 74.92 521.73 73.85 C 521.26 72.77 520.57 71.93 519.67 71.33 C 518.77 70.73 517.75 70.43 516.63 70.43 z M 524.8 70.67 L 524.8 84.31 L 526.41 84.31 L 526.41 70.67 L 524.8 70.67 z M 529.18 70.67 L 529.18 84.31 L 536.79 84.31 L 536.79 82.7 L 530.79 82.7 L 530.79 70.67 L 529.18 70.67 z M 541.58 70.67 L 541.58 72.28 L 545.6 72.28 L 545.6 84.31 L 547.21 84.31 L 547.21 72.28 L 551.24 72.28 L 551.24 70.67 L 541.58 70.67 z M 552.92 70.67 L 552.92 84.31 L 562.01 84.31 L 562.01 82.7 L 554.54 82.7 L 554.54 78.06 L 561.27 78.06 L 561.27 76.46 L 554.54 76.46 L 554.54 72.28 L 561.73 72.28 L 561.73 70.67 L 552.92 70.67 z M 564.19 70.67 L 564.19 84.31 L 565.74 84.31 L 565.74 72.7 L 569.26 84.31 L 570.72 84.31 L 574.26 72.89 L 574.26 84.31 L 575.81 84.31 L 575.81 70.67 L 573.64 70.67 L 570.73 80.16 C 570.43 81.12 570.22 81.85 570.08 82.34 C 569.96 81.9 569.76 81.22 569.5 80.32 L 566.62 70.67 L 564.19 70.67 z M 578.41 70.67 L 578.41 84.31 L 580.02 84.31 L 580.02 78.76 L 583.15 78.76 C 584.87 78.76 586.06 78.36 586.72 77.56 C 587.38 76.76 587.71 75.77 587.71 74.61 C 587.71 73.94 587.58 73.32 587.33 72.75 C 587.09 72.19 586.77 71.75 586.36 71.44 C 585.96 71.13 585.46 70.91 584.86 70.8 C 584.43 70.71 583.81 70.67 583.01 70.67 L 578.41 70.67 z M 725.75 70.93 C 724.03 70.93 722.63 71.57 721.55 72.86 C 720.46 74.14 719.92 75.91 719.92 78.17 C 719.92 79.37 720.15 80.5 720.62 81.57 C 721.08 82.65 721.77 83.49 722.67 84.11 C 723.57 84.73 724.6 85.04 725.74 85.04 C 726.8 85.04 727.79 84.77 728.7 84.21 C 729.61 83.64 730.32 82.82 730.82 81.72 C 731.32 80.63 731.57 79.39 731.57 78.01 C 731.57 76.65 731.33 75.43 730.85 74.36 C 730.38 73.28 729.69 72.44 728.79 71.83 C 727.89 71.23 726.87 70.93 725.75 70.93 z M 791.11 70.94 C 790.29 70.94 789.55 71.1 788.88 71.41 C 788.21 71.72 787.7 72.17 787.35 72.77 C 787 73.37 786.83 74.01 786.83 74.7 C 786.83 75.33 786.97 75.89 787.25 76.4 C 787.54 76.91 787.97 77.33 788.56 77.67 C 789 77.93 789.79 78.22 790.91 78.52 C 792.03 78.82 792.75 79.04 793.08 79.18 C 793.58 79.4 793.95 79.67 794.17 79.99 C 794.39 80.31 794.5 80.68 794.5 81.11 C 794.5 81.53 794.39 81.92 794.15 82.28 C 793.93 82.63 793.58 82.91 793.11 83.12 C 792.64 83.32 792.09 83.43 791.48 83.43 C 790.79 83.43 790.16 83.29 789.61 83.03 C 789.06 82.75 788.65 82.4 788.38 81.96 C 788.12 81.52 787.95 80.96 787.88 80.28 L 786.36 80.43 C 786.38 81.34 786.61 82.16 787.03 82.89 C 787.45 83.61 788.04 84.14 788.78 84.5 C 789.53 84.86 790.45 85.04 791.55 85.04 C 792.42 85.04 793.2 84.87 793.9 84.51 C 794.59 84.15 795.13 83.65 795.5 83.02 C 795.87 82.37 796.06 81.69 796.06 80.96 C 796.06 80.23 795.89 79.58 795.55 79.03 C 795.21 78.46 794.69 78 793.98 77.63 C 793.49 77.38 792.59 77.09 791.28 76.76 C 789.97 76.43 789.16 76.1 788.85 75.79 C 788.54 75.47 788.38 75.07 788.38 74.58 C 788.38 74.01 788.6 73.53 789.05 73.14 C 789.49 72.73 790.2 72.53 791.18 72.53 C 792.12 72.53 792.82 72.75 793.3 73.19 C 793.78 73.63 794.06 74.28 794.15 75.15 L 795.69 75.02 C 795.66 74.22 795.46 73.5 795.09 72.87 C 794.72 72.23 794.19 71.76 793.5 71.43 C 792.81 71.11 792.02 70.94 791.11 70.94 z M 802.46 70.94 C 801.64 70.94 800.9 71.1 800.23 71.41 C 799.56 71.72 799.05 72.17 798.7 72.77 C 798.35 73.37 798.17 74.01 798.17 74.7 C 798.17 75.33 798.32 75.89 798.6 76.4 C 798.89 76.91 799.32 77.33 799.9 77.67 C 800.35 77.93 801.14 78.22 802.25 78.52 C 803.37 78.82 804.09 79.04 804.42 79.18 C 804.93 79.4 805.3 79.67 805.52 79.99 C 805.74 80.31 805.85 80.68 805.85 81.11 C 805.85 81.53 805.74 81.92 805.5 82.28 C 805.28 82.63 804.93 82.91 804.45 83.12 C 803.98 83.32 803.44 83.43 802.83 83.43 C 802.13 83.43 801.51 83.29 800.96 83.03 C 800.4 82.75 799.99 82.4 799.73 81.96 C 799.47 81.52 799.3 80.96 799.23 80.28 L 797.71 80.43 C 797.73 81.34 797.95 82.16 798.37 82.89 C 798.8 83.61 799.38 84.14 800.13 84.5 C 800.87 84.86 801.8 85.04 802.9 85.04 C 803.77 85.04 804.55 84.87 805.25 84.51 C 805.94 84.15 806.48 83.65 806.85 83.02 C 807.22 82.37 807.4 81.69 807.4 80.96 C 807.4 80.23 807.24 79.58 806.9 79.03 C 806.56 78.46 806.04 78 805.33 77.63 C 804.84 77.38 803.94 77.09 802.63 76.76 C 801.32 76.43 800.51 76.1 800.2 75.79 C 799.89 75.47 799.73 75.07 799.73 74.58 C 799.73 74.01 799.95 73.53 800.39 73.14 C 800.84 72.73 801.55 72.53 802.53 72.53 C 803.46 72.53 804.17 72.75 804.65 73.19 C 805.13 73.63 805.41 74.28 805.49 75.15 L 807.04 75.02 C 807.01 74.22 806.81 73.5 806.44 72.87 C 806.07 72.23 805.54 71.76 804.85 71.43 C 804.16 71.11 803.36 70.94 802.46 70.94 z M 733.92 71.17 L 733.92 84.81 L 735.53 84.81 L 735.53 71.17 L 733.92 71.17 z M 738.3 71.17 L 738.3 84.81 L 745.91 84.81 L 745.91 83.2 L 739.91 83.2 L 739.91 71.17 L 738.3 71.17 z M 751.93 71.17 L 751.93 84.81 L 753.54 84.81 L 753.54 79.27 L 756.66 79.27 C 758.39 79.27 759.58 78.87 760.24 78.07 C 760.89 77.26 761.22 76.28 761.22 75.12 C 761.22 74.44 761.1 73.82 760.85 73.26 C 760.61 72.69 760.28 72.26 759.88 71.95 C 759.47 71.63 758.97 71.42 758.37 71.31 C 757.95 71.22 757.33 71.17 756.52 71.17 L 751.93 71.17 z M 763.3 71.17 L 763.3 84.81 L 764.91 84.81 L 764.91 78.76 L 766.78 78.76 C 767.2 78.76 767.5 78.78 767.68 78.82 C 767.93 78.89 768.17 79.01 768.41 79.18 C 768.65 79.36 768.93 79.66 769.23 80.09 C 769.54 80.53 769.92 81.16 770.39 81.97 L 772.01 84.81 L 774.03 84.81 L 771.92 81.1 C 771.49 80.38 771.05 79.77 770.58 79.29 C 770.36 79.06 770.03 78.84 769.61 78.61 C 770.77 78.43 771.64 78 772.2 77.34 C 772.76 76.68 773.04 75.86 773.04 74.89 C 773.04 74.14 772.87 73.46 772.53 72.84 C 772.19 72.22 771.74 71.79 771.18 71.55 C 770.61 71.3 769.79 71.17 768.7 71.17 L 763.3 71.17 z M 775.6 71.17 L 775.6 84.81 L 784.68 84.81 L 784.68 83.2 L 777.21 83.2 L 777.21 78.56 L 783.94 78.56 L 783.94 76.96 L 777.21 76.96 L 777.21 72.78 L 784.4 72.78 L 784.4 71.17 L 775.6 71.17 z M 159.53 71.45 C 158.62 71.45 157.78 71.6 157.03 71.91 C 156.28 72.22 155.71 72.68 155.32 73.28 C 154.93 73.88 154.73 74.52 154.73 75.21 C 154.73 75.83 154.89 76.4 155.21 76.91 C 155.53 77.41 156.02 77.83 156.67 78.18 C 157.17 78.44 158.05 78.73 159.3 79.03 C 160.55 79.33 161.36 79.55 161.73 79.69 C 162.3 79.91 162.71 80.18 162.96 80.5 C 163.21 80.82 163.33 81.19 163.33 81.62 C 163.33 82.04 163.2 82.43 162.94 82.79 C 162.69 83.14 162.29 83.42 161.77 83.63 C 161.24 83.83 160.63 83.93 159.94 83.93 C 159.17 83.93 158.47 83.8 157.85 83.54 C 157.23 83.26 156.77 82.91 156.47 82.47 C 156.18 82.03 156 81.47 155.92 80.79 L 154.21 80.94 C 154.24 81.85 154.49 82.67 154.96 83.39 C 155.44 84.11 156.09 84.65 156.92 85.01 C 157.76 85.37 158.79 85.55 160.03 85.55 C 161 85.55 161.88 85.38 162.65 85.02 C 163.43 84.66 164.03 84.16 164.45 83.53 C 164.86 82.88 165.07 82.2 165.07 81.47 C 165.07 80.74 164.88 80.09 164.5 79.53 C 164.12 78.97 163.54 78.5 162.75 78.14 C 162.2 77.89 161.19 77.6 159.72 77.27 C 158.26 76.94 157.35 76.61 157 76.3 C 156.65 75.98 156.47 75.58 156.47 75.09 C 156.47 74.52 156.72 74.04 157.22 73.65 C 157.72 73.24 158.52 73.04 159.61 73.04 C 160.66 73.04 161.45 73.26 161.98 73.7 C 162.52 74.14 162.84 74.79 162.93 75.65 L 164.66 75.52 C 164.63 74.72 164.41 74.01 163.99 73.37 C 163.58 72.74 162.98 72.26 162.2 71.94 C 161.44 71.61 160.55 71.45 159.53 71.45 z M 273.5 71.45 C 272.43 71.45 271.44 71.72 270.54 72.28 C 269.65 72.82 268.96 73.63 268.47 74.69 C 267.99 75.74 267.75 76.98 267.75 78.4 C 267.75 79.7 267.96 80.92 268.39 82.05 C 268.82 83.19 269.45 84.06 270.27 84.66 C 271.09 85.25 272.16 85.55 273.47 85.55 C 274.74 85.55 275.81 85.16 276.69 84.39 C 277.57 83.61 278.18 82.48 278.52 80.99 L 276.91 80.54 C 276.69 81.69 276.26 82.55 275.64 83.13 C 275.01 83.72 274.24 84.01 273.34 84.01 C 272.6 84.01 271.91 83.79 271.27 83.37 C 270.64 82.94 270.17 82.29 269.86 81.43 C 269.56 80.56 269.41 79.55 269.41 78.39 C 269.41 77.49 269.54 76.62 269.79 75.77 C 270.05 74.92 270.49 74.25 271.12 73.75 C 271.75 73.24 272.53 72.99 273.47 72.99 C 274.28 72.99 274.96 73.22 275.49 73.67 C 276.03 74.12 276.44 74.85 276.72 75.84 L 278.31 75.42 C 277.98 74.16 277.4 73.19 276.57 72.49 C 275.74 71.8 274.72 71.45 273.5 71.45 z M 79.85 71.68 L 74.61 85.32 L 76.53 85.32 L 78.03 81.19 L 83.73 81.19 L 85.32 85.32 L 87.38 85.32 L 81.8 71.68 L 79.85 71.68 z M 88.75 71.68 L 88.75 85.32 L 97.27 85.32 L 97.27 83.71 L 90.55 83.71 L 90.55 71.68 L 88.75 71.68 z M 96.98 71.68 L 96.98 73.29 L 101.47 73.29 L 101.47 85.32 L 103.28 85.32 L 103.28 73.29 L 107.79 73.29 L 107.79 71.68 L 96.98 71.68 z M 117.28 71.68 L 112.04 85.32 L 113.96 85.32 L 115.46 81.19 L 121.16 81.19 L 122.75 85.32 L 124.8 85.32 L 119.22 71.68 L 117.28 71.68 z M 126.19 71.68 L 126.19 85.32 L 127.93 85.32 L 127.93 73.71 L 131.88 85.32 L 133.5 85.32 L 137.47 73.91 L 137.47 85.32 L 139.21 85.32 L 139.21 71.68 L 136.78 71.68 L 133.51 81.17 C 133.18 82.13 132.94 82.86 132.79 83.36 C 132.65 82.91 132.43 82.24 132.14 81.34 L 128.91 71.68 L 126.19 71.68 z M 142.12 71.68 L 142.12 85.32 L 143.92 85.32 L 143.92 79.78 L 147.42 79.78 C 149.35 79.78 150.68 79.38 151.42 78.58 C 152.16 77.77 152.53 76.79 152.53 75.63 C 152.53 74.95 152.39 74.33 152.11 73.77 C 151.84 73.2 151.48 72.76 151.02 72.45 C 150.57 72.14 150.01 71.92 149.34 71.81 C 148.86 71.73 148.17 71.68 147.26 71.68 L 142.12 71.68 z M 279.24 71.68 L 283.93 79.54 L 283.93 85.32 L 285.55 85.32 L 285.55 79.54 L 290.41 71.68 L 288.53 71.68 L 286.17 75.69 C 285.65 76.58 285.21 77.39 284.84 78.1 C 284.46 77.33 284.05 76.56 283.6 75.79 L 281.2 71.68 L 279.24 71.68 z M 291.78 71.68 L 291.78 85.32 L 299.39 85.32 L 299.39 83.71 L 293.4 83.71 L 293.4 71.68 L 291.78 71.68 z M 305.46 71.68 L 305.46 85.32 L 307.07 85.32 L 307.07 78.89 L 313.4 78.89 L 313.4 85.32 L 315.01 85.32 L 315.01 71.68 L 313.4 71.68 L 313.4 77.28 L 307.07 77.28 L 307.07 71.68 L 305.46 71.68 z M 317.73 71.68 L 317.73 85.32 L 326.82 85.32 L 326.82 83.71 L 319.34 83.71 L 319.34 79.07 L 326.08 79.07 L 326.08 77.47 L 319.34 77.47 L 319.34 73.29 L 326.54 73.29 L 326.54 71.68 L 317.73 71.68 z M 332.38 71.68 L 327.71 85.32 L 329.42 85.32 L 330.75 81.19 L 335.85 81.19 L 337.27 85.32 L 339.1 85.32 L 334.12 71.68 L 332.38 71.68 z M 340.39 71.68 L 340.39 85.32 L 344.79 85.32 C 345.52 85.32 346.17 85.24 346.74 85.09 C 347.31 84.93 347.79 84.7 348.19 84.41 C 348.6 84.1 348.97 83.69 349.31 83.17 C 349.64 82.64 349.92 81.98 350.14 81.18 C 350.35 80.38 350.46 79.46 350.46 78.43 C 350.46 77.21 350.3 76.13 349.98 75.19 C 349.66 74.24 349.18 73.46 348.54 72.85 C 348.05 72.38 347.45 72.06 346.75 71.88 C 346.26 71.75 345.53 71.68 344.59 71.68 L 340.39 71.68 z M 356.18 71.68 L 356.18 73.29 L 360.2 73.29 L 360.2 85.32 L 361.81 85.32 L 361.81 73.29 L 365.84 73.29 L 365.84 71.68 L 356.18 71.68 z M 367.52 71.68 L 367.52 85.32 L 376.61 85.32 L 376.61 83.71 L 369.13 83.71 L 369.13 79.07 L 375.87 79.07 L 375.87 77.47 L 369.13 77.47 L 369.13 73.29 L 376.33 73.29 L 376.33 71.68 L 367.52 71.68 z M 378.79 71.68 L 378.79 85.32 L 380.34 85.32 L 380.34 73.71 L 383.86 85.32 L 385.32 85.32 L 388.86 73.9 L 388.86 85.32 L 390.41 85.32 L 390.41 71.68 L 388.24 71.68 L 385.33 81.17 C 385.03 82.13 384.82 82.86 384.68 83.36 C 384.56 82.91 384.36 82.24 384.1 81.34 L 381.21 71.68 L 378.79 71.68 z M 393.01 71.68 L 393.01 85.32 L 394.62 85.32 L 394.62 79.77 L 397.75 79.77 C 399.47 79.77 400.66 79.37 401.32 78.57 C 401.98 77.77 402.31 76.79 402.31 75.63 C 402.31 74.95 402.18 74.33 401.93 73.77 C 401.69 73.2 401.37 72.76 400.96 72.45 C 400.56 72.14 400.06 71.92 399.46 71.81 C 399.03 71.72 398.41 71.68 397.61 71.68 L 393.01 71.68 z M 516.64 71.98 C 517.44 71.98 518.16 72.21 518.81 72.67 C 519.45 73.12 519.94 73.76 520.28 74.6 C 520.61 75.42 520.78 76.39 520.78 77.5 C 520.78 79.25 520.39 80.61 519.6 81.56 C 518.82 82.52 517.82 83 516.61 83 C 515.42 83 514.43 82.52 513.64 81.58 C 512.85 80.63 512.46 79.34 512.46 77.69 C 512.46 75.64 512.87 74.18 513.69 73.3 C 514.51 72.42 515.5 71.98 516.64 71.98 z M 580.02 72.28 L 583.14 72.28 C 583.87 72.28 584.37 72.32 584.64 72.4 C 585.06 72.53 585.4 72.8 585.66 73.21 C 585.92 73.61 586.05 74.1 586.05 74.67 C 586.05 75.46 585.83 76.07 585.39 76.5 C 584.95 76.94 584.21 77.15 583.17 77.15 L 580.02 77.15 L 580.02 72.28 z M 725.76 72.49 C 726.56 72.49 727.28 72.72 727.93 73.18 C 728.57 73.63 729.07 74.27 729.4 75.1 C 729.74 75.92 729.9 76.89 729.9 78 C 729.9 79.76 729.51 81.11 728.72 82.07 C 727.94 83.02 726.95 83.5 725.73 83.5 C 724.54 83.5 723.55 83.03 722.76 82.09 C 721.97 81.14 721.58 79.84 721.58 78.2 C 721.58 76.14 721.99 74.68 722.81 73.81 C 723.63 72.93 724.62 72.49 725.76 72.49 z M 764.91 72.68 L 768.77 72.68 C 769.67 72.68 770.33 72.89 770.74 73.3 C 771.16 73.72 771.37 74.25 771.37 74.89 C 771.37 75.33 771.27 75.75 771.05 76.12 C 770.83 76.5 770.52 76.77 770.1 76.94 C 769.69 77.11 769.11 77.19 768.38 77.19 L 764.91 77.19 L 764.91 72.68 z M 753.54 72.78 L 756.65 72.78 C 757.39 72.78 757.89 72.82 758.16 72.9 C 758.58 73.03 758.92 73.31 759.17 73.71 C 759.43 74.12 759.56 74.6 759.56 75.17 C 759.56 75.96 759.34 76.57 758.91 77.01 C 758.47 77.44 757.73 77.66 756.69 77.66 L 753.54 77.66 L 753.54 72.78 z M 80.78 73.11 C 80.99 73.85 81.31 74.8 81.75 75.94 L 83.17 79.72 L 78.55 79.72 L 80.05 75.72 C 80.36 74.86 80.61 73.99 80.78 73.11 z M 118.21 73.11 C 118.42 73.85 118.74 74.8 119.18 75.94 L 120.6 79.72 L 115.98 79.72 L 117.47 75.72 C 117.79 74.86 118.03 73.99 118.21 73.11 z M 333.21 73.11 C 333.4 73.85 333.69 74.79 334.08 75.94 L 335.35 79.72 L 331.22 79.72 L 332.56 75.72 C 332.84 74.86 333.06 73.99 333.21 73.11 z M 342 73.29 L 344.56 73.29 C 345.52 73.29 346.22 73.38 346.65 73.57 C 347.25 73.83 347.75 74.34 348.17 75.11 C 348.59 75.88 348.8 76.97 348.8 78.4 C 348.8 79.43 348.69 80.3 348.47 81.03 C 348.26 81.75 347.97 82.32 347.59 82.75 C 347.31 83.06 346.95 83.29 346.49 83.46 C 346.03 83.63 345.41 83.71 344.6 83.71 L 342 83.71 L 342 73.29 z M 394.62 73.29 L 397.74 73.29 C 398.47 73.29 398.97 73.33 399.24 73.41 C 399.66 73.54 400 73.81 400.25 74.22 C 400.51 74.62 400.65 75.11 400.65 75.68 C 400.65 76.47 400.43 77.08 399.99 77.52 C 399.55 77.95 398.81 78.17 397.77 78.17 L 394.62 78.17 L 394.62 73.29 z M 143.92 73.29 L 147.41 73.29 C 148.23 73.29 148.79 73.33 149.1 73.41 C 149.57 73.54 149.95 73.81 150.23 74.22 C 150.52 74.63 150.67 75.11 150.67 75.68 C 150.67 76.47 150.42 77.08 149.93 77.52 C 149.44 77.95 148.62 78.17 147.45 78.17 L 143.92 78.17 L 143.92 73.29 z M 982.91 73.99 C 981.99 73.99 981.16 74.14 980.4 74.45 C 979.65 74.76 979.08 75.22 978.69 75.82 C 978.3 76.42 978.11 77.06 978.11 77.75 C 978.11 78.37 978.27 78.94 978.58 79.45 C 978.9 79.95 979.39 80.37 980.04 80.72 C 980.54 80.98 981.42 81.27 982.68 81.57 C 983.93 81.87 984.74 82.09 985.1 82.23 C 985.67 82.45 986.08 82.72 986.33 83.04 C 986.58 83.36 986.7 83.73 986.7 84.16 C 986.7 84.58 986.57 84.97 986.31 85.33 C 986.06 85.68 985.67 85.96 985.14 86.17 C 984.61 86.37 984.01 86.47 983.32 86.47 C 982.54 86.47 981.85 86.34 981.22 86.07 C 980.6 85.8 980.14 85.45 979.85 85.01 C 979.56 84.57 979.37 84.01 979.29 83.33 L 977.59 83.48 C 977.61 84.39 977.86 85.21 978.33 85.94 C 978.81 86.65 979.46 87.19 980.29 87.55 C 981.13 87.91 982.17 88.09 983.4 88.09 C 984.38 88.09 985.25 87.92 986.03 87.56 C 986.81 87.2 987.4 86.7 987.82 86.06 C 988.23 85.42 988.44 84.73 988.44 84.01 C 988.44 83.28 988.25 82.63 987.88 82.07 C 987.5 81.51 986.91 81.04 986.12 80.68 C 985.57 80.43 984.56 80.14 983.09 79.81 C 981.63 79.48 980.72 79.15 980.38 78.84 C 980.02 78.52 979.85 78.12 979.85 77.63 C 979.85 77.06 980.09 76.58 980.59 76.18 C 981.09 75.78 981.89 75.58 982.98 75.58 C 984.03 75.58 984.82 75.8 985.35 76.24 C 985.89 76.68 986.21 77.33 986.3 78.19 L 988.03 78.06 C 988 77.26 987.78 76.55 987.36 75.91 C 986.95 75.28 986.35 74.8 985.58 74.48 C 984.81 74.15 983.92 73.99 982.91 73.99 z M 1002.58 73.99 C 1001.22 73.99 1000.02 74.27 998.97 74.83 C 997.93 75.38 997.13 76.24 996.58 77.39 C 996.02 78.54 995.75 79.78 995.75 81.11 C 995.75 82.45 996.03 83.66 996.58 84.74 C 997.14 85.83 997.97 86.66 999.06 87.24 C 1000.16 87.81 1001.38 88.09 1002.71 88.09 C 1003.71 88.09 1004.67 87.92 1005.62 87.56 C 1006.56 87.2 1007.48 86.67 1008.36 85.96 L 1008.36 80.9 L 1002.58 80.91 L 1002.58 82.51 L 1006.59 82.51 L 1006.59 85.05 C 1006.21 85.39 1005.65 85.71 1004.9 86.02 C 1004.16 86.31 1003.39 86.46 1002.61 86.46 C 1001.71 86.46 1000.86 86.27 1000.06 85.87 C 999.26 85.47 998.65 84.86 998.23 84.05 C 997.81 83.23 997.61 82.21 997.61 80.99 C 997.61 80.01 997.78 79.09 998.13 78.25 C 998.33 77.76 998.62 77.31 998.98 76.9 C 999.36 76.49 999.84 76.16 1000.44 75.91 C 1001.05 75.66 1001.76 75.53 1002.58 75.53 C 1003.27 75.53 1003.9 75.65 1004.46 75.9 C 1005.03 76.13 1005.46 76.45 1005.77 76.84 C 1006.07 77.24 1006.32 77.79 1006.53 78.48 L 1008.16 78.03 C 1007.92 77.12 1007.58 76.37 1007.12 75.8 C 1006.67 75.23 1006.04 74.79 1005.24 74.47 C 1004.45 74.15 1003.56 73.99 1002.58 73.99 z M 1039.04 73.99 C 1038.12 73.99 1037.28 74.14 1036.53 74.45 C 1035.78 74.76 1035.21 75.22 1034.82 75.82 C 1034.43 76.42 1034.23 77.06 1034.23 77.75 C 1034.23 78.37 1034.39 78.94 1034.71 79.45 C 1035.03 79.95 1035.52 80.37 1036.17 80.72 C 1036.67 80.98 1037.55 81.27 1038.8 81.57 C 1040.06 81.87 1040.87 82.09 1041.23 82.23 C 1041.8 82.45 1042.21 82.72 1042.46 83.04 C 1042.71 83.36 1042.83 83.73 1042.83 84.16 C 1042.83 84.58 1042.7 84.97 1042.44 85.33 C 1042.19 85.68 1041.8 85.96 1041.27 86.17 C 1040.74 86.37 1040.13 86.47 1039.45 86.47 C 1038.67 86.47 1037.97 86.34 1037.35 86.07 C 1036.73 85.8 1036.27 85.45 1035.97 85.01 C 1035.68 84.57 1035.5 84.01 1035.42 83.33 L 1033.71 83.48 C 1033.74 84.39 1033.99 85.21 1034.46 85.94 C 1034.94 86.65 1035.59 87.19 1036.42 87.55 C 1037.26 87.91 1038.3 88.09 1039.53 88.09 C 1040.5 88.09 1041.38 87.92 1042.15 87.56 C 1042.93 87.2 1043.53 86.7 1043.95 86.06 C 1044.36 85.42 1044.57 84.73 1044.57 84.01 C 1044.57 83.28 1044.38 82.63 1044 82.07 C 1043.63 81.51 1043.04 81.04 1042.24 80.68 C 1041.7 80.43 1040.69 80.14 1039.22 79.81 C 1037.76 79.48 1036.85 79.15 1036.51 78.84 C 1036.15 78.52 1035.97 78.12 1035.97 77.63 C 1035.97 77.06 1036.22 76.58 1036.72 76.18 C 1037.22 75.78 1038.02 75.58 1039.11 75.58 C 1040.16 75.58 1040.95 75.8 1041.48 76.24 C 1042.02 76.68 1042.34 77.33 1042.43 78.19 L 1044.16 78.06 C 1044.13 77.26 1043.91 76.55 1043.49 75.91 C 1043.08 75.28 1042.48 74.8 1041.71 74.48 C 1040.94 74.15 1040.05 73.99 1039.04 73.99 z M 911.24 74.22 L 911.24 87.86 L 913.05 87.86 L 913.05 81.66 L 919.45 81.66 L 919.45 80.05 L 913.05 80.05 L 913.05 75.83 L 920.44 75.83 L 920.44 74.22 L 911.24 74.22 z M 922.82 74.22 L 922.82 82.1 C 922.82 83.55 922.99 84.69 923.34 85.52 C 923.69 86.36 924.26 86.99 925.08 87.43 C 925.89 87.87 926.94 88.09 928.21 88.09 C 929.53 88.09 930.59 87.84 931.39 87.34 C 932.21 86.83 932.77 86.17 933.08 85.37 C 933.39 84.56 933.54 83.47 933.54 82.1 L 933.54 74.22 L 931.74 74.22 L 931.74 82.09 C 931.74 83.8 931.46 84.96 930.89 85.56 C 930.33 86.16 929.38 86.46 928.05 86.46 C 927.28 86.46 926.62 86.31 926.08 86.01 C 925.55 85.71 925.17 85.27 924.95 84.72 C 924.73 84.15 924.62 83.28 924.62 82.09 L 924.62 74.22 L 922.82 74.22 z M 936.59 74.22 L 936.59 87.86 L 946.76 87.86 L 946.76 86.25 L 938.39 86.25 L 938.39 81.61 L 945.93 81.61 L 945.93 80.01 L 938.39 80.01 L 938.39 75.83 L 946.45 75.83 L 946.45 74.22 L 936.59 74.22 z M 949.18 74.22 L 949.18 87.86 L 957.7 87.86 L 957.7 86.25 L 950.99 86.25 L 950.99 74.22 L 949.18 74.22 z M 964.47 74.22 L 964.47 82.1 C 964.47 83.55 964.64 84.69 964.99 85.52 C 965.34 86.36 965.92 86.99 966.73 87.43 C 967.54 87.87 968.59 88.09 969.86 88.09 C 971.18 88.09 972.24 87.84 973.05 87.34 C 973.86 86.83 974.42 86.17 974.73 85.37 C 975.04 84.56 975.19 83.47 975.19 82.1 L 975.19 74.22 L 973.39 74.22 L 973.39 82.09 C 973.39 83.8 973.11 84.96 972.54 85.56 C 971.98 86.16 971.03 86.46 969.71 86.46 C 968.93 86.46 968.27 86.31 967.73 86.01 C 967.2 85.71 966.82 85.27 966.6 84.72 C 966.38 84.15 966.27 83.28 966.27 82.09 L 966.27 74.22 L 964.47 74.22 z M 1014.76 74.22 L 1009.53 87.86 L 1011.44 87.86 L 1012.94 83.73 L 1018.64 83.73 L 1020.23 87.86 L 1022.29 87.86 L 1016.71 74.22 L 1014.76 74.22 z M 1023.66 74.22 L 1023.66 87.86 L 1032.18 87.86 L 1032.18 86.25 L 1025.46 86.25 L 1025.46 74.22 L 1023.66 74.22 z M 1015.69 75.65 C 1015.9 76.39 1016.23 77.33 1016.66 78.48 L 1018.08 82.26 L 1013.46 82.26 L 1014.96 78.26 C 1015.28 77.4 1015.52 76.53 1015.69 75.65 z"
       />
    <path
       style="fill:#c90e00;"
       d="m 680.43,21.29 12.48,21.64 3.82,0.02 -12.51,-21.64 z m -258.57,0.01 -12.5,21.67 3.81,-0.05 12.47,-21.6 z m 428.7,0 -12.5,21.67 3.82,-0.05 12.47,-21.6 z m -214.35,0 -12.5,21.67 3.81,-0.05 12.47,-21.59 z"
       />
    <path
       style="fill:#f7ff13;"
       d="m 685.62,21.3 9.38,16.34 25.7,-0.05 -6.47,-16.27 z m 119.34,0 -4.04,16.34 40.22,-0.05 9.34,-16.27 z"
       />
    <path
       style="fill:#00c967"
       d="m 720.74,21.31 78.44,0.03 -4.38,16.27 -67.81,0.05 z m -249.84,0 165.23,0.03 -9.34,16.27 -146.51,0.05 z m -214.35,-0 163.76,0.03 -9.71,16.27 -144.67,0.05 z"
       />
</svg>
