<svg
   width="500"
   height="500"
   viewBox="0 0 500 500"
   version="1.1"
   preserveAspectRation="xMinYMin meet"
   xmlns="http://www.w3.org/2000/svg"
   xmlns:svg="http://www.w3.org/2000/svg">
  <defs
     id="defs1">
    <clipPath
       id="clip">
      <ellipse
         id="ellipse1"
         cx="250"
         cy="250"
         rx="220"
         ry="125" />
    </clipPath>
  </defs>

  <g id="pitch"
     clip-path="url(#clip)">
    <path
       d="M 470,250 A 220,125 0 0 0 30,250"
       id="p1"
       style="fill:lightblue;stroke-width:1;stroke:#a9a9a9;" />
    <path
       d="m 30,250 a 220,125 0 0 0 440,0"
       style="fill:#202020;stroke-width:1;stroke:#a9a9a9"
       id="path3" />
    <path
       id="line11"
       style="fill:none;stroke:#ffffff;stroke-width:5"
       d="M 0,350 H 500 M 0,300 H 500 M 250,250 6.4074836,306.23776 M 250,250 50.341122,400.45377 M 250,250 125,466.50635 M 250,250 375,466.50635 M 250,250 449.65887,400.45377 M 250,250 493.59253,306.23776 M 0,250 h 500" />
    <path
       id="text14"
       style="stroke:#000000"
       d="m 198.05469,193.10742 c -0.2295,0.46387 -0.62012,0.94238 -1.17188,1.43555 -0.55175,0.49316 -1.19629,0.91308 -1.93359,1.25976 v 1.27539 c 0.41015,-0.15136 0.87206,-0.3789 1.38476,-0.68164 0.51758,-0.30273 0.93457,-0.60547 1.25196,-0.9082 v 8.40039 h 1.31836 v -10.78125 z m 7.72656,0 c -0.78125,0 -1.42969,0.21094 -1.94727,0.63086 -0.5127,0.41993 -0.90234,1.01856 -1.16601,1.79492 -0.25879,0.77148 -0.38867,1.79102 -0.38867,3.06055 0,2.0166 0.35448,3.47168 1.0625,4.36523 0.59082,0.7422 1.4043,1.11329 2.43945,1.11329 0.78613,0 1.43457,-0.21094 1.94727,-0.63086 0.51758,-0.4248 0.90722,-1.02149 1.16601,-1.79297 0.25879,-0.77637 0.38867,-1.79492 0.38867,-3.05469 0,-1.06445 -0.0811,-1.91016 -0.24218,-2.53516 -0.16114,-0.62988 -0.38477,-1.16113 -0.66797,-1.5957 -0.2832,-0.43945 -0.6416,-0.77441 -1.07617,-1.00391 -0.43457,-0.23437 -0.93946,-0.35156 -1.51563,-0.35156 z m 88.95703,0 c -0.22949,0.46387 -0.62011,0.94238 -1.17187,1.43555 -0.55176,0.49316 -1.19629,0.91308 -1.9336,1.25976 v 1.27539 c 0.41016,-0.15136 0.87208,-0.3789 1.38477,-0.68164 0.51758,-0.30273 0.93457,-0.60547 1.25195,-0.9082 v 8.40039 h 1.31836 v -10.78125 z m 7.72656,0 c -0.78124,0 -1.42968,0.21094 -1.94726,0.63086 -0.51269,0.41993 -0.90039,1.01856 -1.16406,1.79492 -0.2588,0.77148 -0.38868,1.79102 -0.38868,3.06055 0,2.0166 0.35449,3.47168 1.0625,4.36523 0.59082,0.7422 1.40235,1.11329 2.4375,1.11329 0.78614,0 1.43653,-0.21094 1.94922,-0.63086 0.51758,-0.4248 0.90528,-1.02149 1.16406,-1.79297 0.2588,-0.77637 0.38868,-1.79492 0.38868,-3.05469 0,-1.06445 -0.0811,-1.91016 -0.24219,-2.53516 -0.16113,-0.62988 -0.38281,-1.16113 -0.66602,-1.5957 -0.2832,-0.43945 -0.6416,-0.77441 -1.07617,-1.00391 -0.43456,-0.23437 -0.9414,-0.35156 -1.51758,-0.35156 z m -96.69922,1.0918 c 0.61524,0 1.12891,0.29004 1.53907,0.87109 0.41504,0.58106 0.62304,1.75586 0.62304,3.52344 0,1.75781 -0.208,2.92969 -0.62304,3.51563 -0.41016,0.58593 -0.91797,0.8789 -1.52344,0.8789 -0.60547,0 -1.11621,-0.29004 -1.53125,-0.87109 -0.41016,-0.58594 -0.61523,-1.76075 -0.61523,-3.52344 0,-1.76269 0.22753,-2.9707 0.68164,-3.625 0.36132,-0.51269 0.84375,-0.76953 1.44921,-0.76953 z m 96.68555,0 c 0.61523,0 1.1289,0.29004 1.53906,0.87109 0.41504,0.58106 0.6211,1.75586 0.6211,3.52344 0,1.75781 -0.20606,2.92969 -0.6211,3.51563 -0.41016,0.58593 -0.91992,0.8789 -1.52539,0.8789 -0.60546,0 -1.11425,-0.29004 -1.52929,-0.87109 -0.41016,-0.58594 -0.61524,-1.76075 -0.61524,-3.52344 0,-1.76269 0.22754,-2.9707 0.68164,-3.625 0.36133,-0.51269 0.84376,-0.76953 1.44922,-0.76953 z" />
    <path
       id="line18"
       style="fill:none;stroke:#000000;stroke-width:5"
       d="m 185,350 h -26 m 156,0 h 26 M 217,300 h -26 m 92,0 h 26 M 220,200 h 60 m -50,-24 40,-1 m -40,50 h 40" />
    <path
       id="text16"
       style="fill:#ffffff;stroke:#ffffff"
       d="m 200.05469,293.10742 c -0.2295,0.46387 -0.62012,0.94238 -1.17188,1.43555 -0.55175,0.49316 -1.19629,0.91308 -1.93359,1.25976 v 1.27539 c 0.41015,-0.15136 0.87206,-0.3789 1.38476,-0.68164 0.51758,-0.30273 0.93457,-0.60547 1.25196,-0.9082 v 8.40039 h 1.31836 v -10.78125 z m 7.72656,0 c -0.78125,0 -1.42969,0.21094 -1.94727,0.63086 -0.5127,0.41993 -0.90234,1.01856 -1.16601,1.79492 -0.25879,0.77148 -0.38867,1.79102 -0.38867,3.06055 0,2.0166 0.35448,3.47168 1.0625,4.36523 0.59082,0.7422 1.4043,1.11329 2.43945,1.11329 0.78613,0 1.43457,-0.21094 1.94727,-0.63086 0.51758,-0.4248 0.90722,-1.02149 1.16601,-1.79297 0.25879,-0.77637 0.38867,-1.79492 0.38867,-3.05469 0,-1.06445 -0.0811,-1.91016 -0.24218,-2.53516 -0.16114,-0.62988 -0.38477,-1.16113 -0.66797,-1.5957 -0.2832,-0.43945 -0.6416,-0.77441 -1.07617,-1.00391 -0.43457,-0.23437 -0.93946,-0.35156 -1.51563,-0.35156 z m 84.95703,0 c -0.22949,0.46387 -0.62011,0.94238 -1.17187,1.43555 -0.55176,0.49316 -1.19629,0.91308 -1.9336,1.25976 v 1.27539 c 0.41016,-0.15136 0.87208,-0.3789 1.38477,-0.68164 0.51758,-0.30273 0.93457,-0.60547 1.25195,-0.9082 v 8.40039 h 1.31836 v -10.78125 z m 7.72656,0 c -0.78124,0 -1.42968,0.21094 -1.94726,0.63086 -0.51269,0.41993 -0.90039,1.01856 -1.16406,1.79492 -0.2588,0.77148 -0.38868,1.79102 -0.38868,3.06055 0,2.0166 0.35449,3.47168 1.0625,4.36523 0.59082,0.7422 1.40235,1.11329 2.4375,1.11329 0.78614,0 1.43653,-0.21094 1.94922,-0.63086 0.51758,-0.4248 0.90528,-1.02149 1.16406,-1.79297 0.2588,-0.77637 0.38868,-1.79492 0.38868,-3.05469 0,-1.06445 -0.0811,-1.91016 -0.24219,-2.53516 -0.16113,-0.62988 -0.38281,-1.16113 -0.66602,-1.5957 -0.2832,-0.43945 -0.6416,-0.77441 -1.07617,-1.00391 -0.43456,-0.23437 -0.9414,-0.35156 -1.51758,-0.35156 z m -92.69922,1.0918 c 0.61524,0 1.12891,0.29004 1.53907,0.87109 0.41504,0.58106 0.62304,1.75586 0.62304,3.52344 0,1.75781 -0.208,2.92969 -0.62304,3.51563 -0.41016,0.58593 -0.91797,0.8789 -1.52344,0.8789 -0.60547,0 -1.11621,-0.29004 -1.53125,-0.87109 -0.41016,-0.58594 -0.61523,-1.76075 -0.61523,-3.52344 0,-1.76269 0.22753,-2.9707 0.68164,-3.625 0.36132,-0.51269 0.84375,-0.76953 1.44921,-0.76953 z m 92.68555,0 c 0.61523,0 1.1289,0.29004 1.53906,0.87109 0.41504,0.58106 0.6211,1.75586 0.6211,3.52344 0,1.75781 -0.20606,2.92969 -0.6211,3.51563 -0.41016,0.58593 -0.91992,0.8789 -1.52539,0.8789 -0.60546,0 -1.11425,-0.29004 -1.52929,-0.87109 -0.41016,-0.58594 -0.61524,-1.76075 -0.61524,-3.52344 0,-1.76269 0.22754,-2.9707 0.68164,-3.625 0.36133,-0.51269 0.84376,-0.76953 1.44922,-0.76953 z m 23.73828,48.9082 c -1.0205,0 -1.83398,0.2666 -2.43945,0.79883 -0.60547,0.52735 -0.9541,1.2959 -1.04688,2.30664 l 1.35547,0.14063 c 0.005,-0.67383 0.19727,-1.20118 0.57813,-1.58204 0.38086,-0.38086 0.88867,-0.57226 1.52344,-0.57226 0.60058,0 1.08593,0.17969 1.45703,0.54101 0.37597,0.35645 0.56445,0.7959 0.56445,1.31836 0,0.49805 -0.20508,1.02832 -0.61523,1.58985 -0.41016,0.55664 -1.19825,1.31446 -2.36524,2.27148 -0.75195,0.61524 -1.32813,1.15626 -1.72851,1.625 -0.39551,0.46875 -0.68457,0.94434 -0.86524,1.42774 -0.11227,0.29297 -0.16403,0.59863 -0.1543,0.91601 h 7.09766 v -1.26758 h -5.26562 c 0.14648,-0.23926 0.33202,-0.47461 0.55664,-0.70898 0.2246,-0.23926 0.73242,-0.69141 1.52343,-1.35547 0.94727,-0.80078 1.62403,-1.43164 2.0293,-1.89062 0.41016,-0.45898 0.70313,-0.89551 0.87891,-1.31055 0.17578,-0.41504 0.26367,-0.83594 0.26367,-1.26563 0,-0.84472 -0.30176,-1.5537 -0.90234,-2.125 -0.60059,-0.57128 -1.41504,-0.85742 -2.44532,-0.85742 z m 8.27539,0 c -0.78124,0 -1.42968,0.21094 -1.94726,0.63086 -0.51269,0.41993 -0.90039,1.01856 -1.16406,1.79492 -0.2588,0.77148 -0.38868,1.79102 -0.38868,3.06055 0,2.0166 0.35449,3.47168 1.0625,4.36523 0.59082,0.7422 1.40235,1.11329 2.4375,1.11329 0.78614,0 1.43653,-0.21094 1.94922,-0.63086 0.51758,-0.4248 0.90528,-1.02149 1.16406,-1.79297 0.2588,-0.77637 0.38868,-1.79492 0.38868,-3.05469 0,-1.06445 -0.0811,-1.91016 -0.24219,-2.53516 -0.16113,-0.62988 -0.38281,-1.16113 -0.66602,-1.5957 -0.2832,-0.43945 -0.6416,-0.77441 -1.07617,-1.00391 -0.43456,-0.23437 -0.9414,-0.35156 -1.51758,-0.35156 z m -165.43945,0.375 c -0.63,0 -1.16547,0.11938 -1.60547,0.35938 -0.44,0.24 -0.82062,0.615 -1.14062,1.125 l 0.52539,0.73632 0.10547,-0.0312 c 0.03,-0.15 0.0841,-0.31977 0.16406,-0.50977 0.08,-0.19 0.1957,-0.36539 0.3457,-0.52539 0.15,-0.17 0.34031,-0.30992 0.57031,-0.41992 0.23,-0.12 0.50422,-0.17969 0.82422,-0.17969 0.45,0 0.83993,0.18102 1.16993,0.54101 0.33999,0.35 0.50976,0.89477 0.50976,1.63477 0,0.34 -0.0242,0.65899 -0.0742,0.95899 -0.04,0.28999 -0.12586,0.59039 -0.25586,0.90039 -0.13,0.3 -0.30906,0.62093 -0.53906,0.96093 -0.22,0.34 -0.50914,0.71868 -0.86914,1.13868 -0.36,0.41999 -0.80031,0.89578 -1.32031,1.42578 -0.51,0.52 -1.11641,1.12445 -1.81641,1.81445 v 0.17969 c 0.54,-0.02 1.07547,-0.0293 1.60547,-0.0293 h 1.62109 1.60352 c 0.53,0 1.06547,0.009 1.60547,0.0293 -0.05,-0.2 -0.0742,-0.36977 -0.0742,-0.50977 0,-0.15 0.0242,-0.33469 0.0742,-0.55469 -0.42,0.03 -0.90875,0.0599 -1.46875,0.0899 -0.55,0.02 -1.18625,0.0312 -1.90625,0.0312 h -1.42383 c 0.16,-0.22 0.35398,-0.46071 0.58398,-0.72071 0.23,-0.26 0.47071,-0.51929 0.72071,-0.77929 0.26,-0.27 0.51367,-0.53125 0.76367,-0.78125 l 0.66016,-0.66016 c 0.31999,-0.32 0.59617,-0.62039 0.82617,-0.90039 0.24,-0.29 0.43398,-0.57352 0.58398,-0.85352 0.16,-0.27999 0.28133,-0.56546 0.36133,-0.85546 0.08,-0.3 0.11914,-0.62094 0.11914,-0.96094 0,-0.47 -0.0746,-0.86922 -0.22461,-1.19922 -0.15,-0.33 -0.35523,-0.60422 -0.61523,-0.82422 -0.25,-0.22 -0.55039,-0.38047 -0.90039,-0.48047 -0.35,-0.1 -0.71938,-0.15039 -1.10938,-0.15039 z m 8.80469,0 c -0.65,0 -1.20039,0.13992 -1.65039,0.41992 -0.45,0.27 -0.81375,0.63938 -1.09375,1.10938 -0.27,0.46 -0.46594,1.00672 -0.58594,1.63672 -0.12,0.62 -0.17969,1.28414 -0.17969,1.99414 0,0.71 0.0448,1.37976 0.13477,2.00976 0.1,0.62 0.27906,1.16477 0.53906,1.63477 0.26,0.46 0.61641,0.82008 1.06641,1.08008 0.46,0.26 1.04953,0.39062 1.76953,0.39062 0.61,0 1.13422,-0.13625 1.57422,-0.40625 0.44,-0.27 0.80008,-0.63937 1.08008,-1.10937 0.28999,-0.47 0.50648,-1.01477 0.64648,-1.63477 0.14,-0.62 0.20898,-1.27484 0.20898,-1.96484 0,-0.71 -0.0504,-1.37414 -0.15039,-1.99414 -0.09,-0.63 -0.26539,-1.17672 -0.52539,-1.63672 -0.26,-0.47 -0.61812,-0.83938 -1.07812,-1.10938 -0.45,-0.28 -1.03586,-0.41992 -1.75586,-0.41992 z m 0,0.48047 c 0.43,0 0.79008,0.11938 1.08008,0.35938 0.29,0.24 0.52507,0.57023 0.70507,0.99023 0.18,0.42 0.305,0.91438 0.375,1.48438 0.08,0.56999 0.11915,1.1857 0.11915,1.8457 0,0.66 -0.0391,1.2757 -0.11915,1.8457 -0.07,0.57 -0.195,1.06438 -0.375,1.48438 -0.18,0.42 -0.41507,0.75023 -0.70507,0.99023 -0.29,0.24 -0.65008,0.35938 -1.08008,0.35938 -0.43,0 -0.79008,-0.11938 -1.08008,-0.35938 -0.29,-0.24 -0.52508,-0.57023 -0.70508,-0.99023 -0.18,-0.42 -0.31062,-0.91438 -0.39062,-1.48438 -0.07,-0.57 -0.10352,-1.1857 -0.10352,-1.8457 0,-0.71 0.0335,-1.34992 0.10352,-1.91992 0.08,-0.58 0.21062,-1.07438 0.39062,-1.48438 0.18,-0.41 0.41508,-0.72531 0.70508,-0.94531 0.29,-0.22 0.65008,-0.33008 1.08008,-0.33008 z m 156.62109,0.23633 c 0.61523,0 1.1289,0.29004 1.53906,0.87109 0.41504,0.58106 0.6211,1.75586 0.6211,3.52344 0,1.75781 -0.20606,2.92969 -0.6211,3.51563 -0.41016,0.58593 -0.91992,0.8789 -1.52539,0.8789 -0.60546,0 -1.11425,-0.29004 -1.52929,-0.87109 -0.41016,-0.58594 -0.61524,-1.76075 -0.61524,-3.52344 0,-1.76269 0.22754,-2.9707 0.68164,-3.625 0.36133,-0.51269 0.84376,-0.76953 1.44922,-0.76953 z" />
  </g>
</svg>
