<svg
   width="500"
   height="500"
   viewBox="0 0 500 500"
   preserveAspectRatio="xMinYMin meet"
   version="1.1"
   xmlns="http://www.w3.org/2000/svg"
   xmlns:svg="http://www.w3.org/2000/svg">

  <path style="fill:#202020;"
    d="M 250,0 C 111.93,0 0,111.93 0,250 0,388.07 111.93,500 250,500 388.07,500 500,388.07 500,250 500,111.93 388.07,0 250,0 Z m 0,15 c 129.79,0 235,105.21 235,235 -0.02,13.01 -1.12,25.99 -3.29,38.81 v 0 H 294.5 C 286.28,271.23 268.62,260 249.22,260 c -19.4,0.01 -37.03,11.24 -45.25,28.81 H 18.56 v 0 C 16.3,275.99 15.11,263.01 15,250 15,120.21 120.21,15 250,15 Z" />
</svg>
