<svg
   width="500"
   height="500"
   viewBox="0 0 500 500"
   preserveAspectRatio="xMinYMin meet"
   version="1.1"
   xmlns="http://www.w3.org/2000/svg"
   xmlns:svg="http://www.w3.org/2000/svg">

  <circle style="fill:#101010"
    cx="250" cy="250" r="250" />
    <path
       style="fill:#ffffff;"
       d="m 210.55,67.93 -10.21,1.62 3.25,20.53 c -4.12,0.73 -8.21,1.56 -12.26,2.49 l -3.4,-14.15 -6.03,1.45 3.38,14.08 c -4.73,1.2 -9.4,2.55 -14.02,4 l -4.49,-13.82 -5.9,1.92 4.5,13.85 c -4.61,1.57 -9.18,3.23 -13.68,5.05 l -5.57,-13.45 -5.73,2.37 5.59,13.48 c -3.84,1.65 -7.63,3.39 -11.37,5.22 l -9.47,-18.58 -9.21,4.69 9.47,18.58 c -3.68,1.98 -7.3,4.04 -10.87,6.18 l -7.65,-12.49 -5.29,3.24 7.68,12.53 c -4.11,2.6 -8.15,5.29 -12.11,8.1 l -8.64,-11.89 -5.02,3.65 8.66,11.92 c -3.89,2.91 -7.69,5.93 -11.42,9.04 l -9.59,-11.22 -4.72,4.03 9.54,11.18 c -3.13,2.74 -6.2,5.56 -9.2,8.44 l -14.82,-14.79 -7.31,7.31 29.46,29.42 7.31,-7.31 -0.03,-0.03 C 111.48,145.7 148.88,124.44 190.55,113.94 l 0.76,-0.18 c 7.23,-1.8 14.6,-3.27 22.07,-4.41 l 0.85,-0.13 c 11.7,-1.73 23.68,-2.64 35.86,-2.64 12.21,0 24.21,0.91 35.93,2.65 l 0.58,0.09 c 50.9,7.69 96.62,31.19 132.14,65.24 l 0.02,-0.02 7.29,7.29 29.29,-29.55 -7.31,-7.31 -14.77,14.91 c -2.97,-2.85 -6,-5.63 -9.09,-8.34 l 9.57,-11.21 -4.72,-4.03 -9.61,11.26 c -3.72,-3.11 -7.52,-6.13 -11.41,-9.04 l 8.68,-11.95 -5.02,-3.65 -8.66,11.92 c -3.95,-2.81 -8,-5.5 -12.1,-8.1 l 7.7,-12.56 -5.29,-3.24 -7.67,12.52 c -3.57,-2.14 -7.19,-4.2 -10.87,-6.18 l 9.48,-18.61 -9.21,-4.69 -9.48,18.61 c -3.74,-1.83 -7.53,-3.57 -11.36,-5.22 l 5.59,-13.51 -5.73,-2.37 -5.58,13.47 c -4.49,-1.81 -9.06,-3.48 -13.67,-5.05 l 4.5,-13.86 -5.9,-1.92 -4.49,13.83 c -4.62,-1.45 -9.29,-2.81 -14.02,-4.01 l 3.38,-14.09 -6.03,-1.45 -3.4,14.15 c -4.05,-0.93 -8.14,-1.76 -12.26,-2.49 l 3.25,-20.53 -10.21,-1.62 -3.25,20.52 c -4.11,-0.57 -8.26,-1.05 -12.43,-1.42 l 1.14,-14.49 -6.18,-0.49 -1.14,14.51 c -4.82,-0.32 -9.67,-0.52 -14.56,-0.58 V 71.42 h -6.2 v 14.55 c -4.89,0.06 -9.74,0.26 -14.57,0.58 l -1.14,-14.51 -6.18,0.49 1.14,14.49 c -4.17,0.38 -8.32,0.85 -12.43,1.42 z m 40.45,57.45 c -3.41,0 -6.42,0.7 -9.03,2.1 -2.61,1.4 -4.62,3.55 -6.02,6.44 -1.38,2.88 -2.08,5.98 -2.08,9.31 0,3.36 0.7,6.4 2.1,9.13 1.4,2.72 3.47,4.81 6.21,6.26 2.75,1.43 5.81,2.15 9.17,2.15 2.49,0 4.92,-0.44 7.28,-1.33 2.37,-0.9 4.66,-2.24 6.89,-4.02 v -12.7 l -14.49,0.02 v 4.02 h 10.06 v 6.37 c -0.96,0.86 -2.38,1.67 -4.25,2.43 -1.87,0.75 -3.78,1.12 -5.74,1.12 -2.26,0 -4.39,-0.5 -6.4,-1.49 -2.01,-1 -3.54,-2.52 -4.6,-4.58 -1.04,-2.05 -1.56,-4.61 -1.56,-7.66 0,-2.47 0.44,-4.77 1.31,-6.89 0.51,-1.23 1.23,-2.36 2.15,-3.39 0.93,-1.03 2.16,-1.85 3.66,-2.47 1.51,-0.64 3.3,-0.96 5.37,-0.96 1.73,0 3.3,0.3 4.71,0.91 1.42,0.59 2.51,1.39 3.27,2.38 0.76,1 1.4,2.37 1.91,4.11 l 4.08,-1.12 c -0.59,-2.3 -1.45,-4.17 -2.59,-5.6 -1.14,-1.43 -2.71,-2.55 -4.71,-3.34 -1.99,-0.81 -4.22,-1.21 -6.7,-1.21 z m -47.78,0.58 v 34.22 h 25.53 v -4.04 h -21.01 v -11.65 h 18.93 v -4.02 h -18.93 v -10.48 h 20.21 v -4.04 z m 66.4,0 v 4.04 h 11.27 v 30.19 h 4.53 v -30.19 h 11.32 v -4.04 z m -43.39,51.65 c -1.2,0 -2.23,0.43 -3.09,1.28 -0.85,0.85 -1.28,1.88 -1.28,3.09 0,1.22 0.43,2.26 1.28,3.11 0.86,0.85 1.89,1.28 3.09,1.28 1.21,0 2.24,-0.43 3.09,-1.28 0.86,-0.86 1.29,-1.9 1.29,-3.11 0,-1.21 -0.43,-2.24 -1.28,-3.09 -0.85,-0.85 -1.89,-1.28 -3.11,-1.28 z m 32.98,0 -6.71,23.93 h 2.29 l 6.69,-23.93 z m -66.29,0.3 c -2.2,0 -3.95,0.57 -5.25,1.72 -1.3,1.14 -2.06,2.79 -2.26,4.97 l 2.92,0.3 c 0.01,-1.45 0.43,-2.59 1.25,-3.41 0.82,-0.82 1.91,-1.23 3.28,-1.23 1.29,0 2.34,0.39 3.14,1.17 0.81,0.77 1.21,1.71 1.21,2.84 0,1.07 -0.44,2.22 -1.33,3.43 -0.88,1.2 -2.58,2.83 -5.1,4.89 -1.62,1.33 -2.86,2.49 -3.72,3.5 -0.85,1.01 -1.47,2.04 -1.86,3.08 -0.24,0.63 -0.35,1.29 -0.33,1.97 h 15.29 v -2.73 h -11.35 c 0.32,-0.52 0.71,-1.03 1.2,-1.53 0.48,-0.52 1.58,-1.49 3.28,-2.92 2.04,-1.73 3.5,-3.08 4.37,-4.07 0.88,-0.99 1.51,-1.93 1.89,-2.83 0.38,-0.89 0.57,-1.8 0.57,-2.73 0,-1.82 -0.65,-3.35 -1.94,-4.58 -1.29,-1.23 -3.05,-1.85 -5.27,-1.85 z m 42.49,0.1 v 23.14 h 3.06 v -10.51 h 10.86 v -2.73 h -10.86 v -7.17 h 12.54 v -2.73 z m 28.56,0 v 23.14 h 8.35 c 1.4,0 2.63,-0.13 3.71,-0.39 1.08,-0.26 2,-0.65 2.76,-1.15 0.77,-0.52 1.47,-1.22 2.11,-2.1 0.64,-0.89 1.17,-2.02 1.58,-3.38 0.41,-1.36 0.62,-2.91 0.62,-4.67 0,-2.06 -0.31,-3.89 -0.92,-5.49 -0.6,-1.61 -1.51,-2.93 -2.73,-3.96 -0.94,-0.8 -2.07,-1.35 -3.39,-1.66 -0.95,-0.22 -2.32,-0.33 -4.12,-0.33 z m 23.86,0 v 23.14 h 3.06 v -23.14 z m 6.11,0 8.96,23.14 h 3.14 l 9.06,-23.14 h -3.12 l -6.25,16.81 c -0.47,1.26 -0.89,2.53 -1.25,3.79 -0.33,-1.18 -0.73,-2.44 -1.21,-3.79 l -6.01,-16.81 z m -87.98,0.32 -2.24,11.88 2.67,0.35 c 0.42,-0.66 1,-1.2 1.74,-1.61 0.74,-0.42 1.56,-0.63 2.48,-0.63 1.47,0 2.66,0.47 3.57,1.4 0.92,0.94 1.37,2.21 1.37,3.83 0,1.7 -0.47,3.07 -1.42,4.1 -0.95,1.03 -2.1,1.55 -3.47,1.55 -1.14,0 -2.11,-0.36 -2.92,-1.09 -0.8,-0.74 -1.31,-1.83 -1.53,-3.28 l -2.98,0.25 c 0.19,1.95 0.95,3.51 2.27,4.69 1.34,1.18 3.06,1.77 5.16,1.77 2.57,0 4.59,-0.94 6.08,-2.81 1.22,-1.53 1.83,-3.34 1.83,-5.43 0,-2.2 -0.69,-4 -2.08,-5.4 -1.39,-1.4 -3.09,-2.1 -5.11,-2.1 -1.53,0 -2.98,0.48 -4.37,1.45 l 1.25,-6.22 h 9.23 v -2.71 z m 20.29,0.99 c 0.73,0 1.35,0.26 1.86,0.79 0.53,0.52 0.79,1.14 0.79,1.88 0,0.74 -0.26,1.37 -0.79,1.89 -0.52,0.52 -1.14,0.77 -1.86,0.77 -0.74,0 -1.37,-0.26 -1.89,-0.77 -0.52,-0.53 -0.77,-1.16 -0.77,-1.89 0,-0.74 0.26,-1.36 0.77,-1.88 0.53,-0.53 1.16,-0.79 1.89,-0.79 z m 40.79,1.42 h 4.86 c 1.82,0 3.14,0.16 3.96,0.47 1.14,0.44 2.1,1.32 2.89,2.62 0.8,1.29 1.2,3.15 1.2,5.57 0,1.75 -0.21,3.24 -0.62,4.47 -0.4,1.22 -0.96,2.19 -1.69,2.92 -0.52,0.52 -1.21,0.92 -2.08,1.2 -0.86,0.28 -2.06,0.43 -3.58,0.43 h -4.94 z"
       />
</svg>
